<?xml version="1.0" encoding="utf-8" standalone="no"?>
<!DOCTYPE svg PUBLIC "-//W3C//DTD SVG 1.1//EN"
  "http://www.w3.org/Graphics/SVG/1.1/DTD/svg11.dtd">
<!-- Created with matplotlib (https://matplotlib.org/) -->
<svg height="325.986375pt" version="1.1" viewBox="0 0 398.560625 325.986375" width="398.560625pt" xmlns="http://www.w3.org/2000/svg" xmlns:xlink="http://www.w3.org/1999/xlink">
 <metadata>
  <rdf:RDF xmlns:cc="http://creativecommons.org/ns#" xmlns:dc="http://purl.org/dc/elements/1.1/" xmlns:rdf="http://www.w3.org/1999/02/22-rdf-syntax-ns#">
   <cc:Work>
    <dc:type rdf:resource="http://purl.org/dc/dcmitype/StillImage"/>
    <dc:date>2023-08-04T12:52:34.575533</dc:date>
    <dc:format>image/svg+xml</dc:format>
    <dc:creator>
     <cc:Agent>
      <dc:title>Matplotlib v3.3.1, https://matplotlib.org/</dc:title>
     </cc:Agent>
    </dc:creator>
   </cc:Work>
  </rdf:RDF>
 </metadata>
 <defs>
  <style type="text/css">*{stroke-linecap:butt;stroke-linejoin:round;}</style>
 </defs>
 <g id="figure_1">
  <g id="patch_1">
   <path d="M 0 325.986375 
L 398.560625 325.986375 
L 398.560625 0 
L 0 0 
z
" style="fill:none;"/>
  </g>
  <g id="axes_1">
   <g id="patch_2">
    <path d="M 34.240625 288.430125 
L 391.360625 288.430125 
L 391.360625 22.318125 
L 34.240625 22.318125 
z
" style="fill:none;"/>
   </g>
   <g id="matplotlib.axis_1">
    <g id="xtick_1">
     <g id="line2d_1">
      <defs>
       <path d="M 0 0 
L 0 3.5 
" id="m661eb060a6" style="stroke:#000000;stroke-width:0.8;"/>
      </defs>
      <g>
       <use style="stroke:#000000;stroke-width:0.8;" x="50.473352" xlink:href="#m661eb060a6" y="288.430125"/>
      </g>
     </g>
     <g id="text_1">
      <!-- 0.000 -->
      <g transform="translate(36.15929 303.028562)scale(0.1 -0.1)">
       <defs>
        <path d="M 31.78125 66.40625 
Q 24.171875 66.40625 20.328125 58.90625 
Q 16.5 51.421875 16.5 36.375 
Q 16.5 21.390625 20.328125 13.890625 
Q 24.171875 6.390625 31.78125 6.390625 
Q 39.453125 6.390625 43.28125 13.890625 
Q 47.125 21.390625 47.125 36.375 
Q 47.125 51.421875 43.28125 58.90625 
Q 39.453125 66.40625 31.78125 66.40625 
z
M 31.78125 74.21875 
Q 44.046875 74.21875 50.515625 64.515625 
Q 56.984375 54.828125 56.984375 36.375 
Q 56.984375 17.96875 50.515625 8.265625 
Q 44.046875 -1.421875 31.78125 -1.421875 
Q 19.53125 -1.421875 13.0625 8.265625 
Q 6.59375 17.96875 6.59375 36.375 
Q 6.59375 54.828125 13.0625 64.515625 
Q 19.53125 74.21875 31.78125 74.21875 
z
" id="DejaVuSans-48"/>
        <path d="M 10.6875 12.40625 
L 21 12.40625 
L 21 0 
L 10.6875 0 
z
" id="DejaVuSans-46"/>
       </defs>
       <use xlink:href="#DejaVuSans-48"/>
       <use x="63.623047" xlink:href="#DejaVuSans-46"/>
       <use x="95.410156" xlink:href="#DejaVuSans-48"/>
       <use x="159.033203" xlink:href="#DejaVuSans-48"/>
       <use x="222.65625" xlink:href="#DejaVuSans-48"/>
      </g>
     </g>
    </g>
    <g id="xtick_2">
     <g id="line2d_2">
      <g>
       <use style="stroke:#000000;stroke-width:0.8;" x="114.497755" xlink:href="#m661eb060a6" y="288.430125"/>
      </g>
     </g>
     <g id="text_2">
      <!-- 0.005 -->
      <g transform="translate(100.183692 303.028562)scale(0.1 -0.1)">
       <defs>
        <path d="M 10.796875 72.90625 
L 49.515625 72.90625 
L 49.515625 64.59375 
L 19.828125 64.59375 
L 19.828125 46.734375 
Q 21.96875 47.46875 24.109375 47.828125 
Q 26.265625 48.1875 28.421875 48.1875 
Q 40.625 48.1875 47.75 41.5 
Q 54.890625 34.8125 54.890625 23.390625 
Q 54.890625 11.625 47.5625 5.09375 
Q 40.234375 -1.421875 26.90625 -1.421875 
Q 22.3125 -1.421875 17.546875 -0.640625 
Q 12.796875 0.140625 7.71875 1.703125 
L 7.71875 11.625 
Q 12.109375 9.234375 16.796875 8.0625 
Q 21.484375 6.890625 26.703125 6.890625 
Q 35.15625 6.890625 40.078125 11.328125 
Q 45.015625 15.765625 45.015625 23.390625 
Q 45.015625 31 40.078125 35.4375 
Q 35.15625 39.890625 26.703125 39.890625 
Q 22.75 39.890625 18.8125 39.015625 
Q 14.890625 38.140625 10.796875 36.28125 
z
" id="DejaVuSans-53"/>
       </defs>
       <use xlink:href="#DejaVuSans-48"/>
       <use x="63.623047" xlink:href="#DejaVuSans-46"/>
       <use x="95.410156" xlink:href="#DejaVuSans-48"/>
       <use x="159.033203" xlink:href="#DejaVuSans-48"/>
       <use x="222.65625" xlink:href="#DejaVuSans-53"/>
      </g>
     </g>
    </g>
    <g id="xtick_3">
     <g id="line2d_3">
      <g>
       <use style="stroke:#000000;stroke-width:0.8;" x="178.522157" xlink:href="#m661eb060a6" y="288.430125"/>
      </g>
     </g>
     <g id="text_3">
      <!-- 0.010 -->
      <g transform="translate(164.208094 303.028562)scale(0.1 -0.1)">
       <defs>
        <path d="M 12.40625 8.296875 
L 28.515625 8.296875 
L 28.515625 63.921875 
L 10.984375 60.40625 
L 10.984375 69.390625 
L 28.421875 72.90625 
L 38.28125 72.90625 
L 38.28125 8.296875 
L 54.390625 8.296875 
L 54.390625 0 
L 12.40625 0 
z
" id="DejaVuSans-49"/>
       </defs>
       <use xlink:href="#DejaVuSans-48"/>
       <use x="63.623047" xlink:href="#DejaVuSans-46"/>
       <use x="95.410156" xlink:href="#DejaVuSans-48"/>
       <use x="159.033203" xlink:href="#DejaVuSans-49"/>
       <use x="222.65625" xlink:href="#DejaVuSans-48"/>
      </g>
     </g>
    </g>
    <g id="xtick_4">
     <g id="line2d_4">
      <g>
       <use style="stroke:#000000;stroke-width:0.8;" x="242.546559" xlink:href="#m661eb060a6" y="288.430125"/>
      </g>
     </g>
     <g id="text_4">
      <!-- 0.015 -->
      <g transform="translate(228.232497 303.028562)scale(0.1 -0.1)">
       <use xlink:href="#DejaVuSans-48"/>
       <use x="63.623047" xlink:href="#DejaVuSans-46"/>
       <use x="95.410156" xlink:href="#DejaVuSans-48"/>
       <use x="159.033203" xlink:href="#DejaVuSans-49"/>
       <use x="222.65625" xlink:href="#DejaVuSans-53"/>
      </g>
     </g>
    </g>
    <g id="xtick_5">
     <g id="line2d_5">
      <g>
       <use style="stroke:#000000;stroke-width:0.8;" x="306.570962" xlink:href="#m661eb060a6" y="288.430125"/>
      </g>
     </g>
     <g id="text_5">
      <!-- 0.020 -->
      <g transform="translate(292.256899 303.028562)scale(0.1 -0.1)">
       <defs>
        <path d="M 19.1875 8.296875 
L 53.609375 8.296875 
L 53.609375 0 
L 7.328125 0 
L 7.328125 8.296875 
Q 12.9375 14.109375 22.625 23.890625 
Q 32.328125 33.6875 34.8125 36.53125 
Q 39.546875 41.84375 41.421875 45.53125 
Q 43.3125 49.21875 43.3125 52.78125 
Q 43.3125 58.59375 39.234375 62.25 
Q 35.15625 65.921875 28.609375 65.921875 
Q 23.96875 65.921875 18.8125 64.3125 
Q 13.671875 62.703125 7.8125 59.421875 
L 7.8125 69.390625 
Q 13.765625 71.78125 18.9375 73 
Q 24.125 74.21875 28.421875 74.21875 
Q 39.75 74.21875 46.484375 68.546875 
Q 53.21875 62.890625 53.21875 53.421875 
Q 53.21875 48.921875 51.53125 44.890625 
Q 49.859375 40.875 45.40625 35.40625 
Q 44.1875 33.984375 37.640625 27.21875 
Q 31.109375 20.453125 19.1875 8.296875 
z
" id="DejaVuSans-50"/>
       </defs>
       <use xlink:href="#DejaVuSans-48"/>
       <use x="63.623047" xlink:href="#DejaVuSans-46"/>
       <use x="95.410156" xlink:href="#DejaVuSans-48"/>
       <use x="159.033203" xlink:href="#DejaVuSans-50"/>
       <use x="222.65625" xlink:href="#DejaVuSans-48"/>
      </g>
     </g>
    </g>
    <g id="xtick_6">
     <g id="line2d_6">
      <g>
       <use style="stroke:#000000;stroke-width:0.8;" x="370.595364" xlink:href="#m661eb060a6" y="288.430125"/>
      </g>
     </g>
     <g id="text_6">
      <!-- 0.025 -->
      <g transform="translate(356.281302 303.028562)scale(0.1 -0.1)">
       <use xlink:href="#DejaVuSans-48"/>
       <use x="63.623047" xlink:href="#DejaVuSans-46"/>
       <use x="95.410156" xlink:href="#DejaVuSans-48"/>
       <use x="159.033203" xlink:href="#DejaVuSans-50"/>
       <use x="222.65625" xlink:href="#DejaVuSans-53"/>
      </g>
     </g>
    </g>
    <g id="text_7">
     <!-- Time (ms) -->
     <g transform="translate(187.601406 316.706687)scale(0.1 -0.1)">
      <defs>
       <path d="M -0.296875 72.90625 
L 61.375 72.90625 
L 61.375 64.59375 
L 35.5 64.59375 
L 35.5 0 
L 25.59375 0 
L 25.59375 64.59375 
L -0.296875 64.59375 
z
" id="DejaVuSans-84"/>
       <path d="M 9.421875 54.6875 
L 18.40625 54.6875 
L 18.40625 0 
L 9.421875 0 
z
M 9.421875 75.984375 
L 18.40625 75.984375 
L 18.40625 64.59375 
L 9.421875 64.59375 
z
" id="DejaVuSans-105"/>
       <path d="M 52 44.1875 
Q 55.375 50.25 60.0625 53.125 
Q 64.75 56 71.09375 56 
Q 79.640625 56 84.28125 50.015625 
Q 88.921875 44.046875 88.921875 33.015625 
L 88.921875 0 
L 79.890625 0 
L 79.890625 32.71875 
Q 79.890625 40.578125 77.09375 44.375 
Q 74.3125 48.1875 68.609375 48.1875 
Q 61.625 48.1875 57.5625 43.546875 
Q 53.515625 38.921875 53.515625 30.90625 
L 53.515625 0 
L 44.484375 0 
L 44.484375 32.71875 
Q 44.484375 40.625 41.703125 44.40625 
Q 38.921875 48.1875 33.109375 48.1875 
Q 26.21875 48.1875 22.15625 43.53125 
Q 18.109375 38.875 18.109375 30.90625 
L 18.109375 0 
L 9.078125 0 
L 9.078125 54.6875 
L 18.109375 54.6875 
L 18.109375 46.1875 
Q 21.1875 51.21875 25.484375 53.609375 
Q 29.78125 56 35.6875 56 
Q 41.65625 56 45.828125 52.96875 
Q 50 49.953125 52 44.1875 
z
" id="DejaVuSans-109"/>
       <path d="M 56.203125 29.59375 
L 56.203125 25.203125 
L 14.890625 25.203125 
Q 15.484375 15.921875 20.484375 11.0625 
Q 25.484375 6.203125 34.421875 6.203125 
Q 39.59375 6.203125 44.453125 7.46875 
Q 49.3125 8.734375 54.109375 11.28125 
L 54.109375 2.78125 
Q 49.265625 0.734375 44.1875 -0.34375 
Q 39.109375 -1.421875 33.890625 -1.421875 
Q 20.796875 -1.421875 13.15625 6.1875 
Q 5.515625 13.8125 5.515625 26.8125 
Q 5.515625 40.234375 12.765625 48.109375 
Q 20.015625 56 32.328125 56 
Q 43.359375 56 49.78125 48.890625 
Q 56.203125 41.796875 56.203125 29.59375 
z
M 47.21875 32.234375 
Q 47.125 39.59375 43.09375 43.984375 
Q 39.0625 48.390625 32.421875 48.390625 
Q 24.90625 48.390625 20.390625 44.140625 
Q 15.875 39.890625 15.1875 32.171875 
z
" id="DejaVuSans-101"/>
       <path id="DejaVuSans-32"/>
       <path d="M 31 75.875 
Q 24.46875 64.65625 21.28125 53.65625 
Q 18.109375 42.671875 18.109375 31.390625 
Q 18.109375 20.125 21.3125 9.0625 
Q 24.515625 -2 31 -13.1875 
L 23.1875 -13.1875 
Q 15.875 -1.703125 12.234375 9.375 
Q 8.59375 20.453125 8.59375 31.390625 
Q 8.59375 42.28125 12.203125 53.3125 
Q 15.828125 64.359375 23.1875 75.875 
z
" id="DejaVuSans-40"/>
       <path d="M 44.28125 53.078125 
L 44.28125 44.578125 
Q 40.484375 46.53125 36.375 47.5 
Q 32.28125 48.484375 27.875 48.484375 
Q 21.1875 48.484375 17.84375 46.4375 
Q 14.5 44.390625 14.5 40.28125 
Q 14.5 37.15625 16.890625 35.375 
Q 19.28125 33.59375 26.515625 31.984375 
L 29.59375 31.296875 
Q 39.15625 29.25 43.1875 25.515625 
Q 47.21875 21.78125 47.21875 15.09375 
Q 47.21875 7.46875 41.1875 3.015625 
Q 35.15625 -1.421875 24.609375 -1.421875 
Q 20.21875 -1.421875 15.453125 -0.5625 
Q 10.6875 0.296875 5.421875 2 
L 5.421875 11.28125 
Q 10.40625 8.6875 15.234375 7.390625 
Q 20.0625 6.109375 24.8125 6.109375 
Q 31.15625 6.109375 34.5625 8.28125 
Q 37.984375 10.453125 37.984375 14.40625 
Q 37.984375 18.0625 35.515625 20.015625 
Q 33.0625 21.96875 24.703125 23.78125 
L 21.578125 24.515625 
Q 13.234375 26.265625 9.515625 29.90625 
Q 5.8125 33.546875 5.8125 39.890625 
Q 5.8125 47.609375 11.28125 51.796875 
Q 16.75 56 26.8125 56 
Q 31.78125 56 36.171875 55.265625 
Q 40.578125 54.546875 44.28125 53.078125 
z
" id="DejaVuSans-115"/>
       <path d="M 8.015625 75.875 
L 15.828125 75.875 
Q 23.140625 64.359375 26.78125 53.3125 
Q 30.421875 42.28125 30.421875 31.390625 
Q 30.421875 20.453125 26.78125 9.375 
Q 23.140625 -1.703125 15.828125 -13.1875 
L 8.015625 -13.1875 
Q 14.5 -2 17.703125 9.0625 
Q 20.90625 20.125 20.90625 31.390625 
Q 20.90625 42.671875 17.703125 53.65625 
Q 14.5 64.65625 8.015625 75.875 
z
" id="DejaVuSans-41"/>
      </defs>
      <use xlink:href="#DejaVuSans-84"/>
      <use x="57.958984" xlink:href="#DejaVuSans-105"/>
      <use x="85.742188" xlink:href="#DejaVuSans-109"/>
      <use x="183.154297" xlink:href="#DejaVuSans-101"/>
      <use x="244.677734" xlink:href="#DejaVuSans-32"/>
      <use x="276.464844" xlink:href="#DejaVuSans-40"/>
      <use x="315.478516" xlink:href="#DejaVuSans-109"/>
      <use x="412.890625" xlink:href="#DejaVuSans-115"/>
      <use x="464.990234" xlink:href="#DejaVuSans-41"/>
     </g>
    </g>
   </g>
   <g id="matplotlib.axis_2">
    <g id="ytick_1">
     <g id="line2d_7">
      <defs>
       <path d="M 0 0 
L -3.5 0 
" id="me95bdcb64b" style="stroke:#000000;stroke-width:0.8;"/>
      </defs>
      <g>
       <use style="stroke:#000000;stroke-width:0.8;" x="34.240625" xlink:href="#me95bdcb64b" y="282.174659"/>
      </g>
     </g>
     <g id="text_8">
      <!-- 0 -->
      <g transform="translate(20.878125 285.973877)scale(0.1 -0.1)">
       <use xlink:href="#DejaVuSans-48"/>
      </g>
     </g>
    </g>
    <g id="ytick_2">
     <g id="line2d_8">
      <g>
       <use style="stroke:#000000;stroke-width:0.8;" x="34.240625" xlink:href="#me95bdcb64b" y="226.793885"/>
      </g>
     </g>
     <g id="text_9">
      <!-- 1 -->
      <g transform="translate(20.878125 230.593103)scale(0.1 -0.1)">
       <use xlink:href="#DejaVuSans-49"/>
      </g>
     </g>
    </g>
    <g id="ytick_3">
     <g id="line2d_9">
      <g>
       <use style="stroke:#000000;stroke-width:0.8;" x="34.240625" xlink:href="#me95bdcb64b" y="171.413111"/>
      </g>
     </g>
     <g id="text_10">
      <!-- 2 -->
      <g transform="translate(20.878125 175.21233)scale(0.1 -0.1)">
       <use xlink:href="#DejaVuSans-50"/>
      </g>
     </g>
    </g>
    <g id="ytick_4">
     <g id="line2d_10">
      <g>
       <use style="stroke:#000000;stroke-width:0.8;" x="34.240625" xlink:href="#me95bdcb64b" y="116.032337"/>
      </g>
     </g>
     <g id="text_11">
      <!-- 3 -->
      <g transform="translate(20.878125 119.831556)scale(0.1 -0.1)">
       <defs>
        <path d="M 40.578125 39.3125 
Q 47.65625 37.796875 51.625 33 
Q 55.609375 28.21875 55.609375 21.1875 
Q 55.609375 10.40625 48.1875 4.484375 
Q 40.765625 -1.421875 27.09375 -1.421875 
Q 22.515625 -1.421875 17.65625 -0.515625 
Q 12.796875 0.390625 7.625 2.203125 
L 7.625 11.71875 
Q 11.71875 9.328125 16.59375 8.109375 
Q 21.484375 6.890625 26.8125 6.890625 
Q 36.078125 6.890625 40.9375 10.546875 
Q 45.796875 14.203125 45.796875 21.1875 
Q 45.796875 27.640625 41.28125 31.265625 
Q 36.765625 34.90625 28.71875 34.90625 
L 20.21875 34.90625 
L 20.21875 43.015625 
L 29.109375 43.015625 
Q 36.375 43.015625 40.234375 45.921875 
Q 44.09375 48.828125 44.09375 54.296875 
Q 44.09375 59.90625 40.109375 62.90625 
Q 36.140625 65.921875 28.71875 65.921875 
Q 24.65625 65.921875 20.015625 65.03125 
Q 15.375 64.15625 9.8125 62.3125 
L 9.8125 71.09375 
Q 15.4375 72.65625 20.34375 73.4375 
Q 25.25 74.21875 29.59375 74.21875 
Q 40.828125 74.21875 47.359375 69.109375 
Q 53.90625 64.015625 53.90625 55.328125 
Q 53.90625 49.265625 50.4375 45.09375 
Q 46.96875 40.921875 40.578125 39.3125 
z
" id="DejaVuSans-51"/>
       </defs>
       <use xlink:href="#DejaVuSans-51"/>
      </g>
     </g>
    </g>
    <g id="ytick_5">
     <g id="line2d_11">
      <g>
       <use style="stroke:#000000;stroke-width:0.8;" x="34.240625" xlink:href="#me95bdcb64b" y="60.651563"/>
      </g>
     </g>
     <g id="text_12">
      <!-- 4 -->
      <g transform="translate(20.878125 64.450782)scale(0.1 -0.1)">
       <defs>
        <path d="M 37.796875 64.3125 
L 12.890625 25.390625 
L 37.796875 25.390625 
z
M 35.203125 72.90625 
L 47.609375 72.90625 
L 47.609375 25.390625 
L 58.015625 25.390625 
L 58.015625 17.1875 
L 47.609375 17.1875 
L 47.609375 0 
L 37.796875 0 
L 37.796875 17.1875 
L 4.890625 17.1875 
L 4.890625 26.703125 
z
" id="DejaVuSans-52"/>
       </defs>
       <use xlink:href="#DejaVuSans-52"/>
      </g>
     </g>
    </g>
    <g id="text_13">
     <!-- Absorbance216 -->
     <g transform="translate(14.798438 194.46475)rotate(-90)scale(0.1 -0.1)">
      <defs>
       <path d="M 34.1875 63.1875 
L 20.796875 26.90625 
L 47.609375 26.90625 
z
M 28.609375 72.90625 
L 39.796875 72.90625 
L 67.578125 0 
L 57.328125 0 
L 50.6875 18.703125 
L 17.828125 18.703125 
L 11.1875 0 
L 0.78125 0 
z
" id="DejaVuSans-65"/>
       <path d="M 48.6875 27.296875 
Q 48.6875 37.203125 44.609375 42.84375 
Q 40.53125 48.484375 33.40625 48.484375 
Q 26.265625 48.484375 22.1875 42.84375 
Q 18.109375 37.203125 18.109375 27.296875 
Q 18.109375 17.390625 22.1875 11.75 
Q 26.265625 6.109375 33.40625 6.109375 
Q 40.53125 6.109375 44.609375 11.75 
Q 48.6875 17.390625 48.6875 27.296875 
z
M 18.109375 46.390625 
Q 20.953125 51.265625 25.265625 53.625 
Q 29.59375 56 35.59375 56 
Q 45.5625 56 51.78125 48.09375 
Q 58.015625 40.1875 58.015625 27.296875 
Q 58.015625 14.40625 51.78125 6.484375 
Q 45.5625 -1.421875 35.59375 -1.421875 
Q 29.59375 -1.421875 25.265625 0.953125 
Q 20.953125 3.328125 18.109375 8.203125 
L 18.109375 0 
L 9.078125 0 
L 9.078125 75.984375 
L 18.109375 75.984375 
z
" id="DejaVuSans-98"/>
       <path d="M 30.609375 48.390625 
Q 23.390625 48.390625 19.1875 42.75 
Q 14.984375 37.109375 14.984375 27.296875 
Q 14.984375 17.484375 19.15625 11.84375 
Q 23.34375 6.203125 30.609375 6.203125 
Q 37.796875 6.203125 41.984375 11.859375 
Q 46.1875 17.53125 46.1875 27.296875 
Q 46.1875 37.015625 41.984375 42.703125 
Q 37.796875 48.390625 30.609375 48.390625 
z
M 30.609375 56 
Q 42.328125 56 49.015625 48.375 
Q 55.71875 40.765625 55.71875 27.296875 
Q 55.71875 13.875 49.015625 6.21875 
Q 42.328125 -1.421875 30.609375 -1.421875 
Q 18.84375 -1.421875 12.171875 6.21875 
Q 5.515625 13.875 5.515625 27.296875 
Q 5.515625 40.765625 12.171875 48.375 
Q 18.84375 56 30.609375 56 
z
" id="DejaVuSans-111"/>
       <path d="M 41.109375 46.296875 
Q 39.59375 47.171875 37.8125 47.578125 
Q 36.03125 48 33.890625 48 
Q 26.265625 48 22.1875 43.046875 
Q 18.109375 38.09375 18.109375 28.8125 
L 18.109375 0 
L 9.078125 0 
L 9.078125 54.6875 
L 18.109375 54.6875 
L 18.109375 46.1875 
Q 20.953125 51.171875 25.484375 53.578125 
Q 30.03125 56 36.53125 56 
Q 37.453125 56 38.578125 55.875 
Q 39.703125 55.765625 41.0625 55.515625 
z
" id="DejaVuSans-114"/>
       <path d="M 34.28125 27.484375 
Q 23.390625 27.484375 19.1875 25 
Q 14.984375 22.515625 14.984375 16.5 
Q 14.984375 11.71875 18.140625 8.90625 
Q 21.296875 6.109375 26.703125 6.109375 
Q 34.1875 6.109375 38.703125 11.40625 
Q 43.21875 16.703125 43.21875 25.484375 
L 43.21875 27.484375 
z
M 52.203125 31.203125 
L 52.203125 0 
L 43.21875 0 
L 43.21875 8.296875 
Q 40.140625 3.328125 35.546875 0.953125 
Q 30.953125 -1.421875 24.3125 -1.421875 
Q 15.921875 -1.421875 10.953125 3.296875 
Q 6 8.015625 6 15.921875 
Q 6 25.140625 12.171875 29.828125 
Q 18.359375 34.515625 30.609375 34.515625 
L 43.21875 34.515625 
L 43.21875 35.40625 
Q 43.21875 41.609375 39.140625 45 
Q 35.0625 48.390625 27.6875 48.390625 
Q 23 48.390625 18.546875 47.265625 
Q 14.109375 46.140625 10.015625 43.890625 
L 10.015625 52.203125 
Q 14.9375 54.109375 19.578125 55.046875 
Q 24.21875 56 28.609375 56 
Q 40.484375 56 46.34375 49.84375 
Q 52.203125 43.703125 52.203125 31.203125 
z
" id="DejaVuSans-97"/>
       <path d="M 54.890625 33.015625 
L 54.890625 0 
L 45.90625 0 
L 45.90625 32.71875 
Q 45.90625 40.484375 42.875 44.328125 
Q 39.84375 48.1875 33.796875 48.1875 
Q 26.515625 48.1875 22.3125 43.546875 
Q 18.109375 38.921875 18.109375 30.90625 
L 18.109375 0 
L 9.078125 0 
L 9.078125 54.6875 
L 18.109375 54.6875 
L 18.109375 46.1875 
Q 21.34375 51.125 25.703125 53.5625 
Q 30.078125 56 35.796875 56 
Q 45.21875 56 50.046875 50.171875 
Q 54.890625 44.34375 54.890625 33.015625 
z
" id="DejaVuSans-110"/>
       <path d="M 48.78125 52.59375 
L 48.78125 44.1875 
Q 44.96875 46.296875 41.140625 47.34375 
Q 37.3125 48.390625 33.40625 48.390625 
Q 24.65625 48.390625 19.8125 42.84375 
Q 14.984375 37.3125 14.984375 27.296875 
Q 14.984375 17.28125 19.8125 11.734375 
Q 24.65625 6.203125 33.40625 6.203125 
Q 37.3125 6.203125 41.140625 7.25 
Q 44.96875 8.296875 48.78125 10.40625 
L 48.78125 2.09375 
Q 45.015625 0.34375 40.984375 -0.53125 
Q 36.96875 -1.421875 32.421875 -1.421875 
Q 20.0625 -1.421875 12.78125 6.34375 
Q 5.515625 14.109375 5.515625 27.296875 
Q 5.515625 40.671875 12.859375 48.328125 
Q 20.21875 56 33.015625 56 
Q 37.15625 56 41.109375 55.140625 
Q 45.0625 54.296875 48.78125 52.59375 
z
" id="DejaVuSans-99"/>
       <path d="M 33.015625 40.375 
Q 26.375 40.375 22.484375 35.828125 
Q 18.609375 31.296875 18.609375 23.390625 
Q 18.609375 15.53125 22.484375 10.953125 
Q 26.375 6.390625 33.015625 6.390625 
Q 39.65625 6.390625 43.53125 10.953125 
Q 47.40625 15.53125 47.40625 23.390625 
Q 47.40625 31.296875 43.53125 35.828125 
Q 39.65625 40.375 33.015625 40.375 
z
M 52.59375 71.296875 
L 52.59375 62.3125 
Q 48.875 64.0625 45.09375 64.984375 
Q 41.3125 65.921875 37.59375 65.921875 
Q 27.828125 65.921875 22.671875 59.328125 
Q 17.53125 52.734375 16.796875 39.40625 
Q 19.671875 43.65625 24.015625 45.921875 
Q 28.375 48.1875 33.59375 48.1875 
Q 44.578125 48.1875 50.953125 41.515625 
Q 57.328125 34.859375 57.328125 23.390625 
Q 57.328125 12.15625 50.6875 5.359375 
Q 44.046875 -1.421875 33.015625 -1.421875 
Q 20.359375 -1.421875 13.671875 8.265625 
Q 6.984375 17.96875 6.984375 36.375 
Q 6.984375 53.65625 15.1875 63.9375 
Q 23.390625 74.21875 37.203125 74.21875 
Q 40.921875 74.21875 44.703125 73.484375 
Q 48.484375 72.75 52.59375 71.296875 
z
" id="DejaVuSans-54"/>
      </defs>
      <use xlink:href="#DejaVuSans-65"/>
      <use x="68.408203" xlink:href="#DejaVuSans-98"/>
      <use x="131.884766" xlink:href="#DejaVuSans-115"/>
      <use x="183.984375" xlink:href="#DejaVuSans-111"/>
      <use x="245.166016" xlink:href="#DejaVuSans-114"/>
      <use x="286.279297" xlink:href="#DejaVuSans-98"/>
      <use x="349.755859" xlink:href="#DejaVuSans-97"/>
      <use x="411.035156" xlink:href="#DejaVuSans-110"/>
      <use x="474.414062" xlink:href="#DejaVuSans-99"/>
      <use x="529.394531" xlink:href="#DejaVuSans-101"/>
      <use x="590.917969" xlink:href="#DejaVuSans-50"/>
      <use x="654.541016" xlink:href="#DejaVuSans-49"/>
      <use x="718.164062" xlink:href="#DejaVuSans-54"/>
     </g>
    </g>
   </g>
   <g id="line2d_12">
    <defs>
     <path d="M 0 3 
C 0.795609 3 1.55874 2.683901 2.12132 2.12132 
C 2.683901 1.55874 3 0.795609 3 0 
C 3 -0.795609 2.683901 -1.55874 2.12132 -2.12132 
C 1.55874 -2.683901 0.795609 -3 0 -3 
C -0.795609 -3 -1.55874 -2.683901 -2.12132 -2.12132 
C -2.683901 -1.55874 -3 -0.795609 -3 0 
C -3 0.795609 -2.683901 1.55874 -2.12132 2.12132 
C -1.55874 2.683901 -0.795609 3 0 3 
z
" id="m3c53c804ac" style="stroke:#000000;"/>
    </defs>
    <g clip-path="url(#p5552fe4f75)">
     <use style="stroke:#000000;" x="50.473352" xlink:href="#m3c53c804ac" y="86.832383"/>
     <use style="stroke:#000000;" x="50.473368" xlink:href="#m3c53c804ac" y="86.832683"/>
     <use style="stroke:#000000;" x="50.473419" xlink:href="#m3c53c804ac" y="86.833623"/>
     <use style="stroke:#000000;" x="50.473469" xlink:href="#m3c53c804ac" y="86.834564"/>
     <use style="stroke:#000000;" x="50.473519" xlink:href="#m3c53c804ac" y="86.835504"/>
     <use style="stroke:#000000;" x="50.473569" xlink:href="#m3c53c804ac" y="86.836444"/>
     <use style="stroke:#000000;" x="50.473676" xlink:href="#m3c53c804ac" y="86.838433"/>
     <use style="stroke:#000000;" x="50.47387" xlink:href="#m3c53c804ac" y="86.842055"/>
     <use style="stroke:#000000;" x="50.474214" xlink:href="#m3c53c804ac" y="86.848487"/>
     <use style="stroke:#000000;" x="50.474828" xlink:href="#m3c53c804ac" y="86.859981"/>
     <use style="stroke:#000000;" x="50.476061" xlink:href="#m3c53c804ac" y="86.883007"/>
     <use style="stroke:#000000;" x="50.477929" xlink:href="#m3c53c804ac" y="86.917913"/>
     <use style="stroke:#000000;" x="50.479797" xlink:href="#m3c53c804ac" y="86.952806"/>
     <use style="stroke:#000000;" x="50.481665" xlink:href="#m3c53c804ac" y="86.987686"/>
     <use style="stroke:#000000;" x="50.483533" xlink:href="#m3c53c804ac" y="87.022554"/>
     <use style="stroke:#000000;" x="50.485901" xlink:href="#m3c53c804ac" y="87.06674"/>
     <use style="stroke:#000000;" x="50.48827" xlink:href="#m3c53c804ac" y="87.110906"/>
     <use style="stroke:#000000;" x="50.490638" xlink:href="#m3c53c804ac" y="87.155052"/>
     <use style="stroke:#000000;" x="50.494256" xlink:href="#m3c53c804ac" y="87.222458"/>
     <use style="stroke:#000000;" x="50.501151" xlink:href="#m3c53c804ac" y="87.35077"/>
     <use style="stroke:#000000;" x="50.508046" xlink:href="#m3c53c804ac" y="87.478912"/>
     <use style="stroke:#000000;" x="50.51494" xlink:href="#m3c53c804ac" y="87.606886"/>
     <use style="stroke:#000000;" x="50.521835" xlink:href="#m3c53c804ac" y="87.734692"/>
     <use style="stroke:#000000;" x="50.532861" xlink:href="#m3c53c804ac" y="87.938752"/>
     <use style="stroke:#000000;" x="50.543888" xlink:href="#m3c53c804ac" y="88.142384"/>
     <use style="stroke:#000000;" x="50.562603" xlink:href="#m3c53c804ac" y="88.487013"/>
     <use style="stroke:#000000;" x="50.581318" xlink:href="#m3c53c804ac" y="88.83042"/>
     <use style="stroke:#000000;" x="50.600033" xlink:href="#m3c53c804ac" y="89.172611"/>
     <use style="stroke:#000000;" x="50.618748" xlink:href="#m3c53c804ac" y="89.513593"/>
     <use style="stroke:#000000;" x="50.637462" xlink:href="#m3c53c804ac" y="89.853373"/>
     <use style="stroke:#000000;" x="50.670489" xlink:href="#m3c53c804ac" y="90.450071"/>
     <use style="stroke:#000000;" x="50.703515" xlink:href="#m3c53c804ac" y="91.043078"/>
     <use style="stroke:#000000;" x="50.772976" xlink:href="#m3c53c804ac" y="92.278395"/>
     <use style="stroke:#000000;" x="50.821431" xlink:href="#m3c53c804ac" y="93.130724"/>
     <use style="stroke:#000000;" x="50.869886" xlink:href="#m3c53c804ac" y="93.975435"/>
     <use style="stroke:#000000;" x="50.918341" xlink:href="#m3c53c804ac" y="94.812632"/>
     <use style="stroke:#000000;" x="50.966795" xlink:href="#m3c53c804ac" y="95.642413"/>
     <use style="stroke:#000000;" x="51.01525" xlink:href="#m3c53c804ac" y="96.464876"/>
     <use style="stroke:#000000;" x="51.102583" xlink:href="#m3c53c804ac" y="97.929068"/>
     <use style="stroke:#000000;" x="51.189915" xlink:href="#m3c53c804ac" y="99.370352"/>
     <use style="stroke:#000000;" x="51.277248" xlink:href="#m3c53c804ac" y="100.789262"/>
     <use style="stroke:#000000;" x="51.364581" xlink:href="#m3c53c804ac" y="102.186315"/>
     <use style="stroke:#000000;" x="51.451913" xlink:href="#m3c53c804ac" y="103.562011"/>
     <use style="stroke:#000000;" x="51.539246" xlink:href="#m3c53c804ac" y="104.916838"/>
     <use style="stroke:#000000;" x="51.626578" xlink:href="#m3c53c804ac" y="106.251266"/>
     <use style="stroke:#000000;" x="51.713911" xlink:href="#m3c53c804ac" y="107.565752"/>
     <use style="stroke:#000000;" x="51.8501" xlink:href="#m3c53c804ac" y="109.576855"/>
     <use style="stroke:#000000;" x="52.066721" xlink:href="#m3c53c804ac" y="112.68196"/>
     <use style="stroke:#000000;" x="52.206828" xlink:href="#m3c53c804ac" y="114.631485"/>
     <use style="stroke:#000000;" x="52.346935" xlink:href="#m3c53c804ac" y="116.536674"/>
     <use style="stroke:#000000;" x="52.487043" xlink:href="#m3c53c804ac" y="118.399021"/>
     <use style="stroke:#000000;" x="52.62715" xlink:href="#m3c53c804ac" y="120.219955"/>
     <use style="stroke:#000000;" x="52.82432" xlink:href="#m3c53c804ac" y="122.714979"/>
     <use style="stroke:#000000;" x="53.02149" xlink:href="#m3c53c804ac" y="125.134294"/>
     <use style="stroke:#000000;" x="53.21866" xlink:href="#m3c53c804ac" y="127.481295"/>
     <use style="stroke:#000000;" x="53.415829" xlink:href="#m3c53c804ac" y="129.759176"/>
     <use style="stroke:#000000;" x="53.612999" xlink:href="#m3c53c804ac" y="131.970946"/>
     <use style="stroke:#000000;" x="53.810169" xlink:href="#m3c53c804ac" y="134.119443"/>
     <use style="stroke:#000000;" x="54.007339" xlink:href="#m3c53c804ac" y="136.207342"/>
     <use style="stroke:#000000;" x="54.204508" xlink:href="#m3c53c804ac" y="138.237173"/>
     <use style="stroke:#000000;" x="54.401678" xlink:href="#m3c53c804ac" y="140.211324"/>
     <use style="stroke:#000000;" x="54.598848" xlink:href="#m3c53c804ac" y="142.132056"/>
     <use style="stroke:#000000;" x="54.796018" xlink:href="#m3c53c804ac" y="144.001507"/>
     <use style="stroke:#000000;" x="54.993187" xlink:href="#m3c53c804ac" y="145.821705"/>
     <use style="stroke:#000000;" x="55.190357" xlink:href="#m3c53c804ac" y="147.594569"/>
     <use style="stroke:#000000;" x="55.387527" xlink:href="#m3c53c804ac" y="149.321925"/>
     <use style="stroke:#000000;" x="55.584697" xlink:href="#m3c53c804ac" y="151.0055"/>
     <use style="stroke:#000000;" x="55.781866" xlink:href="#m3c53c804ac" y="152.646939"/>
     <use style="stroke:#000000;" x="55.979036" xlink:href="#m3c53c804ac" y="154.247804"/>
     <use style="stroke:#000000;" x="56.176206" xlink:href="#m3c53c804ac" y="155.809581"/>
     <use style="stroke:#000000;" x="56.373376" xlink:href="#m3c53c804ac" y="157.333685"/>
     <use style="stroke:#000000;" x="56.570546" xlink:href="#m3c53c804ac" y="158.821462"/>
     <use style="stroke:#000000;" x="56.767715" xlink:href="#m3c53c804ac" y="160.274196"/>
     <use style="stroke:#000000;" x="56.964885" xlink:href="#m3c53c804ac" y="161.69311"/>
     <use style="stroke:#000000;" x="57.162055" xlink:href="#m3c53c804ac" y="163.079373"/>
     <use style="stroke:#000000;" x="57.359225" xlink:href="#m3c53c804ac" y="164.434097"/>
     <use style="stroke:#000000;" x="57.556394" xlink:href="#m3c53c804ac" y="165.758348"/>
     <use style="stroke:#000000;" x="57.753564" xlink:href="#m3c53c804ac" y="167.053142"/>
     <use style="stroke:#000000;" x="57.950734" xlink:href="#m3c53c804ac" y="168.319451"/>
     <use style="stroke:#000000;" x="58.147904" xlink:href="#m3c53c804ac" y="169.558205"/>
     <use style="stroke:#000000;" x="58.345073" xlink:href="#m3c53c804ac" y="170.770294"/>
     <use style="stroke:#000000;" x="58.542243" xlink:href="#m3c53c804ac" y="171.956569"/>
     <use style="stroke:#000000;" x="58.739413" xlink:href="#m3c53c804ac" y="173.117846"/>
     <use style="stroke:#000000;" x="58.936583" xlink:href="#m3c53c804ac" y="174.254908"/>
     <use style="stroke:#000000;" x="59.133752" xlink:href="#m3c53c804ac" y="175.368504"/>
     <use style="stroke:#000000;" x="59.330922" xlink:href="#m3c53c804ac" y="176.459352"/>
     <use style="stroke:#000000;" x="59.528092" xlink:href="#m3c53c804ac" y="177.528144"/>
     <use style="stroke:#000000;" x="59.725262" xlink:href="#m3c53c804ac" y="178.57554"/>
     <use style="stroke:#000000;" x="60.022896" xlink:href="#m3c53c804ac" y="180.117501"/>
     <use style="stroke:#000000;" x="60.320531" xlink:href="#m3c53c804ac" y="181.614235"/>
     <use style="stroke:#000000;" x="60.618166" xlink:href="#m3c53c804ac" y="183.067701"/>
     <use style="stroke:#000000;" x="60.915801" xlink:href="#m3c53c804ac" y="184.479751"/>
     <use style="stroke:#000000;" x="61.213436" xlink:href="#m3c53c804ac" y="185.852129"/>
     <use style="stroke:#000000;" x="61.511071" xlink:href="#m3c53c804ac" y="187.186483"/>
     <use style="stroke:#000000;" x="61.808706" xlink:href="#m3c53c804ac" y="188.484374"/>
     <use style="stroke:#000000;" x="62.106341" xlink:href="#m3c53c804ac" y="189.747274"/>
     <use style="stroke:#000000;" x="62.403976" xlink:href="#m3c53c804ac" y="190.976581"/>
     <use style="stroke:#000000;" x="62.701611" xlink:href="#m3c53c804ac" y="192.173616"/>
     <use style="stroke:#000000;" x="62.999246" xlink:href="#m3c53c804ac" y="193.339635"/>
     <use style="stroke:#000000;" x="63.296881" xlink:href="#m3c53c804ac" y="194.475828"/>
     <use style="stroke:#000000;" x="63.594515" xlink:href="#m3c53c804ac" y="195.583324"/>
     <use style="stroke:#000000;" x="63.89215" xlink:href="#m3c53c804ac" y="196.663197"/>
     <use style="stroke:#000000;" x="64.189785" xlink:href="#m3c53c804ac" y="197.716467"/>
     <use style="stroke:#000000;" x="64.48742" xlink:href="#m3c53c804ac" y="198.744107"/>
     <use style="stroke:#000000;" x="64.785055" xlink:href="#m3c53c804ac" y="199.747039"/>
     <use style="stroke:#000000;" x="65.08269" xlink:href="#m3c53c804ac" y="200.726146"/>
     <use style="stroke:#000000;" x="65.380325" xlink:href="#m3c53c804ac" y="201.682265"/>
     <use style="stroke:#000000;" x="65.67796" xlink:href="#m3c53c804ac" y="202.616196"/>
     <use style="stroke:#000000;" x="65.975595" xlink:href="#m3c53c804ac" y="203.528704"/>
     <use style="stroke:#000000;" x="66.27323" xlink:href="#m3c53c804ac" y="204.420517"/>
     <use style="stroke:#000000;" x="66.570865" xlink:href="#m3c53c804ac" y="205.292331"/>
     <use style="stroke:#000000;" x="66.868499" xlink:href="#m3c53c804ac" y="206.144812"/>
     <use style="stroke:#000000;" x="67.166134" xlink:href="#m3c53c804ac" y="206.978595"/>
     <use style="stroke:#000000;" x="67.463769" xlink:href="#m3c53c804ac" y="207.794289"/>
     <use style="stroke:#000000;" x="67.761404" xlink:href="#m3c53c804ac" y="208.592477"/>
     <use style="stroke:#000000;" x="68.059039" xlink:href="#m3c53c804ac" y="209.373715"/>
     <use style="stroke:#000000;" x="68.356674" xlink:href="#m3c53c804ac" y="210.138539"/>
     <use style="stroke:#000000;" x="68.803497" xlink:href="#m3c53c804ac" y="211.257024"/>
     <use style="stroke:#000000;" x="69.250321" xlink:href="#m3c53c804ac" y="212.341308"/>
     <use style="stroke:#000000;" x="69.697144" xlink:href="#m3c53c804ac" y="213.392935"/>
     <use style="stroke:#000000;" x="70.143968" xlink:href="#m3c53c804ac" y="214.413359"/>
     <use style="stroke:#000000;" x="70.590791" xlink:href="#m3c53c804ac" y="215.403949"/>
     <use style="stroke:#000000;" x="71.037614" xlink:href="#m3c53c804ac" y="216.365993"/>
     <use style="stroke:#000000;" x="71.484438" xlink:href="#m3c53c804ac" y="217.300708"/>
     <use style="stroke:#000000;" x="71.931261" xlink:href="#m3c53c804ac" y="218.209243"/>
     <use style="stroke:#000000;" x="72.378085" xlink:href="#m3c53c804ac" y="219.092681"/>
     <use style="stroke:#000000;" x="72.824908" xlink:href="#m3c53c804ac" y="219.95205"/>
     <use style="stroke:#000000;" x="73.271731" xlink:href="#m3c53c804ac" y="220.788318"/>
     <use style="stroke:#000000;" x="73.718555" xlink:href="#m3c53c804ac" y="221.602406"/>
     <use style="stroke:#000000;" x="74.165378" xlink:href="#m3c53c804ac" y="222.395185"/>
     <use style="stroke:#000000;" x="74.612201" xlink:href="#m3c53c804ac" y="223.167479"/>
     <use style="stroke:#000000;" x="75.059025" xlink:href="#m3c53c804ac" y="223.920073"/>
     <use style="stroke:#000000;" x="75.505848" xlink:href="#m3c53c804ac" y="224.653712"/>
     <use style="stroke:#000000;" x="75.952672" xlink:href="#m3c53c804ac" y="225.369102"/>
     <use style="stroke:#000000;" x="76.399495" xlink:href="#m3c53c804ac" y="226.066915"/>
     <use style="stroke:#000000;" x="76.846318" xlink:href="#m3c53c804ac" y="226.747793"/>
     <use style="stroke:#000000;" x="77.293142" xlink:href="#m3c53c804ac" y="227.412343"/>
     <use style="stroke:#000000;" x="77.739965" xlink:href="#m3c53c804ac" y="228.061147"/>
     <use style="stroke:#000000;" x="78.186789" xlink:href="#m3c53c804ac" y="228.694758"/>
     <use style="stroke:#000000;" x="78.633612" xlink:href="#m3c53c804ac" y="229.313702"/>
     <use style="stroke:#000000;" x="79.080435" xlink:href="#m3c53c804ac" y="229.918483"/>
     <use style="stroke:#000000;" x="79.527259" xlink:href="#m3c53c804ac" y="230.509583"/>
     <use style="stroke:#000000;" x="79.974082" xlink:href="#m3c53c804ac" y="231.08746"/>
     <use style="stroke:#000000;" x="80.420906" xlink:href="#m3c53c804ac" y="231.652552"/>
     <use style="stroke:#000000;" x="80.867729" xlink:href="#m3c53c804ac" y="232.20528"/>
     <use style="stroke:#000000;" x="81.314552" xlink:href="#m3c53c804ac" y="232.746044"/>
     <use style="stroke:#000000;" x="81.761376" xlink:href="#m3c53c804ac" y="233.27523"/>
     <use style="stroke:#000000;" x="82.208199" xlink:href="#m3c53c804ac" y="233.793205"/>
     <use style="stroke:#000000;" x="82.885159" xlink:href="#m3c53c804ac" y="234.557386"/>
     <use style="stroke:#000000;" x="83.562119" xlink:href="#m3c53c804ac" y="235.297802"/>
     <use style="stroke:#000000;" x="84.239078" xlink:href="#m3c53c804ac" y="236.015545"/>
     <use style="stroke:#000000;" x="84.916038" xlink:href="#m3c53c804ac" y="236.71164"/>
     <use style="stroke:#000000;" x="85.592998" xlink:href="#m3c53c804ac" y="237.387052"/>
     <use style="stroke:#000000;" x="86.269958" xlink:href="#m3c53c804ac" y="238.04269"/>
     <use style="stroke:#000000;" x="86.946917" xlink:href="#m3c53c804ac" y="238.679409"/>
     <use style="stroke:#000000;" x="87.623877" xlink:href="#m3c53c804ac" y="239.298017"/>
     <use style="stroke:#000000;" x="88.300837" xlink:href="#m3c53c804ac" y="239.899275"/>
     <use style="stroke:#000000;" x="88.977797" xlink:href="#m3c53c804ac" y="240.483904"/>
     <use style="stroke:#000000;" x="89.654756" xlink:href="#m3c53c804ac" y="241.052584"/>
     <use style="stroke:#000000;" x="90.331716" xlink:href="#m3c53c804ac" y="241.605958"/>
     <use style="stroke:#000000;" x="91.008676" xlink:href="#m3c53c804ac" y="242.144637"/>
     <use style="stroke:#000000;" x="91.685636" xlink:href="#m3c53c804ac" y="242.669198"/>
     <use style="stroke:#000000;" x="92.362595" xlink:href="#m3c53c804ac" y="243.180188"/>
     <use style="stroke:#000000;" x="93.039555" xlink:href="#m3c53c804ac" y="243.678129"/>
     <use style="stroke:#000000;" x="93.716515" xlink:href="#m3c53c804ac" y="244.163513"/>
     <use style="stroke:#000000;" x="94.393475" xlink:href="#m3c53c804ac" y="244.636809"/>
     <use style="stroke:#000000;" x="95.070434" xlink:href="#m3c53c804ac" y="245.098464"/>
     <use style="stroke:#000000;" x="95.747394" xlink:href="#m3c53c804ac" y="245.548902"/>
     <use style="stroke:#000000;" x="96.424354" xlink:href="#m3c53c804ac" y="245.988526"/>
     <use style="stroke:#000000;" x="97.101314" xlink:href="#m3c53c804ac" y="246.417722"/>
     <use style="stroke:#000000;" x="97.778273" xlink:href="#m3c53c804ac" y="246.836855"/>
     <use style="stroke:#000000;" x="98.455233" xlink:href="#m3c53c804ac" y="247.246277"/>
     <use style="stroke:#000000;" x="99.132193" xlink:href="#m3c53c804ac" y="247.64632"/>
     <use style="stroke:#000000;" x="99.809153" xlink:href="#m3c53c804ac" y="248.037304"/>
     <use style="stroke:#000000;" x="100.486112" xlink:href="#m3c53c804ac" y="248.419532"/>
     <use style="stroke:#000000;" x="101.163072" xlink:href="#m3c53c804ac" y="248.793295"/>
     <use style="stroke:#000000;" x="101.840032" xlink:href="#m3c53c804ac" y="249.158872"/>
     <use style="stroke:#000000;" x="102.516992" xlink:href="#m3c53c804ac" y="249.516528"/>
     <use style="stroke:#000000;" x="103.193951" xlink:href="#m3c53c804ac" y="249.866519"/>
     <use style="stroke:#000000;" x="104.214414" xlink:href="#m3c53c804ac" y="250.380149"/>
     <use style="stroke:#000000;" x="105.234876" xlink:href="#m3c53c804ac" y="250.877704"/>
     <use style="stroke:#000000;" x="106.255338" xlink:href="#m3c53c804ac" y="251.359927"/>
     <use style="stroke:#000000;" x="107.2758" xlink:href="#m3c53c804ac" y="251.827514"/>
     <use style="stroke:#000000;" x="108.296262" xlink:href="#m3c53c804ac" y="252.281124"/>
     <use style="stroke:#000000;" x="109.316724" xlink:href="#m3c53c804ac" y="252.721372"/>
     <use style="stroke:#000000;" x="110.337186" xlink:href="#m3c53c804ac" y="253.148841"/>
     <use style="stroke:#000000;" x="111.357648" xlink:href="#m3c53c804ac" y="253.56408"/>
     <use style="stroke:#000000;" x="112.37811" xlink:href="#m3c53c804ac" y="253.967606"/>
     <use style="stroke:#000000;" x="113.398572" xlink:href="#m3c53c804ac" y="254.359907"/>
     <use style="stroke:#000000;" x="114.419034" xlink:href="#m3c53c804ac" y="254.741446"/>
     <use style="stroke:#000000;" x="115.439496" xlink:href="#m3c53c804ac" y="255.112659"/>
     <use style="stroke:#000000;" x="116.459958" xlink:href="#m3c53c804ac" y="255.47396"/>
     <use style="stroke:#000000;" x="117.48042" xlink:href="#m3c53c804ac" y="255.825741"/>
     <use style="stroke:#000000;" x="118.500882" xlink:href="#m3c53c804ac" y="256.168373"/>
     <use style="stroke:#000000;" x="119.521345" xlink:href="#m3c53c804ac" y="256.502209"/>
     <use style="stroke:#000000;" x="120.541807" xlink:href="#m3c53c804ac" y="256.827582"/>
     <use style="stroke:#000000;" x="121.562269" xlink:href="#m3c53c804ac" y="257.144811"/>
     <use style="stroke:#000000;" x="122.582731" xlink:href="#m3c53c804ac" y="257.454198"/>
     <use style="stroke:#000000;" x="123.603193" xlink:href="#m3c53c804ac" y="257.75603"/>
     <use style="stroke:#000000;" x="124.623655" xlink:href="#m3c53c804ac" y="258.05058"/>
     <use style="stroke:#000000;" x="125.644117" xlink:href="#m3c53c804ac" y="258.338108"/>
     <use style="stroke:#000000;" x="126.664579" xlink:href="#m3c53c804ac" y="258.618864"/>
     <use style="stroke:#000000;" x="127.685041" xlink:href="#m3c53c804ac" y="258.893082"/>
     <use style="stroke:#000000;" x="128.705503" xlink:href="#m3c53c804ac" y="259.16099"/>
     <use style="stroke:#000000;" x="129.725965" xlink:href="#m3c53c804ac" y="259.422802"/>
     <use style="stroke:#000000;" x="130.746427" xlink:href="#m3c53c804ac" y="259.678724"/>
     <use style="stroke:#000000;" x="131.766889" xlink:href="#m3c53c804ac" y="259.928953"/>
     <use style="stroke:#000000;" x="132.787351" xlink:href="#m3c53c804ac" y="260.173676"/>
     <use style="stroke:#000000;" x="133.807813" xlink:href="#m3c53c804ac" y="260.413073"/>
     <use style="stroke:#000000;" x="134.828276" xlink:href="#m3c53c804ac" y="260.647317"/>
     <use style="stroke:#000000;" x="136.362908" xlink:href="#m3c53c804ac" y="260.990244"/>
     <use style="stroke:#000000;" x="137.897541" xlink:href="#m3c53c804ac" y="261.322416"/>
     <use style="stroke:#000000;" x="139.432173" xlink:href="#m3c53c804ac" y="261.644332"/>
     <use style="stroke:#000000;" x="140.966806" xlink:href="#m3c53c804ac" y="261.95646"/>
     <use style="stroke:#000000;" x="142.501439" xlink:href="#m3c53c804ac" y="262.25924"/>
     <use style="stroke:#000000;" x="144.036071" xlink:href="#m3c53c804ac" y="262.553084"/>
     <use style="stroke:#000000;" x="145.570704" xlink:href="#m3c53c804ac" y="262.838384"/>
     <use style="stroke:#000000;" x="147.105336" xlink:href="#m3c53c804ac" y="263.115506"/>
     <use style="stroke:#000000;" x="148.639969" xlink:href="#m3c53c804ac" y="263.384797"/>
     <use style="stroke:#000000;" x="150.174602" xlink:href="#m3c53c804ac" y="263.646584"/>
     <use style="stroke:#000000;" x="151.709234" xlink:href="#m3c53c804ac" y="263.901177"/>
     <use style="stroke:#000000;" x="153.243867" xlink:href="#m3c53c804ac" y="264.148868"/>
     <use style="stroke:#000000;" x="154.778499" xlink:href="#m3c53c804ac" y="264.389933"/>
     <use style="stroke:#000000;" x="156.313132" xlink:href="#m3c53c804ac" y="264.624637"/>
     <use style="stroke:#000000;" x="157.847765" xlink:href="#m3c53c804ac" y="264.853226"/>
     <use style="stroke:#000000;" x="159.382397" xlink:href="#m3c53c804ac" y="265.075937"/>
     <use style="stroke:#000000;" x="160.91703" xlink:href="#m3c53c804ac" y="265.292994"/>
     <use style="stroke:#000000;" x="162.451663" xlink:href="#m3c53c804ac" y="265.504609"/>
     <use style="stroke:#000000;" x="163.986295" xlink:href="#m3c53c804ac" y="265.710985"/>
     <use style="stroke:#000000;" x="165.520928" xlink:href="#m3c53c804ac" y="265.912313"/>
     <use style="stroke:#000000;" x="167.05556" xlink:href="#m3c53c804ac" y="266.108776"/>
     <use style="stroke:#000000;" x="168.590193" xlink:href="#m3c53c804ac" y="266.30055"/>
     <use style="stroke:#000000;" x="170.124826" xlink:href="#m3c53c804ac" y="266.487799"/>
     <use style="stroke:#000000;" x="171.659458" xlink:href="#m3c53c804ac" y="266.670682"/>
     <use style="stroke:#000000;" x="173.194091" xlink:href="#m3c53c804ac" y="266.84935"/>
     <use style="stroke:#000000;" x="174.728723" xlink:href="#m3c53c804ac" y="267.023947"/>
     <use style="stroke:#000000;" x="176.263356" xlink:href="#m3c53c804ac" y="267.19461"/>
     <use style="stroke:#000000;" x="177.797989" xlink:href="#m3c53c804ac" y="267.361472"/>
     <use style="stroke:#000000;" x="179.332621" xlink:href="#m3c53c804ac" y="267.524657"/>
     <use style="stroke:#000000;" x="180.867254" xlink:href="#m3c53c804ac" y="267.684286"/>
     <use style="stroke:#000000;" x="182.401886" xlink:href="#m3c53c804ac" y="267.840474"/>
     <use style="stroke:#000000;" x="184.713798" xlink:href="#m3c53c804ac" y="268.069514"/>
     <use style="stroke:#000000;" x="187.025709" xlink:href="#m3c53c804ac" y="268.29135"/>
     <use style="stroke:#000000;" x="189.33762" xlink:href="#m3c53c804ac" y="268.506316"/>
     <use style="stroke:#000000;" x="191.649532" xlink:href="#m3c53c804ac" y="268.714727"/>
     <use style="stroke:#000000;" x="193.961443" xlink:href="#m3c53c804ac" y="268.916877"/>
     <use style="stroke:#000000;" x="196.273354" xlink:href="#m3c53c804ac" y="269.113045"/>
     <use style="stroke:#000000;" x="198.585266" xlink:href="#m3c53c804ac" y="269.303493"/>
     <use style="stroke:#000000;" x="200.897177" xlink:href="#m3c53c804ac" y="269.488467"/>
     <use style="stroke:#000000;" x="203.209088" xlink:href="#m3c53c804ac" y="269.6682"/>
     <use style="stroke:#000000;" x="205.521" xlink:href="#m3c53c804ac" y="269.84291"/>
     <use style="stroke:#000000;" x="207.832911" xlink:href="#m3c53c804ac" y="270.012807"/>
     <use style="stroke:#000000;" x="210.144822" xlink:href="#m3c53c804ac" y="270.178087"/>
     <use style="stroke:#000000;" x="212.456734" xlink:href="#m3c53c804ac" y="270.338934"/>
     <use style="stroke:#000000;" x="214.768645" xlink:href="#m3c53c804ac" y="270.495525"/>
     <use style="stroke:#000000;" x="217.080556" xlink:href="#m3c53c804ac" y="270.648026"/>
     <use style="stroke:#000000;" x="219.392467" xlink:href="#m3c53c804ac" y="270.796596"/>
     <use style="stroke:#000000;" x="221.704379" xlink:href="#m3c53c804ac" y="270.941385"/>
     <use style="stroke:#000000;" x="224.01629" xlink:href="#m3c53c804ac" y="271.082536"/>
     <use style="stroke:#000000;" x="226.328201" xlink:href="#m3c53c804ac" y="271.220183"/>
     <use style="stroke:#000000;" x="228.640113" xlink:href="#m3c53c804ac" y="271.354456"/>
     <use style="stroke:#000000;" x="230.952024" xlink:href="#m3c53c804ac" y="271.485477"/>
     <use style="stroke:#000000;" x="233.263935" xlink:href="#m3c53c804ac" y="271.613363"/>
     <use style="stroke:#000000;" x="235.575847" xlink:href="#m3c53c804ac" y="271.738225"/>
     <use style="stroke:#000000;" x="237.887758" xlink:href="#m3c53c804ac" y="271.860169"/>
     <use style="stroke:#000000;" x="240.199669" xlink:href="#m3c53c804ac" y="271.979297"/>
     <use style="stroke:#000000;" x="242.511581" xlink:href="#m3c53c804ac" y="272.095704"/>
     <use style="stroke:#000000;" x="244.823492" xlink:href="#m3c53c804ac" y="272.209483"/>
     <use style="stroke:#000000;" x="247.135403" xlink:href="#m3c53c804ac" y="272.320721"/>
     <use style="stroke:#000000;" x="249.447314" xlink:href="#m3c53c804ac" y="272.429504"/>
     <use style="stroke:#000000;" x="251.759226" xlink:href="#m3c53c804ac" y="272.535911"/>
     <use style="stroke:#000000;" x="254.071137" xlink:href="#m3c53c804ac" y="272.640019"/>
     <use style="stroke:#000000;" x="257.552377" xlink:href="#m3c53c804ac" y="272.792609"/>
     <use style="stroke:#000000;" x="261.033617" xlink:href="#m3c53c804ac" y="272.940392"/>
     <use style="stroke:#000000;" x="264.514858" xlink:href="#m3c53c804ac" y="273.083592"/>
     <use style="stroke:#000000;" x="267.996098" xlink:href="#m3c53c804ac" y="273.222418"/>
     <use style="stroke:#000000;" x="271.477338" xlink:href="#m3c53c804ac" y="273.357067"/>
     <use style="stroke:#000000;" x="274.958578" xlink:href="#m3c53c804ac" y="273.487727"/>
     <use style="stroke:#000000;" x="278.439818" xlink:href="#m3c53c804ac" y="273.61457"/>
     <use style="stroke:#000000;" x="281.921059" xlink:href="#m3c53c804ac" y="273.737763"/>
     <use style="stroke:#000000;" x="285.402299" xlink:href="#m3c53c804ac" y="273.85746"/>
     <use style="stroke:#000000;" x="288.883539" xlink:href="#m3c53c804ac" y="273.973808"/>
     <use style="stroke:#000000;" x="292.364779" xlink:href="#m3c53c804ac" y="274.086946"/>
     <use style="stroke:#000000;" x="295.846019" xlink:href="#m3c53c804ac" y="274.197005"/>
     <use style="stroke:#000000;" x="299.32726" xlink:href="#m3c53c804ac" y="274.304109"/>
     <use style="stroke:#000000;" x="302.8085" xlink:href="#m3c53c804ac" y="274.408375"/>
     <use style="stroke:#000000;" x="306.28974" xlink:href="#m3c53c804ac" y="274.509914"/>
     <use style="stroke:#000000;" x="309.77098" xlink:href="#m3c53c804ac" y="274.608833"/>
     <use style="stroke:#000000;" x="313.25222" xlink:href="#m3c53c804ac" y="274.705231"/>
     <use style="stroke:#000000;" x="316.733461" xlink:href="#m3c53c804ac" y="274.799203"/>
     <use style="stroke:#000000;" x="320.214701" xlink:href="#m3c53c804ac" y="274.89084"/>
     <use style="stroke:#000000;" x="323.695941" xlink:href="#m3c53c804ac" y="274.980228"/>
     <use style="stroke:#000000;" x="327.177181" xlink:href="#m3c53c804ac" y="275.067449"/>
     <use style="stroke:#000000;" x="330.658421" xlink:href="#m3c53c804ac" y="275.15258"/>
     <use style="stroke:#000000;" x="334.139662" xlink:href="#m3c53c804ac" y="275.235696"/>
     <use style="stroke:#000000;" x="337.620902" xlink:href="#m3c53c804ac" y="275.316868"/>
     <use style="stroke:#000000;" x="341.102142" xlink:href="#m3c53c804ac" y="275.396162"/>
    </g>
   </g>
   <g id="line2d_13">
    <path clip-path="url(#p5552fe4f75)" d="M 50.473352 89.79894 
L 51.592963 106.714504 
L 52.868548 122.688794 
L 54.118516 135.749806 
L 55.54802 148.287452 
L 56.759635 157.345647 
L 58.102836 166.054119 
L 59.781836 175.367148 
L 61.460837 183.296481 
L 63.139837 190.129258 
L 64.818838 196.078296 
L 66.497838 201.304677 
L 68.346908 206.371955 
L 70.370386 211.235893 
L 72.393864 215.513031 
L 74.417342 219.303542 
L 76.44082 222.686021 
L 78.970167 226.43439 
L 81.499514 229.738242 
L 84.298045 232.965264 
L 87.354927 236.064772 
L 90.411809 238.796863 
L 93.46869 241.223221 
L 96.525572 243.392454 
L 100.346674 245.800821 
L 103.403556 247.522296 
L 108.011023 249.829532 
L 112.618491 251.84865 
L 117.225958 253.630452 
L 122.985292 255.583365 
L 128.744626 257.286125 
L 135.655828 259.062087 
L 142.056542 260.494792 
L 150.804621 262.188049 
L 159.5527 263.635945 
L 170.050394 265.118633 
L 180.548089 266.3817 
L 193.680437 267.720691 
L 209.447438 269.056062 
L 225.214439 270.165545 
L 243.609273 271.244045 
L 265.999009 272.321131 
L 289.968413 273.261392 
L 321.927618 274.267437 
L 357.881725 275.158361 
L 373.861327 275.492957 
L 373.861327 275.492957 
" style="fill:none;stroke:#0000ff;stroke-linecap:square;stroke-width:1.5;"/>
   </g>
   <g id="line2d_14">
    <path clip-path="url(#p5552fe4f75)" d="M 50.473352 76.384843 
L 52.023448 90.998609 
L 53.570428 103.653582 
L 55.106186 114.663923 
L 56.949095 126.209296 
L 58.792004 136.267581 
L 60.637285 145.119182 
L 62.484938 152.968786 
L 64.33259 159.968789 
L 66.180243 166.249958 
L 68.489808 173.248975 
L 70.799374 179.451611 
L 72.662364 183.963169 
L 74.763979 188.599701 
L 76.865595 192.81848 
L 79.667749 197.885693 
L 82.469903 202.409372 
L 85.272056 206.472486 
L 88.07421 210.141939 
L 91.232464 213.873588 
L 94.402377 217.249628 
L 97.57229 220.307787 
L 100.742204 223.09093 
L 103.912117 225.634549 
L 108.138668 228.703978 
L 112.36522 231.457421 
L 116.591771 233.941273 
L 121.355082 236.464313 
L 126.135275 238.744251 
L 130.915469 240.807623 
L 137.28906 243.272054 
L 143.662651 245.459433 
L 150.036243 247.413987 
L 158.003232 249.58286 
L 164.376823 251.132398 
L 173.949202 253.201305 
L 183.52158 255.01172 
L 193.093959 256.609234 
L 205.059433 258.360025 
L 217.024906 259.886428 
L 231.383474 261.478314 
L 245.753381 262.859016 
L 263.715764 264.345812 
L 281.678147 265.620111 
L 303.233006 266.927846 
L 328.380342 268.214472 
L 353.550358 269.301778 
L 375.127898 270.107516 
L 375.127898 270.107516 
" style="fill:none;stroke:#ff0000;stroke-linecap:square;stroke-width:1.5;"/>
   </g>
   <g id="line2d_15">
    <path clip-path="url(#p5552fe4f75)" d="M 50.473352 34.414125 
L 51.539246 57.404151 
L 52.62715 76.66754 
L 53.810169 94.027012 
L 55.190357 110.747496 
L 56.570546 124.611893 
L 57.950734 136.330348 
L 59.330922 146.363629 
L 60.915801 156.252979 
L 62.403976 164.276127 
L 64.189785 172.615661 
L 65.975595 179.821917 
L 67.761404 186.122558 
L 69.697144 192.111393 
L 71.484438 197.00803 
L 73.718555 202.413258 
L 75.952672 207.168673 
L 78.186789 211.377501 
L 80.420906 215.137983 
L 82.885159 218.841595 
L 85.592998 222.46257 
L 88.300837 225.691008 
L 91.008676 228.585536 
L 93.716515 231.195453 
L 97.101314 234.12007 
L 100.486112 236.725905 
L 104.214414 239.284204 
L 108.296262 241.775062 
L 112.37811 243.99151 
L 116.459958 245.976072 
L 121.562269 248.184449 
L 126.664579 250.138197 
L 131.766889 251.87865 
L 137.897541 253.733928 
L 144.036071 255.378776 
L 151.709234 257.183084 
L 159.382397 258.761008 
L 168.590193 260.408747 
L 177.797989 261.839445 
L 189.33762 263.386661 
L 200.897177 264.717846 
L 214.768645 266.08605 
L 230.952024 267.432878 
L 249.447314 268.720276 
L 267.996098 269.803109 
L 292.364779 270.986787 
L 320.214701 272.08949 
L 341.102142 272.783784 
L 341.102142 272.783784 
" style="fill:none;stroke:#0000ff;stroke-dasharray:5.55,2.4;stroke-dashoffset:0;stroke-width:1.5;"/>
   </g>
   <g id="line2d_16">
    <path clip-path="url(#p5552fe4f75)" d="M 50.473352 132.802938 
L 51.713911 145.736109 
L 53.02149 157.313824 
L 54.401678 167.723186 
L 55.781866 176.620939 
L 57.359225 185.312732 
L 58.936583 192.737787 
L 60.320531 198.409168 
L 62.106341 204.77964 
L 63.89215 210.271102 
L 65.67796 215.052802 
L 67.463769 219.252958 
L 69.250321 222.96583 
L 71.484438 227.046025 
L 73.718555 230.606878 
L 75.952672 233.74355 
L 78.186789 236.520987 
L 80.867729 239.466084 
L 83.562119 242.069594 
L 86.269958 244.384551 
L 89.654756 246.93397 
L 93.039555 249.159558 
L 96.424354 251.124245 
L 100.486112 253.193887 
L 104.214414 254.864419 
L 108.296262 256.487746 
L 113.398572 258.264577 
L 118.500882 259.812816 
L 124.623655 261.424431 
L 130.746427 262.820366 
L 137.897541 264.229577 
L 145.570704 265.532093 
L 154.778499 266.864003 
L 165.520928 268.172244 
L 177.797989 269.41826 
L 191.649532 270.582031 
L 207.832911 271.69885 
L 226.328201 272.738083 
L 247.135403 273.685583 
L 271.477338 274.577651 
L 302.8085 275.483258 
L 337.620902 276.265932 
L 341.102142 276.334125 
L 341.102142 276.334125 
" style="fill:none;stroke:#0000ff;stroke-dasharray:5.55,2.4;stroke-dashoffset:0;stroke-width:1.5;"/>
   </g>
   <g id="line2d_17"/>
   <g id="line2d_18"/>
   <g id="line2d_19"/>
   <g id="line2d_20"/>
   <g id="patch_3">
    <path d="M 34.240625 288.430125 
L 34.240625 22.318125 
" style="fill:none;stroke:#000000;stroke-linecap:square;stroke-linejoin:miter;stroke-width:0.8;"/>
   </g>
   <g id="patch_4">
    <path d="M 391.360625 288.430125 
L 391.360625 22.318125 
" style="fill:none;stroke:#000000;stroke-linecap:square;stroke-linejoin:miter;stroke-width:0.8;"/>
   </g>
   <g id="patch_5">
    <path d="M 34.240625 288.430125 
L 391.360625 288.430125 
" style="fill:none;stroke:#000000;stroke-linecap:square;stroke-linejoin:miter;stroke-width:0.8;"/>
   </g>
   <g id="patch_6">
    <path d="M 34.240625 22.318125 
L 391.360625 22.318125 
" style="fill:none;stroke:#000000;stroke-linecap:square;stroke-linejoin:miter;stroke-width:0.8;"/>
   </g>
   <g id="text_14">
    <!-- Experiment_109 -->
    <g transform="translate(163.680313 16.318125)scale(0.12 -0.12)">
     <defs>
      <path d="M 9.8125 72.90625 
L 55.90625 72.90625 
L 55.90625 64.59375 
L 19.671875 64.59375 
L 19.671875 43.015625 
L 54.390625 43.015625 
L 54.390625 34.71875 
L 19.671875 34.71875 
L 19.671875 8.296875 
L 56.78125 8.296875 
L 56.78125 0 
L 9.8125 0 
z
" id="DejaVuSans-69"/>
      <path d="M 54.890625 54.6875 
L 35.109375 28.078125 
L 55.90625 0 
L 45.3125 0 
L 29.390625 21.484375 
L 13.484375 0 
L 2.875 0 
L 24.125 28.609375 
L 4.6875 54.6875 
L 15.28125 54.6875 
L 29.78125 35.203125 
L 44.28125 54.6875 
z
" id="DejaVuSans-120"/>
      <path d="M 18.109375 8.203125 
L 18.109375 -20.796875 
L 9.078125 -20.796875 
L 9.078125 54.6875 
L 18.109375 54.6875 
L 18.109375 46.390625 
Q 20.953125 51.265625 25.265625 53.625 
Q 29.59375 56 35.59375 56 
Q 45.5625 56 51.78125 48.09375 
Q 58.015625 40.1875 58.015625 27.296875 
Q 58.015625 14.40625 51.78125 6.484375 
Q 45.5625 -1.421875 35.59375 -1.421875 
Q 29.59375 -1.421875 25.265625 0.953125 
Q 20.953125 3.328125 18.109375 8.203125 
z
M 48.6875 27.296875 
Q 48.6875 37.203125 44.609375 42.84375 
Q 40.53125 48.484375 33.40625 48.484375 
Q 26.265625 48.484375 22.1875 42.84375 
Q 18.109375 37.203125 18.109375 27.296875 
Q 18.109375 17.390625 22.1875 11.75 
Q 26.265625 6.109375 33.40625 6.109375 
Q 40.53125 6.109375 44.609375 11.75 
Q 48.6875 17.390625 48.6875 27.296875 
z
" id="DejaVuSans-112"/>
      <path d="M 18.3125 70.21875 
L 18.3125 54.6875 
L 36.8125 54.6875 
L 36.8125 47.703125 
L 18.3125 47.703125 
L 18.3125 18.015625 
Q 18.3125 11.328125 20.140625 9.421875 
Q 21.96875 7.515625 27.59375 7.515625 
L 36.8125 7.515625 
L 36.8125 0 
L 27.59375 0 
Q 17.1875 0 13.234375 3.875 
Q 9.28125 7.765625 9.28125 18.015625 
L 9.28125 47.703125 
L 2.6875 47.703125 
L 2.6875 54.6875 
L 9.28125 54.6875 
L 9.28125 70.21875 
z
" id="DejaVuSans-116"/>
      <path d="M 50.984375 -16.609375 
L 50.984375 -23.578125 
L -0.984375 -23.578125 
L -0.984375 -16.609375 
z
" id="DejaVuSans-95"/>
      <path d="M 10.984375 1.515625 
L 10.984375 10.5 
Q 14.703125 8.734375 18.5 7.8125 
Q 22.3125 6.890625 25.984375 6.890625 
Q 35.75 6.890625 40.890625 13.453125 
Q 46.046875 20.015625 46.78125 33.40625 
Q 43.953125 29.203125 39.59375 26.953125 
Q 35.25 24.703125 29.984375 24.703125 
Q 19.046875 24.703125 12.671875 31.3125 
Q 6.296875 37.9375 6.296875 49.421875 
Q 6.296875 60.640625 12.9375 67.421875 
Q 19.578125 74.21875 30.609375 74.21875 
Q 43.265625 74.21875 49.921875 64.515625 
Q 56.59375 54.828125 56.59375 36.375 
Q 56.59375 19.140625 48.40625 8.859375 
Q 40.234375 -1.421875 26.421875 -1.421875 
Q 22.703125 -1.421875 18.890625 -0.6875 
Q 15.09375 0.046875 10.984375 1.515625 
z
M 30.609375 32.421875 
Q 37.25 32.421875 41.125 36.953125 
Q 45.015625 41.5 45.015625 49.421875 
Q 45.015625 57.28125 41.125 61.84375 
Q 37.25 66.40625 30.609375 66.40625 
Q 23.96875 66.40625 20.09375 61.84375 
Q 16.21875 57.28125 16.21875 49.421875 
Q 16.21875 41.5 20.09375 36.953125 
Q 23.96875 32.421875 30.609375 32.421875 
z
" id="DejaVuSans-57"/>
     </defs>
     <use xlink:href="#DejaVuSans-69"/>
     <use x="63.183594" xlink:href="#DejaVuSans-120"/>
     <use x="122.363281" xlink:href="#DejaVuSans-112"/>
     <use x="185.839844" xlink:href="#DejaVuSans-101"/>
     <use x="247.363281" xlink:href="#DejaVuSans-114"/>
     <use x="288.476562" xlink:href="#DejaVuSans-105"/>
     <use x="316.259766" xlink:href="#DejaVuSans-109"/>
     <use x="413.671875" xlink:href="#DejaVuSans-101"/>
     <use x="475.195312" xlink:href="#DejaVuSans-110"/>
     <use x="538.574219" xlink:href="#DejaVuSans-116"/>
     <use x="577.783203" xlink:href="#DejaVuSans-95"/>
     <use x="627.783203" xlink:href="#DejaVuSans-49"/>
     <use x="691.40625" xlink:href="#DejaVuSans-48"/>
     <use x="755.029297" xlink:href="#DejaVuSans-57"/>
    </g>
   </g>
   <g id="legend_1">
    <g id="patch_7">
     <path d="M 59.141875 89.0525 
L 384.360625 89.0525 
Q 386.360625 89.0525 386.360625 87.0525 
L 386.360625 29.318125 
Q 386.360625 27.318125 384.360625 27.318125 
L 59.141875 27.318125 
Q 57.141875 27.318125 57.141875 29.318125 
L 57.141875 87.0525 
Q 57.141875 89.0525 59.141875 89.0525 
z
" style="fill:#ffffff;opacity:0.8;stroke:#cccccc;stroke-linejoin:miter;"/>
    </g>
    <g id="line2d_21"/>
    <g id="line2d_22">
     <g>
      <use style="stroke:#000000;" x="71.141875" xlink:href="#m3c53c804ac" y="35.416562"/>
     </g>
    </g>
    <g id="text_15">
     <!-- Experimental Data -->
     <g transform="translate(89.141875 38.916562)scale(0.1 -0.1)">
      <defs>
       <path d="M 9.421875 75.984375 
L 18.40625 75.984375 
L 18.40625 0 
L 9.421875 0 
z
" id="DejaVuSans-108"/>
       <path d="M 19.671875 64.796875 
L 19.671875 8.109375 
L 31.59375 8.109375 
Q 46.6875 8.109375 53.6875 14.9375 
Q 60.6875 21.78125 60.6875 36.53125 
Q 60.6875 51.171875 53.6875 57.984375 
Q 46.6875 64.796875 31.59375 64.796875 
z
M 9.8125 72.90625 
L 30.078125 72.90625 
Q 51.265625 72.90625 61.171875 64.09375 
Q 71.09375 55.28125 71.09375 36.53125 
Q 71.09375 17.671875 61.125 8.828125 
Q 51.171875 0 30.078125 0 
L 9.8125 0 
z
" id="DejaVuSans-68"/>
      </defs>
      <use xlink:href="#DejaVuSans-69"/>
      <use x="63.183594" xlink:href="#DejaVuSans-120"/>
      <use x="122.363281" xlink:href="#DejaVuSans-112"/>
      <use x="185.839844" xlink:href="#DejaVuSans-101"/>
      <use x="247.363281" xlink:href="#DejaVuSans-114"/>
      <use x="288.476562" xlink:href="#DejaVuSans-105"/>
      <use x="316.259766" xlink:href="#DejaVuSans-109"/>
      <use x="413.671875" xlink:href="#DejaVuSans-101"/>
      <use x="475.195312" xlink:href="#DejaVuSans-110"/>
      <use x="538.574219" xlink:href="#DejaVuSans-116"/>
      <use x="577.783203" xlink:href="#DejaVuSans-97"/>
      <use x="639.0625" xlink:href="#DejaVuSans-108"/>
      <use x="666.845703" xlink:href="#DejaVuSans-32"/>
      <use x="698.632812" xlink:href="#DejaVuSans-68"/>
      <use x="775.634766" xlink:href="#DejaVuSans-97"/>
      <use x="836.914062" xlink:href="#DejaVuSans-116"/>
      <use x="876.123047" xlink:href="#DejaVuSans-97"/>
     </g>
    </g>
    <g id="line2d_23">
     <path d="M 61.141875 50.094688 
L 81.141875 50.094688 
" style="fill:none;stroke:#0000ff;stroke-linecap:square;stroke-width:1.5;"/>
    </g>
    <g id="line2d_24"/>
    <g id="text_16">
     <!-- MSI -->
     <g transform="translate(89.141875 53.594688)scale(0.1 -0.1)">
      <defs>
       <path d="M 9.8125 72.90625 
L 24.515625 72.90625 
L 43.109375 23.296875 
L 61.8125 72.90625 
L 76.515625 72.90625 
L 76.515625 0 
L 66.890625 0 
L 66.890625 64.015625 
L 48.09375 14.015625 
L 38.1875 14.015625 
L 19.390625 64.015625 
L 19.390625 0 
L 9.8125 0 
z
" id="DejaVuSans-77"/>
       <path d="M 53.515625 70.515625 
L 53.515625 60.890625 
Q 47.90625 63.578125 42.921875 64.890625 
Q 37.9375 66.21875 33.296875 66.21875 
Q 25.25 66.21875 20.875 63.09375 
Q 16.5 59.96875 16.5 54.203125 
Q 16.5 49.359375 19.40625 46.890625 
Q 22.3125 44.4375 30.421875 42.921875 
L 36.375 41.703125 
Q 47.40625 39.59375 52.65625 34.296875 
Q 57.90625 29 57.90625 20.125 
Q 57.90625 9.515625 50.796875 4.046875 
Q 43.703125 -1.421875 29.984375 -1.421875 
Q 24.8125 -1.421875 18.96875 -0.25 
Q 13.140625 0.921875 6.890625 3.21875 
L 6.890625 13.375 
Q 12.890625 10.015625 18.65625 8.296875 
Q 24.421875 6.59375 29.984375 6.59375 
Q 38.421875 6.59375 43.015625 9.90625 
Q 47.609375 13.234375 47.609375 19.390625 
Q 47.609375 24.75 44.3125 27.78125 
Q 41.015625 30.8125 33.5 32.328125 
L 27.484375 33.5 
Q 16.453125 35.6875 11.515625 40.375 
Q 6.59375 45.0625 6.59375 53.421875 
Q 6.59375 63.09375 13.40625 68.65625 
Q 20.21875 74.21875 32.171875 74.21875 
Q 37.3125 74.21875 42.625 73.28125 
Q 47.953125 72.359375 53.515625 70.515625 
z
" id="DejaVuSans-83"/>
       <path d="M 9.8125 72.90625 
L 19.671875 72.90625 
L 19.671875 0 
L 9.8125 0 
z
" id="DejaVuSans-73"/>
      </defs>
      <use xlink:href="#DejaVuSans-77"/>
      <use x="86.279297" xlink:href="#DejaVuSans-83"/>
      <use x="149.755859" xlink:href="#DejaVuSans-73"/>
     </g>
    </g>
    <g id="line2d_25">
     <path d="M 61.141875 64.774375 
L 81.141875 64.774375 
" style="fill:none;stroke:#ff0000;stroke-linecap:square;stroke-width:1.5;"/>
    </g>
    <g id="line2d_26"/>
    <g id="text_17">
     <!-- $\it{A priori}$ model -->
     <g transform="translate(89.141875 68.274375)scale(0.1 -0.1)">
      <defs>
       <path d="M 36.8125 72.90625 
L 48 72.90625 
L 61.53125 0 
L 51.21875 0 
L 48.1875 18.703125 
L 15.375 18.703125 
L 5.078125 0 
L -5.328125 0 
z
M 40.375 63.1875 
L 19.921875 26.90625 
L 46.6875 26.90625 
z
" id="DejaVuSans-Oblique-65"/>
       <path d="M 49.609375 33.6875 
Q 49.609375 40.875 46.484375 44.671875 
Q 43.359375 48.484375 37.5 48.484375 
Q 33.5 48.484375 29.859375 46.4375 
Q 26.21875 44.390625 23.390625 40.484375 
Q 20.609375 36.625 18.9375 31.15625 
Q 17.28125 25.6875 17.28125 20.3125 
Q 17.28125 13.484375 20.40625 9.796875 
Q 23.53125 6.109375 29.296875 6.109375 
Q 33.546875 6.109375 37.1875 8.109375 
Q 40.828125 10.109375 43.40625 13.921875 
Q 46.1875 17.921875 47.890625 23.34375 
Q 49.609375 28.765625 49.609375 33.6875 
z
M 21.78125 46.390625 
Q 25.390625 51.125 30.296875 53.5625 
Q 35.203125 56 41.21875 56 
Q 49.609375 56 54.25 50.5 
Q 58.890625 45.015625 58.890625 35.109375 
Q 58.890625 27 56 19.65625 
Q 53.125 12.3125 47.703125 6.5 
Q 44.09375 2.640625 39.546875 0.609375 
Q 35.015625 -1.421875 29.984375 -1.421875 
Q 24.171875 -1.421875 20.21875 1 
Q 16.265625 3.421875 14.3125 8.203125 
L 8.6875 -20.796875 
L -0.296875 -20.796875 
L 14.40625 54.6875 
L 23.390625 54.6875 
z
" id="DejaVuSans-Oblique-112"/>
       <path d="M 44.578125 46.390625 
Q 43.21875 47.125 41.453125 47.515625 
Q 39.703125 47.90625 37.703125 47.90625 
Q 30.515625 47.90625 25.140625 42.453125 
Q 19.78125 37.015625 18.015625 27.875 
L 12.5 0 
L 3.515625 0 
L 14.203125 54.6875 
L 23.1875 54.6875 
L 21.484375 46.1875 
Q 25.046875 50.921875 30 53.453125 
Q 34.96875 56 40.578125 56 
Q 42.046875 56 43.453125 55.828125 
Q 44.875 55.671875 46.296875 55.28125 
z
" id="DejaVuSans-Oblique-114"/>
       <path d="M 18.3125 75.984375 
L 27.296875 75.984375 
L 25.09375 64.59375 
L 16.109375 64.59375 
z
M 14.203125 54.6875 
L 23.1875 54.6875 
L 12.5 0 
L 3.515625 0 
z
" id="DejaVuSans-Oblique-105"/>
       <path d="M 25.390625 -1.421875 
Q 15.765625 -1.421875 10.171875 4.515625 
Q 4.59375 10.453125 4.59375 20.703125 
Q 4.59375 26.65625 6.515625 32.828125 
Q 8.453125 39.015625 11.53125 43.21875 
Q 16.359375 49.75 22.3125 52.875 
Q 28.265625 56 35.796875 56 
Q 45.125 56 50.859375 50.1875 
Q 56.59375 44.390625 56.59375 35.015625 
Q 56.59375 28.515625 54.6875 22.0625 
Q 52.78125 15.625 49.703125 11.375 
Q 44.921875 4.828125 38.96875 1.703125 
Q 33.015625 -1.421875 25.390625 -1.421875 
z
M 13.921875 21 
Q 13.921875 13.578125 17.015625 9.890625 
Q 20.125 6.203125 26.421875 6.203125 
Q 35.453125 6.203125 41.375 14.078125 
Q 47.3125 21.96875 47.3125 34.078125 
Q 47.3125 41.15625 44.140625 44.765625 
Q 40.96875 48.390625 34.8125 48.390625 
Q 29.734375 48.390625 25.78125 46.015625 
Q 21.828125 43.65625 18.703125 38.8125 
Q 16.40625 35.203125 15.15625 30.5625 
Q 13.921875 25.921875 13.921875 21 
z
" id="DejaVuSans-Oblique-111"/>
       <path d="M 45.40625 46.390625 
L 45.40625 75.984375 
L 54.390625 75.984375 
L 54.390625 0 
L 45.40625 0 
L 45.40625 8.203125 
Q 42.578125 3.328125 38.25 0.953125 
Q 33.9375 -1.421875 27.875 -1.421875 
Q 17.96875 -1.421875 11.734375 6.484375 
Q 5.515625 14.40625 5.515625 27.296875 
Q 5.515625 40.1875 11.734375 48.09375 
Q 17.96875 56 27.875 56 
Q 33.9375 56 38.25 53.625 
Q 42.578125 51.265625 45.40625 46.390625 
z
M 14.796875 27.296875 
Q 14.796875 17.390625 18.875 11.75 
Q 22.953125 6.109375 30.078125 6.109375 
Q 37.203125 6.109375 41.296875 11.75 
Q 45.40625 17.390625 45.40625 27.296875 
Q 45.40625 37.203125 41.296875 42.84375 
Q 37.203125 48.484375 30.078125 48.484375 
Q 22.953125 48.484375 18.875 42.84375 
Q 14.796875 37.203125 14.796875 27.296875 
z
" id="DejaVuSans-100"/>
      </defs>
      <use transform="translate(0 0.015625)" xlink:href="#DejaVuSans-Oblique-65"/>
      <use transform="translate(68.408203 0.015625)" xlink:href="#DejaVuSans-Oblique-112"/>
      <use transform="translate(131.884766 0.015625)" xlink:href="#DejaVuSans-Oblique-114"/>
      <use transform="translate(172.998047 0.015625)" xlink:href="#DejaVuSans-Oblique-105"/>
      <use transform="translate(200.78125 0.015625)" xlink:href="#DejaVuSans-Oblique-111"/>
      <use transform="translate(261.962891 0.015625)" xlink:href="#DejaVuSans-Oblique-114"/>
      <use transform="translate(303.076172 0.015625)" xlink:href="#DejaVuSans-Oblique-105"/>
      <use transform="translate(330.859375 0.015625)" xlink:href="#DejaVuSans-32"/>
      <use transform="translate(362.646484 0.015625)" xlink:href="#DejaVuSans-109"/>
      <use transform="translate(460.058594 0.015625)" xlink:href="#DejaVuSans-111"/>
      <use transform="translate(521.240234 0.015625)" xlink:href="#DejaVuSans-100"/>
      <use transform="translate(584.716797 0.015625)" xlink:href="#DejaVuSans-101"/>
      <use transform="translate(646.240234 0.015625)" xlink:href="#DejaVuSans-108"/>
     </g>
    </g>
    <g id="line2d_27">
     <path d="M 61.141875 79.472813 
L 81.141875 79.472813 
" style="fill:none;stroke:#ffffff;stroke-linecap:square;stroke-width:1.5;"/>
    </g>
    <g id="line2d_28"/>
    <g id="text_18">
     <!-- T:626.0 -->
     <g transform="translate(89.141875 82.972813)scale(0.1 -0.1)">
      <defs>
       <path d="M 11.71875 12.40625 
L 22.015625 12.40625 
L 22.015625 0 
L 11.71875 0 
z
M 11.71875 51.703125 
L 22.015625 51.703125 
L 22.015625 39.3125 
L 11.71875 39.3125 
z
" id="DejaVuSans-58"/>
      </defs>
      <use xlink:href="#DejaVuSans-84"/>
      <use x="50.083984" xlink:href="#DejaVuSans-58"/>
      <use x="83.775391" xlink:href="#DejaVuSans-54"/>
      <use x="147.398438" xlink:href="#DejaVuSans-50"/>
      <use x="211.021484" xlink:href="#DejaVuSans-54"/>
      <use x="274.644531" xlink:href="#DejaVuSans-46"/>
      <use x="306.431641" xlink:href="#DejaVuSans-48"/>
     </g>
    </g>
    <g id="line2d_29">
     <path d="M 202.8825 35.416562 
L 222.8825 35.416562 
" style="fill:none;stroke:#ffffff;stroke-linecap:square;stroke-width:1.5;"/>
    </g>
    <g id="line2d_30"/>
    <g id="text_19">
     <!-- P:0.981 -->
     <g transform="translate(230.8825 38.916562)scale(0.1 -0.1)">
      <defs>
       <path d="M 19.671875 64.796875 
L 19.671875 37.40625 
L 32.078125 37.40625 
Q 38.96875 37.40625 42.71875 40.96875 
Q 46.484375 44.53125 46.484375 51.125 
Q 46.484375 57.671875 42.71875 61.234375 
Q 38.96875 64.796875 32.078125 64.796875 
z
M 9.8125 72.90625 
L 32.078125 72.90625 
Q 44.34375 72.90625 50.609375 67.359375 
Q 56.890625 61.8125 56.890625 51.125 
Q 56.890625 40.328125 50.609375 34.8125 
Q 44.34375 29.296875 32.078125 29.296875 
L 19.671875 29.296875 
L 19.671875 0 
L 9.8125 0 
z
" id="DejaVuSans-80"/>
       <path d="M 31.78125 34.625 
Q 24.75 34.625 20.71875 30.859375 
Q 16.703125 27.09375 16.703125 20.515625 
Q 16.703125 13.921875 20.71875 10.15625 
Q 24.75 6.390625 31.78125 6.390625 
Q 38.8125 6.390625 42.859375 10.171875 
Q 46.921875 13.96875 46.921875 20.515625 
Q 46.921875 27.09375 42.890625 30.859375 
Q 38.875 34.625 31.78125 34.625 
z
M 21.921875 38.8125 
Q 15.578125 40.375 12.03125 44.71875 
Q 8.5 49.078125 8.5 55.328125 
Q 8.5 64.0625 14.71875 69.140625 
Q 20.953125 74.21875 31.78125 74.21875 
Q 42.671875 74.21875 48.875 69.140625 
Q 55.078125 64.0625 55.078125 55.328125 
Q 55.078125 49.078125 51.53125 44.71875 
Q 48 40.375 41.703125 38.8125 
Q 48.828125 37.15625 52.796875 32.3125 
Q 56.78125 27.484375 56.78125 20.515625 
Q 56.78125 9.90625 50.3125 4.234375 
Q 43.84375 -1.421875 31.78125 -1.421875 
Q 19.734375 -1.421875 13.25 4.234375 
Q 6.78125 9.90625 6.78125 20.515625 
Q 6.78125 27.484375 10.78125 32.3125 
Q 14.796875 37.15625 21.921875 38.8125 
z
M 18.3125 54.390625 
Q 18.3125 48.734375 21.84375 45.5625 
Q 25.390625 42.390625 31.78125 42.390625 
Q 38.140625 42.390625 41.71875 45.5625 
Q 45.3125 48.734375 45.3125 54.390625 
Q 45.3125 60.0625 41.71875 63.234375 
Q 38.140625 66.40625 31.78125 66.40625 
Q 25.390625 66.40625 21.84375 63.234375 
Q 18.3125 60.0625 18.3125 54.390625 
z
" id="DejaVuSans-56"/>
      </defs>
      <use xlink:href="#DejaVuSans-80"/>
      <use x="60.302734" xlink:href="#DejaVuSans-58"/>
      <use x="93.994141" xlink:href="#DejaVuSans-48"/>
      <use x="157.617188" xlink:href="#DejaVuSans-46"/>
      <use x="189.404297" xlink:href="#DejaVuSans-57"/>
      <use x="253.027344" xlink:href="#DejaVuSans-56"/>
      <use x="316.650391" xlink:href="#DejaVuSans-49"/>
     </g>
    </g>
    <g id="line2d_31">
     <path d="M 202.8825 50.094688 
L 222.8825 50.094688 
" style="fill:none;stroke:#ffffff;stroke-linecap:square;stroke-width:1.5;"/>
    </g>
    <g id="line2d_32"/>
    <g id="text_20">
     <!-- CH3: 0.001299145299145299 -->
     <g transform="translate(230.8825 53.594688)scale(0.1 -0.1)">
      <defs>
       <path d="M 64.40625 67.28125 
L 64.40625 56.890625 
Q 59.421875 61.53125 53.78125 63.8125 
Q 48.140625 66.109375 41.796875 66.109375 
Q 29.296875 66.109375 22.65625 58.46875 
Q 16.015625 50.828125 16.015625 36.375 
Q 16.015625 21.96875 22.65625 14.328125 
Q 29.296875 6.6875 41.796875 6.6875 
Q 48.140625 6.6875 53.78125 8.984375 
Q 59.421875 11.28125 64.40625 15.921875 
L 64.40625 5.609375 
Q 59.234375 2.09375 53.4375 0.328125 
Q 47.65625 -1.421875 41.21875 -1.421875 
Q 24.65625 -1.421875 15.125 8.703125 
Q 5.609375 18.84375 5.609375 36.375 
Q 5.609375 53.953125 15.125 64.078125 
Q 24.65625 74.21875 41.21875 74.21875 
Q 47.75 74.21875 53.53125 72.484375 
Q 59.328125 70.75 64.40625 67.28125 
z
" id="DejaVuSans-67"/>
       <path d="M 9.8125 72.90625 
L 19.671875 72.90625 
L 19.671875 43.015625 
L 55.515625 43.015625 
L 55.515625 72.90625 
L 65.375 72.90625 
L 65.375 0 
L 55.515625 0 
L 55.515625 34.71875 
L 19.671875 34.71875 
L 19.671875 0 
L 9.8125 0 
z
" id="DejaVuSans-72"/>
      </defs>
      <use xlink:href="#DejaVuSans-67"/>
      <use x="69.824219" xlink:href="#DejaVuSans-72"/>
      <use x="145.019531" xlink:href="#DejaVuSans-51"/>
      <use x="208.642578" xlink:href="#DejaVuSans-58"/>
      <use x="242.333984" xlink:href="#DejaVuSans-32"/>
      <use x="274.121094" xlink:href="#DejaVuSans-48"/>
      <use x="337.744141" xlink:href="#DejaVuSans-46"/>
      <use x="369.53125" xlink:href="#DejaVuSans-48"/>
      <use x="433.154297" xlink:href="#DejaVuSans-48"/>
      <use x="496.777344" xlink:href="#DejaVuSans-49"/>
      <use x="560.400391" xlink:href="#DejaVuSans-50"/>
      <use x="624.023438" xlink:href="#DejaVuSans-57"/>
      <use x="687.646484" xlink:href="#DejaVuSans-57"/>
      <use x="751.269531" xlink:href="#DejaVuSans-49"/>
      <use x="814.892578" xlink:href="#DejaVuSans-52"/>
      <use x="878.515625" xlink:href="#DejaVuSans-53"/>
      <use x="942.138672" xlink:href="#DejaVuSans-50"/>
      <use x="1005.761719" xlink:href="#DejaVuSans-57"/>
      <use x="1069.384766" xlink:href="#DejaVuSans-57"/>
      <use x="1133.007812" xlink:href="#DejaVuSans-49"/>
      <use x="1196.630859" xlink:href="#DejaVuSans-52"/>
      <use x="1260.253906" xlink:href="#DejaVuSans-53"/>
      <use x="1323.876953" xlink:href="#DejaVuSans-50"/>
      <use x="1387.5" xlink:href="#DejaVuSans-57"/>
      <use x="1451.123047" xlink:href="#DejaVuSans-57"/>
     </g>
    </g>
    <g id="line2d_33">
     <path d="M 202.8825 64.772812 
L 222.8825 64.772812 
" style="fill:none;stroke:#ffffff;stroke-linecap:square;stroke-width:1.5;"/>
    </g>
    <g id="line2d_34"/>
    <g id="text_21">
     <!-- Ar: 0.9987008547008547 -->
     <g transform="translate(230.8825 68.272812)scale(0.1 -0.1)">
      <defs>
       <path d="M 8.203125 72.90625 
L 55.078125 72.90625 
L 55.078125 68.703125 
L 28.609375 0 
L 18.3125 0 
L 43.21875 64.59375 
L 8.203125 64.59375 
z
" id="DejaVuSans-55"/>
      </defs>
      <use xlink:href="#DejaVuSans-65"/>
      <use x="68.408203" xlink:href="#DejaVuSans-114"/>
      <use x="107.771484" xlink:href="#DejaVuSans-58"/>
      <use x="141.462891" xlink:href="#DejaVuSans-32"/>
      <use x="173.25" xlink:href="#DejaVuSans-48"/>
      <use x="236.873047" xlink:href="#DejaVuSans-46"/>
      <use x="268.660156" xlink:href="#DejaVuSans-57"/>
      <use x="332.283203" xlink:href="#DejaVuSans-57"/>
      <use x="395.90625" xlink:href="#DejaVuSans-56"/>
      <use x="459.529297" xlink:href="#DejaVuSans-55"/>
      <use x="523.152344" xlink:href="#DejaVuSans-48"/>
      <use x="586.775391" xlink:href="#DejaVuSans-48"/>
      <use x="650.398438" xlink:href="#DejaVuSans-56"/>
      <use x="714.021484" xlink:href="#DejaVuSans-53"/>
      <use x="777.644531" xlink:href="#DejaVuSans-52"/>
      <use x="841.267578" xlink:href="#DejaVuSans-55"/>
      <use x="904.890625" xlink:href="#DejaVuSans-48"/>
      <use x="968.513672" xlink:href="#DejaVuSans-48"/>
      <use x="1032.136719" xlink:href="#DejaVuSans-56"/>
      <use x="1095.759766" xlink:href="#DejaVuSans-53"/>
      <use x="1159.382812" xlink:href="#DejaVuSans-52"/>
      <use x="1223.005859" xlink:href="#DejaVuSans-55"/>
     </g>
    </g>
   </g>
  </g>
 </g>
 <defs>
  <clipPath id="p5552fe4f75">
   <rect height="266.112" width="357.12" x="34.240625" y="22.318125"/>
  </clipPath>
 </defs>
</svg>
