<?xml version="1.0" encoding="utf-8" standalone="no"?>
<!DOCTYPE svg PUBLIC "-//W3C//DTD SVG 1.1//EN"
  "http://www.w3.org/Graphics/SVG/1.1/DTD/svg11.dtd">
<!-- Created with matplotlib (https://matplotlib.org/) -->
<svg height="325.986375pt" version="1.1" viewBox="0 0 414.46375 325.986375" width="414.46375pt" xmlns="http://www.w3.org/2000/svg" xmlns:xlink="http://www.w3.org/1999/xlink">
 <metadata>
  <rdf:RDF xmlns:cc="http://creativecommons.org/ns#" xmlns:dc="http://purl.org/dc/elements/1.1/" xmlns:rdf="http://www.w3.org/1999/02/22-rdf-syntax-ns#">
   <cc:Work>
    <dc:type rdf:resource="http://purl.org/dc/dcmitype/StillImage"/>
    <dc:date>2023-08-04T12:52:17.449934</dc:date>
    <dc:format>image/svg+xml</dc:format>
    <dc:creator>
     <cc:Agent>
      <dc:title>Matplotlib v3.3.1, https://matplotlib.org/</dc:title>
     </cc:Agent>
    </dc:creator>
   </cc:Work>
  </rdf:RDF>
 </metadata>
 <defs>
  <style type="text/css">*{stroke-linecap:butt;stroke-linejoin:round;}</style>
 </defs>
 <g id="figure_1">
  <g id="patch_1">
   <path d="M 0 325.986375 
L 414.46375 325.986375 
L 414.46375 0 
L 0 0 
z
" style="fill:none;"/>
  </g>
  <g id="axes_1">
   <g id="patch_2">
    <path d="M 50.14375 288.430125 
L 407.26375 288.430125 
L 407.26375 22.318125 
L 50.14375 22.318125 
z
" style="fill:none;"/>
   </g>
   <g id="matplotlib.axis_1">
    <g id="xtick_1">
     <g id="line2d_1">
      <defs>
       <path d="M 0 0 
L 0 3.5 
" id="m482ed50f93" style="stroke:#000000;stroke-width:0.8;"/>
      </defs>
      <g>
       <use style="stroke:#000000;stroke-width:0.8;" x="66.376477" xlink:href="#m482ed50f93" y="288.430125"/>
      </g>
     </g>
     <g id="text_1">
      <!-- 0 -->
      <g transform="translate(63.195227 303.028562)scale(0.1 -0.1)">
       <defs>
        <path d="M 31.78125 66.40625 
Q 24.171875 66.40625 20.328125 58.90625 
Q 16.5 51.421875 16.5 36.375 
Q 16.5 21.390625 20.328125 13.890625 
Q 24.171875 6.390625 31.78125 6.390625 
Q 39.453125 6.390625 43.28125 13.890625 
Q 47.125 21.390625 47.125 36.375 
Q 47.125 51.421875 43.28125 58.90625 
Q 39.453125 66.40625 31.78125 66.40625 
z
M 31.78125 74.21875 
Q 44.046875 74.21875 50.515625 64.515625 
Q 56.984375 54.828125 56.984375 36.375 
Q 56.984375 17.96875 50.515625 8.265625 
Q 44.046875 -1.421875 31.78125 -1.421875 
Q 19.53125 -1.421875 13.0625 8.265625 
Q 6.59375 17.96875 6.59375 36.375 
Q 6.59375 54.828125 13.0625 64.515625 
Q 19.53125 74.21875 31.78125 74.21875 
z
" id="DejaVuSans-48"/>
       </defs>
       <use xlink:href="#DejaVuSans-48"/>
      </g>
     </g>
    </g>
    <g id="xtick_2">
     <g id="line2d_2">
      <g>
       <use style="stroke:#000000;stroke-width:0.8;" x="130.422476" xlink:href="#m482ed50f93" y="288.430125"/>
      </g>
     </g>
     <g id="text_2">
      <!-- 10 -->
      <g transform="translate(124.059976 303.028562)scale(0.1 -0.1)">
       <defs>
        <path d="M 12.40625 8.296875 
L 28.515625 8.296875 
L 28.515625 63.921875 
L 10.984375 60.40625 
L 10.984375 69.390625 
L 28.421875 72.90625 
L 38.28125 72.90625 
L 38.28125 8.296875 
L 54.390625 8.296875 
L 54.390625 0 
L 12.40625 0 
z
" id="DejaVuSans-49"/>
       </defs>
       <use xlink:href="#DejaVuSans-49"/>
       <use x="63.623047" xlink:href="#DejaVuSans-48"/>
      </g>
     </g>
    </g>
    <g id="xtick_3">
     <g id="line2d_3">
      <g>
       <use style="stroke:#000000;stroke-width:0.8;" x="194.468475" xlink:href="#m482ed50f93" y="288.430125"/>
      </g>
     </g>
     <g id="text_3">
      <!-- 20 -->
      <g transform="translate(188.105975 303.028562)scale(0.1 -0.1)">
       <defs>
        <path d="M 19.1875 8.296875 
L 53.609375 8.296875 
L 53.609375 0 
L 7.328125 0 
L 7.328125 8.296875 
Q 12.9375 14.109375 22.625 23.890625 
Q 32.328125 33.6875 34.8125 36.53125 
Q 39.546875 41.84375 41.421875 45.53125 
Q 43.3125 49.21875 43.3125 52.78125 
Q 43.3125 58.59375 39.234375 62.25 
Q 35.15625 65.921875 28.609375 65.921875 
Q 23.96875 65.921875 18.8125 64.3125 
Q 13.671875 62.703125 7.8125 59.421875 
L 7.8125 69.390625 
Q 13.765625 71.78125 18.9375 73 
Q 24.125 74.21875 28.421875 74.21875 
Q 39.75 74.21875 46.484375 68.546875 
Q 53.21875 62.890625 53.21875 53.421875 
Q 53.21875 48.921875 51.53125 44.890625 
Q 49.859375 40.875 45.40625 35.40625 
Q 44.1875 33.984375 37.640625 27.21875 
Q 31.109375 20.453125 19.1875 8.296875 
z
" id="DejaVuSans-50"/>
       </defs>
       <use xlink:href="#DejaVuSans-50"/>
       <use x="63.623047" xlink:href="#DejaVuSans-48"/>
      </g>
     </g>
    </g>
    <g id="xtick_4">
     <g id="line2d_4">
      <g>
       <use style="stroke:#000000;stroke-width:0.8;" x="258.514473" xlink:href="#m482ed50f93" y="288.430125"/>
      </g>
     </g>
     <g id="text_4">
      <!-- 30 -->
      <g transform="translate(252.151973 303.028562)scale(0.1 -0.1)">
       <defs>
        <path d="M 40.578125 39.3125 
Q 47.65625 37.796875 51.625 33 
Q 55.609375 28.21875 55.609375 21.1875 
Q 55.609375 10.40625 48.1875 4.484375 
Q 40.765625 -1.421875 27.09375 -1.421875 
Q 22.515625 -1.421875 17.65625 -0.515625 
Q 12.796875 0.390625 7.625 2.203125 
L 7.625 11.71875 
Q 11.71875 9.328125 16.59375 8.109375 
Q 21.484375 6.890625 26.8125 6.890625 
Q 36.078125 6.890625 40.9375 10.546875 
Q 45.796875 14.203125 45.796875 21.1875 
Q 45.796875 27.640625 41.28125 31.265625 
Q 36.765625 34.90625 28.71875 34.90625 
L 20.21875 34.90625 
L 20.21875 43.015625 
L 29.109375 43.015625 
Q 36.375 43.015625 40.234375 45.921875 
Q 44.09375 48.828125 44.09375 54.296875 
Q 44.09375 59.90625 40.109375 62.90625 
Q 36.140625 65.921875 28.71875 65.921875 
Q 24.65625 65.921875 20.015625 65.03125 
Q 15.375 64.15625 9.8125 62.3125 
L 9.8125 71.09375 
Q 15.4375 72.65625 20.34375 73.4375 
Q 25.25 74.21875 29.59375 74.21875 
Q 40.828125 74.21875 47.359375 69.109375 
Q 53.90625 64.015625 53.90625 55.328125 
Q 53.90625 49.265625 50.4375 45.09375 
Q 46.96875 40.921875 40.578125 39.3125 
z
" id="DejaVuSans-51"/>
       </defs>
       <use xlink:href="#DejaVuSans-51"/>
       <use x="63.623047" xlink:href="#DejaVuSans-48"/>
      </g>
     </g>
    </g>
    <g id="xtick_5">
     <g id="line2d_5">
      <g>
       <use style="stroke:#000000;stroke-width:0.8;" x="322.560472" xlink:href="#m482ed50f93" y="288.430125"/>
      </g>
     </g>
     <g id="text_5">
      <!-- 40 -->
      <g transform="translate(316.197972 303.028562)scale(0.1 -0.1)">
       <defs>
        <path d="M 37.796875 64.3125 
L 12.890625 25.390625 
L 37.796875 25.390625 
z
M 35.203125 72.90625 
L 47.609375 72.90625 
L 47.609375 25.390625 
L 58.015625 25.390625 
L 58.015625 17.1875 
L 47.609375 17.1875 
L 47.609375 0 
L 37.796875 0 
L 37.796875 17.1875 
L 4.890625 17.1875 
L 4.890625 26.703125 
z
" id="DejaVuSans-52"/>
       </defs>
       <use xlink:href="#DejaVuSans-52"/>
       <use x="63.623047" xlink:href="#DejaVuSans-48"/>
      </g>
     </g>
    </g>
    <g id="xtick_6">
     <g id="line2d_6">
      <g>
       <use style="stroke:#000000;stroke-width:0.8;" x="386.60647" xlink:href="#m482ed50f93" y="288.430125"/>
      </g>
     </g>
     <g id="text_6">
      <!-- 50 -->
      <g transform="translate(380.24397 303.028562)scale(0.1 -0.1)">
       <defs>
        <path d="M 10.796875 72.90625 
L 49.515625 72.90625 
L 49.515625 64.59375 
L 19.828125 64.59375 
L 19.828125 46.734375 
Q 21.96875 47.46875 24.109375 47.828125 
Q 26.265625 48.1875 28.421875 48.1875 
Q 40.625 48.1875 47.75 41.5 
Q 54.890625 34.8125 54.890625 23.390625 
Q 54.890625 11.625 47.5625 5.09375 
Q 40.234375 -1.421875 26.90625 -1.421875 
Q 22.3125 -1.421875 17.546875 -0.640625 
Q 12.796875 0.140625 7.71875 1.703125 
L 7.71875 11.625 
Q 12.109375 9.234375 16.796875 8.0625 
Q 21.484375 6.890625 26.703125 6.890625 
Q 35.15625 6.890625 40.078125 11.328125 
Q 45.015625 15.765625 45.015625 23.390625 
Q 45.015625 31 40.078125 35.4375 
Q 35.15625 39.890625 26.703125 39.890625 
Q 22.75 39.890625 18.8125 39.015625 
Q 14.890625 38.140625 10.796875 36.28125 
z
" id="DejaVuSans-53"/>
       </defs>
       <use xlink:href="#DejaVuSans-53"/>
       <use x="63.623047" xlink:href="#DejaVuSans-48"/>
      </g>
     </g>
    </g>
    <g id="text_7">
     <!-- Time (ms) -->
     <g transform="translate(203.504531 316.706687)scale(0.1 -0.1)">
      <defs>
       <path d="M -0.296875 72.90625 
L 61.375 72.90625 
L 61.375 64.59375 
L 35.5 64.59375 
L 35.5 0 
L 25.59375 0 
L 25.59375 64.59375 
L -0.296875 64.59375 
z
" id="DejaVuSans-84"/>
       <path d="M 9.421875 54.6875 
L 18.40625 54.6875 
L 18.40625 0 
L 9.421875 0 
z
M 9.421875 75.984375 
L 18.40625 75.984375 
L 18.40625 64.59375 
L 9.421875 64.59375 
z
" id="DejaVuSans-105"/>
       <path d="M 52 44.1875 
Q 55.375 50.25 60.0625 53.125 
Q 64.75 56 71.09375 56 
Q 79.640625 56 84.28125 50.015625 
Q 88.921875 44.046875 88.921875 33.015625 
L 88.921875 0 
L 79.890625 0 
L 79.890625 32.71875 
Q 79.890625 40.578125 77.09375 44.375 
Q 74.3125 48.1875 68.609375 48.1875 
Q 61.625 48.1875 57.5625 43.546875 
Q 53.515625 38.921875 53.515625 30.90625 
L 53.515625 0 
L 44.484375 0 
L 44.484375 32.71875 
Q 44.484375 40.625 41.703125 44.40625 
Q 38.921875 48.1875 33.109375 48.1875 
Q 26.21875 48.1875 22.15625 43.53125 
Q 18.109375 38.875 18.109375 30.90625 
L 18.109375 0 
L 9.078125 0 
L 9.078125 54.6875 
L 18.109375 54.6875 
L 18.109375 46.1875 
Q 21.1875 51.21875 25.484375 53.609375 
Q 29.78125 56 35.6875 56 
Q 41.65625 56 45.828125 52.96875 
Q 50 49.953125 52 44.1875 
z
" id="DejaVuSans-109"/>
       <path d="M 56.203125 29.59375 
L 56.203125 25.203125 
L 14.890625 25.203125 
Q 15.484375 15.921875 20.484375 11.0625 
Q 25.484375 6.203125 34.421875 6.203125 
Q 39.59375 6.203125 44.453125 7.46875 
Q 49.3125 8.734375 54.109375 11.28125 
L 54.109375 2.78125 
Q 49.265625 0.734375 44.1875 -0.34375 
Q 39.109375 -1.421875 33.890625 -1.421875 
Q 20.796875 -1.421875 13.15625 6.1875 
Q 5.515625 13.8125 5.515625 26.8125 
Q 5.515625 40.234375 12.765625 48.109375 
Q 20.015625 56 32.328125 56 
Q 43.359375 56 49.78125 48.890625 
Q 56.203125 41.796875 56.203125 29.59375 
z
M 47.21875 32.234375 
Q 47.125 39.59375 43.09375 43.984375 
Q 39.0625 48.390625 32.421875 48.390625 
Q 24.90625 48.390625 20.390625 44.140625 
Q 15.875 39.890625 15.1875 32.171875 
z
" id="DejaVuSans-101"/>
       <path id="DejaVuSans-32"/>
       <path d="M 31 75.875 
Q 24.46875 64.65625 21.28125 53.65625 
Q 18.109375 42.671875 18.109375 31.390625 
Q 18.109375 20.125 21.3125 9.0625 
Q 24.515625 -2 31 -13.1875 
L 23.1875 -13.1875 
Q 15.875 -1.703125 12.234375 9.375 
Q 8.59375 20.453125 8.59375 31.390625 
Q 8.59375 42.28125 12.203125 53.3125 
Q 15.828125 64.359375 23.1875 75.875 
z
" id="DejaVuSans-40"/>
       <path d="M 44.28125 53.078125 
L 44.28125 44.578125 
Q 40.484375 46.53125 36.375 47.5 
Q 32.28125 48.484375 27.875 48.484375 
Q 21.1875 48.484375 17.84375 46.4375 
Q 14.5 44.390625 14.5 40.28125 
Q 14.5 37.15625 16.890625 35.375 
Q 19.28125 33.59375 26.515625 31.984375 
L 29.59375 31.296875 
Q 39.15625 29.25 43.1875 25.515625 
Q 47.21875 21.78125 47.21875 15.09375 
Q 47.21875 7.46875 41.1875 3.015625 
Q 35.15625 -1.421875 24.609375 -1.421875 
Q 20.21875 -1.421875 15.453125 -0.5625 
Q 10.6875 0.296875 5.421875 2 
L 5.421875 11.28125 
Q 10.40625 8.6875 15.234375 7.390625 
Q 20.0625 6.109375 24.8125 6.109375 
Q 31.15625 6.109375 34.5625 8.28125 
Q 37.984375 10.453125 37.984375 14.40625 
Q 37.984375 18.0625 35.515625 20.015625 
Q 33.0625 21.96875 24.703125 23.78125 
L 21.578125 24.515625 
Q 13.234375 26.265625 9.515625 29.90625 
Q 5.8125 33.546875 5.8125 39.890625 
Q 5.8125 47.609375 11.28125 51.796875 
Q 16.75 56 26.8125 56 
Q 31.78125 56 36.171875 55.265625 
Q 40.578125 54.546875 44.28125 53.078125 
z
" id="DejaVuSans-115"/>
       <path d="M 8.015625 75.875 
L 15.828125 75.875 
Q 23.140625 64.359375 26.78125 53.3125 
Q 30.421875 42.28125 30.421875 31.390625 
Q 30.421875 20.453125 26.78125 9.375 
Q 23.140625 -1.703125 15.828125 -13.1875 
L 8.015625 -13.1875 
Q 14.5 -2 17.703125 9.0625 
Q 20.90625 20.125 20.90625 31.390625 
Q 20.90625 42.671875 17.703125 53.65625 
Q 14.5 64.65625 8.015625 75.875 
z
" id="DejaVuSans-41"/>
      </defs>
      <use xlink:href="#DejaVuSans-84"/>
      <use x="57.958984" xlink:href="#DejaVuSans-105"/>
      <use x="85.742188" xlink:href="#DejaVuSans-109"/>
      <use x="183.154297" xlink:href="#DejaVuSans-101"/>
      <use x="244.677734" xlink:href="#DejaVuSans-32"/>
      <use x="276.464844" xlink:href="#DejaVuSans-40"/>
      <use x="315.478516" xlink:href="#DejaVuSans-109"/>
      <use x="412.890625" xlink:href="#DejaVuSans-115"/>
      <use x="464.990234" xlink:href="#DejaVuSans-41"/>
     </g>
    </g>
   </g>
   <g id="matplotlib.axis_2">
    <g id="ytick_1">
     <g id="line2d_7">
      <defs>
       <path d="M 0 0 
L -3.5 0 
" id="me3ffcb2c07" style="stroke:#000000;stroke-width:0.8;"/>
      </defs>
      <g>
       <use style="stroke:#000000;stroke-width:0.8;" x="50.14375" xlink:href="#me3ffcb2c07" y="276.334125"/>
      </g>
     </g>
     <g id="text_8">
      <!-- 0.00 -->
      <g transform="translate(20.878125 280.133344)scale(0.1 -0.1)">
       <defs>
        <path d="M 10.6875 12.40625 
L 21 12.40625 
L 21 0 
L 10.6875 0 
z
" id="DejaVuSans-46"/>
       </defs>
       <use xlink:href="#DejaVuSans-48"/>
       <use x="63.623047" xlink:href="#DejaVuSans-46"/>
       <use x="95.410156" xlink:href="#DejaVuSans-48"/>
       <use x="159.033203" xlink:href="#DejaVuSans-48"/>
      </g>
     </g>
    </g>
    <g id="ytick_2">
     <g id="line2d_8">
      <g>
       <use style="stroke:#000000;stroke-width:0.8;" x="50.14375" xlink:href="#me3ffcb2c07" y="233.131124"/>
      </g>
     </g>
     <g id="text_9">
      <!-- 0.02 -->
      <g transform="translate(20.878125 236.930342)scale(0.1 -0.1)">
       <use xlink:href="#DejaVuSans-48"/>
       <use x="63.623047" xlink:href="#DejaVuSans-46"/>
       <use x="95.410156" xlink:href="#DejaVuSans-48"/>
       <use x="159.033203" xlink:href="#DejaVuSans-50"/>
      </g>
     </g>
    </g>
    <g id="ytick_3">
     <g id="line2d_9">
      <g>
       <use style="stroke:#000000;stroke-width:0.8;" x="50.14375" xlink:href="#me3ffcb2c07" y="189.928122"/>
      </g>
     </g>
     <g id="text_10">
      <!-- 0.04 -->
      <g transform="translate(20.878125 193.727341)scale(0.1 -0.1)">
       <use xlink:href="#DejaVuSans-48"/>
       <use x="63.623047" xlink:href="#DejaVuSans-46"/>
       <use x="95.410156" xlink:href="#DejaVuSans-48"/>
       <use x="159.033203" xlink:href="#DejaVuSans-52"/>
      </g>
     </g>
    </g>
    <g id="ytick_4">
     <g id="line2d_10">
      <g>
       <use style="stroke:#000000;stroke-width:0.8;" x="50.14375" xlink:href="#me3ffcb2c07" y="146.725121"/>
      </g>
     </g>
     <g id="text_11">
      <!-- 0.06 -->
      <g transform="translate(20.878125 150.52434)scale(0.1 -0.1)">
       <defs>
        <path d="M 33.015625 40.375 
Q 26.375 40.375 22.484375 35.828125 
Q 18.609375 31.296875 18.609375 23.390625 
Q 18.609375 15.53125 22.484375 10.953125 
Q 26.375 6.390625 33.015625 6.390625 
Q 39.65625 6.390625 43.53125 10.953125 
Q 47.40625 15.53125 47.40625 23.390625 
Q 47.40625 31.296875 43.53125 35.828125 
Q 39.65625 40.375 33.015625 40.375 
z
M 52.59375 71.296875 
L 52.59375 62.3125 
Q 48.875 64.0625 45.09375 64.984375 
Q 41.3125 65.921875 37.59375 65.921875 
Q 27.828125 65.921875 22.671875 59.328125 
Q 17.53125 52.734375 16.796875 39.40625 
Q 19.671875 43.65625 24.015625 45.921875 
Q 28.375 48.1875 33.59375 48.1875 
Q 44.578125 48.1875 50.953125 41.515625 
Q 57.328125 34.859375 57.328125 23.390625 
Q 57.328125 12.15625 50.6875 5.359375 
Q 44.046875 -1.421875 33.015625 -1.421875 
Q 20.359375 -1.421875 13.671875 8.265625 
Q 6.984375 17.96875 6.984375 36.375 
Q 6.984375 53.65625 15.1875 63.9375 
Q 23.390625 74.21875 37.203125 74.21875 
Q 40.921875 74.21875 44.703125 73.484375 
Q 48.484375 72.75 52.59375 71.296875 
z
" id="DejaVuSans-54"/>
       </defs>
       <use xlink:href="#DejaVuSans-48"/>
       <use x="63.623047" xlink:href="#DejaVuSans-46"/>
       <use x="95.410156" xlink:href="#DejaVuSans-48"/>
       <use x="159.033203" xlink:href="#DejaVuSans-54"/>
      </g>
     </g>
    </g>
    <g id="ytick_5">
     <g id="line2d_11">
      <g>
       <use style="stroke:#000000;stroke-width:0.8;" x="50.14375" xlink:href="#me3ffcb2c07" y="103.52212"/>
      </g>
     </g>
     <g id="text_12">
      <!-- 0.08 -->
      <g transform="translate(20.878125 107.321338)scale(0.1 -0.1)">
       <defs>
        <path d="M 31.78125 34.625 
Q 24.75 34.625 20.71875 30.859375 
Q 16.703125 27.09375 16.703125 20.515625 
Q 16.703125 13.921875 20.71875 10.15625 
Q 24.75 6.390625 31.78125 6.390625 
Q 38.8125 6.390625 42.859375 10.171875 
Q 46.921875 13.96875 46.921875 20.515625 
Q 46.921875 27.09375 42.890625 30.859375 
Q 38.875 34.625 31.78125 34.625 
z
M 21.921875 38.8125 
Q 15.578125 40.375 12.03125 44.71875 
Q 8.5 49.078125 8.5 55.328125 
Q 8.5 64.0625 14.71875 69.140625 
Q 20.953125 74.21875 31.78125 74.21875 
Q 42.671875 74.21875 48.875 69.140625 
Q 55.078125 64.0625 55.078125 55.328125 
Q 55.078125 49.078125 51.53125 44.71875 
Q 48 40.375 41.703125 38.8125 
Q 48.828125 37.15625 52.796875 32.3125 
Q 56.78125 27.484375 56.78125 20.515625 
Q 56.78125 9.90625 50.3125 4.234375 
Q 43.84375 -1.421875 31.78125 -1.421875 
Q 19.734375 -1.421875 13.25 4.234375 
Q 6.78125 9.90625 6.78125 20.515625 
Q 6.78125 27.484375 10.78125 32.3125 
Q 14.796875 37.15625 21.921875 38.8125 
z
M 18.3125 54.390625 
Q 18.3125 48.734375 21.84375 45.5625 
Q 25.390625 42.390625 31.78125 42.390625 
Q 38.140625 42.390625 41.71875 45.5625 
Q 45.3125 48.734375 45.3125 54.390625 
Q 45.3125 60.0625 41.71875 63.234375 
Q 38.140625 66.40625 31.78125 66.40625 
Q 25.390625 66.40625 21.84375 63.234375 
Q 18.3125 60.0625 18.3125 54.390625 
z
" id="DejaVuSans-56"/>
       </defs>
       <use xlink:href="#DejaVuSans-48"/>
       <use x="63.623047" xlink:href="#DejaVuSans-46"/>
       <use x="95.410156" xlink:href="#DejaVuSans-48"/>
       <use x="159.033203" xlink:href="#DejaVuSans-56"/>
      </g>
     </g>
    </g>
    <g id="ytick_6">
     <g id="line2d_12">
      <g>
       <use style="stroke:#000000;stroke-width:0.8;" x="50.14375" xlink:href="#me3ffcb2c07" y="60.319118"/>
      </g>
     </g>
     <g id="text_13">
      <!-- 0.10 -->
      <g transform="translate(20.878125 64.118337)scale(0.1 -0.1)">
       <use xlink:href="#DejaVuSans-48"/>
       <use x="63.623047" xlink:href="#DejaVuSans-46"/>
       <use x="95.410156" xlink:href="#DejaVuSans-49"/>
       <use x="159.033203" xlink:href="#DejaVuSans-48"/>
      </g>
     </g>
    </g>
    <g id="text_14">
     <!-- Absorbance227 -->
     <g transform="translate(14.798438 194.46475)rotate(-90)scale(0.1 -0.1)">
      <defs>
       <path d="M 34.1875 63.1875 
L 20.796875 26.90625 
L 47.609375 26.90625 
z
M 28.609375 72.90625 
L 39.796875 72.90625 
L 67.578125 0 
L 57.328125 0 
L 50.6875 18.703125 
L 17.828125 18.703125 
L 11.1875 0 
L 0.78125 0 
z
" id="DejaVuSans-65"/>
       <path d="M 48.6875 27.296875 
Q 48.6875 37.203125 44.609375 42.84375 
Q 40.53125 48.484375 33.40625 48.484375 
Q 26.265625 48.484375 22.1875 42.84375 
Q 18.109375 37.203125 18.109375 27.296875 
Q 18.109375 17.390625 22.1875 11.75 
Q 26.265625 6.109375 33.40625 6.109375 
Q 40.53125 6.109375 44.609375 11.75 
Q 48.6875 17.390625 48.6875 27.296875 
z
M 18.109375 46.390625 
Q 20.953125 51.265625 25.265625 53.625 
Q 29.59375 56 35.59375 56 
Q 45.5625 56 51.78125 48.09375 
Q 58.015625 40.1875 58.015625 27.296875 
Q 58.015625 14.40625 51.78125 6.484375 
Q 45.5625 -1.421875 35.59375 -1.421875 
Q 29.59375 -1.421875 25.265625 0.953125 
Q 20.953125 3.328125 18.109375 8.203125 
L 18.109375 0 
L 9.078125 0 
L 9.078125 75.984375 
L 18.109375 75.984375 
z
" id="DejaVuSans-98"/>
       <path d="M 30.609375 48.390625 
Q 23.390625 48.390625 19.1875 42.75 
Q 14.984375 37.109375 14.984375 27.296875 
Q 14.984375 17.484375 19.15625 11.84375 
Q 23.34375 6.203125 30.609375 6.203125 
Q 37.796875 6.203125 41.984375 11.859375 
Q 46.1875 17.53125 46.1875 27.296875 
Q 46.1875 37.015625 41.984375 42.703125 
Q 37.796875 48.390625 30.609375 48.390625 
z
M 30.609375 56 
Q 42.328125 56 49.015625 48.375 
Q 55.71875 40.765625 55.71875 27.296875 
Q 55.71875 13.875 49.015625 6.21875 
Q 42.328125 -1.421875 30.609375 -1.421875 
Q 18.84375 -1.421875 12.171875 6.21875 
Q 5.515625 13.875 5.515625 27.296875 
Q 5.515625 40.765625 12.171875 48.375 
Q 18.84375 56 30.609375 56 
z
" id="DejaVuSans-111"/>
       <path d="M 41.109375 46.296875 
Q 39.59375 47.171875 37.8125 47.578125 
Q 36.03125 48 33.890625 48 
Q 26.265625 48 22.1875 43.046875 
Q 18.109375 38.09375 18.109375 28.8125 
L 18.109375 0 
L 9.078125 0 
L 9.078125 54.6875 
L 18.109375 54.6875 
L 18.109375 46.1875 
Q 20.953125 51.171875 25.484375 53.578125 
Q 30.03125 56 36.53125 56 
Q 37.453125 56 38.578125 55.875 
Q 39.703125 55.765625 41.0625 55.515625 
z
" id="DejaVuSans-114"/>
       <path d="M 34.28125 27.484375 
Q 23.390625 27.484375 19.1875 25 
Q 14.984375 22.515625 14.984375 16.5 
Q 14.984375 11.71875 18.140625 8.90625 
Q 21.296875 6.109375 26.703125 6.109375 
Q 34.1875 6.109375 38.703125 11.40625 
Q 43.21875 16.703125 43.21875 25.484375 
L 43.21875 27.484375 
z
M 52.203125 31.203125 
L 52.203125 0 
L 43.21875 0 
L 43.21875 8.296875 
Q 40.140625 3.328125 35.546875 0.953125 
Q 30.953125 -1.421875 24.3125 -1.421875 
Q 15.921875 -1.421875 10.953125 3.296875 
Q 6 8.015625 6 15.921875 
Q 6 25.140625 12.171875 29.828125 
Q 18.359375 34.515625 30.609375 34.515625 
L 43.21875 34.515625 
L 43.21875 35.40625 
Q 43.21875 41.609375 39.140625 45 
Q 35.0625 48.390625 27.6875 48.390625 
Q 23 48.390625 18.546875 47.265625 
Q 14.109375 46.140625 10.015625 43.890625 
L 10.015625 52.203125 
Q 14.9375 54.109375 19.578125 55.046875 
Q 24.21875 56 28.609375 56 
Q 40.484375 56 46.34375 49.84375 
Q 52.203125 43.703125 52.203125 31.203125 
z
" id="DejaVuSans-97"/>
       <path d="M 54.890625 33.015625 
L 54.890625 0 
L 45.90625 0 
L 45.90625 32.71875 
Q 45.90625 40.484375 42.875 44.328125 
Q 39.84375 48.1875 33.796875 48.1875 
Q 26.515625 48.1875 22.3125 43.546875 
Q 18.109375 38.921875 18.109375 30.90625 
L 18.109375 0 
L 9.078125 0 
L 9.078125 54.6875 
L 18.109375 54.6875 
L 18.109375 46.1875 
Q 21.34375 51.125 25.703125 53.5625 
Q 30.078125 56 35.796875 56 
Q 45.21875 56 50.046875 50.171875 
Q 54.890625 44.34375 54.890625 33.015625 
z
" id="DejaVuSans-110"/>
       <path d="M 48.78125 52.59375 
L 48.78125 44.1875 
Q 44.96875 46.296875 41.140625 47.34375 
Q 37.3125 48.390625 33.40625 48.390625 
Q 24.65625 48.390625 19.8125 42.84375 
Q 14.984375 37.3125 14.984375 27.296875 
Q 14.984375 17.28125 19.8125 11.734375 
Q 24.65625 6.203125 33.40625 6.203125 
Q 37.3125 6.203125 41.140625 7.25 
Q 44.96875 8.296875 48.78125 10.40625 
L 48.78125 2.09375 
Q 45.015625 0.34375 40.984375 -0.53125 
Q 36.96875 -1.421875 32.421875 -1.421875 
Q 20.0625 -1.421875 12.78125 6.34375 
Q 5.515625 14.109375 5.515625 27.296875 
Q 5.515625 40.671875 12.859375 48.328125 
Q 20.21875 56 33.015625 56 
Q 37.15625 56 41.109375 55.140625 
Q 45.0625 54.296875 48.78125 52.59375 
z
" id="DejaVuSans-99"/>
       <path d="M 8.203125 72.90625 
L 55.078125 72.90625 
L 55.078125 68.703125 
L 28.609375 0 
L 18.3125 0 
L 43.21875 64.59375 
L 8.203125 64.59375 
z
" id="DejaVuSans-55"/>
      </defs>
      <use xlink:href="#DejaVuSans-65"/>
      <use x="68.408203" xlink:href="#DejaVuSans-98"/>
      <use x="131.884766" xlink:href="#DejaVuSans-115"/>
      <use x="183.984375" xlink:href="#DejaVuSans-111"/>
      <use x="245.166016" xlink:href="#DejaVuSans-114"/>
      <use x="286.279297" xlink:href="#DejaVuSans-98"/>
      <use x="349.755859" xlink:href="#DejaVuSans-97"/>
      <use x="411.035156" xlink:href="#DejaVuSans-110"/>
      <use x="474.414062" xlink:href="#DejaVuSans-99"/>
      <use x="529.394531" xlink:href="#DejaVuSans-101"/>
      <use x="590.917969" xlink:href="#DejaVuSans-50"/>
      <use x="654.541016" xlink:href="#DejaVuSans-50"/>
      <use x="718.164062" xlink:href="#DejaVuSans-55"/>
     </g>
    </g>
   </g>
   <g id="line2d_13">
    <defs>
     <path d="M 0 3 
C 0.795609 3 1.55874 2.683901 2.12132 2.12132 
C 2.683901 1.55874 3 0.795609 3 0 
C 3 -0.795609 2.683901 -1.55874 2.12132 -2.12132 
C 1.55874 -2.683901 0.795609 -3 0 -3 
C -0.795609 -3 -1.55874 -2.683901 -2.12132 -2.12132 
C -2.683901 -1.55874 -3 -0.795609 -3 0 
C -3 0.795609 -2.683901 1.55874 -2.12132 2.12132 
C -1.55874 2.683901 -0.795609 3 0 3 
z
" id="m563ece6235" style="stroke:#000000;"/>
    </defs>
    <g clip-path="url(#pd07f8164bc)">
     <use style="stroke:#000000;" x="77.30236" xlink:href="#m563ece6235" y="101.964991"/>
     <use style="stroke:#000000;" x="77.85694" xlink:href="#m563ece6235" y="103.997178"/>
     <use style="stroke:#000000;" x="78.411521" xlink:href="#m563ece6235" y="105.980282"/>
     <use style="stroke:#000000;" x="78.966102" xlink:href="#m563ece6235" y="107.916055"/>
     <use style="stroke:#000000;" x="79.520682" xlink:href="#m563ece6235" y="109.806176"/>
     <use style="stroke:#000000;" x="80.075263" xlink:href="#m563ece6235" y="111.65224"/>
     <use style="stroke:#000000;" x="80.629844" xlink:href="#m563ece6235" y="113.455769"/>
     <use style="stroke:#000000;" x="81.184425" xlink:href="#m563ece6235" y="115.218216"/>
     <use style="stroke:#000000;" x="82.134528" xlink:href="#m563ece6235" y="118.146124"/>
     <use style="stroke:#000000;" x="83.084637" xlink:href="#m563ece6235" y="120.964063"/>
     <use style="stroke:#000000;" x="83.74043" xlink:href="#m563ece6235" y="122.848149"/>
     <use style="stroke:#000000;" x="84.396229" xlink:href="#m563ece6235" y="124.684624"/>
     <use style="stroke:#000000;" x="85.052021" xlink:href="#m563ece6235" y="126.475274"/>
     <use style="stroke:#000000;" x="85.707814" xlink:href="#m563ece6235" y="128.22179"/>
     <use style="stroke:#000000;" x="86.363613" xlink:href="#m563ece6235" y="129.925787"/>
     <use style="stroke:#000000;" x="87.019406" xlink:href="#m563ece6235" y="131.588796"/>
     <use style="stroke:#000000;" x="87.675198" xlink:href="#m563ece6235" y="133.212281"/>
     <use style="stroke:#000000;" x="88.330997" xlink:href="#m563ece6235" y="134.797632"/>
     <use style="stroke:#000000;" x="89.380321" xlink:href="#m563ece6235" y="137.258294"/>
     <use style="stroke:#000000;" x="90.429644" xlink:href="#m563ece6235" y="139.629827"/>
     <use style="stroke:#000000;" x="91.207643" xlink:href="#m563ece6235" y="141.333425"/>
     <use style="stroke:#000000;" x="91.985641" xlink:href="#m563ece6235" y="142.992468"/>
     <use style="stroke:#000000;" x="92.76364" xlink:href="#m563ece6235" y="144.608682"/>
     <use style="stroke:#000000;" x="93.541639" xlink:href="#m563ece6235" y="146.183701"/>
     <use style="stroke:#000000;" x="94.319638" xlink:href="#m563ece6235" y="147.719086"/>
     <use style="stroke:#000000;" x="95.097636" xlink:href="#m563ece6235" y="149.21631"/>
     <use style="stroke:#000000;" x="95.875635" xlink:href="#m563ece6235" y="150.676779"/>
     <use style="stroke:#000000;" x="96.653634" xlink:href="#m563ece6235" y="152.101832"/>
     <use style="stroke:#000000;" x="97.431633" xlink:href="#m563ece6235" y="153.492739"/>
     <use style="stroke:#000000;" x="98.209631" xlink:href="#m563ece6235" y="154.850713"/>
     <use style="stroke:#000000;" x="98.98763" xlink:href="#m563ece6235" y="156.176914"/>
     <use style="stroke:#000000;" x="99.765629" xlink:href="#m563ece6235" y="157.47244"/>
     <use style="stroke:#000000;" x="100.543628" xlink:href="#m563ece6235" y="158.738344"/>
     <use style="stroke:#000000;" x="101.321627" xlink:href="#m563ece6235" y="159.975631"/>
     <use style="stroke:#000000;" x="102.099625" xlink:href="#m563ece6235" y="161.185261"/>
     <use style="stroke:#000000;" x="102.877624" xlink:href="#m563ece6235" y="162.36815"/>
     <use style="stroke:#000000;" x="103.655623" xlink:href="#m563ece6235" y="163.525176"/>
     <use style="stroke:#000000;" x="104.433622" xlink:href="#m563ece6235" y="164.657177"/>
     <use style="stroke:#000000;" x="105.21162" xlink:href="#m563ece6235" y="165.764956"/>
     <use style="stroke:#000000;" x="105.989613" xlink:href="#m563ece6235" y="166.849284"/>
     <use style="stroke:#000000;" x="106.767611" xlink:href="#m563ece6235" y="167.910896"/>
     <use style="stroke:#000000;" x="107.54561" xlink:href="#m563ece6235" y="168.950501"/>
     <use style="stroke:#000000;" x="108.715615" xlink:href="#m563ece6235" y="170.473964"/>
     <use style="stroke:#000000;" x="109.885614" xlink:href="#m563ece6235" y="171.951364"/>
     <use style="stroke:#000000;" x="111.055613" xlink:href="#m563ece6235" y="173.384762"/>
     <use style="stroke:#000000;" x="112.225611" xlink:href="#m563ece6235" y="174.776093"/>
     <use style="stroke:#000000;" x="113.39561" xlink:href="#m563ece6235" y="176.127185"/>
     <use style="stroke:#000000;" x="114.565609" xlink:href="#m563ece6235" y="177.439755"/>
     <use style="stroke:#000000;" x="115.735614" xlink:href="#m563ece6235" y="178.715427"/>
     <use style="stroke:#000000;" x="116.905613" xlink:href="#m563ece6235" y="179.95574"/>
     <use style="stroke:#000000;" x="118.075611" xlink:href="#m563ece6235" y="181.162141"/>
     <use style="stroke:#000000;" x="119.24561" xlink:href="#m563ece6235" y="182.336001"/>
     <use style="stroke:#000000;" x="120.415609" xlink:href="#m563ece6235" y="183.478621"/>
     <use style="stroke:#000000;" x="121.585614" xlink:href="#m563ece6235" y="184.59123"/>
     <use style="stroke:#000000;" x="122.755613" xlink:href="#m563ece6235" y="185.674996"/>
     <use style="stroke:#000000;" x="123.925611" xlink:href="#m563ece6235" y="186.731027"/>
     <use style="stroke:#000000;" x="125.09561" xlink:href="#m563ece6235" y="187.760375"/>
     <use style="stroke:#000000;" x="126.265609" xlink:href="#m563ece6235" y="188.764035"/>
     <use style="stroke:#000000;" x="127.435614" xlink:href="#m563ece6235" y="189.742959"/>
     <use style="stroke:#000000;" x="128.605613" xlink:href="#m563ece6235" y="190.698052"/>
     <use style="stroke:#000000;" x="129.775611" xlink:href="#m563ece6235" y="191.630172"/>
     <use style="stroke:#000000;" x="130.94561" xlink:href="#m563ece6235" y="192.540135"/>
     <use style="stroke:#000000;" x="132.115609" xlink:href="#m563ece6235" y="193.428728"/>
     <use style="stroke:#000000;" x="133.285607" xlink:href="#m563ece6235" y="194.296691"/>
     <use style="stroke:#000000;" x="134.455613" xlink:href="#m563ece6235" y="195.144734"/>
     <use style="stroke:#000000;" x="135.625611" xlink:href="#m563ece6235" y="195.973536"/>
     <use style="stroke:#000000;" x="136.79561" xlink:href="#m563ece6235" y="196.783745"/>
     <use style="stroke:#000000;" x="137.965609" xlink:href="#m563ece6235" y="197.57598"/>
     <use style="stroke:#000000;" x="139.135607" xlink:href="#m563ece6235" y="198.35083"/>
     <use style="stroke:#000000;" x="140.305612" xlink:href="#m563ece6235" y="199.108864"/>
     <use style="stroke:#000000;" x="141.475611" xlink:href="#m563ece6235" y="199.850623"/>
     <use style="stroke:#000000;" x="143.245177" xlink:href="#m563ece6235" y="200.942721"/>
     <use style="stroke:#000000;" x="145.014748" xlink:href="#m563ece6235" y="202.000469"/>
     <use style="stroke:#000000;" x="146.78432" xlink:href="#m563ece6235" y="203.025464"/>
     <use style="stroke:#000000;" x="148.553885" xlink:href="#m563ece6235" y="204.019205"/>
     <use style="stroke:#000000;" x="150.323457" xlink:href="#m563ece6235" y="204.983096"/>
     <use style="stroke:#000000;" x="152.093022" xlink:href="#m563ece6235" y="205.918467"/>
     <use style="stroke:#000000;" x="153.862594" xlink:href="#m563ece6235" y="206.826562"/>
     <use style="stroke:#000000;" x="155.632166" xlink:href="#m563ece6235" y="207.708557"/>
     <use style="stroke:#000000;" x="157.401731" xlink:href="#m563ece6235" y="208.565564"/>
     <use style="stroke:#000000;" x="159.171303" xlink:href="#m563ece6235" y="209.398628"/>
     <use style="stroke:#000000;" x="160.940868" xlink:href="#m563ece6235" y="210.208739"/>
     <use style="stroke:#000000;" x="162.71044" xlink:href="#m563ece6235" y="210.996831"/>
     <use style="stroke:#000000;" x="164.480012" xlink:href="#m563ece6235" y="211.763794"/>
     <use style="stroke:#000000;" x="166.249577" xlink:href="#m563ece6235" y="212.510461"/>
     <use style="stroke:#000000;" x="168.019149" xlink:href="#m563ece6235" y="213.237632"/>
     <use style="stroke:#000000;" x="169.788714" xlink:href="#m563ece6235" y="213.946058"/>
     <use style="stroke:#000000;" x="171.558286" xlink:href="#m563ece6235" y="214.636455"/>
     <use style="stroke:#000000;" x="173.327857" xlink:href="#m563ece6235" y="215.309501"/>
     <use style="stroke:#000000;" x="175.097423" xlink:href="#m563ece6235" y="215.965845"/>
     <use style="stroke:#000000;" x="176.866995" xlink:href="#m563ece6235" y="216.606101"/>
     <use style="stroke:#000000;" x="178.63656" xlink:href="#m563ece6235" y="217.230851"/>
     <use style="stroke:#000000;" x="180.406132" xlink:href="#m563ece6235" y="217.840655"/>
     <use style="stroke:#000000;" x="182.175697" xlink:href="#m563ece6235" y="218.436038"/>
     <use style="stroke:#000000;" x="183.945269" xlink:href="#m563ece6235" y="219.017509"/>
     <use style="stroke:#000000;" x="185.71484" xlink:href="#m563ece6235" y="219.585551"/>
     <use style="stroke:#000000;" x="187.484406" xlink:href="#m563ece6235" y="220.140621"/>
     <use style="stroke:#000000;" x="189.253977" xlink:href="#m563ece6235" y="220.68316"/>
     <use style="stroke:#000000;" x="191.023543" xlink:href="#m563ece6235" y="221.213584"/>
     <use style="stroke:#000000;" x="192.793114" xlink:href="#m563ece6235" y="221.732301"/>
     <use style="stroke:#000000;" x="195.474144" xlink:href="#m563ece6235" y="222.496735"/>
    </g>
   </g>
   <g id="line2d_14">
    <path clip-path="url(#pd07f8164bc)" d="M 66.376477 276.334125 
L 66.376835 276.233747 
L 66.396922 199.11251 
L 66.544131 60.408227 
L 66.647724 58.051791 
L 66.685315 58.133481 
L 66.939102 59.500033 
L 68.803526 69.478044 
L 70.894538 79.549688 
L 73.185749 89.458001 
L 75.505873 98.469102 
L 77.646902 106.001717 
L 80.024023 113.605295 
L 82.401143 120.51505 
L 84.778263 126.821646 
L 87.463011 133.313393 
L 90.147758 139.222416 
L 92.832505 144.623812 
L 95.517253 149.580355 
L 98.740642 155.017582 
L 102.019748 160.047474 
L 105.556349 164.981475 
L 109.092951 169.473271 
L 112.629552 173.580117 
L 115.879686 177.056024 
L 119.264206 180.406912 
L 122.648725 183.513539 
L 127.273288 187.410175 
L 131.220316 190.455758 
L 136.101355 193.910851 
L 141.014032 197.084242 
L 145.948959 200.004169 
L 150.402984 202.436646 
L 155.418486 204.971939 
L 162.105822 208.057741 
L 168.793158 210.851622 
L 175.480494 213.393894 
L 183.055071 216.011129 
L 190.732295 218.418178 
L 198.409519 220.611398 
L 208.645818 223.250323 
L 218.882117 225.611169 
L 229.118416 227.736213 
L 240.76366 229.909976 
L 252.667718 231.903749 
L 264.571777 233.700821 
L 280.443855 235.838258 
L 296.315934 237.727305 
L 312.188012 239.408779 
L 332.02811 241.267269 
L 353.886281 243.055981 
L 377.739816 244.755318 
L 389.666584 245.521587 
L 389.666584 245.521587 
" style="fill:none;stroke:#0000ff;stroke-linecap:square;stroke-width:1.5;"/>
   </g>
   <g id="line2d_15">
    <path clip-path="url(#pd07f8164bc)" d="M 66.376477 276.334125 
L 66.376857 276.219785 
L 66.397345 195.025681 
L 66.545618 52.852238 
L 66.651422 50.503638 
L 66.686723 50.572905 
L 66.915855 51.7118 
L 69.051566 62.458075 
L 71.398298 73.097105 
L 73.607087 82.13966 
L 75.761105 90.173434 
L 78.088582 98.09633 
L 80.4342 105.385601 
L 82.779817 112.064065 
L 85.125435 118.205257 
L 88.252925 125.663954 
L 91.265307 132.163557 
L 94.17663 137.892605 
L 97.167966 143.285223 
L 99.842631 147.732973 
L 103.174238 152.837703 
L 105.749803 156.489062 
L 109.478569 161.372937 
L 113.207335 165.836387 
L 115.693179 168.604729 
L 119.266916 172.324966 
L 123.761491 176.616657 
L 128.256065 180.53079 
L 132.75064 184.11574 
L 137.245215 187.411963 
L 141.73979 190.453551 
L 146.234365 193.269425 
L 150.728939 195.884278 
L 157.493517 199.486708 
L 164.258094 202.74158 
L 171.022671 205.697891 
L 177.787248 208.395772 
L 184.551825 210.868399 
L 191.316402 213.143439 
L 200.335838 215.909138 
L 209.355274 218.410082 
L 219.517031 220.956437 
L 229.678787 223.256235 
L 239.840543 225.3441 
L 250.0023 227.248354 
L 263.551308 229.541623 
L 277.100317 231.594751 
L 290.649325 233.443684 
L 304.246519 235.123114 
L 319.561431 236.833172 
L 339.981315 238.859764 
L 360.401198 240.643953 
L 380.821081 242.226465 
L 391.031023 242.952393 
L 391.031023 242.952393 
" style="fill:none;stroke:#ff0000;stroke-linecap:square;stroke-width:1.5;"/>
   </g>
   <g id="line2d_16">
    <path clip-path="url(#pd07f8164bc)" d="M 77.30236 34.414125 
L 77.85694 38.096731 
L 78.411521 41.682568 
L 78.966102 45.169397 
L 79.520682 48.565677 
L 80.075263 51.875582 
L 80.629844 55.099928 
L 81.184425 58.234029 
L 82.134528 63.228128 
L 83.084637 67.750491 
L 83.74043 70.779267 
L 84.396229 74.069504 
L 85.052021 77.202913 
L 85.707814 79.957591 
L 86.363613 82.632106 
L 87.019406 85.243297 
L 87.675198 87.798411 
L 88.330997 90.294063 
L 89.380321 94.151982 
L 90.429644 97.862114 
L 91.207643 100.53048 
L 91.985641 103.123045 
L 92.76364 105.635448 
L 93.541639 108.073791 
L 94.319638 110.315936 
L 95.097636 112.463874 
L 95.875635 114.560581 
L 96.653634 116.670484 
L 97.431633 118.617819 
L 98.209631 120.602577 
L 98.98763 122.513156 
L 99.765629 124.353636 
L 100.543628 126.128528 
L 101.321627 127.73287 
L 102.099625 129.433777 
L 102.877624 131.054658 
L 103.655623 132.772155 
L 104.433622 134.22674 
L 105.21162 135.789 
L 105.989613 137.219388 
L 106.767611 138.726372 
L 107.54561 140.057319 
L 108.715615 142.216027 
L 109.885614 144.172073 
L 111.055613 146.015038 
L 112.225611 147.991939 
L 113.39561 149.805221 
L 114.565609 151.500387 
L 115.735614 153.139129 
L 116.905613 154.731945 
L 118.075611 156.274576 
L 119.24561 157.746889 
L 120.415609 159.20088 
L 121.585614 160.4564 
L 122.755613 161.985918 
L 123.925611 163.300633 
L 125.09561 164.542446 
L 126.265609 165.750677 
L 127.435614 167.039569 
L 128.605613 168.160842 
L 129.775611 169.413941 
L 130.94561 170.480141 
L 132.115609 171.596817 
L 133.285607 172.657791 
L 134.455613 173.693183 
L 135.625611 174.622846 
L 136.79561 175.67941 
L 137.965609 176.584736 
L 139.135607 177.609587 
L 140.305612 178.493607 
L 141.475611 179.409118 
L 143.245177 180.799695 
L 145.014748 182.075541 
L 146.78432 183.336601 
L 148.553885 184.517936 
L 150.323457 185.65404 
L 152.093022 186.781235 
L 153.862594 187.904451 
L 155.632166 189.021387 
L 157.401731 190.049766 
L 159.171303 191.030341 
L 160.940868 192.004611 
L 162.71044 192.975775 
L 164.480012 193.938752 
L 166.249577 194.844593 
L 168.019149 195.689229 
L 169.788714 196.535918 
L 171.558286 197.381418 
L 173.327857 198.222086 
L 175.097423 199.028901 
L 176.866995 199.778019 
L 178.63656 200.527991 
L 180.406132 201.267206 
L 182.175697 201.987514 
L 183.945269 202.703495 
L 185.71484 203.408428 
L 187.484406 204.074938 
L 189.253977 204.726039 
L 191.023543 205.366585 
L 192.793114 206.003308 
L 195.474144 206.959913 
" style="fill:none;stroke:#0000ff;stroke-dasharray:5.55,2.4;stroke-dashoffset:0;stroke-width:1.5;"/>
   </g>
   <g id="line2d_17">
    <path clip-path="url(#pd07f8164bc)" d="M 77.30236 154.749325 
L 77.85694 155.546061 
L 78.411521 156.32619 
L 78.966102 157.093228 
L 79.520682 157.845117 
L 80.075263 158.581855 
L 80.629844 159.3051 
L 81.184425 160.016604 
L 82.134528 161.305455 
L 83.084637 162.708009 
L 83.74043 163.639713 
L 84.396229 164.362059 
L 85.052021 165.100396 
L 85.707814 166.003568 
L 86.363613 166.875988 
L 87.019406 167.730987 
L 87.675198 168.569635 
L 88.330997 169.392116 
L 89.380321 170.662825 
L 90.429644 171.892767 
L 91.207643 172.780317 
L 91.985641 173.649477 
L 92.76364 174.499352 
L 93.541639 175.331019 
L 94.319638 176.224599 
L 95.097636 177.12143 
L 95.875635 177.997513 
L 96.653634 178.817963 
L 97.431633 179.686975 
L 98.209631 180.481006 
L 98.98763 181.274702 
L 99.765629 182.067274 
L 100.543628 182.857559 
L 101.321627 183.71249 
L 102.099625 184.464569 
L 102.877624 185.227736 
L 103.655623 185.892304 
L 104.433622 186.685697 
L 105.21162 187.375684 
L 105.989613 188.114626 
L 106.767611 188.771501 
L 107.54561 189.507863 
L 108.715615 190.453259 
L 109.885614 191.462352 
L 111.055613 192.475806 
L 112.225611 193.339913 
L 113.39561 194.251546 
L 114.565609 195.178733 
L 115.735614 196.087425 
L 116.905613 196.974315 
L 118.075611 197.842745 
L 119.24561 198.707959 
L 120.415609 199.537014 
L 121.585614 200.450104 
L 122.755613 201.139856 
L 123.925611 201.928512 
L 125.09561 202.725586 
L 126.265609 203.505096 
L 127.435614 204.194239 
L 128.605613 204.956838 
L 129.775611 205.598309 
L 130.94561 206.328205 
L 132.115609 206.993749 
L 133.285607 207.663488 
L 134.455613 208.31967 
L 135.625611 209.016393 
L 136.79561 209.600559 
L 137.965609 210.257353 
L 139.135607 210.808308 
L 140.305612 211.426757 
L 141.475611 211.999523 
L 143.245177 212.815288 
L 145.014748 213.654261 
L 146.78432 214.452102 
L 148.553885 215.25544 
L 150.323457 216.04404 
L 152.093022 216.794123 
L 153.862594 217.503032 
L 155.632166 218.175898 
L 157.401731 218.869177 
L 159.171303 219.557328 
L 160.940868 220.214206 
L 162.71044 220.83911 
L 164.480012 221.436743 
L 166.249577 222.040978 
L 168.019149 222.655734 
L 169.788714 223.240014 
L 171.558286 223.797087 
L 173.327857 224.330402 
L 175.097423 224.860252 
L 176.866995 225.403449 
L 178.63656 225.921899 
L 180.406132 226.424191 
L 182.175697 226.91134 
L 183.945269 227.384449 
L 185.71484 227.847853 
L 187.484406 228.309028 
L 189.253977 228.763317 
L 191.023543 229.209299 
L 192.793114 229.635496 
L 195.474144 230.255133 
" style="fill:none;stroke:#0000ff;stroke-dasharray:5.55,2.4;stroke-dashoffset:0;stroke-width:1.5;"/>
   </g>
   <g id="line2d_18"/>
   <g id="line2d_19"/>
   <g id="line2d_20"/>
   <g id="line2d_21"/>
   <g id="line2d_22"/>
   <g id="line2d_23"/>
   <g id="line2d_24"/>
   <g id="patch_3">
    <path d="M 50.14375 288.430125 
L 50.14375 22.318125 
" style="fill:none;stroke:#000000;stroke-linecap:square;stroke-linejoin:miter;stroke-width:0.8;"/>
   </g>
   <g id="patch_4">
    <path d="M 407.26375 288.430125 
L 407.26375 22.318125 
" style="fill:none;stroke:#000000;stroke-linecap:square;stroke-linejoin:miter;stroke-width:0.8;"/>
   </g>
   <g id="patch_5">
    <path d="M 50.14375 288.430125 
L 407.26375 288.430125 
" style="fill:none;stroke:#000000;stroke-linecap:square;stroke-linejoin:miter;stroke-width:0.8;"/>
   </g>
   <g id="patch_6">
    <path d="M 50.14375 22.318125 
L 407.26375 22.318125 
" style="fill:none;stroke:#000000;stroke-linecap:square;stroke-linejoin:miter;stroke-width:0.8;"/>
   </g>
   <g id="text_15">
    <!-- Experiment_69 -->
    <g transform="translate(183.400937 16.318125)scale(0.12 -0.12)">
     <defs>
      <path d="M 9.8125 72.90625 
L 55.90625 72.90625 
L 55.90625 64.59375 
L 19.671875 64.59375 
L 19.671875 43.015625 
L 54.390625 43.015625 
L 54.390625 34.71875 
L 19.671875 34.71875 
L 19.671875 8.296875 
L 56.78125 8.296875 
L 56.78125 0 
L 9.8125 0 
z
" id="DejaVuSans-69"/>
      <path d="M 54.890625 54.6875 
L 35.109375 28.078125 
L 55.90625 0 
L 45.3125 0 
L 29.390625 21.484375 
L 13.484375 0 
L 2.875 0 
L 24.125 28.609375 
L 4.6875 54.6875 
L 15.28125 54.6875 
L 29.78125 35.203125 
L 44.28125 54.6875 
z
" id="DejaVuSans-120"/>
      <path d="M 18.109375 8.203125 
L 18.109375 -20.796875 
L 9.078125 -20.796875 
L 9.078125 54.6875 
L 18.109375 54.6875 
L 18.109375 46.390625 
Q 20.953125 51.265625 25.265625 53.625 
Q 29.59375 56 35.59375 56 
Q 45.5625 56 51.78125 48.09375 
Q 58.015625 40.1875 58.015625 27.296875 
Q 58.015625 14.40625 51.78125 6.484375 
Q 45.5625 -1.421875 35.59375 -1.421875 
Q 29.59375 -1.421875 25.265625 0.953125 
Q 20.953125 3.328125 18.109375 8.203125 
z
M 48.6875 27.296875 
Q 48.6875 37.203125 44.609375 42.84375 
Q 40.53125 48.484375 33.40625 48.484375 
Q 26.265625 48.484375 22.1875 42.84375 
Q 18.109375 37.203125 18.109375 27.296875 
Q 18.109375 17.390625 22.1875 11.75 
Q 26.265625 6.109375 33.40625 6.109375 
Q 40.53125 6.109375 44.609375 11.75 
Q 48.6875 17.390625 48.6875 27.296875 
z
" id="DejaVuSans-112"/>
      <path d="M 18.3125 70.21875 
L 18.3125 54.6875 
L 36.8125 54.6875 
L 36.8125 47.703125 
L 18.3125 47.703125 
L 18.3125 18.015625 
Q 18.3125 11.328125 20.140625 9.421875 
Q 21.96875 7.515625 27.59375 7.515625 
L 36.8125 7.515625 
L 36.8125 0 
L 27.59375 0 
Q 17.1875 0 13.234375 3.875 
Q 9.28125 7.765625 9.28125 18.015625 
L 9.28125 47.703125 
L 2.6875 47.703125 
L 2.6875 54.6875 
L 9.28125 54.6875 
L 9.28125 70.21875 
z
" id="DejaVuSans-116"/>
      <path d="M 50.984375 -16.609375 
L 50.984375 -23.578125 
L -0.984375 -23.578125 
L -0.984375 -16.609375 
z
" id="DejaVuSans-95"/>
      <path d="M 10.984375 1.515625 
L 10.984375 10.5 
Q 14.703125 8.734375 18.5 7.8125 
Q 22.3125 6.890625 25.984375 6.890625 
Q 35.75 6.890625 40.890625 13.453125 
Q 46.046875 20.015625 46.78125 33.40625 
Q 43.953125 29.203125 39.59375 26.953125 
Q 35.25 24.703125 29.984375 24.703125 
Q 19.046875 24.703125 12.671875 31.3125 
Q 6.296875 37.9375 6.296875 49.421875 
Q 6.296875 60.640625 12.9375 67.421875 
Q 19.578125 74.21875 30.609375 74.21875 
Q 43.265625 74.21875 49.921875 64.515625 
Q 56.59375 54.828125 56.59375 36.375 
Q 56.59375 19.140625 48.40625 8.859375 
Q 40.234375 -1.421875 26.421875 -1.421875 
Q 22.703125 -1.421875 18.890625 -0.6875 
Q 15.09375 0.046875 10.984375 1.515625 
z
M 30.609375 32.421875 
Q 37.25 32.421875 41.125 36.953125 
Q 45.015625 41.5 45.015625 49.421875 
Q 45.015625 57.28125 41.125 61.84375 
Q 37.25 66.40625 30.609375 66.40625 
Q 23.96875 66.40625 20.09375 61.84375 
Q 16.21875 57.28125 16.21875 49.421875 
Q 16.21875 41.5 20.09375 36.953125 
Q 23.96875 32.421875 30.609375 32.421875 
z
" id="DejaVuSans-57"/>
     </defs>
     <use xlink:href="#DejaVuSans-69"/>
     <use x="63.183594" xlink:href="#DejaVuSans-120"/>
     <use x="122.363281" xlink:href="#DejaVuSans-112"/>
     <use x="185.839844" xlink:href="#DejaVuSans-101"/>
     <use x="247.363281" xlink:href="#DejaVuSans-114"/>
     <use x="288.476562" xlink:href="#DejaVuSans-105"/>
     <use x="316.259766" xlink:href="#DejaVuSans-109"/>
     <use x="413.671875" xlink:href="#DejaVuSans-101"/>
     <use x="475.195312" xlink:href="#DejaVuSans-110"/>
     <use x="538.574219" xlink:href="#DejaVuSans-116"/>
     <use x="577.783203" xlink:href="#DejaVuSans-95"/>
     <use x="627.783203" xlink:href="#DejaVuSans-54"/>
     <use x="691.40625" xlink:href="#DejaVuSans-57"/>
    </g>
   </g>
   <g id="legend_1">
    <g id="patch_7">
     <path d="M 57.14375 283.430125 
L 404.117188 283.430125 
Q 406.117188 283.430125 406.117188 281.430125 
L 406.117188 209.017625 
Q 406.117188 207.017625 404.117188 207.017625 
L 57.14375 207.017625 
Q 55.14375 207.017625 55.14375 209.017625 
L 55.14375 281.430125 
Q 55.14375 283.430125 57.14375 283.430125 
z
" style="fill:#ffffff;opacity:0.8;stroke:#cccccc;stroke-linejoin:miter;"/>
    </g>
    <g id="line2d_25"/>
    <g id="line2d_26">
     <g>
      <use style="stroke:#000000;" x="69.14375" xlink:href="#m563ece6235" y="215.116062"/>
     </g>
    </g>
    <g id="text_16">
     <!-- Experimental Data -->
     <g transform="translate(87.14375 218.616062)scale(0.1 -0.1)">
      <defs>
       <path d="M 9.421875 75.984375 
L 18.40625 75.984375 
L 18.40625 0 
L 9.421875 0 
z
" id="DejaVuSans-108"/>
       <path d="M 19.671875 64.796875 
L 19.671875 8.109375 
L 31.59375 8.109375 
Q 46.6875 8.109375 53.6875 14.9375 
Q 60.6875 21.78125 60.6875 36.53125 
Q 60.6875 51.171875 53.6875 57.984375 
Q 46.6875 64.796875 31.59375 64.796875 
z
M 9.8125 72.90625 
L 30.078125 72.90625 
Q 51.265625 72.90625 61.171875 64.09375 
Q 71.09375 55.28125 71.09375 36.53125 
Q 71.09375 17.671875 61.125 8.828125 
Q 51.171875 0 30.078125 0 
L 9.8125 0 
z
" id="DejaVuSans-68"/>
      </defs>
      <use xlink:href="#DejaVuSans-69"/>
      <use x="63.183594" xlink:href="#DejaVuSans-120"/>
      <use x="122.363281" xlink:href="#DejaVuSans-112"/>
      <use x="185.839844" xlink:href="#DejaVuSans-101"/>
      <use x="247.363281" xlink:href="#DejaVuSans-114"/>
      <use x="288.476562" xlink:href="#DejaVuSans-105"/>
      <use x="316.259766" xlink:href="#DejaVuSans-109"/>
      <use x="413.671875" xlink:href="#DejaVuSans-101"/>
      <use x="475.195312" xlink:href="#DejaVuSans-110"/>
      <use x="538.574219" xlink:href="#DejaVuSans-116"/>
      <use x="577.783203" xlink:href="#DejaVuSans-97"/>
      <use x="639.0625" xlink:href="#DejaVuSans-108"/>
      <use x="666.845703" xlink:href="#DejaVuSans-32"/>
      <use x="698.632812" xlink:href="#DejaVuSans-68"/>
      <use x="775.634766" xlink:href="#DejaVuSans-97"/>
      <use x="836.914062" xlink:href="#DejaVuSans-116"/>
      <use x="876.123047" xlink:href="#DejaVuSans-97"/>
     </g>
    </g>
    <g id="line2d_27">
     <path d="M 59.14375 229.794187 
L 79.14375 229.794187 
" style="fill:none;stroke:#0000ff;stroke-linecap:square;stroke-width:1.5;"/>
    </g>
    <g id="line2d_28"/>
    <g id="text_17">
     <!-- MSI -->
     <g transform="translate(87.14375 233.294187)scale(0.1 -0.1)">
      <defs>
       <path d="M 9.8125 72.90625 
L 24.515625 72.90625 
L 43.109375 23.296875 
L 61.8125 72.90625 
L 76.515625 72.90625 
L 76.515625 0 
L 66.890625 0 
L 66.890625 64.015625 
L 48.09375 14.015625 
L 38.1875 14.015625 
L 19.390625 64.015625 
L 19.390625 0 
L 9.8125 0 
z
" id="DejaVuSans-77"/>
       <path d="M 53.515625 70.515625 
L 53.515625 60.890625 
Q 47.90625 63.578125 42.921875 64.890625 
Q 37.9375 66.21875 33.296875 66.21875 
Q 25.25 66.21875 20.875 63.09375 
Q 16.5 59.96875 16.5 54.203125 
Q 16.5 49.359375 19.40625 46.890625 
Q 22.3125 44.4375 30.421875 42.921875 
L 36.375 41.703125 
Q 47.40625 39.59375 52.65625 34.296875 
Q 57.90625 29 57.90625 20.125 
Q 57.90625 9.515625 50.796875 4.046875 
Q 43.703125 -1.421875 29.984375 -1.421875 
Q 24.8125 -1.421875 18.96875 -0.25 
Q 13.140625 0.921875 6.890625 3.21875 
L 6.890625 13.375 
Q 12.890625 10.015625 18.65625 8.296875 
Q 24.421875 6.59375 29.984375 6.59375 
Q 38.421875 6.59375 43.015625 9.90625 
Q 47.609375 13.234375 47.609375 19.390625 
Q 47.609375 24.75 44.3125 27.78125 
Q 41.015625 30.8125 33.5 32.328125 
L 27.484375 33.5 
Q 16.453125 35.6875 11.515625 40.375 
Q 6.59375 45.0625 6.59375 53.421875 
Q 6.59375 63.09375 13.40625 68.65625 
Q 20.21875 74.21875 32.171875 74.21875 
Q 37.3125 74.21875 42.625 73.28125 
Q 47.953125 72.359375 53.515625 70.515625 
z
" id="DejaVuSans-83"/>
       <path d="M 9.8125 72.90625 
L 19.671875 72.90625 
L 19.671875 0 
L 9.8125 0 
z
" id="DejaVuSans-73"/>
      </defs>
      <use xlink:href="#DejaVuSans-77"/>
      <use x="86.279297" xlink:href="#DejaVuSans-83"/>
      <use x="149.755859" xlink:href="#DejaVuSans-73"/>
     </g>
    </g>
    <g id="line2d_29">
     <path d="M 59.14375 244.473875 
L 79.14375 244.473875 
" style="fill:none;stroke:#ff0000;stroke-linecap:square;stroke-width:1.5;"/>
    </g>
    <g id="line2d_30"/>
    <g id="text_18">
     <!-- $\it{A priori}$ model -->
     <g transform="translate(87.14375 247.973875)scale(0.1 -0.1)">
      <defs>
       <path d="M 36.8125 72.90625 
L 48 72.90625 
L 61.53125 0 
L 51.21875 0 
L 48.1875 18.703125 
L 15.375 18.703125 
L 5.078125 0 
L -5.328125 0 
z
M 40.375 63.1875 
L 19.921875 26.90625 
L 46.6875 26.90625 
z
" id="DejaVuSans-Oblique-65"/>
       <path d="M 49.609375 33.6875 
Q 49.609375 40.875 46.484375 44.671875 
Q 43.359375 48.484375 37.5 48.484375 
Q 33.5 48.484375 29.859375 46.4375 
Q 26.21875 44.390625 23.390625 40.484375 
Q 20.609375 36.625 18.9375 31.15625 
Q 17.28125 25.6875 17.28125 20.3125 
Q 17.28125 13.484375 20.40625 9.796875 
Q 23.53125 6.109375 29.296875 6.109375 
Q 33.546875 6.109375 37.1875 8.109375 
Q 40.828125 10.109375 43.40625 13.921875 
Q 46.1875 17.921875 47.890625 23.34375 
Q 49.609375 28.765625 49.609375 33.6875 
z
M 21.78125 46.390625 
Q 25.390625 51.125 30.296875 53.5625 
Q 35.203125 56 41.21875 56 
Q 49.609375 56 54.25 50.5 
Q 58.890625 45.015625 58.890625 35.109375 
Q 58.890625 27 56 19.65625 
Q 53.125 12.3125 47.703125 6.5 
Q 44.09375 2.640625 39.546875 0.609375 
Q 35.015625 -1.421875 29.984375 -1.421875 
Q 24.171875 -1.421875 20.21875 1 
Q 16.265625 3.421875 14.3125 8.203125 
L 8.6875 -20.796875 
L -0.296875 -20.796875 
L 14.40625 54.6875 
L 23.390625 54.6875 
z
" id="DejaVuSans-Oblique-112"/>
       <path d="M 44.578125 46.390625 
Q 43.21875 47.125 41.453125 47.515625 
Q 39.703125 47.90625 37.703125 47.90625 
Q 30.515625 47.90625 25.140625 42.453125 
Q 19.78125 37.015625 18.015625 27.875 
L 12.5 0 
L 3.515625 0 
L 14.203125 54.6875 
L 23.1875 54.6875 
L 21.484375 46.1875 
Q 25.046875 50.921875 30 53.453125 
Q 34.96875 56 40.578125 56 
Q 42.046875 56 43.453125 55.828125 
Q 44.875 55.671875 46.296875 55.28125 
z
" id="DejaVuSans-Oblique-114"/>
       <path d="M 18.3125 75.984375 
L 27.296875 75.984375 
L 25.09375 64.59375 
L 16.109375 64.59375 
z
M 14.203125 54.6875 
L 23.1875 54.6875 
L 12.5 0 
L 3.515625 0 
z
" id="DejaVuSans-Oblique-105"/>
       <path d="M 25.390625 -1.421875 
Q 15.765625 -1.421875 10.171875 4.515625 
Q 4.59375 10.453125 4.59375 20.703125 
Q 4.59375 26.65625 6.515625 32.828125 
Q 8.453125 39.015625 11.53125 43.21875 
Q 16.359375 49.75 22.3125 52.875 
Q 28.265625 56 35.796875 56 
Q 45.125 56 50.859375 50.1875 
Q 56.59375 44.390625 56.59375 35.015625 
Q 56.59375 28.515625 54.6875 22.0625 
Q 52.78125 15.625 49.703125 11.375 
Q 44.921875 4.828125 38.96875 1.703125 
Q 33.015625 -1.421875 25.390625 -1.421875 
z
M 13.921875 21 
Q 13.921875 13.578125 17.015625 9.890625 
Q 20.125 6.203125 26.421875 6.203125 
Q 35.453125 6.203125 41.375 14.078125 
Q 47.3125 21.96875 47.3125 34.078125 
Q 47.3125 41.15625 44.140625 44.765625 
Q 40.96875 48.390625 34.8125 48.390625 
Q 29.734375 48.390625 25.78125 46.015625 
Q 21.828125 43.65625 18.703125 38.8125 
Q 16.40625 35.203125 15.15625 30.5625 
Q 13.921875 25.921875 13.921875 21 
z
" id="DejaVuSans-Oblique-111"/>
       <path d="M 45.40625 46.390625 
L 45.40625 75.984375 
L 54.390625 75.984375 
L 54.390625 0 
L 45.40625 0 
L 45.40625 8.203125 
Q 42.578125 3.328125 38.25 0.953125 
Q 33.9375 -1.421875 27.875 -1.421875 
Q 17.96875 -1.421875 11.734375 6.484375 
Q 5.515625 14.40625 5.515625 27.296875 
Q 5.515625 40.1875 11.734375 48.09375 
Q 17.96875 56 27.875 56 
Q 33.9375 56 38.25 53.625 
Q 42.578125 51.265625 45.40625 46.390625 
z
M 14.796875 27.296875 
Q 14.796875 17.390625 18.875 11.75 
Q 22.953125 6.109375 30.078125 6.109375 
Q 37.203125 6.109375 41.296875 11.75 
Q 45.40625 17.390625 45.40625 27.296875 
Q 45.40625 37.203125 41.296875 42.84375 
Q 37.203125 48.484375 30.078125 48.484375 
Q 22.953125 48.484375 18.875 42.84375 
Q 14.796875 37.203125 14.796875 27.296875 
z
" id="DejaVuSans-100"/>
      </defs>
      <use transform="translate(0 0.015625)" xlink:href="#DejaVuSans-Oblique-65"/>
      <use transform="translate(68.408203 0.015625)" xlink:href="#DejaVuSans-Oblique-112"/>
      <use transform="translate(131.884766 0.015625)" xlink:href="#DejaVuSans-Oblique-114"/>
      <use transform="translate(172.998047 0.015625)" xlink:href="#DejaVuSans-Oblique-105"/>
      <use transform="translate(200.78125 0.015625)" xlink:href="#DejaVuSans-Oblique-111"/>
      <use transform="translate(261.962891 0.015625)" xlink:href="#DejaVuSans-Oblique-114"/>
      <use transform="translate(303.076172 0.015625)" xlink:href="#DejaVuSans-Oblique-105"/>
      <use transform="translate(330.859375 0.015625)" xlink:href="#DejaVuSans-32"/>
      <use transform="translate(362.646484 0.015625)" xlink:href="#DejaVuSans-109"/>
      <use transform="translate(460.058594 0.015625)" xlink:href="#DejaVuSans-111"/>
      <use transform="translate(521.240234 0.015625)" xlink:href="#DejaVuSans-100"/>
      <use transform="translate(584.716797 0.015625)" xlink:href="#DejaVuSans-101"/>
      <use transform="translate(646.240234 0.015625)" xlink:href="#DejaVuSans-108"/>
     </g>
    </g>
    <g id="line2d_31">
     <path d="M 59.14375 259.172312 
L 79.14375 259.172312 
" style="fill:none;stroke:#ffffff;stroke-linecap:square;stroke-width:1.5;"/>
    </g>
    <g id="line2d_32"/>
    <g id="text_19">
     <!-- T:298.0 -->
     <g transform="translate(87.14375 262.672312)scale(0.1 -0.1)">
      <defs>
       <path d="M 11.71875 12.40625 
L 22.015625 12.40625 
L 22.015625 0 
L 11.71875 0 
z
M 11.71875 51.703125 
L 22.015625 51.703125 
L 22.015625 39.3125 
L 11.71875 39.3125 
z
" id="DejaVuSans-58"/>
      </defs>
      <use xlink:href="#DejaVuSans-84"/>
      <use x="50.083984" xlink:href="#DejaVuSans-58"/>
      <use x="83.775391" xlink:href="#DejaVuSans-50"/>
      <use x="147.398438" xlink:href="#DejaVuSans-57"/>
      <use x="211.021484" xlink:href="#DejaVuSans-56"/>
      <use x="274.644531" xlink:href="#DejaVuSans-46"/>
      <use x="306.431641" xlink:href="#DejaVuSans-48"/>
     </g>
    </g>
    <g id="line2d_33">
     <path d="M 59.14375 273.850437 
L 79.14375 273.850437 
" style="fill:none;stroke:#ffffff;stroke-linecap:square;stroke-width:1.5;"/>
    </g>
    <g id="line2d_34"/>
    <g id="text_20">
     <!-- P:0.131578947 -->
     <g transform="translate(87.14375 277.350437)scale(0.1 -0.1)">
      <defs>
       <path d="M 19.671875 64.796875 
L 19.671875 37.40625 
L 32.078125 37.40625 
Q 38.96875 37.40625 42.71875 40.96875 
Q 46.484375 44.53125 46.484375 51.125 
Q 46.484375 57.671875 42.71875 61.234375 
Q 38.96875 64.796875 32.078125 64.796875 
z
M 9.8125 72.90625 
L 32.078125 72.90625 
Q 44.34375 72.90625 50.609375 67.359375 
Q 56.890625 61.8125 56.890625 51.125 
Q 56.890625 40.328125 50.609375 34.8125 
Q 44.34375 29.296875 32.078125 29.296875 
L 19.671875 29.296875 
L 19.671875 0 
L 9.8125 0 
z
" id="DejaVuSans-80"/>
      </defs>
      <use xlink:href="#DejaVuSans-80"/>
      <use x="60.302734" xlink:href="#DejaVuSans-58"/>
      <use x="93.994141" xlink:href="#DejaVuSans-48"/>
      <use x="157.617188" xlink:href="#DejaVuSans-46"/>
      <use x="189.404297" xlink:href="#DejaVuSans-49"/>
      <use x="253.027344" xlink:href="#DejaVuSans-51"/>
      <use x="316.650391" xlink:href="#DejaVuSans-49"/>
      <use x="380.273438" xlink:href="#DejaVuSans-53"/>
      <use x="443.896484" xlink:href="#DejaVuSans-55"/>
      <use x="507.519531" xlink:href="#DejaVuSans-56"/>
      <use x="571.142578" xlink:href="#DejaVuSans-57"/>
      <use x="634.765625" xlink:href="#DejaVuSans-52"/>
      <use x="698.388672" xlink:href="#DejaVuSans-55"/>
     </g>
    </g>
    <g id="line2d_35">
     <path d="M 200.884375 215.116062 
L 220.884375 215.116062 
" style="fill:none;stroke:#ffffff;stroke-linecap:square;stroke-width:1.5;"/>
    </g>
    <g id="line2d_36"/>
    <g id="text_21">
     <!-- Cl: 1.62e-05 -->
     <g transform="translate(228.884375 218.616062)scale(0.1 -0.1)">
      <defs>
       <path d="M 64.40625 67.28125 
L 64.40625 56.890625 
Q 59.421875 61.53125 53.78125 63.8125 
Q 48.140625 66.109375 41.796875 66.109375 
Q 29.296875 66.109375 22.65625 58.46875 
Q 16.015625 50.828125 16.015625 36.375 
Q 16.015625 21.96875 22.65625 14.328125 
Q 29.296875 6.6875 41.796875 6.6875 
Q 48.140625 6.6875 53.78125 8.984375 
Q 59.421875 11.28125 64.40625 15.921875 
L 64.40625 5.609375 
Q 59.234375 2.09375 53.4375 0.328125 
Q 47.65625 -1.421875 41.21875 -1.421875 
Q 24.65625 -1.421875 15.125 8.703125 
Q 5.609375 18.84375 5.609375 36.375 
Q 5.609375 53.953125 15.125 64.078125 
Q 24.65625 74.21875 41.21875 74.21875 
Q 47.75 74.21875 53.53125 72.484375 
Q 59.328125 70.75 64.40625 67.28125 
z
" id="DejaVuSans-67"/>
       <path d="M 4.890625 31.390625 
L 31.203125 31.390625 
L 31.203125 23.390625 
L 4.890625 23.390625 
z
" id="DejaVuSans-45"/>
      </defs>
      <use xlink:href="#DejaVuSans-67"/>
      <use x="69.824219" xlink:href="#DejaVuSans-108"/>
      <use x="97.607422" xlink:href="#DejaVuSans-58"/>
      <use x="131.298828" xlink:href="#DejaVuSans-32"/>
      <use x="163.085938" xlink:href="#DejaVuSans-49"/>
      <use x="226.708984" xlink:href="#DejaVuSans-46"/>
      <use x="258.496094" xlink:href="#DejaVuSans-54"/>
      <use x="322.119141" xlink:href="#DejaVuSans-50"/>
      <use x="385.742188" xlink:href="#DejaVuSans-101"/>
      <use x="447.265625" xlink:href="#DejaVuSans-45"/>
      <use x="483.349609" xlink:href="#DejaVuSans-48"/>
      <use x="546.972656" xlink:href="#DejaVuSans-53"/>
     </g>
    </g>
    <g id="line2d_37">
     <path d="M 200.884375 229.794187 
L 220.884375 229.794187 
" style="fill:none;stroke:#ffffff;stroke-linecap:square;stroke-width:1.5;"/>
    </g>
    <g id="line2d_38"/>
    <g id="text_22">
     <!-- Cl2: 0.002545447813691732 -->
     <g transform="translate(228.884375 233.294187)scale(0.1 -0.1)">
      <use xlink:href="#DejaVuSans-67"/>
      <use x="69.824219" xlink:href="#DejaVuSans-108"/>
      <use x="97.607422" xlink:href="#DejaVuSans-50"/>
      <use x="161.230469" xlink:href="#DejaVuSans-58"/>
      <use x="194.921875" xlink:href="#DejaVuSans-32"/>
      <use x="226.708984" xlink:href="#DejaVuSans-48"/>
      <use x="290.332031" xlink:href="#DejaVuSans-46"/>
      <use x="322.119141" xlink:href="#DejaVuSans-48"/>
      <use x="385.742188" xlink:href="#DejaVuSans-48"/>
      <use x="449.365234" xlink:href="#DejaVuSans-50"/>
      <use x="512.988281" xlink:href="#DejaVuSans-53"/>
      <use x="576.611328" xlink:href="#DejaVuSans-52"/>
      <use x="640.234375" xlink:href="#DejaVuSans-53"/>
      <use x="703.857422" xlink:href="#DejaVuSans-52"/>
      <use x="767.480469" xlink:href="#DejaVuSans-52"/>
      <use x="831.103516" xlink:href="#DejaVuSans-55"/>
      <use x="894.726562" xlink:href="#DejaVuSans-56"/>
      <use x="958.349609" xlink:href="#DejaVuSans-49"/>
      <use x="1021.972656" xlink:href="#DejaVuSans-51"/>
      <use x="1085.595703" xlink:href="#DejaVuSans-54"/>
      <use x="1149.21875" xlink:href="#DejaVuSans-57"/>
      <use x="1212.841797" xlink:href="#DejaVuSans-49"/>
      <use x="1276.464844" xlink:href="#DejaVuSans-55"/>
      <use x="1340.087891" xlink:href="#DejaVuSans-51"/>
      <use x="1403.710938" xlink:href="#DejaVuSans-50"/>
     </g>
    </g>
    <g id="line2d_39">
     <path d="M 200.884375 244.472312 
L 220.884375 244.472312 
" style="fill:none;stroke:#ffffff;stroke-linecap:square;stroke-width:1.5;"/>
    </g>
    <g id="line2d_40"/>
    <g id="text_23">
     <!-- CH3OH: 0.0009256173867969936 -->
     <g transform="translate(228.884375 247.972312)scale(0.1 -0.1)">
      <defs>
       <path d="M 9.8125 72.90625 
L 19.671875 72.90625 
L 19.671875 43.015625 
L 55.515625 43.015625 
L 55.515625 72.90625 
L 65.375 72.90625 
L 65.375 0 
L 55.515625 0 
L 55.515625 34.71875 
L 19.671875 34.71875 
L 19.671875 0 
L 9.8125 0 
z
" id="DejaVuSans-72"/>
       <path d="M 39.40625 66.21875 
Q 28.65625 66.21875 22.328125 58.203125 
Q 16.015625 50.203125 16.015625 36.375 
Q 16.015625 22.609375 22.328125 14.59375 
Q 28.65625 6.59375 39.40625 6.59375 
Q 50.140625 6.59375 56.421875 14.59375 
Q 62.703125 22.609375 62.703125 36.375 
Q 62.703125 50.203125 56.421875 58.203125 
Q 50.140625 66.21875 39.40625 66.21875 
z
M 39.40625 74.21875 
Q 54.734375 74.21875 63.90625 63.9375 
Q 73.09375 53.65625 73.09375 36.375 
Q 73.09375 19.140625 63.90625 8.859375 
Q 54.734375 -1.421875 39.40625 -1.421875 
Q 24.03125 -1.421875 14.8125 8.828125 
Q 5.609375 19.09375 5.609375 36.375 
Q 5.609375 53.65625 14.8125 63.9375 
Q 24.03125 74.21875 39.40625 74.21875 
z
" id="DejaVuSans-79"/>
      </defs>
      <use xlink:href="#DejaVuSans-67"/>
      <use x="69.824219" xlink:href="#DejaVuSans-72"/>
      <use x="145.019531" xlink:href="#DejaVuSans-51"/>
      <use x="208.642578" xlink:href="#DejaVuSans-79"/>
      <use x="287.353516" xlink:href="#DejaVuSans-72"/>
      <use x="362.548828" xlink:href="#DejaVuSans-58"/>
      <use x="396.240234" xlink:href="#DejaVuSans-32"/>
      <use x="428.027344" xlink:href="#DejaVuSans-48"/>
      <use x="491.650391" xlink:href="#DejaVuSans-46"/>
      <use x="523.4375" xlink:href="#DejaVuSans-48"/>
      <use x="587.060547" xlink:href="#DejaVuSans-48"/>
      <use x="650.683594" xlink:href="#DejaVuSans-48"/>
      <use x="714.306641" xlink:href="#DejaVuSans-57"/>
      <use x="777.929688" xlink:href="#DejaVuSans-50"/>
      <use x="841.552734" xlink:href="#DejaVuSans-53"/>
      <use x="905.175781" xlink:href="#DejaVuSans-54"/>
      <use x="968.798828" xlink:href="#DejaVuSans-49"/>
      <use x="1032.421875" xlink:href="#DejaVuSans-55"/>
      <use x="1096.044922" xlink:href="#DejaVuSans-51"/>
      <use x="1159.667969" xlink:href="#DejaVuSans-56"/>
      <use x="1223.291016" xlink:href="#DejaVuSans-54"/>
      <use x="1286.914062" xlink:href="#DejaVuSans-55"/>
      <use x="1350.537109" xlink:href="#DejaVuSans-57"/>
      <use x="1414.160156" xlink:href="#DejaVuSans-54"/>
      <use x="1477.783203" xlink:href="#DejaVuSans-57"/>
      <use x="1541.40625" xlink:href="#DejaVuSans-57"/>
      <use x="1605.029297" xlink:href="#DejaVuSans-51"/>
      <use x="1668.652344" xlink:href="#DejaVuSans-54"/>
     </g>
    </g>
    <g id="line2d_41">
     <path d="M 200.884375 259.150437 
L 220.884375 259.150437 
" style="fill:none;stroke:#ffffff;stroke-linecap:square;stroke-width:1.5;"/>
    </g>
    <g id="line2d_42"/>
    <g id="text_24">
     <!-- O2: 0.08484826045639109 -->
     <g transform="translate(228.884375 262.650437)scale(0.1 -0.1)">
      <use xlink:href="#DejaVuSans-79"/>
      <use x="78.710938" xlink:href="#DejaVuSans-50"/>
      <use x="142.333984" xlink:href="#DejaVuSans-58"/>
      <use x="176.025391" xlink:href="#DejaVuSans-32"/>
      <use x="207.8125" xlink:href="#DejaVuSans-48"/>
      <use x="271.435547" xlink:href="#DejaVuSans-46"/>
      <use x="303.222656" xlink:href="#DejaVuSans-48"/>
      <use x="366.845703" xlink:href="#DejaVuSans-56"/>
      <use x="430.46875" xlink:href="#DejaVuSans-52"/>
      <use x="494.091797" xlink:href="#DejaVuSans-56"/>
      <use x="557.714844" xlink:href="#DejaVuSans-52"/>
      <use x="621.337891" xlink:href="#DejaVuSans-56"/>
      <use x="684.960938" xlink:href="#DejaVuSans-50"/>
      <use x="748.583984" xlink:href="#DejaVuSans-54"/>
      <use x="812.207031" xlink:href="#DejaVuSans-48"/>
      <use x="875.830078" xlink:href="#DejaVuSans-52"/>
      <use x="939.453125" xlink:href="#DejaVuSans-53"/>
      <use x="1003.076172" xlink:href="#DejaVuSans-54"/>
      <use x="1066.699219" xlink:href="#DejaVuSans-51"/>
      <use x="1130.322266" xlink:href="#DejaVuSans-57"/>
      <use x="1193.945312" xlink:href="#DejaVuSans-49"/>
      <use x="1257.568359" xlink:href="#DejaVuSans-48"/>
      <use x="1321.191406" xlink:href="#DejaVuSans-57"/>
     </g>
    </g>
    <g id="line2d_43">
     <path d="M 200.884375 273.828562 
L 220.884375 273.828562 
" style="fill:none;stroke:#ffffff;stroke-linecap:square;stroke-width:1.5;"/>
    </g>
    <g id="line2d_44"/>
    <g id="text_25">
     <!-- Ar: 0.9116644743431201 -->
     <g transform="translate(228.884375 277.328562)scale(0.1 -0.1)">
      <use xlink:href="#DejaVuSans-65"/>
      <use x="68.408203" xlink:href="#DejaVuSans-114"/>
      <use x="107.771484" xlink:href="#DejaVuSans-58"/>
      <use x="141.462891" xlink:href="#DejaVuSans-32"/>
      <use x="173.25" xlink:href="#DejaVuSans-48"/>
      <use x="236.873047" xlink:href="#DejaVuSans-46"/>
      <use x="268.660156" xlink:href="#DejaVuSans-57"/>
      <use x="332.283203" xlink:href="#DejaVuSans-49"/>
      <use x="395.90625" xlink:href="#DejaVuSans-49"/>
      <use x="459.529297" xlink:href="#DejaVuSans-54"/>
      <use x="523.152344" xlink:href="#DejaVuSans-54"/>
      <use x="586.775391" xlink:href="#DejaVuSans-52"/>
      <use x="650.398438" xlink:href="#DejaVuSans-52"/>
      <use x="714.021484" xlink:href="#DejaVuSans-55"/>
      <use x="777.644531" xlink:href="#DejaVuSans-52"/>
      <use x="841.267578" xlink:href="#DejaVuSans-51"/>
      <use x="904.890625" xlink:href="#DejaVuSans-52"/>
      <use x="968.513672" xlink:href="#DejaVuSans-51"/>
      <use x="1032.136719" xlink:href="#DejaVuSans-49"/>
      <use x="1095.759766" xlink:href="#DejaVuSans-50"/>
      <use x="1159.382812" xlink:href="#DejaVuSans-48"/>
      <use x="1223.005859" xlink:href="#DejaVuSans-49"/>
     </g>
    </g>
   </g>
  </g>
 </g>
 <defs>
  <clipPath id="pd07f8164bc">
   <rect height="266.112" width="357.12" x="50.14375" y="22.318125"/>
  </clipPath>
 </defs>
</svg>
