<?xml version="1.0" encoding="utf-8" standalone="no"?>
<!DOCTYPE svg PUBLIC "-//W3C//DTD SVG 1.1//EN"
  "http://www.w3.org/Graphics/SVG/1.1/DTD/svg11.dtd">
<!-- Created with matplotlib (https://matplotlib.org/) -->
<svg height="325.986375pt" version="1.1" viewBox="0 0 414.46375 325.986375" width="414.46375pt" xmlns="http://www.w3.org/2000/svg" xmlns:xlink="http://www.w3.org/1999/xlink">
 <metadata>
  <rdf:RDF xmlns:cc="http://creativecommons.org/ns#" xmlns:dc="http://purl.org/dc/elements/1.1/" xmlns:rdf="http://www.w3.org/1999/02/22-rdf-syntax-ns#">
   <cc:Work>
    <dc:type rdf:resource="http://purl.org/dc/dcmitype/StillImage"/>
    <dc:date>2022-12-10T02:50:52.117860</dc:date>
    <dc:format>image/svg+xml</dc:format>
    <dc:creator>
     <cc:Agent>
      <dc:title>Matplotlib v3.3.1, https://matplotlib.org/</dc:title>
     </cc:Agent>
    </dc:creator>
   </cc:Work>
  </rdf:RDF>
 </metadata>
 <defs>
  <style type="text/css">*{stroke-linecap:butt;stroke-linejoin:round;}</style>
 </defs>
 <g id="figure_1">
  <g id="patch_1">
   <path d="M 0 325.986375 
L 414.46375 325.986375 
L 414.46375 0 
L 0 0 
z
" style="fill:none;"/>
  </g>
  <g id="axes_1">
   <g id="patch_2">
    <path d="M 50.14375 288.430125 
L 407.26375 288.430125 
L 407.26375 22.318125 
L 50.14375 22.318125 
z
" style="fill:none;"/>
   </g>
   <g id="matplotlib.axis_1">
    <g id="xtick_1">
     <g id="line2d_1">
      <defs>
       <path d="M 0 0 
L 0 3.5 
" id="mee5d19a3bb" style="stroke:#000000;stroke-width:0.8;"/>
      </defs>
      <g>
       <use style="stroke:#000000;stroke-width:0.8;" x="66.376477" xlink:href="#mee5d19a3bb" y="288.430125"/>
      </g>
     </g>
     <g id="text_1">
      <!-- 0 -->
      <g transform="translate(63.195227 303.028562)scale(0.1 -0.1)">
       <defs>
        <path d="M 31.78125 66.40625 
Q 24.171875 66.40625 20.328125 58.90625 
Q 16.5 51.421875 16.5 36.375 
Q 16.5 21.390625 20.328125 13.890625 
Q 24.171875 6.390625 31.78125 6.390625 
Q 39.453125 6.390625 43.28125 13.890625 
Q 47.125 21.390625 47.125 36.375 
Q 47.125 51.421875 43.28125 58.90625 
Q 39.453125 66.40625 31.78125 66.40625 
z
M 31.78125 74.21875 
Q 44.046875 74.21875 50.515625 64.515625 
Q 56.984375 54.828125 56.984375 36.375 
Q 56.984375 17.96875 50.515625 8.265625 
Q 44.046875 -1.421875 31.78125 -1.421875 
Q 19.53125 -1.421875 13.0625 8.265625 
Q 6.59375 17.96875 6.59375 36.375 
Q 6.59375 54.828125 13.0625 64.515625 
Q 19.53125 74.21875 31.78125 74.21875 
z
" id="DejaVuSans-48"/>
       </defs>
       <use xlink:href="#DejaVuSans-48"/>
      </g>
     </g>
    </g>
    <g id="xtick_2">
     <g id="line2d_2">
      <g>
       <use style="stroke:#000000;stroke-width:0.8;" x="130.69515" xlink:href="#mee5d19a3bb" y="288.430125"/>
      </g>
     </g>
     <g id="text_2">
      <!-- 10 -->
      <g transform="translate(124.33265 303.028562)scale(0.1 -0.1)">
       <defs>
        <path d="M 12.40625 8.296875 
L 28.515625 8.296875 
L 28.515625 63.921875 
L 10.984375 60.40625 
L 10.984375 69.390625 
L 28.421875 72.90625 
L 38.28125 72.90625 
L 38.28125 8.296875 
L 54.390625 8.296875 
L 54.390625 0 
L 12.40625 0 
z
" id="DejaVuSans-49"/>
       </defs>
       <use xlink:href="#DejaVuSans-49"/>
       <use x="63.623047" xlink:href="#DejaVuSans-48"/>
      </g>
     </g>
    </g>
    <g id="xtick_3">
     <g id="line2d_3">
      <g>
       <use style="stroke:#000000;stroke-width:0.8;" x="195.013823" xlink:href="#mee5d19a3bb" y="288.430125"/>
      </g>
     </g>
     <g id="text_3">
      <!-- 20 -->
      <g transform="translate(188.651323 303.028562)scale(0.1 -0.1)">
       <defs>
        <path d="M 19.1875 8.296875 
L 53.609375 8.296875 
L 53.609375 0 
L 7.328125 0 
L 7.328125 8.296875 
Q 12.9375 14.109375 22.625 23.890625 
Q 32.328125 33.6875 34.8125 36.53125 
Q 39.546875 41.84375 41.421875 45.53125 
Q 43.3125 49.21875 43.3125 52.78125 
Q 43.3125 58.59375 39.234375 62.25 
Q 35.15625 65.921875 28.609375 65.921875 
Q 23.96875 65.921875 18.8125 64.3125 
Q 13.671875 62.703125 7.8125 59.421875 
L 7.8125 69.390625 
Q 13.765625 71.78125 18.9375 73 
Q 24.125 74.21875 28.421875 74.21875 
Q 39.75 74.21875 46.484375 68.546875 
Q 53.21875 62.890625 53.21875 53.421875 
Q 53.21875 48.921875 51.53125 44.890625 
Q 49.859375 40.875 45.40625 35.40625 
Q 44.1875 33.984375 37.640625 27.21875 
Q 31.109375 20.453125 19.1875 8.296875 
z
" id="DejaVuSans-50"/>
       </defs>
       <use xlink:href="#DejaVuSans-50"/>
       <use x="63.623047" xlink:href="#DejaVuSans-48"/>
      </g>
     </g>
    </g>
    <g id="xtick_4">
     <g id="line2d_4">
      <g>
       <use style="stroke:#000000;stroke-width:0.8;" x="259.332495" xlink:href="#mee5d19a3bb" y="288.430125"/>
      </g>
     </g>
     <g id="text_4">
      <!-- 30 -->
      <g transform="translate(252.969995 303.028562)scale(0.1 -0.1)">
       <defs>
        <path d="M 40.578125 39.3125 
Q 47.65625 37.796875 51.625 33 
Q 55.609375 28.21875 55.609375 21.1875 
Q 55.609375 10.40625 48.1875 4.484375 
Q 40.765625 -1.421875 27.09375 -1.421875 
Q 22.515625 -1.421875 17.65625 -0.515625 
Q 12.796875 0.390625 7.625 2.203125 
L 7.625 11.71875 
Q 11.71875 9.328125 16.59375 8.109375 
Q 21.484375 6.890625 26.8125 6.890625 
Q 36.078125 6.890625 40.9375 10.546875 
Q 45.796875 14.203125 45.796875 21.1875 
Q 45.796875 27.640625 41.28125 31.265625 
Q 36.765625 34.90625 28.71875 34.90625 
L 20.21875 34.90625 
L 20.21875 43.015625 
L 29.109375 43.015625 
Q 36.375 43.015625 40.234375 45.921875 
Q 44.09375 48.828125 44.09375 54.296875 
Q 44.09375 59.90625 40.109375 62.90625 
Q 36.140625 65.921875 28.71875 65.921875 
Q 24.65625 65.921875 20.015625 65.03125 
Q 15.375 64.15625 9.8125 62.3125 
L 9.8125 71.09375 
Q 15.4375 72.65625 20.34375 73.4375 
Q 25.25 74.21875 29.59375 74.21875 
Q 40.828125 74.21875 47.359375 69.109375 
Q 53.90625 64.015625 53.90625 55.328125 
Q 53.90625 49.265625 50.4375 45.09375 
Q 46.96875 40.921875 40.578125 39.3125 
z
" id="DejaVuSans-51"/>
       </defs>
       <use xlink:href="#DejaVuSans-51"/>
       <use x="63.623047" xlink:href="#DejaVuSans-48"/>
      </g>
     </g>
    </g>
    <g id="xtick_5">
     <g id="line2d_5">
      <g>
       <use style="stroke:#000000;stroke-width:0.8;" x="323.651168" xlink:href="#mee5d19a3bb" y="288.430125"/>
      </g>
     </g>
     <g id="text_5">
      <!-- 40 -->
      <g transform="translate(317.288668 303.028562)scale(0.1 -0.1)">
       <defs>
        <path d="M 37.796875 64.3125 
L 12.890625 25.390625 
L 37.796875 25.390625 
z
M 35.203125 72.90625 
L 47.609375 72.90625 
L 47.609375 25.390625 
L 58.015625 25.390625 
L 58.015625 17.1875 
L 47.609375 17.1875 
L 47.609375 0 
L 37.796875 0 
L 37.796875 17.1875 
L 4.890625 17.1875 
L 4.890625 26.703125 
z
" id="DejaVuSans-52"/>
       </defs>
       <use xlink:href="#DejaVuSans-52"/>
       <use x="63.623047" xlink:href="#DejaVuSans-48"/>
      </g>
     </g>
    </g>
    <g id="xtick_6">
     <g id="line2d_6">
      <g>
       <use style="stroke:#000000;stroke-width:0.8;" x="387.96984" xlink:href="#mee5d19a3bb" y="288.430125"/>
      </g>
     </g>
     <g id="text_6">
      <!-- 50 -->
      <g transform="translate(381.60734 303.028562)scale(0.1 -0.1)">
       <defs>
        <path d="M 10.796875 72.90625 
L 49.515625 72.90625 
L 49.515625 64.59375 
L 19.828125 64.59375 
L 19.828125 46.734375 
Q 21.96875 47.46875 24.109375 47.828125 
Q 26.265625 48.1875 28.421875 48.1875 
Q 40.625 48.1875 47.75 41.5 
Q 54.890625 34.8125 54.890625 23.390625 
Q 54.890625 11.625 47.5625 5.09375 
Q 40.234375 -1.421875 26.90625 -1.421875 
Q 22.3125 -1.421875 17.546875 -0.640625 
Q 12.796875 0.140625 7.71875 1.703125 
L 7.71875 11.625 
Q 12.109375 9.234375 16.796875 8.0625 
Q 21.484375 6.890625 26.703125 6.890625 
Q 35.15625 6.890625 40.078125 11.328125 
Q 45.015625 15.765625 45.015625 23.390625 
Q 45.015625 31 40.078125 35.4375 
Q 35.15625 39.890625 26.703125 39.890625 
Q 22.75 39.890625 18.8125 39.015625 
Q 14.890625 38.140625 10.796875 36.28125 
z
" id="DejaVuSans-53"/>
       </defs>
       <use xlink:href="#DejaVuSans-53"/>
       <use x="63.623047" xlink:href="#DejaVuSans-48"/>
      </g>
     </g>
    </g>
    <g id="text_7">
     <!-- Time (ms) -->
     <g transform="translate(203.504531 316.706687)scale(0.1 -0.1)">
      <defs>
       <path d="M -0.296875 72.90625 
L 61.375 72.90625 
L 61.375 64.59375 
L 35.5 64.59375 
L 35.5 0 
L 25.59375 0 
L 25.59375 64.59375 
L -0.296875 64.59375 
z
" id="DejaVuSans-84"/>
       <path d="M 9.421875 54.6875 
L 18.40625 54.6875 
L 18.40625 0 
L 9.421875 0 
z
M 9.421875 75.984375 
L 18.40625 75.984375 
L 18.40625 64.59375 
L 9.421875 64.59375 
z
" id="DejaVuSans-105"/>
       <path d="M 52 44.1875 
Q 55.375 50.25 60.0625 53.125 
Q 64.75 56 71.09375 56 
Q 79.640625 56 84.28125 50.015625 
Q 88.921875 44.046875 88.921875 33.015625 
L 88.921875 0 
L 79.890625 0 
L 79.890625 32.71875 
Q 79.890625 40.578125 77.09375 44.375 
Q 74.3125 48.1875 68.609375 48.1875 
Q 61.625 48.1875 57.5625 43.546875 
Q 53.515625 38.921875 53.515625 30.90625 
L 53.515625 0 
L 44.484375 0 
L 44.484375 32.71875 
Q 44.484375 40.625 41.703125 44.40625 
Q 38.921875 48.1875 33.109375 48.1875 
Q 26.21875 48.1875 22.15625 43.53125 
Q 18.109375 38.875 18.109375 30.90625 
L 18.109375 0 
L 9.078125 0 
L 9.078125 54.6875 
L 18.109375 54.6875 
L 18.109375 46.1875 
Q 21.1875 51.21875 25.484375 53.609375 
Q 29.78125 56 35.6875 56 
Q 41.65625 56 45.828125 52.96875 
Q 50 49.953125 52 44.1875 
z
" id="DejaVuSans-109"/>
       <path d="M 56.203125 29.59375 
L 56.203125 25.203125 
L 14.890625 25.203125 
Q 15.484375 15.921875 20.484375 11.0625 
Q 25.484375 6.203125 34.421875 6.203125 
Q 39.59375 6.203125 44.453125 7.46875 
Q 49.3125 8.734375 54.109375 11.28125 
L 54.109375 2.78125 
Q 49.265625 0.734375 44.1875 -0.34375 
Q 39.109375 -1.421875 33.890625 -1.421875 
Q 20.796875 -1.421875 13.15625 6.1875 
Q 5.515625 13.8125 5.515625 26.8125 
Q 5.515625 40.234375 12.765625 48.109375 
Q 20.015625 56 32.328125 56 
Q 43.359375 56 49.78125 48.890625 
Q 56.203125 41.796875 56.203125 29.59375 
z
M 47.21875 32.234375 
Q 47.125 39.59375 43.09375 43.984375 
Q 39.0625 48.390625 32.421875 48.390625 
Q 24.90625 48.390625 20.390625 44.140625 
Q 15.875 39.890625 15.1875 32.171875 
z
" id="DejaVuSans-101"/>
       <path id="DejaVuSans-32"/>
       <path d="M 31 75.875 
Q 24.46875 64.65625 21.28125 53.65625 
Q 18.109375 42.671875 18.109375 31.390625 
Q 18.109375 20.125 21.3125 9.0625 
Q 24.515625 -2 31 -13.1875 
L 23.1875 -13.1875 
Q 15.875 -1.703125 12.234375 9.375 
Q 8.59375 20.453125 8.59375 31.390625 
Q 8.59375 42.28125 12.203125 53.3125 
Q 15.828125 64.359375 23.1875 75.875 
z
" id="DejaVuSans-40"/>
       <path d="M 44.28125 53.078125 
L 44.28125 44.578125 
Q 40.484375 46.53125 36.375 47.5 
Q 32.28125 48.484375 27.875 48.484375 
Q 21.1875 48.484375 17.84375 46.4375 
Q 14.5 44.390625 14.5 40.28125 
Q 14.5 37.15625 16.890625 35.375 
Q 19.28125 33.59375 26.515625 31.984375 
L 29.59375 31.296875 
Q 39.15625 29.25 43.1875 25.515625 
Q 47.21875 21.78125 47.21875 15.09375 
Q 47.21875 7.46875 41.1875 3.015625 
Q 35.15625 -1.421875 24.609375 -1.421875 
Q 20.21875 -1.421875 15.453125 -0.5625 
Q 10.6875 0.296875 5.421875 2 
L 5.421875 11.28125 
Q 10.40625 8.6875 15.234375 7.390625 
Q 20.0625 6.109375 24.8125 6.109375 
Q 31.15625 6.109375 34.5625 8.28125 
Q 37.984375 10.453125 37.984375 14.40625 
Q 37.984375 18.0625 35.515625 20.015625 
Q 33.0625 21.96875 24.703125 23.78125 
L 21.578125 24.515625 
Q 13.234375 26.265625 9.515625 29.90625 
Q 5.8125 33.546875 5.8125 39.890625 
Q 5.8125 47.609375 11.28125 51.796875 
Q 16.75 56 26.8125 56 
Q 31.78125 56 36.171875 55.265625 
Q 40.578125 54.546875 44.28125 53.078125 
z
" id="DejaVuSans-115"/>
       <path d="M 8.015625 75.875 
L 15.828125 75.875 
Q 23.140625 64.359375 26.78125 53.3125 
Q 30.421875 42.28125 30.421875 31.390625 
Q 30.421875 20.453125 26.78125 9.375 
Q 23.140625 -1.703125 15.828125 -13.1875 
L 8.015625 -13.1875 
Q 14.5 -2 17.703125 9.0625 
Q 20.90625 20.125 20.90625 31.390625 
Q 20.90625 42.671875 17.703125 53.65625 
Q 14.5 64.65625 8.015625 75.875 
z
" id="DejaVuSans-41"/>
      </defs>
      <use xlink:href="#DejaVuSans-84"/>
      <use x="57.958984" xlink:href="#DejaVuSans-105"/>
      <use x="85.742188" xlink:href="#DejaVuSans-109"/>
      <use x="183.154297" xlink:href="#DejaVuSans-101"/>
      <use x="244.677734" xlink:href="#DejaVuSans-32"/>
      <use x="276.464844" xlink:href="#DejaVuSans-40"/>
      <use x="315.478516" xlink:href="#DejaVuSans-109"/>
      <use x="412.890625" xlink:href="#DejaVuSans-115"/>
      <use x="464.990234" xlink:href="#DejaVuSans-41"/>
     </g>
    </g>
   </g>
   <g id="matplotlib.axis_2">
    <g id="ytick_1">
     <g id="line2d_7">
      <defs>
       <path d="M 0 0 
L -3.5 0 
" id="me55ca93e05" style="stroke:#000000;stroke-width:0.8;"/>
      </defs>
      <g>
       <use style="stroke:#000000;stroke-width:0.8;" x="50.14375" xlink:href="#me55ca93e05" y="276.334125"/>
      </g>
     </g>
     <g id="text_8">
      <!-- 0.00 -->
      <g transform="translate(20.878125 280.133344)scale(0.1 -0.1)">
       <defs>
        <path d="M 10.6875 12.40625 
L 21 12.40625 
L 21 0 
L 10.6875 0 
z
" id="DejaVuSans-46"/>
       </defs>
       <use xlink:href="#DejaVuSans-48"/>
       <use x="63.623047" xlink:href="#DejaVuSans-46"/>
       <use x="95.410156" xlink:href="#DejaVuSans-48"/>
       <use x="159.033203" xlink:href="#DejaVuSans-48"/>
      </g>
     </g>
    </g>
    <g id="ytick_2">
     <g id="line2d_8">
      <g>
       <use style="stroke:#000000;stroke-width:0.8;" x="50.14375" xlink:href="#me55ca93e05" y="232.407308"/>
      </g>
     </g>
     <g id="text_9">
      <!-- 0.02 -->
      <g transform="translate(20.878125 236.206526)scale(0.1 -0.1)">
       <use xlink:href="#DejaVuSans-48"/>
       <use x="63.623047" xlink:href="#DejaVuSans-46"/>
       <use x="95.410156" xlink:href="#DejaVuSans-48"/>
       <use x="159.033203" xlink:href="#DejaVuSans-50"/>
      </g>
     </g>
    </g>
    <g id="ytick_3">
     <g id="line2d_9">
      <g>
       <use style="stroke:#000000;stroke-width:0.8;" x="50.14375" xlink:href="#me55ca93e05" y="188.48049"/>
      </g>
     </g>
     <g id="text_10">
      <!-- 0.04 -->
      <g transform="translate(20.878125 192.279709)scale(0.1 -0.1)">
       <use xlink:href="#DejaVuSans-48"/>
       <use x="63.623047" xlink:href="#DejaVuSans-46"/>
       <use x="95.410156" xlink:href="#DejaVuSans-48"/>
       <use x="159.033203" xlink:href="#DejaVuSans-52"/>
      </g>
     </g>
    </g>
    <g id="ytick_4">
     <g id="line2d_10">
      <g>
       <use style="stroke:#000000;stroke-width:0.8;" x="50.14375" xlink:href="#me55ca93e05" y="144.553673"/>
      </g>
     </g>
     <g id="text_11">
      <!-- 0.06 -->
      <g transform="translate(20.878125 148.352892)scale(0.1 -0.1)">
       <defs>
        <path d="M 33.015625 40.375 
Q 26.375 40.375 22.484375 35.828125 
Q 18.609375 31.296875 18.609375 23.390625 
Q 18.609375 15.53125 22.484375 10.953125 
Q 26.375 6.390625 33.015625 6.390625 
Q 39.65625 6.390625 43.53125 10.953125 
Q 47.40625 15.53125 47.40625 23.390625 
Q 47.40625 31.296875 43.53125 35.828125 
Q 39.65625 40.375 33.015625 40.375 
z
M 52.59375 71.296875 
L 52.59375 62.3125 
Q 48.875 64.0625 45.09375 64.984375 
Q 41.3125 65.921875 37.59375 65.921875 
Q 27.828125 65.921875 22.671875 59.328125 
Q 17.53125 52.734375 16.796875 39.40625 
Q 19.671875 43.65625 24.015625 45.921875 
Q 28.375 48.1875 33.59375 48.1875 
Q 44.578125 48.1875 50.953125 41.515625 
Q 57.328125 34.859375 57.328125 23.390625 
Q 57.328125 12.15625 50.6875 5.359375 
Q 44.046875 -1.421875 33.015625 -1.421875 
Q 20.359375 -1.421875 13.671875 8.265625 
Q 6.984375 17.96875 6.984375 36.375 
Q 6.984375 53.65625 15.1875 63.9375 
Q 23.390625 74.21875 37.203125 74.21875 
Q 40.921875 74.21875 44.703125 73.484375 
Q 48.484375 72.75 52.59375 71.296875 
z
" id="DejaVuSans-54"/>
       </defs>
       <use xlink:href="#DejaVuSans-48"/>
       <use x="63.623047" xlink:href="#DejaVuSans-46"/>
       <use x="95.410156" xlink:href="#DejaVuSans-48"/>
       <use x="159.033203" xlink:href="#DejaVuSans-54"/>
      </g>
     </g>
    </g>
    <g id="ytick_5">
     <g id="line2d_11">
      <g>
       <use style="stroke:#000000;stroke-width:0.8;" x="50.14375" xlink:href="#me55ca93e05" y="100.626856"/>
      </g>
     </g>
     <g id="text_12">
      <!-- 0.08 -->
      <g transform="translate(20.878125 104.426075)scale(0.1 -0.1)">
       <defs>
        <path d="M 31.78125 34.625 
Q 24.75 34.625 20.71875 30.859375 
Q 16.703125 27.09375 16.703125 20.515625 
Q 16.703125 13.921875 20.71875 10.15625 
Q 24.75 6.390625 31.78125 6.390625 
Q 38.8125 6.390625 42.859375 10.171875 
Q 46.921875 13.96875 46.921875 20.515625 
Q 46.921875 27.09375 42.890625 30.859375 
Q 38.875 34.625 31.78125 34.625 
z
M 21.921875 38.8125 
Q 15.578125 40.375 12.03125 44.71875 
Q 8.5 49.078125 8.5 55.328125 
Q 8.5 64.0625 14.71875 69.140625 
Q 20.953125 74.21875 31.78125 74.21875 
Q 42.671875 74.21875 48.875 69.140625 
Q 55.078125 64.0625 55.078125 55.328125 
Q 55.078125 49.078125 51.53125 44.71875 
Q 48 40.375 41.703125 38.8125 
Q 48.828125 37.15625 52.796875 32.3125 
Q 56.78125 27.484375 56.78125 20.515625 
Q 56.78125 9.90625 50.3125 4.234375 
Q 43.84375 -1.421875 31.78125 -1.421875 
Q 19.734375 -1.421875 13.25 4.234375 
Q 6.78125 9.90625 6.78125 20.515625 
Q 6.78125 27.484375 10.78125 32.3125 
Q 14.796875 37.15625 21.921875 38.8125 
z
M 18.3125 54.390625 
Q 18.3125 48.734375 21.84375 45.5625 
Q 25.390625 42.390625 31.78125 42.390625 
Q 38.140625 42.390625 41.71875 45.5625 
Q 45.3125 48.734375 45.3125 54.390625 
Q 45.3125 60.0625 41.71875 63.234375 
Q 38.140625 66.40625 31.78125 66.40625 
Q 25.390625 66.40625 21.84375 63.234375 
Q 18.3125 60.0625 18.3125 54.390625 
z
" id="DejaVuSans-56"/>
       </defs>
       <use xlink:href="#DejaVuSans-48"/>
       <use x="63.623047" xlink:href="#DejaVuSans-46"/>
       <use x="95.410156" xlink:href="#DejaVuSans-48"/>
       <use x="159.033203" xlink:href="#DejaVuSans-56"/>
      </g>
     </g>
    </g>
    <g id="ytick_6">
     <g id="line2d_12">
      <g>
       <use style="stroke:#000000;stroke-width:0.8;" x="50.14375" xlink:href="#me55ca93e05" y="56.700039"/>
      </g>
     </g>
     <g id="text_13">
      <!-- 0.10 -->
      <g transform="translate(20.878125 60.499257)scale(0.1 -0.1)">
       <use xlink:href="#DejaVuSans-48"/>
       <use x="63.623047" xlink:href="#DejaVuSans-46"/>
       <use x="95.410156" xlink:href="#DejaVuSans-49"/>
       <use x="159.033203" xlink:href="#DejaVuSans-48"/>
      </g>
     </g>
    </g>
    <g id="text_14">
     <!-- Absorbance227 -->
     <g transform="translate(14.798438 194.46475)rotate(-90)scale(0.1 -0.1)">
      <defs>
       <path d="M 34.1875 63.1875 
L 20.796875 26.90625 
L 47.609375 26.90625 
z
M 28.609375 72.90625 
L 39.796875 72.90625 
L 67.578125 0 
L 57.328125 0 
L 50.6875 18.703125 
L 17.828125 18.703125 
L 11.1875 0 
L 0.78125 0 
z
" id="DejaVuSans-65"/>
       <path d="M 48.6875 27.296875 
Q 48.6875 37.203125 44.609375 42.84375 
Q 40.53125 48.484375 33.40625 48.484375 
Q 26.265625 48.484375 22.1875 42.84375 
Q 18.109375 37.203125 18.109375 27.296875 
Q 18.109375 17.390625 22.1875 11.75 
Q 26.265625 6.109375 33.40625 6.109375 
Q 40.53125 6.109375 44.609375 11.75 
Q 48.6875 17.390625 48.6875 27.296875 
z
M 18.109375 46.390625 
Q 20.953125 51.265625 25.265625 53.625 
Q 29.59375 56 35.59375 56 
Q 45.5625 56 51.78125 48.09375 
Q 58.015625 40.1875 58.015625 27.296875 
Q 58.015625 14.40625 51.78125 6.484375 
Q 45.5625 -1.421875 35.59375 -1.421875 
Q 29.59375 -1.421875 25.265625 0.953125 
Q 20.953125 3.328125 18.109375 8.203125 
L 18.109375 0 
L 9.078125 0 
L 9.078125 75.984375 
L 18.109375 75.984375 
z
" id="DejaVuSans-98"/>
       <path d="M 30.609375 48.390625 
Q 23.390625 48.390625 19.1875 42.75 
Q 14.984375 37.109375 14.984375 27.296875 
Q 14.984375 17.484375 19.15625 11.84375 
Q 23.34375 6.203125 30.609375 6.203125 
Q 37.796875 6.203125 41.984375 11.859375 
Q 46.1875 17.53125 46.1875 27.296875 
Q 46.1875 37.015625 41.984375 42.703125 
Q 37.796875 48.390625 30.609375 48.390625 
z
M 30.609375 56 
Q 42.328125 56 49.015625 48.375 
Q 55.71875 40.765625 55.71875 27.296875 
Q 55.71875 13.875 49.015625 6.21875 
Q 42.328125 -1.421875 30.609375 -1.421875 
Q 18.84375 -1.421875 12.171875 6.21875 
Q 5.515625 13.875 5.515625 27.296875 
Q 5.515625 40.765625 12.171875 48.375 
Q 18.84375 56 30.609375 56 
z
" id="DejaVuSans-111"/>
       <path d="M 41.109375 46.296875 
Q 39.59375 47.171875 37.8125 47.578125 
Q 36.03125 48 33.890625 48 
Q 26.265625 48 22.1875 43.046875 
Q 18.109375 38.09375 18.109375 28.8125 
L 18.109375 0 
L 9.078125 0 
L 9.078125 54.6875 
L 18.109375 54.6875 
L 18.109375 46.1875 
Q 20.953125 51.171875 25.484375 53.578125 
Q 30.03125 56 36.53125 56 
Q 37.453125 56 38.578125 55.875 
Q 39.703125 55.765625 41.0625 55.515625 
z
" id="DejaVuSans-114"/>
       <path d="M 34.28125 27.484375 
Q 23.390625 27.484375 19.1875 25 
Q 14.984375 22.515625 14.984375 16.5 
Q 14.984375 11.71875 18.140625 8.90625 
Q 21.296875 6.109375 26.703125 6.109375 
Q 34.1875 6.109375 38.703125 11.40625 
Q 43.21875 16.703125 43.21875 25.484375 
L 43.21875 27.484375 
z
M 52.203125 31.203125 
L 52.203125 0 
L 43.21875 0 
L 43.21875 8.296875 
Q 40.140625 3.328125 35.546875 0.953125 
Q 30.953125 -1.421875 24.3125 -1.421875 
Q 15.921875 -1.421875 10.953125 3.296875 
Q 6 8.015625 6 15.921875 
Q 6 25.140625 12.171875 29.828125 
Q 18.359375 34.515625 30.609375 34.515625 
L 43.21875 34.515625 
L 43.21875 35.40625 
Q 43.21875 41.609375 39.140625 45 
Q 35.0625 48.390625 27.6875 48.390625 
Q 23 48.390625 18.546875 47.265625 
Q 14.109375 46.140625 10.015625 43.890625 
L 10.015625 52.203125 
Q 14.9375 54.109375 19.578125 55.046875 
Q 24.21875 56 28.609375 56 
Q 40.484375 56 46.34375 49.84375 
Q 52.203125 43.703125 52.203125 31.203125 
z
" id="DejaVuSans-97"/>
       <path d="M 54.890625 33.015625 
L 54.890625 0 
L 45.90625 0 
L 45.90625 32.71875 
Q 45.90625 40.484375 42.875 44.328125 
Q 39.84375 48.1875 33.796875 48.1875 
Q 26.515625 48.1875 22.3125 43.546875 
Q 18.109375 38.921875 18.109375 30.90625 
L 18.109375 0 
L 9.078125 0 
L 9.078125 54.6875 
L 18.109375 54.6875 
L 18.109375 46.1875 
Q 21.34375 51.125 25.703125 53.5625 
Q 30.078125 56 35.796875 56 
Q 45.21875 56 50.046875 50.171875 
Q 54.890625 44.34375 54.890625 33.015625 
z
" id="DejaVuSans-110"/>
       <path d="M 48.78125 52.59375 
L 48.78125 44.1875 
Q 44.96875 46.296875 41.140625 47.34375 
Q 37.3125 48.390625 33.40625 48.390625 
Q 24.65625 48.390625 19.8125 42.84375 
Q 14.984375 37.3125 14.984375 27.296875 
Q 14.984375 17.28125 19.8125 11.734375 
Q 24.65625 6.203125 33.40625 6.203125 
Q 37.3125 6.203125 41.140625 7.25 
Q 44.96875 8.296875 48.78125 10.40625 
L 48.78125 2.09375 
Q 45.015625 0.34375 40.984375 -0.53125 
Q 36.96875 -1.421875 32.421875 -1.421875 
Q 20.0625 -1.421875 12.78125 6.34375 
Q 5.515625 14.109375 5.515625 27.296875 
Q 5.515625 40.671875 12.859375 48.328125 
Q 20.21875 56 33.015625 56 
Q 37.15625 56 41.109375 55.140625 
Q 45.0625 54.296875 48.78125 52.59375 
z
" id="DejaVuSans-99"/>
       <path d="M 8.203125 72.90625 
L 55.078125 72.90625 
L 55.078125 68.703125 
L 28.609375 0 
L 18.3125 0 
L 43.21875 64.59375 
L 8.203125 64.59375 
z
" id="DejaVuSans-55"/>
      </defs>
      <use xlink:href="#DejaVuSans-65"/>
      <use x="68.408203" xlink:href="#DejaVuSans-98"/>
      <use x="131.884766" xlink:href="#DejaVuSans-115"/>
      <use x="183.984375" xlink:href="#DejaVuSans-111"/>
      <use x="245.166016" xlink:href="#DejaVuSans-114"/>
      <use x="286.279297" xlink:href="#DejaVuSans-98"/>
      <use x="349.755859" xlink:href="#DejaVuSans-97"/>
      <use x="411.035156" xlink:href="#DejaVuSans-110"/>
      <use x="474.414062" xlink:href="#DejaVuSans-99"/>
      <use x="529.394531" xlink:href="#DejaVuSans-101"/>
      <use x="590.917969" xlink:href="#DejaVuSans-50"/>
      <use x="654.541016" xlink:href="#DejaVuSans-50"/>
      <use x="718.164062" xlink:href="#DejaVuSans-55"/>
     </g>
    </g>
   </g>
   <g id="line2d_13">
    <defs>
     <path d="M 0 3 
C 0.795609 3 1.55874 2.683901 2.12132 2.12132 
C 2.683901 1.55874 3 0.795609 3 0 
C 3 -0.795609 2.683901 -1.55874 2.12132 -2.12132 
C 1.55874 -2.683901 0.795609 -3 0 -3 
C -0.795609 -3 -1.55874 -2.683901 -2.12132 -2.12132 
C -2.683901 -1.55874 -3 -0.795609 -3 0 
C -3 0.795609 -2.683901 1.55874 -2.12132 2.12132 
C -1.55874 2.683901 -0.795609 3 0 3 
z
" id="m27692eb5fc" style="stroke:#000000;"/>
    </defs>
    <g clip-path="url(#p3741fddf86)">
     <use style="stroke:#000000;" x="77.348876" xlink:href="#m27692eb5fc" y="99.043639"/>
     <use style="stroke:#000000;" x="77.905818" xlink:href="#m27692eb5fc" y="101.109873"/>
     <use style="stroke:#000000;" x="78.46276" xlink:href="#m27692eb5fc" y="103.126202"/>
     <use style="stroke:#000000;" x="79.019702" xlink:href="#m27692eb5fc" y="105.094406"/>
     <use style="stroke:#000000;" x="79.576643" xlink:href="#m27692eb5fc" y="107.016194"/>
     <use style="stroke:#000000;" x="80.133585" xlink:href="#m27692eb5fc" y="108.893187"/>
     <use style="stroke:#000000;" x="80.690527" xlink:href="#m27692eb5fc" y="110.726931"/>
     <use style="stroke:#000000;" x="81.247469" xlink:href="#m27692eb5fc" y="112.518906"/>
     <use style="stroke:#000000;" x="82.201617" xlink:href="#m27692eb5fc" y="115.495868"/>
     <use style="stroke:#000000;" x="83.155772" xlink:href="#m27692eb5fc" y="118.361019"/>
     <use style="stroke:#000000;" x="83.814356" xlink:href="#m27692eb5fc" y="120.27667"/>
     <use style="stroke:#000000;" x="84.472947" xlink:href="#m27692eb5fc" y="122.143913"/>
     <use style="stroke:#000000;" x="85.131532" xlink:href="#m27692eb5fc" y="123.964563"/>
     <use style="stroke:#000000;" x="85.790117" xlink:href="#m27692eb5fc" y="125.74034"/>
     <use style="stroke:#000000;" x="86.448708" xlink:href="#m27692eb5fc" y="127.472886"/>
     <use style="stroke:#000000;" x="87.107292" xlink:href="#m27692eb5fc" y="129.163757"/>
     <use style="stroke:#000000;" x="87.765877" xlink:href="#m27692eb5fc" y="130.814441"/>
     <use style="stroke:#000000;" x="88.424468" xlink:href="#m27692eb5fc" y="132.426353"/>
     <use style="stroke:#000000;" x="89.478259" xlink:href="#m27692eb5fc" y="134.92824"/>
     <use style="stroke:#000000;" x="90.532049" xlink:href="#m27692eb5fc" y="137.339506"/>
     <use style="stroke:#000000;" x="91.31336" xlink:href="#m27692eb5fc" y="139.071646"/>
     <use style="stroke:#000000;" x="92.094672" xlink:href="#m27692eb5fc" y="140.758484"/>
     <use style="stroke:#000000;" x="92.875983" xlink:href="#m27692eb5fc" y="142.401775"/>
     <use style="stroke:#000000;" x="93.657294" xlink:href="#m27692eb5fc" y="144.003182"/>
     <use style="stroke:#000000;" x="94.438605" xlink:href="#m27692eb5fc" y="145.564291"/>
     <use style="stroke:#000000;" x="95.219916" xlink:href="#m27692eb5fc" y="147.086599"/>
     <use style="stroke:#000000;" x="96.001227" xlink:href="#m27692eb5fc" y="148.571536"/>
     <use style="stroke:#000000;" x="96.782538" xlink:href="#m27692eb5fc" y="150.020464"/>
     <use style="stroke:#000000;" x="97.563849" xlink:href="#m27692eb5fc" y="151.434675"/>
     <use style="stroke:#000000;" x="98.34516" xlink:href="#m27692eb5fc" y="152.8154"/>
     <use style="stroke:#000000;" x="99.126471" xlink:href="#m27692eb5fc" y="154.16382"/>
     <use style="stroke:#000000;" x="99.907782" xlink:href="#m27692eb5fc" y="155.481051"/>
     <use style="stroke:#000000;" x="100.689093" xlink:href="#m27692eb5fc" y="156.768164"/>
     <use style="stroke:#000000;" x="101.470404" xlink:href="#m27692eb5fc" y="158.02618"/>
     <use style="stroke:#000000;" x="102.251716" xlink:href="#m27692eb5fc" y="159.256076"/>
     <use style="stroke:#000000;" x="103.033027" xlink:href="#m27692eb5fc" y="160.458783"/>
     <use style="stroke:#000000;" x="103.814338" xlink:href="#m27692eb5fc" y="161.635194"/>
     <use style="stroke:#000000;" x="104.595649" xlink:href="#m27692eb5fc" y="162.78616"/>
     <use style="stroke:#000000;" x="105.37696" xlink:href="#m27692eb5fc" y="163.912498"/>
     <use style="stroke:#000000;" x="106.158265" xlink:href="#m27692eb5fc" y="165.014993"/>
     <use style="stroke:#000000;" x="106.939576" xlink:href="#m27692eb5fc" y="166.094392"/>
     <use style="stroke:#000000;" x="107.720887" xlink:href="#m27692eb5fc" y="167.151414"/>
     <use style="stroke:#000000;" x="108.895873" xlink:href="#m27692eb5fc" y="168.700401"/>
     <use style="stroke:#000000;" x="110.070853" xlink:href="#m27692eb5fc" y="170.202553"/>
     <use style="stroke:#000000;" x="111.245833" xlink:href="#m27692eb5fc" y="171.659965"/>
     <use style="stroke:#000000;" x="112.420813" xlink:href="#m27692eb5fc" y="173.074607"/>
     <use style="stroke:#000000;" x="113.595793" xlink:href="#m27692eb5fc" y="174.448334"/>
     <use style="stroke:#000000;" x="114.770773" xlink:href="#m27692eb5fc" y="175.782895"/>
     <use style="stroke:#000000;" x="115.945759" xlink:href="#m27692eb5fc" y="177.079939"/>
     <use style="stroke:#000000;" x="117.120739" xlink:href="#m27692eb5fc" y="178.341032"/>
     <use style="stroke:#000000;" x="118.295719" xlink:href="#m27692eb5fc" y="179.567645"/>
     <use style="stroke:#000000;" x="119.470699" xlink:href="#m27692eb5fc" y="180.761172"/>
     <use style="stroke:#000000;" x="120.645679" xlink:href="#m27692eb5fc" y="181.922935"/>
     <use style="stroke:#000000;" x="121.820665" xlink:href="#m27692eb5fc" y="183.054184"/>
     <use style="stroke:#000000;" x="122.995645" xlink:href="#m27692eb5fc" y="184.156108"/>
     <use style="stroke:#000000;" x="124.170625" xlink:href="#m27692eb5fc" y="185.229831"/>
     <use style="stroke:#000000;" x="125.345605" xlink:href="#m27692eb5fc" y="186.276425"/>
     <use style="stroke:#000000;" x="126.520585" xlink:href="#m27692eb5fc" y="187.2969"/>
     <use style="stroke:#000000;" x="127.695571" xlink:href="#m27692eb5fc" y="188.292224"/>
     <use style="stroke:#000000;" x="128.870551" xlink:href="#m27692eb5fc" y="189.263319"/>
     <use style="stroke:#000000;" x="130.045531" xlink:href="#m27692eb5fc" y="190.211055"/>
     <use style="stroke:#000000;" x="131.220511" xlink:href="#m27692eb5fc" y="191.136264"/>
     <use style="stroke:#000000;" x="132.395491" xlink:href="#m27692eb5fc" y="192.039744"/>
     <use style="stroke:#000000;" x="133.570471" xlink:href="#m27692eb5fc" y="192.922249"/>
     <use style="stroke:#000000;" x="134.745458" xlink:href="#m27692eb5fc" y="193.7845"/>
     <use style="stroke:#000000;" x="135.920437" xlink:href="#m27692eb5fc" y="194.627188"/>
     <use style="stroke:#000000;" x="137.095417" xlink:href="#m27692eb5fc" y="195.450971"/>
     <use style="stroke:#000000;" x="138.270397" xlink:href="#m27692eb5fc" y="196.256479"/>
     <use style="stroke:#000000;" x="139.445377" xlink:href="#m27692eb5fc" y="197.044311"/>
     <use style="stroke:#000000;" x="140.620364" xlink:href="#m27692eb5fc" y="197.815045"/>
     <use style="stroke:#000000;" x="141.795344" xlink:href="#m27692eb5fc" y="198.569231"/>
     <use style="stroke:#000000;" x="143.572443" xlink:href="#m27692eb5fc" y="199.679626"/>
     <use style="stroke:#000000;" x="145.349548" xlink:href="#m27692eb5fc" y="200.755095"/>
     <use style="stroke:#000000;" x="147.126654" xlink:href="#m27692eb5fc" y="201.797263"/>
     <use style="stroke:#000000;" x="148.903753" xlink:href="#m27692eb5fc" y="202.807652"/>
     <use style="stroke:#000000;" x="150.680859" xlink:href="#m27692eb5fc" y="203.787693"/>
     <use style="stroke:#000000;" x="152.457958" xlink:href="#m27692eb5fc" y="204.738735"/>
     <use style="stroke:#000000;" x="154.235064" xlink:href="#m27692eb5fc" y="205.662043"/>
     <use style="stroke:#000000;" x="156.012169" xlink:href="#m27692eb5fc" y="206.558816"/>
     <use style="stroke:#000000;" x="157.789269" xlink:href="#m27692eb5fc" y="207.430181"/>
     <use style="stroke:#000000;" x="159.566374" xlink:href="#m27692eb5fc" y="208.277202"/>
     <use style="stroke:#000000;" x="161.343473" xlink:href="#m27692eb5fc" y="209.100885"/>
     <use style="stroke:#000000;" x="163.120579" xlink:href="#m27692eb5fc" y="209.90218"/>
     <use style="stroke:#000000;" x="164.897685" xlink:href="#m27692eb5fc" y="210.681993"/>
     <use style="stroke:#000000;" x="166.674784" xlink:href="#m27692eb5fc" y="211.44117"/>
     <use style="stroke:#000000;" x="168.451889" xlink:href="#m27692eb5fc" y="212.180524"/>
     <use style="stroke:#000000;" x="170.228989" xlink:href="#m27692eb5fc" y="212.900818"/>
     <use style="stroke:#000000;" x="172.006094" xlink:href="#m27692eb5fc" y="213.602782"/>
     <use style="stroke:#000000;" x="173.7832" xlink:href="#m27692eb5fc" y="214.287105"/>
     <use style="stroke:#000000;" x="175.560299" xlink:href="#m27692eb5fc" y="214.954445"/>
     <use style="stroke:#000000;" x="177.337405" xlink:href="#m27692eb5fc" y="215.605427"/>
     <use style="stroke:#000000;" x="179.114504" xlink:href="#m27692eb5fc" y="216.240644"/>
     <use style="stroke:#000000;" x="180.89161" xlink:href="#m27692eb5fc" y="216.860665"/>
     <use style="stroke:#000000;" x="182.668709" xlink:href="#m27692eb5fc" y="217.466023"/>
     <use style="stroke:#000000;" x="184.445814" xlink:href="#m27692eb5fc" y="218.057236"/>
     <use style="stroke:#000000;" x="186.22292" xlink:href="#m27692eb5fc" y="218.634794"/>
     <use style="stroke:#000000;" x="188.000019" xlink:href="#m27692eb5fc" y="219.199164"/>
     <use style="stroke:#000000;" x="189.777125" xlink:href="#m27692eb5fc" y="219.750792"/>
     <use style="stroke:#000000;" x="191.554224" xlink:href="#m27692eb5fc" y="220.290104"/>
     <use style="stroke:#000000;" x="193.33133" xlink:href="#m27692eb5fc" y="220.817511"/>
     <use style="stroke:#000000;" x="196.023774" xlink:href="#m27692eb5fc" y="221.594752"/>
    </g>
   </g>
   <g id="line2d_14">
    <path clip-path="url(#p3741fddf86)" d="M 66.376477 276.334125 
L 66.378486 276.23021 
L 66.404568 261.228657 
L 66.719492 74.037679 
L 66.914279 63.68331 
L 67.063019 62.824198 
L 67.07525 62.829466 
L 67.177189 63.062414 
L 67.53684 64.723204 
L 69.894103 75.977067 
L 72.21654 85.896144 
L 74.592952 95.021098 
L 76.831846 102.804214 
L 79.070741 109.903573 
L 81.590306 117.18189 
L 84.111489 123.80896 
L 86.632672 129.864585 
L 89.153855 135.419547 
L 91.675038 140.533451 
L 94.196221 145.256845 
L 97.557799 151.02091 
L 100.919376 156.252609 
L 104.313093 161.066264 
L 108.143077 166.008909 
L 111.973061 170.500978 
L 115.803045 174.601851 
L 119.633029 178.360951 
L 123.463013 181.819735 
L 127.292997 185.013233 
L 131.122981 187.97124 
L 134.952965 190.719255 
L 140.721977 194.509719 
L 146.490989 197.935671 
L 152.260002 201.048185 
L 158.029014 203.889181 
L 163.798026 206.493384 
L 169.567039 208.889797 
L 177.259055 211.80343 
L 184.951072 214.438528 
L 193.664829 217.135878 
L 202.378585 219.57124 
L 211.092342 221.781629 
L 219.806099 223.797295 
L 231.424441 226.224494 
L 243.042784 228.39751 
L 254.661126 230.354581 
L 269.299904 232.560081 
L 282.544315 234.343167 
L 300.203529 236.4579 
L 317.862743 238.321286 
L 335.521957 239.975413 
L 357.595975 241.798653 
L 377.570598 243.253378 
L 391.031023 244.144728 
L 391.031023 244.144728 
" style="fill:none;stroke:#0000ff;stroke-linecap:square;stroke-width:1.5;"/>
   </g>
   <g id="line2d_15">
    <path clip-path="url(#p3741fddf86)" d="M 66.376477 276.334125 
L 66.378418 276.23175 
L 66.404201 260.758821 
L 66.722622 62.232113 
L 66.91975 51.433845 
L 67.069483 50.548247 
L 67.081964 50.553571 
L 67.181233 50.779924 
L 67.511757 52.313353 
L 69.969359 64.258238 
L 72.079847 73.501697 
L 74.557659 83.323893 
L 76.89853 91.720492 
L 79.416288 99.925918 
L 81.934045 107.388711 
L 84.451802 114.205097 
L 86.969559 120.455427 
L 89.487316 126.207317 
L 92.005074 131.518074 
L 95.362083 137.996344 
L 98.719093 143.873743 
L 101.668339 148.605152 
L 105.480564 154.198979 
L 109.292788 159.279464 
L 113.105012 163.914581 
L 116.917237 168.16086 
L 120.729461 172.06569 
L 124.541685 175.669084 
L 128.35391 179.005057 
L 132.166134 182.102703 
L 137.272212 185.921425 
L 143.025216 189.828232 
L 148.77822 193.372953 
L 154.531224 196.604593 
L 160.284228 199.563664 
L 166.037232 202.283942 
L 171.790237 204.793809 
L 179.460909 207.853977 
L 186.187927 210.302242 
L 194.862974 213.178961 
L 203.538021 215.782316 
L 212.213067 218.150206 
L 220.888114 220.31373 
L 232.454843 222.924427 
L 244.021572 225.266885 
L 255.588301 227.380833 
L 267.240995 229.311981 
L 280.382513 231.284116 
L 293.524032 233.068237 
L 311.046056 235.198272 
L 328.56808 237.087941 
L 346.090105 238.775569 
L 367.992635 240.646948 
L 387.979796 242.160625 
L 387.979796 242.160625 
" style="fill:none;stroke:#ff0000;stroke-linecap:square;stroke-width:1.5;"/>
   </g>
   <g id="line2d_16">
    <path clip-path="url(#p3741fddf86)" d="M 77.348876 34.414125 
L 77.905818 38.016287 
L 78.46276 41.753838 
L 79.019702 44.99946 
L 79.576643 48.033166 
L 80.133585 51.173335 
L 80.690527 54.442372 
L 81.247469 57.271636 
L 82.201617 62.039313 
L 83.155772 66.596752 
L 83.814356 69.71124 
L 84.472947 72.748556 
L 85.131532 75.695194 
L 85.790117 78.572785 
L 86.448708 81.181528 
L 87.107292 83.711216 
L 87.765877 86.167312 
L 88.424468 88.579874 
L 89.478259 92.33055 
L 90.532049 95.989445 
L 91.31336 98.627063 
L 92.094672 101.119248 
L 92.875983 103.4505 
L 93.657294 105.660783 
L 94.438605 107.873535 
L 95.219916 110.199772 
L 96.001227 112.044847 
L 96.782538 114.033058 
L 97.563849 116.091217 
L 98.34516 118.243018 
L 99.126471 119.948134 
L 99.907782 121.667927 
L 100.689093 123.449924 
L 101.470404 125.301367 
L 102.251716 126.97831 
L 103.033027 128.542061 
L 103.814338 130.072004 
L 104.595649 131.582752 
L 105.37696 133.067218 
L 106.158265 134.532752 
L 106.939576 135.981457 
L 107.720887 137.407555 
L 108.895873 139.502464 
L 110.070853 141.475314 
L 111.245833 143.316403 
L 112.420813 145.088568 
L 113.595793 146.825069 
L 114.770773 148.51299 
L 115.945759 150.185452 
L 117.120739 151.82335 
L 118.295719 153.41924 
L 119.470699 154.88007 
L 120.645679 156.288743 
L 121.820665 157.670315 
L 122.995645 158.958825 
L 124.170625 160.309662 
L 125.345605 161.656244 
L 126.520585 162.869885 
L 127.695571 164.042609 
L 128.870551 165.247946 
L 130.045531 166.464775 
L 131.220511 167.615943 
L 132.395491 168.643856 
L 133.570471 169.70467 
L 134.745458 170.791096 
L 135.920437 171.802405 
L 137.095417 172.788292 
L 138.270397 173.751709 
L 139.445377 174.70247 
L 140.620364 175.642668 
L 141.795344 176.561948 
L 143.572443 177.927394 
L 145.349548 179.244915 
L 147.126654 180.494805 
L 148.903753 181.676222 
L 150.680859 182.83745 
L 152.457958 183.97386 
L 154.235064 185.071239 
L 156.012169 186.164323 
L 157.789269 187.236435 
L 159.566374 188.271447 
L 161.343473 189.245312 
L 163.120579 190.18606 
L 164.897685 191.108505 
L 166.674784 191.990972 
L 168.451889 192.878012 
L 170.228989 193.780184 
L 172.006094 194.611492 
L 173.7832 195.409451 
L 175.560299 196.21733 
L 177.337405 197.028205 
L 179.114504 197.818436 
L 180.89161 198.536636 
L 182.668709 199.261223 
L 184.445814 199.989405 
L 186.22292 200.686907 
L 188.000019 201.369992 
L 189.777125 202.036678 
L 191.554224 202.695743 
L 193.33133 203.345671 
L 196.023774 204.309225 
" style="fill:none;stroke:#0000ff;stroke-dasharray:5.55,2.4;stroke-dashoffset:0;stroke-width:1.5;"/>
   </g>
   <g id="line2d_17">
    <path clip-path="url(#p3741fddf86)" d="M 77.348876 154.280861 
L 77.905818 155.001486 
L 78.46276 155.590608 
L 79.019702 156.372731 
L 79.576643 157.208602 
L 80.133585 157.934217 
L 80.690527 158.53729 
L 81.247469 159.310306 
L 82.201617 160.582986 
L 83.155772 161.830714 
L 83.814356 162.622192 
L 84.472947 163.398585 
L 85.131532 164.169097 
L 85.790117 164.923215 
L 86.448708 165.758224 
L 87.107292 166.588804 
L 87.765877 167.413369 
L 88.424468 168.216089 
L 89.478259 169.450947 
L 90.532049 170.62437 
L 91.31336 171.463558 
L 92.094672 172.328284 
L 92.875983 173.230809 
L 93.657294 174.150111 
L 94.438605 175.014415 
L 95.219916 175.757966 
L 96.001227 176.742366 
L 96.782538 177.591959 
L 97.563849 178.351895 
L 98.34516 179.004916 
L 99.126471 179.888178 
L 99.907782 180.720369 
L 100.689093 181.473124 
L 101.470404 182.142541 
L 102.251716 182.875241 
L 103.033027 183.65943 
L 103.814338 184.405766 
L 104.595649 185.143332 
L 105.37696 185.861274 
L 106.158265 186.551878 
L 106.939576 187.233441 
L 107.720887 187.882654 
L 108.895873 188.842963 
L 110.070853 189.815384 
L 111.245833 190.809351 
L 112.420813 191.787342 
L 113.595793 192.73043 
L 114.770773 193.649262 
L 115.945759 194.524603 
L 117.120739 195.370824 
L 118.295719 196.192085 
L 119.470699 197.052232 
L 120.645679 197.901013 
L 121.820665 198.723769 
L 122.995645 199.565241 
L 124.170625 200.325306 
L 125.345605 201.04886 
L 126.520585 201.821787 
L 127.695571 202.585097 
L 128.870551 203.291727 
L 130.045531 203.956674 
L 131.220511 204.631876 
L 132.395491 205.356392 
L 133.570471 206.025779 
L 134.745458 206.648698 
L 135.920437 207.28624 
L 137.095417 207.925377 
L 138.270397 208.543109 
L 139.445377 209.145941 
L 140.620364 209.736731 
L 141.795344 210.304656 
L 143.572443 211.144702 
L 145.349548 211.964708 
L 147.126654 212.780051 
L 148.903753 213.593464 
L 150.680859 214.374987 
L 152.457958 215.129608 
L 154.235064 215.868576 
L 156.012169 216.568403 
L 157.789269 217.242968 
L 159.566374 217.905754 
L 161.343473 218.574145 
L 163.120579 219.230907 
L 164.897685 219.867502 
L 166.674784 220.499506 
L 168.451889 221.09859 
L 170.228989 221.65887 
L 172.006094 222.23834 
L 173.7832 222.813141 
L 175.560299 223.355601 
L 177.337405 223.871223 
L 179.114504 224.375541 
L 180.89161 224.903342 
L 182.668709 225.404665 
L 184.445814 225.882126 
L 186.22292 226.355098 
L 188.000019 226.827016 
L 189.777125 227.280262 
L 191.554224 227.724939 
L 193.33133 228.158816 
L 196.023774 228.791802 
" style="fill:none;stroke:#0000ff;stroke-dasharray:5.55,2.4;stroke-dashoffset:0;stroke-width:1.5;"/>
   </g>
   <g id="line2d_18"/>
   <g id="line2d_19"/>
   <g id="line2d_20"/>
   <g id="line2d_21"/>
   <g id="line2d_22"/>
   <g id="line2d_23"/>
   <g id="line2d_24"/>
   <g id="patch_3">
    <path d="M 50.14375 288.430125 
L 50.14375 22.318125 
" style="fill:none;stroke:#000000;stroke-linecap:square;stroke-linejoin:miter;stroke-width:0.8;"/>
   </g>
   <g id="patch_4">
    <path d="M 407.26375 288.430125 
L 407.26375 22.318125 
" style="fill:none;stroke:#000000;stroke-linecap:square;stroke-linejoin:miter;stroke-width:0.8;"/>
   </g>
   <g id="patch_5">
    <path d="M 50.14375 288.430125 
L 407.26375 288.430125 
" style="fill:none;stroke:#000000;stroke-linecap:square;stroke-linejoin:miter;stroke-width:0.8;"/>
   </g>
   <g id="patch_6">
    <path d="M 50.14375 22.318125 
L 407.26375 22.318125 
" style="fill:none;stroke:#000000;stroke-linecap:square;stroke-linejoin:miter;stroke-width:0.8;"/>
   </g>
   <g id="text_15">
    <!-- Experiment_49 -->
    <g transform="translate(183.400937 16.318125)scale(0.12 -0.12)">
     <defs>
      <path d="M 9.8125 72.90625 
L 55.90625 72.90625 
L 55.90625 64.59375 
L 19.671875 64.59375 
L 19.671875 43.015625 
L 54.390625 43.015625 
L 54.390625 34.71875 
L 19.671875 34.71875 
L 19.671875 8.296875 
L 56.78125 8.296875 
L 56.78125 0 
L 9.8125 0 
z
" id="DejaVuSans-69"/>
      <path d="M 54.890625 54.6875 
L 35.109375 28.078125 
L 55.90625 0 
L 45.3125 0 
L 29.390625 21.484375 
L 13.484375 0 
L 2.875 0 
L 24.125 28.609375 
L 4.6875 54.6875 
L 15.28125 54.6875 
L 29.78125 35.203125 
L 44.28125 54.6875 
z
" id="DejaVuSans-120"/>
      <path d="M 18.109375 8.203125 
L 18.109375 -20.796875 
L 9.078125 -20.796875 
L 9.078125 54.6875 
L 18.109375 54.6875 
L 18.109375 46.390625 
Q 20.953125 51.265625 25.265625 53.625 
Q 29.59375 56 35.59375 56 
Q 45.5625 56 51.78125 48.09375 
Q 58.015625 40.1875 58.015625 27.296875 
Q 58.015625 14.40625 51.78125 6.484375 
Q 45.5625 -1.421875 35.59375 -1.421875 
Q 29.59375 -1.421875 25.265625 0.953125 
Q 20.953125 3.328125 18.109375 8.203125 
z
M 48.6875 27.296875 
Q 48.6875 37.203125 44.609375 42.84375 
Q 40.53125 48.484375 33.40625 48.484375 
Q 26.265625 48.484375 22.1875 42.84375 
Q 18.109375 37.203125 18.109375 27.296875 
Q 18.109375 17.390625 22.1875 11.75 
Q 26.265625 6.109375 33.40625 6.109375 
Q 40.53125 6.109375 44.609375 11.75 
Q 48.6875 17.390625 48.6875 27.296875 
z
" id="DejaVuSans-112"/>
      <path d="M 18.3125 70.21875 
L 18.3125 54.6875 
L 36.8125 54.6875 
L 36.8125 47.703125 
L 18.3125 47.703125 
L 18.3125 18.015625 
Q 18.3125 11.328125 20.140625 9.421875 
Q 21.96875 7.515625 27.59375 7.515625 
L 36.8125 7.515625 
L 36.8125 0 
L 27.59375 0 
Q 17.1875 0 13.234375 3.875 
Q 9.28125 7.765625 9.28125 18.015625 
L 9.28125 47.703125 
L 2.6875 47.703125 
L 2.6875 54.6875 
L 9.28125 54.6875 
L 9.28125 70.21875 
z
" id="DejaVuSans-116"/>
      <path d="M 50.984375 -16.609375 
L 50.984375 -23.578125 
L -0.984375 -23.578125 
L -0.984375 -16.609375 
z
" id="DejaVuSans-95"/>
      <path d="M 10.984375 1.515625 
L 10.984375 10.5 
Q 14.703125 8.734375 18.5 7.8125 
Q 22.3125 6.890625 25.984375 6.890625 
Q 35.75 6.890625 40.890625 13.453125 
Q 46.046875 20.015625 46.78125 33.40625 
Q 43.953125 29.203125 39.59375 26.953125 
Q 35.25 24.703125 29.984375 24.703125 
Q 19.046875 24.703125 12.671875 31.3125 
Q 6.296875 37.9375 6.296875 49.421875 
Q 6.296875 60.640625 12.9375 67.421875 
Q 19.578125 74.21875 30.609375 74.21875 
Q 43.265625 74.21875 49.921875 64.515625 
Q 56.59375 54.828125 56.59375 36.375 
Q 56.59375 19.140625 48.40625 8.859375 
Q 40.234375 -1.421875 26.421875 -1.421875 
Q 22.703125 -1.421875 18.890625 -0.6875 
Q 15.09375 0.046875 10.984375 1.515625 
z
M 30.609375 32.421875 
Q 37.25 32.421875 41.125 36.953125 
Q 45.015625 41.5 45.015625 49.421875 
Q 45.015625 57.28125 41.125 61.84375 
Q 37.25 66.40625 30.609375 66.40625 
Q 23.96875 66.40625 20.09375 61.84375 
Q 16.21875 57.28125 16.21875 49.421875 
Q 16.21875 41.5 20.09375 36.953125 
Q 23.96875 32.421875 30.609375 32.421875 
z
" id="DejaVuSans-57"/>
     </defs>
     <use xlink:href="#DejaVuSans-69"/>
     <use x="63.183594" xlink:href="#DejaVuSans-120"/>
     <use x="122.363281" xlink:href="#DejaVuSans-112"/>
     <use x="185.839844" xlink:href="#DejaVuSans-101"/>
     <use x="247.363281" xlink:href="#DejaVuSans-114"/>
     <use x="288.476562" xlink:href="#DejaVuSans-105"/>
     <use x="316.259766" xlink:href="#DejaVuSans-109"/>
     <use x="413.671875" xlink:href="#DejaVuSans-101"/>
     <use x="475.195312" xlink:href="#DejaVuSans-110"/>
     <use x="538.574219" xlink:href="#DejaVuSans-116"/>
     <use x="577.783203" xlink:href="#DejaVuSans-95"/>
     <use x="627.783203" xlink:href="#DejaVuSans-52"/>
     <use x="691.40625" xlink:href="#DejaVuSans-57"/>
    </g>
   </g>
   <g id="legend_1">
    <g id="patch_7">
     <path d="M 53.290312 193.580375 
L 400.26375 193.580375 
Q 402.26375 193.580375 402.26375 191.580375 
L 402.26375 119.167875 
Q 402.26375 117.167875 400.26375 117.167875 
L 53.290312 117.167875 
Q 51.290312 117.167875 51.290312 119.167875 
L 51.290312 191.580375 
Q 51.290312 193.580375 53.290312 193.580375 
z
" style="fill:#ffffff;opacity:0.8;stroke:#cccccc;stroke-linejoin:miter;"/>
    </g>
    <g id="line2d_25"/>
    <g id="line2d_26">
     <g>
      <use style="stroke:#000000;" x="65.290312" xlink:href="#m27692eb5fc" y="125.266312"/>
     </g>
    </g>
    <g id="text_16">
     <!-- Experimental Data -->
     <g transform="translate(83.290312 128.766312)scale(0.1 -0.1)">
      <defs>
       <path d="M 9.421875 75.984375 
L 18.40625 75.984375 
L 18.40625 0 
L 9.421875 0 
z
" id="DejaVuSans-108"/>
       <path d="M 19.671875 64.796875 
L 19.671875 8.109375 
L 31.59375 8.109375 
Q 46.6875 8.109375 53.6875 14.9375 
Q 60.6875 21.78125 60.6875 36.53125 
Q 60.6875 51.171875 53.6875 57.984375 
Q 46.6875 64.796875 31.59375 64.796875 
z
M 9.8125 72.90625 
L 30.078125 72.90625 
Q 51.265625 72.90625 61.171875 64.09375 
Q 71.09375 55.28125 71.09375 36.53125 
Q 71.09375 17.671875 61.125 8.828125 
Q 51.171875 0 30.078125 0 
L 9.8125 0 
z
" id="DejaVuSans-68"/>
      </defs>
      <use xlink:href="#DejaVuSans-69"/>
      <use x="63.183594" xlink:href="#DejaVuSans-120"/>
      <use x="122.363281" xlink:href="#DejaVuSans-112"/>
      <use x="185.839844" xlink:href="#DejaVuSans-101"/>
      <use x="247.363281" xlink:href="#DejaVuSans-114"/>
      <use x="288.476562" xlink:href="#DejaVuSans-105"/>
      <use x="316.259766" xlink:href="#DejaVuSans-109"/>
      <use x="413.671875" xlink:href="#DejaVuSans-101"/>
      <use x="475.195312" xlink:href="#DejaVuSans-110"/>
      <use x="538.574219" xlink:href="#DejaVuSans-116"/>
      <use x="577.783203" xlink:href="#DejaVuSans-97"/>
      <use x="639.0625" xlink:href="#DejaVuSans-108"/>
      <use x="666.845703" xlink:href="#DejaVuSans-32"/>
      <use x="698.632812" xlink:href="#DejaVuSans-68"/>
      <use x="775.634766" xlink:href="#DejaVuSans-97"/>
      <use x="836.914062" xlink:href="#DejaVuSans-116"/>
      <use x="876.123047" xlink:href="#DejaVuSans-97"/>
     </g>
    </g>
    <g id="line2d_27">
     <path d="M 55.290312 139.944437 
L 75.290312 139.944437 
" style="fill:none;stroke:#0000ff;stroke-linecap:square;stroke-width:1.5;"/>
    </g>
    <g id="line2d_28"/>
    <g id="text_17">
     <!-- MSI -->
     <g transform="translate(83.290312 143.444437)scale(0.1 -0.1)">
      <defs>
       <path d="M 9.8125 72.90625 
L 24.515625 72.90625 
L 43.109375 23.296875 
L 61.8125 72.90625 
L 76.515625 72.90625 
L 76.515625 0 
L 66.890625 0 
L 66.890625 64.015625 
L 48.09375 14.015625 
L 38.1875 14.015625 
L 19.390625 64.015625 
L 19.390625 0 
L 9.8125 0 
z
" id="DejaVuSans-77"/>
       <path d="M 53.515625 70.515625 
L 53.515625 60.890625 
Q 47.90625 63.578125 42.921875 64.890625 
Q 37.9375 66.21875 33.296875 66.21875 
Q 25.25 66.21875 20.875 63.09375 
Q 16.5 59.96875 16.5 54.203125 
Q 16.5 49.359375 19.40625 46.890625 
Q 22.3125 44.4375 30.421875 42.921875 
L 36.375 41.703125 
Q 47.40625 39.59375 52.65625 34.296875 
Q 57.90625 29 57.90625 20.125 
Q 57.90625 9.515625 50.796875 4.046875 
Q 43.703125 -1.421875 29.984375 -1.421875 
Q 24.8125 -1.421875 18.96875 -0.25 
Q 13.140625 0.921875 6.890625 3.21875 
L 6.890625 13.375 
Q 12.890625 10.015625 18.65625 8.296875 
Q 24.421875 6.59375 29.984375 6.59375 
Q 38.421875 6.59375 43.015625 9.90625 
Q 47.609375 13.234375 47.609375 19.390625 
Q 47.609375 24.75 44.3125 27.78125 
Q 41.015625 30.8125 33.5 32.328125 
L 27.484375 33.5 
Q 16.453125 35.6875 11.515625 40.375 
Q 6.59375 45.0625 6.59375 53.421875 
Q 6.59375 63.09375 13.40625 68.65625 
Q 20.21875 74.21875 32.171875 74.21875 
Q 37.3125 74.21875 42.625 73.28125 
Q 47.953125 72.359375 53.515625 70.515625 
z
" id="DejaVuSans-83"/>
       <path d="M 9.8125 72.90625 
L 19.671875 72.90625 
L 19.671875 0 
L 9.8125 0 
z
" id="DejaVuSans-73"/>
      </defs>
      <use xlink:href="#DejaVuSans-77"/>
      <use x="86.279297" xlink:href="#DejaVuSans-83"/>
      <use x="149.755859" xlink:href="#DejaVuSans-73"/>
     </g>
    </g>
    <g id="line2d_29">
     <path d="M 55.290312 154.624125 
L 75.290312 154.624125 
" style="fill:none;stroke:#ff0000;stroke-linecap:square;stroke-width:1.5;"/>
    </g>
    <g id="line2d_30"/>
    <g id="text_18">
     <!-- $\it{A priori}$ model -->
     <g transform="translate(83.290312 158.124125)scale(0.1 -0.1)">
      <defs>
       <path d="M 36.8125 72.90625 
L 48 72.90625 
L 61.53125 0 
L 51.21875 0 
L 48.1875 18.703125 
L 15.375 18.703125 
L 5.078125 0 
L -5.328125 0 
z
M 40.375 63.1875 
L 19.921875 26.90625 
L 46.6875 26.90625 
z
" id="DejaVuSans-Oblique-65"/>
       <path d="M 49.609375 33.6875 
Q 49.609375 40.875 46.484375 44.671875 
Q 43.359375 48.484375 37.5 48.484375 
Q 33.5 48.484375 29.859375 46.4375 
Q 26.21875 44.390625 23.390625 40.484375 
Q 20.609375 36.625 18.9375 31.15625 
Q 17.28125 25.6875 17.28125 20.3125 
Q 17.28125 13.484375 20.40625 9.796875 
Q 23.53125 6.109375 29.296875 6.109375 
Q 33.546875 6.109375 37.1875 8.109375 
Q 40.828125 10.109375 43.40625 13.921875 
Q 46.1875 17.921875 47.890625 23.34375 
Q 49.609375 28.765625 49.609375 33.6875 
z
M 21.78125 46.390625 
Q 25.390625 51.125 30.296875 53.5625 
Q 35.203125 56 41.21875 56 
Q 49.609375 56 54.25 50.5 
Q 58.890625 45.015625 58.890625 35.109375 
Q 58.890625 27 56 19.65625 
Q 53.125 12.3125 47.703125 6.5 
Q 44.09375 2.640625 39.546875 0.609375 
Q 35.015625 -1.421875 29.984375 -1.421875 
Q 24.171875 -1.421875 20.21875 1 
Q 16.265625 3.421875 14.3125 8.203125 
L 8.6875 -20.796875 
L -0.296875 -20.796875 
L 14.40625 54.6875 
L 23.390625 54.6875 
z
" id="DejaVuSans-Oblique-112"/>
       <path d="M 44.578125 46.390625 
Q 43.21875 47.125 41.453125 47.515625 
Q 39.703125 47.90625 37.703125 47.90625 
Q 30.515625 47.90625 25.140625 42.453125 
Q 19.78125 37.015625 18.015625 27.875 
L 12.5 0 
L 3.515625 0 
L 14.203125 54.6875 
L 23.1875 54.6875 
L 21.484375 46.1875 
Q 25.046875 50.921875 30 53.453125 
Q 34.96875 56 40.578125 56 
Q 42.046875 56 43.453125 55.828125 
Q 44.875 55.671875 46.296875 55.28125 
z
" id="DejaVuSans-Oblique-114"/>
       <path d="M 18.3125 75.984375 
L 27.296875 75.984375 
L 25.09375 64.59375 
L 16.109375 64.59375 
z
M 14.203125 54.6875 
L 23.1875 54.6875 
L 12.5 0 
L 3.515625 0 
z
" id="DejaVuSans-Oblique-105"/>
       <path d="M 25.390625 -1.421875 
Q 15.765625 -1.421875 10.171875 4.515625 
Q 4.59375 10.453125 4.59375 20.703125 
Q 4.59375 26.65625 6.515625 32.828125 
Q 8.453125 39.015625 11.53125 43.21875 
Q 16.359375 49.75 22.3125 52.875 
Q 28.265625 56 35.796875 56 
Q 45.125 56 50.859375 50.1875 
Q 56.59375 44.390625 56.59375 35.015625 
Q 56.59375 28.515625 54.6875 22.0625 
Q 52.78125 15.625 49.703125 11.375 
Q 44.921875 4.828125 38.96875 1.703125 
Q 33.015625 -1.421875 25.390625 -1.421875 
z
M 13.921875 21 
Q 13.921875 13.578125 17.015625 9.890625 
Q 20.125 6.203125 26.421875 6.203125 
Q 35.453125 6.203125 41.375 14.078125 
Q 47.3125 21.96875 47.3125 34.078125 
Q 47.3125 41.15625 44.140625 44.765625 
Q 40.96875 48.390625 34.8125 48.390625 
Q 29.734375 48.390625 25.78125 46.015625 
Q 21.828125 43.65625 18.703125 38.8125 
Q 16.40625 35.203125 15.15625 30.5625 
Q 13.921875 25.921875 13.921875 21 
z
" id="DejaVuSans-Oblique-111"/>
       <path d="M 45.40625 46.390625 
L 45.40625 75.984375 
L 54.390625 75.984375 
L 54.390625 0 
L 45.40625 0 
L 45.40625 8.203125 
Q 42.578125 3.328125 38.25 0.953125 
Q 33.9375 -1.421875 27.875 -1.421875 
Q 17.96875 -1.421875 11.734375 6.484375 
Q 5.515625 14.40625 5.515625 27.296875 
Q 5.515625 40.1875 11.734375 48.09375 
Q 17.96875 56 27.875 56 
Q 33.9375 56 38.25 53.625 
Q 42.578125 51.265625 45.40625 46.390625 
z
M 14.796875 27.296875 
Q 14.796875 17.390625 18.875 11.75 
Q 22.953125 6.109375 30.078125 6.109375 
Q 37.203125 6.109375 41.296875 11.75 
Q 45.40625 17.390625 45.40625 27.296875 
Q 45.40625 37.203125 41.296875 42.84375 
Q 37.203125 48.484375 30.078125 48.484375 
Q 22.953125 48.484375 18.875 42.84375 
Q 14.796875 37.203125 14.796875 27.296875 
z
" id="DejaVuSans-100"/>
      </defs>
      <use transform="translate(0 0.015625)" xlink:href="#DejaVuSans-Oblique-65"/>
      <use transform="translate(68.408203 0.015625)" xlink:href="#DejaVuSans-Oblique-112"/>
      <use transform="translate(131.884766 0.015625)" xlink:href="#DejaVuSans-Oblique-114"/>
      <use transform="translate(172.998047 0.015625)" xlink:href="#DejaVuSans-Oblique-105"/>
      <use transform="translate(200.78125 0.015625)" xlink:href="#DejaVuSans-Oblique-111"/>
      <use transform="translate(261.962891 0.015625)" xlink:href="#DejaVuSans-Oblique-114"/>
      <use transform="translate(303.076172 0.015625)" xlink:href="#DejaVuSans-Oblique-105"/>
      <use transform="translate(330.859375 0.015625)" xlink:href="#DejaVuSans-32"/>
      <use transform="translate(362.646484 0.015625)" xlink:href="#DejaVuSans-109"/>
      <use transform="translate(460.058594 0.015625)" xlink:href="#DejaVuSans-111"/>
      <use transform="translate(521.240234 0.015625)" xlink:href="#DejaVuSans-100"/>
      <use transform="translate(584.716797 0.015625)" xlink:href="#DejaVuSans-101"/>
      <use transform="translate(646.240234 0.015625)" xlink:href="#DejaVuSans-108"/>
     </g>
    </g>
    <g id="line2d_31">
     <path d="M 55.290312 169.322562 
L 75.290312 169.322562 
" style="fill:none;stroke:#ffffff;stroke-linecap:square;stroke-width:1.5;"/>
    </g>
    <g id="line2d_32"/>
    <g id="text_19">
     <!-- T:298.0 -->
     <g transform="translate(83.290312 172.822562)scale(0.1 -0.1)">
      <defs>
       <path d="M 11.71875 12.40625 
L 22.015625 12.40625 
L 22.015625 0 
L 11.71875 0 
z
M 11.71875 51.703125 
L 22.015625 51.703125 
L 22.015625 39.3125 
L 11.71875 39.3125 
z
" id="DejaVuSans-58"/>
      </defs>
      <use xlink:href="#DejaVuSans-84"/>
      <use x="50.083984" xlink:href="#DejaVuSans-58"/>
      <use x="83.775391" xlink:href="#DejaVuSans-50"/>
      <use x="147.398438" xlink:href="#DejaVuSans-57"/>
      <use x="211.021484" xlink:href="#DejaVuSans-56"/>
      <use x="274.644531" xlink:href="#DejaVuSans-46"/>
      <use x="306.431641" xlink:href="#DejaVuSans-48"/>
     </g>
    </g>
    <g id="line2d_33">
     <path d="M 55.290312 184.000687 
L 75.290312 184.000687 
" style="fill:none;stroke:#ffffff;stroke-linecap:square;stroke-width:1.5;"/>
    </g>
    <g id="line2d_34"/>
    <g id="text_20">
     <!-- P:0.131578947 -->
     <g transform="translate(83.290312 187.500687)scale(0.1 -0.1)">
      <defs>
       <path d="M 19.671875 64.796875 
L 19.671875 37.40625 
L 32.078125 37.40625 
Q 38.96875 37.40625 42.71875 40.96875 
Q 46.484375 44.53125 46.484375 51.125 
Q 46.484375 57.671875 42.71875 61.234375 
Q 38.96875 64.796875 32.078125 64.796875 
z
M 9.8125 72.90625 
L 32.078125 72.90625 
Q 44.34375 72.90625 50.609375 67.359375 
Q 56.890625 61.8125 56.890625 51.125 
Q 56.890625 40.328125 50.609375 34.8125 
Q 44.34375 29.296875 32.078125 29.296875 
L 19.671875 29.296875 
L 19.671875 0 
L 9.8125 0 
z
" id="DejaVuSans-80"/>
      </defs>
      <use xlink:href="#DejaVuSans-80"/>
      <use x="60.302734" xlink:href="#DejaVuSans-58"/>
      <use x="93.994141" xlink:href="#DejaVuSans-48"/>
      <use x="157.617188" xlink:href="#DejaVuSans-46"/>
      <use x="189.404297" xlink:href="#DejaVuSans-49"/>
      <use x="253.027344" xlink:href="#DejaVuSans-51"/>
      <use x="316.650391" xlink:href="#DejaVuSans-49"/>
      <use x="380.273438" xlink:href="#DejaVuSans-53"/>
      <use x="443.896484" xlink:href="#DejaVuSans-55"/>
      <use x="507.519531" xlink:href="#DejaVuSans-56"/>
      <use x="571.142578" xlink:href="#DejaVuSans-57"/>
      <use x="634.765625" xlink:href="#DejaVuSans-52"/>
      <use x="698.388672" xlink:href="#DejaVuSans-55"/>
     </g>
    </g>
    <g id="line2d_35">
     <path d="M 197.030937 125.266312 
L 217.030937 125.266312 
" style="fill:none;stroke:#ffffff;stroke-linecap:square;stroke-width:1.5;"/>
    </g>
    <g id="line2d_36"/>
    <g id="text_21">
     <!-- Cl: 1.62e-05 -->
     <g transform="translate(225.030937 128.766312)scale(0.1 -0.1)">
      <defs>
       <path d="M 64.40625 67.28125 
L 64.40625 56.890625 
Q 59.421875 61.53125 53.78125 63.8125 
Q 48.140625 66.109375 41.796875 66.109375 
Q 29.296875 66.109375 22.65625 58.46875 
Q 16.015625 50.828125 16.015625 36.375 
Q 16.015625 21.96875 22.65625 14.328125 
Q 29.296875 6.6875 41.796875 6.6875 
Q 48.140625 6.6875 53.78125 8.984375 
Q 59.421875 11.28125 64.40625 15.921875 
L 64.40625 5.609375 
Q 59.234375 2.09375 53.4375 0.328125 
Q 47.65625 -1.421875 41.21875 -1.421875 
Q 24.65625 -1.421875 15.125 8.703125 
Q 5.609375 18.84375 5.609375 36.375 
Q 5.609375 53.953125 15.125 64.078125 
Q 24.65625 74.21875 41.21875 74.21875 
Q 47.75 74.21875 53.53125 72.484375 
Q 59.328125 70.75 64.40625 67.28125 
z
" id="DejaVuSans-67"/>
       <path d="M 4.890625 31.390625 
L 31.203125 31.390625 
L 31.203125 23.390625 
L 4.890625 23.390625 
z
" id="DejaVuSans-45"/>
      </defs>
      <use xlink:href="#DejaVuSans-67"/>
      <use x="69.824219" xlink:href="#DejaVuSans-108"/>
      <use x="97.607422" xlink:href="#DejaVuSans-58"/>
      <use x="131.298828" xlink:href="#DejaVuSans-32"/>
      <use x="163.085938" xlink:href="#DejaVuSans-49"/>
      <use x="226.708984" xlink:href="#DejaVuSans-46"/>
      <use x="258.496094" xlink:href="#DejaVuSans-54"/>
      <use x="322.119141" xlink:href="#DejaVuSans-50"/>
      <use x="385.742188" xlink:href="#DejaVuSans-101"/>
      <use x="447.265625" xlink:href="#DejaVuSans-45"/>
      <use x="483.349609" xlink:href="#DejaVuSans-48"/>
      <use x="546.972656" xlink:href="#DejaVuSans-53"/>
     </g>
    </g>
    <g id="line2d_37">
     <path d="M 197.030937 139.944437 
L 217.030937 139.944437 
" style="fill:none;stroke:#ffffff;stroke-linecap:square;stroke-width:1.5;"/>
    </g>
    <g id="line2d_38"/>
    <g id="text_22">
     <!-- Cl2: 0.002545447813691732 -->
     <g transform="translate(225.030937 143.444437)scale(0.1 -0.1)">
      <use xlink:href="#DejaVuSans-67"/>
      <use x="69.824219" xlink:href="#DejaVuSans-108"/>
      <use x="97.607422" xlink:href="#DejaVuSans-50"/>
      <use x="161.230469" xlink:href="#DejaVuSans-58"/>
      <use x="194.921875" xlink:href="#DejaVuSans-32"/>
      <use x="226.708984" xlink:href="#DejaVuSans-48"/>
      <use x="290.332031" xlink:href="#DejaVuSans-46"/>
      <use x="322.119141" xlink:href="#DejaVuSans-48"/>
      <use x="385.742188" xlink:href="#DejaVuSans-48"/>
      <use x="449.365234" xlink:href="#DejaVuSans-50"/>
      <use x="512.988281" xlink:href="#DejaVuSans-53"/>
      <use x="576.611328" xlink:href="#DejaVuSans-52"/>
      <use x="640.234375" xlink:href="#DejaVuSans-53"/>
      <use x="703.857422" xlink:href="#DejaVuSans-52"/>
      <use x="767.480469" xlink:href="#DejaVuSans-52"/>
      <use x="831.103516" xlink:href="#DejaVuSans-55"/>
      <use x="894.726562" xlink:href="#DejaVuSans-56"/>
      <use x="958.349609" xlink:href="#DejaVuSans-49"/>
      <use x="1021.972656" xlink:href="#DejaVuSans-51"/>
      <use x="1085.595703" xlink:href="#DejaVuSans-54"/>
      <use x="1149.21875" xlink:href="#DejaVuSans-57"/>
      <use x="1212.841797" xlink:href="#DejaVuSans-49"/>
      <use x="1276.464844" xlink:href="#DejaVuSans-55"/>
      <use x="1340.087891" xlink:href="#DejaVuSans-51"/>
      <use x="1403.710938" xlink:href="#DejaVuSans-50"/>
     </g>
    </g>
    <g id="line2d_39">
     <path d="M 197.030937 154.622562 
L 217.030937 154.622562 
" style="fill:none;stroke:#ffffff;stroke-linecap:square;stroke-width:1.5;"/>
    </g>
    <g id="line2d_40"/>
    <g id="text_23">
     <!-- CH3OH: 0.0009256173867969936 -->
     <g transform="translate(225.030937 158.122562)scale(0.1 -0.1)">
      <defs>
       <path d="M 9.8125 72.90625 
L 19.671875 72.90625 
L 19.671875 43.015625 
L 55.515625 43.015625 
L 55.515625 72.90625 
L 65.375 72.90625 
L 65.375 0 
L 55.515625 0 
L 55.515625 34.71875 
L 19.671875 34.71875 
L 19.671875 0 
L 9.8125 0 
z
" id="DejaVuSans-72"/>
       <path d="M 39.40625 66.21875 
Q 28.65625 66.21875 22.328125 58.203125 
Q 16.015625 50.203125 16.015625 36.375 
Q 16.015625 22.609375 22.328125 14.59375 
Q 28.65625 6.59375 39.40625 6.59375 
Q 50.140625 6.59375 56.421875 14.59375 
Q 62.703125 22.609375 62.703125 36.375 
Q 62.703125 50.203125 56.421875 58.203125 
Q 50.140625 66.21875 39.40625 66.21875 
z
M 39.40625 74.21875 
Q 54.734375 74.21875 63.90625 63.9375 
Q 73.09375 53.65625 73.09375 36.375 
Q 73.09375 19.140625 63.90625 8.859375 
Q 54.734375 -1.421875 39.40625 -1.421875 
Q 24.03125 -1.421875 14.8125 8.828125 
Q 5.609375 19.09375 5.609375 36.375 
Q 5.609375 53.65625 14.8125 63.9375 
Q 24.03125 74.21875 39.40625 74.21875 
z
" id="DejaVuSans-79"/>
      </defs>
      <use xlink:href="#DejaVuSans-67"/>
      <use x="69.824219" xlink:href="#DejaVuSans-72"/>
      <use x="145.019531" xlink:href="#DejaVuSans-51"/>
      <use x="208.642578" xlink:href="#DejaVuSans-79"/>
      <use x="287.353516" xlink:href="#DejaVuSans-72"/>
      <use x="362.548828" xlink:href="#DejaVuSans-58"/>
      <use x="396.240234" xlink:href="#DejaVuSans-32"/>
      <use x="428.027344" xlink:href="#DejaVuSans-48"/>
      <use x="491.650391" xlink:href="#DejaVuSans-46"/>
      <use x="523.4375" xlink:href="#DejaVuSans-48"/>
      <use x="587.060547" xlink:href="#DejaVuSans-48"/>
      <use x="650.683594" xlink:href="#DejaVuSans-48"/>
      <use x="714.306641" xlink:href="#DejaVuSans-57"/>
      <use x="777.929688" xlink:href="#DejaVuSans-50"/>
      <use x="841.552734" xlink:href="#DejaVuSans-53"/>
      <use x="905.175781" xlink:href="#DejaVuSans-54"/>
      <use x="968.798828" xlink:href="#DejaVuSans-49"/>
      <use x="1032.421875" xlink:href="#DejaVuSans-55"/>
      <use x="1096.044922" xlink:href="#DejaVuSans-51"/>
      <use x="1159.667969" xlink:href="#DejaVuSans-56"/>
      <use x="1223.291016" xlink:href="#DejaVuSans-54"/>
      <use x="1286.914062" xlink:href="#DejaVuSans-55"/>
      <use x="1350.537109" xlink:href="#DejaVuSans-57"/>
      <use x="1414.160156" xlink:href="#DejaVuSans-54"/>
      <use x="1477.783203" xlink:href="#DejaVuSans-57"/>
      <use x="1541.40625" xlink:href="#DejaVuSans-57"/>
      <use x="1605.029297" xlink:href="#DejaVuSans-51"/>
      <use x="1668.652344" xlink:href="#DejaVuSans-54"/>
     </g>
    </g>
    <g id="line2d_41">
     <path d="M 197.030937 169.300687 
L 217.030937 169.300687 
" style="fill:none;stroke:#ffffff;stroke-linecap:square;stroke-width:1.5;"/>
    </g>
    <g id="line2d_42"/>
    <g id="text_24">
     <!-- O2: 0.08484826045639109 -->
     <g transform="translate(225.030937 172.800687)scale(0.1 -0.1)">
      <use xlink:href="#DejaVuSans-79"/>
      <use x="78.710938" xlink:href="#DejaVuSans-50"/>
      <use x="142.333984" xlink:href="#DejaVuSans-58"/>
      <use x="176.025391" xlink:href="#DejaVuSans-32"/>
      <use x="207.8125" xlink:href="#DejaVuSans-48"/>
      <use x="271.435547" xlink:href="#DejaVuSans-46"/>
      <use x="303.222656" xlink:href="#DejaVuSans-48"/>
      <use x="366.845703" xlink:href="#DejaVuSans-56"/>
      <use x="430.46875" xlink:href="#DejaVuSans-52"/>
      <use x="494.091797" xlink:href="#DejaVuSans-56"/>
      <use x="557.714844" xlink:href="#DejaVuSans-52"/>
      <use x="621.337891" xlink:href="#DejaVuSans-56"/>
      <use x="684.960938" xlink:href="#DejaVuSans-50"/>
      <use x="748.583984" xlink:href="#DejaVuSans-54"/>
      <use x="812.207031" xlink:href="#DejaVuSans-48"/>
      <use x="875.830078" xlink:href="#DejaVuSans-52"/>
      <use x="939.453125" xlink:href="#DejaVuSans-53"/>
      <use x="1003.076172" xlink:href="#DejaVuSans-54"/>
      <use x="1066.699219" xlink:href="#DejaVuSans-51"/>
      <use x="1130.322266" xlink:href="#DejaVuSans-57"/>
      <use x="1193.945312" xlink:href="#DejaVuSans-49"/>
      <use x="1257.568359" xlink:href="#DejaVuSans-48"/>
      <use x="1321.191406" xlink:href="#DejaVuSans-57"/>
     </g>
    </g>
    <g id="line2d_43">
     <path d="M 197.030937 183.978812 
L 217.030937 183.978812 
" style="fill:none;stroke:#ffffff;stroke-linecap:square;stroke-width:1.5;"/>
    </g>
    <g id="line2d_44"/>
    <g id="text_25">
     <!-- Ar: 0.9116644743431201 -->
     <g transform="translate(225.030937 187.478812)scale(0.1 -0.1)">
      <use xlink:href="#DejaVuSans-65"/>
      <use x="68.408203" xlink:href="#DejaVuSans-114"/>
      <use x="107.771484" xlink:href="#DejaVuSans-58"/>
      <use x="141.462891" xlink:href="#DejaVuSans-32"/>
      <use x="173.25" xlink:href="#DejaVuSans-48"/>
      <use x="236.873047" xlink:href="#DejaVuSans-46"/>
      <use x="268.660156" xlink:href="#DejaVuSans-57"/>
      <use x="332.283203" xlink:href="#DejaVuSans-49"/>
      <use x="395.90625" xlink:href="#DejaVuSans-49"/>
      <use x="459.529297" xlink:href="#DejaVuSans-54"/>
      <use x="523.152344" xlink:href="#DejaVuSans-54"/>
      <use x="586.775391" xlink:href="#DejaVuSans-52"/>
      <use x="650.398438" xlink:href="#DejaVuSans-52"/>
      <use x="714.021484" xlink:href="#DejaVuSans-55"/>
      <use x="777.644531" xlink:href="#DejaVuSans-52"/>
      <use x="841.267578" xlink:href="#DejaVuSans-51"/>
      <use x="904.890625" xlink:href="#DejaVuSans-52"/>
      <use x="968.513672" xlink:href="#DejaVuSans-51"/>
      <use x="1032.136719" xlink:href="#DejaVuSans-49"/>
      <use x="1095.759766" xlink:href="#DejaVuSans-50"/>
      <use x="1159.382812" xlink:href="#DejaVuSans-48"/>
      <use x="1223.005859" xlink:href="#DejaVuSans-49"/>
     </g>
    </g>
   </g>
  </g>
 </g>
 <defs>
  <clipPath id="p3741fddf86">
   <rect height="266.112" width="357.12" x="50.14375" y="22.318125"/>
  </clipPath>
 </defs>
</svg>
