<?xml version="1.0" encoding="utf-8" standalone="no"?>
<!DOCTYPE svg PUBLIC "-//W3C//DTD SVG 1.1//EN"
  "http://www.w3.org/Graphics/SVG/1.1/DTD/svg11.dtd">
<!-- Created with matplotlib (https://matplotlib.org/) -->
<svg height="325.986375pt" version="1.1" viewBox="0 0 408.10125 325.986375" width="408.10125pt" xmlns="http://www.w3.org/2000/svg" xmlns:xlink="http://www.w3.org/1999/xlink">
 <metadata>
  <rdf:RDF xmlns:cc="http://creativecommons.org/ns#" xmlns:dc="http://purl.org/dc/elements/1.1/" xmlns:rdf="http://www.w3.org/1999/02/22-rdf-syntax-ns#">
   <cc:Work>
    <dc:type rdf:resource="http://purl.org/dc/dcmitype/StillImage"/>
    <dc:date>2023-01-07T18:51:46.188967</dc:date>
    <dc:format>image/svg+xml</dc:format>
    <dc:creator>
     <cc:Agent>
      <dc:title>Matplotlib v3.3.1, https://matplotlib.org/</dc:title>
     </cc:Agent>
    </dc:creator>
   </cc:Work>
  </rdf:RDF>
 </metadata>
 <defs>
  <style type="text/css">*{stroke-linecap:butt;stroke-linejoin:round;}</style>
 </defs>
 <g id="figure_1">
  <g id="patch_1">
   <path d="M 0 325.986375 
L 408.10125 325.986375 
L 408.10125 0 
L 0 0 
z
" style="fill:none;"/>
  </g>
  <g id="axes_1">
   <g id="patch_2">
    <path d="M 43.78125 288.430125 
L 400.90125 288.430125 
L 400.90125 22.318125 
L 43.78125 22.318125 
z
" style="fill:none;"/>
   </g>
   <g id="matplotlib.axis_1">
    <g id="xtick_1">
     <g id="line2d_1">
      <defs>
       <path d="M 0 0 
L 0 3.5 
" id="mf8a50733fa" style="stroke:#000000;stroke-width:0.8;"/>
      </defs>
      <g>
       <use style="stroke:#000000;stroke-width:0.8;" x="60.013977" xlink:href="#mf8a50733fa" y="288.430125"/>
      </g>
     </g>
     <g id="text_1">
      <!-- 0.0 -->
      <g transform="translate(52.062415 303.028562)scale(0.1 -0.1)">
       <defs>
        <path d="M 31.78125 66.40625 
Q 24.171875 66.40625 20.328125 58.90625 
Q 16.5 51.421875 16.5 36.375 
Q 16.5 21.390625 20.328125 13.890625 
Q 24.171875 6.390625 31.78125 6.390625 
Q 39.453125 6.390625 43.28125 13.890625 
Q 47.125 21.390625 47.125 36.375 
Q 47.125 51.421875 43.28125 58.90625 
Q 39.453125 66.40625 31.78125 66.40625 
z
M 31.78125 74.21875 
Q 44.046875 74.21875 50.515625 64.515625 
Q 56.984375 54.828125 56.984375 36.375 
Q 56.984375 17.96875 50.515625 8.265625 
Q 44.046875 -1.421875 31.78125 -1.421875 
Q 19.53125 -1.421875 13.0625 8.265625 
Q 6.59375 17.96875 6.59375 36.375 
Q 6.59375 54.828125 13.0625 64.515625 
Q 19.53125 74.21875 31.78125 74.21875 
z
" id="DejaVuSans-48"/>
        <path d="M 10.6875 12.40625 
L 21 12.40625 
L 21 0 
L 10.6875 0 
z
" id="DejaVuSans-46"/>
       </defs>
       <use xlink:href="#DejaVuSans-48"/>
       <use x="63.623047" xlink:href="#DejaVuSans-46"/>
       <use x="95.410156" xlink:href="#DejaVuSans-48"/>
      </g>
     </g>
    </g>
    <g id="xtick_2">
     <g id="line2d_2">
      <g>
       <use style="stroke:#000000;stroke-width:0.8;" x="124.189522" xlink:href="#mf8a50733fa" y="288.430125"/>
      </g>
     </g>
     <g id="text_2">
      <!-- 0.2 -->
      <g transform="translate(116.23796 303.028562)scale(0.1 -0.1)">
       <defs>
        <path d="M 19.1875 8.296875 
L 53.609375 8.296875 
L 53.609375 0 
L 7.328125 0 
L 7.328125 8.296875 
Q 12.9375 14.109375 22.625 23.890625 
Q 32.328125 33.6875 34.8125 36.53125 
Q 39.546875 41.84375 41.421875 45.53125 
Q 43.3125 49.21875 43.3125 52.78125 
Q 43.3125 58.59375 39.234375 62.25 
Q 35.15625 65.921875 28.609375 65.921875 
Q 23.96875 65.921875 18.8125 64.3125 
Q 13.671875 62.703125 7.8125 59.421875 
L 7.8125 69.390625 
Q 13.765625 71.78125 18.9375 73 
Q 24.125 74.21875 28.421875 74.21875 
Q 39.75 74.21875 46.484375 68.546875 
Q 53.21875 62.890625 53.21875 53.421875 
Q 53.21875 48.921875 51.53125 44.890625 
Q 49.859375 40.875 45.40625 35.40625 
Q 44.1875 33.984375 37.640625 27.21875 
Q 31.109375 20.453125 19.1875 8.296875 
z
" id="DejaVuSans-50"/>
       </defs>
       <use xlink:href="#DejaVuSans-48"/>
       <use x="63.623047" xlink:href="#DejaVuSans-46"/>
       <use x="95.410156" xlink:href="#DejaVuSans-50"/>
      </g>
     </g>
    </g>
    <g id="xtick_3">
     <g id="line2d_3">
      <g>
       <use style="stroke:#000000;stroke-width:0.8;" x="188.365067" xlink:href="#mf8a50733fa" y="288.430125"/>
      </g>
     </g>
     <g id="text_3">
      <!-- 0.4 -->
      <g transform="translate(180.413505 303.028562)scale(0.1 -0.1)">
       <defs>
        <path d="M 37.796875 64.3125 
L 12.890625 25.390625 
L 37.796875 25.390625 
z
M 35.203125 72.90625 
L 47.609375 72.90625 
L 47.609375 25.390625 
L 58.015625 25.390625 
L 58.015625 17.1875 
L 47.609375 17.1875 
L 47.609375 0 
L 37.796875 0 
L 37.796875 17.1875 
L 4.890625 17.1875 
L 4.890625 26.703125 
z
" id="DejaVuSans-52"/>
       </defs>
       <use xlink:href="#DejaVuSans-48"/>
       <use x="63.623047" xlink:href="#DejaVuSans-46"/>
       <use x="95.410156" xlink:href="#DejaVuSans-52"/>
      </g>
     </g>
    </g>
    <g id="xtick_4">
     <g id="line2d_4">
      <g>
       <use style="stroke:#000000;stroke-width:0.8;" x="252.540612" xlink:href="#mf8a50733fa" y="288.430125"/>
      </g>
     </g>
     <g id="text_4">
      <!-- 0.6 -->
      <g transform="translate(244.58905 303.028562)scale(0.1 -0.1)">
       <defs>
        <path d="M 33.015625 40.375 
Q 26.375 40.375 22.484375 35.828125 
Q 18.609375 31.296875 18.609375 23.390625 
Q 18.609375 15.53125 22.484375 10.953125 
Q 26.375 6.390625 33.015625 6.390625 
Q 39.65625 6.390625 43.53125 10.953125 
Q 47.40625 15.53125 47.40625 23.390625 
Q 47.40625 31.296875 43.53125 35.828125 
Q 39.65625 40.375 33.015625 40.375 
z
M 52.59375 71.296875 
L 52.59375 62.3125 
Q 48.875 64.0625 45.09375 64.984375 
Q 41.3125 65.921875 37.59375 65.921875 
Q 27.828125 65.921875 22.671875 59.328125 
Q 17.53125 52.734375 16.796875 39.40625 
Q 19.671875 43.65625 24.015625 45.921875 
Q 28.375 48.1875 33.59375 48.1875 
Q 44.578125 48.1875 50.953125 41.515625 
Q 57.328125 34.859375 57.328125 23.390625 
Q 57.328125 12.15625 50.6875 5.359375 
Q 44.046875 -1.421875 33.015625 -1.421875 
Q 20.359375 -1.421875 13.671875 8.265625 
Q 6.984375 17.96875 6.984375 36.375 
Q 6.984375 53.65625 15.1875 63.9375 
Q 23.390625 74.21875 37.203125 74.21875 
Q 40.921875 74.21875 44.703125 73.484375 
Q 48.484375 72.75 52.59375 71.296875 
z
" id="DejaVuSans-54"/>
       </defs>
       <use xlink:href="#DejaVuSans-48"/>
       <use x="63.623047" xlink:href="#DejaVuSans-46"/>
       <use x="95.410156" xlink:href="#DejaVuSans-54"/>
      </g>
     </g>
    </g>
    <g id="xtick_5">
     <g id="line2d_5">
      <g>
       <use style="stroke:#000000;stroke-width:0.8;" x="316.716157" xlink:href="#mf8a50733fa" y="288.430125"/>
      </g>
     </g>
     <g id="text_5">
      <!-- 0.8 -->
      <g transform="translate(308.764595 303.028562)scale(0.1 -0.1)">
       <defs>
        <path d="M 31.78125 34.625 
Q 24.75 34.625 20.71875 30.859375 
Q 16.703125 27.09375 16.703125 20.515625 
Q 16.703125 13.921875 20.71875 10.15625 
Q 24.75 6.390625 31.78125 6.390625 
Q 38.8125 6.390625 42.859375 10.171875 
Q 46.921875 13.96875 46.921875 20.515625 
Q 46.921875 27.09375 42.890625 30.859375 
Q 38.875 34.625 31.78125 34.625 
z
M 21.921875 38.8125 
Q 15.578125 40.375 12.03125 44.71875 
Q 8.5 49.078125 8.5 55.328125 
Q 8.5 64.0625 14.71875 69.140625 
Q 20.953125 74.21875 31.78125 74.21875 
Q 42.671875 74.21875 48.875 69.140625 
Q 55.078125 64.0625 55.078125 55.328125 
Q 55.078125 49.078125 51.53125 44.71875 
Q 48 40.375 41.703125 38.8125 
Q 48.828125 37.15625 52.796875 32.3125 
Q 56.78125 27.484375 56.78125 20.515625 
Q 56.78125 9.90625 50.3125 4.234375 
Q 43.84375 -1.421875 31.78125 -1.421875 
Q 19.734375 -1.421875 13.25 4.234375 
Q 6.78125 9.90625 6.78125 20.515625 
Q 6.78125 27.484375 10.78125 32.3125 
Q 14.796875 37.15625 21.921875 38.8125 
z
M 18.3125 54.390625 
Q 18.3125 48.734375 21.84375 45.5625 
Q 25.390625 42.390625 31.78125 42.390625 
Q 38.140625 42.390625 41.71875 45.5625 
Q 45.3125 48.734375 45.3125 54.390625 
Q 45.3125 60.0625 41.71875 63.234375 
Q 38.140625 66.40625 31.78125 66.40625 
Q 25.390625 66.40625 21.84375 63.234375 
Q 18.3125 60.0625 18.3125 54.390625 
z
" id="DejaVuSans-56"/>
       </defs>
       <use xlink:href="#DejaVuSans-48"/>
       <use x="63.623047" xlink:href="#DejaVuSans-46"/>
       <use x="95.410156" xlink:href="#DejaVuSans-56"/>
      </g>
     </g>
    </g>
    <g id="xtick_6">
     <g id="line2d_6">
      <g>
       <use style="stroke:#000000;stroke-width:0.8;" x="380.891702" xlink:href="#mf8a50733fa" y="288.430125"/>
      </g>
     </g>
     <g id="text_6">
      <!-- 1.0 -->
      <g transform="translate(372.94014 303.028562)scale(0.1 -0.1)">
       <defs>
        <path d="M 12.40625 8.296875 
L 28.515625 8.296875 
L 28.515625 63.921875 
L 10.984375 60.40625 
L 10.984375 69.390625 
L 28.421875 72.90625 
L 38.28125 72.90625 
L 38.28125 8.296875 
L 54.390625 8.296875 
L 54.390625 0 
L 12.40625 0 
z
" id="DejaVuSans-49"/>
       </defs>
       <use xlink:href="#DejaVuSans-49"/>
       <use x="63.623047" xlink:href="#DejaVuSans-46"/>
       <use x="95.410156" xlink:href="#DejaVuSans-48"/>
      </g>
     </g>
    </g>
    <g id="text_7">
     <!-- Time (ms) -->
     <g transform="translate(197.142031 316.706687)scale(0.1 -0.1)">
      <defs>
       <path d="M -0.296875 72.90625 
L 61.375 72.90625 
L 61.375 64.59375 
L 35.5 64.59375 
L 35.5 0 
L 25.59375 0 
L 25.59375 64.59375 
L -0.296875 64.59375 
z
" id="DejaVuSans-84"/>
       <path d="M 9.421875 54.6875 
L 18.40625 54.6875 
L 18.40625 0 
L 9.421875 0 
z
M 9.421875 75.984375 
L 18.40625 75.984375 
L 18.40625 64.59375 
L 9.421875 64.59375 
z
" id="DejaVuSans-105"/>
       <path d="M 52 44.1875 
Q 55.375 50.25 60.0625 53.125 
Q 64.75 56 71.09375 56 
Q 79.640625 56 84.28125 50.015625 
Q 88.921875 44.046875 88.921875 33.015625 
L 88.921875 0 
L 79.890625 0 
L 79.890625 32.71875 
Q 79.890625 40.578125 77.09375 44.375 
Q 74.3125 48.1875 68.609375 48.1875 
Q 61.625 48.1875 57.5625 43.546875 
Q 53.515625 38.921875 53.515625 30.90625 
L 53.515625 0 
L 44.484375 0 
L 44.484375 32.71875 
Q 44.484375 40.625 41.703125 44.40625 
Q 38.921875 48.1875 33.109375 48.1875 
Q 26.21875 48.1875 22.15625 43.53125 
Q 18.109375 38.875 18.109375 30.90625 
L 18.109375 0 
L 9.078125 0 
L 9.078125 54.6875 
L 18.109375 54.6875 
L 18.109375 46.1875 
Q 21.1875 51.21875 25.484375 53.609375 
Q 29.78125 56 35.6875 56 
Q 41.65625 56 45.828125 52.96875 
Q 50 49.953125 52 44.1875 
z
" id="DejaVuSans-109"/>
       <path d="M 56.203125 29.59375 
L 56.203125 25.203125 
L 14.890625 25.203125 
Q 15.484375 15.921875 20.484375 11.0625 
Q 25.484375 6.203125 34.421875 6.203125 
Q 39.59375 6.203125 44.453125 7.46875 
Q 49.3125 8.734375 54.109375 11.28125 
L 54.109375 2.78125 
Q 49.265625 0.734375 44.1875 -0.34375 
Q 39.109375 -1.421875 33.890625 -1.421875 
Q 20.796875 -1.421875 13.15625 6.1875 
Q 5.515625 13.8125 5.515625 26.8125 
Q 5.515625 40.234375 12.765625 48.109375 
Q 20.015625 56 32.328125 56 
Q 43.359375 56 49.78125 48.890625 
Q 56.203125 41.796875 56.203125 29.59375 
z
M 47.21875 32.234375 
Q 47.125 39.59375 43.09375 43.984375 
Q 39.0625 48.390625 32.421875 48.390625 
Q 24.90625 48.390625 20.390625 44.140625 
Q 15.875 39.890625 15.1875 32.171875 
z
" id="DejaVuSans-101"/>
       <path id="DejaVuSans-32"/>
       <path d="M 31 75.875 
Q 24.46875 64.65625 21.28125 53.65625 
Q 18.109375 42.671875 18.109375 31.390625 
Q 18.109375 20.125 21.3125 9.0625 
Q 24.515625 -2 31 -13.1875 
L 23.1875 -13.1875 
Q 15.875 -1.703125 12.234375 9.375 
Q 8.59375 20.453125 8.59375 31.390625 
Q 8.59375 42.28125 12.203125 53.3125 
Q 15.828125 64.359375 23.1875 75.875 
z
" id="DejaVuSans-40"/>
       <path d="M 44.28125 53.078125 
L 44.28125 44.578125 
Q 40.484375 46.53125 36.375 47.5 
Q 32.28125 48.484375 27.875 48.484375 
Q 21.1875 48.484375 17.84375 46.4375 
Q 14.5 44.390625 14.5 40.28125 
Q 14.5 37.15625 16.890625 35.375 
Q 19.28125 33.59375 26.515625 31.984375 
L 29.59375 31.296875 
Q 39.15625 29.25 43.1875 25.515625 
Q 47.21875 21.78125 47.21875 15.09375 
Q 47.21875 7.46875 41.1875 3.015625 
Q 35.15625 -1.421875 24.609375 -1.421875 
Q 20.21875 -1.421875 15.453125 -0.5625 
Q 10.6875 0.296875 5.421875 2 
L 5.421875 11.28125 
Q 10.40625 8.6875 15.234375 7.390625 
Q 20.0625 6.109375 24.8125 6.109375 
Q 31.15625 6.109375 34.5625 8.28125 
Q 37.984375 10.453125 37.984375 14.40625 
Q 37.984375 18.0625 35.515625 20.015625 
Q 33.0625 21.96875 24.703125 23.78125 
L 21.578125 24.515625 
Q 13.234375 26.265625 9.515625 29.90625 
Q 5.8125 33.546875 5.8125 39.890625 
Q 5.8125 47.609375 11.28125 51.796875 
Q 16.75 56 26.8125 56 
Q 31.78125 56 36.171875 55.265625 
Q 40.578125 54.546875 44.28125 53.078125 
z
" id="DejaVuSans-115"/>
       <path d="M 8.015625 75.875 
L 15.828125 75.875 
Q 23.140625 64.359375 26.78125 53.3125 
Q 30.421875 42.28125 30.421875 31.390625 
Q 30.421875 20.453125 26.78125 9.375 
Q 23.140625 -1.703125 15.828125 -13.1875 
L 8.015625 -13.1875 
Q 14.5 -2 17.703125 9.0625 
Q 20.90625 20.125 20.90625 31.390625 
Q 20.90625 42.671875 17.703125 53.65625 
Q 14.5 64.65625 8.015625 75.875 
z
" id="DejaVuSans-41"/>
      </defs>
      <use xlink:href="#DejaVuSans-84"/>
      <use x="57.958984" xlink:href="#DejaVuSans-105"/>
      <use x="85.742188" xlink:href="#DejaVuSans-109"/>
      <use x="183.154297" xlink:href="#DejaVuSans-101"/>
      <use x="244.677734" xlink:href="#DejaVuSans-32"/>
      <use x="276.464844" xlink:href="#DejaVuSans-40"/>
      <use x="315.478516" xlink:href="#DejaVuSans-109"/>
      <use x="412.890625" xlink:href="#DejaVuSans-115"/>
      <use x="464.990234" xlink:href="#DejaVuSans-41"/>
     </g>
    </g>
   </g>
   <g id="matplotlib.axis_2">
    <g id="ytick_1">
     <g id="line2d_7">
      <defs>
       <path d="M 0 0 
L -3.5 0 
" id="me567181293" style="stroke:#000000;stroke-width:0.8;"/>
      </defs>
      <g>
       <use style="stroke:#000000;stroke-width:0.8;" x="43.78125" xlink:href="#me567181293" y="281.449042"/>
      </g>
     </g>
     <g id="text_8">
      <!-- 0.0 -->
      <g transform="translate(20.878125 285.24826)scale(0.1 -0.1)">
       <use xlink:href="#DejaVuSans-48"/>
       <use x="63.623047" xlink:href="#DejaVuSans-46"/>
       <use x="95.410156" xlink:href="#DejaVuSans-48"/>
      </g>
     </g>
    </g>
    <g id="ytick_2">
     <g id="line2d_8">
      <g>
       <use style="stroke:#000000;stroke-width:0.8;" x="43.78125" xlink:href="#me567181293" y="247.751738"/>
      </g>
     </g>
     <g id="text_9">
      <!-- 0.1 -->
      <g transform="translate(20.878125 251.550957)scale(0.1 -0.1)">
       <use xlink:href="#DejaVuSans-48"/>
       <use x="63.623047" xlink:href="#DejaVuSans-46"/>
       <use x="95.410156" xlink:href="#DejaVuSans-49"/>
      </g>
     </g>
    </g>
    <g id="ytick_3">
     <g id="line2d_9">
      <g>
       <use style="stroke:#000000;stroke-width:0.8;" x="43.78125" xlink:href="#me567181293" y="214.054434"/>
      </g>
     </g>
     <g id="text_10">
      <!-- 0.2 -->
      <g transform="translate(20.878125 217.853653)scale(0.1 -0.1)">
       <use xlink:href="#DejaVuSans-48"/>
       <use x="63.623047" xlink:href="#DejaVuSans-46"/>
       <use x="95.410156" xlink:href="#DejaVuSans-50"/>
      </g>
     </g>
    </g>
    <g id="ytick_4">
     <g id="line2d_10">
      <g>
       <use style="stroke:#000000;stroke-width:0.8;" x="43.78125" xlink:href="#me567181293" y="180.35713"/>
      </g>
     </g>
     <g id="text_11">
      <!-- 0.3 -->
      <g transform="translate(20.878125 184.156349)scale(0.1 -0.1)">
       <defs>
        <path d="M 40.578125 39.3125 
Q 47.65625 37.796875 51.625 33 
Q 55.609375 28.21875 55.609375 21.1875 
Q 55.609375 10.40625 48.1875 4.484375 
Q 40.765625 -1.421875 27.09375 -1.421875 
Q 22.515625 -1.421875 17.65625 -0.515625 
Q 12.796875 0.390625 7.625 2.203125 
L 7.625 11.71875 
Q 11.71875 9.328125 16.59375 8.109375 
Q 21.484375 6.890625 26.8125 6.890625 
Q 36.078125 6.890625 40.9375 10.546875 
Q 45.796875 14.203125 45.796875 21.1875 
Q 45.796875 27.640625 41.28125 31.265625 
Q 36.765625 34.90625 28.71875 34.90625 
L 20.21875 34.90625 
L 20.21875 43.015625 
L 29.109375 43.015625 
Q 36.375 43.015625 40.234375 45.921875 
Q 44.09375 48.828125 44.09375 54.296875 
Q 44.09375 59.90625 40.109375 62.90625 
Q 36.140625 65.921875 28.71875 65.921875 
Q 24.65625 65.921875 20.015625 65.03125 
Q 15.375 64.15625 9.8125 62.3125 
L 9.8125 71.09375 
Q 15.4375 72.65625 20.34375 73.4375 
Q 25.25 74.21875 29.59375 74.21875 
Q 40.828125 74.21875 47.359375 69.109375 
Q 53.90625 64.015625 53.90625 55.328125 
Q 53.90625 49.265625 50.4375 45.09375 
Q 46.96875 40.921875 40.578125 39.3125 
z
" id="DejaVuSans-51"/>
       </defs>
       <use xlink:href="#DejaVuSans-48"/>
       <use x="63.623047" xlink:href="#DejaVuSans-46"/>
       <use x="95.410156" xlink:href="#DejaVuSans-51"/>
      </g>
     </g>
    </g>
    <g id="ytick_5">
     <g id="line2d_11">
      <g>
       <use style="stroke:#000000;stroke-width:0.8;" x="43.78125" xlink:href="#me567181293" y="146.659827"/>
      </g>
     </g>
     <g id="text_12">
      <!-- 0.4 -->
      <g transform="translate(20.878125 150.459045)scale(0.1 -0.1)">
       <use xlink:href="#DejaVuSans-48"/>
       <use x="63.623047" xlink:href="#DejaVuSans-46"/>
       <use x="95.410156" xlink:href="#DejaVuSans-52"/>
      </g>
     </g>
    </g>
    <g id="ytick_6">
     <g id="line2d_12">
      <g>
       <use style="stroke:#000000;stroke-width:0.8;" x="43.78125" xlink:href="#me567181293" y="112.962523"/>
      </g>
     </g>
     <g id="text_13">
      <!-- 0.5 -->
      <g transform="translate(20.878125 116.761742)scale(0.1 -0.1)">
       <defs>
        <path d="M 10.796875 72.90625 
L 49.515625 72.90625 
L 49.515625 64.59375 
L 19.828125 64.59375 
L 19.828125 46.734375 
Q 21.96875 47.46875 24.109375 47.828125 
Q 26.265625 48.1875 28.421875 48.1875 
Q 40.625 48.1875 47.75 41.5 
Q 54.890625 34.8125 54.890625 23.390625 
Q 54.890625 11.625 47.5625 5.09375 
Q 40.234375 -1.421875 26.90625 -1.421875 
Q 22.3125 -1.421875 17.546875 -0.640625 
Q 12.796875 0.140625 7.71875 1.703125 
L 7.71875 11.625 
Q 12.109375 9.234375 16.796875 8.0625 
Q 21.484375 6.890625 26.703125 6.890625 
Q 35.15625 6.890625 40.078125 11.328125 
Q 45.015625 15.765625 45.015625 23.390625 
Q 45.015625 31 40.078125 35.4375 
Q 35.15625 39.890625 26.703125 39.890625 
Q 22.75 39.890625 18.8125 39.015625 
Q 14.890625 38.140625 10.796875 36.28125 
z
" id="DejaVuSans-53"/>
       </defs>
       <use xlink:href="#DejaVuSans-48"/>
       <use x="63.623047" xlink:href="#DejaVuSans-46"/>
       <use x="95.410156" xlink:href="#DejaVuSans-53"/>
      </g>
     </g>
    </g>
    <g id="ytick_7">
     <g id="line2d_13">
      <g>
       <use style="stroke:#000000;stroke-width:0.8;" x="43.78125" xlink:href="#me567181293" y="79.265219"/>
      </g>
     </g>
     <g id="text_14">
      <!-- 0.6 -->
      <g transform="translate(20.878125 83.064438)scale(0.1 -0.1)">
       <use xlink:href="#DejaVuSans-48"/>
       <use x="63.623047" xlink:href="#DejaVuSans-46"/>
       <use x="95.410156" xlink:href="#DejaVuSans-54"/>
      </g>
     </g>
    </g>
    <g id="ytick_8">
     <g id="line2d_14">
      <g>
       <use style="stroke:#000000;stroke-width:0.8;" x="43.78125" xlink:href="#me567181293" y="45.567915"/>
      </g>
     </g>
     <g id="text_15">
      <!-- 0.7 -->
      <g transform="translate(20.878125 49.367134)scale(0.1 -0.1)">
       <defs>
        <path d="M 8.203125 72.90625 
L 55.078125 72.90625 
L 55.078125 68.703125 
L 28.609375 0 
L 18.3125 0 
L 43.21875 64.59375 
L 8.203125 64.59375 
z
" id="DejaVuSans-55"/>
       </defs>
       <use xlink:href="#DejaVuSans-48"/>
       <use x="63.623047" xlink:href="#DejaVuSans-46"/>
       <use x="95.410156" xlink:href="#DejaVuSans-55"/>
      </g>
     </g>
    </g>
    <g id="text_16">
     <!-- H ppm -->
     <g transform="translate(14.798438 171.942094)rotate(-90)scale(0.1 -0.1)">
      <defs>
       <path d="M 9.8125 72.90625 
L 19.671875 72.90625 
L 19.671875 43.015625 
L 55.515625 43.015625 
L 55.515625 72.90625 
L 65.375 72.90625 
L 65.375 0 
L 55.515625 0 
L 55.515625 34.71875 
L 19.671875 34.71875 
L 19.671875 0 
L 9.8125 0 
z
" id="DejaVuSans-72"/>
       <path d="M 18.109375 8.203125 
L 18.109375 -20.796875 
L 9.078125 -20.796875 
L 9.078125 54.6875 
L 18.109375 54.6875 
L 18.109375 46.390625 
Q 20.953125 51.265625 25.265625 53.625 
Q 29.59375 56 35.59375 56 
Q 45.5625 56 51.78125 48.09375 
Q 58.015625 40.1875 58.015625 27.296875 
Q 58.015625 14.40625 51.78125 6.484375 
Q 45.5625 -1.421875 35.59375 -1.421875 
Q 29.59375 -1.421875 25.265625 0.953125 
Q 20.953125 3.328125 18.109375 8.203125 
z
M 48.6875 27.296875 
Q 48.6875 37.203125 44.609375 42.84375 
Q 40.53125 48.484375 33.40625 48.484375 
Q 26.265625 48.484375 22.1875 42.84375 
Q 18.109375 37.203125 18.109375 27.296875 
Q 18.109375 17.390625 22.1875 11.75 
Q 26.265625 6.109375 33.40625 6.109375 
Q 40.53125 6.109375 44.609375 11.75 
Q 48.6875 17.390625 48.6875 27.296875 
z
" id="DejaVuSans-112"/>
      </defs>
      <use xlink:href="#DejaVuSans-72"/>
      <use x="75.195312" xlink:href="#DejaVuSans-32"/>
      <use x="106.982422" xlink:href="#DejaVuSans-112"/>
      <use x="170.458984" xlink:href="#DejaVuSans-112"/>
      <use x="233.935547" xlink:href="#DejaVuSans-109"/>
     </g>
    </g>
   </g>
   <g id="line2d_15">
    <path clip-path="url(#p850b7d0cca)" d="M 60.013977 57.698964 
L 60.014879 57.701453 
L 60.023893 57.726347 
L 60.037754 57.764623 
L 60.061372 57.829825 
L 60.101994 57.941927 
L 60.172426 58.136159 
L 60.296788 58.478706 
L 60.541944 59.152439 
L 60.924866 60.200717 
L 61.307788 61.244062 
L 61.69071 62.282497 
L 62.073632 63.316044 
L 62.5112 64.491128 
L 62.948768 65.659889 
L 63.386337 66.822362 
L 64.123541 68.766741 
L 64.860745 70.693531 
L 65.597949 72.602888 
L 66.335153 74.494969 
L 67.489769 77.424011 
L 68.644386 80.311637 
L 69.799002 83.158425 
L 72.122171 88.76491 
L 74.445341 94.212918 
L 76.76851 99.506888 
L 79.091679 104.651133 
L 81.414848 109.649836 
L 83.738017 114.507071 
L 86.061186 119.2268 
L 88.384356 123.812879 
L 92.203949 131.072341 
L 96.023543 137.996686 
L 99.843137 144.601252 
L 103.662731 150.900687 
L 107.482324 156.908978 
L 111.301918 162.639484 
L 115.121512 168.10496 
L 118.941106 173.31758 
L 122.760699 178.288971 
L 129.18964 186.142376 
L 133.641549 191.224821 
L 138.093458 196.03389 
L 142.545367 200.584221 
L 146.997276 204.889676 
L 151.449185 208.963375 
L 155.901094 212.817737 
L 160.353003 216.464524 
L 167.716449 222.070212 
L 175.079896 227.185156 
L 182.443342 231.852193 
L 189.806788 236.110444 
L 197.170234 239.995622 
L 204.53368 243.540331 
L 211.897126 246.774341 
L 219.260573 249.724834 
L 226.624019 252.416623 
L 233.987465 254.872353 
L 241.350911 257.112694 
L 248.714357 259.156513 
L 256.077804 261.021026 
L 263.44125 262.721946 
L 270.804696 264.273612 
L 278.168142 265.689107 
L 285.531588 266.980372 
L 292.895035 268.1583 
L 300.258481 269.232831 
L 307.621927 270.213036 
L 314.985373 271.107188 
L 322.348819 271.922838 
L 329.712266 272.666874 
L 337.075712 273.34558 
L 344.439158 273.96469 
L 351.802604 274.529434 
L 359.16605 275.044584 
L 366.529496 275.514493 
L 373.892943 275.943132 
L 381.256389 276.334125 
" style="fill:none;stroke:#0000ff;stroke-linecap:square;stroke-width:1.5;"/>
   </g>
   <g id="line2d_16">
    <path clip-path="url(#p850b7d0cca)" d="M 60.013977 57.698945 
L 60.014987 57.701394 
L 60.025083 57.725886 
L 60.040778 57.763955 
L 60.067611 57.829023 
L 60.113822 57.941039 
L 60.193983 58.135216 
L 60.33555 58.477733 
L 60.614703 59.151597 
L 61.050215 60.198852 
L 61.485727 61.241183 
L 61.921239 62.278614 
L 62.356752 63.311165 
L 62.854734 64.485873 
L 63.352717 65.654261 
L 63.850699 66.816366 
L 64.688828 68.758151 
L 65.526956 70.682392 
L 66.365085 72.589246 
L 67.203213 74.478869 
L 68.51613 77.404663 
L 69.829046 80.289133 
L 71.141963 83.132855 
L 73.78579 88.737927 
L 76.429617 94.184612 
L 79.073444 99.477346 
L 81.717271 104.620438 
L 84.361098 109.618068 
L 87.004925 114.474306 
L 89.648752 119.193111 
L 92.292579 123.778335 
L 96.623497 131.01064 
L 100.954415 137.91038 
L 105.285333 144.492718 
L 109.616251 150.772135 
L 113.947169 156.762466 
L 118.278087 162.476922 
L 122.609005 167.92812 
L 126.939923 173.128107 
L 131.270841 178.088388 
L 138.552926 185.918486 
L 143.611189 191.002797 
L 148.669453 195.814151 
L 153.727717 200.367135 
L 158.785981 204.675565 
L 163.844244 208.752518 
L 168.902508 212.610375 
L 173.960772 216.260862 
L 182.389082 221.912714 
L 190.817392 227.067207 
L 199.245702 231.767984 
L 207.674012 236.054878 
L 216.102322 239.964234 
L 224.530632 243.52922 
L 232.958942 246.780102 
L 241.387252 249.744503 
L 249.815562 252.447626 
L 258.243872 254.912461 
L 266.672182 257.159982 
L 275.100492 259.209322 
L 283.528802 261.077934 
L 291.957112 262.781738 
L 300.385422 264.335255 
L 308.813732 265.751727 
L 317.242042 267.043234 
L 325.670352 268.22079 
L 334.098663 269.294442 
L 342.526973 270.273352 
L 350.955283 271.165874 
L 359.383593 271.979627 
L 367.811903 272.721558 
L 376.240213 273.398004 
L 384.668523 274.01474 
" style="fill:none;stroke:#ff0000;stroke-linecap:square;stroke-width:1.5;"/>
   </g>
   <g id="line2d_17">
    <defs>
     <path d="M 0 3 
C 0.795609 3 1.55874 2.683901 2.12132 2.12132 
C 2.683901 1.55874 3 0.795609 3 0 
C 3 -0.795609 2.683901 -1.55874 2.12132 -2.12132 
C 1.55874 -2.683901 0.795609 -3 0 -3 
C -0.795609 -3 -1.55874 -2.683901 -2.12132 -2.12132 
C -2.683901 -1.55874 -3 -0.795609 -3 0 
C -3 0.795609 -2.683901 1.55874 -2.12132 2.12132 
C -1.55874 2.683901 -0.795609 3 0 3 
z
" id="md5a8c86446" style="stroke:#000000;"/>
    </defs>
    <g clip-path="url(#p850b7d0cca)">
     <use style="stroke:#000000;" x="60.013977" xlink:href="#md5a8c86446" y="57.698945"/>
     <use style="stroke:#000000;" x="60.014856" xlink:href="#md5a8c86446" y="57.701445"/>
     <use style="stroke:#000000;" x="60.023644" xlink:href="#md5a8c86446" y="57.726443"/>
     <use style="stroke:#000000;" x="60.037033" xlink:href="#md5a8c86446" y="57.764525"/>
     <use style="stroke:#000000;" x="60.05978" xlink:href="#md5a8c86446" y="57.829211"/>
     <use style="stroke:#000000;" x="60.098861" xlink:href="#md5a8c86446" y="57.9403"/>
     <use style="stroke:#000000;" x="60.166591" xlink:href="#md5a8c86446" y="58.132696"/>
     <use style="stroke:#000000;" x="60.286148" xlink:href="#md5a8c86446" y="58.471907"/>
     <use style="stroke:#000000;" x="60.521539" xlink:href="#md5a8c86446" y="59.138264"/>
     <use style="stroke:#000000;" x="60.891517" xlink:href="#md5a8c86446" y="60.181596"/>
     <use style="stroke:#000000;" x="61.261495" xlink:href="#md5a8c86446" y="61.220032"/>
     <use style="stroke:#000000;" x="61.631472" xlink:href="#md5a8c86446" y="62.253593"/>
     <use style="stroke:#000000;" x="62.00145" xlink:href="#md5a8c86446" y="63.282301"/>
     <use style="stroke:#000000;" x="62.422867" xlink:href="#md5a8c86446" y="64.448145"/>
     <use style="stroke:#000000;" x="62.844283" xlink:href="#md5a8c86446" y="65.607753"/>
     <use style="stroke:#000000;" x="63.2657" xlink:href="#md5a8c86446" y="66.76116"/>
     <use style="stroke:#000000;" x="63.979827" xlink:href="#md5a8c86446" y="68.701643"/>
     <use style="stroke:#000000;" x="64.693955" xlink:href="#md5a8c86446" y="70.624575"/>
     <use style="stroke:#000000;" x="65.408082" xlink:href="#md5a8c86446" y="72.530114"/>
     <use style="stroke:#000000;" x="66.122209" xlink:href="#md5a8c86446" y="74.418415"/>
     <use style="stroke:#000000;" x="67.234222" xlink:href="#md5a8c86446" y="77.324853"/>
     <use style="stroke:#000000;" x="68.346235" xlink:href="#md5a8c86446" y="80.190445"/>
     <use style="stroke:#000000;" x="69.458248" xlink:href="#md5a8c86446" y="83.015761"/>
     <use style="stroke:#000000;" x="71.698665" xlink:href="#md5a8c86446" y="88.587993"/>
     <use style="stroke:#000000;" x="73.939082" xlink:href="#md5a8c86446" y="94.003508"/>
     <use style="stroke:#000000;" x="76.179499" xlink:href="#md5a8c86446" y="99.266696"/>
     <use style="stroke:#000000;" x="78.419916" xlink:href="#md5a8c86446" y="104.381814"/>
     <use style="stroke:#000000;" x="80.660333" xlink:href="#md5a8c86446" y="109.352998"/>
     <use style="stroke:#000000;" x="82.900749" xlink:href="#md5a8c86446" y="114.184269"/>
     <use style="stroke:#000000;" x="85.141166" xlink:href="#md5a8c86446" y="118.879538"/>
     <use style="stroke:#000000;" x="87.381583" xlink:href="#md5a8c86446" y="123.442612"/>
     <use style="stroke:#000000;" x="91.047248" xlink:href="#md5a8c86446" y="130.633046"/>
     <use style="stroke:#000000;" x="94.712914" xlink:href="#md5a8c86446" y="137.495088"/>
     <use style="stroke:#000000;" x="98.378579" xlink:href="#md5a8c86446" y="144.043658"/>
     <use style="stroke:#000000;" x="102.044245" xlink:href="#md5a8c86446" y="150.293002"/>
     <use style="stroke:#000000;" x="105.70991" xlink:href="#md5a8c86446" y="156.256727"/>
     <use style="stroke:#000000;" x="109.375576" xlink:href="#md5a8c86446" y="161.947829"/>
     <use style="stroke:#000000;" x="113.041241" xlink:href="#md5a8c86446" y="167.378717"/>
     <use style="stroke:#000000;" x="116.706906" xlink:href="#md5a8c86446" y="172.56124"/>
     <use style="stroke:#000000;" x="120.372572" xlink:href="#md5a8c86446" y="177.506711"/>
     <use style="stroke:#000000;" x="126.521129" xlink:href="#md5a8c86446" y="185.299175"/>
     <use style="stroke:#000000;" x="130.806741" xlink:href="#md5a8c86446" y="190.379652"/>
     <use style="stroke:#000000;" x="135.092353" xlink:href="#md5a8c86446" y="195.189323"/>
     <use style="stroke:#000000;" x="139.377964" xlink:href="#md5a8c86446" y="199.742586"/>
     <use style="stroke:#000000;" x="143.663576" xlink:href="#md5a8c86446" y="204.053077"/>
     <use style="stroke:#000000;" x="147.949188" xlink:href="#md5a8c86446" y="208.133704"/>
     <use style="stroke:#000000;" x="152.234799" xlink:href="#md5a8c86446" y="211.996689"/>
     <use style="stroke:#000000;" x="156.520411" xlink:href="#md5a8c86446" y="215.653611"/>
     <use style="stroke:#000000;" x="163.693345" xlink:href="#md5a8c86446" y="221.342993"/>
     <use style="stroke:#000000;" x="170.86628" xlink:href="#md5a8c86446" y="226.53343"/>
     <use style="stroke:#000000;" x="178.039214" xlink:href="#md5a8c86446" y="231.268604"/>
    </g>
   </g>
   <g id="line2d_18">
    <path clip-path="url(#p850b7d0cca)" d="M 60.013977 34.414125 
L 60.014856 34.416823 
L 60.023644 34.443795 
L 60.037033 34.484874 
L 60.05978 34.554624 
L 60.098861 34.674331 
L 60.166591 34.88142 
L 60.286148 35.245811 
L 60.521539 35.958978 
L 60.891517 37.068841 
L 61.261495 38.165185 
L 61.631472 39.248331 
L 62.00145 40.318113 
L 62.422867 41.520635 
L 62.844283 42.706405 
L 63.2657 43.87644 
L 63.979827 45.821094 
L 64.693955 47.722083 
L 65.408082 49.581833 
L 66.122209 51.393897 
L 67.234222 54.137065 
L 68.346235 56.802628 
L 69.458248 59.398549 
L 71.698665 64.288072 
L 73.939082 68.932143 
L 76.179499 73.323997 
L 78.419916 77.523558 
L 80.660333 81.525864 
L 82.900749 85.483331 
L 85.141166 89.225652 
L 87.381583 92.713799 
L 91.047248 98.232524 
L 94.712914 103.558938 
L 98.378579 108.657312 
L 102.044245 113.553466 
L 105.70991 118.268035 
L 109.375576 122.818448 
L 113.041241 127.216619 
L 116.706906 131.471219 
L 120.372572 135.587951 
L 126.521129 142.152328 
L 130.806741 146.694775 
L 135.092353 151.015419 
L 139.377964 155.049489 
L 143.663576 159.052763 
L 147.949188 163.154277 
L 152.234799 166.891891 
L 156.520411 170.278451 
L 163.693345 175.900193 
L 170.86628 181.530887 
L 178.039214 186.787055 
" style="fill:none;stroke:#0000ff;stroke-dasharray:5.55,2.4;stroke-dashoffset:0;stroke-width:1.5;"/>
   </g>
   <g id="line2d_19">
    <path clip-path="url(#p850b7d0cca)" d="M 60.013977 78.789037 
L 60.014856 78.791221 
L 60.023644 78.813057 
L 60.037033 78.84633 
L 60.05978 78.902869 
L 60.098861 79.000033 
L 60.166591 79.168507 
L 60.286148 79.46615 
L 60.521539 80.053053 
L 60.891517 80.977697 
L 61.261495 81.905182 
L 61.631472 82.835193 
L 62.00145 83.767896 
L 62.422867 84.833203 
L 62.844283 85.901723 
L 63.2657 86.972548 
L 63.979827 88.793047 
L 64.693955 90.620287 
L 65.408082 92.451382 
L 66.122209 94.291735 
L 67.234222 97.159757 
L 68.346235 100.022731 
L 69.458248 102.872257 
L 71.698665 108.664391 
L 73.939082 114.387717 
L 76.179499 120.040491 
L 78.419916 125.579915 
L 80.660333 131.014133 
L 82.900749 136.234025 
L 85.141166 141.372592 
L 87.381583 146.460098 
L 91.047248 154.390826 
L 94.712914 161.90388 
L 98.378579 169.019822 
L 102.044245 175.746811 
L 105.70991 182.09651 
L 109.375576 188.082431 
L 113.041241 193.720942 
L 116.706906 199.02952 
L 120.372572 204.026341 
L 126.521129 211.703368 
L 130.806741 216.628306 
L 135.092353 221.187985 
L 139.377964 225.490077 
L 143.663576 229.442637 
L 147.949188 233.021521 
L 152.234799 236.44068 
L 156.520411 239.703486 
L 163.693345 244.509286 
L 170.86628 248.714337 
L 178.039214 252.456124 
" style="fill:none;stroke:#0000ff;stroke-dasharray:5.55,2.4;stroke-dashoffset:0;stroke-width:1.5;"/>
   </g>
   <g id="line2d_20"/>
   <g id="line2d_21"/>
   <g id="line2d_22"/>
   <g id="line2d_23"/>
   <g id="line2d_24"/>
   <g id="patch_3">
    <path d="M 43.78125 288.430125 
L 43.78125 22.318125 
" style="fill:none;stroke:#000000;stroke-linecap:square;stroke-linejoin:miter;stroke-width:0.8;"/>
   </g>
   <g id="patch_4">
    <path d="M 400.90125 288.430125 
L 400.90125 22.318125 
" style="fill:none;stroke:#000000;stroke-linecap:square;stroke-linejoin:miter;stroke-width:0.8;"/>
   </g>
   <g id="patch_5">
    <path d="M 43.78125 288.430125 
L 400.90125 288.430125 
" style="fill:none;stroke:#000000;stroke-linecap:square;stroke-linejoin:miter;stroke-width:0.8;"/>
   </g>
   <g id="patch_6">
    <path d="M 43.78125 22.318125 
L 400.90125 22.318125 
" style="fill:none;stroke:#000000;stroke-linecap:square;stroke-linejoin:miter;stroke-width:0.8;"/>
   </g>
   <g id="text_17">
    <!-- Experiment_39 -->
    <g transform="translate(177.038437 16.318125)scale(0.12 -0.12)">
     <defs>
      <path d="M 9.8125 72.90625 
L 55.90625 72.90625 
L 55.90625 64.59375 
L 19.671875 64.59375 
L 19.671875 43.015625 
L 54.390625 43.015625 
L 54.390625 34.71875 
L 19.671875 34.71875 
L 19.671875 8.296875 
L 56.78125 8.296875 
L 56.78125 0 
L 9.8125 0 
z
" id="DejaVuSans-69"/>
      <path d="M 54.890625 54.6875 
L 35.109375 28.078125 
L 55.90625 0 
L 45.3125 0 
L 29.390625 21.484375 
L 13.484375 0 
L 2.875 0 
L 24.125 28.609375 
L 4.6875 54.6875 
L 15.28125 54.6875 
L 29.78125 35.203125 
L 44.28125 54.6875 
z
" id="DejaVuSans-120"/>
      <path d="M 41.109375 46.296875 
Q 39.59375 47.171875 37.8125 47.578125 
Q 36.03125 48 33.890625 48 
Q 26.265625 48 22.1875 43.046875 
Q 18.109375 38.09375 18.109375 28.8125 
L 18.109375 0 
L 9.078125 0 
L 9.078125 54.6875 
L 18.109375 54.6875 
L 18.109375 46.1875 
Q 20.953125 51.171875 25.484375 53.578125 
Q 30.03125 56 36.53125 56 
Q 37.453125 56 38.578125 55.875 
Q 39.703125 55.765625 41.0625 55.515625 
z
" id="DejaVuSans-114"/>
      <path d="M 54.890625 33.015625 
L 54.890625 0 
L 45.90625 0 
L 45.90625 32.71875 
Q 45.90625 40.484375 42.875 44.328125 
Q 39.84375 48.1875 33.796875 48.1875 
Q 26.515625 48.1875 22.3125 43.546875 
Q 18.109375 38.921875 18.109375 30.90625 
L 18.109375 0 
L 9.078125 0 
L 9.078125 54.6875 
L 18.109375 54.6875 
L 18.109375 46.1875 
Q 21.34375 51.125 25.703125 53.5625 
Q 30.078125 56 35.796875 56 
Q 45.21875 56 50.046875 50.171875 
Q 54.890625 44.34375 54.890625 33.015625 
z
" id="DejaVuSans-110"/>
      <path d="M 18.3125 70.21875 
L 18.3125 54.6875 
L 36.8125 54.6875 
L 36.8125 47.703125 
L 18.3125 47.703125 
L 18.3125 18.015625 
Q 18.3125 11.328125 20.140625 9.421875 
Q 21.96875 7.515625 27.59375 7.515625 
L 36.8125 7.515625 
L 36.8125 0 
L 27.59375 0 
Q 17.1875 0 13.234375 3.875 
Q 9.28125 7.765625 9.28125 18.015625 
L 9.28125 47.703125 
L 2.6875 47.703125 
L 2.6875 54.6875 
L 9.28125 54.6875 
L 9.28125 70.21875 
z
" id="DejaVuSans-116"/>
      <path d="M 50.984375 -16.609375 
L 50.984375 -23.578125 
L -0.984375 -23.578125 
L -0.984375 -16.609375 
z
" id="DejaVuSans-95"/>
      <path d="M 10.984375 1.515625 
L 10.984375 10.5 
Q 14.703125 8.734375 18.5 7.8125 
Q 22.3125 6.890625 25.984375 6.890625 
Q 35.75 6.890625 40.890625 13.453125 
Q 46.046875 20.015625 46.78125 33.40625 
Q 43.953125 29.203125 39.59375 26.953125 
Q 35.25 24.703125 29.984375 24.703125 
Q 19.046875 24.703125 12.671875 31.3125 
Q 6.296875 37.9375 6.296875 49.421875 
Q 6.296875 60.640625 12.9375 67.421875 
Q 19.578125 74.21875 30.609375 74.21875 
Q 43.265625 74.21875 49.921875 64.515625 
Q 56.59375 54.828125 56.59375 36.375 
Q 56.59375 19.140625 48.40625 8.859375 
Q 40.234375 -1.421875 26.421875 -1.421875 
Q 22.703125 -1.421875 18.890625 -0.6875 
Q 15.09375 0.046875 10.984375 1.515625 
z
M 30.609375 32.421875 
Q 37.25 32.421875 41.125 36.953125 
Q 45.015625 41.5 45.015625 49.421875 
Q 45.015625 57.28125 41.125 61.84375 
Q 37.25 66.40625 30.609375 66.40625 
Q 23.96875 66.40625 20.09375 61.84375 
Q 16.21875 57.28125 16.21875 49.421875 
Q 16.21875 41.5 20.09375 36.953125 
Q 23.96875 32.421875 30.609375 32.421875 
z
" id="DejaVuSans-57"/>
     </defs>
     <use xlink:href="#DejaVuSans-69"/>
     <use x="63.183594" xlink:href="#DejaVuSans-120"/>
     <use x="122.363281" xlink:href="#DejaVuSans-112"/>
     <use x="185.839844" xlink:href="#DejaVuSans-101"/>
     <use x="247.363281" xlink:href="#DejaVuSans-114"/>
     <use x="288.476562" xlink:href="#DejaVuSans-105"/>
     <use x="316.259766" xlink:href="#DejaVuSans-109"/>
     <use x="413.671875" xlink:href="#DejaVuSans-101"/>
     <use x="475.195312" xlink:href="#DejaVuSans-110"/>
     <use x="538.574219" xlink:href="#DejaVuSans-116"/>
     <use x="577.783203" xlink:href="#DejaVuSans-95"/>
     <use x="627.783203" xlink:href="#DejaVuSans-51"/>
     <use x="691.40625" xlink:href="#DejaVuSans-57"/>
    </g>
   </g>
   <g id="legend_1">
    <g id="patch_7">
     <path d="M 136.034063 89.0525 
L 393.90125 89.0525 
Q 395.90125 89.0525 395.90125 87.0525 
L 395.90125 29.318125 
Q 395.90125 27.318125 393.90125 27.318125 
L 136.034063 27.318125 
Q 134.034063 27.318125 134.034063 29.318125 
L 134.034063 87.0525 
Q 134.034063 89.0525 136.034063 89.0525 
z
" style="fill:#ffffff;opacity:0.8;stroke:#cccccc;stroke-linejoin:miter;"/>
    </g>
    <g id="line2d_25">
     <path d="M 138.034063 35.416562 
L 158.034063 35.416562 
" style="fill:none;stroke:#0000ff;stroke-linecap:square;stroke-width:1.5;"/>
    </g>
    <g id="line2d_26"/>
    <g id="text_18">
     <!-- MSI -->
     <g transform="translate(166.034063 38.916562)scale(0.1 -0.1)">
      <defs>
       <path d="M 9.8125 72.90625 
L 24.515625 72.90625 
L 43.109375 23.296875 
L 61.8125 72.90625 
L 76.515625 72.90625 
L 76.515625 0 
L 66.890625 0 
L 66.890625 64.015625 
L 48.09375 14.015625 
L 38.1875 14.015625 
L 19.390625 64.015625 
L 19.390625 0 
L 9.8125 0 
z
" id="DejaVuSans-77"/>
       <path d="M 53.515625 70.515625 
L 53.515625 60.890625 
Q 47.90625 63.578125 42.921875 64.890625 
Q 37.9375 66.21875 33.296875 66.21875 
Q 25.25 66.21875 20.875 63.09375 
Q 16.5 59.96875 16.5 54.203125 
Q 16.5 49.359375 19.40625 46.890625 
Q 22.3125 44.4375 30.421875 42.921875 
L 36.375 41.703125 
Q 47.40625 39.59375 52.65625 34.296875 
Q 57.90625 29 57.90625 20.125 
Q 57.90625 9.515625 50.796875 4.046875 
Q 43.703125 -1.421875 29.984375 -1.421875 
Q 24.8125 -1.421875 18.96875 -0.25 
Q 13.140625 0.921875 6.890625 3.21875 
L 6.890625 13.375 
Q 12.890625 10.015625 18.65625 8.296875 
Q 24.421875 6.59375 29.984375 6.59375 
Q 38.421875 6.59375 43.015625 9.90625 
Q 47.609375 13.234375 47.609375 19.390625 
Q 47.609375 24.75 44.3125 27.78125 
Q 41.015625 30.8125 33.5 32.328125 
L 27.484375 33.5 
Q 16.453125 35.6875 11.515625 40.375 
Q 6.59375 45.0625 6.59375 53.421875 
Q 6.59375 63.09375 13.40625 68.65625 
Q 20.21875 74.21875 32.171875 74.21875 
Q 37.3125 74.21875 42.625 73.28125 
Q 47.953125 72.359375 53.515625 70.515625 
z
" id="DejaVuSans-83"/>
       <path d="M 9.8125 72.90625 
L 19.671875 72.90625 
L 19.671875 0 
L 9.8125 0 
z
" id="DejaVuSans-73"/>
      </defs>
      <use xlink:href="#DejaVuSans-77"/>
      <use x="86.279297" xlink:href="#DejaVuSans-83"/>
      <use x="149.755859" xlink:href="#DejaVuSans-73"/>
     </g>
    </g>
    <g id="line2d_27">
     <path d="M 138.034063 50.09625 
L 158.034063 50.09625 
" style="fill:none;stroke:#ff0000;stroke-linecap:square;stroke-width:1.5;"/>
    </g>
    <g id="line2d_28"/>
    <g id="text_19">
     <!-- $\it{A priori}$ model -->
     <g transform="translate(166.034063 53.59625)scale(0.1 -0.1)">
      <defs>
       <path d="M 36.8125 72.90625 
L 48 72.90625 
L 61.53125 0 
L 51.21875 0 
L 48.1875 18.703125 
L 15.375 18.703125 
L 5.078125 0 
L -5.328125 0 
z
M 40.375 63.1875 
L 19.921875 26.90625 
L 46.6875 26.90625 
z
" id="DejaVuSans-Oblique-65"/>
       <path d="M 49.609375 33.6875 
Q 49.609375 40.875 46.484375 44.671875 
Q 43.359375 48.484375 37.5 48.484375 
Q 33.5 48.484375 29.859375 46.4375 
Q 26.21875 44.390625 23.390625 40.484375 
Q 20.609375 36.625 18.9375 31.15625 
Q 17.28125 25.6875 17.28125 20.3125 
Q 17.28125 13.484375 20.40625 9.796875 
Q 23.53125 6.109375 29.296875 6.109375 
Q 33.546875 6.109375 37.1875 8.109375 
Q 40.828125 10.109375 43.40625 13.921875 
Q 46.1875 17.921875 47.890625 23.34375 
Q 49.609375 28.765625 49.609375 33.6875 
z
M 21.78125 46.390625 
Q 25.390625 51.125 30.296875 53.5625 
Q 35.203125 56 41.21875 56 
Q 49.609375 56 54.25 50.5 
Q 58.890625 45.015625 58.890625 35.109375 
Q 58.890625 27 56 19.65625 
Q 53.125 12.3125 47.703125 6.5 
Q 44.09375 2.640625 39.546875 0.609375 
Q 35.015625 -1.421875 29.984375 -1.421875 
Q 24.171875 -1.421875 20.21875 1 
Q 16.265625 3.421875 14.3125 8.203125 
L 8.6875 -20.796875 
L -0.296875 -20.796875 
L 14.40625 54.6875 
L 23.390625 54.6875 
z
" id="DejaVuSans-Oblique-112"/>
       <path d="M 44.578125 46.390625 
Q 43.21875 47.125 41.453125 47.515625 
Q 39.703125 47.90625 37.703125 47.90625 
Q 30.515625 47.90625 25.140625 42.453125 
Q 19.78125 37.015625 18.015625 27.875 
L 12.5 0 
L 3.515625 0 
L 14.203125 54.6875 
L 23.1875 54.6875 
L 21.484375 46.1875 
Q 25.046875 50.921875 30 53.453125 
Q 34.96875 56 40.578125 56 
Q 42.046875 56 43.453125 55.828125 
Q 44.875 55.671875 46.296875 55.28125 
z
" id="DejaVuSans-Oblique-114"/>
       <path d="M 18.3125 75.984375 
L 27.296875 75.984375 
L 25.09375 64.59375 
L 16.109375 64.59375 
z
M 14.203125 54.6875 
L 23.1875 54.6875 
L 12.5 0 
L 3.515625 0 
z
" id="DejaVuSans-Oblique-105"/>
       <path d="M 25.390625 -1.421875 
Q 15.765625 -1.421875 10.171875 4.515625 
Q 4.59375 10.453125 4.59375 20.703125 
Q 4.59375 26.65625 6.515625 32.828125 
Q 8.453125 39.015625 11.53125 43.21875 
Q 16.359375 49.75 22.3125 52.875 
Q 28.265625 56 35.796875 56 
Q 45.125 56 50.859375 50.1875 
Q 56.59375 44.390625 56.59375 35.015625 
Q 56.59375 28.515625 54.6875 22.0625 
Q 52.78125 15.625 49.703125 11.375 
Q 44.921875 4.828125 38.96875 1.703125 
Q 33.015625 -1.421875 25.390625 -1.421875 
z
M 13.921875 21 
Q 13.921875 13.578125 17.015625 9.890625 
Q 20.125 6.203125 26.421875 6.203125 
Q 35.453125 6.203125 41.375 14.078125 
Q 47.3125 21.96875 47.3125 34.078125 
Q 47.3125 41.15625 44.140625 44.765625 
Q 40.96875 48.390625 34.8125 48.390625 
Q 29.734375 48.390625 25.78125 46.015625 
Q 21.828125 43.65625 18.703125 38.8125 
Q 16.40625 35.203125 15.15625 30.5625 
Q 13.921875 25.921875 13.921875 21 
z
" id="DejaVuSans-Oblique-111"/>
       <path d="M 30.609375 48.390625 
Q 23.390625 48.390625 19.1875 42.75 
Q 14.984375 37.109375 14.984375 27.296875 
Q 14.984375 17.484375 19.15625 11.84375 
Q 23.34375 6.203125 30.609375 6.203125 
Q 37.796875 6.203125 41.984375 11.859375 
Q 46.1875 17.53125 46.1875 27.296875 
Q 46.1875 37.015625 41.984375 42.703125 
Q 37.796875 48.390625 30.609375 48.390625 
z
M 30.609375 56 
Q 42.328125 56 49.015625 48.375 
Q 55.71875 40.765625 55.71875 27.296875 
Q 55.71875 13.875 49.015625 6.21875 
Q 42.328125 -1.421875 30.609375 -1.421875 
Q 18.84375 -1.421875 12.171875 6.21875 
Q 5.515625 13.875 5.515625 27.296875 
Q 5.515625 40.765625 12.171875 48.375 
Q 18.84375 56 30.609375 56 
z
" id="DejaVuSans-111"/>
       <path d="M 45.40625 46.390625 
L 45.40625 75.984375 
L 54.390625 75.984375 
L 54.390625 0 
L 45.40625 0 
L 45.40625 8.203125 
Q 42.578125 3.328125 38.25 0.953125 
Q 33.9375 -1.421875 27.875 -1.421875 
Q 17.96875 -1.421875 11.734375 6.484375 
Q 5.515625 14.40625 5.515625 27.296875 
Q 5.515625 40.1875 11.734375 48.09375 
Q 17.96875 56 27.875 56 
Q 33.9375 56 38.25 53.625 
Q 42.578125 51.265625 45.40625 46.390625 
z
M 14.796875 27.296875 
Q 14.796875 17.390625 18.875 11.75 
Q 22.953125 6.109375 30.078125 6.109375 
Q 37.203125 6.109375 41.296875 11.75 
Q 45.40625 17.390625 45.40625 27.296875 
Q 45.40625 37.203125 41.296875 42.84375 
Q 37.203125 48.484375 30.078125 48.484375 
Q 22.953125 48.484375 18.875 42.84375 
Q 14.796875 37.203125 14.796875 27.296875 
z
" id="DejaVuSans-100"/>
       <path d="M 9.421875 75.984375 
L 18.40625 75.984375 
L 18.40625 0 
L 9.421875 0 
z
" id="DejaVuSans-108"/>
      </defs>
      <use transform="translate(0 0.015625)" xlink:href="#DejaVuSans-Oblique-65"/>
      <use transform="translate(68.408203 0.015625)" xlink:href="#DejaVuSans-Oblique-112"/>
      <use transform="translate(131.884766 0.015625)" xlink:href="#DejaVuSans-Oblique-114"/>
      <use transform="translate(172.998047 0.015625)" xlink:href="#DejaVuSans-Oblique-105"/>
      <use transform="translate(200.78125 0.015625)" xlink:href="#DejaVuSans-Oblique-111"/>
      <use transform="translate(261.962891 0.015625)" xlink:href="#DejaVuSans-Oblique-114"/>
      <use transform="translate(303.076172 0.015625)" xlink:href="#DejaVuSans-Oblique-105"/>
      <use transform="translate(330.859375 0.015625)" xlink:href="#DejaVuSans-32"/>
      <use transform="translate(362.646484 0.015625)" xlink:href="#DejaVuSans-109"/>
      <use transform="translate(460.058594 0.015625)" xlink:href="#DejaVuSans-111"/>
      <use transform="translate(521.240234 0.015625)" xlink:href="#DejaVuSans-100"/>
      <use transform="translate(584.716797 0.015625)" xlink:href="#DejaVuSans-101"/>
      <use transform="translate(646.240234 0.015625)" xlink:href="#DejaVuSans-108"/>
     </g>
    </g>
    <g id="line2d_29"/>
    <g id="line2d_30">
     <g>
      <use style="stroke:#000000;" x="148.034063" xlink:href="#md5a8c86446" y="64.794688"/>
     </g>
    </g>
    <g id="text_20">
     <!-- Experimental Data -->
     <g transform="translate(166.034063 68.294688)scale(0.1 -0.1)">
      <defs>
       <path d="M 34.28125 27.484375 
Q 23.390625 27.484375 19.1875 25 
Q 14.984375 22.515625 14.984375 16.5 
Q 14.984375 11.71875 18.140625 8.90625 
Q 21.296875 6.109375 26.703125 6.109375 
Q 34.1875 6.109375 38.703125 11.40625 
Q 43.21875 16.703125 43.21875 25.484375 
L 43.21875 27.484375 
z
M 52.203125 31.203125 
L 52.203125 0 
L 43.21875 0 
L 43.21875 8.296875 
Q 40.140625 3.328125 35.546875 0.953125 
Q 30.953125 -1.421875 24.3125 -1.421875 
Q 15.921875 -1.421875 10.953125 3.296875 
Q 6 8.015625 6 15.921875 
Q 6 25.140625 12.171875 29.828125 
Q 18.359375 34.515625 30.609375 34.515625 
L 43.21875 34.515625 
L 43.21875 35.40625 
Q 43.21875 41.609375 39.140625 45 
Q 35.0625 48.390625 27.6875 48.390625 
Q 23 48.390625 18.546875 47.265625 
Q 14.109375 46.140625 10.015625 43.890625 
L 10.015625 52.203125 
Q 14.9375 54.109375 19.578125 55.046875 
Q 24.21875 56 28.609375 56 
Q 40.484375 56 46.34375 49.84375 
Q 52.203125 43.703125 52.203125 31.203125 
z
" id="DejaVuSans-97"/>
       <path d="M 19.671875 64.796875 
L 19.671875 8.109375 
L 31.59375 8.109375 
Q 46.6875 8.109375 53.6875 14.9375 
Q 60.6875 21.78125 60.6875 36.53125 
Q 60.6875 51.171875 53.6875 57.984375 
Q 46.6875 64.796875 31.59375 64.796875 
z
M 9.8125 72.90625 
L 30.078125 72.90625 
Q 51.265625 72.90625 61.171875 64.09375 
Q 71.09375 55.28125 71.09375 36.53125 
Q 71.09375 17.671875 61.125 8.828125 
Q 51.171875 0 30.078125 0 
L 9.8125 0 
z
" id="DejaVuSans-68"/>
      </defs>
      <use xlink:href="#DejaVuSans-69"/>
      <use x="63.183594" xlink:href="#DejaVuSans-120"/>
      <use x="122.363281" xlink:href="#DejaVuSans-112"/>
      <use x="185.839844" xlink:href="#DejaVuSans-101"/>
      <use x="247.363281" xlink:href="#DejaVuSans-114"/>
      <use x="288.476562" xlink:href="#DejaVuSans-105"/>
      <use x="316.259766" xlink:href="#DejaVuSans-109"/>
      <use x="413.671875" xlink:href="#DejaVuSans-101"/>
      <use x="475.195312" xlink:href="#DejaVuSans-110"/>
      <use x="538.574219" xlink:href="#DejaVuSans-116"/>
      <use x="577.783203" xlink:href="#DejaVuSans-97"/>
      <use x="639.0625" xlink:href="#DejaVuSans-108"/>
      <use x="666.845703" xlink:href="#DejaVuSans-32"/>
      <use x="698.632812" xlink:href="#DejaVuSans-68"/>
      <use x="775.634766" xlink:href="#DejaVuSans-97"/>
      <use x="836.914062" xlink:href="#DejaVuSans-116"/>
      <use x="876.123047" xlink:href="#DejaVuSans-97"/>
     </g>
    </g>
    <g id="line2d_31">
     <path d="M 138.034063 79.472813 
L 158.034063 79.472813 
" style="fill:none;stroke:#ffffff;stroke-linecap:square;stroke-width:1.5;"/>
    </g>
    <g id="line2d_32"/>
    <g id="text_21">
     <!-- T:1706.0 -->
     <g transform="translate(166.034063 82.972813)scale(0.1 -0.1)">
      <defs>
       <path d="M 11.71875 12.40625 
L 22.015625 12.40625 
L 22.015625 0 
L 11.71875 0 
z
M 11.71875 51.703125 
L 22.015625 51.703125 
L 22.015625 39.3125 
L 11.71875 39.3125 
z
" id="DejaVuSans-58"/>
      </defs>
      <use xlink:href="#DejaVuSans-84"/>
      <use x="50.083984" xlink:href="#DejaVuSans-58"/>
      <use x="83.775391" xlink:href="#DejaVuSans-49"/>
      <use x="147.398438" xlink:href="#DejaVuSans-55"/>
      <use x="211.021484" xlink:href="#DejaVuSans-48"/>
      <use x="274.644531" xlink:href="#DejaVuSans-54"/>
      <use x="338.267578" xlink:href="#DejaVuSans-46"/>
      <use x="370.054688" xlink:href="#DejaVuSans-48"/>
     </g>
    </g>
    <g id="line2d_33">
     <path d="M 279.774688 35.416562 
L 299.774688 35.416562 
" style="fill:none;stroke:#ffffff;stroke-linecap:square;stroke-width:1.5;"/>
    </g>
    <g id="line2d_34"/>
    <g id="text_22">
     <!-- P:0.684 -->
     <g transform="translate(307.774688 38.916562)scale(0.1 -0.1)">
      <defs>
       <path d="M 19.671875 64.796875 
L 19.671875 37.40625 
L 32.078125 37.40625 
Q 38.96875 37.40625 42.71875 40.96875 
Q 46.484375 44.53125 46.484375 51.125 
Q 46.484375 57.671875 42.71875 61.234375 
Q 38.96875 64.796875 32.078125 64.796875 
z
M 9.8125 72.90625 
L 32.078125 72.90625 
Q 44.34375 72.90625 50.609375 67.359375 
Q 56.890625 61.8125 56.890625 51.125 
Q 56.890625 40.328125 50.609375 34.8125 
Q 44.34375 29.296875 32.078125 29.296875 
L 19.671875 29.296875 
L 19.671875 0 
L 9.8125 0 
z
" id="DejaVuSans-80"/>
      </defs>
      <use xlink:href="#DejaVuSans-80"/>
      <use x="60.302734" xlink:href="#DejaVuSans-58"/>
      <use x="93.994141" xlink:href="#DejaVuSans-48"/>
      <use x="157.617188" xlink:href="#DejaVuSans-46"/>
      <use x="189.404297" xlink:href="#DejaVuSans-54"/>
      <use x="253.027344" xlink:href="#DejaVuSans-56"/>
      <use x="316.650391" xlink:href="#DejaVuSans-52"/>
     </g>
    </g>
    <g id="line2d_35">
     <path d="M 279.774688 50.094688 
L 299.774688 50.094688 
" style="fill:none;stroke:#ffffff;stroke-linecap:square;stroke-width:1.5;"/>
    </g>
    <g id="line2d_36"/>
    <g id="text_23">
     <!-- H: 6.64e-07 -->
     <g transform="translate(307.774688 53.594688)scale(0.1 -0.1)">
      <defs>
       <path d="M 4.890625 31.390625 
L 31.203125 31.390625 
L 31.203125 23.390625 
L 4.890625 23.390625 
z
" id="DejaVuSans-45"/>
      </defs>
      <use xlink:href="#DejaVuSans-72"/>
      <use x="75.195312" xlink:href="#DejaVuSans-58"/>
      <use x="108.886719" xlink:href="#DejaVuSans-32"/>
      <use x="140.673828" xlink:href="#DejaVuSans-54"/>
      <use x="204.296875" xlink:href="#DejaVuSans-46"/>
      <use x="236.083984" xlink:href="#DejaVuSans-54"/>
      <use x="299.707031" xlink:href="#DejaVuSans-52"/>
      <use x="363.330078" xlink:href="#DejaVuSans-101"/>
      <use x="424.853516" xlink:href="#DejaVuSans-45"/>
      <use x="460.9375" xlink:href="#DejaVuSans-48"/>
      <use x="524.560547" xlink:href="#DejaVuSans-55"/>
     </g>
    </g>
    <g id="line2d_37">
     <path d="M 279.774688 64.772812 
L 299.774688 64.772812 
" style="fill:none;stroke:#ffffff;stroke-linecap:square;stroke-width:1.5;"/>
    </g>
    <g id="line2d_38"/>
    <g id="text_24">
     <!-- H2O: 0.0025 -->
     <g transform="translate(307.774688 68.272812)scale(0.1 -0.1)">
      <defs>
       <path d="M 39.40625 66.21875 
Q 28.65625 66.21875 22.328125 58.203125 
Q 16.015625 50.203125 16.015625 36.375 
Q 16.015625 22.609375 22.328125 14.59375 
Q 28.65625 6.59375 39.40625 6.59375 
Q 50.140625 6.59375 56.421875 14.59375 
Q 62.703125 22.609375 62.703125 36.375 
Q 62.703125 50.203125 56.421875 58.203125 
Q 50.140625 66.21875 39.40625 66.21875 
z
M 39.40625 74.21875 
Q 54.734375 74.21875 63.90625 63.9375 
Q 73.09375 53.65625 73.09375 36.375 
Q 73.09375 19.140625 63.90625 8.859375 
Q 54.734375 -1.421875 39.40625 -1.421875 
Q 24.03125 -1.421875 14.8125 8.828125 
Q 5.609375 19.09375 5.609375 36.375 
Q 5.609375 53.65625 14.8125 63.9375 
Q 24.03125 74.21875 39.40625 74.21875 
z
" id="DejaVuSans-79"/>
      </defs>
      <use xlink:href="#DejaVuSans-72"/>
      <use x="75.195312" xlink:href="#DejaVuSans-50"/>
      <use x="138.818359" xlink:href="#DejaVuSans-79"/>
      <use x="215.779297" xlink:href="#DejaVuSans-58"/>
      <use x="249.470703" xlink:href="#DejaVuSans-32"/>
      <use x="281.257812" xlink:href="#DejaVuSans-48"/>
      <use x="344.880859" xlink:href="#DejaVuSans-46"/>
      <use x="376.667969" xlink:href="#DejaVuSans-48"/>
      <use x="440.291016" xlink:href="#DejaVuSans-48"/>
      <use x="503.914062" xlink:href="#DejaVuSans-50"/>
      <use x="567.537109" xlink:href="#DejaVuSans-53"/>
     </g>
    </g>
    <g id="line2d_39">
     <path d="M 279.774688 79.450938 
L 299.774688 79.450938 
" style="fill:none;stroke:#ffffff;stroke-linecap:square;stroke-width:1.5;"/>
    </g>
    <g id="line2d_40"/>
    <g id="text_25">
     <!-- Ar: 0.997499336 -->
     <g transform="translate(307.774688 82.950938)scale(0.1 -0.1)">
      <defs>
       <path d="M 34.1875 63.1875 
L 20.796875 26.90625 
L 47.609375 26.90625 
z
M 28.609375 72.90625 
L 39.796875 72.90625 
L 67.578125 0 
L 57.328125 0 
L 50.6875 18.703125 
L 17.828125 18.703125 
L 11.1875 0 
L 0.78125 0 
z
" id="DejaVuSans-65"/>
      </defs>
      <use xlink:href="#DejaVuSans-65"/>
      <use x="68.408203" xlink:href="#DejaVuSans-114"/>
      <use x="107.771484" xlink:href="#DejaVuSans-58"/>
      <use x="141.462891" xlink:href="#DejaVuSans-32"/>
      <use x="173.25" xlink:href="#DejaVuSans-48"/>
      <use x="236.873047" xlink:href="#DejaVuSans-46"/>
      <use x="268.660156" xlink:href="#DejaVuSans-57"/>
      <use x="332.283203" xlink:href="#DejaVuSans-57"/>
      <use x="395.90625" xlink:href="#DejaVuSans-55"/>
      <use x="459.529297" xlink:href="#DejaVuSans-52"/>
      <use x="523.152344" xlink:href="#DejaVuSans-57"/>
      <use x="586.775391" xlink:href="#DejaVuSans-57"/>
      <use x="650.398438" xlink:href="#DejaVuSans-51"/>
      <use x="714.021484" xlink:href="#DejaVuSans-51"/>
      <use x="777.644531" xlink:href="#DejaVuSans-54"/>
     </g>
    </g>
   </g>
  </g>
 </g>
 <defs>
  <clipPath id="p850b7d0cca">
   <rect height="266.112" width="357.12" x="43.78125" y="22.318125"/>
  </clipPath>
 </defs>
</svg>
