<?xml version="1.0" encoding="utf-8" standalone="no"?>
<!DOCTYPE svg PUBLIC "-//W3C//DTD SVG 1.1//EN"
  "http://www.w3.org/Graphics/SVG/1.1/DTD/svg11.dtd">
<!-- Created with matplotlib (https://matplotlib.org/) -->
<svg height="325.986375pt" version="1.1" viewBox="0 0 414.46375 325.986375" width="414.46375pt" xmlns="http://www.w3.org/2000/svg" xmlns:xlink="http://www.w3.org/1999/xlink">
 <metadata>
  <rdf:RDF xmlns:cc="http://creativecommons.org/ns#" xmlns:dc="http://purl.org/dc/elements/1.1/" xmlns:rdf="http://www.w3.org/1999/02/22-rdf-syntax-ns#">
   <cc:Work>
    <dc:type rdf:resource="http://purl.org/dc/dcmitype/StillImage"/>
    <dc:date>2023-01-06T05:10:50.990185</dc:date>
    <dc:format>image/svg+xml</dc:format>
    <dc:creator>
     <cc:Agent>
      <dc:title>Matplotlib v3.3.1, https://matplotlib.org/</dc:title>
     </cc:Agent>
    </dc:creator>
   </cc:Work>
  </rdf:RDF>
 </metadata>
 <defs>
  <style type="text/css">*{stroke-linecap:butt;stroke-linejoin:round;}</style>
 </defs>
 <g id="figure_1">
  <g id="patch_1">
   <path d="M 0 325.986375 
L 414.46375 325.986375 
L 414.46375 0 
L 0 0 
z
" style="fill:none;"/>
  </g>
  <g id="axes_1">
   <g id="patch_2">
    <path d="M 50.14375 288.430125 
L 407.26375 288.430125 
L 407.26375 22.318125 
L 50.14375 22.318125 
z
" style="fill:none;"/>
   </g>
   <g id="matplotlib.axis_1">
    <g id="xtick_1">
     <g id="line2d_1">
      <defs>
       <path d="M 0 0 
L 0 3.5 
" id="mc14da50cfc" style="stroke:#000000;stroke-width:0.8;"/>
      </defs>
      <g>
       <use style="stroke:#000000;stroke-width:0.8;" x="66.376477" xlink:href="#mc14da50cfc" y="288.430125"/>
      </g>
     </g>
     <g id="text_1">
      <!-- 0 -->
      <g transform="translate(63.195227 303.028562)scale(0.1 -0.1)">
       <defs>
        <path d="M 31.78125 66.40625 
Q 24.171875 66.40625 20.328125 58.90625 
Q 16.5 51.421875 16.5 36.375 
Q 16.5 21.390625 20.328125 13.890625 
Q 24.171875 6.390625 31.78125 6.390625 
Q 39.453125 6.390625 43.28125 13.890625 
Q 47.125 21.390625 47.125 36.375 
Q 47.125 51.421875 43.28125 58.90625 
Q 39.453125 66.40625 31.78125 66.40625 
z
M 31.78125 74.21875 
Q 44.046875 74.21875 50.515625 64.515625 
Q 56.984375 54.828125 56.984375 36.375 
Q 56.984375 17.96875 50.515625 8.265625 
Q 44.046875 -1.421875 31.78125 -1.421875 
Q 19.53125 -1.421875 13.0625 8.265625 
Q 6.59375 17.96875 6.59375 36.375 
Q 6.59375 54.828125 13.0625 64.515625 
Q 19.53125 74.21875 31.78125 74.21875 
z
" id="DejaVuSans-48"/>
       </defs>
       <use xlink:href="#DejaVuSans-48"/>
      </g>
     </g>
    </g>
    <g id="xtick_2">
     <g id="line2d_2">
      <g>
       <use style="stroke:#000000;stroke-width:0.8;" x="130.44808" xlink:href="#mc14da50cfc" y="288.430125"/>
      </g>
     </g>
     <g id="text_2">
      <!-- 10 -->
      <g transform="translate(124.08558 303.028562)scale(0.1 -0.1)">
       <defs>
        <path d="M 12.40625 8.296875 
L 28.515625 8.296875 
L 28.515625 63.921875 
L 10.984375 60.40625 
L 10.984375 69.390625 
L 28.421875 72.90625 
L 38.28125 72.90625 
L 38.28125 8.296875 
L 54.390625 8.296875 
L 54.390625 0 
L 12.40625 0 
z
" id="DejaVuSans-49"/>
       </defs>
       <use xlink:href="#DejaVuSans-49"/>
       <use x="63.623047" xlink:href="#DejaVuSans-48"/>
      </g>
     </g>
    </g>
    <g id="xtick_3">
     <g id="line2d_3">
      <g>
       <use style="stroke:#000000;stroke-width:0.8;" x="194.519683" xlink:href="#mc14da50cfc" y="288.430125"/>
      </g>
     </g>
     <g id="text_3">
      <!-- 20 -->
      <g transform="translate(188.157183 303.028562)scale(0.1 -0.1)">
       <defs>
        <path d="M 19.1875 8.296875 
L 53.609375 8.296875 
L 53.609375 0 
L 7.328125 0 
L 7.328125 8.296875 
Q 12.9375 14.109375 22.625 23.890625 
Q 32.328125 33.6875 34.8125 36.53125 
Q 39.546875 41.84375 41.421875 45.53125 
Q 43.3125 49.21875 43.3125 52.78125 
Q 43.3125 58.59375 39.234375 62.25 
Q 35.15625 65.921875 28.609375 65.921875 
Q 23.96875 65.921875 18.8125 64.3125 
Q 13.671875 62.703125 7.8125 59.421875 
L 7.8125 69.390625 
Q 13.765625 71.78125 18.9375 73 
Q 24.125 74.21875 28.421875 74.21875 
Q 39.75 74.21875 46.484375 68.546875 
Q 53.21875 62.890625 53.21875 53.421875 
Q 53.21875 48.921875 51.53125 44.890625 
Q 49.859375 40.875 45.40625 35.40625 
Q 44.1875 33.984375 37.640625 27.21875 
Q 31.109375 20.453125 19.1875 8.296875 
z
" id="DejaVuSans-50"/>
       </defs>
       <use xlink:href="#DejaVuSans-50"/>
       <use x="63.623047" xlink:href="#DejaVuSans-48"/>
      </g>
     </g>
    </g>
    <g id="xtick_4">
     <g id="line2d_4">
      <g>
       <use style="stroke:#000000;stroke-width:0.8;" x="258.591286" xlink:href="#mc14da50cfc" y="288.430125"/>
      </g>
     </g>
     <g id="text_4">
      <!-- 30 -->
      <g transform="translate(252.228786 303.028562)scale(0.1 -0.1)">
       <defs>
        <path d="M 40.578125 39.3125 
Q 47.65625 37.796875 51.625 33 
Q 55.609375 28.21875 55.609375 21.1875 
Q 55.609375 10.40625 48.1875 4.484375 
Q 40.765625 -1.421875 27.09375 -1.421875 
Q 22.515625 -1.421875 17.65625 -0.515625 
Q 12.796875 0.390625 7.625 2.203125 
L 7.625 11.71875 
Q 11.71875 9.328125 16.59375 8.109375 
Q 21.484375 6.890625 26.8125 6.890625 
Q 36.078125 6.890625 40.9375 10.546875 
Q 45.796875 14.203125 45.796875 21.1875 
Q 45.796875 27.640625 41.28125 31.265625 
Q 36.765625 34.90625 28.71875 34.90625 
L 20.21875 34.90625 
L 20.21875 43.015625 
L 29.109375 43.015625 
Q 36.375 43.015625 40.234375 45.921875 
Q 44.09375 48.828125 44.09375 54.296875 
Q 44.09375 59.90625 40.109375 62.90625 
Q 36.140625 65.921875 28.71875 65.921875 
Q 24.65625 65.921875 20.015625 65.03125 
Q 15.375 64.15625 9.8125 62.3125 
L 9.8125 71.09375 
Q 15.4375 72.65625 20.34375 73.4375 
Q 25.25 74.21875 29.59375 74.21875 
Q 40.828125 74.21875 47.359375 69.109375 
Q 53.90625 64.015625 53.90625 55.328125 
Q 53.90625 49.265625 50.4375 45.09375 
Q 46.96875 40.921875 40.578125 39.3125 
z
" id="DejaVuSans-51"/>
       </defs>
       <use xlink:href="#DejaVuSans-51"/>
       <use x="63.623047" xlink:href="#DejaVuSans-48"/>
      </g>
     </g>
    </g>
    <g id="xtick_5">
     <g id="line2d_5">
      <g>
       <use style="stroke:#000000;stroke-width:0.8;" x="322.662889" xlink:href="#mc14da50cfc" y="288.430125"/>
      </g>
     </g>
     <g id="text_5">
      <!-- 40 -->
      <g transform="translate(316.300389 303.028562)scale(0.1 -0.1)">
       <defs>
        <path d="M 37.796875 64.3125 
L 12.890625 25.390625 
L 37.796875 25.390625 
z
M 35.203125 72.90625 
L 47.609375 72.90625 
L 47.609375 25.390625 
L 58.015625 25.390625 
L 58.015625 17.1875 
L 47.609375 17.1875 
L 47.609375 0 
L 37.796875 0 
L 37.796875 17.1875 
L 4.890625 17.1875 
L 4.890625 26.703125 
z
" id="DejaVuSans-52"/>
       </defs>
       <use xlink:href="#DejaVuSans-52"/>
       <use x="63.623047" xlink:href="#DejaVuSans-48"/>
      </g>
     </g>
    </g>
    <g id="xtick_6">
     <g id="line2d_6">
      <g>
       <use style="stroke:#000000;stroke-width:0.8;" x="386.734492" xlink:href="#mc14da50cfc" y="288.430125"/>
      </g>
     </g>
     <g id="text_6">
      <!-- 50 -->
      <g transform="translate(380.371992 303.028562)scale(0.1 -0.1)">
       <defs>
        <path d="M 10.796875 72.90625 
L 49.515625 72.90625 
L 49.515625 64.59375 
L 19.828125 64.59375 
L 19.828125 46.734375 
Q 21.96875 47.46875 24.109375 47.828125 
Q 26.265625 48.1875 28.421875 48.1875 
Q 40.625 48.1875 47.75 41.5 
Q 54.890625 34.8125 54.890625 23.390625 
Q 54.890625 11.625 47.5625 5.09375 
Q 40.234375 -1.421875 26.90625 -1.421875 
Q 22.3125 -1.421875 17.546875 -0.640625 
Q 12.796875 0.140625 7.71875 1.703125 
L 7.71875 11.625 
Q 12.109375 9.234375 16.796875 8.0625 
Q 21.484375 6.890625 26.703125 6.890625 
Q 35.15625 6.890625 40.078125 11.328125 
Q 45.015625 15.765625 45.015625 23.390625 
Q 45.015625 31 40.078125 35.4375 
Q 35.15625 39.890625 26.703125 39.890625 
Q 22.75 39.890625 18.8125 39.015625 
Q 14.890625 38.140625 10.796875 36.28125 
z
" id="DejaVuSans-53"/>
       </defs>
       <use xlink:href="#DejaVuSans-53"/>
       <use x="63.623047" xlink:href="#DejaVuSans-48"/>
      </g>
     </g>
    </g>
    <g id="text_7">
     <!-- Time (ms) -->
     <g transform="translate(203.504531 316.706687)scale(0.1 -0.1)">
      <defs>
       <path d="M -0.296875 72.90625 
L 61.375 72.90625 
L 61.375 64.59375 
L 35.5 64.59375 
L 35.5 0 
L 25.59375 0 
L 25.59375 64.59375 
L -0.296875 64.59375 
z
" id="DejaVuSans-84"/>
       <path d="M 9.421875 54.6875 
L 18.40625 54.6875 
L 18.40625 0 
L 9.421875 0 
z
M 9.421875 75.984375 
L 18.40625 75.984375 
L 18.40625 64.59375 
L 9.421875 64.59375 
z
" id="DejaVuSans-105"/>
       <path d="M 52 44.1875 
Q 55.375 50.25 60.0625 53.125 
Q 64.75 56 71.09375 56 
Q 79.640625 56 84.28125 50.015625 
Q 88.921875 44.046875 88.921875 33.015625 
L 88.921875 0 
L 79.890625 0 
L 79.890625 32.71875 
Q 79.890625 40.578125 77.09375 44.375 
Q 74.3125 48.1875 68.609375 48.1875 
Q 61.625 48.1875 57.5625 43.546875 
Q 53.515625 38.921875 53.515625 30.90625 
L 53.515625 0 
L 44.484375 0 
L 44.484375 32.71875 
Q 44.484375 40.625 41.703125 44.40625 
Q 38.921875 48.1875 33.109375 48.1875 
Q 26.21875 48.1875 22.15625 43.53125 
Q 18.109375 38.875 18.109375 30.90625 
L 18.109375 0 
L 9.078125 0 
L 9.078125 54.6875 
L 18.109375 54.6875 
L 18.109375 46.1875 
Q 21.1875 51.21875 25.484375 53.609375 
Q 29.78125 56 35.6875 56 
Q 41.65625 56 45.828125 52.96875 
Q 50 49.953125 52 44.1875 
z
" id="DejaVuSans-109"/>
       <path d="M 56.203125 29.59375 
L 56.203125 25.203125 
L 14.890625 25.203125 
Q 15.484375 15.921875 20.484375 11.0625 
Q 25.484375 6.203125 34.421875 6.203125 
Q 39.59375 6.203125 44.453125 7.46875 
Q 49.3125 8.734375 54.109375 11.28125 
L 54.109375 2.78125 
Q 49.265625 0.734375 44.1875 -0.34375 
Q 39.109375 -1.421875 33.890625 -1.421875 
Q 20.796875 -1.421875 13.15625 6.1875 
Q 5.515625 13.8125 5.515625 26.8125 
Q 5.515625 40.234375 12.765625 48.109375 
Q 20.015625 56 32.328125 56 
Q 43.359375 56 49.78125 48.890625 
Q 56.203125 41.796875 56.203125 29.59375 
z
M 47.21875 32.234375 
Q 47.125 39.59375 43.09375 43.984375 
Q 39.0625 48.390625 32.421875 48.390625 
Q 24.90625 48.390625 20.390625 44.140625 
Q 15.875 39.890625 15.1875 32.171875 
z
" id="DejaVuSans-101"/>
       <path id="DejaVuSans-32"/>
       <path d="M 31 75.875 
Q 24.46875 64.65625 21.28125 53.65625 
Q 18.109375 42.671875 18.109375 31.390625 
Q 18.109375 20.125 21.3125 9.0625 
Q 24.515625 -2 31 -13.1875 
L 23.1875 -13.1875 
Q 15.875 -1.703125 12.234375 9.375 
Q 8.59375 20.453125 8.59375 31.390625 
Q 8.59375 42.28125 12.203125 53.3125 
Q 15.828125 64.359375 23.1875 75.875 
z
" id="DejaVuSans-40"/>
       <path d="M 44.28125 53.078125 
L 44.28125 44.578125 
Q 40.484375 46.53125 36.375 47.5 
Q 32.28125 48.484375 27.875 48.484375 
Q 21.1875 48.484375 17.84375 46.4375 
Q 14.5 44.390625 14.5 40.28125 
Q 14.5 37.15625 16.890625 35.375 
Q 19.28125 33.59375 26.515625 31.984375 
L 29.59375 31.296875 
Q 39.15625 29.25 43.1875 25.515625 
Q 47.21875 21.78125 47.21875 15.09375 
Q 47.21875 7.46875 41.1875 3.015625 
Q 35.15625 -1.421875 24.609375 -1.421875 
Q 20.21875 -1.421875 15.453125 -0.5625 
Q 10.6875 0.296875 5.421875 2 
L 5.421875 11.28125 
Q 10.40625 8.6875 15.234375 7.390625 
Q 20.0625 6.109375 24.8125 6.109375 
Q 31.15625 6.109375 34.5625 8.28125 
Q 37.984375 10.453125 37.984375 14.40625 
Q 37.984375 18.0625 35.515625 20.015625 
Q 33.0625 21.96875 24.703125 23.78125 
L 21.578125 24.515625 
Q 13.234375 26.265625 9.515625 29.90625 
Q 5.8125 33.546875 5.8125 39.890625 
Q 5.8125 47.609375 11.28125 51.796875 
Q 16.75 56 26.8125 56 
Q 31.78125 56 36.171875 55.265625 
Q 40.578125 54.546875 44.28125 53.078125 
z
" id="DejaVuSans-115"/>
       <path d="M 8.015625 75.875 
L 15.828125 75.875 
Q 23.140625 64.359375 26.78125 53.3125 
Q 30.421875 42.28125 30.421875 31.390625 
Q 30.421875 20.453125 26.78125 9.375 
Q 23.140625 -1.703125 15.828125 -13.1875 
L 8.015625 -13.1875 
Q 14.5 -2 17.703125 9.0625 
Q 20.90625 20.125 20.90625 31.390625 
Q 20.90625 42.671875 17.703125 53.65625 
Q 14.5 64.65625 8.015625 75.875 
z
" id="DejaVuSans-41"/>
      </defs>
      <use xlink:href="#DejaVuSans-84"/>
      <use x="57.958984" xlink:href="#DejaVuSans-105"/>
      <use x="85.742188" xlink:href="#DejaVuSans-109"/>
      <use x="183.154297" xlink:href="#DejaVuSans-101"/>
      <use x="244.677734" xlink:href="#DejaVuSans-32"/>
      <use x="276.464844" xlink:href="#DejaVuSans-40"/>
      <use x="315.478516" xlink:href="#DejaVuSans-109"/>
      <use x="412.890625" xlink:href="#DejaVuSans-115"/>
      <use x="464.990234" xlink:href="#DejaVuSans-41"/>
     </g>
    </g>
   </g>
   <g id="matplotlib.axis_2">
    <g id="ytick_1">
     <g id="line2d_7">
      <defs>
       <path d="M 0 0 
L -3.5 0 
" id="m30a6894fc4" style="stroke:#000000;stroke-width:0.8;"/>
      </defs>
      <g>
       <use style="stroke:#000000;stroke-width:0.8;" x="50.14375" xlink:href="#m30a6894fc4" y="276.334125"/>
      </g>
     </g>
     <g id="text_8">
      <!-- 0.00 -->
      <g transform="translate(20.878125 280.133344)scale(0.1 -0.1)">
       <defs>
        <path d="M 10.6875 12.40625 
L 21 12.40625 
L 21 0 
L 10.6875 0 
z
" id="DejaVuSans-46"/>
       </defs>
       <use xlink:href="#DejaVuSans-48"/>
       <use x="63.623047" xlink:href="#DejaVuSans-46"/>
       <use x="95.410156" xlink:href="#DejaVuSans-48"/>
       <use x="159.033203" xlink:href="#DejaVuSans-48"/>
      </g>
     </g>
    </g>
    <g id="ytick_2">
     <g id="line2d_8">
      <g>
       <use style="stroke:#000000;stroke-width:0.8;" x="50.14375" xlink:href="#m30a6894fc4" y="230.898495"/>
      </g>
     </g>
     <g id="text_9">
      <!-- 0.02 -->
      <g transform="translate(20.878125 234.697713)scale(0.1 -0.1)">
       <use xlink:href="#DejaVuSans-48"/>
       <use x="63.623047" xlink:href="#DejaVuSans-46"/>
       <use x="95.410156" xlink:href="#DejaVuSans-48"/>
       <use x="159.033203" xlink:href="#DejaVuSans-50"/>
      </g>
     </g>
    </g>
    <g id="ytick_3">
     <g id="line2d_9">
      <g>
       <use style="stroke:#000000;stroke-width:0.8;" x="50.14375" xlink:href="#m30a6894fc4" y="185.462864"/>
      </g>
     </g>
     <g id="text_10">
      <!-- 0.04 -->
      <g transform="translate(20.878125 189.262083)scale(0.1 -0.1)">
       <use xlink:href="#DejaVuSans-48"/>
       <use x="63.623047" xlink:href="#DejaVuSans-46"/>
       <use x="95.410156" xlink:href="#DejaVuSans-48"/>
       <use x="159.033203" xlink:href="#DejaVuSans-52"/>
      </g>
     </g>
    </g>
    <g id="ytick_4">
     <g id="line2d_10">
      <g>
       <use style="stroke:#000000;stroke-width:0.8;" x="50.14375" xlink:href="#m30a6894fc4" y="140.027234"/>
      </g>
     </g>
     <g id="text_11">
      <!-- 0.06 -->
      <g transform="translate(20.878125 143.826452)scale(0.1 -0.1)">
       <defs>
        <path d="M 33.015625 40.375 
Q 26.375 40.375 22.484375 35.828125 
Q 18.609375 31.296875 18.609375 23.390625 
Q 18.609375 15.53125 22.484375 10.953125 
Q 26.375 6.390625 33.015625 6.390625 
Q 39.65625 6.390625 43.53125 10.953125 
Q 47.40625 15.53125 47.40625 23.390625 
Q 47.40625 31.296875 43.53125 35.828125 
Q 39.65625 40.375 33.015625 40.375 
z
M 52.59375 71.296875 
L 52.59375 62.3125 
Q 48.875 64.0625 45.09375 64.984375 
Q 41.3125 65.921875 37.59375 65.921875 
Q 27.828125 65.921875 22.671875 59.328125 
Q 17.53125 52.734375 16.796875 39.40625 
Q 19.671875 43.65625 24.015625 45.921875 
Q 28.375 48.1875 33.59375 48.1875 
Q 44.578125 48.1875 50.953125 41.515625 
Q 57.328125 34.859375 57.328125 23.390625 
Q 57.328125 12.15625 50.6875 5.359375 
Q 44.046875 -1.421875 33.015625 -1.421875 
Q 20.359375 -1.421875 13.671875 8.265625 
Q 6.984375 17.96875 6.984375 36.375 
Q 6.984375 53.65625 15.1875 63.9375 
Q 23.390625 74.21875 37.203125 74.21875 
Q 40.921875 74.21875 44.703125 73.484375 
Q 48.484375 72.75 52.59375 71.296875 
z
" id="DejaVuSans-54"/>
       </defs>
       <use xlink:href="#DejaVuSans-48"/>
       <use x="63.623047" xlink:href="#DejaVuSans-46"/>
       <use x="95.410156" xlink:href="#DejaVuSans-48"/>
       <use x="159.033203" xlink:href="#DejaVuSans-54"/>
      </g>
     </g>
    </g>
    <g id="ytick_5">
     <g id="line2d_11">
      <g>
       <use style="stroke:#000000;stroke-width:0.8;" x="50.14375" xlink:href="#m30a6894fc4" y="94.591603"/>
      </g>
     </g>
     <g id="text_12">
      <!-- 0.08 -->
      <g transform="translate(20.878125 98.390822)scale(0.1 -0.1)">
       <defs>
        <path d="M 31.78125 34.625 
Q 24.75 34.625 20.71875 30.859375 
Q 16.703125 27.09375 16.703125 20.515625 
Q 16.703125 13.921875 20.71875 10.15625 
Q 24.75 6.390625 31.78125 6.390625 
Q 38.8125 6.390625 42.859375 10.171875 
Q 46.921875 13.96875 46.921875 20.515625 
Q 46.921875 27.09375 42.890625 30.859375 
Q 38.875 34.625 31.78125 34.625 
z
M 21.921875 38.8125 
Q 15.578125 40.375 12.03125 44.71875 
Q 8.5 49.078125 8.5 55.328125 
Q 8.5 64.0625 14.71875 69.140625 
Q 20.953125 74.21875 31.78125 74.21875 
Q 42.671875 74.21875 48.875 69.140625 
Q 55.078125 64.0625 55.078125 55.328125 
Q 55.078125 49.078125 51.53125 44.71875 
Q 48 40.375 41.703125 38.8125 
Q 48.828125 37.15625 52.796875 32.3125 
Q 56.78125 27.484375 56.78125 20.515625 
Q 56.78125 9.90625 50.3125 4.234375 
Q 43.84375 -1.421875 31.78125 -1.421875 
Q 19.734375 -1.421875 13.25 4.234375 
Q 6.78125 9.90625 6.78125 20.515625 
Q 6.78125 27.484375 10.78125 32.3125 
Q 14.796875 37.15625 21.921875 38.8125 
z
M 18.3125 54.390625 
Q 18.3125 48.734375 21.84375 45.5625 
Q 25.390625 42.390625 31.78125 42.390625 
Q 38.140625 42.390625 41.71875 45.5625 
Q 45.3125 48.734375 45.3125 54.390625 
Q 45.3125 60.0625 41.71875 63.234375 
Q 38.140625 66.40625 31.78125 66.40625 
Q 25.390625 66.40625 21.84375 63.234375 
Q 18.3125 60.0625 18.3125 54.390625 
z
" id="DejaVuSans-56"/>
       </defs>
       <use xlink:href="#DejaVuSans-48"/>
       <use x="63.623047" xlink:href="#DejaVuSans-46"/>
       <use x="95.410156" xlink:href="#DejaVuSans-48"/>
       <use x="159.033203" xlink:href="#DejaVuSans-56"/>
      </g>
     </g>
    </g>
    <g id="ytick_6">
     <g id="line2d_12">
      <g>
       <use style="stroke:#000000;stroke-width:0.8;" x="50.14375" xlink:href="#m30a6894fc4" y="49.155973"/>
      </g>
     </g>
     <g id="text_13">
      <!-- 0.10 -->
      <g transform="translate(20.878125 52.955192)scale(0.1 -0.1)">
       <use xlink:href="#DejaVuSans-48"/>
       <use x="63.623047" xlink:href="#DejaVuSans-46"/>
       <use x="95.410156" xlink:href="#DejaVuSans-49"/>
       <use x="159.033203" xlink:href="#DejaVuSans-48"/>
      </g>
     </g>
    </g>
    <g id="text_14">
     <!-- Absorbance227 -->
     <g transform="translate(14.798438 194.46475)rotate(-90)scale(0.1 -0.1)">
      <defs>
       <path d="M 34.1875 63.1875 
L 20.796875 26.90625 
L 47.609375 26.90625 
z
M 28.609375 72.90625 
L 39.796875 72.90625 
L 67.578125 0 
L 57.328125 0 
L 50.6875 18.703125 
L 17.828125 18.703125 
L 11.1875 0 
L 0.78125 0 
z
" id="DejaVuSans-65"/>
       <path d="M 48.6875 27.296875 
Q 48.6875 37.203125 44.609375 42.84375 
Q 40.53125 48.484375 33.40625 48.484375 
Q 26.265625 48.484375 22.1875 42.84375 
Q 18.109375 37.203125 18.109375 27.296875 
Q 18.109375 17.390625 22.1875 11.75 
Q 26.265625 6.109375 33.40625 6.109375 
Q 40.53125 6.109375 44.609375 11.75 
Q 48.6875 17.390625 48.6875 27.296875 
z
M 18.109375 46.390625 
Q 20.953125 51.265625 25.265625 53.625 
Q 29.59375 56 35.59375 56 
Q 45.5625 56 51.78125 48.09375 
Q 58.015625 40.1875 58.015625 27.296875 
Q 58.015625 14.40625 51.78125 6.484375 
Q 45.5625 -1.421875 35.59375 -1.421875 
Q 29.59375 -1.421875 25.265625 0.953125 
Q 20.953125 3.328125 18.109375 8.203125 
L 18.109375 0 
L 9.078125 0 
L 9.078125 75.984375 
L 18.109375 75.984375 
z
" id="DejaVuSans-98"/>
       <path d="M 30.609375 48.390625 
Q 23.390625 48.390625 19.1875 42.75 
Q 14.984375 37.109375 14.984375 27.296875 
Q 14.984375 17.484375 19.15625 11.84375 
Q 23.34375 6.203125 30.609375 6.203125 
Q 37.796875 6.203125 41.984375 11.859375 
Q 46.1875 17.53125 46.1875 27.296875 
Q 46.1875 37.015625 41.984375 42.703125 
Q 37.796875 48.390625 30.609375 48.390625 
z
M 30.609375 56 
Q 42.328125 56 49.015625 48.375 
Q 55.71875 40.765625 55.71875 27.296875 
Q 55.71875 13.875 49.015625 6.21875 
Q 42.328125 -1.421875 30.609375 -1.421875 
Q 18.84375 -1.421875 12.171875 6.21875 
Q 5.515625 13.875 5.515625 27.296875 
Q 5.515625 40.765625 12.171875 48.375 
Q 18.84375 56 30.609375 56 
z
" id="DejaVuSans-111"/>
       <path d="M 41.109375 46.296875 
Q 39.59375 47.171875 37.8125 47.578125 
Q 36.03125 48 33.890625 48 
Q 26.265625 48 22.1875 43.046875 
Q 18.109375 38.09375 18.109375 28.8125 
L 18.109375 0 
L 9.078125 0 
L 9.078125 54.6875 
L 18.109375 54.6875 
L 18.109375 46.1875 
Q 20.953125 51.171875 25.484375 53.578125 
Q 30.03125 56 36.53125 56 
Q 37.453125 56 38.578125 55.875 
Q 39.703125 55.765625 41.0625 55.515625 
z
" id="DejaVuSans-114"/>
       <path d="M 34.28125 27.484375 
Q 23.390625 27.484375 19.1875 25 
Q 14.984375 22.515625 14.984375 16.5 
Q 14.984375 11.71875 18.140625 8.90625 
Q 21.296875 6.109375 26.703125 6.109375 
Q 34.1875 6.109375 38.703125 11.40625 
Q 43.21875 16.703125 43.21875 25.484375 
L 43.21875 27.484375 
z
M 52.203125 31.203125 
L 52.203125 0 
L 43.21875 0 
L 43.21875 8.296875 
Q 40.140625 3.328125 35.546875 0.953125 
Q 30.953125 -1.421875 24.3125 -1.421875 
Q 15.921875 -1.421875 10.953125 3.296875 
Q 6 8.015625 6 15.921875 
Q 6 25.140625 12.171875 29.828125 
Q 18.359375 34.515625 30.609375 34.515625 
L 43.21875 34.515625 
L 43.21875 35.40625 
Q 43.21875 41.609375 39.140625 45 
Q 35.0625 48.390625 27.6875 48.390625 
Q 23 48.390625 18.546875 47.265625 
Q 14.109375 46.140625 10.015625 43.890625 
L 10.015625 52.203125 
Q 14.9375 54.109375 19.578125 55.046875 
Q 24.21875 56 28.609375 56 
Q 40.484375 56 46.34375 49.84375 
Q 52.203125 43.703125 52.203125 31.203125 
z
" id="DejaVuSans-97"/>
       <path d="M 54.890625 33.015625 
L 54.890625 0 
L 45.90625 0 
L 45.90625 32.71875 
Q 45.90625 40.484375 42.875 44.328125 
Q 39.84375 48.1875 33.796875 48.1875 
Q 26.515625 48.1875 22.3125 43.546875 
Q 18.109375 38.921875 18.109375 30.90625 
L 18.109375 0 
L 9.078125 0 
L 9.078125 54.6875 
L 18.109375 54.6875 
L 18.109375 46.1875 
Q 21.34375 51.125 25.703125 53.5625 
Q 30.078125 56 35.796875 56 
Q 45.21875 56 50.046875 50.171875 
Q 54.890625 44.34375 54.890625 33.015625 
z
" id="DejaVuSans-110"/>
       <path d="M 48.78125 52.59375 
L 48.78125 44.1875 
Q 44.96875 46.296875 41.140625 47.34375 
Q 37.3125 48.390625 33.40625 48.390625 
Q 24.65625 48.390625 19.8125 42.84375 
Q 14.984375 37.3125 14.984375 27.296875 
Q 14.984375 17.28125 19.8125 11.734375 
Q 24.65625 6.203125 33.40625 6.203125 
Q 37.3125 6.203125 41.140625 7.25 
Q 44.96875 8.296875 48.78125 10.40625 
L 48.78125 2.09375 
Q 45.015625 0.34375 40.984375 -0.53125 
Q 36.96875 -1.421875 32.421875 -1.421875 
Q 20.0625 -1.421875 12.78125 6.34375 
Q 5.515625 14.109375 5.515625 27.296875 
Q 5.515625 40.671875 12.859375 48.328125 
Q 20.21875 56 33.015625 56 
Q 37.15625 56 41.109375 55.140625 
Q 45.0625 54.296875 48.78125 52.59375 
z
" id="DejaVuSans-99"/>
       <path d="M 8.203125 72.90625 
L 55.078125 72.90625 
L 55.078125 68.703125 
L 28.609375 0 
L 18.3125 0 
L 43.21875 64.59375 
L 8.203125 64.59375 
z
" id="DejaVuSans-55"/>
      </defs>
      <use xlink:href="#DejaVuSans-65"/>
      <use x="68.408203" xlink:href="#DejaVuSans-98"/>
      <use x="131.884766" xlink:href="#DejaVuSans-115"/>
      <use x="183.984375" xlink:href="#DejaVuSans-111"/>
      <use x="245.166016" xlink:href="#DejaVuSans-114"/>
      <use x="286.279297" xlink:href="#DejaVuSans-98"/>
      <use x="349.755859" xlink:href="#DejaVuSans-97"/>
      <use x="411.035156" xlink:href="#DejaVuSans-110"/>
      <use x="474.414062" xlink:href="#DejaVuSans-99"/>
      <use x="529.394531" xlink:href="#DejaVuSans-101"/>
      <use x="590.917969" xlink:href="#DejaVuSans-50"/>
      <use x="654.541016" xlink:href="#DejaVuSans-50"/>
      <use x="718.164062" xlink:href="#DejaVuSans-55"/>
     </g>
    </g>
   </g>
   <g id="line2d_13">
    <defs>
     <path d="M 0 3 
C 0.795609 3 1.55874 2.683901 2.12132 2.12132 
C 2.683901 1.55874 3 0.795609 3 0 
C 3 -0.795609 2.683901 -1.55874 2.12132 -2.12132 
C 1.55874 -2.683901 0.795609 -3 0 -3 
C -0.795609 -3 -1.55874 -2.683901 -2.12132 -2.12132 
C -2.683901 -1.55874 -3 -0.795609 -3 0 
C -3 0.795609 -2.683901 1.55874 -2.12132 2.12132 
C -1.55874 2.683901 -0.795609 3 0 3 
z
" id="me0d591ea4f" style="stroke:#000000;"/>
    </defs>
    <g clip-path="url(#p901c936354)">
     <use style="stroke:#000000;" x="89.999946" xlink:href="#me0d591ea4f" y="172.783917"/>
     <use style="stroke:#000000;" x="90.664202" xlink:href="#me0d591ea4f" y="174.334106"/>
     <use style="stroke:#000000;" x="91.328458" xlink:href="#me0d591ea4f" y="175.834502"/>
     <use style="stroke:#000000;" x="91.992721" xlink:href="#me0d591ea4f" y="177.287472"/>
     <use style="stroke:#000000;" x="92.656977" xlink:href="#me0d591ea4f" y="178.695227"/>
     <use style="stroke:#000000;" x="93.321232" xlink:href="#me0d591ea4f" y="180.059847"/>
     <use style="stroke:#000000;" x="93.985495" xlink:href="#me0d591ea4f" y="181.383283"/>
     <use style="stroke:#000000;" x="94.649751" xlink:href="#me0d591ea4f" y="182.667373"/>
     <use style="stroke:#000000;" x="95.314007" xlink:href="#me0d591ea4f" y="183.913845"/>
     <use style="stroke:#000000;" x="95.978269" xlink:href="#me0d591ea4f" y="185.124328"/>
     <use style="stroke:#000000;" x="96.642525" xlink:href="#me0d591ea4f" y="186.300359"/>
     <use style="stroke:#000000;" x="97.306781" xlink:href="#me0d591ea4f" y="187.443387"/>
     <use style="stroke:#000000;" x="97.971043" xlink:href="#me0d591ea4f" y="188.554784"/>
     <use style="stroke:#000000;" x="98.635299" xlink:href="#me0d591ea4f" y="189.635845"/>
     <use style="stroke:#000000;" x="99.299555" xlink:href="#me0d591ea4f" y="190.687793"/>
     <use style="stroke:#000000;" x="99.963817" xlink:href="#me0d591ea4f" y="191.711792"/>
     <use style="stroke:#000000;" x="100.628073" xlink:href="#me0d591ea4f" y="192.708938"/>
     <use style="stroke:#000000;" x="101.292329" xlink:href="#me0d591ea4f" y="193.680275"/>
     <use style="stroke:#000000;" x="101.956592" xlink:href="#me0d591ea4f" y="194.62679"/>
     <use style="stroke:#000000;" x="102.620848" xlink:href="#me0d591ea4f" y="195.549426"/>
     <use style="stroke:#000000;" x="103.285104" xlink:href="#me0d591ea4f" y="196.449075"/>
     <use style="stroke:#000000;" x="103.949359" xlink:href="#me0d591ea4f" y="197.326582"/>
     <use style="stroke:#000000;" x="104.613622" xlink:href="#me0d591ea4f" y="198.182757"/>
     <use style="stroke:#000000;" x="105.277878" xlink:href="#me0d591ea4f" y="199.018371"/>
     <use style="stroke:#000000;" x="105.942134" xlink:href="#me0d591ea4f" y="199.834152"/>
     <use style="stroke:#000000;" x="106.606396" xlink:href="#me0d591ea4f" y="200.630797"/>
     <use style="stroke:#000000;" x="107.270652" xlink:href="#me0d591ea4f" y="201.408976"/>
     <use style="stroke:#000000;" x="107.934908" xlink:href="#me0d591ea4f" y="202.169321"/>
     <use style="stroke:#000000;" x="108.938436" xlink:href="#me0d591ea4f" y="203.285524"/>
     <use style="stroke:#000000;" x="109.941964" xlink:href="#me0d591ea4f" y="204.364377"/>
     <use style="stroke:#000000;" x="110.945492" xlink:href="#me0d591ea4f" y="205.40772"/>
     <use style="stroke:#000000;" x="111.949019" xlink:href="#me0d591ea4f" y="206.417282"/>
     <use style="stroke:#000000;" x="112.952547" xlink:href="#me0d591ea4f" y="207.394672"/>
     <use style="stroke:#000000;" x="113.956075" xlink:href="#me0d591ea4f" y="208.34141"/>
     <use style="stroke:#000000;" x="114.959603" xlink:href="#me0d591ea4f" y="209.25891"/>
     <use style="stroke:#000000;" x="115.963131" xlink:href="#me0d591ea4f" y="210.14851"/>
     <use style="stroke:#000000;" x="116.966659" xlink:href="#me0d591ea4f" y="211.01146"/>
     <use style="stroke:#000000;" x="117.970187" xlink:href="#me0d591ea4f" y="211.848943"/>
     <use style="stroke:#000000;" x="118.973715" xlink:href="#me0d591ea4f" y="212.662068"/>
     <use style="stroke:#000000;" x="119.977243" xlink:href="#me0d591ea4f" y="213.451883"/>
     <use style="stroke:#000000;" x="120.98077" xlink:href="#me0d591ea4f" y="214.219377"/>
     <use style="stroke:#000000;" x="121.984298" xlink:href="#me0d591ea4f" y="214.965482"/>
     <use style="stroke:#000000;" x="122.987826" xlink:href="#me0d591ea4f" y="215.69108"/>
     <use style="stroke:#000000;" x="123.991354" xlink:href="#me0d591ea4f" y="216.397004"/>
     <use style="stroke:#000000;" x="124.994882" xlink:href="#me0d591ea4f" y="217.084046"/>
     <use style="stroke:#000000;" x="125.99841" xlink:href="#me0d591ea4f" y="217.752951"/>
     <use style="stroke:#000000;" x="127.001938" xlink:href="#me0d591ea4f" y="218.40443"/>
     <use style="stroke:#000000;" x="128.005466" xlink:href="#me0d591ea4f" y="219.039154"/>
     <use style="stroke:#000000;" x="129.008993" xlink:href="#me0d591ea4f" y="219.65776"/>
     <use style="stroke:#000000;" x="130.012521" xlink:href="#me0d591ea4f" y="220.260857"/>
     <use style="stroke:#000000;" x="131.016049" xlink:href="#me0d591ea4f" y="220.849019"/>
     <use style="stroke:#000000;" x="132.019577" xlink:href="#me0d591ea4f" y="221.422796"/>
     <use style="stroke:#000000;" x="133.023105" xlink:href="#me0d591ea4f" y="221.982706"/>
     <use style="stroke:#000000;" x="134.026633" xlink:href="#me0d591ea4f" y="222.529249"/>
     <use style="stroke:#000000;" x="135.540254" xlink:href="#me0d591ea4f" y="223.32935"/>
     <use style="stroke:#000000;" x="137.053869" xlink:href="#me0d591ea4f" y="224.10164"/>
     <use style="stroke:#000000;" x="138.56749" xlink:href="#me0d591ea4f" y="224.847543"/>
     <use style="stroke:#000000;" x="140.081105" xlink:href="#me0d591ea4f" y="225.568388"/>
     <use style="stroke:#000000;" x="141.594726" xlink:href="#me0d591ea4f" y="226.265421"/>
     <use style="stroke:#000000;" x="143.108347" xlink:href="#me0d591ea4f" y="226.939797"/>
     <use style="stroke:#000000;" x="144.621962" xlink:href="#me0d591ea4f" y="227.592607"/>
     <use style="stroke:#000000;" x="146.135583" xlink:href="#me0d591ea4f" y="228.224869"/>
     <use style="stroke:#000000;" x="147.649204" xlink:href="#me0d591ea4f" y="228.837534"/>
     <use style="stroke:#000000;" x="149.162819" xlink:href="#me0d591ea4f" y="229.431505"/>
     <use style="stroke:#000000;" x="150.67644" xlink:href="#me0d591ea4f" y="230.007622"/>
     <use style="stroke:#000000;" x="152.190055" xlink:href="#me0d591ea4f" y="230.566678"/>
     <use style="stroke:#000000;" x="153.703676" xlink:href="#me0d591ea4f" y="231.109418"/>
     <use style="stroke:#000000;" x="155.217297" xlink:href="#me0d591ea4f" y="231.636551"/>
     <use style="stroke:#000000;" x="156.730912" xlink:href="#me0d591ea4f" y="232.148735"/>
     <use style="stroke:#000000;" x="158.244533" xlink:href="#me0d591ea4f" y="232.646601"/>
     <use style="stroke:#000000;" x="159.758154" xlink:href="#me0d591ea4f" y="233.13074"/>
     <use style="stroke:#000000;" x="161.271769" xlink:href="#me0d591ea4f" y="233.601712"/>
     <use style="stroke:#000000;" x="162.78539" xlink:href="#me0d591ea4f" y="234.060047"/>
     <use style="stroke:#000000;" x="164.299004" xlink:href="#me0d591ea4f" y="234.506245"/>
     <use style="stroke:#000000;" x="165.812626" xlink:href="#me0d591ea4f" y="234.940784"/>
     <use style="stroke:#000000;" x="167.326247" xlink:href="#me0d591ea4f" y="235.364115"/>
     <use style="stroke:#000000;" x="168.839861" xlink:href="#me0d591ea4f" y="235.776664"/>
     <use style="stroke:#000000;" x="170.353483" xlink:href="#me0d591ea4f" y="236.17884"/>
     <use style="stroke:#000000;" x="171.867104" xlink:href="#me0d591ea4f" y="236.571029"/>
     <use style="stroke:#000000;" x="174.156959" xlink:href="#me0d591ea4f" y="237.146178"/>
     <use style="stroke:#000000;" x="176.44682" xlink:href="#me0d591ea4f" y="237.700499"/>
     <use style="stroke:#000000;" x="178.736682" xlink:href="#me0d591ea4f" y="238.235106"/>
     <use style="stroke:#000000;" x="181.026537" xlink:href="#me0d591ea4f" y="238.751035"/>
     <use style="stroke:#000000;" x="183.316398" xlink:href="#me0d591ea4f" y="239.249243"/>
     <use style="stroke:#000000;" x="185.606259" xlink:href="#me0d591ea4f" y="239.730629"/>
     <use style="stroke:#000000;" x="187.896121" xlink:href="#me0d591ea4f" y="240.196033"/>
     <use style="stroke:#000000;" x="190.185976" xlink:href="#me0d591ea4f" y="240.646237"/>
     <use style="stroke:#000000;" x="192.475837" xlink:href="#me0d591ea4f" y="241.081971"/>
     <use style="stroke:#000000;" x="194.765699" xlink:href="#me0d591ea4f" y="241.503927"/>
    </g>
   </g>
   <g id="line2d_14">
    <path clip-path="url(#p901c936354)" d="M 66.376477 276.334125 
L 66.376952 276.223404 
L 66.396659 211.940067 
L 66.545984 77.34015 
L 66.628324 75.469667 
L 66.67791 75.659311 
L 67.05669 78.89218 
L 68.597712 91.290008 
L 70.301429 103.221414 
L 72.060165 113.963801 
L 73.818901 123.397886 
L 75.7165 132.367821 
L 77.427671 139.558195 
L 79.362893 146.828797 
L 81.574101 154.196127 
L 83.853473 160.914273 
L 86.132844 166.888994 
L 88.412216 172.237195 
L 90.691587 177.052492 
L 92.970959 181.410734 
L 95.25033 185.374027 
L 98.289492 190.131524 
L 101.328654 194.376088 
L 104.219438 198.00944 
L 107.415928 201.635437 
L 110.612983 204.908852 
L 113.810602 207.878696 
L 117.008222 210.584839 
L 120.736601 213.451639 
L 124.464981 216.049413 
L 128.19336 218.414296 
L 132.786446 221.05139 
L 137.637315 223.552406 
L 142.594357 225.851123 
L 147.590236 227.942872 
L 153.213479 230.065975 
L 158.952594 232.016455 
L 165.932229 234.138625 
L 172.060388 235.809291 
L 179.975412 237.742054 
L 187.890435 239.460105 
L 198.4438 241.474243 
L 209.551659 243.31409 
L 221.214011 244.995064 
L 234.08811 246.608658 
L 246.71 247.989475 
L 262.487362 249.488545 
L 281.420197 251.021197 
L 300.353031 252.32442 
L 322.441338 253.617537 
L 348.270558 254.887618 
L 377.589508 256.086552 
L 387.52678 256.445484 
L 387.52678 256.445484 
" style="fill:none;stroke:#0000ff;stroke-linecap:square;stroke-width:1.5;"/>
   </g>
   <g id="line2d_15">
    <path clip-path="url(#p901c936354)" d="M 66.376477 276.334125 
L 66.376892 276.23149 
L 66.393915 210.326365 
L 66.543819 36.780489 
L 66.627771 34.414125 
L 66.679544 34.666196 
L 67.061617 38.618401 
L 68.669919 54.250456 
L 70.32273 68.233849 
L 72.023077 80.831747 
L 73.954523 93.345604 
L 75.885969 104.293437 
L 77.817415 113.951927 
L 79.95478 123.395395 
L 82.289548 132.473311 
L 84.624315 140.480958 
L 86.959083 147.597059 
L 89.29385 153.962638 
L 91.628618 159.690462 
L 93.963385 164.871782 
L 96.686975 170.324173 
L 99.344693 175.117578 
L 102.058206 179.550654 
L 104.895623 183.756294 
L 107.891301 187.784418 
L 110.667065 191.188565 
L 114.195893 195.12165 
L 117.72472 198.672713 
L 121.253548 201.894798 
L 124.782375 204.831556 
L 128.311203 207.519242 
L 133.016306 210.767155 
L 137.721409 213.684977 
L 142.527495 216.3743 
L 147.97221 219.11715 
L 153.416926 221.583964 
L 158.861641 223.814339 
L 164.306356 225.840641 
L 171.565976 228.270447 
L 178.825596 230.435835 
L 186.159668 232.396492 
L 194.438417 234.37758 
L 202.717167 236.149796 
L 213.755499 238.240967 
L 224.793832 240.073968 
L 235.832165 241.693597 
L 249.659041 243.47416 
L 266.27446 245.317094 
L 282.889879 246.900204 
L 299.505299 248.274385 
L 320.274573 249.755956 
L 341.072031 251.028295 
L 366.051527 252.33501 
L 391.031023 253.449479 
L 391.031023 253.449479 
" style="fill:none;stroke:#ff0000;stroke-linecap:square;stroke-width:1.5;"/>
   </g>
   <g id="line2d_16">
    <path clip-path="url(#p901c936354)" d="M 89.999946 139.740106 
L 90.664202 142.140562 
L 91.328458 144.530117 
L 91.992721 146.900548 
L 92.656977 149.249975 
L 93.321232 151.401545 
L 93.985495 153.345853 
L 94.649751 155.22199 
L 95.314007 157.090646 
L 95.978269 158.94409 
L 96.642525 160.783946 
L 97.306781 162.232252 
L 97.971043 163.740213 
L 98.635299 165.376708 
L 99.299555 167.096175 
L 99.963817 168.738912 
L 100.628073 169.95169 
L 101.292329 171.22648 
L 101.956592 172.593377 
L 102.620848 174.134601 
L 103.285104 175.249487 
L 103.949359 176.581459 
L 104.613622 177.773932 
L 105.277878 178.806684 
L 105.942134 180.026644 
L 106.606396 181.081717 
L 107.270652 182.194808 
L 107.934908 183.153398 
L 108.938436 184.68428 
L 109.941964 186.179953 
L 110.945492 187.669024 
L 111.949019 188.959219 
L 112.952547 190.176833 
L 113.956075 191.453705 
L 114.959603 192.739765 
L 115.963131 193.905582 
L 116.966659 194.95804 
L 117.970187 196.114406 
L 118.973715 197.149122 
L 119.977243 198.077774 
L 120.98077 198.983151 
L 121.984298 200.016997 
L 122.987826 201.040907 
L 123.991354 201.899035 
L 124.994882 202.702844 
L 125.99841 203.499204 
L 127.001938 204.285347 
L 128.005466 205.121656 
L 129.008993 205.92595 
L 130.012521 206.712279 
L 131.016049 207.503489 
L 132.019577 208.234901 
L 133.023105 208.832628 
L 134.026633 209.562522 
L 135.540254 210.522176 
L 137.053869 211.469375 
L 138.56749 212.38915 
L 140.081105 213.275897 
L 141.594726 214.148412 
L 143.108347 215.009145 
L 144.621962 215.890031 
L 146.135583 216.684156 
L 147.649204 217.43783 
L 149.162819 218.174051 
L 150.67644 218.873747 
L 152.190055 219.575741 
L 153.703676 220.230231 
L 155.217297 220.853977 
L 156.730912 221.492925 
L 158.244533 222.095181 
L 159.758154 222.690354 
L 161.271769 223.269934 
L 162.78539 223.807931 
L 164.299004 224.358971 
L 165.812626 224.89609 
L 167.326247 225.420794 
L 168.839861 225.897714 
L 170.353483 226.376422 
L 171.867104 226.863807 
L 174.156959 227.575483 
L 176.44682 228.244225 
L 178.736682 228.888482 
L 181.026537 229.517725 
L 183.316398 230.127751 
L 185.606259 230.711327 
L 187.896121 231.264508 
L 190.185976 231.806679 
L 192.475837 232.338244 
L 194.765699 232.861316 
" style="fill:none;stroke:#0000ff;stroke-dasharray:5.55,2.4;stroke-dashoffset:0;stroke-width:1.5;"/>
   </g>
   <g id="line2d_17">
    <path clip-path="url(#p901c936354)" d="M 89.999946 202.10567 
L 90.664202 202.798966 
L 91.328458 203.43248 
L 91.992721 204.019337 
L 92.656977 204.562017 
L 93.321232 205.162795 
L 93.985495 205.831154 
L 94.649751 206.490499 
L 95.314007 207.107638 
L 95.978269 207.686033 
L 96.642525 208.223993 
L 97.306781 208.951443 
L 97.971043 209.604639 
L 98.635299 210.143254 
L 99.299555 210.594115 
L 99.963817 211.05363 
L 100.628073 211.738779 
L 101.292329 212.351175 
L 101.956592 212.872123 
L 102.620848 213.258433 
L 103.285104 213.871521 
L 103.949359 214.32172 
L 104.613622 214.830512 
L 105.277878 215.412165 
L 105.942134 215.846754 
L 106.606396 216.359313 
L 107.270652 216.810856 
L 107.934908 217.336343 
L 108.938436 218.030192 
L 109.941964 218.693718 
L 110.945492 219.310969 
L 111.949019 220.010312 
L 112.952547 220.71292 
L 113.956075 221.330558 
L 114.959603 221.900103 
L 115.963131 222.509377 
L 116.966659 223.155855 
L 117.970187 223.691359 
L 118.973715 224.273822 
L 119.977243 224.894118 
L 120.98077 225.498941 
L 121.984298 225.989425 
L 122.987826 226.448971 
L 123.991354 226.990833 
L 124.994882 227.542454 
L 125.99841 228.073598 
L 127.001938 228.586905 
L 128.005466 229.037536 
L 129.008993 229.485254 
L 130.012521 229.923003 
L 131.016049 230.336175 
L 132.019577 230.768988 
L 133.023105 231.266989 
L 134.026633 231.656809 
L 135.540254 232.303829 
L 137.053869 232.916117 
L 138.56749 233.506397 
L 140.081105 234.080006 
L 141.594726 234.62646 
L 143.108347 235.145867 
L 144.621962 235.618168 
L 146.135583 236.116913 
L 147.649204 236.612346 
L 149.162819 237.088994 
L 150.67644 237.564206 
L 152.190055 238.01149 
L 153.703676 238.463244 
L 155.217297 238.912776 
L 156.730912 239.326001 
L 158.244533 239.742734 
L 159.758154 240.143015 
L 161.271769 240.533367 
L 162.78539 240.932069 
L 164.299004 241.302991 
L 165.812626 241.663374 
L 167.326247 242.013159 
L 168.839861 242.378354 
L 170.353483 242.723254 
L 171.867104 243.053249 
L 174.156959 243.532571 
L 176.44682 244.008213 
L 178.736682 244.469327 
L 181.026537 244.911025 
L 183.316398 245.337528 
L 185.606259 245.754988 
L 187.896121 246.167263 
L 190.185976 246.558483 
L 192.475837 246.933884 
L 194.765699 247.29311 
" style="fill:none;stroke:#0000ff;stroke-dasharray:5.55,2.4;stroke-dashoffset:0;stroke-width:1.5;"/>
   </g>
   <g id="line2d_18"/>
   <g id="line2d_19"/>
   <g id="line2d_20"/>
   <g id="line2d_21"/>
   <g id="line2d_22"/>
   <g id="line2d_23"/>
   <g id="line2d_24"/>
   <g id="patch_3">
    <path d="M 50.14375 288.430125 
L 50.14375 22.318125 
" style="fill:none;stroke:#000000;stroke-linecap:square;stroke-linejoin:miter;stroke-width:0.8;"/>
   </g>
   <g id="patch_4">
    <path d="M 407.26375 288.430125 
L 407.26375 22.318125 
" style="fill:none;stroke:#000000;stroke-linecap:square;stroke-linejoin:miter;stroke-width:0.8;"/>
   </g>
   <g id="patch_5">
    <path d="M 50.14375 288.430125 
L 407.26375 288.430125 
" style="fill:none;stroke:#000000;stroke-linecap:square;stroke-linejoin:miter;stroke-width:0.8;"/>
   </g>
   <g id="patch_6">
    <path d="M 50.14375 22.318125 
L 407.26375 22.318125 
" style="fill:none;stroke:#000000;stroke-linecap:square;stroke-linejoin:miter;stroke-width:0.8;"/>
   </g>
   <g id="text_15">
    <!-- Experiment_54 -->
    <g transform="translate(183.400937 16.318125)scale(0.12 -0.12)">
     <defs>
      <path d="M 9.8125 72.90625 
L 55.90625 72.90625 
L 55.90625 64.59375 
L 19.671875 64.59375 
L 19.671875 43.015625 
L 54.390625 43.015625 
L 54.390625 34.71875 
L 19.671875 34.71875 
L 19.671875 8.296875 
L 56.78125 8.296875 
L 56.78125 0 
L 9.8125 0 
z
" id="DejaVuSans-69"/>
      <path d="M 54.890625 54.6875 
L 35.109375 28.078125 
L 55.90625 0 
L 45.3125 0 
L 29.390625 21.484375 
L 13.484375 0 
L 2.875 0 
L 24.125 28.609375 
L 4.6875 54.6875 
L 15.28125 54.6875 
L 29.78125 35.203125 
L 44.28125 54.6875 
z
" id="DejaVuSans-120"/>
      <path d="M 18.109375 8.203125 
L 18.109375 -20.796875 
L 9.078125 -20.796875 
L 9.078125 54.6875 
L 18.109375 54.6875 
L 18.109375 46.390625 
Q 20.953125 51.265625 25.265625 53.625 
Q 29.59375 56 35.59375 56 
Q 45.5625 56 51.78125 48.09375 
Q 58.015625 40.1875 58.015625 27.296875 
Q 58.015625 14.40625 51.78125 6.484375 
Q 45.5625 -1.421875 35.59375 -1.421875 
Q 29.59375 -1.421875 25.265625 0.953125 
Q 20.953125 3.328125 18.109375 8.203125 
z
M 48.6875 27.296875 
Q 48.6875 37.203125 44.609375 42.84375 
Q 40.53125 48.484375 33.40625 48.484375 
Q 26.265625 48.484375 22.1875 42.84375 
Q 18.109375 37.203125 18.109375 27.296875 
Q 18.109375 17.390625 22.1875 11.75 
Q 26.265625 6.109375 33.40625 6.109375 
Q 40.53125 6.109375 44.609375 11.75 
Q 48.6875 17.390625 48.6875 27.296875 
z
" id="DejaVuSans-112"/>
      <path d="M 18.3125 70.21875 
L 18.3125 54.6875 
L 36.8125 54.6875 
L 36.8125 47.703125 
L 18.3125 47.703125 
L 18.3125 18.015625 
Q 18.3125 11.328125 20.140625 9.421875 
Q 21.96875 7.515625 27.59375 7.515625 
L 36.8125 7.515625 
L 36.8125 0 
L 27.59375 0 
Q 17.1875 0 13.234375 3.875 
Q 9.28125 7.765625 9.28125 18.015625 
L 9.28125 47.703125 
L 2.6875 47.703125 
L 2.6875 54.6875 
L 9.28125 54.6875 
L 9.28125 70.21875 
z
" id="DejaVuSans-116"/>
      <path d="M 50.984375 -16.609375 
L 50.984375 -23.578125 
L -0.984375 -23.578125 
L -0.984375 -16.609375 
z
" id="DejaVuSans-95"/>
     </defs>
     <use xlink:href="#DejaVuSans-69"/>
     <use x="63.183594" xlink:href="#DejaVuSans-120"/>
     <use x="122.363281" xlink:href="#DejaVuSans-112"/>
     <use x="185.839844" xlink:href="#DejaVuSans-101"/>
     <use x="247.363281" xlink:href="#DejaVuSans-114"/>
     <use x="288.476562" xlink:href="#DejaVuSans-105"/>
     <use x="316.259766" xlink:href="#DejaVuSans-109"/>
     <use x="413.671875" xlink:href="#DejaVuSans-101"/>
     <use x="475.195312" xlink:href="#DejaVuSans-110"/>
     <use x="538.574219" xlink:href="#DejaVuSans-116"/>
     <use x="577.783203" xlink:href="#DejaVuSans-95"/>
     <use x="627.783203" xlink:href="#DejaVuSans-53"/>
     <use x="691.40625" xlink:href="#DejaVuSans-52"/>
    </g>
   </g>
   <g id="legend_1">
    <g id="patch_7">
     <path d="M 46.927813 193.580375 
L 400.26375 193.580375 
Q 402.26375 193.580375 402.26375 191.580375 
L 402.26375 119.167875 
Q 402.26375 117.167875 400.26375 117.167875 
L 46.927813 117.167875 
Q 44.927813 117.167875 44.927813 119.167875 
L 44.927813 191.580375 
Q 44.927813 193.580375 46.927813 193.580375 
z
" style="fill:#ffffff;opacity:0.8;stroke:#cccccc;stroke-linejoin:miter;"/>
    </g>
    <g id="line2d_25"/>
    <g id="line2d_26">
     <g>
      <use style="stroke:#000000;" x="58.927813" xlink:href="#me0d591ea4f" y="125.266312"/>
     </g>
    </g>
    <g id="text_16">
     <!-- Experimental Data -->
     <g transform="translate(76.927813 128.766312)scale(0.1 -0.1)">
      <defs>
       <path d="M 9.421875 75.984375 
L 18.40625 75.984375 
L 18.40625 0 
L 9.421875 0 
z
" id="DejaVuSans-108"/>
       <path d="M 19.671875 64.796875 
L 19.671875 8.109375 
L 31.59375 8.109375 
Q 46.6875 8.109375 53.6875 14.9375 
Q 60.6875 21.78125 60.6875 36.53125 
Q 60.6875 51.171875 53.6875 57.984375 
Q 46.6875 64.796875 31.59375 64.796875 
z
M 9.8125 72.90625 
L 30.078125 72.90625 
Q 51.265625 72.90625 61.171875 64.09375 
Q 71.09375 55.28125 71.09375 36.53125 
Q 71.09375 17.671875 61.125 8.828125 
Q 51.171875 0 30.078125 0 
L 9.8125 0 
z
" id="DejaVuSans-68"/>
      </defs>
      <use xlink:href="#DejaVuSans-69"/>
      <use x="63.183594" xlink:href="#DejaVuSans-120"/>
      <use x="122.363281" xlink:href="#DejaVuSans-112"/>
      <use x="185.839844" xlink:href="#DejaVuSans-101"/>
      <use x="247.363281" xlink:href="#DejaVuSans-114"/>
      <use x="288.476562" xlink:href="#DejaVuSans-105"/>
      <use x="316.259766" xlink:href="#DejaVuSans-109"/>
      <use x="413.671875" xlink:href="#DejaVuSans-101"/>
      <use x="475.195312" xlink:href="#DejaVuSans-110"/>
      <use x="538.574219" xlink:href="#DejaVuSans-116"/>
      <use x="577.783203" xlink:href="#DejaVuSans-97"/>
      <use x="639.0625" xlink:href="#DejaVuSans-108"/>
      <use x="666.845703" xlink:href="#DejaVuSans-32"/>
      <use x="698.632812" xlink:href="#DejaVuSans-68"/>
      <use x="775.634766" xlink:href="#DejaVuSans-97"/>
      <use x="836.914062" xlink:href="#DejaVuSans-116"/>
      <use x="876.123047" xlink:href="#DejaVuSans-97"/>
     </g>
    </g>
    <g id="line2d_27">
     <path d="M 48.927813 139.944437 
L 68.927813 139.944437 
" style="fill:none;stroke:#0000ff;stroke-linecap:square;stroke-width:1.5;"/>
    </g>
    <g id="line2d_28"/>
    <g id="text_17">
     <!-- MSI -->
     <g transform="translate(76.927813 143.444437)scale(0.1 -0.1)">
      <defs>
       <path d="M 9.8125 72.90625 
L 24.515625 72.90625 
L 43.109375 23.296875 
L 61.8125 72.90625 
L 76.515625 72.90625 
L 76.515625 0 
L 66.890625 0 
L 66.890625 64.015625 
L 48.09375 14.015625 
L 38.1875 14.015625 
L 19.390625 64.015625 
L 19.390625 0 
L 9.8125 0 
z
" id="DejaVuSans-77"/>
       <path d="M 53.515625 70.515625 
L 53.515625 60.890625 
Q 47.90625 63.578125 42.921875 64.890625 
Q 37.9375 66.21875 33.296875 66.21875 
Q 25.25 66.21875 20.875 63.09375 
Q 16.5 59.96875 16.5 54.203125 
Q 16.5 49.359375 19.40625 46.890625 
Q 22.3125 44.4375 30.421875 42.921875 
L 36.375 41.703125 
Q 47.40625 39.59375 52.65625 34.296875 
Q 57.90625 29 57.90625 20.125 
Q 57.90625 9.515625 50.796875 4.046875 
Q 43.703125 -1.421875 29.984375 -1.421875 
Q 24.8125 -1.421875 18.96875 -0.25 
Q 13.140625 0.921875 6.890625 3.21875 
L 6.890625 13.375 
Q 12.890625 10.015625 18.65625 8.296875 
Q 24.421875 6.59375 29.984375 6.59375 
Q 38.421875 6.59375 43.015625 9.90625 
Q 47.609375 13.234375 47.609375 19.390625 
Q 47.609375 24.75 44.3125 27.78125 
Q 41.015625 30.8125 33.5 32.328125 
L 27.484375 33.5 
Q 16.453125 35.6875 11.515625 40.375 
Q 6.59375 45.0625 6.59375 53.421875 
Q 6.59375 63.09375 13.40625 68.65625 
Q 20.21875 74.21875 32.171875 74.21875 
Q 37.3125 74.21875 42.625 73.28125 
Q 47.953125 72.359375 53.515625 70.515625 
z
" id="DejaVuSans-83"/>
       <path d="M 9.8125 72.90625 
L 19.671875 72.90625 
L 19.671875 0 
L 9.8125 0 
z
" id="DejaVuSans-73"/>
      </defs>
      <use xlink:href="#DejaVuSans-77"/>
      <use x="86.279297" xlink:href="#DejaVuSans-83"/>
      <use x="149.755859" xlink:href="#DejaVuSans-73"/>
     </g>
    </g>
    <g id="line2d_29">
     <path d="M 48.927813 154.624125 
L 68.927813 154.624125 
" style="fill:none;stroke:#ff0000;stroke-linecap:square;stroke-width:1.5;"/>
    </g>
    <g id="line2d_30"/>
    <g id="text_18">
     <!-- $\it{A priori}$ model -->
     <g transform="translate(76.927813 158.124125)scale(0.1 -0.1)">
      <defs>
       <path d="M 36.8125 72.90625 
L 48 72.90625 
L 61.53125 0 
L 51.21875 0 
L 48.1875 18.703125 
L 15.375 18.703125 
L 5.078125 0 
L -5.328125 0 
z
M 40.375 63.1875 
L 19.921875 26.90625 
L 46.6875 26.90625 
z
" id="DejaVuSans-Oblique-65"/>
       <path d="M 49.609375 33.6875 
Q 49.609375 40.875 46.484375 44.671875 
Q 43.359375 48.484375 37.5 48.484375 
Q 33.5 48.484375 29.859375 46.4375 
Q 26.21875 44.390625 23.390625 40.484375 
Q 20.609375 36.625 18.9375 31.15625 
Q 17.28125 25.6875 17.28125 20.3125 
Q 17.28125 13.484375 20.40625 9.796875 
Q 23.53125 6.109375 29.296875 6.109375 
Q 33.546875 6.109375 37.1875 8.109375 
Q 40.828125 10.109375 43.40625 13.921875 
Q 46.1875 17.921875 47.890625 23.34375 
Q 49.609375 28.765625 49.609375 33.6875 
z
M 21.78125 46.390625 
Q 25.390625 51.125 30.296875 53.5625 
Q 35.203125 56 41.21875 56 
Q 49.609375 56 54.25 50.5 
Q 58.890625 45.015625 58.890625 35.109375 
Q 58.890625 27 56 19.65625 
Q 53.125 12.3125 47.703125 6.5 
Q 44.09375 2.640625 39.546875 0.609375 
Q 35.015625 -1.421875 29.984375 -1.421875 
Q 24.171875 -1.421875 20.21875 1 
Q 16.265625 3.421875 14.3125 8.203125 
L 8.6875 -20.796875 
L -0.296875 -20.796875 
L 14.40625 54.6875 
L 23.390625 54.6875 
z
" id="DejaVuSans-Oblique-112"/>
       <path d="M 44.578125 46.390625 
Q 43.21875 47.125 41.453125 47.515625 
Q 39.703125 47.90625 37.703125 47.90625 
Q 30.515625 47.90625 25.140625 42.453125 
Q 19.78125 37.015625 18.015625 27.875 
L 12.5 0 
L 3.515625 0 
L 14.203125 54.6875 
L 23.1875 54.6875 
L 21.484375 46.1875 
Q 25.046875 50.921875 30 53.453125 
Q 34.96875 56 40.578125 56 
Q 42.046875 56 43.453125 55.828125 
Q 44.875 55.671875 46.296875 55.28125 
z
" id="DejaVuSans-Oblique-114"/>
       <path d="M 18.3125 75.984375 
L 27.296875 75.984375 
L 25.09375 64.59375 
L 16.109375 64.59375 
z
M 14.203125 54.6875 
L 23.1875 54.6875 
L 12.5 0 
L 3.515625 0 
z
" id="DejaVuSans-Oblique-105"/>
       <path d="M 25.390625 -1.421875 
Q 15.765625 -1.421875 10.171875 4.515625 
Q 4.59375 10.453125 4.59375 20.703125 
Q 4.59375 26.65625 6.515625 32.828125 
Q 8.453125 39.015625 11.53125 43.21875 
Q 16.359375 49.75 22.3125 52.875 
Q 28.265625 56 35.796875 56 
Q 45.125 56 50.859375 50.1875 
Q 56.59375 44.390625 56.59375 35.015625 
Q 56.59375 28.515625 54.6875 22.0625 
Q 52.78125 15.625 49.703125 11.375 
Q 44.921875 4.828125 38.96875 1.703125 
Q 33.015625 -1.421875 25.390625 -1.421875 
z
M 13.921875 21 
Q 13.921875 13.578125 17.015625 9.890625 
Q 20.125 6.203125 26.421875 6.203125 
Q 35.453125 6.203125 41.375 14.078125 
Q 47.3125 21.96875 47.3125 34.078125 
Q 47.3125 41.15625 44.140625 44.765625 
Q 40.96875 48.390625 34.8125 48.390625 
Q 29.734375 48.390625 25.78125 46.015625 
Q 21.828125 43.65625 18.703125 38.8125 
Q 16.40625 35.203125 15.15625 30.5625 
Q 13.921875 25.921875 13.921875 21 
z
" id="DejaVuSans-Oblique-111"/>
       <path d="M 45.40625 46.390625 
L 45.40625 75.984375 
L 54.390625 75.984375 
L 54.390625 0 
L 45.40625 0 
L 45.40625 8.203125 
Q 42.578125 3.328125 38.25 0.953125 
Q 33.9375 -1.421875 27.875 -1.421875 
Q 17.96875 -1.421875 11.734375 6.484375 
Q 5.515625 14.40625 5.515625 27.296875 
Q 5.515625 40.1875 11.734375 48.09375 
Q 17.96875 56 27.875 56 
Q 33.9375 56 38.25 53.625 
Q 42.578125 51.265625 45.40625 46.390625 
z
M 14.796875 27.296875 
Q 14.796875 17.390625 18.875 11.75 
Q 22.953125 6.109375 30.078125 6.109375 
Q 37.203125 6.109375 41.296875 11.75 
Q 45.40625 17.390625 45.40625 27.296875 
Q 45.40625 37.203125 41.296875 42.84375 
Q 37.203125 48.484375 30.078125 48.484375 
Q 22.953125 48.484375 18.875 42.84375 
Q 14.796875 37.203125 14.796875 27.296875 
z
" id="DejaVuSans-100"/>
      </defs>
      <use transform="translate(0 0.015625)" xlink:href="#DejaVuSans-Oblique-65"/>
      <use transform="translate(68.408203 0.015625)" xlink:href="#DejaVuSans-Oblique-112"/>
      <use transform="translate(131.884766 0.015625)" xlink:href="#DejaVuSans-Oblique-114"/>
      <use transform="translate(172.998047 0.015625)" xlink:href="#DejaVuSans-Oblique-105"/>
      <use transform="translate(200.78125 0.015625)" xlink:href="#DejaVuSans-Oblique-111"/>
      <use transform="translate(261.962891 0.015625)" xlink:href="#DejaVuSans-Oblique-114"/>
      <use transform="translate(303.076172 0.015625)" xlink:href="#DejaVuSans-Oblique-105"/>
      <use transform="translate(330.859375 0.015625)" xlink:href="#DejaVuSans-32"/>
      <use transform="translate(362.646484 0.015625)" xlink:href="#DejaVuSans-109"/>
      <use transform="translate(460.058594 0.015625)" xlink:href="#DejaVuSans-111"/>
      <use transform="translate(521.240234 0.015625)" xlink:href="#DejaVuSans-100"/>
      <use transform="translate(584.716797 0.015625)" xlink:href="#DejaVuSans-101"/>
      <use transform="translate(646.240234 0.015625)" xlink:href="#DejaVuSans-108"/>
     </g>
    </g>
    <g id="line2d_31">
     <path d="M 48.927813 169.322562 
L 68.927813 169.322562 
" style="fill:none;stroke:#ffffff;stroke-linecap:square;stroke-width:1.5;"/>
    </g>
    <g id="line2d_32"/>
    <g id="text_19">
     <!-- T:240.0 -->
     <g transform="translate(76.927813 172.822562)scale(0.1 -0.1)">
      <defs>
       <path d="M 11.71875 12.40625 
L 22.015625 12.40625 
L 22.015625 0 
L 11.71875 0 
z
M 11.71875 51.703125 
L 22.015625 51.703125 
L 22.015625 39.3125 
L 11.71875 39.3125 
z
" id="DejaVuSans-58"/>
      </defs>
      <use xlink:href="#DejaVuSans-84"/>
      <use x="50.083984" xlink:href="#DejaVuSans-58"/>
      <use x="83.775391" xlink:href="#DejaVuSans-50"/>
      <use x="147.398438" xlink:href="#DejaVuSans-52"/>
      <use x="211.021484" xlink:href="#DejaVuSans-48"/>
      <use x="274.644531" xlink:href="#DejaVuSans-46"/>
      <use x="306.431641" xlink:href="#DejaVuSans-48"/>
     </g>
    </g>
    <g id="line2d_33">
     <path d="M 48.927813 184.000687 
L 68.927813 184.000687 
" style="fill:none;stroke:#ffffff;stroke-linecap:square;stroke-width:1.5;"/>
    </g>
    <g id="line2d_34"/>
    <g id="text_20">
     <!-- P:0.328947368 -->
     <g transform="translate(76.927813 187.500687)scale(0.1 -0.1)">
      <defs>
       <path d="M 19.671875 64.796875 
L 19.671875 37.40625 
L 32.078125 37.40625 
Q 38.96875 37.40625 42.71875 40.96875 
Q 46.484375 44.53125 46.484375 51.125 
Q 46.484375 57.671875 42.71875 61.234375 
Q 38.96875 64.796875 32.078125 64.796875 
z
M 9.8125 72.90625 
L 32.078125 72.90625 
Q 44.34375 72.90625 50.609375 67.359375 
Q 56.890625 61.8125 56.890625 51.125 
Q 56.890625 40.328125 50.609375 34.8125 
Q 44.34375 29.296875 32.078125 29.296875 
L 19.671875 29.296875 
L 19.671875 0 
L 9.8125 0 
z
" id="DejaVuSans-80"/>
       <path d="M 10.984375 1.515625 
L 10.984375 10.5 
Q 14.703125 8.734375 18.5 7.8125 
Q 22.3125 6.890625 25.984375 6.890625 
Q 35.75 6.890625 40.890625 13.453125 
Q 46.046875 20.015625 46.78125 33.40625 
Q 43.953125 29.203125 39.59375 26.953125 
Q 35.25 24.703125 29.984375 24.703125 
Q 19.046875 24.703125 12.671875 31.3125 
Q 6.296875 37.9375 6.296875 49.421875 
Q 6.296875 60.640625 12.9375 67.421875 
Q 19.578125 74.21875 30.609375 74.21875 
Q 43.265625 74.21875 49.921875 64.515625 
Q 56.59375 54.828125 56.59375 36.375 
Q 56.59375 19.140625 48.40625 8.859375 
Q 40.234375 -1.421875 26.421875 -1.421875 
Q 22.703125 -1.421875 18.890625 -0.6875 
Q 15.09375 0.046875 10.984375 1.515625 
z
M 30.609375 32.421875 
Q 37.25 32.421875 41.125 36.953125 
Q 45.015625 41.5 45.015625 49.421875 
Q 45.015625 57.28125 41.125 61.84375 
Q 37.25 66.40625 30.609375 66.40625 
Q 23.96875 66.40625 20.09375 61.84375 
Q 16.21875 57.28125 16.21875 49.421875 
Q 16.21875 41.5 20.09375 36.953125 
Q 23.96875 32.421875 30.609375 32.421875 
z
" id="DejaVuSans-57"/>
      </defs>
      <use xlink:href="#DejaVuSans-80"/>
      <use x="60.302734" xlink:href="#DejaVuSans-58"/>
      <use x="93.994141" xlink:href="#DejaVuSans-48"/>
      <use x="157.617188" xlink:href="#DejaVuSans-46"/>
      <use x="189.404297" xlink:href="#DejaVuSans-51"/>
      <use x="253.027344" xlink:href="#DejaVuSans-50"/>
      <use x="316.650391" xlink:href="#DejaVuSans-56"/>
      <use x="380.273438" xlink:href="#DejaVuSans-57"/>
      <use x="443.896484" xlink:href="#DejaVuSans-52"/>
      <use x="507.519531" xlink:href="#DejaVuSans-55"/>
      <use x="571.142578" xlink:href="#DejaVuSans-51"/>
      <use x="634.765625" xlink:href="#DejaVuSans-54"/>
      <use x="698.388672" xlink:href="#DejaVuSans-56"/>
     </g>
    </g>
    <g id="line2d_35">
     <path d="M 190.668438 125.266312 
L 210.668438 125.266312 
" style="fill:none;stroke:#ffffff;stroke-linecap:square;stroke-width:1.5;"/>
    </g>
    <g id="line2d_36"/>
    <g id="text_21">
     <!-- Cl: 5.23e-06 -->
     <g transform="translate(218.668438 128.766312)scale(0.1 -0.1)">
      <defs>
       <path d="M 64.40625 67.28125 
L 64.40625 56.890625 
Q 59.421875 61.53125 53.78125 63.8125 
Q 48.140625 66.109375 41.796875 66.109375 
Q 29.296875 66.109375 22.65625 58.46875 
Q 16.015625 50.828125 16.015625 36.375 
Q 16.015625 21.96875 22.65625 14.328125 
Q 29.296875 6.6875 41.796875 6.6875 
Q 48.140625 6.6875 53.78125 8.984375 
Q 59.421875 11.28125 64.40625 15.921875 
L 64.40625 5.609375 
Q 59.234375 2.09375 53.4375 0.328125 
Q 47.65625 -1.421875 41.21875 -1.421875 
Q 24.65625 -1.421875 15.125 8.703125 
Q 5.609375 18.84375 5.609375 36.375 
Q 5.609375 53.953125 15.125 64.078125 
Q 24.65625 74.21875 41.21875 74.21875 
Q 47.75 74.21875 53.53125 72.484375 
Q 59.328125 70.75 64.40625 67.28125 
z
" id="DejaVuSans-67"/>
       <path d="M 4.890625 31.390625 
L 31.203125 31.390625 
L 31.203125 23.390625 
L 4.890625 23.390625 
z
" id="DejaVuSans-45"/>
      </defs>
      <use xlink:href="#DejaVuSans-67"/>
      <use x="69.824219" xlink:href="#DejaVuSans-108"/>
      <use x="97.607422" xlink:href="#DejaVuSans-58"/>
      <use x="131.298828" xlink:href="#DejaVuSans-32"/>
      <use x="163.085938" xlink:href="#DejaVuSans-53"/>
      <use x="226.708984" xlink:href="#DejaVuSans-46"/>
      <use x="258.496094" xlink:href="#DejaVuSans-50"/>
      <use x="322.119141" xlink:href="#DejaVuSans-51"/>
      <use x="385.742188" xlink:href="#DejaVuSans-101"/>
      <use x="447.265625" xlink:href="#DejaVuSans-45"/>
      <use x="483.349609" xlink:href="#DejaVuSans-48"/>
      <use x="546.972656" xlink:href="#DejaVuSans-54"/>
     </g>
    </g>
    <g id="line2d_37">
     <path d="M 190.668438 139.944437 
L 210.668438 139.944437 
" style="fill:none;stroke:#ffffff;stroke-linecap:square;stroke-width:1.5;"/>
    </g>
    <g id="line2d_38"/>
    <g id="text_22">
     <!-- Cl2: 0.0008200143129770992 -->
     <g transform="translate(218.668438 143.444437)scale(0.1 -0.1)">
      <use xlink:href="#DejaVuSans-67"/>
      <use x="69.824219" xlink:href="#DejaVuSans-108"/>
      <use x="97.607422" xlink:href="#DejaVuSans-50"/>
      <use x="161.230469" xlink:href="#DejaVuSans-58"/>
      <use x="194.921875" xlink:href="#DejaVuSans-32"/>
      <use x="226.708984" xlink:href="#DejaVuSans-48"/>
      <use x="290.332031" xlink:href="#DejaVuSans-46"/>
      <use x="322.119141" xlink:href="#DejaVuSans-48"/>
      <use x="385.742188" xlink:href="#DejaVuSans-48"/>
      <use x="449.365234" xlink:href="#DejaVuSans-48"/>
      <use x="512.988281" xlink:href="#DejaVuSans-56"/>
      <use x="576.611328" xlink:href="#DejaVuSans-50"/>
      <use x="640.234375" xlink:href="#DejaVuSans-48"/>
      <use x="703.857422" xlink:href="#DejaVuSans-48"/>
      <use x="767.480469" xlink:href="#DejaVuSans-49"/>
      <use x="831.103516" xlink:href="#DejaVuSans-52"/>
      <use x="894.726562" xlink:href="#DejaVuSans-51"/>
      <use x="958.349609" xlink:href="#DejaVuSans-49"/>
      <use x="1021.972656" xlink:href="#DejaVuSans-50"/>
      <use x="1085.595703" xlink:href="#DejaVuSans-57"/>
      <use x="1149.21875" xlink:href="#DejaVuSans-55"/>
      <use x="1212.841797" xlink:href="#DejaVuSans-55"/>
      <use x="1276.464844" xlink:href="#DejaVuSans-48"/>
      <use x="1340.087891" xlink:href="#DejaVuSans-57"/>
      <use x="1403.710938" xlink:href="#DejaVuSans-57"/>
      <use x="1467.333984" xlink:href="#DejaVuSans-50"/>
     </g>
    </g>
    <g id="line2d_39">
     <path d="M 190.668438 154.622562 
L 210.668438 154.622562 
" style="fill:none;stroke:#ffffff;stroke-linecap:square;stroke-width:1.5;"/>
    </g>
    <g id="line2d_40"/>
    <g id="text_23">
     <!-- CH3OH: 0.00029818702290076337 -->
     <g transform="translate(218.668438 158.122562)scale(0.1 -0.1)">
      <defs>
       <path d="M 9.8125 72.90625 
L 19.671875 72.90625 
L 19.671875 43.015625 
L 55.515625 43.015625 
L 55.515625 72.90625 
L 65.375 72.90625 
L 65.375 0 
L 55.515625 0 
L 55.515625 34.71875 
L 19.671875 34.71875 
L 19.671875 0 
L 9.8125 0 
z
" id="DejaVuSans-72"/>
       <path d="M 39.40625 66.21875 
Q 28.65625 66.21875 22.328125 58.203125 
Q 16.015625 50.203125 16.015625 36.375 
Q 16.015625 22.609375 22.328125 14.59375 
Q 28.65625 6.59375 39.40625 6.59375 
Q 50.140625 6.59375 56.421875 14.59375 
Q 62.703125 22.609375 62.703125 36.375 
Q 62.703125 50.203125 56.421875 58.203125 
Q 50.140625 66.21875 39.40625 66.21875 
z
M 39.40625 74.21875 
Q 54.734375 74.21875 63.90625 63.9375 
Q 73.09375 53.65625 73.09375 36.375 
Q 73.09375 19.140625 63.90625 8.859375 
Q 54.734375 -1.421875 39.40625 -1.421875 
Q 24.03125 -1.421875 14.8125 8.828125 
Q 5.609375 19.09375 5.609375 36.375 
Q 5.609375 53.65625 14.8125 63.9375 
Q 24.03125 74.21875 39.40625 74.21875 
z
" id="DejaVuSans-79"/>
      </defs>
      <use xlink:href="#DejaVuSans-67"/>
      <use x="69.824219" xlink:href="#DejaVuSans-72"/>
      <use x="145.019531" xlink:href="#DejaVuSans-51"/>
      <use x="208.642578" xlink:href="#DejaVuSans-79"/>
      <use x="287.353516" xlink:href="#DejaVuSans-72"/>
      <use x="362.548828" xlink:href="#DejaVuSans-58"/>
      <use x="396.240234" xlink:href="#DejaVuSans-32"/>
      <use x="428.027344" xlink:href="#DejaVuSans-48"/>
      <use x="491.650391" xlink:href="#DejaVuSans-46"/>
      <use x="523.4375" xlink:href="#DejaVuSans-48"/>
      <use x="587.060547" xlink:href="#DejaVuSans-48"/>
      <use x="650.683594" xlink:href="#DejaVuSans-48"/>
      <use x="714.306641" xlink:href="#DejaVuSans-50"/>
      <use x="777.929688" xlink:href="#DejaVuSans-57"/>
      <use x="841.552734" xlink:href="#DejaVuSans-56"/>
      <use x="905.175781" xlink:href="#DejaVuSans-49"/>
      <use x="968.798828" xlink:href="#DejaVuSans-56"/>
      <use x="1032.421875" xlink:href="#DejaVuSans-55"/>
      <use x="1096.044922" xlink:href="#DejaVuSans-48"/>
      <use x="1159.667969" xlink:href="#DejaVuSans-50"/>
      <use x="1223.291016" xlink:href="#DejaVuSans-50"/>
      <use x="1286.914062" xlink:href="#DejaVuSans-57"/>
      <use x="1350.537109" xlink:href="#DejaVuSans-48"/>
      <use x="1414.160156" xlink:href="#DejaVuSans-48"/>
      <use x="1477.783203" xlink:href="#DejaVuSans-55"/>
      <use x="1541.40625" xlink:href="#DejaVuSans-54"/>
      <use x="1605.029297" xlink:href="#DejaVuSans-51"/>
      <use x="1668.652344" xlink:href="#DejaVuSans-51"/>
      <use x="1732.275391" xlink:href="#DejaVuSans-55"/>
     </g>
    </g>
    <g id="line2d_41">
     <path d="M 190.668438 169.300687 
L 210.668438 169.300687 
" style="fill:none;stroke:#ffffff;stroke-linecap:square;stroke-width:1.5;"/>
    </g>
    <g id="line2d_42"/>
    <g id="text_24">
     <!-- O2: 0.027333810432569973 -->
     <g transform="translate(218.668438 172.800687)scale(0.1 -0.1)">
      <use xlink:href="#DejaVuSans-79"/>
      <use x="78.710938" xlink:href="#DejaVuSans-50"/>
      <use x="142.333984" xlink:href="#DejaVuSans-58"/>
      <use x="176.025391" xlink:href="#DejaVuSans-32"/>
      <use x="207.8125" xlink:href="#DejaVuSans-48"/>
      <use x="271.435547" xlink:href="#DejaVuSans-46"/>
      <use x="303.222656" xlink:href="#DejaVuSans-48"/>
      <use x="366.845703" xlink:href="#DejaVuSans-50"/>
      <use x="430.46875" xlink:href="#DejaVuSans-55"/>
      <use x="494.091797" xlink:href="#DejaVuSans-51"/>
      <use x="557.714844" xlink:href="#DejaVuSans-51"/>
      <use x="621.337891" xlink:href="#DejaVuSans-51"/>
      <use x="684.960938" xlink:href="#DejaVuSans-56"/>
      <use x="748.583984" xlink:href="#DejaVuSans-49"/>
      <use x="812.207031" xlink:href="#DejaVuSans-48"/>
      <use x="875.830078" xlink:href="#DejaVuSans-52"/>
      <use x="939.453125" xlink:href="#DejaVuSans-51"/>
      <use x="1003.076172" xlink:href="#DejaVuSans-50"/>
      <use x="1066.699219" xlink:href="#DejaVuSans-53"/>
      <use x="1130.322266" xlink:href="#DejaVuSans-54"/>
      <use x="1193.945312" xlink:href="#DejaVuSans-57"/>
      <use x="1257.568359" xlink:href="#DejaVuSans-57"/>
      <use x="1321.191406" xlink:href="#DejaVuSans-55"/>
      <use x="1384.814453" xlink:href="#DejaVuSans-51"/>
     </g>
    </g>
    <g id="line2d_43">
     <path d="M 190.668438 183.978812 
L 210.668438 183.978812 
" style="fill:none;stroke:#ffffff;stroke-linecap:square;stroke-width:1.5;"/>
    </g>
    <g id="line2d_44"/>
    <g id="text_25">
     <!-- Ar: 0.9715427582315521 -->
     <g transform="translate(218.668438 187.478812)scale(0.1 -0.1)">
      <use xlink:href="#DejaVuSans-65"/>
      <use x="68.408203" xlink:href="#DejaVuSans-114"/>
      <use x="107.771484" xlink:href="#DejaVuSans-58"/>
      <use x="141.462891" xlink:href="#DejaVuSans-32"/>
      <use x="173.25" xlink:href="#DejaVuSans-48"/>
      <use x="236.873047" xlink:href="#DejaVuSans-46"/>
      <use x="268.660156" xlink:href="#DejaVuSans-57"/>
      <use x="332.283203" xlink:href="#DejaVuSans-55"/>
      <use x="395.90625" xlink:href="#DejaVuSans-49"/>
      <use x="459.529297" xlink:href="#DejaVuSans-53"/>
      <use x="523.152344" xlink:href="#DejaVuSans-52"/>
      <use x="586.775391" xlink:href="#DejaVuSans-50"/>
      <use x="650.398438" xlink:href="#DejaVuSans-55"/>
      <use x="714.021484" xlink:href="#DejaVuSans-53"/>
      <use x="777.644531" xlink:href="#DejaVuSans-56"/>
      <use x="841.267578" xlink:href="#DejaVuSans-50"/>
      <use x="904.890625" xlink:href="#DejaVuSans-51"/>
      <use x="968.513672" xlink:href="#DejaVuSans-49"/>
      <use x="1032.136719" xlink:href="#DejaVuSans-53"/>
      <use x="1095.759766" xlink:href="#DejaVuSans-53"/>
      <use x="1159.382812" xlink:href="#DejaVuSans-50"/>
      <use x="1223.005859" xlink:href="#DejaVuSans-49"/>
     </g>
    </g>
   </g>
  </g>
 </g>
 <defs>
  <clipPath id="p901c936354">
   <rect height="266.112" width="357.12" x="50.14375" y="22.318125"/>
  </clipPath>
 </defs>
</svg>
