<?xml version="1.0" encoding="utf-8" standalone="no"?>
<!DOCTYPE svg PUBLIC "-//W3C//DTD SVG 1.1//EN"
  "http://www.w3.org/Graphics/SVG/1.1/DTD/svg11.dtd">
<!-- Created with matplotlib (https://matplotlib.org/) -->
<svg height="325.986375pt" version="1.1" viewBox="0 0 417.648125 325.986375" width="417.648125pt" xmlns="http://www.w3.org/2000/svg" xmlns:xlink="http://www.w3.org/1999/xlink">
 <metadata>
  <rdf:RDF xmlns:cc="http://creativecommons.org/ns#" xmlns:dc="http://purl.org/dc/elements/1.1/" xmlns:rdf="http://www.w3.org/1999/02/22-rdf-syntax-ns#">
   <cc:Work>
    <dc:type rdf:resource="http://purl.org/dc/dcmitype/StillImage"/>
    <dc:date>2023-08-04T12:51:46.728959</dc:date>
    <dc:format>image/svg+xml</dc:format>
    <dc:creator>
     <cc:Agent>
      <dc:title>Matplotlib v3.3.1, https://matplotlib.org/</dc:title>
     </cc:Agent>
    </dc:creator>
   </cc:Work>
  </rdf:RDF>
 </metadata>
 <defs>
  <style type="text/css">*{stroke-linecap:butt;stroke-linejoin:round;}</style>
 </defs>
 <g id="figure_1">
  <g id="patch_1">
   <path d="M 0 325.986375 
L 417.648125 325.986375 
L 417.648125 0 
L 0 0 
z
" style="fill:none;"/>
  </g>
  <g id="axes_1">
   <g id="patch_2">
    <path d="M 53.328125 288.430125 
L 410.448125 288.430125 
L 410.448125 22.318125 
L 53.328125 22.318125 
z
" style="fill:none;"/>
   </g>
   <g id="matplotlib.axis_1">
    <g id="xtick_1">
     <g id="line2d_1">
      <defs>
       <path d="M 0 0 
L 0 3.5 
" id="mdc4003819a" style="stroke:#000000;stroke-width:0.8;"/>
      </defs>
      <g>
       <use style="stroke:#000000;stroke-width:0.8;" x="69.560852" xlink:href="#mdc4003819a" y="288.430125"/>
      </g>
     </g>
     <g id="text_1">
      <!-- 0 -->
      <g transform="translate(66.379602 303.028562)scale(0.1 -0.1)">
       <defs>
        <path d="M 31.78125 66.40625 
Q 24.171875 66.40625 20.328125 58.90625 
Q 16.5 51.421875 16.5 36.375 
Q 16.5 21.390625 20.328125 13.890625 
Q 24.171875 6.390625 31.78125 6.390625 
Q 39.453125 6.390625 43.28125 13.890625 
Q 47.125 21.390625 47.125 36.375 
Q 47.125 51.421875 43.28125 58.90625 
Q 39.453125 66.40625 31.78125 66.40625 
z
M 31.78125 74.21875 
Q 44.046875 74.21875 50.515625 64.515625 
Q 56.984375 54.828125 56.984375 36.375 
Q 56.984375 17.96875 50.515625 8.265625 
Q 44.046875 -1.421875 31.78125 -1.421875 
Q 19.53125 -1.421875 13.0625 8.265625 
Q 6.59375 17.96875 6.59375 36.375 
Q 6.59375 54.828125 13.0625 64.515625 
Q 19.53125 74.21875 31.78125 74.21875 
z
" id="DejaVuSans-48"/>
       </defs>
       <use xlink:href="#DejaVuSans-48"/>
      </g>
     </g>
    </g>
    <g id="xtick_2">
     <g id="line2d_2">
      <g>
       <use style="stroke:#000000;stroke-width:0.8;" x="110.016366" xlink:href="#mdc4003819a" y="288.430125"/>
      </g>
     </g>
     <g id="text_2">
      <!-- 1 -->
      <g transform="translate(106.835116 303.028562)scale(0.1 -0.1)">
       <defs>
        <path d="M 12.40625 8.296875 
L 28.515625 8.296875 
L 28.515625 63.921875 
L 10.984375 60.40625 
L 10.984375 69.390625 
L 28.421875 72.90625 
L 38.28125 72.90625 
L 38.28125 8.296875 
L 54.390625 8.296875 
L 54.390625 0 
L 12.40625 0 
z
" id="DejaVuSans-49"/>
       </defs>
       <use xlink:href="#DejaVuSans-49"/>
      </g>
     </g>
    </g>
    <g id="xtick_3">
     <g id="line2d_3">
      <g>
       <use style="stroke:#000000;stroke-width:0.8;" x="150.471879" xlink:href="#mdc4003819a" y="288.430125"/>
      </g>
     </g>
     <g id="text_3">
      <!-- 2 -->
      <g transform="translate(147.290629 303.028562)scale(0.1 -0.1)">
       <defs>
        <path d="M 19.1875 8.296875 
L 53.609375 8.296875 
L 53.609375 0 
L 7.328125 0 
L 7.328125 8.296875 
Q 12.9375 14.109375 22.625 23.890625 
Q 32.328125 33.6875 34.8125 36.53125 
Q 39.546875 41.84375 41.421875 45.53125 
Q 43.3125 49.21875 43.3125 52.78125 
Q 43.3125 58.59375 39.234375 62.25 
Q 35.15625 65.921875 28.609375 65.921875 
Q 23.96875 65.921875 18.8125 64.3125 
Q 13.671875 62.703125 7.8125 59.421875 
L 7.8125 69.390625 
Q 13.765625 71.78125 18.9375 73 
Q 24.125 74.21875 28.421875 74.21875 
Q 39.75 74.21875 46.484375 68.546875 
Q 53.21875 62.890625 53.21875 53.421875 
Q 53.21875 48.921875 51.53125 44.890625 
Q 49.859375 40.875 45.40625 35.40625 
Q 44.1875 33.984375 37.640625 27.21875 
Q 31.109375 20.453125 19.1875 8.296875 
z
" id="DejaVuSans-50"/>
       </defs>
       <use xlink:href="#DejaVuSans-50"/>
      </g>
     </g>
    </g>
    <g id="xtick_4">
     <g id="line2d_4">
      <g>
       <use style="stroke:#000000;stroke-width:0.8;" x="190.927393" xlink:href="#mdc4003819a" y="288.430125"/>
      </g>
     </g>
     <g id="text_4">
      <!-- 3 -->
      <g transform="translate(187.746143 303.028562)scale(0.1 -0.1)">
       <defs>
        <path d="M 40.578125 39.3125 
Q 47.65625 37.796875 51.625 33 
Q 55.609375 28.21875 55.609375 21.1875 
Q 55.609375 10.40625 48.1875 4.484375 
Q 40.765625 -1.421875 27.09375 -1.421875 
Q 22.515625 -1.421875 17.65625 -0.515625 
Q 12.796875 0.390625 7.625 2.203125 
L 7.625 11.71875 
Q 11.71875 9.328125 16.59375 8.109375 
Q 21.484375 6.890625 26.8125 6.890625 
Q 36.078125 6.890625 40.9375 10.546875 
Q 45.796875 14.203125 45.796875 21.1875 
Q 45.796875 27.640625 41.28125 31.265625 
Q 36.765625 34.90625 28.71875 34.90625 
L 20.21875 34.90625 
L 20.21875 43.015625 
L 29.109375 43.015625 
Q 36.375 43.015625 40.234375 45.921875 
Q 44.09375 48.828125 44.09375 54.296875 
Q 44.09375 59.90625 40.109375 62.90625 
Q 36.140625 65.921875 28.71875 65.921875 
Q 24.65625 65.921875 20.015625 65.03125 
Q 15.375 64.15625 9.8125 62.3125 
L 9.8125 71.09375 
Q 15.4375 72.65625 20.34375 73.4375 
Q 25.25 74.21875 29.59375 74.21875 
Q 40.828125 74.21875 47.359375 69.109375 
Q 53.90625 64.015625 53.90625 55.328125 
Q 53.90625 49.265625 50.4375 45.09375 
Q 46.96875 40.921875 40.578125 39.3125 
z
" id="DejaVuSans-51"/>
       </defs>
       <use xlink:href="#DejaVuSans-51"/>
      </g>
     </g>
    </g>
    <g id="xtick_5">
     <g id="line2d_5">
      <g>
       <use style="stroke:#000000;stroke-width:0.8;" x="231.382906" xlink:href="#mdc4003819a" y="288.430125"/>
      </g>
     </g>
     <g id="text_5">
      <!-- 4 -->
      <g transform="translate(228.201656 303.028562)scale(0.1 -0.1)">
       <defs>
        <path d="M 37.796875 64.3125 
L 12.890625 25.390625 
L 37.796875 25.390625 
z
M 35.203125 72.90625 
L 47.609375 72.90625 
L 47.609375 25.390625 
L 58.015625 25.390625 
L 58.015625 17.1875 
L 47.609375 17.1875 
L 47.609375 0 
L 37.796875 0 
L 37.796875 17.1875 
L 4.890625 17.1875 
L 4.890625 26.703125 
z
" id="DejaVuSans-52"/>
       </defs>
       <use xlink:href="#DejaVuSans-52"/>
      </g>
     </g>
    </g>
    <g id="xtick_6">
     <g id="line2d_6">
      <g>
       <use style="stroke:#000000;stroke-width:0.8;" x="271.83842" xlink:href="#mdc4003819a" y="288.430125"/>
      </g>
     </g>
     <g id="text_6">
      <!-- 5 -->
      <g transform="translate(268.65717 303.028562)scale(0.1 -0.1)">
       <defs>
        <path d="M 10.796875 72.90625 
L 49.515625 72.90625 
L 49.515625 64.59375 
L 19.828125 64.59375 
L 19.828125 46.734375 
Q 21.96875 47.46875 24.109375 47.828125 
Q 26.265625 48.1875 28.421875 48.1875 
Q 40.625 48.1875 47.75 41.5 
Q 54.890625 34.8125 54.890625 23.390625 
Q 54.890625 11.625 47.5625 5.09375 
Q 40.234375 -1.421875 26.90625 -1.421875 
Q 22.3125 -1.421875 17.546875 -0.640625 
Q 12.796875 0.140625 7.71875 1.703125 
L 7.71875 11.625 
Q 12.109375 9.234375 16.796875 8.0625 
Q 21.484375 6.890625 26.703125 6.890625 
Q 35.15625 6.890625 40.078125 11.328125 
Q 45.015625 15.765625 45.015625 23.390625 
Q 45.015625 31 40.078125 35.4375 
Q 35.15625 39.890625 26.703125 39.890625 
Q 22.75 39.890625 18.8125 39.015625 
Q 14.890625 38.140625 10.796875 36.28125 
z
" id="DejaVuSans-53"/>
       </defs>
       <use xlink:href="#DejaVuSans-53"/>
      </g>
     </g>
    </g>
    <g id="xtick_7">
     <g id="line2d_7">
      <g>
       <use style="stroke:#000000;stroke-width:0.8;" x="312.293933" xlink:href="#mdc4003819a" y="288.430125"/>
      </g>
     </g>
     <g id="text_7">
      <!-- 6 -->
      <g transform="translate(309.112683 303.028562)scale(0.1 -0.1)">
       <defs>
        <path d="M 33.015625 40.375 
Q 26.375 40.375 22.484375 35.828125 
Q 18.609375 31.296875 18.609375 23.390625 
Q 18.609375 15.53125 22.484375 10.953125 
Q 26.375 6.390625 33.015625 6.390625 
Q 39.65625 6.390625 43.53125 10.953125 
Q 47.40625 15.53125 47.40625 23.390625 
Q 47.40625 31.296875 43.53125 35.828125 
Q 39.65625 40.375 33.015625 40.375 
z
M 52.59375 71.296875 
L 52.59375 62.3125 
Q 48.875 64.0625 45.09375 64.984375 
Q 41.3125 65.921875 37.59375 65.921875 
Q 27.828125 65.921875 22.671875 59.328125 
Q 17.53125 52.734375 16.796875 39.40625 
Q 19.671875 43.65625 24.015625 45.921875 
Q 28.375 48.1875 33.59375 48.1875 
Q 44.578125 48.1875 50.953125 41.515625 
Q 57.328125 34.859375 57.328125 23.390625 
Q 57.328125 12.15625 50.6875 5.359375 
Q 44.046875 -1.421875 33.015625 -1.421875 
Q 20.359375 -1.421875 13.671875 8.265625 
Q 6.984375 17.96875 6.984375 36.375 
Q 6.984375 53.65625 15.1875 63.9375 
Q 23.390625 74.21875 37.203125 74.21875 
Q 40.921875 74.21875 44.703125 73.484375 
Q 48.484375 72.75 52.59375 71.296875 
z
" id="DejaVuSans-54"/>
       </defs>
       <use xlink:href="#DejaVuSans-54"/>
      </g>
     </g>
    </g>
    <g id="xtick_8">
     <g id="line2d_8">
      <g>
       <use style="stroke:#000000;stroke-width:0.8;" x="352.749447" xlink:href="#mdc4003819a" y="288.430125"/>
      </g>
     </g>
     <g id="text_8">
      <!-- 7 -->
      <g transform="translate(349.568197 303.028562)scale(0.1 -0.1)">
       <defs>
        <path d="M 8.203125 72.90625 
L 55.078125 72.90625 
L 55.078125 68.703125 
L 28.609375 0 
L 18.3125 0 
L 43.21875 64.59375 
L 8.203125 64.59375 
z
" id="DejaVuSans-55"/>
       </defs>
       <use xlink:href="#DejaVuSans-55"/>
      </g>
     </g>
    </g>
    <g id="xtick_9">
     <g id="line2d_9">
      <g>
       <use style="stroke:#000000;stroke-width:0.8;" x="393.20496" xlink:href="#mdc4003819a" y="288.430125"/>
      </g>
     </g>
     <g id="text_9">
      <!-- 8 -->
      <g transform="translate(390.02371 303.028562)scale(0.1 -0.1)">
       <defs>
        <path d="M 31.78125 34.625 
Q 24.75 34.625 20.71875 30.859375 
Q 16.703125 27.09375 16.703125 20.515625 
Q 16.703125 13.921875 20.71875 10.15625 
Q 24.75 6.390625 31.78125 6.390625 
Q 38.8125 6.390625 42.859375 10.171875 
Q 46.921875 13.96875 46.921875 20.515625 
Q 46.921875 27.09375 42.890625 30.859375 
Q 38.875 34.625 31.78125 34.625 
z
M 21.921875 38.8125 
Q 15.578125 40.375 12.03125 44.71875 
Q 8.5 49.078125 8.5 55.328125 
Q 8.5 64.0625 14.71875 69.140625 
Q 20.953125 74.21875 31.78125 74.21875 
Q 42.671875 74.21875 48.875 69.140625 
Q 55.078125 64.0625 55.078125 55.328125 
Q 55.078125 49.078125 51.53125 44.71875 
Q 48 40.375 41.703125 38.8125 
Q 48.828125 37.15625 52.796875 32.3125 
Q 56.78125 27.484375 56.78125 20.515625 
Q 56.78125 9.90625 50.3125 4.234375 
Q 43.84375 -1.421875 31.78125 -1.421875 
Q 19.734375 -1.421875 13.25 4.234375 
Q 6.78125 9.90625 6.78125 20.515625 
Q 6.78125 27.484375 10.78125 32.3125 
Q 14.796875 37.15625 21.921875 38.8125 
z
M 18.3125 54.390625 
Q 18.3125 48.734375 21.84375 45.5625 
Q 25.390625 42.390625 31.78125 42.390625 
Q 38.140625 42.390625 41.71875 45.5625 
Q 45.3125 48.734375 45.3125 54.390625 
Q 45.3125 60.0625 41.71875 63.234375 
Q 38.140625 66.40625 31.78125 66.40625 
Q 25.390625 66.40625 21.84375 63.234375 
Q 18.3125 60.0625 18.3125 54.390625 
z
" id="DejaVuSans-56"/>
       </defs>
       <use xlink:href="#DejaVuSans-56"/>
      </g>
     </g>
    </g>
    <g id="text_10">
     <!-- Time (ms) -->
     <g transform="translate(206.688906 316.706687)scale(0.1 -0.1)">
      <defs>
       <path d="M -0.296875 72.90625 
L 61.375 72.90625 
L 61.375 64.59375 
L 35.5 64.59375 
L 35.5 0 
L 25.59375 0 
L 25.59375 64.59375 
L -0.296875 64.59375 
z
" id="DejaVuSans-84"/>
       <path d="M 9.421875 54.6875 
L 18.40625 54.6875 
L 18.40625 0 
L 9.421875 0 
z
M 9.421875 75.984375 
L 18.40625 75.984375 
L 18.40625 64.59375 
L 9.421875 64.59375 
z
" id="DejaVuSans-105"/>
       <path d="M 52 44.1875 
Q 55.375 50.25 60.0625 53.125 
Q 64.75 56 71.09375 56 
Q 79.640625 56 84.28125 50.015625 
Q 88.921875 44.046875 88.921875 33.015625 
L 88.921875 0 
L 79.890625 0 
L 79.890625 32.71875 
Q 79.890625 40.578125 77.09375 44.375 
Q 74.3125 48.1875 68.609375 48.1875 
Q 61.625 48.1875 57.5625 43.546875 
Q 53.515625 38.921875 53.515625 30.90625 
L 53.515625 0 
L 44.484375 0 
L 44.484375 32.71875 
Q 44.484375 40.625 41.703125 44.40625 
Q 38.921875 48.1875 33.109375 48.1875 
Q 26.21875 48.1875 22.15625 43.53125 
Q 18.109375 38.875 18.109375 30.90625 
L 18.109375 0 
L 9.078125 0 
L 9.078125 54.6875 
L 18.109375 54.6875 
L 18.109375 46.1875 
Q 21.1875 51.21875 25.484375 53.609375 
Q 29.78125 56 35.6875 56 
Q 41.65625 56 45.828125 52.96875 
Q 50 49.953125 52 44.1875 
z
" id="DejaVuSans-109"/>
       <path d="M 56.203125 29.59375 
L 56.203125 25.203125 
L 14.890625 25.203125 
Q 15.484375 15.921875 20.484375 11.0625 
Q 25.484375 6.203125 34.421875 6.203125 
Q 39.59375 6.203125 44.453125 7.46875 
Q 49.3125 8.734375 54.109375 11.28125 
L 54.109375 2.78125 
Q 49.265625 0.734375 44.1875 -0.34375 
Q 39.109375 -1.421875 33.890625 -1.421875 
Q 20.796875 -1.421875 13.15625 6.1875 
Q 5.515625 13.8125 5.515625 26.8125 
Q 5.515625 40.234375 12.765625 48.109375 
Q 20.015625 56 32.328125 56 
Q 43.359375 56 49.78125 48.890625 
Q 56.203125 41.796875 56.203125 29.59375 
z
M 47.21875 32.234375 
Q 47.125 39.59375 43.09375 43.984375 
Q 39.0625 48.390625 32.421875 48.390625 
Q 24.90625 48.390625 20.390625 44.140625 
Q 15.875 39.890625 15.1875 32.171875 
z
" id="DejaVuSans-101"/>
       <path id="DejaVuSans-32"/>
       <path d="M 31 75.875 
Q 24.46875 64.65625 21.28125 53.65625 
Q 18.109375 42.671875 18.109375 31.390625 
Q 18.109375 20.125 21.3125 9.0625 
Q 24.515625 -2 31 -13.1875 
L 23.1875 -13.1875 
Q 15.875 -1.703125 12.234375 9.375 
Q 8.59375 20.453125 8.59375 31.390625 
Q 8.59375 42.28125 12.203125 53.3125 
Q 15.828125 64.359375 23.1875 75.875 
z
" id="DejaVuSans-40"/>
       <path d="M 44.28125 53.078125 
L 44.28125 44.578125 
Q 40.484375 46.53125 36.375 47.5 
Q 32.28125 48.484375 27.875 48.484375 
Q 21.1875 48.484375 17.84375 46.4375 
Q 14.5 44.390625 14.5 40.28125 
Q 14.5 37.15625 16.890625 35.375 
Q 19.28125 33.59375 26.515625 31.984375 
L 29.59375 31.296875 
Q 39.15625 29.25 43.1875 25.515625 
Q 47.21875 21.78125 47.21875 15.09375 
Q 47.21875 7.46875 41.1875 3.015625 
Q 35.15625 -1.421875 24.609375 -1.421875 
Q 20.21875 -1.421875 15.453125 -0.5625 
Q 10.6875 0.296875 5.421875 2 
L 5.421875 11.28125 
Q 10.40625 8.6875 15.234375 7.390625 
Q 20.0625 6.109375 24.8125 6.109375 
Q 31.15625 6.109375 34.5625 8.28125 
Q 37.984375 10.453125 37.984375 14.40625 
Q 37.984375 18.0625 35.515625 20.015625 
Q 33.0625 21.96875 24.703125 23.78125 
L 21.578125 24.515625 
Q 13.234375 26.265625 9.515625 29.90625 
Q 5.8125 33.546875 5.8125 39.890625 
Q 5.8125 47.609375 11.28125 51.796875 
Q 16.75 56 26.8125 56 
Q 31.78125 56 36.171875 55.265625 
Q 40.578125 54.546875 44.28125 53.078125 
z
" id="DejaVuSans-115"/>
       <path d="M 8.015625 75.875 
L 15.828125 75.875 
Q 23.140625 64.359375 26.78125 53.3125 
Q 30.421875 42.28125 30.421875 31.390625 
Q 30.421875 20.453125 26.78125 9.375 
Q 23.140625 -1.703125 15.828125 -13.1875 
L 8.015625 -13.1875 
Q 14.5 -2 17.703125 9.0625 
Q 20.90625 20.125 20.90625 31.390625 
Q 20.90625 42.671875 17.703125 53.65625 
Q 14.5 64.65625 8.015625 75.875 
z
" id="DejaVuSans-41"/>
      </defs>
      <use xlink:href="#DejaVuSans-84"/>
      <use x="57.958984" xlink:href="#DejaVuSans-105"/>
      <use x="85.742188" xlink:href="#DejaVuSans-109"/>
      <use x="183.154297" xlink:href="#DejaVuSans-101"/>
      <use x="244.677734" xlink:href="#DejaVuSans-32"/>
      <use x="276.464844" xlink:href="#DejaVuSans-40"/>
      <use x="315.478516" xlink:href="#DejaVuSans-109"/>
      <use x="412.890625" xlink:href="#DejaVuSans-115"/>
      <use x="464.990234" xlink:href="#DejaVuSans-41"/>
     </g>
    </g>
   </g>
   <g id="matplotlib.axis_2">
    <g id="ytick_1">
     <g id="line2d_10">
      <defs>
       <path d="M 0 0 
L -3.5 0 
" id="mce40007e8e" style="stroke:#000000;stroke-width:0.8;"/>
      </defs>
      <g>
       <use style="stroke:#000000;stroke-width:0.8;" x="53.328125" xlink:href="#mce40007e8e" y="276.334125"/>
      </g>
     </g>
     <g id="text_11">
      <!-- 0 -->
      <g transform="translate(39.965625 280.133344)scale(0.1 -0.1)">
       <use xlink:href="#DejaVuSans-48"/>
      </g>
     </g>
    </g>
    <g id="ytick_2">
     <g id="line2d_11">
      <g>
       <use style="stroke:#000000;stroke-width:0.8;" x="53.328125" xlink:href="#mce40007e8e" y="217.549527"/>
      </g>
     </g>
     <g id="text_12">
      <!-- 500 -->
      <g transform="translate(27.240625 221.348745)scale(0.1 -0.1)">
       <use xlink:href="#DejaVuSans-53"/>
       <use x="63.623047" xlink:href="#DejaVuSans-48"/>
       <use x="127.246094" xlink:href="#DejaVuSans-48"/>
      </g>
     </g>
    </g>
    <g id="ytick_3">
     <g id="line2d_12">
      <g>
       <use style="stroke:#000000;stroke-width:0.8;" x="53.328125" xlink:href="#mce40007e8e" y="158.764928"/>
      </g>
     </g>
     <g id="text_13">
      <!-- 1000 -->
      <g transform="translate(20.878125 162.564147)scale(0.1 -0.1)">
       <use xlink:href="#DejaVuSans-49"/>
       <use x="63.623047" xlink:href="#DejaVuSans-48"/>
       <use x="127.246094" xlink:href="#DejaVuSans-48"/>
       <use x="190.869141" xlink:href="#DejaVuSans-48"/>
      </g>
     </g>
    </g>
    <g id="ytick_4">
     <g id="line2d_13">
      <g>
       <use style="stroke:#000000;stroke-width:0.8;" x="53.328125" xlink:href="#mce40007e8e" y="99.98033"/>
      </g>
     </g>
     <g id="text_14">
      <!-- 1500 -->
      <g transform="translate(20.878125 103.779549)scale(0.1 -0.1)">
       <use xlink:href="#DejaVuSans-49"/>
       <use x="63.623047" xlink:href="#DejaVuSans-53"/>
       <use x="127.246094" xlink:href="#DejaVuSans-48"/>
       <use x="190.869141" xlink:href="#DejaVuSans-48"/>
      </g>
     </g>
    </g>
    <g id="ytick_5">
     <g id="line2d_14">
      <g>
       <use style="stroke:#000000;stroke-width:0.8;" x="53.328125" xlink:href="#mce40007e8e" y="41.195731"/>
      </g>
     </g>
     <g id="text_15">
      <!-- 2000 -->
      <g transform="translate(20.878125 44.99495)scale(0.1 -0.1)">
       <use xlink:href="#DejaVuSans-50"/>
       <use x="63.623047" xlink:href="#DejaVuSans-48"/>
       <use x="127.246094" xlink:href="#DejaVuSans-48"/>
       <use x="190.869141" xlink:href="#DejaVuSans-48"/>
      </g>
     </g>
    </g>
    <g id="text_16">
     <!-- H2O ppm -->
     <g transform="translate(14.798438 179.059281)rotate(-90)scale(0.1 -0.1)">
      <defs>
       <path d="M 9.8125 72.90625 
L 19.671875 72.90625 
L 19.671875 43.015625 
L 55.515625 43.015625 
L 55.515625 72.90625 
L 65.375 72.90625 
L 65.375 0 
L 55.515625 0 
L 55.515625 34.71875 
L 19.671875 34.71875 
L 19.671875 0 
L 9.8125 0 
z
" id="DejaVuSans-72"/>
       <path d="M 39.40625 66.21875 
Q 28.65625 66.21875 22.328125 58.203125 
Q 16.015625 50.203125 16.015625 36.375 
Q 16.015625 22.609375 22.328125 14.59375 
Q 28.65625 6.59375 39.40625 6.59375 
Q 50.140625 6.59375 56.421875 14.59375 
Q 62.703125 22.609375 62.703125 36.375 
Q 62.703125 50.203125 56.421875 58.203125 
Q 50.140625 66.21875 39.40625 66.21875 
z
M 39.40625 74.21875 
Q 54.734375 74.21875 63.90625 63.9375 
Q 73.09375 53.65625 73.09375 36.375 
Q 73.09375 19.140625 63.90625 8.859375 
Q 54.734375 -1.421875 39.40625 -1.421875 
Q 24.03125 -1.421875 14.8125 8.828125 
Q 5.609375 19.09375 5.609375 36.375 
Q 5.609375 53.65625 14.8125 63.9375 
Q 24.03125 74.21875 39.40625 74.21875 
z
" id="DejaVuSans-79"/>
       <path d="M 18.109375 8.203125 
L 18.109375 -20.796875 
L 9.078125 -20.796875 
L 9.078125 54.6875 
L 18.109375 54.6875 
L 18.109375 46.390625 
Q 20.953125 51.265625 25.265625 53.625 
Q 29.59375 56 35.59375 56 
Q 45.5625 56 51.78125 48.09375 
Q 58.015625 40.1875 58.015625 27.296875 
Q 58.015625 14.40625 51.78125 6.484375 
Q 45.5625 -1.421875 35.59375 -1.421875 
Q 29.59375 -1.421875 25.265625 0.953125 
Q 20.953125 3.328125 18.109375 8.203125 
z
M 48.6875 27.296875 
Q 48.6875 37.203125 44.609375 42.84375 
Q 40.53125 48.484375 33.40625 48.484375 
Q 26.265625 48.484375 22.1875 42.84375 
Q 18.109375 37.203125 18.109375 27.296875 
Q 18.109375 17.390625 22.1875 11.75 
Q 26.265625 6.109375 33.40625 6.109375 
Q 40.53125 6.109375 44.609375 11.75 
Q 48.6875 17.390625 48.6875 27.296875 
z
" id="DejaVuSans-112"/>
      </defs>
      <use xlink:href="#DejaVuSans-72"/>
      <use x="75.195312" xlink:href="#DejaVuSans-50"/>
      <use x="138.818359" xlink:href="#DejaVuSans-79"/>
      <use x="217.529297" xlink:href="#DejaVuSans-32"/>
      <use x="249.316406" xlink:href="#DejaVuSans-112"/>
      <use x="312.792969" xlink:href="#DejaVuSans-112"/>
      <use x="376.269531" xlink:href="#DejaVuSans-109"/>
     </g>
    </g>
   </g>
   <g id="line2d_15">
    <path clip-path="url(#pfdb51e9d8e)" d="M 69.560852 276.334125 
L 104.201262 276.227088 
L 112.999713 275.990732 
L 118.278783 275.635915 
L 122.041013 275.172884 
L 124.94396 274.615883 
L 127.4322 273.934346 
L 129.505734 273.169368 
L 131.579267 272.16788 
L 133.238094 271.150217 
L 134.896921 269.893076 
L 136.555748 268.344043 
L 138.214574 266.441302 
L 139.873401 264.113056 
L 141.532228 261.277529 
L 143.084357 258.084648 
L 144.626216 254.31576 
L 146.054115 250.224677 
L 147.482014 245.492153 
L 149.003429 239.680925 
L 150.569891 232.813743 
L 152.254149 224.392703 
L 154.162679 213.560233 
L 156.218727 200.473828 
L 158.603556 183.814515 
L 167.716181 118.328192 
L 169.853691 105.460748 
L 171.777451 95.231901 
L 173.487459 87.239115 
L 175.197468 80.247278 
L 176.767881 74.65137 
L 178.556404 69.153937 
L 180.344927 64.485958 
L 182.133451 60.539298 
L 183.921974 57.211415 
L 185.710497 54.409037 
L 187.49902 52.049753 
L 189.467233 49.880689 
L 191.616811 47.932131 
L 193.766389 46.339226 
L 195.915967 45.032593 
L 198.065544 43.956627 
L 200.752517 42.869265 
L 203.439489 42.006049 
L 206.663856 41.195216 
L 210.425617 40.479443 
L 215.262167 39.815554 
L 221.153535 39.265342 
L 228.323602 38.83279 
L 237.796354 38.489364 
L 251.9462 38.219336 
L 274.968183 38.0326 
L 321.34734 37.920485 
L 394.215398 37.878996 
L 394.215398 37.878996 
" style="fill:none;stroke:#0000ff;stroke-linecap:square;stroke-width:1.5;"/>
   </g>
   <g id="line2d_16">
    <path clip-path="url(#pfdb51e9d8e)" d="M 69.560853 276.334125 
L 108.543016 276.229784 
L 116.17925 275.997462 
L 120.671152 275.657184 
L 123.815483 275.226336 
L 126.383782 274.67708 
L 128.640215 273.976529 
L 130.5743 273.149786 
L 132.186037 272.249315 
L 133.797775 271.102332 
L 135.409513 269.64523 
L 136.698903 268.204525 
L 137.988293 266.468831 
L 139.277683 264.384247 
L 140.567073 261.889999 
L 141.856463 258.918921 
L 143.145853 255.398695 
L 144.435243 251.254084 
L 145.724633 246.410444 
L 147.014023 240.798696 
L 148.566403 232.943784 
L 150.134347 223.736377 
L 151.810588 212.483125 
L 153.732593 197.937793 
L 156.140674 177.818083 
L 162.606512 122.656245 
L 164.508648 108.691804 
L 166.222335 97.588199 
L 167.796889 88.683563 
L 169.371444 80.994658 
L 170.897449 74.627752 
L 172.341294 69.495145 
L 173.844646 64.967157 
L 175.386436 61.075005 
L 177.007367 57.681671 
L 178.628298 54.88812 
L 180.249229 52.590891 
L 181.87016 50.701767 
L 183.491091 49.146836 
L 185.112022 47.864929 
L 187.138185 46.57093 
L 189.164349 45.547635 
L 191.595745 44.593124 
L 194.432375 43.760003 
L 197.674236 43.071515 
L 201.321331 42.527601 
L 206.184124 42.047955 
L 212.584553 41.670119 
L 221.384885 41.394443 
L 235.71063 41.200186 
L 263.488386 41.085677 
L 353.253619 41.020967 
L 393.32399 41.011266 
L 393.32399 41.011266 
" style="fill:none;stroke:#ff0000;stroke-linecap:square;stroke-width:1.5;"/>
   </g>
   <g id="line2d_17">
    <defs>
     <path d="M 0 3 
C 0.795609 3 1.55874 2.683901 2.12132 2.12132 
C 2.683901 1.55874 3 0.795609 3 0 
C 3 -0.795609 2.683901 -1.55874 2.12132 -2.12132 
C 1.55874 -2.683901 0.795609 -3 0 -3 
C -0.795609 -3 -1.55874 -2.683901 -2.12132 -2.12132 
C -2.683901 -1.55874 -3 -0.795609 -3 0 
C -3 0.795609 -2.683901 1.55874 -2.12132 2.12132 
C -1.55874 2.683901 -0.795609 3 0 3 
z
" id="m8565688551" style="stroke:#000000;"/>
    </defs>
    <g clip-path="url(#pfdb51e9d8e)">
     <use style="stroke:#000000;" x="129.880023" xlink:href="#m8565688551" y="273.069342"/>
     <use style="stroke:#000000;" x="130.041845" xlink:href="#m8565688551" y="270.474735"/>
     <use style="stroke:#000000;" x="130.203667" xlink:href="#m8565688551" y="269.175636"/>
     <use style="stroke:#000000;" x="130.365489" xlink:href="#m8565688551" y="272.421272"/>
     <use style="stroke:#000000;" x="130.527311" xlink:href="#m8565688551" y="271.123436"/>
     <use style="stroke:#000000;" x="130.689133" xlink:href="#m8565688551" y="271.77299"/>
     <use style="stroke:#000000;" x="130.850955" xlink:href="#m8565688551" y="272.421272"/>
     <use style="stroke:#000000;" x="131.012777" xlink:href="#m8565688551" y="274.365916"/>
     <use style="stroke:#000000;" x="131.174599" xlink:href="#m8565688551" y="269.175636"/>
     <use style="stroke:#000000;" x="131.336421" xlink:href="#m8565688551" y="272.421272"/>
     <use style="stroke:#000000;" x="131.498243" xlink:href="#m8565688551" y="269.175636"/>
     <use style="stroke:#000000;" x="131.660065" xlink:href="#m8565688551" y="271.123436"/>
     <use style="stroke:#000000;" x="131.821887" xlink:href="#m8565688551" y="272.421272"/>
     <use style="stroke:#000000;" x="131.983709" xlink:href="#m8565688551" y="271.123436"/>
     <use style="stroke:#000000;" x="132.145532" xlink:href="#m8565688551" y="269.175636"/>
     <use style="stroke:#000000;" x="132.307354" xlink:href="#m8565688551" y="269.175636"/>
     <use style="stroke:#000000;" x="132.469176" xlink:href="#m8565688551" y="267.225939"/>
     <use style="stroke:#000000;" x="132.630998" xlink:href="#m8565688551" y="271.77299"/>
     <use style="stroke:#000000;" x="132.79282" xlink:href="#m8565688551" y="264.62374"/>
     <use style="stroke:#000000;" x="132.954642" xlink:href="#m8565688551" y="269.824759"/>
     <use style="stroke:#000000;" x="133.116464" xlink:href="#m8565688551" y="270.474735"/>
     <use style="stroke:#000000;" x="133.278286" xlink:href="#m8565688551" y="270.474735"/>
     <use style="stroke:#000000;" x="133.440108" xlink:href="#m8565688551" y="271.123436"/>
     <use style="stroke:#000000;" x="133.60193" xlink:href="#m8565688551" y="269.824759"/>
     <use style="stroke:#000000;" x="133.763752" xlink:href="#m8565688551" y="267.875695"/>
     <use style="stroke:#000000;" x="133.925574" xlink:href="#m8565688551" y="269.175636"/>
     <use style="stroke:#000000;" x="134.087396" xlink:href="#m8565688551" y="269.824759"/>
     <use style="stroke:#000000;" x="134.249218" xlink:href="#m8565688551" y="272.421272"/>
     <use style="stroke:#000000;" x="134.41104" xlink:href="#m8565688551" y="274.365916"/>
     <use style="stroke:#000000;" x="134.572862" xlink:href="#m8565688551" y="271.77299"/>
     <use style="stroke:#000000;" x="134.734684" xlink:href="#m8565688551" y="269.175636"/>
     <use style="stroke:#000000;" x="134.896506" xlink:href="#m8565688551" y="269.175636"/>
     <use style="stroke:#000000;" x="135.058328" xlink:href="#m8565688551" y="271.123436"/>
     <use style="stroke:#000000;" x="135.220151" xlink:href="#m8565688551" y="270.474735"/>
     <use style="stroke:#000000;" x="135.381973" xlink:href="#m8565688551" y="267.875695"/>
     <use style="stroke:#000000;" x="135.543795" xlink:href="#m8565688551" y="269.175636"/>
     <use style="stroke:#000000;" x="135.705617" xlink:href="#m8565688551" y="269.824759"/>
     <use style="stroke:#000000;" x="135.867439" xlink:href="#m8565688551" y="269.175636"/>
     <use style="stroke:#000000;" x="136.029261" xlink:href="#m8565688551" y="270.474735"/>
     <use style="stroke:#000000;" x="136.191083" xlink:href="#m8565688551" y="267.875695"/>
     <use style="stroke:#000000;" x="136.352905" xlink:href="#m8565688551" y="265.924729"/>
     <use style="stroke:#000000;" x="136.514727" xlink:href="#m8565688551" y="266.575973"/>
     <use style="stroke:#000000;" x="136.676549" xlink:href="#m8565688551" y="265.924729"/>
     <use style="stroke:#000000;" x="136.838371" xlink:href="#m8565688551" y="264.62374"/>
     <use style="stroke:#000000;" x="137.000193" xlink:href="#m8565688551" y="262.6696"/>
     <use style="stroke:#000000;" x="137.162015" xlink:href="#m8565688551" y="267.225939"/>
     <use style="stroke:#000000;" x="137.323837" xlink:href="#m8565688551" y="266.575973"/>
     <use style="stroke:#000000;" x="137.485659" xlink:href="#m8565688551" y="265.924729"/>
     <use style="stroke:#000000;" x="137.647481" xlink:href="#m8565688551" y="269.175636"/>
     <use style="stroke:#000000;" x="137.809303" xlink:href="#m8565688551" y="267.875695"/>
     <use style="stroke:#000000;" x="137.971125" xlink:href="#m8565688551" y="265.27434"/>
     <use style="stroke:#000000;" x="138.132948" xlink:href="#m8565688551" y="262.6696"/>
     <use style="stroke:#000000;" x="138.29477" xlink:href="#m8565688551" y="266.575973"/>
     <use style="stroke:#000000;" x="138.456592" xlink:href="#m8565688551" y="263.97186"/>
     <use style="stroke:#000000;" x="138.618414" xlink:href="#m8565688551" y="265.924729"/>
     <use style="stroke:#000000;" x="138.780236" xlink:href="#m8565688551" y="265.924729"/>
     <use style="stroke:#000000;" x="138.942058" xlink:href="#m8565688551" y="267.875695"/>
     <use style="stroke:#000000;" x="139.10388" xlink:href="#m8565688551" y="265.924729"/>
     <use style="stroke:#000000;" x="139.265702" xlink:href="#m8565688551" y="265.924729"/>
     <use style="stroke:#000000;" x="139.427524" xlink:href="#m8565688551" y="265.924729"/>
     <use style="stroke:#000000;" x="139.589346" xlink:href="#m8565688551" y="261.365424"/>
     <use style="stroke:#000000;" x="139.751168" xlink:href="#m8565688551" y="264.62374"/>
     <use style="stroke:#000000;" x="139.91299" xlink:href="#m8565688551" y="264.62374"/>
     <use style="stroke:#000000;" x="140.074812" xlink:href="#m8565688551" y="265.27434"/>
     <use style="stroke:#000000;" x="140.236634" xlink:href="#m8565688551" y="264.62374"/>
     <use style="stroke:#000000;" x="140.398456" xlink:href="#m8565688551" y="262.017084"/>
     <use style="stroke:#000000;" x="140.560278" xlink:href="#m8565688551" y="259.408099"/>
     <use style="stroke:#000000;" x="140.7221" xlink:href="#m8565688551" y="265.27434"/>
     <use style="stroke:#000000;" x="140.883922" xlink:href="#m8565688551" y="261.365424"/>
     <use style="stroke:#000000;" x="141.045745" xlink:href="#m8565688551" y="264.62374"/>
     <use style="stroke:#000000;" x="141.207567" xlink:href="#m8565688551" y="263.320836"/>
     <use style="stroke:#000000;" x="141.369389" xlink:href="#m8565688551" y="258.754518"/>
     <use style="stroke:#000000;" x="141.531211" xlink:href="#m8565688551" y="262.017084"/>
     <use style="stroke:#000000;" x="141.693033" xlink:href="#m8565688551" y="263.320836"/>
     <use style="stroke:#000000;" x="141.854855" xlink:href="#m8565688551" y="262.017084"/>
     <use style="stroke:#000000;" x="142.016677" xlink:href="#m8565688551" y="261.365424"/>
     <use style="stroke:#000000;" x="142.178499" xlink:href="#m8565688551" y="260.713551"/>
     <use style="stroke:#000000;" x="142.340321" xlink:href="#m8565688551" y="258.101794"/>
     <use style="stroke:#000000;" x="142.502143" xlink:href="#m8565688551" y="261.365424"/>
     <use style="stroke:#000000;" x="142.663965" xlink:href="#m8565688551" y="260.713551"/>
     <use style="stroke:#000000;" x="142.825787" xlink:href="#m8565688551" y="259.408099"/>
     <use style="stroke:#000000;" x="142.987609" xlink:href="#m8565688551" y="262.6696"/>
     <use style="stroke:#000000;" x="143.149431" xlink:href="#m8565688551" y="259.408099"/>
     <use style="stroke:#000000;" x="143.311253" xlink:href="#m8565688551" y="262.017084"/>
     <use style="stroke:#000000;" x="143.473075" xlink:href="#m8565688551" y="259.408099"/>
     <use style="stroke:#000000;" x="143.634897" xlink:href="#m8565688551" y="259.408099"/>
     <use style="stroke:#000000;" x="143.796719" xlink:href="#m8565688551" y="258.101794"/>
     <use style="stroke:#000000;" x="143.958541" xlink:href="#m8565688551" y="260.060397"/>
     <use style="stroke:#000000;" x="144.120364" xlink:href="#m8565688551" y="259.408099"/>
     <use style="stroke:#000000;" x="144.282186" xlink:href="#m8565688551" y="256.141272"/>
     <use style="stroke:#000000;" x="144.444008" xlink:href="#m8565688551" y="255.487696"/>
     <use style="stroke:#000000;" x="144.60583" xlink:href="#m8565688551" y="255.487696"/>
     <use style="stroke:#000000;" x="144.767652" xlink:href="#m8565688551" y="256.141272"/>
     <use style="stroke:#000000;" x="144.929474" xlink:href="#m8565688551" y="255.487696"/>
     <use style="stroke:#000000;" x="145.091296" xlink:href="#m8565688551" y="253.52461"/>
     <use style="stroke:#000000;" x="145.253118" xlink:href="#m8565688551" y="254.832833"/>
     <use style="stroke:#000000;" x="145.41494" xlink:href="#m8565688551" y="253.52461"/>
     <use style="stroke:#000000;" x="145.576762" xlink:href="#m8565688551" y="252.214459"/>
     <use style="stroke:#000000;" x="145.738584" xlink:href="#m8565688551" y="255.487696"/>
     <use style="stroke:#000000;" x="145.900406" xlink:href="#m8565688551" y="251.559597"/>
     <use style="stroke:#000000;" x="146.062228" xlink:href="#m8565688551" y="249.592653"/>
     <use style="stroke:#000000;" x="146.22405" xlink:href="#m8565688551" y="249.592653"/>
     <use style="stroke:#000000;" x="146.385872" xlink:href="#m8565688551" y="250.248157"/>
     <use style="stroke:#000000;" x="146.547694" xlink:href="#m8565688551" y="253.52461"/>
     <use style="stroke:#000000;" x="146.709516" xlink:href="#m8565688551" y="250.248157"/>
     <use style="stroke:#000000;" x="146.871338" xlink:href="#m8565688551" y="248.279923"/>
     <use style="stroke:#000000;" x="147.033161" xlink:href="#m8565688551" y="248.935858"/>
     <use style="stroke:#000000;" x="147.194983" xlink:href="#m8565688551" y="248.935858"/>
     <use style="stroke:#000000;" x="147.356805" xlink:href="#m8565688551" y="247.623773"/>
     <use style="stroke:#000000;" x="147.518627" xlink:href="#m8565688551" y="247.623773"/>
     <use style="stroke:#000000;" x="147.680449" xlink:href="#m8565688551" y="250.248157"/>
     <use style="stroke:#000000;" x="147.842271" xlink:href="#m8565688551" y="242.363578"/>
     <use style="stroke:#000000;" x="148.004093" xlink:href="#m8565688551" y="244.337638"/>
     <use style="stroke:#000000;" x="148.165915" xlink:href="#m8565688551" y="244.337638"/>
     <use style="stroke:#000000;" x="148.327737" xlink:href="#m8565688551" y="245.651878"/>
     <use style="stroke:#000000;" x="148.489559" xlink:href="#m8565688551" y="247.623773"/>
     <use style="stroke:#000000;" x="148.651381" xlink:href="#m8565688551" y="242.363578"/>
     <use style="stroke:#000000;" x="148.813203" xlink:href="#m8565688551" y="242.363578"/>
     <use style="stroke:#000000;" x="148.975025" xlink:href="#m8565688551" y="240.38757"/>
     <use style="stroke:#000000;" x="149.136847" xlink:href="#m8565688551" y="237.08952"/>
     <use style="stroke:#000000;" x="149.298669" xlink:href="#m8565688551" y="237.08952"/>
     <use style="stroke:#000000;" x="149.460491" xlink:href="#m8565688551" y="239.727746"/>
     <use style="stroke:#000000;" x="149.622313" xlink:href="#m8565688551" y="235.76856"/>
     <use style="stroke:#000000;" x="149.784135" xlink:href="#m8565688551" y="236.42969"/>
     <use style="stroke:#000000;" x="149.945957" xlink:href="#m8565688551" y="233.125104"/>
     <use style="stroke:#000000;" x="150.10778" xlink:href="#m8565688551" y="237.749131"/>
     <use style="stroke:#000000;" x="150.269602" xlink:href="#m8565688551" y="237.749131"/>
     <use style="stroke:#000000;" x="150.431424" xlink:href="#m8565688551" y="234.446727"/>
     <use style="stroke:#000000;" x="150.593246" xlink:href="#m8565688551" y="232.462882"/>
     <use style="stroke:#000000;" x="150.755068" xlink:href="#m8565688551" y="237.08952"/>
     <use style="stroke:#000000;" x="150.91689" xlink:href="#m8565688551" y="229.815054"/>
     <use style="stroke:#000000;" x="151.078712" xlink:href="#m8565688551" y="232.462882"/>
     <use style="stroke:#000000;" x="151.240534" xlink:href="#m8565688551" y="232.462882"/>
     <use style="stroke:#000000;" x="151.402356" xlink:href="#m8565688551" y="231.139948"/>
     <use style="stroke:#000000;" x="151.564178" xlink:href="#m8565688551" y="228.489283"/>
     <use style="stroke:#000000;" x="151.726" xlink:href="#m8565688551" y="227.163718"/>
     <use style="stroke:#000000;" x="151.887822" xlink:href="#m8565688551" y="226.499519"/>
     <use style="stroke:#000000;" x="152.049644" xlink:href="#m8565688551" y="225.172637"/>
     <use style="stroke:#000000;" x="152.211466" xlink:href="#m8565688551" y="224.507776"/>
     <use style="stroke:#000000;" x="152.373288" xlink:href="#m8565688551" y="222.514049"/>
     <use style="stroke:#000000;" x="152.53511" xlink:href="#m8565688551" y="221.849395"/>
     <use style="stroke:#000000;" x="152.696932" xlink:href="#m8565688551" y="218.520626"/>
     <use style="stroke:#000000;" x="152.858754" xlink:href="#m8565688551" y="221.183429"/>
     <use style="stroke:#000000;" x="153.020577" xlink:href="#m8565688551" y="217.854643"/>
     <use style="stroke:#000000;" x="153.182399" xlink:href="#m8565688551" y="220.518333"/>
     <use style="stroke:#000000;" x="153.344221" xlink:href="#m8565688551" y="218.520626"/>
     <use style="stroke:#000000;" x="153.506043" xlink:href="#m8565688551" y="216.520922"/>
     <use style="stroke:#000000;" x="153.667865" xlink:href="#m8565688551" y="215.854274"/>
     <use style="stroke:#000000;" x="153.829687" xlink:href="#m8565688551" y="213.18327"/>
     <use style="stroke:#000000;" x="153.991509" xlink:href="#m8565688551" y="213.18327"/>
     <use style="stroke:#000000;" x="154.153331" xlink:href="#m8565688551" y="211.178223"/>
     <use style="stroke:#000000;" x="154.315153" xlink:href="#m8565688551" y="210.509791"/>
     <use style="stroke:#000000;" x="154.476975" xlink:href="#m8565688551" y="211.847525"/>
     <use style="stroke:#000000;" x="154.638797" xlink:href="#m8565688551" y="208.502062"/>
     <use style="stroke:#000000;" x="154.800619" xlink:href="#m8565688551" y="205.150998"/>
     <use style="stroke:#000000;" x="154.962441" xlink:href="#m8565688551" y="205.821221"/>
     <use style="stroke:#000000;" x="155.124263" xlink:href="#m8565688551" y="202.466761"/>
     <use style="stroke:#000000;" x="155.286085" xlink:href="#m8565688551" y="203.137883"/>
     <use style="stroke:#000000;" x="155.447907" xlink:href="#m8565688551" y="201.122741"/>
     <use style="stroke:#000000;" x="155.609729" xlink:href="#m8565688551" y="205.150998"/>
     <use style="stroke:#000000;" x="155.771551" xlink:href="#m8565688551" y="199.777816"/>
     <use style="stroke:#000000;" x="155.933373" xlink:href="#m8565688551" y="198.431987"/>
     <use style="stroke:#000000;" x="156.095196" xlink:href="#m8565688551" y="195.738717"/>
     <use style="stroke:#000000;" x="156.257018" xlink:href="#m8565688551" y="195.065109"/>
     <use style="stroke:#000000;" x="156.41884" xlink:href="#m8565688551" y="195.065109"/>
     <use style="stroke:#000000;" x="156.580662" xlink:href="#m8565688551" y="190.34017"/>
     <use style="stroke:#000000;" x="156.742484" xlink:href="#m8565688551" y="193.041816"/>
     <use style="stroke:#000000;" x="156.904306" xlink:href="#m8565688551" y="193.716106"/>
     <use style="stroke:#000000;" x="157.066128" xlink:href="#m8565688551" y="191.691449"/>
     <use style="stroke:#000000;" x="157.22795" xlink:href="#m8565688551" y="186.281958"/>
     <use style="stroke:#000000;" x="157.389772" xlink:href="#m8565688551" y="188.312092"/>
     <use style="stroke:#000000;" x="157.551594" xlink:href="#m8565688551" y="183.572273"/>
     <use style="stroke:#000000;" x="157.713416" xlink:href="#m8565688551" y="184.927018"/>
     <use style="stroke:#000000;" x="157.875238" xlink:href="#m8565688551" y="182.215499"/>
     <use style="stroke:#000000;" x="158.03706" xlink:href="#m8565688551" y="184.927018"/>
     <use style="stroke:#000000;" x="158.198882" xlink:href="#m8565688551" y="180.857803"/>
     <use style="stroke:#000000;" x="158.360704" xlink:href="#m8565688551" y="178.820089"/>
     <use style="stroke:#000000;" x="158.522526" xlink:href="#m8565688551" y="176.100275"/>
     <use style="stroke:#000000;" x="158.684348" xlink:href="#m8565688551" y="171.330291"/>
     <use style="stroke:#000000;" x="158.84617" xlink:href="#m8565688551" y="172.694464"/>
     <use style="stroke:#000000;" x="159.007993" xlink:href="#m8565688551" y="168.600273"/>
     <use style="stroke:#000000;" x="159.169815" xlink:href="#m8565688551" y="169.282847"/>
     <use style="stroke:#000000;" x="159.331637" xlink:href="#m8565688551" y="171.330291"/>
     <use style="stroke:#000000;" x="159.493459" xlink:href="#m8565688551" y="166.550032"/>
     <use style="stroke:#000000;" x="159.655281" xlink:href="#m8565688551" y="166.550032"/>
     <use style="stroke:#000000;" x="159.817103" xlink:href="#m8565688551" y="162.443238"/>
     <use style="stroke:#000000;" x="159.978925" xlink:href="#m8565688551" y="159.699936"/>
     <use style="stroke:#000000;" x="160.140747" xlink:href="#m8565688551" y="163.81348"/>
     <use style="stroke:#000000;" x="160.302569" xlink:href="#m8565688551" y="162.443238"/>
     <use style="stroke:#000000;" x="160.464391" xlink:href="#m8565688551" y="160.386675"/>
     <use style="stroke:#000000;" x="160.626213" xlink:href="#m8565688551" y="156.2672"/>
     <use style="stroke:#000000;" x="160.788035" xlink:href="#m8565688551" y="153.515413"/>
     <use style="stroke:#000000;" x="160.949857" xlink:href="#m8565688551" y="159.014084"/>
     <use style="stroke:#000000;" x="161.111679" xlink:href="#m8565688551" y="156.953993"/>
     <use style="stroke:#000000;" x="161.273501" xlink:href="#m8565688551" y="152.827438"/>
     <use style="stroke:#000000;" x="161.435323" xlink:href="#m8565688551" y="153.515413"/>
     <use style="stroke:#000000;" x="161.597145" xlink:href="#m8565688551" y="152.827438"/>
     <use style="stroke:#000000;" x="161.758967" xlink:href="#m8565688551" y="148.001592"/>
     <use style="stroke:#000000;" x="161.920789" xlink:href="#m8565688551" y="143.165212"/>
     <use style="stroke:#000000;" x="162.082612" xlink:href="#m8565688551" y="143.856516"/>
     <use style="stroke:#000000;" x="162.244434" xlink:href="#m8565688551" y="146.621608"/>
     <use style="stroke:#000000;" x="162.406256" xlink:href="#m8565688551" y="141.780754"/>
     <use style="stroke:#000000;" x="162.568078" xlink:href="#m8565688551" y="139.702836"/>
     <use style="stroke:#000000;" x="162.7299" xlink:href="#m8565688551" y="141.088732"/>
     <use style="stroke:#000000;" x="162.891722" xlink:href="#m8565688551" y="141.088732"/>
     <use style="stroke:#000000;" x="163.053544" xlink:href="#m8565688551" y="136.23446"/>
     <use style="stroke:#000000;" x="163.215366" xlink:href="#m8565688551" y="134.846335"/>
     <use style="stroke:#000000;" x="163.377188" xlink:href="#m8565688551" y="133.456107"/>
     <use style="stroke:#000000;" x="163.53901" xlink:href="#m8565688551" y="134.846335"/>
     <use style="stroke:#000000;" x="163.700832" xlink:href="#m8565688551" y="133.456107"/>
     <use style="stroke:#000000;" x="163.862654" xlink:href="#m8565688551" y="133.456107"/>
     <use style="stroke:#000000;" x="164.024476" xlink:href="#m8565688551" y="129.280762"/>
     <use style="stroke:#000000;" x="164.186298" xlink:href="#m8565688551" y="127.886661"/>
     <use style="stroke:#000000;" x="164.34812" xlink:href="#m8565688551" y="125.794259"/>
     <use style="stroke:#000000;" x="164.509942" xlink:href="#m8565688551" y="122.301671"/>
     <use style="stroke:#000000;" x="164.671764" xlink:href="#m8565688551" y="124.39887"/>
     <use style="stroke:#000000;" x="164.833586" xlink:href="#m8565688551" y="122.301671"/>
     <use style="stroke:#000000;" x="164.995409" xlink:href="#m8565688551" y="122.301671"/>
     <use style="stroke:#000000;" x="165.157231" xlink:href="#m8565688551" y="119.503894"/>
     <use style="stroke:#000000;" x="165.319053" xlink:href="#m8565688551" y="118.804125"/>
     <use style="stroke:#000000;" x="165.480875" xlink:href="#m8565688551" y="113.895427"/>
     <use style="stroke:#000000;" x="165.642697" xlink:href="#m8565688551" y="115.299306"/>
     <use style="stroke:#000000;" x="165.804519" xlink:href="#m8565688551" y="113.895427"/>
     <use style="stroke:#000000;" x="165.966341" xlink:href="#m8565688551" y="113.193694"/>
     <use style="stroke:#000000;" x="166.128163" xlink:href="#m8565688551" y="113.895427"/>
     <use style="stroke:#000000;" x="166.289985" xlink:href="#m8565688551" y="111.085864"/>
     <use style="stroke:#000000;" x="166.451807" xlink:href="#m8565688551" y="115.299306"/>
     <use style="stroke:#000000;" x="166.613629" xlink:href="#m8565688551" y="107.56749"/>
     <use style="stroke:#000000;" x="166.775451" xlink:href="#m8565688551" y="104.749022"/>
     <use style="stroke:#000000;" x="166.937273" xlink:href="#m8565688551" y="108.975812"/>
     <use style="stroke:#000000;" x="167.099095" xlink:href="#m8565688551" y="104.042918"/>
     <use style="stroke:#000000;" x="167.260917" xlink:href="#m8565688551" y="103.33772"/>
     <use style="stroke:#000000;" x="167.422739" xlink:href="#m8565688551" y="101.925423"/>
     <use style="stroke:#000000;" x="167.584561" xlink:href="#m8565688551" y="100.513285"/>
     <use style="stroke:#000000;" x="167.746383" xlink:href="#m8565688551" y="101.925423"/>
     <use style="stroke:#000000;" x="167.908205" xlink:href="#m8565688551" y="96.976257"/>
     <use style="stroke:#000000;" x="168.070028" xlink:href="#m8565688551" y="101.925423"/>
     <use style="stroke:#000000;" x="168.23185" xlink:href="#m8565688551" y="101.219479"/>
     <use style="stroke:#000000;" x="168.393672" xlink:href="#m8565688551" y="99.805684"/>
     <use style="stroke:#000000;" x="168.555494" xlink:href="#m8565688551" y="96.267404"/>
     <use style="stroke:#000000;" x="168.717316" xlink:href="#m8565688551" y="95.559461"/>
     <use style="stroke:#000000;" x="168.879138" xlink:href="#m8565688551" y="96.976257"/>
     <use style="stroke:#000000;" x="169.04096" xlink:href="#m8565688551" y="95.559461"/>
     <use style="stroke:#000000;" x="169.202782" xlink:href="#m8565688551" y="94.141661"/>
     <use style="stroke:#000000;" x="169.364604" xlink:href="#m8565688551" y="91.304207"/>
     <use style="stroke:#000000;" x="169.526426" xlink:href="#m8565688551" y="94.851267"/>
     <use style="stroke:#000000;" x="169.688248" xlink:href="#m8565688551" y="86.328671"/>
     <use style="stroke:#000000;" x="169.85007" xlink:href="#m8565688551" y="89.173183"/>
     <use style="stroke:#000000;" x="170.011892" xlink:href="#m8565688551" y="92.013658"/>
     <use style="stroke:#000000;" x="170.173714" xlink:href="#m8565688551" y="87.039887"/>
     <use style="stroke:#000000;" x="170.335536" xlink:href="#m8565688551" y="86.328671"/>
     <use style="stroke:#000000;" x="170.497358" xlink:href="#m8565688551" y="86.328671"/>
     <use style="stroke:#000000;" x="170.65918" xlink:href="#m8565688551" y="87.75085"/>
     <use style="stroke:#000000;" x="170.821002" xlink:href="#m8565688551" y="87.75085"/>
     <use style="stroke:#000000;" x="170.982825" xlink:href="#m8565688551" y="87.039887"/>
     <use style="stroke:#000000;" x="171.144647" xlink:href="#m8565688551" y="86.328671"/>
     <use style="stroke:#000000;" x="171.306469" xlink:href="#m8565688551" y="83.478943"/>
     <use style="stroke:#000000;" x="171.468291" xlink:href="#m8565688551" y="84.904314"/>
     <use style="stroke:#000000;" x="171.630113" xlink:href="#m8565688551" y="81.339564"/>
     <use style="stroke:#000000;" x="171.791935" xlink:href="#m8565688551" y="82.052556"/>
     <use style="stroke:#000000;" x="171.953757" xlink:href="#m8565688551" y="81.339564"/>
     <use style="stroke:#000000;" x="172.115579" xlink:href="#m8565688551" y="79.197897"/>
     <use style="stroke:#000000;" x="172.277401" xlink:href="#m8565688551" y="79.911651"/>
     <use style="stroke:#000000;" x="172.439223" xlink:href="#m8565688551" y="77.053934"/>
     <use style="stroke:#000000;" x="172.601045" xlink:href="#m8565688551" y="76.339161"/>
     <use style="stroke:#000000;" x="172.762867" xlink:href="#m8565688551" y="70.608231"/>
     <use style="stroke:#000000;" x="172.924689" xlink:href="#m8565688551" y="75.622959"/>
     <use style="stroke:#000000;" x="173.086511" xlink:href="#m8565688551" y="77.053934"/>
     <use style="stroke:#000000;" x="173.248333" xlink:href="#m8565688551" y="73.475161"/>
     <use style="stroke:#000000;" x="173.410155" xlink:href="#m8565688551" y="71.325055"/>
     <use style="stroke:#000000;" x="173.571977" xlink:href="#m8565688551" y="69.889975"/>
     <use style="stroke:#000000;" x="173.733799" xlink:href="#m8565688551" y="68.455042"/>
     <use style="stroke:#000000;" x="173.895622" xlink:href="#m8565688551" y="69.889975"/>
     <use style="stroke:#000000;" x="174.057444" xlink:href="#m8565688551" y="70.608231"/>
     <use style="stroke:#000000;" x="174.219266" xlink:href="#m8565688551" y="72.759107"/>
     <use style="stroke:#000000;" x="174.381088" xlink:href="#m8565688551" y="70.608231"/>
     <use style="stroke:#000000;" x="174.54291" xlink:href="#m8565688551" y="66.299533"/>
     <use style="stroke:#000000;" x="174.704732" xlink:href="#m8565688551" y="66.299533"/>
     <use style="stroke:#000000;" x="174.866554" xlink:href="#m8565688551" y="68.455042"/>
     <use style="stroke:#000000;" x="175.028376" xlink:href="#m8565688551" y="68.455042"/>
     <use style="stroke:#000000;" x="175.190198" xlink:href="#m8565688551" y="65.579729"/>
     <use style="stroke:#000000;" x="175.35202" xlink:href="#m8565688551" y="67.736012"/>
     <use style="stroke:#000000;" x="175.513842" xlink:href="#m8565688551" y="66.299533"/>
     <use style="stroke:#000000;" x="175.675664" xlink:href="#m8565688551" y="68.455042"/>
     <use style="stroke:#000000;" x="175.837486" xlink:href="#m8565688551" y="64.860844"/>
     <use style="stroke:#000000;" x="175.999308" xlink:href="#m8565688551" y="67.736012"/>
     <use style="stroke:#000000;" x="176.16113" xlink:href="#m8565688551" y="63.421118"/>
     <use style="stroke:#000000;" x="176.322952" xlink:href="#m8565688551" y="62.701457"/>
     <use style="stroke:#000000;" x="176.484774" xlink:href="#m8565688551" y="61.260178"/>
     <use style="stroke:#000000;" x="176.646596" xlink:href="#m8565688551" y="61.981537"/>
     <use style="stroke:#000000;" x="176.808418" xlink:href="#m8565688551" y="64.1417"/>
     <use style="stroke:#000000;" x="176.970241" xlink:href="#m8565688551" y="63.421118"/>
     <use style="stroke:#000000;" x="177.132063" xlink:href="#m8565688551" y="61.260178"/>
     <use style="stroke:#000000;" x="177.293885" xlink:href="#m8565688551" y="62.701457"/>
     <use style="stroke:#000000;" x="177.455707" xlink:href="#m8565688551" y="60.539739"/>
     <use style="stroke:#000000;" x="177.617529" xlink:href="#m8565688551" y="61.981537"/>
     <use style="stroke:#000000;" x="177.779351" xlink:href="#m8565688551" y="59.819041"/>
     <use style="stroke:#000000;" x="177.941173" xlink:href="#m8565688551" y="61.981537"/>
     <use style="stroke:#000000;" x="178.102995" xlink:href="#m8565688551" y="58.375683"/>
     <use style="stroke:#000000;" x="178.264817" xlink:href="#m8565688551" y="58.375683"/>
     <use style="stroke:#000000;" x="178.426639" xlink:href="#m8565688551" y="61.260178"/>
     <use style="stroke:#000000;" x="178.588461" xlink:href="#m8565688551" y="57.653023"/>
     <use style="stroke:#000000;" x="178.750283" xlink:href="#m8565688551" y="58.375683"/>
     <use style="stroke:#000000;" x="178.912105" xlink:href="#m8565688551" y="54.040538"/>
     <use style="stroke:#000000;" x="179.073927" xlink:href="#m8565688551" y="56.209285"/>
     <use style="stroke:#000000;" x="179.235749" xlink:href="#m8565688551" y="61.981537"/>
     <use style="stroke:#000000;" x="179.397571" xlink:href="#m8565688551" y="58.375683"/>
     <use style="stroke:#000000;" x="179.559393" xlink:href="#m8565688551" y="57.653023"/>
     <use style="stroke:#000000;" x="179.721215" xlink:href="#m8565688551" y="57.653023"/>
     <use style="stroke:#000000;" x="179.883038" xlink:href="#m8565688551" y="56.209285"/>
     <use style="stroke:#000000;" x="180.04486" xlink:href="#m8565688551" y="56.209285"/>
     <use style="stroke:#000000;" x="180.206682" xlink:href="#m8565688551" y="51.869439"/>
     <use style="stroke:#000000;" x="180.368504" xlink:href="#m8565688551" y="57.653023"/>
     <use style="stroke:#000000;" x="180.530326" xlink:href="#m8565688551" y="51.869439"/>
     <use style="stroke:#000000;" x="180.692148" xlink:href="#m8565688551" y="57.653023"/>
     <use style="stroke:#000000;" x="180.85397" xlink:href="#m8565688551" y="51.869439"/>
     <use style="stroke:#000000;" x="181.015792" xlink:href="#m8565688551" y="56.931283"/>
     <use style="stroke:#000000;" x="181.177614" xlink:href="#m8565688551" y="52.593005"/>
     <use style="stroke:#000000;" x="181.339436" xlink:href="#m8565688551" y="53.316309"/>
     <use style="stroke:#000000;" x="181.501258" xlink:href="#m8565688551" y="54.040538"/>
     <use style="stroke:#000000;" x="181.66308" xlink:href="#m8565688551" y="50.420334"/>
     <use style="stroke:#000000;" x="181.824902" xlink:href="#m8565688551" y="51.144424"/>
     <use style="stroke:#000000;" x="181.986724" xlink:href="#m8565688551" y="54.040538"/>
     <use style="stroke:#000000;" x="182.148546" xlink:href="#m8565688551" y="48.970178"/>
     <use style="stroke:#000000;" x="182.310368" xlink:href="#m8565688551" y="53.316309"/>
     <use style="stroke:#000000;" x="182.47219" xlink:href="#m8565688551" y="54.76332"/>
     <use style="stroke:#000000;" x="182.634012" xlink:href="#m8565688551" y="51.869439"/>
     <use style="stroke:#000000;" x="182.795834" xlink:href="#m8565688551" y="51.144424"/>
     <use style="stroke:#000000;" x="182.957657" xlink:href="#m8565688551" y="50.420334"/>
     <use style="stroke:#000000;" x="183.119479" xlink:href="#m8565688551" y="48.970178"/>
     <use style="stroke:#000000;" x="183.281301" xlink:href="#m8565688551" y="50.420334"/>
     <use style="stroke:#000000;" x="183.443123" xlink:href="#m8565688551" y="49.695981"/>
     <use style="stroke:#000000;" x="183.604945" xlink:href="#m8565688551" y="51.144424"/>
     <use style="stroke:#000000;" x="183.766767" xlink:href="#m8565688551" y="48.2453"/>
     <use style="stroke:#000000;" x="183.928589" xlink:href="#m8565688551" y="49.695981"/>
     <use style="stroke:#000000;" x="184.090411" xlink:href="#m8565688551" y="46.067901"/>
     <use style="stroke:#000000;" x="184.252233" xlink:href="#m8565688551" y="51.144424"/>
     <use style="stroke:#000000;" x="184.414055" xlink:href="#m8565688551" y="48.2453"/>
     <use style="stroke:#000000;" x="184.575877" xlink:href="#m8565688551" y="49.695981"/>
     <use style="stroke:#000000;" x="184.737699" xlink:href="#m8565688551" y="46.067901"/>
     <use style="stroke:#000000;" x="184.899521" xlink:href="#m8565688551" y="47.520161"/>
     <use style="stroke:#000000;" x="185.061343" xlink:href="#m8565688551" y="46.793568"/>
     <use style="stroke:#000000;" x="185.223165" xlink:href="#m8565688551" y="48.970178"/>
     <use style="stroke:#000000;" x="185.384987" xlink:href="#m8565688551" y="45.340782"/>
     <use style="stroke:#000000;" x="185.546809" xlink:href="#m8565688551" y="49.695981"/>
     <use style="stroke:#000000;" x="185.708631" xlink:href="#m8565688551" y="45.340782"/>
     <use style="stroke:#000000;" x="185.870454" xlink:href="#m8565688551" y="44.614587"/>
     <use style="stroke:#000000;" x="186.032276" xlink:href="#m8565688551" y="51.144424"/>
     <use style="stroke:#000000;" x="186.194098" xlink:href="#m8565688551" y="47.520161"/>
     <use style="stroke:#000000;" x="186.35592" xlink:href="#m8565688551" y="46.067901"/>
     <use style="stroke:#000000;" x="186.517742" xlink:href="#m8565688551" y="43.160217"/>
     <use style="stroke:#000000;" x="186.679564" xlink:href="#m8565688551" y="45.340782"/>
     <use style="stroke:#000000;" x="186.841386" xlink:href="#m8565688551" y="48.2453"/>
     <use style="stroke:#000000;" x="187.003208" xlink:href="#m8565688551" y="48.2453"/>
     <use style="stroke:#000000;" x="187.16503" xlink:href="#m8565688551" y="46.793568"/>
     <use style="stroke:#000000;" x="187.326852" xlink:href="#m8565688551" y="45.340782"/>
     <use style="stroke:#000000;" x="187.488674" xlink:href="#m8565688551" y="42.433232"/>
     <use style="stroke:#000000;" x="187.650496" xlink:href="#m8565688551" y="42.433232"/>
     <use style="stroke:#000000;" x="187.812318" xlink:href="#m8565688551" y="42.433232"/>
     <use style="stroke:#000000;" x="187.97414" xlink:href="#m8565688551" y="46.793568"/>
     <use style="stroke:#000000;" x="188.135962" xlink:href="#m8565688551" y="43.160217"/>
     <use style="stroke:#000000;" x="188.297784" xlink:href="#m8565688551" y="40.977276"/>
     <use style="stroke:#000000;" x="188.459606" xlink:href="#m8565688551" y="42.433232"/>
     <use style="stroke:#000000;" x="188.621428" xlink:href="#m8565688551" y="41.705983"/>
     <use style="stroke:#000000;" x="188.78325" xlink:href="#m8565688551" y="40.977276"/>
     <use style="stroke:#000000;" x="188.945073" xlink:href="#m8565688551" y="44.614587"/>
     <use style="stroke:#000000;" x="189.106895" xlink:href="#m8565688551" y="43.888131"/>
     <use style="stroke:#000000;" x="189.268717" xlink:href="#m8565688551" y="40.249497"/>
     <use style="stroke:#000000;" x="189.430539" xlink:href="#m8565688551" y="38.791949"/>
     <use style="stroke:#000000;" x="189.592361" xlink:href="#m8565688551" y="41.705983"/>
     <use style="stroke:#000000;" x="189.754183" xlink:href="#m8565688551" y="43.160217"/>
     <use style="stroke:#000000;" x="189.916005" xlink:href="#m8565688551" y="43.160217"/>
     <use style="stroke:#000000;" x="190.077827" xlink:href="#m8565688551" y="45.340782"/>
     <use style="stroke:#000000;" x="190.239649" xlink:href="#m8565688551" y="40.249497"/>
     <use style="stroke:#000000;" x="190.401471" xlink:href="#m8565688551" y="35.145226"/>
     <use style="stroke:#000000;" x="190.563293" xlink:href="#m8565688551" y="38.063375"/>
     <use style="stroke:#000000;" x="190.725115" xlink:href="#m8565688551" y="38.063375"/>
     <use style="stroke:#000000;" x="190.886937" xlink:href="#m8565688551" y="34.414125"/>
    </g>
   </g>
   <g id="line2d_18">
    <path clip-path="url(#pfdb51e9d8e)" d="M 129.880023 272.45449 
L 131.336421 271.74948 
L 134.896506 269.156749 
L 137.647481 266.31044 
L 140.236634 262.501657 
L 141.693033 259.739884 
L 142.987609 256.833555 
L 144.282186 253.483449 
L 145.576762 249.610762 
L 146.709516 245.70243 
L 148.327737 239.389711 
L 150.10778 231.315235 
L 151.887822 222.033614 
L 153.667865 211.623923 
L 155.609729 198.899219 
L 158.198882 180.272402 
L 161.111679 158.007139 
L 165.480875 124.942733 
L 167.908205 108.314912 
L 170.011892 95.505612 
L 171.791935 85.962991 
L 173.571977 77.583074 
L 175.35202 70.296286 
L 176.970241 64.612726 
L 178.588461 59.7105 
L 180.368504 55.105988 
L 181.986724 51.537794 
L 183.604945 48.491701 
L 185.384987 45.65133 
L 187.16503 43.258771 
L 189.268717 40.915791 
L 190.886937 39.399711 
L 190.886937 39.399711 
" style="fill:none;stroke:#0000ff;stroke-dasharray:5.55,2.4;stroke-dashoffset:0;stroke-width:1.5;"/>
   </g>
   <g id="line2d_19">
    <path clip-path="url(#pfdb51e9d8e)" d="M 129.880023 273.481622 
L 132.954642 271.936036 
L 135.543795 270.050946 
L 136.514727 269.120459 
L 139.427524 265.730727 
L 141.531211 262.39408 
L 143.149431 259.316164 
L 144.929474 255.23495 
L 146.062228 252.260816 
L 147.518627 247.842453 
L 148.975025 242.747604 
L 150.593246 236.20346 
L 152.049644 229.467032 
L 153.667865 220.999231 
L 155.609729 209.676033 
L 157.713416 196.067714 
L 161.758967 167.434146 
L 165.804519 138.975943 
L 168.070028 124.45656 
L 170.173714 112.299018 
L 172.115579 102.345884 
L 173.895622 94.356628 
L 175.513842 88.01013 
L 177.132063 82.420167 
L 178.912105 77.110125 
L 180.692148 72.598006 
L 182.47219 68.776234 
L 184.252233 65.539198 
L 186.032276 62.809455 
L 187.812318 60.505796 
L 189.754183 58.406994 
L 190.886937 57.352086 
L 190.886937 57.352086 
" style="fill:none;stroke:#0000ff;stroke-dasharray:5.55,2.4;stroke-dashoffset:0;stroke-width:1.5;"/>
   </g>
   <g id="line2d_20"/>
   <g id="line2d_21"/>
   <g id="line2d_22"/>
   <g id="line2d_23"/>
   <g id="line2d_24"/>
   <g id="line2d_25"/>
   <g id="patch_3">
    <path d="M 53.328125 288.430125 
L 53.328125 22.318125 
" style="fill:none;stroke:#000000;stroke-linecap:square;stroke-linejoin:miter;stroke-width:0.8;"/>
   </g>
   <g id="patch_4">
    <path d="M 410.448125 288.430125 
L 410.448125 22.318125 
" style="fill:none;stroke:#000000;stroke-linecap:square;stroke-linejoin:miter;stroke-width:0.8;"/>
   </g>
   <g id="patch_5">
    <path d="M 53.328125 288.430125 
L 410.448125 288.430125 
" style="fill:none;stroke:#000000;stroke-linecap:square;stroke-linejoin:miter;stroke-width:0.8;"/>
   </g>
   <g id="patch_6">
    <path d="M 53.328125 22.318125 
L 410.448125 22.318125 
" style="fill:none;stroke:#000000;stroke-linecap:square;stroke-linejoin:miter;stroke-width:0.8;"/>
   </g>
   <g id="text_17">
    <!-- Experiment_7 -->
    <g transform="translate(190.402813 16.318125)scale(0.12 -0.12)">
     <defs>
      <path d="M 9.8125 72.90625 
L 55.90625 72.90625 
L 55.90625 64.59375 
L 19.671875 64.59375 
L 19.671875 43.015625 
L 54.390625 43.015625 
L 54.390625 34.71875 
L 19.671875 34.71875 
L 19.671875 8.296875 
L 56.78125 8.296875 
L 56.78125 0 
L 9.8125 0 
z
" id="DejaVuSans-69"/>
      <path d="M 54.890625 54.6875 
L 35.109375 28.078125 
L 55.90625 0 
L 45.3125 0 
L 29.390625 21.484375 
L 13.484375 0 
L 2.875 0 
L 24.125 28.609375 
L 4.6875 54.6875 
L 15.28125 54.6875 
L 29.78125 35.203125 
L 44.28125 54.6875 
z
" id="DejaVuSans-120"/>
      <path d="M 41.109375 46.296875 
Q 39.59375 47.171875 37.8125 47.578125 
Q 36.03125 48 33.890625 48 
Q 26.265625 48 22.1875 43.046875 
Q 18.109375 38.09375 18.109375 28.8125 
L 18.109375 0 
L 9.078125 0 
L 9.078125 54.6875 
L 18.109375 54.6875 
L 18.109375 46.1875 
Q 20.953125 51.171875 25.484375 53.578125 
Q 30.03125 56 36.53125 56 
Q 37.453125 56 38.578125 55.875 
Q 39.703125 55.765625 41.0625 55.515625 
z
" id="DejaVuSans-114"/>
      <path d="M 54.890625 33.015625 
L 54.890625 0 
L 45.90625 0 
L 45.90625 32.71875 
Q 45.90625 40.484375 42.875 44.328125 
Q 39.84375 48.1875 33.796875 48.1875 
Q 26.515625 48.1875 22.3125 43.546875 
Q 18.109375 38.921875 18.109375 30.90625 
L 18.109375 0 
L 9.078125 0 
L 9.078125 54.6875 
L 18.109375 54.6875 
L 18.109375 46.1875 
Q 21.34375 51.125 25.703125 53.5625 
Q 30.078125 56 35.796875 56 
Q 45.21875 56 50.046875 50.171875 
Q 54.890625 44.34375 54.890625 33.015625 
z
" id="DejaVuSans-110"/>
      <path d="M 18.3125 70.21875 
L 18.3125 54.6875 
L 36.8125 54.6875 
L 36.8125 47.703125 
L 18.3125 47.703125 
L 18.3125 18.015625 
Q 18.3125 11.328125 20.140625 9.421875 
Q 21.96875 7.515625 27.59375 7.515625 
L 36.8125 7.515625 
L 36.8125 0 
L 27.59375 0 
Q 17.1875 0 13.234375 3.875 
Q 9.28125 7.765625 9.28125 18.015625 
L 9.28125 47.703125 
L 2.6875 47.703125 
L 2.6875 54.6875 
L 9.28125 54.6875 
L 9.28125 70.21875 
z
" id="DejaVuSans-116"/>
      <path d="M 50.984375 -16.609375 
L 50.984375 -23.578125 
L -0.984375 -23.578125 
L -0.984375 -16.609375 
z
" id="DejaVuSans-95"/>
     </defs>
     <use xlink:href="#DejaVuSans-69"/>
     <use x="63.183594" xlink:href="#DejaVuSans-120"/>
     <use x="122.363281" xlink:href="#DejaVuSans-112"/>
     <use x="185.839844" xlink:href="#DejaVuSans-101"/>
     <use x="247.363281" xlink:href="#DejaVuSans-114"/>
     <use x="288.476562" xlink:href="#DejaVuSans-105"/>
     <use x="316.259766" xlink:href="#DejaVuSans-109"/>
     <use x="413.671875" xlink:href="#DejaVuSans-101"/>
     <use x="475.195312" xlink:href="#DejaVuSans-110"/>
     <use x="538.574219" xlink:href="#DejaVuSans-116"/>
     <use x="577.783203" xlink:href="#DejaVuSans-95"/>
     <use x="627.783203" xlink:href="#DejaVuSans-55"/>
    </g>
   </g>
   <g id="legend_1">
    <g id="patch_7">
     <path d="M 139.218438 193.580375 
L 403.448125 193.580375 
Q 405.448125 193.580375 405.448125 191.580375 
L 405.448125 119.167875 
Q 405.448125 117.167875 403.448125 117.167875 
L 139.218438 117.167875 
Q 137.218438 117.167875 137.218438 119.167875 
L 137.218438 191.580375 
Q 137.218438 193.580375 139.218438 193.580375 
z
" style="fill:#ffffff;opacity:0.8;stroke:#cccccc;stroke-linejoin:miter;"/>
    </g>
    <g id="line2d_26">
     <path d="M 141.218438 125.266312 
L 161.218438 125.266312 
" style="fill:none;stroke:#0000ff;stroke-linecap:square;stroke-width:1.5;"/>
    </g>
    <g id="line2d_27"/>
    <g id="text_18">
     <!-- MSI -->
     <g transform="translate(169.218438 128.766312)scale(0.1 -0.1)">
      <defs>
       <path d="M 9.8125 72.90625 
L 24.515625 72.90625 
L 43.109375 23.296875 
L 61.8125 72.90625 
L 76.515625 72.90625 
L 76.515625 0 
L 66.890625 0 
L 66.890625 64.015625 
L 48.09375 14.015625 
L 38.1875 14.015625 
L 19.390625 64.015625 
L 19.390625 0 
L 9.8125 0 
z
" id="DejaVuSans-77"/>
       <path d="M 53.515625 70.515625 
L 53.515625 60.890625 
Q 47.90625 63.578125 42.921875 64.890625 
Q 37.9375 66.21875 33.296875 66.21875 
Q 25.25 66.21875 20.875 63.09375 
Q 16.5 59.96875 16.5 54.203125 
Q 16.5 49.359375 19.40625 46.890625 
Q 22.3125 44.4375 30.421875 42.921875 
L 36.375 41.703125 
Q 47.40625 39.59375 52.65625 34.296875 
Q 57.90625 29 57.90625 20.125 
Q 57.90625 9.515625 50.796875 4.046875 
Q 43.703125 -1.421875 29.984375 -1.421875 
Q 24.8125 -1.421875 18.96875 -0.25 
Q 13.140625 0.921875 6.890625 3.21875 
L 6.890625 13.375 
Q 12.890625 10.015625 18.65625 8.296875 
Q 24.421875 6.59375 29.984375 6.59375 
Q 38.421875 6.59375 43.015625 9.90625 
Q 47.609375 13.234375 47.609375 19.390625 
Q 47.609375 24.75 44.3125 27.78125 
Q 41.015625 30.8125 33.5 32.328125 
L 27.484375 33.5 
Q 16.453125 35.6875 11.515625 40.375 
Q 6.59375 45.0625 6.59375 53.421875 
Q 6.59375 63.09375 13.40625 68.65625 
Q 20.21875 74.21875 32.171875 74.21875 
Q 37.3125 74.21875 42.625 73.28125 
Q 47.953125 72.359375 53.515625 70.515625 
z
" id="DejaVuSans-83"/>
       <path d="M 9.8125 72.90625 
L 19.671875 72.90625 
L 19.671875 0 
L 9.8125 0 
z
" id="DejaVuSans-73"/>
      </defs>
      <use xlink:href="#DejaVuSans-77"/>
      <use x="86.279297" xlink:href="#DejaVuSans-83"/>
      <use x="149.755859" xlink:href="#DejaVuSans-73"/>
     </g>
    </g>
    <g id="line2d_28">
     <path d="M 141.218438 139.946 
L 161.218438 139.946 
" style="fill:none;stroke:#ff0000;stroke-linecap:square;stroke-width:1.5;"/>
    </g>
    <g id="line2d_29"/>
    <g id="text_19">
     <!-- $\it{A priori}$ model -->
     <g transform="translate(169.218438 143.446)scale(0.1 -0.1)">
      <defs>
       <path d="M 36.8125 72.90625 
L 48 72.90625 
L 61.53125 0 
L 51.21875 0 
L 48.1875 18.703125 
L 15.375 18.703125 
L 5.078125 0 
L -5.328125 0 
z
M 40.375 63.1875 
L 19.921875 26.90625 
L 46.6875 26.90625 
z
" id="DejaVuSans-Oblique-65"/>
       <path d="M 49.609375 33.6875 
Q 49.609375 40.875 46.484375 44.671875 
Q 43.359375 48.484375 37.5 48.484375 
Q 33.5 48.484375 29.859375 46.4375 
Q 26.21875 44.390625 23.390625 40.484375 
Q 20.609375 36.625 18.9375 31.15625 
Q 17.28125 25.6875 17.28125 20.3125 
Q 17.28125 13.484375 20.40625 9.796875 
Q 23.53125 6.109375 29.296875 6.109375 
Q 33.546875 6.109375 37.1875 8.109375 
Q 40.828125 10.109375 43.40625 13.921875 
Q 46.1875 17.921875 47.890625 23.34375 
Q 49.609375 28.765625 49.609375 33.6875 
z
M 21.78125 46.390625 
Q 25.390625 51.125 30.296875 53.5625 
Q 35.203125 56 41.21875 56 
Q 49.609375 56 54.25 50.5 
Q 58.890625 45.015625 58.890625 35.109375 
Q 58.890625 27 56 19.65625 
Q 53.125 12.3125 47.703125 6.5 
Q 44.09375 2.640625 39.546875 0.609375 
Q 35.015625 -1.421875 29.984375 -1.421875 
Q 24.171875 -1.421875 20.21875 1 
Q 16.265625 3.421875 14.3125 8.203125 
L 8.6875 -20.796875 
L -0.296875 -20.796875 
L 14.40625 54.6875 
L 23.390625 54.6875 
z
" id="DejaVuSans-Oblique-112"/>
       <path d="M 44.578125 46.390625 
Q 43.21875 47.125 41.453125 47.515625 
Q 39.703125 47.90625 37.703125 47.90625 
Q 30.515625 47.90625 25.140625 42.453125 
Q 19.78125 37.015625 18.015625 27.875 
L 12.5 0 
L 3.515625 0 
L 14.203125 54.6875 
L 23.1875 54.6875 
L 21.484375 46.1875 
Q 25.046875 50.921875 30 53.453125 
Q 34.96875 56 40.578125 56 
Q 42.046875 56 43.453125 55.828125 
Q 44.875 55.671875 46.296875 55.28125 
z
" id="DejaVuSans-Oblique-114"/>
       <path d="M 18.3125 75.984375 
L 27.296875 75.984375 
L 25.09375 64.59375 
L 16.109375 64.59375 
z
M 14.203125 54.6875 
L 23.1875 54.6875 
L 12.5 0 
L 3.515625 0 
z
" id="DejaVuSans-Oblique-105"/>
       <path d="M 25.390625 -1.421875 
Q 15.765625 -1.421875 10.171875 4.515625 
Q 4.59375 10.453125 4.59375 20.703125 
Q 4.59375 26.65625 6.515625 32.828125 
Q 8.453125 39.015625 11.53125 43.21875 
Q 16.359375 49.75 22.3125 52.875 
Q 28.265625 56 35.796875 56 
Q 45.125 56 50.859375 50.1875 
Q 56.59375 44.390625 56.59375 35.015625 
Q 56.59375 28.515625 54.6875 22.0625 
Q 52.78125 15.625 49.703125 11.375 
Q 44.921875 4.828125 38.96875 1.703125 
Q 33.015625 -1.421875 25.390625 -1.421875 
z
M 13.921875 21 
Q 13.921875 13.578125 17.015625 9.890625 
Q 20.125 6.203125 26.421875 6.203125 
Q 35.453125 6.203125 41.375 14.078125 
Q 47.3125 21.96875 47.3125 34.078125 
Q 47.3125 41.15625 44.140625 44.765625 
Q 40.96875 48.390625 34.8125 48.390625 
Q 29.734375 48.390625 25.78125 46.015625 
Q 21.828125 43.65625 18.703125 38.8125 
Q 16.40625 35.203125 15.15625 30.5625 
Q 13.921875 25.921875 13.921875 21 
z
" id="DejaVuSans-Oblique-111"/>
       <path d="M 30.609375 48.390625 
Q 23.390625 48.390625 19.1875 42.75 
Q 14.984375 37.109375 14.984375 27.296875 
Q 14.984375 17.484375 19.15625 11.84375 
Q 23.34375 6.203125 30.609375 6.203125 
Q 37.796875 6.203125 41.984375 11.859375 
Q 46.1875 17.53125 46.1875 27.296875 
Q 46.1875 37.015625 41.984375 42.703125 
Q 37.796875 48.390625 30.609375 48.390625 
z
M 30.609375 56 
Q 42.328125 56 49.015625 48.375 
Q 55.71875 40.765625 55.71875 27.296875 
Q 55.71875 13.875 49.015625 6.21875 
Q 42.328125 -1.421875 30.609375 -1.421875 
Q 18.84375 -1.421875 12.171875 6.21875 
Q 5.515625 13.875 5.515625 27.296875 
Q 5.515625 40.765625 12.171875 48.375 
Q 18.84375 56 30.609375 56 
z
" id="DejaVuSans-111"/>
       <path d="M 45.40625 46.390625 
L 45.40625 75.984375 
L 54.390625 75.984375 
L 54.390625 0 
L 45.40625 0 
L 45.40625 8.203125 
Q 42.578125 3.328125 38.25 0.953125 
Q 33.9375 -1.421875 27.875 -1.421875 
Q 17.96875 -1.421875 11.734375 6.484375 
Q 5.515625 14.40625 5.515625 27.296875 
Q 5.515625 40.1875 11.734375 48.09375 
Q 17.96875 56 27.875 56 
Q 33.9375 56 38.25 53.625 
Q 42.578125 51.265625 45.40625 46.390625 
z
M 14.796875 27.296875 
Q 14.796875 17.390625 18.875 11.75 
Q 22.953125 6.109375 30.078125 6.109375 
Q 37.203125 6.109375 41.296875 11.75 
Q 45.40625 17.390625 45.40625 27.296875 
Q 45.40625 37.203125 41.296875 42.84375 
Q 37.203125 48.484375 30.078125 48.484375 
Q 22.953125 48.484375 18.875 42.84375 
Q 14.796875 37.203125 14.796875 27.296875 
z
" id="DejaVuSans-100"/>
       <path d="M 9.421875 75.984375 
L 18.40625 75.984375 
L 18.40625 0 
L 9.421875 0 
z
" id="DejaVuSans-108"/>
      </defs>
      <use transform="translate(0 0.015625)" xlink:href="#DejaVuSans-Oblique-65"/>
      <use transform="translate(68.408203 0.015625)" xlink:href="#DejaVuSans-Oblique-112"/>
      <use transform="translate(131.884766 0.015625)" xlink:href="#DejaVuSans-Oblique-114"/>
      <use transform="translate(172.998047 0.015625)" xlink:href="#DejaVuSans-Oblique-105"/>
      <use transform="translate(200.78125 0.015625)" xlink:href="#DejaVuSans-Oblique-111"/>
      <use transform="translate(261.962891 0.015625)" xlink:href="#DejaVuSans-Oblique-114"/>
      <use transform="translate(303.076172 0.015625)" xlink:href="#DejaVuSans-Oblique-105"/>
      <use transform="translate(330.859375 0.015625)" xlink:href="#DejaVuSans-32"/>
      <use transform="translate(362.646484 0.015625)" xlink:href="#DejaVuSans-109"/>
      <use transform="translate(460.058594 0.015625)" xlink:href="#DejaVuSans-111"/>
      <use transform="translate(521.240234 0.015625)" xlink:href="#DejaVuSans-100"/>
      <use transform="translate(584.716797 0.015625)" xlink:href="#DejaVuSans-101"/>
      <use transform="translate(646.240234 0.015625)" xlink:href="#DejaVuSans-108"/>
     </g>
    </g>
    <g id="line2d_30"/>
    <g id="line2d_31">
     <g>
      <use style="stroke:#000000;" x="151.218438" xlink:href="#m8565688551" y="154.644437"/>
     </g>
    </g>
    <g id="text_20">
     <!-- Experimental Data -->
     <g transform="translate(169.218438 158.144437)scale(0.1 -0.1)">
      <defs>
       <path d="M 34.28125 27.484375 
Q 23.390625 27.484375 19.1875 25 
Q 14.984375 22.515625 14.984375 16.5 
Q 14.984375 11.71875 18.140625 8.90625 
Q 21.296875 6.109375 26.703125 6.109375 
Q 34.1875 6.109375 38.703125 11.40625 
Q 43.21875 16.703125 43.21875 25.484375 
L 43.21875 27.484375 
z
M 52.203125 31.203125 
L 52.203125 0 
L 43.21875 0 
L 43.21875 8.296875 
Q 40.140625 3.328125 35.546875 0.953125 
Q 30.953125 -1.421875 24.3125 -1.421875 
Q 15.921875 -1.421875 10.953125 3.296875 
Q 6 8.015625 6 15.921875 
Q 6 25.140625 12.171875 29.828125 
Q 18.359375 34.515625 30.609375 34.515625 
L 43.21875 34.515625 
L 43.21875 35.40625 
Q 43.21875 41.609375 39.140625 45 
Q 35.0625 48.390625 27.6875 48.390625 
Q 23 48.390625 18.546875 47.265625 
Q 14.109375 46.140625 10.015625 43.890625 
L 10.015625 52.203125 
Q 14.9375 54.109375 19.578125 55.046875 
Q 24.21875 56 28.609375 56 
Q 40.484375 56 46.34375 49.84375 
Q 52.203125 43.703125 52.203125 31.203125 
z
" id="DejaVuSans-97"/>
       <path d="M 19.671875 64.796875 
L 19.671875 8.109375 
L 31.59375 8.109375 
Q 46.6875 8.109375 53.6875 14.9375 
Q 60.6875 21.78125 60.6875 36.53125 
Q 60.6875 51.171875 53.6875 57.984375 
Q 46.6875 64.796875 31.59375 64.796875 
z
M 9.8125 72.90625 
L 30.078125 72.90625 
Q 51.265625 72.90625 61.171875 64.09375 
Q 71.09375 55.28125 71.09375 36.53125 
Q 71.09375 17.671875 61.125 8.828125 
Q 51.171875 0 30.078125 0 
L 9.8125 0 
z
" id="DejaVuSans-68"/>
      </defs>
      <use xlink:href="#DejaVuSans-69"/>
      <use x="63.183594" xlink:href="#DejaVuSans-120"/>
      <use x="122.363281" xlink:href="#DejaVuSans-112"/>
      <use x="185.839844" xlink:href="#DejaVuSans-101"/>
      <use x="247.363281" xlink:href="#DejaVuSans-114"/>
      <use x="288.476562" xlink:href="#DejaVuSans-105"/>
      <use x="316.259766" xlink:href="#DejaVuSans-109"/>
      <use x="413.671875" xlink:href="#DejaVuSans-101"/>
      <use x="475.195312" xlink:href="#DejaVuSans-110"/>
      <use x="538.574219" xlink:href="#DejaVuSans-116"/>
      <use x="577.783203" xlink:href="#DejaVuSans-97"/>
      <use x="639.0625" xlink:href="#DejaVuSans-108"/>
      <use x="666.845703" xlink:href="#DejaVuSans-32"/>
      <use x="698.632812" xlink:href="#DejaVuSans-68"/>
      <use x="775.634766" xlink:href="#DejaVuSans-97"/>
      <use x="836.914062" xlink:href="#DejaVuSans-116"/>
      <use x="876.123047" xlink:href="#DejaVuSans-97"/>
     </g>
    </g>
    <g id="line2d_32">
     <path d="M 141.218438 169.322562 
L 161.218438 169.322562 
" style="fill:none;stroke:#ffffff;stroke-linecap:square;stroke-width:1.5;"/>
    </g>
    <g id="line2d_33"/>
    <g id="text_21">
     <!-- T:1197 -->
     <g transform="translate(169.218438 172.822562)scale(0.1 -0.1)">
      <defs>
       <path d="M 11.71875 12.40625 
L 22.015625 12.40625 
L 22.015625 0 
L 11.71875 0 
z
M 11.71875 51.703125 
L 22.015625 51.703125 
L 22.015625 39.3125 
L 11.71875 39.3125 
z
" id="DejaVuSans-58"/>
       <path d="M 10.984375 1.515625 
L 10.984375 10.5 
Q 14.703125 8.734375 18.5 7.8125 
Q 22.3125 6.890625 25.984375 6.890625 
Q 35.75 6.890625 40.890625 13.453125 
Q 46.046875 20.015625 46.78125 33.40625 
Q 43.953125 29.203125 39.59375 26.953125 
Q 35.25 24.703125 29.984375 24.703125 
Q 19.046875 24.703125 12.671875 31.3125 
Q 6.296875 37.9375 6.296875 49.421875 
Q 6.296875 60.640625 12.9375 67.421875 
Q 19.578125 74.21875 30.609375 74.21875 
Q 43.265625 74.21875 49.921875 64.515625 
Q 56.59375 54.828125 56.59375 36.375 
Q 56.59375 19.140625 48.40625 8.859375 
Q 40.234375 -1.421875 26.421875 -1.421875 
Q 22.703125 -1.421875 18.890625 -0.6875 
Q 15.09375 0.046875 10.984375 1.515625 
z
M 30.609375 32.421875 
Q 37.25 32.421875 41.125 36.953125 
Q 45.015625 41.5 45.015625 49.421875 
Q 45.015625 57.28125 41.125 61.84375 
Q 37.25 66.40625 30.609375 66.40625 
Q 23.96875 66.40625 20.09375 61.84375 
Q 16.21875 57.28125 16.21875 49.421875 
Q 16.21875 41.5 20.09375 36.953125 
Q 23.96875 32.421875 30.609375 32.421875 
z
" id="DejaVuSans-57"/>
      </defs>
      <use xlink:href="#DejaVuSans-84"/>
      <use x="50.083984" xlink:href="#DejaVuSans-58"/>
      <use x="83.775391" xlink:href="#DejaVuSans-49"/>
      <use x="147.398438" xlink:href="#DejaVuSans-49"/>
      <use x="211.021484" xlink:href="#DejaVuSans-57"/>
      <use x="274.644531" xlink:href="#DejaVuSans-55"/>
     </g>
    </g>
    <g id="line2d_34">
     <path d="M 141.218438 184.000687 
L 161.218438 184.000687 
" style="fill:none;stroke:#ffffff;stroke-linecap:square;stroke-width:1.5;"/>
    </g>
    <g id="line2d_35"/>
    <g id="text_22">
     <!-- P:1.84 -->
     <g transform="translate(169.218438 187.500687)scale(0.1 -0.1)">
      <defs>
       <path d="M 19.671875 64.796875 
L 19.671875 37.40625 
L 32.078125 37.40625 
Q 38.96875 37.40625 42.71875 40.96875 
Q 46.484375 44.53125 46.484375 51.125 
Q 46.484375 57.671875 42.71875 61.234375 
Q 38.96875 64.796875 32.078125 64.796875 
z
M 9.8125 72.90625 
L 32.078125 72.90625 
Q 44.34375 72.90625 50.609375 67.359375 
Q 56.890625 61.8125 56.890625 51.125 
Q 56.890625 40.328125 50.609375 34.8125 
Q 44.34375 29.296875 32.078125 29.296875 
L 19.671875 29.296875 
L 19.671875 0 
L 9.8125 0 
z
" id="DejaVuSans-80"/>
       <path d="M 10.6875 12.40625 
L 21 12.40625 
L 21 0 
L 10.6875 0 
z
" id="DejaVuSans-46"/>
      </defs>
      <use xlink:href="#DejaVuSans-80"/>
      <use x="60.302734" xlink:href="#DejaVuSans-58"/>
      <use x="93.994141" xlink:href="#DejaVuSans-49"/>
      <use x="157.617188" xlink:href="#DejaVuSans-46"/>
      <use x="189.404297" xlink:href="#DejaVuSans-56"/>
      <use x="253.027344" xlink:href="#DejaVuSans-52"/>
     </g>
    </g>
    <g id="line2d_36">
     <path d="M 282.959063 125.266312 
L 302.959063 125.266312 
" style="fill:none;stroke:#ffffff;stroke-linecap:square;stroke-width:1.5;"/>
    </g>
    <g id="line2d_37"/>
    <g id="text_23">
     <!-- O2: 0.001 -->
     <g transform="translate(310.959063 128.766312)scale(0.1 -0.1)">
      <use xlink:href="#DejaVuSans-79"/>
      <use x="78.710938" xlink:href="#DejaVuSans-50"/>
      <use x="142.333984" xlink:href="#DejaVuSans-58"/>
      <use x="176.025391" xlink:href="#DejaVuSans-32"/>
      <use x="207.8125" xlink:href="#DejaVuSans-48"/>
      <use x="271.435547" xlink:href="#DejaVuSans-46"/>
      <use x="303.222656" xlink:href="#DejaVuSans-48"/>
      <use x="366.845703" xlink:href="#DejaVuSans-48"/>
      <use x="430.46875" xlink:href="#DejaVuSans-49"/>
     </g>
    </g>
    <g id="line2d_38">
     <path d="M 282.959063 139.944437 
L 302.959063 139.944437 
" style="fill:none;stroke:#ffffff;stroke-linecap:square;stroke-width:1.5;"/>
    </g>
    <g id="line2d_39"/>
    <g id="text_24">
     <!-- H2: 0.029 -->
     <g transform="translate(310.959063 143.444437)scale(0.1 -0.1)">
      <use xlink:href="#DejaVuSans-72"/>
      <use x="75.195312" xlink:href="#DejaVuSans-50"/>
      <use x="138.818359" xlink:href="#DejaVuSans-58"/>
      <use x="172.509766" xlink:href="#DejaVuSans-32"/>
      <use x="204.296875" xlink:href="#DejaVuSans-48"/>
      <use x="267.919922" xlink:href="#DejaVuSans-46"/>
      <use x="299.707031" xlink:href="#DejaVuSans-48"/>
      <use x="363.330078" xlink:href="#DejaVuSans-50"/>
      <use x="426.953125" xlink:href="#DejaVuSans-57"/>
     </g>
    </g>
    <g id="line2d_40">
     <path d="M 282.959063 154.622562 
L 302.959063 154.622562 
" style="fill:none;stroke:#ffffff;stroke-linecap:square;stroke-width:1.5;"/>
    </g>
    <g id="line2d_41"/>
    <g id="text_25">
     <!-- H: 2.2e-09 -->
     <g transform="translate(310.959063 158.122562)scale(0.1 -0.1)">
      <defs>
       <path d="M 4.890625 31.390625 
L 31.203125 31.390625 
L 31.203125 23.390625 
L 4.890625 23.390625 
z
" id="DejaVuSans-45"/>
      </defs>
      <use xlink:href="#DejaVuSans-72"/>
      <use x="75.195312" xlink:href="#DejaVuSans-58"/>
      <use x="108.886719" xlink:href="#DejaVuSans-32"/>
      <use x="140.673828" xlink:href="#DejaVuSans-50"/>
      <use x="204.296875" xlink:href="#DejaVuSans-46"/>
      <use x="236.083984" xlink:href="#DejaVuSans-50"/>
      <use x="299.707031" xlink:href="#DejaVuSans-101"/>
      <use x="361.230469" xlink:href="#DejaVuSans-45"/>
      <use x="397.314453" xlink:href="#DejaVuSans-48"/>
      <use x="460.9375" xlink:href="#DejaVuSans-57"/>
     </g>
    </g>
    <g id="line2d_42">
     <path d="M 282.959063 169.300687 
L 302.959063 169.300687 
" style="fill:none;stroke:#ffffff;stroke-linecap:square;stroke-width:1.5;"/>
    </g>
    <g id="line2d_43"/>
    <g id="text_26">
     <!-- Ar: 0.9699999985 -->
     <g transform="translate(310.959063 172.800687)scale(0.1 -0.1)">
      <defs>
       <path d="M 34.1875 63.1875 
L 20.796875 26.90625 
L 47.609375 26.90625 
z
M 28.609375 72.90625 
L 39.796875 72.90625 
L 67.578125 0 
L 57.328125 0 
L 50.6875 18.703125 
L 17.828125 18.703125 
L 11.1875 0 
L 0.78125 0 
z
" id="DejaVuSans-65"/>
      </defs>
      <use xlink:href="#DejaVuSans-65"/>
      <use x="68.408203" xlink:href="#DejaVuSans-114"/>
      <use x="107.771484" xlink:href="#DejaVuSans-58"/>
      <use x="141.462891" xlink:href="#DejaVuSans-32"/>
      <use x="173.25" xlink:href="#DejaVuSans-48"/>
      <use x="236.873047" xlink:href="#DejaVuSans-46"/>
      <use x="268.660156" xlink:href="#DejaVuSans-57"/>
      <use x="332.283203" xlink:href="#DejaVuSans-54"/>
      <use x="395.90625" xlink:href="#DejaVuSans-57"/>
      <use x="459.529297" xlink:href="#DejaVuSans-57"/>
      <use x="523.152344" xlink:href="#DejaVuSans-57"/>
      <use x="586.775391" xlink:href="#DejaVuSans-57"/>
      <use x="650.398438" xlink:href="#DejaVuSans-57"/>
      <use x="714.021484" xlink:href="#DejaVuSans-57"/>
      <use x="777.644531" xlink:href="#DejaVuSans-56"/>
      <use x="841.267578" xlink:href="#DejaVuSans-53"/>
     </g>
    </g>
   </g>
  </g>
 </g>
 <defs>
  <clipPath id="pfdb51e9d8e">
   <rect height="266.112" width="357.12" x="53.328125" y="22.318125"/>
  </clipPath>
 </defs>
</svg>
