<?xml version="1.0" encoding="utf-8" standalone="no"?>
<!DOCTYPE svg PUBLIC "-//W3C//DTD SVG 1.1//EN"
  "http://www.w3.org/Graphics/SVG/1.1/DTD/svg11.dtd">
<!-- Created with matplotlib (https://matplotlib.org/) -->
<svg height="325.986375pt" version="1.1" viewBox="0 0 417.648125 325.986375" width="417.648125pt" xmlns="http://www.w3.org/2000/svg" xmlns:xlink="http://www.w3.org/1999/xlink">
 <metadata>
  <rdf:RDF xmlns:cc="http://creativecommons.org/ns#" xmlns:dc="http://purl.org/dc/elements/1.1/" xmlns:rdf="http://www.w3.org/1999/02/22-rdf-syntax-ns#">
   <cc:Work>
    <dc:type rdf:resource="http://purl.org/dc/dcmitype/StillImage"/>
    <dc:date>2023-01-06T05:10:39.743135</dc:date>
    <dc:format>image/svg+xml</dc:format>
    <dc:creator>
     <cc:Agent>
      <dc:title>Matplotlib v3.3.1, https://matplotlib.org/</dc:title>
     </cc:Agent>
    </dc:creator>
   </cc:Work>
  </rdf:RDF>
 </metadata>
 <defs>
  <style type="text/css">*{stroke-linecap:butt;stroke-linejoin:round;}</style>
 </defs>
 <g id="figure_1">
  <g id="patch_1">
   <path d="M 0 325.986375 
L 417.648125 325.986375 
L 417.648125 0 
L 0 0 
z
" style="fill:none;"/>
  </g>
  <g id="axes_1">
   <g id="patch_2">
    <path d="M 53.328125 288.430125 
L 410.448125 288.430125 
L 410.448125 22.318125 
L 53.328125 22.318125 
z
" style="fill:none;"/>
   </g>
   <g id="matplotlib.axis_1">
    <g id="xtick_1">
     <g id="line2d_1">
      <defs>
       <path d="M 0 0 
L 0 3.5 
" id="m3eba355781" style="stroke:#000000;stroke-width:0.8;"/>
      </defs>
      <g>
       <use style="stroke:#000000;stroke-width:0.8;" x="69.560852" xlink:href="#m3eba355781" y="288.430125"/>
      </g>
     </g>
     <g id="text_1">
      <!-- 0.000 -->
      <g transform="translate(55.24679 303.028562)scale(0.1 -0.1)">
       <defs>
        <path d="M 31.78125 66.40625 
Q 24.171875 66.40625 20.328125 58.90625 
Q 16.5 51.421875 16.5 36.375 
Q 16.5 21.390625 20.328125 13.890625 
Q 24.171875 6.390625 31.78125 6.390625 
Q 39.453125 6.390625 43.28125 13.890625 
Q 47.125 21.390625 47.125 36.375 
Q 47.125 51.421875 43.28125 58.90625 
Q 39.453125 66.40625 31.78125 66.40625 
z
M 31.78125 74.21875 
Q 44.046875 74.21875 50.515625 64.515625 
Q 56.984375 54.828125 56.984375 36.375 
Q 56.984375 17.96875 50.515625 8.265625 
Q 44.046875 -1.421875 31.78125 -1.421875 
Q 19.53125 -1.421875 13.0625 8.265625 
Q 6.59375 17.96875 6.59375 36.375 
Q 6.59375 54.828125 13.0625 64.515625 
Q 19.53125 74.21875 31.78125 74.21875 
z
" id="DejaVuSans-48"/>
        <path d="M 10.6875 12.40625 
L 21 12.40625 
L 21 0 
L 10.6875 0 
z
" id="DejaVuSans-46"/>
       </defs>
       <use xlink:href="#DejaVuSans-48"/>
       <use x="63.623047" xlink:href="#DejaVuSans-46"/>
       <use x="95.410156" xlink:href="#DejaVuSans-48"/>
       <use x="159.033203" xlink:href="#DejaVuSans-48"/>
       <use x="222.65625" xlink:href="#DejaVuSans-48"/>
      </g>
     </g>
    </g>
    <g id="xtick_2">
     <g id="line2d_2">
      <g>
       <use style="stroke:#000000;stroke-width:0.8;" x="109.834366" xlink:href="#m3eba355781" y="288.430125"/>
      </g>
     </g>
     <g id="text_2">
      <!-- 0.025 -->
      <g transform="translate(95.520303 303.028562)scale(0.1 -0.1)">
       <defs>
        <path d="M 19.1875 8.296875 
L 53.609375 8.296875 
L 53.609375 0 
L 7.328125 0 
L 7.328125 8.296875 
Q 12.9375 14.109375 22.625 23.890625 
Q 32.328125 33.6875 34.8125 36.53125 
Q 39.546875 41.84375 41.421875 45.53125 
Q 43.3125 49.21875 43.3125 52.78125 
Q 43.3125 58.59375 39.234375 62.25 
Q 35.15625 65.921875 28.609375 65.921875 
Q 23.96875 65.921875 18.8125 64.3125 
Q 13.671875 62.703125 7.8125 59.421875 
L 7.8125 69.390625 
Q 13.765625 71.78125 18.9375 73 
Q 24.125 74.21875 28.421875 74.21875 
Q 39.75 74.21875 46.484375 68.546875 
Q 53.21875 62.890625 53.21875 53.421875 
Q 53.21875 48.921875 51.53125 44.890625 
Q 49.859375 40.875 45.40625 35.40625 
Q 44.1875 33.984375 37.640625 27.21875 
Q 31.109375 20.453125 19.1875 8.296875 
z
" id="DejaVuSans-50"/>
        <path d="M 10.796875 72.90625 
L 49.515625 72.90625 
L 49.515625 64.59375 
L 19.828125 64.59375 
L 19.828125 46.734375 
Q 21.96875 47.46875 24.109375 47.828125 
Q 26.265625 48.1875 28.421875 48.1875 
Q 40.625 48.1875 47.75 41.5 
Q 54.890625 34.8125 54.890625 23.390625 
Q 54.890625 11.625 47.5625 5.09375 
Q 40.234375 -1.421875 26.90625 -1.421875 
Q 22.3125 -1.421875 17.546875 -0.640625 
Q 12.796875 0.140625 7.71875 1.703125 
L 7.71875 11.625 
Q 12.109375 9.234375 16.796875 8.0625 
Q 21.484375 6.890625 26.703125 6.890625 
Q 35.15625 6.890625 40.078125 11.328125 
Q 45.015625 15.765625 45.015625 23.390625 
Q 45.015625 31 40.078125 35.4375 
Q 35.15625 39.890625 26.703125 39.890625 
Q 22.75 39.890625 18.8125 39.015625 
Q 14.890625 38.140625 10.796875 36.28125 
z
" id="DejaVuSans-53"/>
       </defs>
       <use xlink:href="#DejaVuSans-48"/>
       <use x="63.623047" xlink:href="#DejaVuSans-46"/>
       <use x="95.410156" xlink:href="#DejaVuSans-48"/>
       <use x="159.033203" xlink:href="#DejaVuSans-50"/>
       <use x="222.65625" xlink:href="#DejaVuSans-53"/>
      </g>
     </g>
    </g>
    <g id="xtick_3">
     <g id="line2d_3">
      <g>
       <use style="stroke:#000000;stroke-width:0.8;" x="150.10788" xlink:href="#m3eba355781" y="288.430125"/>
      </g>
     </g>
     <g id="text_3">
      <!-- 0.050 -->
      <g transform="translate(135.793817 303.028562)scale(0.1 -0.1)">
       <use xlink:href="#DejaVuSans-48"/>
       <use x="63.623047" xlink:href="#DejaVuSans-46"/>
       <use x="95.410156" xlink:href="#DejaVuSans-48"/>
       <use x="159.033203" xlink:href="#DejaVuSans-53"/>
       <use x="222.65625" xlink:href="#DejaVuSans-48"/>
      </g>
     </g>
    </g>
    <g id="xtick_4">
     <g id="line2d_4">
      <g>
       <use style="stroke:#000000;stroke-width:0.8;" x="190.381393" xlink:href="#m3eba355781" y="288.430125"/>
      </g>
     </g>
     <g id="text_4">
      <!-- 0.075 -->
      <g transform="translate(176.067331 303.028562)scale(0.1 -0.1)">
       <defs>
        <path d="M 8.203125 72.90625 
L 55.078125 72.90625 
L 55.078125 68.703125 
L 28.609375 0 
L 18.3125 0 
L 43.21875 64.59375 
L 8.203125 64.59375 
z
" id="DejaVuSans-55"/>
       </defs>
       <use xlink:href="#DejaVuSans-48"/>
       <use x="63.623047" xlink:href="#DejaVuSans-46"/>
       <use x="95.410156" xlink:href="#DejaVuSans-48"/>
       <use x="159.033203" xlink:href="#DejaVuSans-55"/>
       <use x="222.65625" xlink:href="#DejaVuSans-53"/>
      </g>
     </g>
    </g>
    <g id="xtick_5">
     <g id="line2d_5">
      <g>
       <use style="stroke:#000000;stroke-width:0.8;" x="230.654907" xlink:href="#m3eba355781" y="288.430125"/>
      </g>
     </g>
     <g id="text_5">
      <!-- 0.100 -->
      <g transform="translate(216.340845 303.028562)scale(0.1 -0.1)">
       <defs>
        <path d="M 12.40625 8.296875 
L 28.515625 8.296875 
L 28.515625 63.921875 
L 10.984375 60.40625 
L 10.984375 69.390625 
L 28.421875 72.90625 
L 38.28125 72.90625 
L 38.28125 8.296875 
L 54.390625 8.296875 
L 54.390625 0 
L 12.40625 0 
z
" id="DejaVuSans-49"/>
       </defs>
       <use xlink:href="#DejaVuSans-48"/>
       <use x="63.623047" xlink:href="#DejaVuSans-46"/>
       <use x="95.410156" xlink:href="#DejaVuSans-49"/>
       <use x="159.033203" xlink:href="#DejaVuSans-48"/>
       <use x="222.65625" xlink:href="#DejaVuSans-48"/>
      </g>
     </g>
    </g>
    <g id="xtick_6">
     <g id="line2d_6">
      <g>
       <use style="stroke:#000000;stroke-width:0.8;" x="270.928421" xlink:href="#m3eba355781" y="288.430125"/>
      </g>
     </g>
     <g id="text_6">
      <!-- 0.125 -->
      <g transform="translate(256.614358 303.028562)scale(0.1 -0.1)">
       <use xlink:href="#DejaVuSans-48"/>
       <use x="63.623047" xlink:href="#DejaVuSans-46"/>
       <use x="95.410156" xlink:href="#DejaVuSans-49"/>
       <use x="159.033203" xlink:href="#DejaVuSans-50"/>
       <use x="222.65625" xlink:href="#DejaVuSans-53"/>
      </g>
     </g>
    </g>
    <g id="xtick_7">
     <g id="line2d_7">
      <g>
       <use style="stroke:#000000;stroke-width:0.8;" x="311.201934" xlink:href="#m3eba355781" y="288.430125"/>
      </g>
     </g>
     <g id="text_7">
      <!-- 0.150 -->
      <g transform="translate(296.887872 303.028562)scale(0.1 -0.1)">
       <use xlink:href="#DejaVuSans-48"/>
       <use x="63.623047" xlink:href="#DejaVuSans-46"/>
       <use x="95.410156" xlink:href="#DejaVuSans-49"/>
       <use x="159.033203" xlink:href="#DejaVuSans-53"/>
       <use x="222.65625" xlink:href="#DejaVuSans-48"/>
      </g>
     </g>
    </g>
    <g id="xtick_8">
     <g id="line2d_8">
      <g>
       <use style="stroke:#000000;stroke-width:0.8;" x="351.475448" xlink:href="#m3eba355781" y="288.430125"/>
      </g>
     </g>
     <g id="text_8">
      <!-- 0.175 -->
      <g transform="translate(337.161386 303.028562)scale(0.1 -0.1)">
       <use xlink:href="#DejaVuSans-48"/>
       <use x="63.623047" xlink:href="#DejaVuSans-46"/>
       <use x="95.410156" xlink:href="#DejaVuSans-49"/>
       <use x="159.033203" xlink:href="#DejaVuSans-55"/>
       <use x="222.65625" xlink:href="#DejaVuSans-53"/>
      </g>
     </g>
    </g>
    <g id="xtick_9">
     <g id="line2d_9">
      <g>
       <use style="stroke:#000000;stroke-width:0.8;" x="391.748962" xlink:href="#m3eba355781" y="288.430125"/>
      </g>
     </g>
     <g id="text_9">
      <!-- 0.200 -->
      <g transform="translate(377.434899 303.028562)scale(0.1 -0.1)">
       <use xlink:href="#DejaVuSans-48"/>
       <use x="63.623047" xlink:href="#DejaVuSans-46"/>
       <use x="95.410156" xlink:href="#DejaVuSans-50"/>
       <use x="159.033203" xlink:href="#DejaVuSans-48"/>
       <use x="222.65625" xlink:href="#DejaVuSans-48"/>
      </g>
     </g>
    </g>
    <g id="text_10">
     <!-- Time (ms) -->
     <g transform="translate(206.688906 316.706687)scale(0.1 -0.1)">
      <defs>
       <path d="M -0.296875 72.90625 
L 61.375 72.90625 
L 61.375 64.59375 
L 35.5 64.59375 
L 35.5 0 
L 25.59375 0 
L 25.59375 64.59375 
L -0.296875 64.59375 
z
" id="DejaVuSans-84"/>
       <path d="M 9.421875 54.6875 
L 18.40625 54.6875 
L 18.40625 0 
L 9.421875 0 
z
M 9.421875 75.984375 
L 18.40625 75.984375 
L 18.40625 64.59375 
L 9.421875 64.59375 
z
" id="DejaVuSans-105"/>
       <path d="M 52 44.1875 
Q 55.375 50.25 60.0625 53.125 
Q 64.75 56 71.09375 56 
Q 79.640625 56 84.28125 50.015625 
Q 88.921875 44.046875 88.921875 33.015625 
L 88.921875 0 
L 79.890625 0 
L 79.890625 32.71875 
Q 79.890625 40.578125 77.09375 44.375 
Q 74.3125 48.1875 68.609375 48.1875 
Q 61.625 48.1875 57.5625 43.546875 
Q 53.515625 38.921875 53.515625 30.90625 
L 53.515625 0 
L 44.484375 0 
L 44.484375 32.71875 
Q 44.484375 40.625 41.703125 44.40625 
Q 38.921875 48.1875 33.109375 48.1875 
Q 26.21875 48.1875 22.15625 43.53125 
Q 18.109375 38.875 18.109375 30.90625 
L 18.109375 0 
L 9.078125 0 
L 9.078125 54.6875 
L 18.109375 54.6875 
L 18.109375 46.1875 
Q 21.1875 51.21875 25.484375 53.609375 
Q 29.78125 56 35.6875 56 
Q 41.65625 56 45.828125 52.96875 
Q 50 49.953125 52 44.1875 
z
" id="DejaVuSans-109"/>
       <path d="M 56.203125 29.59375 
L 56.203125 25.203125 
L 14.890625 25.203125 
Q 15.484375 15.921875 20.484375 11.0625 
Q 25.484375 6.203125 34.421875 6.203125 
Q 39.59375 6.203125 44.453125 7.46875 
Q 49.3125 8.734375 54.109375 11.28125 
L 54.109375 2.78125 
Q 49.265625 0.734375 44.1875 -0.34375 
Q 39.109375 -1.421875 33.890625 -1.421875 
Q 20.796875 -1.421875 13.15625 6.1875 
Q 5.515625 13.8125 5.515625 26.8125 
Q 5.515625 40.234375 12.765625 48.109375 
Q 20.015625 56 32.328125 56 
Q 43.359375 56 49.78125 48.890625 
Q 56.203125 41.796875 56.203125 29.59375 
z
M 47.21875 32.234375 
Q 47.125 39.59375 43.09375 43.984375 
Q 39.0625 48.390625 32.421875 48.390625 
Q 24.90625 48.390625 20.390625 44.140625 
Q 15.875 39.890625 15.1875 32.171875 
z
" id="DejaVuSans-101"/>
       <path id="DejaVuSans-32"/>
       <path d="M 31 75.875 
Q 24.46875 64.65625 21.28125 53.65625 
Q 18.109375 42.671875 18.109375 31.390625 
Q 18.109375 20.125 21.3125 9.0625 
Q 24.515625 -2 31 -13.1875 
L 23.1875 -13.1875 
Q 15.875 -1.703125 12.234375 9.375 
Q 8.59375 20.453125 8.59375 31.390625 
Q 8.59375 42.28125 12.203125 53.3125 
Q 15.828125 64.359375 23.1875 75.875 
z
" id="DejaVuSans-40"/>
       <path d="M 44.28125 53.078125 
L 44.28125 44.578125 
Q 40.484375 46.53125 36.375 47.5 
Q 32.28125 48.484375 27.875 48.484375 
Q 21.1875 48.484375 17.84375 46.4375 
Q 14.5 44.390625 14.5 40.28125 
Q 14.5 37.15625 16.890625 35.375 
Q 19.28125 33.59375 26.515625 31.984375 
L 29.59375 31.296875 
Q 39.15625 29.25 43.1875 25.515625 
Q 47.21875 21.78125 47.21875 15.09375 
Q 47.21875 7.46875 41.1875 3.015625 
Q 35.15625 -1.421875 24.609375 -1.421875 
Q 20.21875 -1.421875 15.453125 -0.5625 
Q 10.6875 0.296875 5.421875 2 
L 5.421875 11.28125 
Q 10.40625 8.6875 15.234375 7.390625 
Q 20.0625 6.109375 24.8125 6.109375 
Q 31.15625 6.109375 34.5625 8.28125 
Q 37.984375 10.453125 37.984375 14.40625 
Q 37.984375 18.0625 35.515625 20.015625 
Q 33.0625 21.96875 24.703125 23.78125 
L 21.578125 24.515625 
Q 13.234375 26.265625 9.515625 29.90625 
Q 5.8125 33.546875 5.8125 39.890625 
Q 5.8125 47.609375 11.28125 51.796875 
Q 16.75 56 26.8125 56 
Q 31.78125 56 36.171875 55.265625 
Q 40.578125 54.546875 44.28125 53.078125 
z
" id="DejaVuSans-115"/>
       <path d="M 8.015625 75.875 
L 15.828125 75.875 
Q 23.140625 64.359375 26.78125 53.3125 
Q 30.421875 42.28125 30.421875 31.390625 
Q 30.421875 20.453125 26.78125 9.375 
Q 23.140625 -1.703125 15.828125 -13.1875 
L 8.015625 -13.1875 
Q 14.5 -2 17.703125 9.0625 
Q 20.90625 20.125 20.90625 31.390625 
Q 20.90625 42.671875 17.703125 53.65625 
Q 14.5 64.65625 8.015625 75.875 
z
" id="DejaVuSans-41"/>
      </defs>
      <use xlink:href="#DejaVuSans-84"/>
      <use x="57.958984" xlink:href="#DejaVuSans-105"/>
      <use x="85.742188" xlink:href="#DejaVuSans-109"/>
      <use x="183.154297" xlink:href="#DejaVuSans-101"/>
      <use x="244.677734" xlink:href="#DejaVuSans-32"/>
      <use x="276.464844" xlink:href="#DejaVuSans-40"/>
      <use x="315.478516" xlink:href="#DejaVuSans-109"/>
      <use x="412.890625" xlink:href="#DejaVuSans-115"/>
      <use x="464.990234" xlink:href="#DejaVuSans-41"/>
     </g>
    </g>
   </g>
   <g id="matplotlib.axis_2">
    <g id="ytick_1">
     <g id="line2d_10">
      <defs>
       <path d="M 0 0 
L -3.5 0 
" id="m0d54d0bfd6" style="stroke:#000000;stroke-width:0.8;"/>
      </defs>
      <g>
       <use style="stroke:#000000;stroke-width:0.8;" x="53.328125" xlink:href="#m0d54d0bfd6" y="247.60856"/>
      </g>
     </g>
     <g id="text_11">
      <!-- 1500 -->
      <g transform="translate(20.878125 251.407778)scale(0.1 -0.1)">
       <use xlink:href="#DejaVuSans-49"/>
       <use x="63.623047" xlink:href="#DejaVuSans-53"/>
       <use x="127.246094" xlink:href="#DejaVuSans-48"/>
       <use x="190.869141" xlink:href="#DejaVuSans-48"/>
      </g>
     </g>
    </g>
    <g id="ytick_2">
     <g id="line2d_11">
      <g>
       <use style="stroke:#000000;stroke-width:0.8;" x="53.328125" xlink:href="#m0d54d0bfd6" y="203.022138"/>
      </g>
     </g>
     <g id="text_12">
      <!-- 2000 -->
      <g transform="translate(20.878125 206.821357)scale(0.1 -0.1)">
       <use xlink:href="#DejaVuSans-50"/>
       <use x="63.623047" xlink:href="#DejaVuSans-48"/>
       <use x="127.246094" xlink:href="#DejaVuSans-48"/>
       <use x="190.869141" xlink:href="#DejaVuSans-48"/>
      </g>
     </g>
    </g>
    <g id="ytick_3">
     <g id="line2d_12">
      <g>
       <use style="stroke:#000000;stroke-width:0.8;" x="53.328125" xlink:href="#m0d54d0bfd6" y="158.435716"/>
      </g>
     </g>
     <g id="text_13">
      <!-- 2500 -->
      <g transform="translate(20.878125 162.234935)scale(0.1 -0.1)">
       <use xlink:href="#DejaVuSans-50"/>
       <use x="63.623047" xlink:href="#DejaVuSans-53"/>
       <use x="127.246094" xlink:href="#DejaVuSans-48"/>
       <use x="190.869141" xlink:href="#DejaVuSans-48"/>
      </g>
     </g>
    </g>
    <g id="ytick_4">
     <g id="line2d_13">
      <g>
       <use style="stroke:#000000;stroke-width:0.8;" x="53.328125" xlink:href="#m0d54d0bfd6" y="113.849294"/>
      </g>
     </g>
     <g id="text_14">
      <!-- 3000 -->
      <g transform="translate(20.878125 117.648513)scale(0.1 -0.1)">
       <defs>
        <path d="M 40.578125 39.3125 
Q 47.65625 37.796875 51.625 33 
Q 55.609375 28.21875 55.609375 21.1875 
Q 55.609375 10.40625 48.1875 4.484375 
Q 40.765625 -1.421875 27.09375 -1.421875 
Q 22.515625 -1.421875 17.65625 -0.515625 
Q 12.796875 0.390625 7.625 2.203125 
L 7.625 11.71875 
Q 11.71875 9.328125 16.59375 8.109375 
Q 21.484375 6.890625 26.8125 6.890625 
Q 36.078125 6.890625 40.9375 10.546875 
Q 45.796875 14.203125 45.796875 21.1875 
Q 45.796875 27.640625 41.28125 31.265625 
Q 36.765625 34.90625 28.71875 34.90625 
L 20.21875 34.90625 
L 20.21875 43.015625 
L 29.109375 43.015625 
Q 36.375 43.015625 40.234375 45.921875 
Q 44.09375 48.828125 44.09375 54.296875 
Q 44.09375 59.90625 40.109375 62.90625 
Q 36.140625 65.921875 28.71875 65.921875 
Q 24.65625 65.921875 20.015625 65.03125 
Q 15.375 64.15625 9.8125 62.3125 
L 9.8125 71.09375 
Q 15.4375 72.65625 20.34375 73.4375 
Q 25.25 74.21875 29.59375 74.21875 
Q 40.828125 74.21875 47.359375 69.109375 
Q 53.90625 64.015625 53.90625 55.328125 
Q 53.90625 49.265625 50.4375 45.09375 
Q 46.96875 40.921875 40.578125 39.3125 
z
" id="DejaVuSans-51"/>
       </defs>
       <use xlink:href="#DejaVuSans-51"/>
       <use x="63.623047" xlink:href="#DejaVuSans-48"/>
       <use x="127.246094" xlink:href="#DejaVuSans-48"/>
       <use x="190.869141" xlink:href="#DejaVuSans-48"/>
      </g>
     </g>
    </g>
    <g id="ytick_5">
     <g id="line2d_14">
      <g>
       <use style="stroke:#000000;stroke-width:0.8;" x="53.328125" xlink:href="#m0d54d0bfd6" y="69.262872"/>
      </g>
     </g>
     <g id="text_15">
      <!-- 3500 -->
      <g transform="translate(20.878125 73.062091)scale(0.1 -0.1)">
       <use xlink:href="#DejaVuSans-51"/>
       <use x="63.623047" xlink:href="#DejaVuSans-53"/>
       <use x="127.246094" xlink:href="#DejaVuSans-48"/>
       <use x="190.869141" xlink:href="#DejaVuSans-48"/>
      </g>
     </g>
    </g>
    <g id="ytick_6">
     <g id="line2d_15">
      <g>
       <use style="stroke:#000000;stroke-width:0.8;" x="53.328125" xlink:href="#m0d54d0bfd6" y="24.67645"/>
      </g>
     </g>
     <g id="text_16">
      <!-- 4000 -->
      <g transform="translate(20.878125 28.475669)scale(0.1 -0.1)">
       <defs>
        <path d="M 37.796875 64.3125 
L 12.890625 25.390625 
L 37.796875 25.390625 
z
M 35.203125 72.90625 
L 47.609375 72.90625 
L 47.609375 25.390625 
L 58.015625 25.390625 
L 58.015625 17.1875 
L 47.609375 17.1875 
L 47.609375 0 
L 37.796875 0 
L 37.796875 17.1875 
L 4.890625 17.1875 
L 4.890625 26.703125 
z
" id="DejaVuSans-52"/>
       </defs>
       <use xlink:href="#DejaVuSans-52"/>
       <use x="63.623047" xlink:href="#DejaVuSans-48"/>
       <use x="127.246094" xlink:href="#DejaVuSans-48"/>
       <use x="190.869141" xlink:href="#DejaVuSans-48"/>
      </g>
     </g>
    </g>
    <g id="text_17">
     <!-- H2O ppm -->
     <g transform="translate(14.798438 179.059281)rotate(-90)scale(0.1 -0.1)">
      <defs>
       <path d="M 9.8125 72.90625 
L 19.671875 72.90625 
L 19.671875 43.015625 
L 55.515625 43.015625 
L 55.515625 72.90625 
L 65.375 72.90625 
L 65.375 0 
L 55.515625 0 
L 55.515625 34.71875 
L 19.671875 34.71875 
L 19.671875 0 
L 9.8125 0 
z
" id="DejaVuSans-72"/>
       <path d="M 39.40625 66.21875 
Q 28.65625 66.21875 22.328125 58.203125 
Q 16.015625 50.203125 16.015625 36.375 
Q 16.015625 22.609375 22.328125 14.59375 
Q 28.65625 6.59375 39.40625 6.59375 
Q 50.140625 6.59375 56.421875 14.59375 
Q 62.703125 22.609375 62.703125 36.375 
Q 62.703125 50.203125 56.421875 58.203125 
Q 50.140625 66.21875 39.40625 66.21875 
z
M 39.40625 74.21875 
Q 54.734375 74.21875 63.90625 63.9375 
Q 73.09375 53.65625 73.09375 36.375 
Q 73.09375 19.140625 63.90625 8.859375 
Q 54.734375 -1.421875 39.40625 -1.421875 
Q 24.03125 -1.421875 14.8125 8.828125 
Q 5.609375 19.09375 5.609375 36.375 
Q 5.609375 53.65625 14.8125 63.9375 
Q 24.03125 74.21875 39.40625 74.21875 
z
" id="DejaVuSans-79"/>
       <path d="M 18.109375 8.203125 
L 18.109375 -20.796875 
L 9.078125 -20.796875 
L 9.078125 54.6875 
L 18.109375 54.6875 
L 18.109375 46.390625 
Q 20.953125 51.265625 25.265625 53.625 
Q 29.59375 56 35.59375 56 
Q 45.5625 56 51.78125 48.09375 
Q 58.015625 40.1875 58.015625 27.296875 
Q 58.015625 14.40625 51.78125 6.484375 
Q 45.5625 -1.421875 35.59375 -1.421875 
Q 29.59375 -1.421875 25.265625 0.953125 
Q 20.953125 3.328125 18.109375 8.203125 
z
M 48.6875 27.296875 
Q 48.6875 37.203125 44.609375 42.84375 
Q 40.53125 48.484375 33.40625 48.484375 
Q 26.265625 48.484375 22.1875 42.84375 
Q 18.109375 37.203125 18.109375 27.296875 
Q 18.109375 17.390625 22.1875 11.75 
Q 26.265625 6.109375 33.40625 6.109375 
Q 40.53125 6.109375 44.609375 11.75 
Q 48.6875 17.390625 48.6875 27.296875 
z
" id="DejaVuSans-112"/>
      </defs>
      <use xlink:href="#DejaVuSans-72"/>
      <use x="75.195312" xlink:href="#DejaVuSans-50"/>
      <use x="138.818359" xlink:href="#DejaVuSans-79"/>
      <use x="217.529297" xlink:href="#DejaVuSans-32"/>
      <use x="249.316406" xlink:href="#DejaVuSans-112"/>
      <use x="312.792969" xlink:href="#DejaVuSans-112"/>
      <use x="376.269531" xlink:href="#DejaVuSans-109"/>
     </g>
    </g>
   </g>
   <g id="line2d_16">
    <path clip-path="url(#p5acb0b2d0f)" d="M 69.560852 271.177478 
L 69.853012 271.086183 
L 70.20945 270.735169 
L 70.648454 269.971055 
L 71.20945 268.515609 
L 71.930731 265.954683 
L 72.812296 261.940771 
L 73.934835 255.723006 
L 75.499389 245.627367 
L 78.156045 226.693651 
L 81.978404 199.729707 
L 84.440501 183.938534 
L 86.663625 171.016198 
L 88.88675 159.356247 
L 91.109875 148.882291 
L 93.333 139.492387 
L 95.424453 131.552525 
L 97.515906 124.391789 
L 99.607359 117.930879 
L 101.698812 112.097734 
L 103.790265 106.827513 
L 106.105185 101.580651 
L 108.634026 96.473896 
L 111.162866 91.942314 
L 113.691706 87.916305 
L 116.220546 84.33518 
L 118.771237 81.119976 
L 121.29642 78.28306 
L 123.868293 75.705904 
L 126.991892 72.946635 
L 130.115492 70.540207 
L 133.239091 68.437552 
L 136.36269 66.596815 
L 139.48629 64.98224 
L 143.390789 63.235887 
L 147.295288 61.745129 
L 151.199787 60.468412 
L 155.885186 59.170879 
L 161.351485 57.920291 
L 166.817784 56.8959 
L 173.064982 55.942296 
L 180.093081 55.083215 
L 188.682979 54.262577 
L 198.837952 53.5261 
L 211.728805 52.839614 
L 226.963449 52.261488 
L 246.885677 51.74103 
L 272.667382 51.302294 
L 307.291221 50.947146 
L 354.942775 50.688051 
L 392.168142 50.58277 
L 392.168142 50.58277 
" style="fill:none;stroke:#0000ff;stroke-linecap:square;stroke-width:1.5;"/>
   </g>
   <g id="line2d_17">
    <path clip-path="url(#p5acb0b2d0f)" d="M 69.560852 271.328536 
L 69.966619 271.231972 
L 70.450046 270.870041 
L 71.014637 270.132086 
L 71.743598 268.719299 
L 72.594053 266.480488 
L 73.566001 263.234774 
L 74.780936 258.298959 
L 76.238859 251.341562 
L 78.186648 240.803783 
L 81.484492 221.418349 
L 85.611505 197.391414 
L 88.375402 182.554644 
L 91.033453 169.544238 
L 93.58566 158.254923 
L 96.137866 148.103469 
L 98.690072 139.012424 
L 100.816911 132.18037 
L 102.94375 125.966012 
L 105.495956 119.249117 
L 107.626992 114.200197 
L 110.187594 108.737141 
L 112.748196 103.863574 
L 115.308798 99.513317 
L 117.8694 95.627368 
L 120.430003 92.153302 
L 122.990605 89.044632 
L 125.551207 86.26018 
L 128.457091 83.447049 
L 131.397194 80.930319 
L 134.221142 78.786043 
L 136.739812 77.072291 
L 139.800547 75.211533 
L 142.861283 73.564246 
L 146.942264 71.65263 
L 151.023245 70.016173 
L 155.104226 68.609024 
L 160.205453 67.115537 
L 165.306679 65.861926 
L 171.428151 64.608712 
L 178.569868 63.415464 
L 186.73183 62.318524 
L 195.914037 61.334422 
L 206.11649 60.465833 
L 218.359433 59.646712 
L 233.663112 58.862412 
L 252.027527 58.161064 
L 274.00323 57.550799 
L 301.695401 57.011547 
L 336.325516 56.561102 
L 383.712772 56.178205 
L 394.215398 56.116806 
L 394.215398 56.116806 
" style="fill:none;stroke:#ff0000;stroke-linecap:square;stroke-width:1.5;"/>
   </g>
   <g id="line2d_18">
    <defs>
     <path d="M 0 3 
C 0.795609 3 1.55874 2.683901 2.12132 2.12132 
C 2.683901 1.55874 3 0.795609 3 0 
C 3 -0.795609 2.683901 -1.55874 2.12132 -2.12132 
C 1.55874 -2.683901 0.795609 -3 0 -3 
C -0.795609 -3 -1.55874 -2.683901 -2.12132 -2.12132 
C -2.683901 -1.55874 -3 -0.795609 -3 0 
C -3 0.795609 -2.683901 1.55874 -2.12132 2.12132 
C -1.55874 2.683901 -0.795609 3 0 3 
z
" id="mb15c49592c" style="stroke:#000000;"/>
    </defs>
    <g clip-path="url(#p5acb0b2d0f)">
     <use style="stroke:#000000;" x="69.560852" xlink:href="#mb15c49592c" y="270.240627"/>
     <use style="stroke:#000000;" x="71.171793" xlink:href="#mb15c49592c" y="261.885132"/>
     <use style="stroke:#000000;" x="72.782733" xlink:href="#mb15c49592c" y="275.51966"/>
     <use style="stroke:#000000;" x="74.393674" xlink:href="#mb15c49592c" y="257.310565"/>
     <use style="stroke:#000000;" x="76.004614" xlink:href="#mb15c49592c" y="255.018823"/>
     <use style="stroke:#000000;" x="77.615555" xlink:href="#mb15c49592c" y="236.497623"/>
     <use style="stroke:#000000;" x="79.226496" xlink:href="#mb15c49592c" y="240.376642"/>
     <use style="stroke:#000000;" x="80.837436" xlink:href="#mb15c49592c" y="216.112711"/>
     <use style="stroke:#000000;" x="82.448377" xlink:href="#mb15c49592c" y="188.941746"/>
     <use style="stroke:#000000;" x="84.059317" xlink:href="#mb15c49592c" y="188.13919"/>
     <use style="stroke:#000000;" x="85.670258" xlink:href="#mb15c49592c" y="175.949263"/>
     <use style="stroke:#000000;" x="87.281198" xlink:href="#mb15c49592c" y="166.933888"/>
     <use style="stroke:#000000;" x="88.892139" xlink:href="#mb15c49592c" y="156.197478"/>
     <use style="stroke:#000000;" x="90.503079" xlink:href="#mb15c49592c" y="149.545183"/>
     <use style="stroke:#000000;" x="92.11402" xlink:href="#mb15c49592c" y="134.448221"/>
     <use style="stroke:#000000;" x="93.72496" xlink:href="#mb15c49592c" y="134.448221"/>
     <use style="stroke:#000000;" x="95.335901" xlink:href="#mb15c49592c" y="125.985718"/>
     <use style="stroke:#000000;" x="96.946842" xlink:href="#mb15c49592c" y="120.876114"/>
     <use style="stroke:#000000;" x="98.557782" xlink:href="#mb15c49592c" y="113.171581"/>
     <use style="stroke:#000000;" x="100.168723" xlink:href="#mb15c49592c" y="119.163996"/>
     <use style="stroke:#000000;" x="101.779663" xlink:href="#mb15c49592c" y="110.594485"/>
     <use style="stroke:#000000;" x="103.390604" xlink:href="#mb15c49592c" y="98.502648"/>
     <use style="stroke:#000000;" x="105.001544" xlink:href="#mb15c49592c" y="97.628754"/>
     <use style="stroke:#000000;" x="106.612485" xlink:href="#mb15c49592c" y="91.538249"/>
     <use style="stroke:#000000;" x="108.223425" xlink:href="#mb15c49592c" y="98.502648"/>
     <use style="stroke:#000000;" x="109.834366" xlink:href="#mb15c49592c" y="95.889883"/>
     <use style="stroke:#000000;" x="111.445307" xlink:href="#mb15c49592c" y="86.285968"/>
     <use style="stroke:#000000;" x="113.056247" xlink:href="#mb15c49592c" y="77.493526"/>
     <use style="stroke:#000000;" x="114.667188" xlink:href="#mb15c49592c" y="80.141959"/>
     <use style="stroke:#000000;" x="116.278128" xlink:href="#mb15c49592c" y="90.664355"/>
     <use style="stroke:#000000;" x="117.889069" xlink:href="#mb15c49592c" y="78.376337"/>
     <use style="stroke:#000000;" x="119.500009" xlink:href="#mb15c49592c" y="70.413202"/>
     <use style="stroke:#000000;" x="121.11095" xlink:href="#mb15c49592c" y="78.376337"/>
     <use style="stroke:#000000;" x="122.72189" xlink:href="#mb15c49592c" y="77.493526"/>
     <use style="stroke:#000000;" x="124.332831" xlink:href="#mb15c49592c" y="64.188938"/>
     <use style="stroke:#000000;" x="125.943771" xlink:href="#mb15c49592c" y="56.13663"/>
     <use style="stroke:#000000;" x="127.554712" xlink:href="#mb15c49592c" y="71.296013"/>
     <use style="stroke:#000000;" x="129.165653" xlink:href="#mb15c49592c" y="59.721378"/>
     <use style="stroke:#000000;" x="130.776593" xlink:href="#mb15c49592c" y="60.613106"/>
     <use style="stroke:#000000;" x="132.387534" xlink:href="#mb15c49592c" y="67.746934"/>
     <use style="stroke:#000000;" x="133.998474" xlink:href="#mb15c49592c" y="59.721378"/>
     <use style="stroke:#000000;" x="135.609415" xlink:href="#mb15c49592c" y="55.235984"/>
     <use style="stroke:#000000;" x="137.220355" xlink:href="#mb15c49592c" y="54.335338"/>
     <use style="stroke:#000000;" x="138.831296" xlink:href="#mb15c49592c" y="55.235984"/>
     <use style="stroke:#000000;" x="140.442236" xlink:href="#mb15c49592c" y="64.188938"/>
     <use style="stroke:#000000;" x="142.053177" xlink:href="#mb15c49592c" y="59.721378"/>
     <use style="stroke:#000000;" x="143.664117" xlink:href="#mb15c49592c" y="51.642318"/>
     <use style="stroke:#000000;" x="145.275058" xlink:href="#mb15c49592c" y="63.297209"/>
     <use style="stroke:#000000;" x="146.885999" xlink:href="#mb15c49592c" y="55.235984"/>
     <use style="stroke:#000000;" x="148.496939" xlink:href="#mb15c49592c" y="43.509755"/>
     <use style="stroke:#000000;" x="150.10788" xlink:href="#mb15c49592c" y="56.13663"/>
     <use style="stroke:#000000;" x="151.71882" xlink:href="#mb15c49592c" y="57.929004"/>
     <use style="stroke:#000000;" x="153.329761" xlink:href="#mb15c49592c" y="61.504835"/>
     <use style="stroke:#000000;" x="154.940701" xlink:href="#mb15c49592c" y="58.820732"/>
     <use style="stroke:#000000;" x="156.551642" xlink:href="#mb15c49592c" y="54.335338"/>
     <use style="stroke:#000000;" x="158.162582" xlink:href="#mb15c49592c" y="45.319964"/>
     <use style="stroke:#000000;" x="159.773523" xlink:href="#mb15c49592c" y="50.741673"/>
     <use style="stroke:#000000;" x="161.384464" xlink:href="#mb15c49592c" y="55.235984"/>
     <use style="stroke:#000000;" x="162.995404" xlink:href="#mb15c49592c" y="57.028358"/>
     <use style="stroke:#000000;" x="164.606345" xlink:href="#mb15c49592c" y="46.22061"/>
     <use style="stroke:#000000;" x="166.217285" xlink:href="#mb15c49592c" y="42.600192"/>
     <use style="stroke:#000000;" x="167.828226" xlink:href="#mb15c49592c" y="64.188938"/>
     <use style="stroke:#000000;" x="169.439166" xlink:href="#mb15c49592c" y="47.130173"/>
     <use style="stroke:#000000;" x="171.050107" xlink:href="#mb15c49592c" y="42.600192"/>
     <use style="stroke:#000000;" x="172.661047" xlink:href="#mb15c49592c" y="58.820732"/>
     <use style="stroke:#000000;" x="174.271988" xlink:href="#mb15c49592c" y="51.642318"/>
     <use style="stroke:#000000;" x="175.882928" xlink:href="#mb15c49592c" y="58.820732"/>
     <use style="stroke:#000000;" x="177.493869" xlink:href="#mb15c49592c" y="47.130173"/>
     <use style="stroke:#000000;" x="179.10481" xlink:href="#mb15c49592c" y="52.542964"/>
     <use style="stroke:#000000;" x="180.71575" xlink:href="#mb15c49592c" y="47.130173"/>
     <use style="stroke:#000000;" x="182.326691" xlink:href="#mb15c49592c" y="55.235984"/>
     <use style="stroke:#000000;" x="183.937631" xlink:href="#mb15c49592c" y="50.741673"/>
     <use style="stroke:#000000;" x="185.548572" xlink:href="#mb15c49592c" y="47.130173"/>
     <use style="stroke:#000000;" x="187.159512" xlink:href="#mb15c49592c" y="63.297209"/>
     <use style="stroke:#000000;" x="188.770453" xlink:href="#mb15c49592c" y="53.434693"/>
     <use style="stroke:#000000;" x="190.381393" xlink:href="#mb15c49592c" y="48.030818"/>
     <use style="stroke:#000000;" x="191.992334" xlink:href="#mb15c49592c" y="64.188938"/>
     <use style="stroke:#000000;" x="193.603274" xlink:href="#mb15c49592c" y="53.434693"/>
     <use style="stroke:#000000;" x="195.214215" xlink:href="#mb15c49592c" y="59.721378"/>
     <use style="stroke:#000000;" x="196.825156" xlink:href="#mb15c49592c" y="57.028358"/>
     <use style="stroke:#000000;" x="198.436096" xlink:href="#mb15c49592c" y="46.22061"/>
     <use style="stroke:#000000;" x="200.047037" xlink:href="#mb15c49592c" y="53.434693"/>
     <use style="stroke:#000000;" x="201.657977" xlink:href="#mb15c49592c" y="61.504835"/>
     <use style="stroke:#000000;" x="203.268918" xlink:href="#mb15c49592c" y="45.319964"/>
     <use style="stroke:#000000;" x="204.879858" xlink:href="#mb15c49592c" y="55.235984"/>
     <use style="stroke:#000000;" x="206.490799" xlink:href="#mb15c49592c" y="57.028358"/>
     <use style="stroke:#000000;" x="208.101739" xlink:href="#mb15c49592c" y="57.028358"/>
     <use style="stroke:#000000;" x="209.71268" xlink:href="#mb15c49592c" y="43.509755"/>
     <use style="stroke:#000000;" x="211.323621" xlink:href="#mb15c49592c" y="57.929004"/>
     <use style="stroke:#000000;" x="212.934561" xlink:href="#mb15c49592c" y="57.028358"/>
     <use style="stroke:#000000;" x="214.545502" xlink:href="#mb15c49592c" y="65.963477"/>
     <use style="stroke:#000000;" x="216.156442" xlink:href="#mb15c49592c" y="53.434693"/>
     <use style="stroke:#000000;" x="217.767383" xlink:href="#mb15c49592c" y="50.741673"/>
     <use style="stroke:#000000;" x="219.378323" xlink:href="#mb15c49592c" y="64.188938"/>
     <use style="stroke:#000000;" x="220.989264" xlink:href="#mb15c49592c" y="53.434693"/>
     <use style="stroke:#000000;" x="222.600204" xlink:href="#mb15c49592c" y="45.319964"/>
     <use style="stroke:#000000;" x="224.211145" xlink:href="#mb15c49592c" y="63.297209"/>
     <use style="stroke:#000000;" x="225.822085" xlink:href="#mb15c49592c" y="54.335338"/>
     <use style="stroke:#000000;" x="227.433026" xlink:href="#mb15c49592c" y="51.642318"/>
     <use style="stroke:#000000;" x="229.043967" xlink:href="#mb15c49592c" y="63.297209"/>
     <use style="stroke:#000000;" x="230.654907" xlink:href="#mb15c49592c" y="47.130173"/>
     <use style="stroke:#000000;" x="232.265848" xlink:href="#mb15c49592c" y="51.642318"/>
     <use style="stroke:#000000;" x="233.876788" xlink:href="#mb15c49592c" y="50.741673"/>
     <use style="stroke:#000000;" x="235.487729" xlink:href="#mb15c49592c" y="56.13663"/>
     <use style="stroke:#000000;" x="237.098669" xlink:href="#mb15c49592c" y="51.642318"/>
     <use style="stroke:#000000;" x="238.70961" xlink:href="#mb15c49592c" y="50.741673"/>
     <use style="stroke:#000000;" x="240.32055" xlink:href="#mb15c49592c" y="53.434693"/>
     <use style="stroke:#000000;" x="241.931491" xlink:href="#mb15c49592c" y="46.22061"/>
     <use style="stroke:#000000;" x="243.542431" xlink:href="#mb15c49592c" y="61.504835"/>
     <use style="stroke:#000000;" x="245.153372" xlink:href="#mb15c49592c" y="68.638662"/>
     <use style="stroke:#000000;" x="246.764313" xlink:href="#mb15c49592c" y="58.820732"/>
     <use style="stroke:#000000;" x="248.375253" xlink:href="#mb15c49592c" y="55.235984"/>
     <use style="stroke:#000000;" x="249.986194" xlink:href="#mb15c49592c" y="53.434693"/>
     <use style="stroke:#000000;" x="251.597134" xlink:href="#mb15c49592c" y="65.080666"/>
     <use style="stroke:#000000;" x="253.208075" xlink:href="#mb15c49592c" y="61.504835"/>
     <use style="stroke:#000000;" x="254.819015" xlink:href="#mb15c49592c" y="45.319964"/>
     <use style="stroke:#000000;" x="256.429956" xlink:href="#mb15c49592c" y="61.504835"/>
     <use style="stroke:#000000;" x="258.040896" xlink:href="#mb15c49592c" y="50.741673"/>
     <use style="stroke:#000000;" x="259.651837" xlink:href="#mb15c49592c" y="57.028358"/>
     <use style="stroke:#000000;" x="261.262777" xlink:href="#mb15c49592c" y="57.929004"/>
     <use style="stroke:#000000;" x="262.873718" xlink:href="#mb15c49592c" y="59.721378"/>
     <use style="stroke:#000000;" x="264.484659" xlink:href="#mb15c49592c" y="45.319964"/>
     <use style="stroke:#000000;" x="266.095599" xlink:href="#mb15c49592c" y="43.509755"/>
     <use style="stroke:#000000;" x="267.70654" xlink:href="#mb15c49592c" y="51.642318"/>
     <use style="stroke:#000000;" x="269.31748" xlink:href="#mb15c49592c" y="66.855206"/>
     <use style="stroke:#000000;" x="270.928421" xlink:href="#mb15c49592c" y="53.434693"/>
     <use style="stroke:#000000;" x="272.539361" xlink:href="#mb15c49592c" y="47.130173"/>
     <use style="stroke:#000000;" x="274.150302" xlink:href="#mb15c49592c" y="58.820732"/>
     <use style="stroke:#000000;" x="275.761242" xlink:href="#mb15c49592c" y="58.820732"/>
     <use style="stroke:#000000;" x="277.372183" xlink:href="#mb15c49592c" y="64.188938"/>
     <use style="stroke:#000000;" x="278.983124" xlink:href="#mb15c49592c" y="55.235984"/>
     <use style="stroke:#000000;" x="280.594064" xlink:href="#mb15c49592c" y="46.22061"/>
     <use style="stroke:#000000;" x="282.205005" xlink:href="#mb15c49592c" y="40.789983"/>
     <use style="stroke:#000000;" x="283.815945" xlink:href="#mb15c49592c" y="61.504835"/>
     <use style="stroke:#000000;" x="285.426886" xlink:href="#mb15c49592c" y="55.235984"/>
     <use style="stroke:#000000;" x="287.037826" xlink:href="#mb15c49592c" y="49.841027"/>
     <use style="stroke:#000000;" x="288.648767" xlink:href="#mb15c49592c" y="57.028358"/>
     <use style="stroke:#000000;" x="290.259707" xlink:href="#mb15c49592c" y="58.820732"/>
     <use style="stroke:#000000;" x="291.870648" xlink:href="#mb15c49592c" y="47.130173"/>
     <use style="stroke:#000000;" x="293.481588" xlink:href="#mb15c49592c" y="50.741673"/>
     <use style="stroke:#000000;" x="295.092529" xlink:href="#mb15c49592c" y="54.335338"/>
     <use style="stroke:#000000;" x="296.70347" xlink:href="#mb15c49592c" y="51.642318"/>
     <use style="stroke:#000000;" x="298.31441" xlink:href="#mb15c49592c" y="47.130173"/>
     <use style="stroke:#000000;" x="299.925351" xlink:href="#mb15c49592c" y="47.130173"/>
     <use style="stroke:#000000;" x="301.536291" xlink:href="#mb15c49592c" y="48.931464"/>
     <use style="stroke:#000000;" x="303.147232" xlink:href="#mb15c49592c" y="49.841027"/>
     <use style="stroke:#000000;" x="304.758172" xlink:href="#mb15c49592c" y="50.741673"/>
     <use style="stroke:#000000;" x="306.369113" xlink:href="#mb15c49592c" y="57.028358"/>
     <use style="stroke:#000000;" x="307.980053" xlink:href="#mb15c49592c" y="48.931464"/>
     <use style="stroke:#000000;" x="309.590994" xlink:href="#mb15c49592c" y="55.235984"/>
     <use style="stroke:#000000;" x="311.201934" xlink:href="#mb15c49592c" y="52.542964"/>
     <use style="stroke:#000000;" x="312.812875" xlink:href="#mb15c49592c" y="57.028358"/>
     <use style="stroke:#000000;" x="314.423816" xlink:href="#mb15c49592c" y="37.151731"/>
     <use style="stroke:#000000;" x="316.034756" xlink:href="#mb15c49592c" y="47.130173"/>
     <use style="stroke:#000000;" x="317.645697" xlink:href="#mb15c49592c" y="47.130173"/>
     <use style="stroke:#000000;" x="319.256637" xlink:href="#mb15c49592c" y="57.929004"/>
     <use style="stroke:#000000;" x="320.867578" xlink:href="#mb15c49592c" y="57.929004"/>
     <use style="stroke:#000000;" x="322.478518" xlink:href="#mb15c49592c" y="44.419318"/>
     <use style="stroke:#000000;" x="324.089459" xlink:href="#mb15c49592c" y="52.542964"/>
     <use style="stroke:#000000;" x="325.700399" xlink:href="#mb15c49592c" y="50.741673"/>
     <use style="stroke:#000000;" x="327.31134" xlink:href="#mb15c49592c" y="55.235984"/>
     <use style="stroke:#000000;" x="328.922281" xlink:href="#mb15c49592c" y="34.414125"/>
     <use style="stroke:#000000;" x="330.533221" xlink:href="#mb15c49592c" y="50.741673"/>
     <use style="stroke:#000000;" x="332.144162" xlink:href="#mb15c49592c" y="53.434693"/>
     <use style="stroke:#000000;" x="333.755102" xlink:href="#mb15c49592c" y="49.841027"/>
     <use style="stroke:#000000;" x="335.366043" xlink:href="#mb15c49592c" y="62.396563"/>
     <use style="stroke:#000000;" x="336.976983" xlink:href="#mb15c49592c" y="50.741673"/>
     <use style="stroke:#000000;" x="338.587924" xlink:href="#mb15c49592c" y="47.130173"/>
     <use style="stroke:#000000;" x="340.198864" xlink:href="#mb15c49592c" y="48.931464"/>
     <use style="stroke:#000000;" x="341.809805" xlink:href="#mb15c49592c" y="47.130173"/>
     <use style="stroke:#000000;" x="343.420745" xlink:href="#mb15c49592c" y="41.699546"/>
     <use style="stroke:#000000;" x="345.031686" xlink:href="#mb15c49592c" y="52.542964"/>
     <use style="stroke:#000000;" x="346.642627" xlink:href="#mb15c49592c" y="45.319964"/>
     <use style="stroke:#000000;" x="348.253567" xlink:href="#mb15c49592c" y="56.13663"/>
     <use style="stroke:#000000;" x="349.864508" xlink:href="#mb15c49592c" y="63.297209"/>
     <use style="stroke:#000000;" x="351.475448" xlink:href="#mb15c49592c" y="50.741673"/>
     <use style="stroke:#000000;" x="353.086389" xlink:href="#mb15c49592c" y="55.235984"/>
     <use style="stroke:#000000;" x="354.697329" xlink:href="#mb15c49592c" y="51.642318"/>
     <use style="stroke:#000000;" x="356.30827" xlink:href="#mb15c49592c" y="48.030818"/>
     <use style="stroke:#000000;" x="357.91921" xlink:href="#mb15c49592c" y="39.88042"/>
     <use style="stroke:#000000;" x="359.530151" xlink:href="#mb15c49592c" y="58.820732"/>
     <use style="stroke:#000000;" x="361.141091" xlink:href="#mb15c49592c" y="48.931464"/>
     <use style="stroke:#000000;" x="362.752032" xlink:href="#mb15c49592c" y="46.22061"/>
     <use style="stroke:#000000;" x="364.362973" xlink:href="#mb15c49592c" y="55.235984"/>
     <use style="stroke:#000000;" x="365.973913" xlink:href="#mb15c49592c" y="62.396563"/>
     <use style="stroke:#000000;" x="367.584854" xlink:href="#mb15c49592c" y="49.841027"/>
     <use style="stroke:#000000;" x="369.195794" xlink:href="#mb15c49592c" y="48.030818"/>
     <use style="stroke:#000000;" x="370.806735" xlink:href="#mb15c49592c" y="54.335338"/>
     <use style="stroke:#000000;" x="372.417675" xlink:href="#mb15c49592c" y="41.699546"/>
     <use style="stroke:#000000;" x="374.028616" xlink:href="#mb15c49592c" y="43.509755"/>
     <use style="stroke:#000000;" x="375.639556" xlink:href="#mb15c49592c" y="54.335338"/>
     <use style="stroke:#000000;" x="377.250497" xlink:href="#mb15c49592c" y="51.642318"/>
     <use style="stroke:#000000;" x="378.861438" xlink:href="#mb15c49592c" y="42.600192"/>
     <use style="stroke:#000000;" x="380.472378" xlink:href="#mb15c49592c" y="49.841027"/>
     <use style="stroke:#000000;" x="382.083319" xlink:href="#mb15c49592c" y="51.642318"/>
     <use style="stroke:#000000;" x="383.694259" xlink:href="#mb15c49592c" y="42.600192"/>
     <use style="stroke:#000000;" x="385.3052" xlink:href="#mb15c49592c" y="59.721378"/>
     <use style="stroke:#000000;" x="386.91614" xlink:href="#mb15c49592c" y="57.929004"/>
     <use style="stroke:#000000;" x="388.527081" xlink:href="#mb15c49592c" y="46.22061"/>
     <use style="stroke:#000000;" x="390.138021" xlink:href="#mb15c49592c" y="51.642318"/>
     <use style="stroke:#000000;" x="391.748962" xlink:href="#mb15c49592c" y="50.741673"/>
    </g>
   </g>
   <g id="line2d_19">
    <path clip-path="url(#p5acb0b2d0f)" d="M 69.560852 265.767665 
L 71.171793 263.239338 
L 72.782733 256.484832 
L 74.393674 246.552317 
L 76.004614 234.577939 
L 80.837436 196.075537 
L 84.059317 173.065632 
L 85.670258 162.823294 
L 87.281198 153.403969 
L 88.892139 144.773955 
L 90.503079 136.88757 
L 92.11402 129.669027 
L 93.72496 123.086939 
L 95.335901 117.084977 
L 96.946842 111.568265 
L 98.557782 106.543141 
L 100.168723 101.922478 
L 101.779663 97.688772 
L 103.390604 93.81619 
L 105.001544 90.255816 
L 108.223425 83.968438 
L 109.834366 81.186909 
L 113.056247 76.27359 
L 116.278128 72.059141 
L 119.500009 68.454187 
L 122.72189 65.337414 
L 125.943771 62.63126 
L 129.165653 60.27865 
L 132.387534 58.220561 
L 135.609415 56.418513 
L 138.831296 54.834053 
L 142.053177 53.436967 
L 145.275058 52.196274 
L 150.10788 50.590295 
L 154.940701 49.252536 
L 159.773523 48.117766 
L 166.217285 46.874684 
L 172.661047 45.870448 
L 180.71575 44.872243 
L 188.770453 44.091044 
L 198.436096 43.363348 
L 209.71268 42.721586 
L 224.211145 42.117636 
L 241.931491 41.598392 
L 266.095599 41.126027 
L 298.31441 40.738606 
L 343.420745 40.442406 
L 391.748962 40.285863 
L 391.748962 40.285863 
" style="fill:none;stroke:#0000ff;stroke-dasharray:5.55,2.4;stroke-dashoffset:0;stroke-width:1.5;"/>
   </g>
   <g id="line2d_20">
    <path clip-path="url(#p5acb0b2d0f)" d="M 69.560852 276.334125 
L 71.171793 273.770228 
L 72.782733 267.440444 
L 74.393674 258.953977 
L 77.615555 239.054463 
L 82.448377 208.252772 
L 85.670258 189.571973 
L 88.892139 172.989832 
L 92.11402 158.485608 
L 95.335901 145.837216 
L 98.557782 134.87394 
L 101.779663 125.372074 
L 105.001544 117.121284 
L 106.612485 113.400614 
L 109.834366 106.758509 
L 113.056247 100.973116 
L 116.278128 95.977766 
L 119.500009 91.638508 
L 122.72189 87.88843 
L 125.943771 84.641293 
L 129.165653 81.826014 
L 132.387534 79.388689 
L 135.609415 77.273701 
L 138.831296 75.439188 
L 142.053177 73.843571 
L 146.885999 71.84031 
L 150.10788 70.707949 
L 154.940701 69.265714 
L 159.773523 68.0853 
L 164.606345 67.104553 
L 171.050107 66.048382 
L 177.493869 65.209795 
L 185.548572 64.387226 
L 195.214215 63.639219 
L 206.490799 62.989338 
L 220.989264 62.385988 
L 240.32055 61.832998 
L 264.484659 61.37958 
L 296.70347 61.007263 
L 341.809805 60.723157 
L 391.748962 60.570566 
L 391.748962 60.570566 
" style="fill:none;stroke:#0000ff;stroke-dasharray:5.55,2.4;stroke-dashoffset:0;stroke-width:1.5;"/>
   </g>
   <g id="line2d_21"/>
   <g id="line2d_22"/>
   <g id="line2d_23"/>
   <g id="line2d_24"/>
   <g id="line2d_25"/>
   <g id="line2d_26"/>
   <g id="line2d_27"/>
   <g id="patch_3">
    <path d="M 53.328125 288.430125 
L 53.328125 22.318125 
" style="fill:none;stroke:#000000;stroke-linecap:square;stroke-linejoin:miter;stroke-width:0.8;"/>
   </g>
   <g id="patch_4">
    <path d="M 410.448125 288.430125 
L 410.448125 22.318125 
" style="fill:none;stroke:#000000;stroke-linecap:square;stroke-linejoin:miter;stroke-width:0.8;"/>
   </g>
   <g id="patch_5">
    <path d="M 53.328125 288.430125 
L 410.448125 288.430125 
" style="fill:none;stroke:#000000;stroke-linecap:square;stroke-linejoin:miter;stroke-width:0.8;"/>
   </g>
   <g id="patch_6">
    <path d="M 53.328125 22.318125 
L 410.448125 22.318125 
" style="fill:none;stroke:#000000;stroke-linecap:square;stroke-linejoin:miter;stroke-width:0.8;"/>
   </g>
   <g id="text_18">
    <!-- Experiment_36 -->
    <g transform="translate(186.585313 16.318125)scale(0.12 -0.12)">
     <defs>
      <path d="M 9.8125 72.90625 
L 55.90625 72.90625 
L 55.90625 64.59375 
L 19.671875 64.59375 
L 19.671875 43.015625 
L 54.390625 43.015625 
L 54.390625 34.71875 
L 19.671875 34.71875 
L 19.671875 8.296875 
L 56.78125 8.296875 
L 56.78125 0 
L 9.8125 0 
z
" id="DejaVuSans-69"/>
      <path d="M 54.890625 54.6875 
L 35.109375 28.078125 
L 55.90625 0 
L 45.3125 0 
L 29.390625 21.484375 
L 13.484375 0 
L 2.875 0 
L 24.125 28.609375 
L 4.6875 54.6875 
L 15.28125 54.6875 
L 29.78125 35.203125 
L 44.28125 54.6875 
z
" id="DejaVuSans-120"/>
      <path d="M 41.109375 46.296875 
Q 39.59375 47.171875 37.8125 47.578125 
Q 36.03125 48 33.890625 48 
Q 26.265625 48 22.1875 43.046875 
Q 18.109375 38.09375 18.109375 28.8125 
L 18.109375 0 
L 9.078125 0 
L 9.078125 54.6875 
L 18.109375 54.6875 
L 18.109375 46.1875 
Q 20.953125 51.171875 25.484375 53.578125 
Q 30.03125 56 36.53125 56 
Q 37.453125 56 38.578125 55.875 
Q 39.703125 55.765625 41.0625 55.515625 
z
" id="DejaVuSans-114"/>
      <path d="M 54.890625 33.015625 
L 54.890625 0 
L 45.90625 0 
L 45.90625 32.71875 
Q 45.90625 40.484375 42.875 44.328125 
Q 39.84375 48.1875 33.796875 48.1875 
Q 26.515625 48.1875 22.3125 43.546875 
Q 18.109375 38.921875 18.109375 30.90625 
L 18.109375 0 
L 9.078125 0 
L 9.078125 54.6875 
L 18.109375 54.6875 
L 18.109375 46.1875 
Q 21.34375 51.125 25.703125 53.5625 
Q 30.078125 56 35.796875 56 
Q 45.21875 56 50.046875 50.171875 
Q 54.890625 44.34375 54.890625 33.015625 
z
" id="DejaVuSans-110"/>
      <path d="M 18.3125 70.21875 
L 18.3125 54.6875 
L 36.8125 54.6875 
L 36.8125 47.703125 
L 18.3125 47.703125 
L 18.3125 18.015625 
Q 18.3125 11.328125 20.140625 9.421875 
Q 21.96875 7.515625 27.59375 7.515625 
L 36.8125 7.515625 
L 36.8125 0 
L 27.59375 0 
Q 17.1875 0 13.234375 3.875 
Q 9.28125 7.765625 9.28125 18.015625 
L 9.28125 47.703125 
L 2.6875 47.703125 
L 2.6875 54.6875 
L 9.28125 54.6875 
L 9.28125 70.21875 
z
" id="DejaVuSans-116"/>
      <path d="M 50.984375 -16.609375 
L 50.984375 -23.578125 
L -0.984375 -23.578125 
L -0.984375 -16.609375 
z
" id="DejaVuSans-95"/>
      <path d="M 33.015625 40.375 
Q 26.375 40.375 22.484375 35.828125 
Q 18.609375 31.296875 18.609375 23.390625 
Q 18.609375 15.53125 22.484375 10.953125 
Q 26.375 6.390625 33.015625 6.390625 
Q 39.65625 6.390625 43.53125 10.953125 
Q 47.40625 15.53125 47.40625 23.390625 
Q 47.40625 31.296875 43.53125 35.828125 
Q 39.65625 40.375 33.015625 40.375 
z
M 52.59375 71.296875 
L 52.59375 62.3125 
Q 48.875 64.0625 45.09375 64.984375 
Q 41.3125 65.921875 37.59375 65.921875 
Q 27.828125 65.921875 22.671875 59.328125 
Q 17.53125 52.734375 16.796875 39.40625 
Q 19.671875 43.65625 24.015625 45.921875 
Q 28.375 48.1875 33.59375 48.1875 
Q 44.578125 48.1875 50.953125 41.515625 
Q 57.328125 34.859375 57.328125 23.390625 
Q 57.328125 12.15625 50.6875 5.359375 
Q 44.046875 -1.421875 33.015625 -1.421875 
Q 20.359375 -1.421875 13.671875 8.265625 
Q 6.984375 17.96875 6.984375 36.375 
Q 6.984375 53.65625 15.1875 63.9375 
Q 23.390625 74.21875 37.203125 74.21875 
Q 40.921875 74.21875 44.703125 73.484375 
Q 48.484375 72.75 52.59375 71.296875 
z
" id="DejaVuSans-54"/>
     </defs>
     <use xlink:href="#DejaVuSans-69"/>
     <use x="63.183594" xlink:href="#DejaVuSans-120"/>
     <use x="122.363281" xlink:href="#DejaVuSans-112"/>
     <use x="185.839844" xlink:href="#DejaVuSans-101"/>
     <use x="247.363281" xlink:href="#DejaVuSans-114"/>
     <use x="288.476562" xlink:href="#DejaVuSans-105"/>
     <use x="316.259766" xlink:href="#DejaVuSans-109"/>
     <use x="413.671875" xlink:href="#DejaVuSans-101"/>
     <use x="475.195312" xlink:href="#DejaVuSans-110"/>
     <use x="538.574219" xlink:href="#DejaVuSans-116"/>
     <use x="577.783203" xlink:href="#DejaVuSans-95"/>
     <use x="627.783203" xlink:href="#DejaVuSans-51"/>
     <use x="691.40625" xlink:href="#DejaVuSans-54"/>
    </g>
   </g>
   <g id="legend_1">
    <g id="patch_7">
     <path d="M 139.218438 283.430125 
L 403.448125 283.430125 
Q 405.448125 283.430125 405.448125 281.430125 
L 405.448125 209.017625 
Q 405.448125 207.017625 403.448125 207.017625 
L 139.218438 207.017625 
Q 137.218438 207.017625 137.218438 209.017625 
L 137.218438 281.430125 
Q 137.218438 283.430125 139.218438 283.430125 
z
" style="fill:#ffffff;opacity:0.8;stroke:#cccccc;stroke-linejoin:miter;"/>
    </g>
    <g id="line2d_28">
     <path d="M 141.218438 215.116062 
L 161.218438 215.116062 
" style="fill:none;stroke:#0000ff;stroke-linecap:square;stroke-width:1.5;"/>
    </g>
    <g id="line2d_29"/>
    <g id="text_19">
     <!-- MSI -->
     <g transform="translate(169.218438 218.616062)scale(0.1 -0.1)">
      <defs>
       <path d="M 9.8125 72.90625 
L 24.515625 72.90625 
L 43.109375 23.296875 
L 61.8125 72.90625 
L 76.515625 72.90625 
L 76.515625 0 
L 66.890625 0 
L 66.890625 64.015625 
L 48.09375 14.015625 
L 38.1875 14.015625 
L 19.390625 64.015625 
L 19.390625 0 
L 9.8125 0 
z
" id="DejaVuSans-77"/>
       <path d="M 53.515625 70.515625 
L 53.515625 60.890625 
Q 47.90625 63.578125 42.921875 64.890625 
Q 37.9375 66.21875 33.296875 66.21875 
Q 25.25 66.21875 20.875 63.09375 
Q 16.5 59.96875 16.5 54.203125 
Q 16.5 49.359375 19.40625 46.890625 
Q 22.3125 44.4375 30.421875 42.921875 
L 36.375 41.703125 
Q 47.40625 39.59375 52.65625 34.296875 
Q 57.90625 29 57.90625 20.125 
Q 57.90625 9.515625 50.796875 4.046875 
Q 43.703125 -1.421875 29.984375 -1.421875 
Q 24.8125 -1.421875 18.96875 -0.25 
Q 13.140625 0.921875 6.890625 3.21875 
L 6.890625 13.375 
Q 12.890625 10.015625 18.65625 8.296875 
Q 24.421875 6.59375 29.984375 6.59375 
Q 38.421875 6.59375 43.015625 9.90625 
Q 47.609375 13.234375 47.609375 19.390625 
Q 47.609375 24.75 44.3125 27.78125 
Q 41.015625 30.8125 33.5 32.328125 
L 27.484375 33.5 
Q 16.453125 35.6875 11.515625 40.375 
Q 6.59375 45.0625 6.59375 53.421875 
Q 6.59375 63.09375 13.40625 68.65625 
Q 20.21875 74.21875 32.171875 74.21875 
Q 37.3125 74.21875 42.625 73.28125 
Q 47.953125 72.359375 53.515625 70.515625 
z
" id="DejaVuSans-83"/>
       <path d="M 9.8125 72.90625 
L 19.671875 72.90625 
L 19.671875 0 
L 9.8125 0 
z
" id="DejaVuSans-73"/>
      </defs>
      <use xlink:href="#DejaVuSans-77"/>
      <use x="86.279297" xlink:href="#DejaVuSans-83"/>
      <use x="149.755859" xlink:href="#DejaVuSans-73"/>
     </g>
    </g>
    <g id="line2d_30">
     <path d="M 141.218438 229.79575 
L 161.218438 229.79575 
" style="fill:none;stroke:#ff0000;stroke-linecap:square;stroke-width:1.5;"/>
    </g>
    <g id="line2d_31"/>
    <g id="text_20">
     <!-- $\it{A priori}$ model -->
     <g transform="translate(169.218438 233.29575)scale(0.1 -0.1)">
      <defs>
       <path d="M 36.8125 72.90625 
L 48 72.90625 
L 61.53125 0 
L 51.21875 0 
L 48.1875 18.703125 
L 15.375 18.703125 
L 5.078125 0 
L -5.328125 0 
z
M 40.375 63.1875 
L 19.921875 26.90625 
L 46.6875 26.90625 
z
" id="DejaVuSans-Oblique-65"/>
       <path d="M 49.609375 33.6875 
Q 49.609375 40.875 46.484375 44.671875 
Q 43.359375 48.484375 37.5 48.484375 
Q 33.5 48.484375 29.859375 46.4375 
Q 26.21875 44.390625 23.390625 40.484375 
Q 20.609375 36.625 18.9375 31.15625 
Q 17.28125 25.6875 17.28125 20.3125 
Q 17.28125 13.484375 20.40625 9.796875 
Q 23.53125 6.109375 29.296875 6.109375 
Q 33.546875 6.109375 37.1875 8.109375 
Q 40.828125 10.109375 43.40625 13.921875 
Q 46.1875 17.921875 47.890625 23.34375 
Q 49.609375 28.765625 49.609375 33.6875 
z
M 21.78125 46.390625 
Q 25.390625 51.125 30.296875 53.5625 
Q 35.203125 56 41.21875 56 
Q 49.609375 56 54.25 50.5 
Q 58.890625 45.015625 58.890625 35.109375 
Q 58.890625 27 56 19.65625 
Q 53.125 12.3125 47.703125 6.5 
Q 44.09375 2.640625 39.546875 0.609375 
Q 35.015625 -1.421875 29.984375 -1.421875 
Q 24.171875 -1.421875 20.21875 1 
Q 16.265625 3.421875 14.3125 8.203125 
L 8.6875 -20.796875 
L -0.296875 -20.796875 
L 14.40625 54.6875 
L 23.390625 54.6875 
z
" id="DejaVuSans-Oblique-112"/>
       <path d="M 44.578125 46.390625 
Q 43.21875 47.125 41.453125 47.515625 
Q 39.703125 47.90625 37.703125 47.90625 
Q 30.515625 47.90625 25.140625 42.453125 
Q 19.78125 37.015625 18.015625 27.875 
L 12.5 0 
L 3.515625 0 
L 14.203125 54.6875 
L 23.1875 54.6875 
L 21.484375 46.1875 
Q 25.046875 50.921875 30 53.453125 
Q 34.96875 56 40.578125 56 
Q 42.046875 56 43.453125 55.828125 
Q 44.875 55.671875 46.296875 55.28125 
z
" id="DejaVuSans-Oblique-114"/>
       <path d="M 18.3125 75.984375 
L 27.296875 75.984375 
L 25.09375 64.59375 
L 16.109375 64.59375 
z
M 14.203125 54.6875 
L 23.1875 54.6875 
L 12.5 0 
L 3.515625 0 
z
" id="DejaVuSans-Oblique-105"/>
       <path d="M 25.390625 -1.421875 
Q 15.765625 -1.421875 10.171875 4.515625 
Q 4.59375 10.453125 4.59375 20.703125 
Q 4.59375 26.65625 6.515625 32.828125 
Q 8.453125 39.015625 11.53125 43.21875 
Q 16.359375 49.75 22.3125 52.875 
Q 28.265625 56 35.796875 56 
Q 45.125 56 50.859375 50.1875 
Q 56.59375 44.390625 56.59375 35.015625 
Q 56.59375 28.515625 54.6875 22.0625 
Q 52.78125 15.625 49.703125 11.375 
Q 44.921875 4.828125 38.96875 1.703125 
Q 33.015625 -1.421875 25.390625 -1.421875 
z
M 13.921875 21 
Q 13.921875 13.578125 17.015625 9.890625 
Q 20.125 6.203125 26.421875 6.203125 
Q 35.453125 6.203125 41.375 14.078125 
Q 47.3125 21.96875 47.3125 34.078125 
Q 47.3125 41.15625 44.140625 44.765625 
Q 40.96875 48.390625 34.8125 48.390625 
Q 29.734375 48.390625 25.78125 46.015625 
Q 21.828125 43.65625 18.703125 38.8125 
Q 16.40625 35.203125 15.15625 30.5625 
Q 13.921875 25.921875 13.921875 21 
z
" id="DejaVuSans-Oblique-111"/>
       <path d="M 30.609375 48.390625 
Q 23.390625 48.390625 19.1875 42.75 
Q 14.984375 37.109375 14.984375 27.296875 
Q 14.984375 17.484375 19.15625 11.84375 
Q 23.34375 6.203125 30.609375 6.203125 
Q 37.796875 6.203125 41.984375 11.859375 
Q 46.1875 17.53125 46.1875 27.296875 
Q 46.1875 37.015625 41.984375 42.703125 
Q 37.796875 48.390625 30.609375 48.390625 
z
M 30.609375 56 
Q 42.328125 56 49.015625 48.375 
Q 55.71875 40.765625 55.71875 27.296875 
Q 55.71875 13.875 49.015625 6.21875 
Q 42.328125 -1.421875 30.609375 -1.421875 
Q 18.84375 -1.421875 12.171875 6.21875 
Q 5.515625 13.875 5.515625 27.296875 
Q 5.515625 40.765625 12.171875 48.375 
Q 18.84375 56 30.609375 56 
z
" id="DejaVuSans-111"/>
       <path d="M 45.40625 46.390625 
L 45.40625 75.984375 
L 54.390625 75.984375 
L 54.390625 0 
L 45.40625 0 
L 45.40625 8.203125 
Q 42.578125 3.328125 38.25 0.953125 
Q 33.9375 -1.421875 27.875 -1.421875 
Q 17.96875 -1.421875 11.734375 6.484375 
Q 5.515625 14.40625 5.515625 27.296875 
Q 5.515625 40.1875 11.734375 48.09375 
Q 17.96875 56 27.875 56 
Q 33.9375 56 38.25 53.625 
Q 42.578125 51.265625 45.40625 46.390625 
z
M 14.796875 27.296875 
Q 14.796875 17.390625 18.875 11.75 
Q 22.953125 6.109375 30.078125 6.109375 
Q 37.203125 6.109375 41.296875 11.75 
Q 45.40625 17.390625 45.40625 27.296875 
Q 45.40625 37.203125 41.296875 42.84375 
Q 37.203125 48.484375 30.078125 48.484375 
Q 22.953125 48.484375 18.875 42.84375 
Q 14.796875 37.203125 14.796875 27.296875 
z
" id="DejaVuSans-100"/>
       <path d="M 9.421875 75.984375 
L 18.40625 75.984375 
L 18.40625 0 
L 9.421875 0 
z
" id="DejaVuSans-108"/>
      </defs>
      <use transform="translate(0 0.015625)" xlink:href="#DejaVuSans-Oblique-65"/>
      <use transform="translate(68.408203 0.015625)" xlink:href="#DejaVuSans-Oblique-112"/>
      <use transform="translate(131.884766 0.015625)" xlink:href="#DejaVuSans-Oblique-114"/>
      <use transform="translate(172.998047 0.015625)" xlink:href="#DejaVuSans-Oblique-105"/>
      <use transform="translate(200.78125 0.015625)" xlink:href="#DejaVuSans-Oblique-111"/>
      <use transform="translate(261.962891 0.015625)" xlink:href="#DejaVuSans-Oblique-114"/>
      <use transform="translate(303.076172 0.015625)" xlink:href="#DejaVuSans-Oblique-105"/>
      <use transform="translate(330.859375 0.015625)" xlink:href="#DejaVuSans-32"/>
      <use transform="translate(362.646484 0.015625)" xlink:href="#DejaVuSans-109"/>
      <use transform="translate(460.058594 0.015625)" xlink:href="#DejaVuSans-111"/>
      <use transform="translate(521.240234 0.015625)" xlink:href="#DejaVuSans-100"/>
      <use transform="translate(584.716797 0.015625)" xlink:href="#DejaVuSans-101"/>
      <use transform="translate(646.240234 0.015625)" xlink:href="#DejaVuSans-108"/>
     </g>
    </g>
    <g id="line2d_32"/>
    <g id="line2d_33">
     <g>
      <use style="stroke:#000000;" x="151.218438" xlink:href="#mb15c49592c" y="244.494187"/>
     </g>
    </g>
    <g id="text_21">
     <!-- Experimental Data -->
     <g transform="translate(169.218438 247.994187)scale(0.1 -0.1)">
      <defs>
       <path d="M 34.28125 27.484375 
Q 23.390625 27.484375 19.1875 25 
Q 14.984375 22.515625 14.984375 16.5 
Q 14.984375 11.71875 18.140625 8.90625 
Q 21.296875 6.109375 26.703125 6.109375 
Q 34.1875 6.109375 38.703125 11.40625 
Q 43.21875 16.703125 43.21875 25.484375 
L 43.21875 27.484375 
z
M 52.203125 31.203125 
L 52.203125 0 
L 43.21875 0 
L 43.21875 8.296875 
Q 40.140625 3.328125 35.546875 0.953125 
Q 30.953125 -1.421875 24.3125 -1.421875 
Q 15.921875 -1.421875 10.953125 3.296875 
Q 6 8.015625 6 15.921875 
Q 6 25.140625 12.171875 29.828125 
Q 18.359375 34.515625 30.609375 34.515625 
L 43.21875 34.515625 
L 43.21875 35.40625 
Q 43.21875 41.609375 39.140625 45 
Q 35.0625 48.390625 27.6875 48.390625 
Q 23 48.390625 18.546875 47.265625 
Q 14.109375 46.140625 10.015625 43.890625 
L 10.015625 52.203125 
Q 14.9375 54.109375 19.578125 55.046875 
Q 24.21875 56 28.609375 56 
Q 40.484375 56 46.34375 49.84375 
Q 52.203125 43.703125 52.203125 31.203125 
z
" id="DejaVuSans-97"/>
       <path d="M 19.671875 64.796875 
L 19.671875 8.109375 
L 31.59375 8.109375 
Q 46.6875 8.109375 53.6875 14.9375 
Q 60.6875 21.78125 60.6875 36.53125 
Q 60.6875 51.171875 53.6875 57.984375 
Q 46.6875 64.796875 31.59375 64.796875 
z
M 9.8125 72.90625 
L 30.078125 72.90625 
Q 51.265625 72.90625 61.171875 64.09375 
Q 71.09375 55.28125 71.09375 36.53125 
Q 71.09375 17.671875 61.125 8.828125 
Q 51.171875 0 30.078125 0 
L 9.8125 0 
z
" id="DejaVuSans-68"/>
      </defs>
      <use xlink:href="#DejaVuSans-69"/>
      <use x="63.183594" xlink:href="#DejaVuSans-120"/>
      <use x="122.363281" xlink:href="#DejaVuSans-112"/>
      <use x="185.839844" xlink:href="#DejaVuSans-101"/>
      <use x="247.363281" xlink:href="#DejaVuSans-114"/>
      <use x="288.476562" xlink:href="#DejaVuSans-105"/>
      <use x="316.259766" xlink:href="#DejaVuSans-109"/>
      <use x="413.671875" xlink:href="#DejaVuSans-101"/>
      <use x="475.195312" xlink:href="#DejaVuSans-110"/>
      <use x="538.574219" xlink:href="#DejaVuSans-116"/>
      <use x="577.783203" xlink:href="#DejaVuSans-97"/>
      <use x="639.0625" xlink:href="#DejaVuSans-108"/>
      <use x="666.845703" xlink:href="#DejaVuSans-32"/>
      <use x="698.632812" xlink:href="#DejaVuSans-68"/>
      <use x="775.634766" xlink:href="#DejaVuSans-97"/>
      <use x="836.914062" xlink:href="#DejaVuSans-116"/>
      <use x="876.123047" xlink:href="#DejaVuSans-97"/>
     </g>
    </g>
    <g id="line2d_34">
     <path d="M 141.218438 259.172312 
L 161.218438 259.172312 
" style="fill:none;stroke:#ffffff;stroke-linecap:square;stroke-width:1.5;"/>
    </g>
    <g id="line2d_35"/>
    <g id="text_22">
     <!-- T:1398 -->
     <g transform="translate(169.218438 262.672312)scale(0.1 -0.1)">
      <defs>
       <path d="M 11.71875 12.40625 
L 22.015625 12.40625 
L 22.015625 0 
L 11.71875 0 
z
M 11.71875 51.703125 
L 22.015625 51.703125 
L 22.015625 39.3125 
L 11.71875 39.3125 
z
" id="DejaVuSans-58"/>
       <path d="M 10.984375 1.515625 
L 10.984375 10.5 
Q 14.703125 8.734375 18.5 7.8125 
Q 22.3125 6.890625 25.984375 6.890625 
Q 35.75 6.890625 40.890625 13.453125 
Q 46.046875 20.015625 46.78125 33.40625 
Q 43.953125 29.203125 39.59375 26.953125 
Q 35.25 24.703125 29.984375 24.703125 
Q 19.046875 24.703125 12.671875 31.3125 
Q 6.296875 37.9375 6.296875 49.421875 
Q 6.296875 60.640625 12.9375 67.421875 
Q 19.578125 74.21875 30.609375 74.21875 
Q 43.265625 74.21875 49.921875 64.515625 
Q 56.59375 54.828125 56.59375 36.375 
Q 56.59375 19.140625 48.40625 8.859375 
Q 40.234375 -1.421875 26.421875 -1.421875 
Q 22.703125 -1.421875 18.890625 -0.6875 
Q 15.09375 0.046875 10.984375 1.515625 
z
M 30.609375 32.421875 
Q 37.25 32.421875 41.125 36.953125 
Q 45.015625 41.5 45.015625 49.421875 
Q 45.015625 57.28125 41.125 61.84375 
Q 37.25 66.40625 30.609375 66.40625 
Q 23.96875 66.40625 20.09375 61.84375 
Q 16.21875 57.28125 16.21875 49.421875 
Q 16.21875 41.5 20.09375 36.953125 
Q 23.96875 32.421875 30.609375 32.421875 
z
" id="DejaVuSans-57"/>
       <path d="M 31.78125 34.625 
Q 24.75 34.625 20.71875 30.859375 
Q 16.703125 27.09375 16.703125 20.515625 
Q 16.703125 13.921875 20.71875 10.15625 
Q 24.75 6.390625 31.78125 6.390625 
Q 38.8125 6.390625 42.859375 10.171875 
Q 46.921875 13.96875 46.921875 20.515625 
Q 46.921875 27.09375 42.890625 30.859375 
Q 38.875 34.625 31.78125 34.625 
z
M 21.921875 38.8125 
Q 15.578125 40.375 12.03125 44.71875 
Q 8.5 49.078125 8.5 55.328125 
Q 8.5 64.0625 14.71875 69.140625 
Q 20.953125 74.21875 31.78125 74.21875 
Q 42.671875 74.21875 48.875 69.140625 
Q 55.078125 64.0625 55.078125 55.328125 
Q 55.078125 49.078125 51.53125 44.71875 
Q 48 40.375 41.703125 38.8125 
Q 48.828125 37.15625 52.796875 32.3125 
Q 56.78125 27.484375 56.78125 20.515625 
Q 56.78125 9.90625 50.3125 4.234375 
Q 43.84375 -1.421875 31.78125 -1.421875 
Q 19.734375 -1.421875 13.25 4.234375 
Q 6.78125 9.90625 6.78125 20.515625 
Q 6.78125 27.484375 10.78125 32.3125 
Q 14.796875 37.15625 21.921875 38.8125 
z
M 18.3125 54.390625 
Q 18.3125 48.734375 21.84375 45.5625 
Q 25.390625 42.390625 31.78125 42.390625 
Q 38.140625 42.390625 41.71875 45.5625 
Q 45.3125 48.734375 45.3125 54.390625 
Q 45.3125 60.0625 41.71875 63.234375 
Q 38.140625 66.40625 31.78125 66.40625 
Q 25.390625 66.40625 21.84375 63.234375 
Q 18.3125 60.0625 18.3125 54.390625 
z
" id="DejaVuSans-56"/>
      </defs>
      <use xlink:href="#DejaVuSans-84"/>
      <use x="50.083984" xlink:href="#DejaVuSans-58"/>
      <use x="83.775391" xlink:href="#DejaVuSans-49"/>
      <use x="147.398438" xlink:href="#DejaVuSans-51"/>
      <use x="211.021484" xlink:href="#DejaVuSans-57"/>
      <use x="274.644531" xlink:href="#DejaVuSans-56"/>
     </g>
    </g>
    <g id="line2d_36">
     <path d="M 141.218438 273.850437 
L 161.218438 273.850437 
" style="fill:none;stroke:#ffffff;stroke-linecap:square;stroke-width:1.5;"/>
    </g>
    <g id="line2d_37"/>
    <g id="text_23">
     <!-- P:1.909 -->
     <g transform="translate(169.218438 277.350437)scale(0.1 -0.1)">
      <defs>
       <path d="M 19.671875 64.796875 
L 19.671875 37.40625 
L 32.078125 37.40625 
Q 38.96875 37.40625 42.71875 40.96875 
Q 46.484375 44.53125 46.484375 51.125 
Q 46.484375 57.671875 42.71875 61.234375 
Q 38.96875 64.796875 32.078125 64.796875 
z
M 9.8125 72.90625 
L 32.078125 72.90625 
Q 44.34375 72.90625 50.609375 67.359375 
Q 56.890625 61.8125 56.890625 51.125 
Q 56.890625 40.328125 50.609375 34.8125 
Q 44.34375 29.296875 32.078125 29.296875 
L 19.671875 29.296875 
L 19.671875 0 
L 9.8125 0 
z
" id="DejaVuSans-80"/>
      </defs>
      <use xlink:href="#DejaVuSans-80"/>
      <use x="60.302734" xlink:href="#DejaVuSans-58"/>
      <use x="93.994141" xlink:href="#DejaVuSans-49"/>
      <use x="157.617188" xlink:href="#DejaVuSans-46"/>
      <use x="189.404297" xlink:href="#DejaVuSans-57"/>
      <use x="253.027344" xlink:href="#DejaVuSans-48"/>
      <use x="316.650391" xlink:href="#DejaVuSans-57"/>
     </g>
    </g>
    <g id="line2d_38">
     <path d="M 282.959063 215.116062 
L 302.959063 215.116062 
" style="fill:none;stroke:#ffffff;stroke-linecap:square;stroke-width:1.5;"/>
    </g>
    <g id="line2d_39"/>
    <g id="text_24">
     <!-- H2O: 0.001234 -->
     <g transform="translate(310.959063 218.616062)scale(0.1 -0.1)">
      <use xlink:href="#DejaVuSans-72"/>
      <use x="75.195312" xlink:href="#DejaVuSans-50"/>
      <use x="138.818359" xlink:href="#DejaVuSans-79"/>
      <use x="215.779297" xlink:href="#DejaVuSans-58"/>
      <use x="249.470703" xlink:href="#DejaVuSans-32"/>
      <use x="281.257812" xlink:href="#DejaVuSans-48"/>
      <use x="344.880859" xlink:href="#DejaVuSans-46"/>
      <use x="376.667969" xlink:href="#DejaVuSans-48"/>
      <use x="440.291016" xlink:href="#DejaVuSans-48"/>
      <use x="503.914062" xlink:href="#DejaVuSans-49"/>
      <use x="567.537109" xlink:href="#DejaVuSans-50"/>
      <use x="631.160156" xlink:href="#DejaVuSans-51"/>
      <use x="694.783203" xlink:href="#DejaVuSans-52"/>
     </g>
    </g>
    <g id="line2d_40">
     <path d="M 282.959063 229.794187 
L 302.959063 229.794187 
" style="fill:none;stroke:#ffffff;stroke-linecap:square;stroke-width:1.5;"/>
    </g>
    <g id="line2d_41"/>
    <g id="text_25">
     <!-- H2O2: 0.00254 -->
     <g transform="translate(310.959063 233.294187)scale(0.1 -0.1)">
      <use xlink:href="#DejaVuSans-72"/>
      <use x="75.195312" xlink:href="#DejaVuSans-50"/>
      <use x="138.818359" xlink:href="#DejaVuSans-79"/>
      <use x="217.529297" xlink:href="#DejaVuSans-50"/>
      <use x="281.152344" xlink:href="#DejaVuSans-58"/>
      <use x="314.84375" xlink:href="#DejaVuSans-32"/>
      <use x="346.630859" xlink:href="#DejaVuSans-48"/>
      <use x="410.253906" xlink:href="#DejaVuSans-46"/>
      <use x="442.041016" xlink:href="#DejaVuSans-48"/>
      <use x="505.664062" xlink:href="#DejaVuSans-48"/>
      <use x="569.287109" xlink:href="#DejaVuSans-50"/>
      <use x="632.910156" xlink:href="#DejaVuSans-53"/>
      <use x="696.533203" xlink:href="#DejaVuSans-52"/>
     </g>
    </g>
    <g id="line2d_42">
     <path d="M 282.959063 244.472312 
L 302.959063 244.472312 
" style="fill:none;stroke:#ffffff;stroke-linecap:square;stroke-width:1.5;"/>
    </g>
    <g id="line2d_43"/>
    <g id="text_26">
     <!-- O2: 0.00062 -->
     <g transform="translate(310.959063 247.972312)scale(0.1 -0.1)">
      <use xlink:href="#DejaVuSans-79"/>
      <use x="78.710938" xlink:href="#DejaVuSans-50"/>
      <use x="142.333984" xlink:href="#DejaVuSans-58"/>
      <use x="176.025391" xlink:href="#DejaVuSans-32"/>
      <use x="207.8125" xlink:href="#DejaVuSans-48"/>
      <use x="271.435547" xlink:href="#DejaVuSans-46"/>
      <use x="303.222656" xlink:href="#DejaVuSans-48"/>
      <use x="366.845703" xlink:href="#DejaVuSans-48"/>
      <use x="430.46875" xlink:href="#DejaVuSans-48"/>
      <use x="494.091797" xlink:href="#DejaVuSans-54"/>
      <use x="557.714844" xlink:href="#DejaVuSans-50"/>
     </g>
    </g>
    <g id="line2d_44">
     <path d="M 282.959063 259.150437 
L 302.959063 259.150437 
" style="fill:none;stroke:#ffffff;stroke-linecap:square;stroke-width:1.5;"/>
    </g>
    <g id="line2d_45"/>
    <g id="text_27">
     <!-- H: 4.485e-08 -->
     <g transform="translate(310.959063 262.650437)scale(0.1 -0.1)">
      <defs>
       <path d="M 4.890625 31.390625 
L 31.203125 31.390625 
L 31.203125 23.390625 
L 4.890625 23.390625 
z
" id="DejaVuSans-45"/>
      </defs>
      <use xlink:href="#DejaVuSans-72"/>
      <use x="75.195312" xlink:href="#DejaVuSans-58"/>
      <use x="108.886719" xlink:href="#DejaVuSans-32"/>
      <use x="140.673828" xlink:href="#DejaVuSans-52"/>
      <use x="204.296875" xlink:href="#DejaVuSans-46"/>
      <use x="236.083984" xlink:href="#DejaVuSans-52"/>
      <use x="299.707031" xlink:href="#DejaVuSans-56"/>
      <use x="363.330078" xlink:href="#DejaVuSans-53"/>
      <use x="426.953125" xlink:href="#DejaVuSans-101"/>
      <use x="488.476562" xlink:href="#DejaVuSans-45"/>
      <use x="524.560547" xlink:href="#DejaVuSans-48"/>
      <use x="588.183594" xlink:href="#DejaVuSans-56"/>
     </g>
    </g>
    <g id="line2d_46">
     <path d="M 282.959063 273.828562 
L 302.959063 273.828562 
" style="fill:none;stroke:#ffffff;stroke-linecap:square;stroke-width:1.5;"/>
    </g>
    <g id="line2d_47"/>
    <g id="text_28">
     <!-- Ar: 0.9956059552 -->
     <g transform="translate(310.959063 277.328562)scale(0.1 -0.1)">
      <defs>
       <path d="M 34.1875 63.1875 
L 20.796875 26.90625 
L 47.609375 26.90625 
z
M 28.609375 72.90625 
L 39.796875 72.90625 
L 67.578125 0 
L 57.328125 0 
L 50.6875 18.703125 
L 17.828125 18.703125 
L 11.1875 0 
L 0.78125 0 
z
" id="DejaVuSans-65"/>
      </defs>
      <use xlink:href="#DejaVuSans-65"/>
      <use x="68.408203" xlink:href="#DejaVuSans-114"/>
      <use x="107.771484" xlink:href="#DejaVuSans-58"/>
      <use x="141.462891" xlink:href="#DejaVuSans-32"/>
      <use x="173.25" xlink:href="#DejaVuSans-48"/>
      <use x="236.873047" xlink:href="#DejaVuSans-46"/>
      <use x="268.660156" xlink:href="#DejaVuSans-57"/>
      <use x="332.283203" xlink:href="#DejaVuSans-57"/>
      <use x="395.90625" xlink:href="#DejaVuSans-53"/>
      <use x="459.529297" xlink:href="#DejaVuSans-54"/>
      <use x="523.152344" xlink:href="#DejaVuSans-48"/>
      <use x="586.775391" xlink:href="#DejaVuSans-53"/>
      <use x="650.398438" xlink:href="#DejaVuSans-57"/>
      <use x="714.021484" xlink:href="#DejaVuSans-53"/>
      <use x="777.644531" xlink:href="#DejaVuSans-53"/>
      <use x="841.267578" xlink:href="#DejaVuSans-50"/>
     </g>
    </g>
   </g>
  </g>
 </g>
 <defs>
  <clipPath id="p5acb0b2d0f">
   <rect height="266.112" width="357.12" x="53.328125" y="22.318125"/>
  </clipPath>
 </defs>
</svg>
