<?xml version="1.0" encoding="utf-8" standalone="no"?>
<!DOCTYPE svg PUBLIC "-//W3C//DTD SVG 1.1//EN"
  "http://www.w3.org/Graphics/SVG/1.1/DTD/svg11.dtd">
<!-- Created with matplotlib (https://matplotlib.org/) -->
<svg height="325.986375pt" version="1.1" viewBox="0 0 414.46375 325.986375" width="414.46375pt" xmlns="http://www.w3.org/2000/svg" xmlns:xlink="http://www.w3.org/1999/xlink">
 <metadata>
  <rdf:RDF xmlns:cc="http://creativecommons.org/ns#" xmlns:dc="http://purl.org/dc/elements/1.1/" xmlns:rdf="http://www.w3.org/1999/02/22-rdf-syntax-ns#">
   <cc:Work>
    <dc:type rdf:resource="http://purl.org/dc/dcmitype/StillImage"/>
    <dc:date>2023-08-04T12:52:35.642406</dc:date>
    <dc:format>image/svg+xml</dc:format>
    <dc:creator>
     <cc:Agent>
      <dc:title>Matplotlib v3.3.1, https://matplotlib.org/</dc:title>
     </cc:Agent>
    </dc:creator>
   </cc:Work>
  </rdf:RDF>
 </metadata>
 <defs>
  <style type="text/css">*{stroke-linecap:butt;stroke-linejoin:round;}</style>
 </defs>
 <g id="figure_1">
  <g id="patch_1">
   <path d="M 0 325.986375 
L 414.46375 325.986375 
L 414.46375 0 
L 0 0 
z
" style="fill:none;"/>
  </g>
  <g id="axes_1">
   <g id="patch_2">
    <path d="M 50.14375 288.430125 
L 407.26375 288.430125 
L 407.26375 22.318125 
L 50.14375 22.318125 
z
" style="fill:none;"/>
   </g>
   <g id="matplotlib.axis_1">
    <g id="xtick_1">
     <g id="line2d_1">
      <defs>
       <path d="M 0 0 
L 0 3.5 
" id="maa2a4576aa" style="stroke:#000000;stroke-width:0.8;"/>
      </defs>
      <g>
       <use style="stroke:#000000;stroke-width:0.8;" x="66.376477" xlink:href="#maa2a4576aa" y="288.430125"/>
      </g>
     </g>
     <g id="text_1">
      <!-- 0.0 -->
      <g transform="translate(58.424915 303.028562)scale(0.1 -0.1)">
       <defs>
        <path d="M 31.78125 66.40625 
Q 24.171875 66.40625 20.328125 58.90625 
Q 16.5 51.421875 16.5 36.375 
Q 16.5 21.390625 20.328125 13.890625 
Q 24.171875 6.390625 31.78125 6.390625 
Q 39.453125 6.390625 43.28125 13.890625 
Q 47.125 21.390625 47.125 36.375 
Q 47.125 51.421875 43.28125 58.90625 
Q 39.453125 66.40625 31.78125 66.40625 
z
M 31.78125 74.21875 
Q 44.046875 74.21875 50.515625 64.515625 
Q 56.984375 54.828125 56.984375 36.375 
Q 56.984375 17.96875 50.515625 8.265625 
Q 44.046875 -1.421875 31.78125 -1.421875 
Q 19.53125 -1.421875 13.0625 8.265625 
Q 6.59375 17.96875 6.59375 36.375 
Q 6.59375 54.828125 13.0625 64.515625 
Q 19.53125 74.21875 31.78125 74.21875 
z
" id="DejaVuSans-48"/>
        <path d="M 10.6875 12.40625 
L 21 12.40625 
L 21 0 
L 10.6875 0 
z
" id="DejaVuSans-46"/>
       </defs>
       <use xlink:href="#DejaVuSans-48"/>
       <use x="63.623047" xlink:href="#DejaVuSans-46"/>
       <use x="95.410156" xlink:href="#DejaVuSans-48"/>
      </g>
     </g>
    </g>
    <g id="xtick_2">
     <g id="line2d_2">
      <g>
       <use style="stroke:#000000;stroke-width:0.8;" x="109.005326" xlink:href="#maa2a4576aa" y="288.430125"/>
      </g>
     </g>
     <g id="text_2">
      <!-- 0.2 -->
      <g transform="translate(101.053763 303.028562)scale(0.1 -0.1)">
       <defs>
        <path d="M 19.1875 8.296875 
L 53.609375 8.296875 
L 53.609375 0 
L 7.328125 0 
L 7.328125 8.296875 
Q 12.9375 14.109375 22.625 23.890625 
Q 32.328125 33.6875 34.8125 36.53125 
Q 39.546875 41.84375 41.421875 45.53125 
Q 43.3125 49.21875 43.3125 52.78125 
Q 43.3125 58.59375 39.234375 62.25 
Q 35.15625 65.921875 28.609375 65.921875 
Q 23.96875 65.921875 18.8125 64.3125 
Q 13.671875 62.703125 7.8125 59.421875 
L 7.8125 69.390625 
Q 13.765625 71.78125 18.9375 73 
Q 24.125 74.21875 28.421875 74.21875 
Q 39.75 74.21875 46.484375 68.546875 
Q 53.21875 62.890625 53.21875 53.421875 
Q 53.21875 48.921875 51.53125 44.890625 
Q 49.859375 40.875 45.40625 35.40625 
Q 44.1875 33.984375 37.640625 27.21875 
Q 31.109375 20.453125 19.1875 8.296875 
z
" id="DejaVuSans-50"/>
       </defs>
       <use xlink:href="#DejaVuSans-48"/>
       <use x="63.623047" xlink:href="#DejaVuSans-46"/>
       <use x="95.410156" xlink:href="#DejaVuSans-50"/>
      </g>
     </g>
    </g>
    <g id="xtick_3">
     <g id="line2d_3">
      <g>
       <use style="stroke:#000000;stroke-width:0.8;" x="151.634175" xlink:href="#maa2a4576aa" y="288.430125"/>
      </g>
     </g>
     <g id="text_3">
      <!-- 0.4 -->
      <g transform="translate(143.682612 303.028562)scale(0.1 -0.1)">
       <defs>
        <path d="M 37.796875 64.3125 
L 12.890625 25.390625 
L 37.796875 25.390625 
z
M 35.203125 72.90625 
L 47.609375 72.90625 
L 47.609375 25.390625 
L 58.015625 25.390625 
L 58.015625 17.1875 
L 47.609375 17.1875 
L 47.609375 0 
L 37.796875 0 
L 37.796875 17.1875 
L 4.890625 17.1875 
L 4.890625 26.703125 
z
" id="DejaVuSans-52"/>
       </defs>
       <use xlink:href="#DejaVuSans-48"/>
       <use x="63.623047" xlink:href="#DejaVuSans-46"/>
       <use x="95.410156" xlink:href="#DejaVuSans-52"/>
      </g>
     </g>
    </g>
    <g id="xtick_4">
     <g id="line2d_4">
      <g>
       <use style="stroke:#000000;stroke-width:0.8;" x="194.263023" xlink:href="#maa2a4576aa" y="288.430125"/>
      </g>
     </g>
     <g id="text_4">
      <!-- 0.6 -->
      <g transform="translate(186.311461 303.028562)scale(0.1 -0.1)">
       <defs>
        <path d="M 33.015625 40.375 
Q 26.375 40.375 22.484375 35.828125 
Q 18.609375 31.296875 18.609375 23.390625 
Q 18.609375 15.53125 22.484375 10.953125 
Q 26.375 6.390625 33.015625 6.390625 
Q 39.65625 6.390625 43.53125 10.953125 
Q 47.40625 15.53125 47.40625 23.390625 
Q 47.40625 31.296875 43.53125 35.828125 
Q 39.65625 40.375 33.015625 40.375 
z
M 52.59375 71.296875 
L 52.59375 62.3125 
Q 48.875 64.0625 45.09375 64.984375 
Q 41.3125 65.921875 37.59375 65.921875 
Q 27.828125 65.921875 22.671875 59.328125 
Q 17.53125 52.734375 16.796875 39.40625 
Q 19.671875 43.65625 24.015625 45.921875 
Q 28.375 48.1875 33.59375 48.1875 
Q 44.578125 48.1875 50.953125 41.515625 
Q 57.328125 34.859375 57.328125 23.390625 
Q 57.328125 12.15625 50.6875 5.359375 
Q 44.046875 -1.421875 33.015625 -1.421875 
Q 20.359375 -1.421875 13.671875 8.265625 
Q 6.984375 17.96875 6.984375 36.375 
Q 6.984375 53.65625 15.1875 63.9375 
Q 23.390625 74.21875 37.203125 74.21875 
Q 40.921875 74.21875 44.703125 73.484375 
Q 48.484375 72.75 52.59375 71.296875 
z
" id="DejaVuSans-54"/>
       </defs>
       <use xlink:href="#DejaVuSans-48"/>
       <use x="63.623047" xlink:href="#DejaVuSans-46"/>
       <use x="95.410156" xlink:href="#DejaVuSans-54"/>
      </g>
     </g>
    </g>
    <g id="xtick_5">
     <g id="line2d_5">
      <g>
       <use style="stroke:#000000;stroke-width:0.8;" x="236.891872" xlink:href="#maa2a4576aa" y="288.430125"/>
      </g>
     </g>
     <g id="text_5">
      <!-- 0.8 -->
      <g transform="translate(228.94031 303.028562)scale(0.1 -0.1)">
       <defs>
        <path d="M 31.78125 34.625 
Q 24.75 34.625 20.71875 30.859375 
Q 16.703125 27.09375 16.703125 20.515625 
Q 16.703125 13.921875 20.71875 10.15625 
Q 24.75 6.390625 31.78125 6.390625 
Q 38.8125 6.390625 42.859375 10.171875 
Q 46.921875 13.96875 46.921875 20.515625 
Q 46.921875 27.09375 42.890625 30.859375 
Q 38.875 34.625 31.78125 34.625 
z
M 21.921875 38.8125 
Q 15.578125 40.375 12.03125 44.71875 
Q 8.5 49.078125 8.5 55.328125 
Q 8.5 64.0625 14.71875 69.140625 
Q 20.953125 74.21875 31.78125 74.21875 
Q 42.671875 74.21875 48.875 69.140625 
Q 55.078125 64.0625 55.078125 55.328125 
Q 55.078125 49.078125 51.53125 44.71875 
Q 48 40.375 41.703125 38.8125 
Q 48.828125 37.15625 52.796875 32.3125 
Q 56.78125 27.484375 56.78125 20.515625 
Q 56.78125 9.90625 50.3125 4.234375 
Q 43.84375 -1.421875 31.78125 -1.421875 
Q 19.734375 -1.421875 13.25 4.234375 
Q 6.78125 9.90625 6.78125 20.515625 
Q 6.78125 27.484375 10.78125 32.3125 
Q 14.796875 37.15625 21.921875 38.8125 
z
M 18.3125 54.390625 
Q 18.3125 48.734375 21.84375 45.5625 
Q 25.390625 42.390625 31.78125 42.390625 
Q 38.140625 42.390625 41.71875 45.5625 
Q 45.3125 48.734375 45.3125 54.390625 
Q 45.3125 60.0625 41.71875 63.234375 
Q 38.140625 66.40625 31.78125 66.40625 
Q 25.390625 66.40625 21.84375 63.234375 
Q 18.3125 60.0625 18.3125 54.390625 
z
" id="DejaVuSans-56"/>
       </defs>
       <use xlink:href="#DejaVuSans-48"/>
       <use x="63.623047" xlink:href="#DejaVuSans-46"/>
       <use x="95.410156" xlink:href="#DejaVuSans-56"/>
      </g>
     </g>
    </g>
    <g id="xtick_6">
     <g id="line2d_6">
      <g>
       <use style="stroke:#000000;stroke-width:0.8;" x="279.520721" xlink:href="#maa2a4576aa" y="288.430125"/>
      </g>
     </g>
     <g id="text_6">
      <!-- 1.0 -->
      <g transform="translate(271.569158 303.028562)scale(0.1 -0.1)">
       <defs>
        <path d="M 12.40625 8.296875 
L 28.515625 8.296875 
L 28.515625 63.921875 
L 10.984375 60.40625 
L 10.984375 69.390625 
L 28.421875 72.90625 
L 38.28125 72.90625 
L 38.28125 8.296875 
L 54.390625 8.296875 
L 54.390625 0 
L 12.40625 0 
z
" id="DejaVuSans-49"/>
       </defs>
       <use xlink:href="#DejaVuSans-49"/>
       <use x="63.623047" xlink:href="#DejaVuSans-46"/>
       <use x="95.410156" xlink:href="#DejaVuSans-48"/>
      </g>
     </g>
    </g>
    <g id="xtick_7">
     <g id="line2d_7">
      <g>
       <use style="stroke:#000000;stroke-width:0.8;" x="322.14957" xlink:href="#maa2a4576aa" y="288.430125"/>
      </g>
     </g>
     <g id="text_7">
      <!-- 1.2 -->
      <g transform="translate(314.198007 303.028562)scale(0.1 -0.1)">
       <use xlink:href="#DejaVuSans-49"/>
       <use x="63.623047" xlink:href="#DejaVuSans-46"/>
       <use x="95.410156" xlink:href="#DejaVuSans-50"/>
      </g>
     </g>
    </g>
    <g id="xtick_8">
     <g id="line2d_8">
      <g>
       <use style="stroke:#000000;stroke-width:0.8;" x="364.778418" xlink:href="#maa2a4576aa" y="288.430125"/>
      </g>
     </g>
     <g id="text_8">
      <!-- 1.4 -->
      <g transform="translate(356.826856 303.028562)scale(0.1 -0.1)">
       <use xlink:href="#DejaVuSans-49"/>
       <use x="63.623047" xlink:href="#DejaVuSans-46"/>
       <use x="95.410156" xlink:href="#DejaVuSans-52"/>
      </g>
     </g>
    </g>
    <g id="text_9">
     <!-- Time (ms) -->
     <g transform="translate(203.504531 316.706687)scale(0.1 -0.1)">
      <defs>
       <path d="M -0.296875 72.90625 
L 61.375 72.90625 
L 61.375 64.59375 
L 35.5 64.59375 
L 35.5 0 
L 25.59375 0 
L 25.59375 64.59375 
L -0.296875 64.59375 
z
" id="DejaVuSans-84"/>
       <path d="M 9.421875 54.6875 
L 18.40625 54.6875 
L 18.40625 0 
L 9.421875 0 
z
M 9.421875 75.984375 
L 18.40625 75.984375 
L 18.40625 64.59375 
L 9.421875 64.59375 
z
" id="DejaVuSans-105"/>
       <path d="M 52 44.1875 
Q 55.375 50.25 60.0625 53.125 
Q 64.75 56 71.09375 56 
Q 79.640625 56 84.28125 50.015625 
Q 88.921875 44.046875 88.921875 33.015625 
L 88.921875 0 
L 79.890625 0 
L 79.890625 32.71875 
Q 79.890625 40.578125 77.09375 44.375 
Q 74.3125 48.1875 68.609375 48.1875 
Q 61.625 48.1875 57.5625 43.546875 
Q 53.515625 38.921875 53.515625 30.90625 
L 53.515625 0 
L 44.484375 0 
L 44.484375 32.71875 
Q 44.484375 40.625 41.703125 44.40625 
Q 38.921875 48.1875 33.109375 48.1875 
Q 26.21875 48.1875 22.15625 43.53125 
Q 18.109375 38.875 18.109375 30.90625 
L 18.109375 0 
L 9.078125 0 
L 9.078125 54.6875 
L 18.109375 54.6875 
L 18.109375 46.1875 
Q 21.1875 51.21875 25.484375 53.609375 
Q 29.78125 56 35.6875 56 
Q 41.65625 56 45.828125 52.96875 
Q 50 49.953125 52 44.1875 
z
" id="DejaVuSans-109"/>
       <path d="M 56.203125 29.59375 
L 56.203125 25.203125 
L 14.890625 25.203125 
Q 15.484375 15.921875 20.484375 11.0625 
Q 25.484375 6.203125 34.421875 6.203125 
Q 39.59375 6.203125 44.453125 7.46875 
Q 49.3125 8.734375 54.109375 11.28125 
L 54.109375 2.78125 
Q 49.265625 0.734375 44.1875 -0.34375 
Q 39.109375 -1.421875 33.890625 -1.421875 
Q 20.796875 -1.421875 13.15625 6.1875 
Q 5.515625 13.8125 5.515625 26.8125 
Q 5.515625 40.234375 12.765625 48.109375 
Q 20.015625 56 32.328125 56 
Q 43.359375 56 49.78125 48.890625 
Q 56.203125 41.796875 56.203125 29.59375 
z
M 47.21875 32.234375 
Q 47.125 39.59375 43.09375 43.984375 
Q 39.0625 48.390625 32.421875 48.390625 
Q 24.90625 48.390625 20.390625 44.140625 
Q 15.875 39.890625 15.1875 32.171875 
z
" id="DejaVuSans-101"/>
       <path id="DejaVuSans-32"/>
       <path d="M 31 75.875 
Q 24.46875 64.65625 21.28125 53.65625 
Q 18.109375 42.671875 18.109375 31.390625 
Q 18.109375 20.125 21.3125 9.0625 
Q 24.515625 -2 31 -13.1875 
L 23.1875 -13.1875 
Q 15.875 -1.703125 12.234375 9.375 
Q 8.59375 20.453125 8.59375 31.390625 
Q 8.59375 42.28125 12.203125 53.3125 
Q 15.828125 64.359375 23.1875 75.875 
z
" id="DejaVuSans-40"/>
       <path d="M 44.28125 53.078125 
L 44.28125 44.578125 
Q 40.484375 46.53125 36.375 47.5 
Q 32.28125 48.484375 27.875 48.484375 
Q 21.1875 48.484375 17.84375 46.4375 
Q 14.5 44.390625 14.5 40.28125 
Q 14.5 37.15625 16.890625 35.375 
Q 19.28125 33.59375 26.515625 31.984375 
L 29.59375 31.296875 
Q 39.15625 29.25 43.1875 25.515625 
Q 47.21875 21.78125 47.21875 15.09375 
Q 47.21875 7.46875 41.1875 3.015625 
Q 35.15625 -1.421875 24.609375 -1.421875 
Q 20.21875 -1.421875 15.453125 -0.5625 
Q 10.6875 0.296875 5.421875 2 
L 5.421875 11.28125 
Q 10.40625 8.6875 15.234375 7.390625 
Q 20.0625 6.109375 24.8125 6.109375 
Q 31.15625 6.109375 34.5625 8.28125 
Q 37.984375 10.453125 37.984375 14.40625 
Q 37.984375 18.0625 35.515625 20.015625 
Q 33.0625 21.96875 24.703125 23.78125 
L 21.578125 24.515625 
Q 13.234375 26.265625 9.515625 29.90625 
Q 5.8125 33.546875 5.8125 39.890625 
Q 5.8125 47.609375 11.28125 51.796875 
Q 16.75 56 26.8125 56 
Q 31.78125 56 36.171875 55.265625 
Q 40.578125 54.546875 44.28125 53.078125 
z
" id="DejaVuSans-115"/>
       <path d="M 8.015625 75.875 
L 15.828125 75.875 
Q 23.140625 64.359375 26.78125 53.3125 
Q 30.421875 42.28125 30.421875 31.390625 
Q 30.421875 20.453125 26.78125 9.375 
Q 23.140625 -1.703125 15.828125 -13.1875 
L 8.015625 -13.1875 
Q 14.5 -2 17.703125 9.0625 
Q 20.90625 20.125 20.90625 31.390625 
Q 20.90625 42.671875 17.703125 53.65625 
Q 14.5 64.65625 8.015625 75.875 
z
" id="DejaVuSans-41"/>
      </defs>
      <use xlink:href="#DejaVuSans-84"/>
      <use x="57.958984" xlink:href="#DejaVuSans-105"/>
      <use x="85.742188" xlink:href="#DejaVuSans-109"/>
      <use x="183.154297" xlink:href="#DejaVuSans-101"/>
      <use x="244.677734" xlink:href="#DejaVuSans-32"/>
      <use x="276.464844" xlink:href="#DejaVuSans-40"/>
      <use x="315.478516" xlink:href="#DejaVuSans-109"/>
      <use x="412.890625" xlink:href="#DejaVuSans-115"/>
      <use x="464.990234" xlink:href="#DejaVuSans-41"/>
     </g>
    </g>
   </g>
   <g id="matplotlib.axis_2">
    <g id="ytick_1">
     <g id="line2d_9">
      <defs>
       <path d="M 0 0 
L -3.5 0 
" id="me9a3fb92cd" style="stroke:#000000;stroke-width:0.8;"/>
      </defs>
      <g>
       <use style="stroke:#000000;stroke-width:0.8;" x="50.14375" xlink:href="#me9a3fb92cd" y="283.88241"/>
      </g>
     </g>
     <g id="text_10">
      <!-- 0.00 -->
      <g transform="translate(20.878125 287.681629)scale(0.1 -0.1)">
       <use xlink:href="#DejaVuSans-48"/>
       <use x="63.623047" xlink:href="#DejaVuSans-46"/>
       <use x="95.410156" xlink:href="#DejaVuSans-48"/>
       <use x="159.033203" xlink:href="#DejaVuSans-48"/>
      </g>
     </g>
    </g>
    <g id="ytick_2">
     <g id="line2d_10">
      <g>
       <use style="stroke:#000000;stroke-width:0.8;" x="50.14375" xlink:href="#me9a3fb92cd" y="247.921735"/>
      </g>
     </g>
     <g id="text_11">
      <!-- 0.01 -->
      <g transform="translate(20.878125 251.720953)scale(0.1 -0.1)">
       <use xlink:href="#DejaVuSans-48"/>
       <use x="63.623047" xlink:href="#DejaVuSans-46"/>
       <use x="95.410156" xlink:href="#DejaVuSans-48"/>
       <use x="159.033203" xlink:href="#DejaVuSans-49"/>
      </g>
     </g>
    </g>
    <g id="ytick_3">
     <g id="line2d_11">
      <g>
       <use style="stroke:#000000;stroke-width:0.8;" x="50.14375" xlink:href="#me9a3fb92cd" y="211.961059"/>
      </g>
     </g>
     <g id="text_12">
      <!-- 0.02 -->
      <g transform="translate(20.878125 215.760278)scale(0.1 -0.1)">
       <use xlink:href="#DejaVuSans-48"/>
       <use x="63.623047" xlink:href="#DejaVuSans-46"/>
       <use x="95.410156" xlink:href="#DejaVuSans-48"/>
       <use x="159.033203" xlink:href="#DejaVuSans-50"/>
      </g>
     </g>
    </g>
    <g id="ytick_4">
     <g id="line2d_12">
      <g>
       <use style="stroke:#000000;stroke-width:0.8;" x="50.14375" xlink:href="#me9a3fb92cd" y="176.000384"/>
      </g>
     </g>
     <g id="text_13">
      <!-- 0.03 -->
      <g transform="translate(20.878125 179.799602)scale(0.1 -0.1)">
       <defs>
        <path d="M 40.578125 39.3125 
Q 47.65625 37.796875 51.625 33 
Q 55.609375 28.21875 55.609375 21.1875 
Q 55.609375 10.40625 48.1875 4.484375 
Q 40.765625 -1.421875 27.09375 -1.421875 
Q 22.515625 -1.421875 17.65625 -0.515625 
Q 12.796875 0.390625 7.625 2.203125 
L 7.625 11.71875 
Q 11.71875 9.328125 16.59375 8.109375 
Q 21.484375 6.890625 26.8125 6.890625 
Q 36.078125 6.890625 40.9375 10.546875 
Q 45.796875 14.203125 45.796875 21.1875 
Q 45.796875 27.640625 41.28125 31.265625 
Q 36.765625 34.90625 28.71875 34.90625 
L 20.21875 34.90625 
L 20.21875 43.015625 
L 29.109375 43.015625 
Q 36.375 43.015625 40.234375 45.921875 
Q 44.09375 48.828125 44.09375 54.296875 
Q 44.09375 59.90625 40.109375 62.90625 
Q 36.140625 65.921875 28.71875 65.921875 
Q 24.65625 65.921875 20.015625 65.03125 
Q 15.375 64.15625 9.8125 62.3125 
L 9.8125 71.09375 
Q 15.4375 72.65625 20.34375 73.4375 
Q 25.25 74.21875 29.59375 74.21875 
Q 40.828125 74.21875 47.359375 69.109375 
Q 53.90625 64.015625 53.90625 55.328125 
Q 53.90625 49.265625 50.4375 45.09375 
Q 46.96875 40.921875 40.578125 39.3125 
z
" id="DejaVuSans-51"/>
       </defs>
       <use xlink:href="#DejaVuSans-48"/>
       <use x="63.623047" xlink:href="#DejaVuSans-46"/>
       <use x="95.410156" xlink:href="#DejaVuSans-48"/>
       <use x="159.033203" xlink:href="#DejaVuSans-51"/>
      </g>
     </g>
    </g>
    <g id="ytick_5">
     <g id="line2d_13">
      <g>
       <use style="stroke:#000000;stroke-width:0.8;" x="50.14375" xlink:href="#me9a3fb92cd" y="140.039708"/>
      </g>
     </g>
     <g id="text_14">
      <!-- 0.04 -->
      <g transform="translate(20.878125 143.838927)scale(0.1 -0.1)">
       <use xlink:href="#DejaVuSans-48"/>
       <use x="63.623047" xlink:href="#DejaVuSans-46"/>
       <use x="95.410156" xlink:href="#DejaVuSans-48"/>
       <use x="159.033203" xlink:href="#DejaVuSans-52"/>
      </g>
     </g>
    </g>
    <g id="ytick_6">
     <g id="line2d_14">
      <g>
       <use style="stroke:#000000;stroke-width:0.8;" x="50.14375" xlink:href="#me9a3fb92cd" y="104.079032"/>
      </g>
     </g>
     <g id="text_15">
      <!-- 0.05 -->
      <g transform="translate(20.878125 107.878251)scale(0.1 -0.1)">
       <defs>
        <path d="M 10.796875 72.90625 
L 49.515625 72.90625 
L 49.515625 64.59375 
L 19.828125 64.59375 
L 19.828125 46.734375 
Q 21.96875 47.46875 24.109375 47.828125 
Q 26.265625 48.1875 28.421875 48.1875 
Q 40.625 48.1875 47.75 41.5 
Q 54.890625 34.8125 54.890625 23.390625 
Q 54.890625 11.625 47.5625 5.09375 
Q 40.234375 -1.421875 26.90625 -1.421875 
Q 22.3125 -1.421875 17.546875 -0.640625 
Q 12.796875 0.140625 7.71875 1.703125 
L 7.71875 11.625 
Q 12.109375 9.234375 16.796875 8.0625 
Q 21.484375 6.890625 26.703125 6.890625 
Q 35.15625 6.890625 40.078125 11.328125 
Q 45.015625 15.765625 45.015625 23.390625 
Q 45.015625 31 40.078125 35.4375 
Q 35.15625 39.890625 26.703125 39.890625 
Q 22.75 39.890625 18.8125 39.015625 
Q 14.890625 38.140625 10.796875 36.28125 
z
" id="DejaVuSans-53"/>
       </defs>
       <use xlink:href="#DejaVuSans-48"/>
       <use x="63.623047" xlink:href="#DejaVuSans-46"/>
       <use x="95.410156" xlink:href="#DejaVuSans-48"/>
       <use x="159.033203" xlink:href="#DejaVuSans-53"/>
      </g>
     </g>
    </g>
    <g id="ytick_7">
     <g id="line2d_15">
      <g>
       <use style="stroke:#000000;stroke-width:0.8;" x="50.14375" xlink:href="#me9a3fb92cd" y="68.118357"/>
      </g>
     </g>
     <g id="text_16">
      <!-- 0.06 -->
      <g transform="translate(20.878125 71.917576)scale(0.1 -0.1)">
       <use xlink:href="#DejaVuSans-48"/>
       <use x="63.623047" xlink:href="#DejaVuSans-46"/>
       <use x="95.410156" xlink:href="#DejaVuSans-48"/>
       <use x="159.033203" xlink:href="#DejaVuSans-54"/>
      </g>
     </g>
    </g>
    <g id="ytick_8">
     <g id="line2d_16">
      <g>
       <use style="stroke:#000000;stroke-width:0.8;" x="50.14375" xlink:href="#me9a3fb92cd" y="32.157681"/>
      </g>
     </g>
     <g id="text_17">
      <!-- 0.07 -->
      <g transform="translate(20.878125 35.9569)scale(0.1 -0.1)">
       <defs>
        <path d="M 8.203125 72.90625 
L 55.078125 72.90625 
L 55.078125 68.703125 
L 28.609375 0 
L 18.3125 0 
L 43.21875 64.59375 
L 8.203125 64.59375 
z
" id="DejaVuSans-55"/>
       </defs>
       <use xlink:href="#DejaVuSans-48"/>
       <use x="63.623047" xlink:href="#DejaVuSans-46"/>
       <use x="95.410156" xlink:href="#DejaVuSans-48"/>
       <use x="159.033203" xlink:href="#DejaVuSans-55"/>
      </g>
     </g>
    </g>
    <g id="text_18">
     <!-- Absorbance216 -->
     <g transform="translate(14.798438 194.46475)rotate(-90)scale(0.1 -0.1)">
      <defs>
       <path d="M 34.1875 63.1875 
L 20.796875 26.90625 
L 47.609375 26.90625 
z
M 28.609375 72.90625 
L 39.796875 72.90625 
L 67.578125 0 
L 57.328125 0 
L 50.6875 18.703125 
L 17.828125 18.703125 
L 11.1875 0 
L 0.78125 0 
z
" id="DejaVuSans-65"/>
       <path d="M 48.6875 27.296875 
Q 48.6875 37.203125 44.609375 42.84375 
Q 40.53125 48.484375 33.40625 48.484375 
Q 26.265625 48.484375 22.1875 42.84375 
Q 18.109375 37.203125 18.109375 27.296875 
Q 18.109375 17.390625 22.1875 11.75 
Q 26.265625 6.109375 33.40625 6.109375 
Q 40.53125 6.109375 44.609375 11.75 
Q 48.6875 17.390625 48.6875 27.296875 
z
M 18.109375 46.390625 
Q 20.953125 51.265625 25.265625 53.625 
Q 29.59375 56 35.59375 56 
Q 45.5625 56 51.78125 48.09375 
Q 58.015625 40.1875 58.015625 27.296875 
Q 58.015625 14.40625 51.78125 6.484375 
Q 45.5625 -1.421875 35.59375 -1.421875 
Q 29.59375 -1.421875 25.265625 0.953125 
Q 20.953125 3.328125 18.109375 8.203125 
L 18.109375 0 
L 9.078125 0 
L 9.078125 75.984375 
L 18.109375 75.984375 
z
" id="DejaVuSans-98"/>
       <path d="M 30.609375 48.390625 
Q 23.390625 48.390625 19.1875 42.75 
Q 14.984375 37.109375 14.984375 27.296875 
Q 14.984375 17.484375 19.15625 11.84375 
Q 23.34375 6.203125 30.609375 6.203125 
Q 37.796875 6.203125 41.984375 11.859375 
Q 46.1875 17.53125 46.1875 27.296875 
Q 46.1875 37.015625 41.984375 42.703125 
Q 37.796875 48.390625 30.609375 48.390625 
z
M 30.609375 56 
Q 42.328125 56 49.015625 48.375 
Q 55.71875 40.765625 55.71875 27.296875 
Q 55.71875 13.875 49.015625 6.21875 
Q 42.328125 -1.421875 30.609375 -1.421875 
Q 18.84375 -1.421875 12.171875 6.21875 
Q 5.515625 13.875 5.515625 27.296875 
Q 5.515625 40.765625 12.171875 48.375 
Q 18.84375 56 30.609375 56 
z
" id="DejaVuSans-111"/>
       <path d="M 41.109375 46.296875 
Q 39.59375 47.171875 37.8125 47.578125 
Q 36.03125 48 33.890625 48 
Q 26.265625 48 22.1875 43.046875 
Q 18.109375 38.09375 18.109375 28.8125 
L 18.109375 0 
L 9.078125 0 
L 9.078125 54.6875 
L 18.109375 54.6875 
L 18.109375 46.1875 
Q 20.953125 51.171875 25.484375 53.578125 
Q 30.03125 56 36.53125 56 
Q 37.453125 56 38.578125 55.875 
Q 39.703125 55.765625 41.0625 55.515625 
z
" id="DejaVuSans-114"/>
       <path d="M 34.28125 27.484375 
Q 23.390625 27.484375 19.1875 25 
Q 14.984375 22.515625 14.984375 16.5 
Q 14.984375 11.71875 18.140625 8.90625 
Q 21.296875 6.109375 26.703125 6.109375 
Q 34.1875 6.109375 38.703125 11.40625 
Q 43.21875 16.703125 43.21875 25.484375 
L 43.21875 27.484375 
z
M 52.203125 31.203125 
L 52.203125 0 
L 43.21875 0 
L 43.21875 8.296875 
Q 40.140625 3.328125 35.546875 0.953125 
Q 30.953125 -1.421875 24.3125 -1.421875 
Q 15.921875 -1.421875 10.953125 3.296875 
Q 6 8.015625 6 15.921875 
Q 6 25.140625 12.171875 29.828125 
Q 18.359375 34.515625 30.609375 34.515625 
L 43.21875 34.515625 
L 43.21875 35.40625 
Q 43.21875 41.609375 39.140625 45 
Q 35.0625 48.390625 27.6875 48.390625 
Q 23 48.390625 18.546875 47.265625 
Q 14.109375 46.140625 10.015625 43.890625 
L 10.015625 52.203125 
Q 14.9375 54.109375 19.578125 55.046875 
Q 24.21875 56 28.609375 56 
Q 40.484375 56 46.34375 49.84375 
Q 52.203125 43.703125 52.203125 31.203125 
z
" id="DejaVuSans-97"/>
       <path d="M 54.890625 33.015625 
L 54.890625 0 
L 45.90625 0 
L 45.90625 32.71875 
Q 45.90625 40.484375 42.875 44.328125 
Q 39.84375 48.1875 33.796875 48.1875 
Q 26.515625 48.1875 22.3125 43.546875 
Q 18.109375 38.921875 18.109375 30.90625 
L 18.109375 0 
L 9.078125 0 
L 9.078125 54.6875 
L 18.109375 54.6875 
L 18.109375 46.1875 
Q 21.34375 51.125 25.703125 53.5625 
Q 30.078125 56 35.796875 56 
Q 45.21875 56 50.046875 50.171875 
Q 54.890625 44.34375 54.890625 33.015625 
z
" id="DejaVuSans-110"/>
       <path d="M 48.78125 52.59375 
L 48.78125 44.1875 
Q 44.96875 46.296875 41.140625 47.34375 
Q 37.3125 48.390625 33.40625 48.390625 
Q 24.65625 48.390625 19.8125 42.84375 
Q 14.984375 37.3125 14.984375 27.296875 
Q 14.984375 17.28125 19.8125 11.734375 
Q 24.65625 6.203125 33.40625 6.203125 
Q 37.3125 6.203125 41.140625 7.25 
Q 44.96875 8.296875 48.78125 10.40625 
L 48.78125 2.09375 
Q 45.015625 0.34375 40.984375 -0.53125 
Q 36.96875 -1.421875 32.421875 -1.421875 
Q 20.0625 -1.421875 12.78125 6.34375 
Q 5.515625 14.109375 5.515625 27.296875 
Q 5.515625 40.671875 12.859375 48.328125 
Q 20.21875 56 33.015625 56 
Q 37.15625 56 41.109375 55.140625 
Q 45.0625 54.296875 48.78125 52.59375 
z
" id="DejaVuSans-99"/>
      </defs>
      <use xlink:href="#DejaVuSans-65"/>
      <use x="68.408203" xlink:href="#DejaVuSans-98"/>
      <use x="131.884766" xlink:href="#DejaVuSans-115"/>
      <use x="183.984375" xlink:href="#DejaVuSans-111"/>
      <use x="245.166016" xlink:href="#DejaVuSans-114"/>
      <use x="286.279297" xlink:href="#DejaVuSans-98"/>
      <use x="349.755859" xlink:href="#DejaVuSans-97"/>
      <use x="411.035156" xlink:href="#DejaVuSans-110"/>
      <use x="474.414062" xlink:href="#DejaVuSans-99"/>
      <use x="529.394531" xlink:href="#DejaVuSans-101"/>
      <use x="590.917969" xlink:href="#DejaVuSans-50"/>
      <use x="654.541016" xlink:href="#DejaVuSans-49"/>
      <use x="718.164062" xlink:href="#DejaVuSans-54"/>
     </g>
    </g>
   </g>
   <g id="line2d_17">
    <defs>
     <path d="M 0 3 
C 0.795609 3 1.55874 2.683901 2.12132 2.12132 
C 2.683901 1.55874 3 0.795609 3 0 
C 3 -0.795609 2.683901 -1.55874 2.12132 -2.12132 
C 1.55874 -2.683901 0.795609 -3 0 -3 
C -0.795609 -3 -1.55874 -2.683901 -2.12132 -2.12132 
C -2.683901 -1.55874 -3 -0.795609 -3 0 
C -3 0.795609 -2.683901 1.55874 -2.12132 2.12132 
C -1.55874 2.683901 -0.795609 3 0 3 
z
" id="m61895177e6" style="stroke:#000000;"/>
    </defs>
    <g clip-path="url(#p47b93d6009)">
     <use style="stroke:#000000;" x="66.376477" xlink:href="#m61895177e6" y="75.253494"/>
     <use style="stroke:#000000;" x="66.376525" xlink:href="#m61895177e6" y="75.254289"/>
     <use style="stroke:#000000;" x="66.376998" xlink:href="#m61895177e6" y="75.262244"/>
     <use style="stroke:#000000;" x="66.377471" xlink:href="#m61895177e6" y="75.270198"/>
     <use style="stroke:#000000;" x="66.378358" xlink:href="#m61895177e6" y="75.285101"/>
     <use style="stroke:#000000;" x="66.379912" xlink:href="#m61895177e6" y="75.311213"/>
     <use style="stroke:#000000;" x="66.382626" xlink:href="#m61895177e6" y="75.356786"/>
     <use style="stroke:#000000;" x="66.387406" xlink:href="#m61895177e6" y="75.437033"/>
     <use style="stroke:#000000;" x="66.396496" xlink:href="#m61895177e6" y="75.589443"/>
     <use style="stroke:#000000;" x="66.415043" xlink:href="#m61895177e6" y="75.899719"/>
     <use style="stroke:#000000;" x="66.433589" xlink:href="#m61895177e6" y="76.209072"/>
     <use style="stroke:#000000;" x="66.452135" xlink:href="#m61895177e6" y="76.517506"/>
     <use style="stroke:#000000;" x="66.470682" xlink:href="#m61895177e6" y="76.825026"/>
     <use style="stroke:#000000;" x="66.488872" xlink:href="#m61895177e6" y="77.125754"/>
     <use style="stroke:#000000;" x="66.507062" xlink:href="#m61895177e6" y="77.425609"/>
     <use style="stroke:#000000;" x="66.525253" xlink:href="#m61895177e6" y="77.724596"/>
     <use style="stroke:#000000;" x="66.572935" xlink:href="#m61895177e6" y="78.504246"/>
     <use style="stroke:#000000;" x="66.620618" xlink:href="#m61895177e6" y="79.278021"/>
     <use style="stroke:#000000;" x="66.668301" xlink:href="#m61895177e6" y="80.045987"/>
     <use style="stroke:#000000;" x="66.715984" xlink:href="#m61895177e6" y="80.80821"/>
     <use style="stroke:#000000;" x="66.763666" xlink:href="#m61895177e6" y="81.564755"/>
     <use style="stroke:#000000;" x="66.811349" xlink:href="#m61895177e6" y="82.315683"/>
     <use style="stroke:#000000;" x="66.859032" xlink:href="#m61895177e6" y="83.061057"/>
     <use style="stroke:#000000;" x="66.959166" xlink:href="#m61895177e6" y="84.608541"/>
     <use style="stroke:#000000;" x="67.0593" xlink:href="#m61895177e6" y="86.132358"/>
     <use style="stroke:#000000;" x="67.159434" xlink:href="#m61895177e6" y="87.633048"/>
     <use style="stroke:#000000;" x="67.259568" xlink:href="#m61895177e6" y="89.111134"/>
     <use style="stroke:#000000;" x="67.359703" xlink:href="#m61895177e6" y="90.567121"/>
     <use style="stroke:#000000;" x="67.459837" xlink:href="#m61895177e6" y="92.001502"/>
     <use style="stroke:#000000;" x="67.559971" xlink:href="#m61895177e6" y="93.414754"/>
     <use style="stroke:#000000;" x="67.660105" xlink:href="#m61895177e6" y="94.80734"/>
     <use style="stroke:#000000;" x="67.760239" xlink:href="#m61895177e6" y="96.179711"/>
     <use style="stroke:#000000;" x="67.931836" xlink:href="#m61895177e6" y="98.485743"/>
     <use style="stroke:#000000;" x="68.103432" xlink:href="#m61895177e6" y="100.735802"/>
     <use style="stroke:#000000;" x="68.275029" xlink:href="#m61895177e6" y="102.9319"/>
     <use style="stroke:#000000;" x="68.446625" xlink:href="#m61895177e6" y="105.075956"/>
     <use style="stroke:#000000;" x="68.618222" xlink:href="#m61895177e6" y="107.169796"/>
     <use style="stroke:#000000;" x="68.789818" xlink:href="#m61895177e6" y="109.215166"/>
     <use style="stroke:#000000;" x="68.961415" xlink:href="#m61895177e6" y="111.21373"/>
     <use style="stroke:#000000;" x="69.133011" xlink:href="#m61895177e6" y="113.167075"/>
     <use style="stroke:#000000;" x="69.399335" xlink:href="#m61895177e6" y="116.112724"/>
     <use style="stroke:#000000;" x="69.66566" xlink:href="#m61895177e6" y="118.958444"/>
     <use style="stroke:#000000;" x="69.931984" xlink:href="#m61895177e6" y="121.709236"/>
     <use style="stroke:#000000;" x="70.198308" xlink:href="#m61895177e6" y="124.369771"/>
     <use style="stroke:#000000;" x="70.464632" xlink:href="#m61895177e6" y="126.944421"/>
     <use style="stroke:#000000;" x="70.730956" xlink:href="#m61895177e6" y="129.437277"/>
     <use style="stroke:#000000;" x="70.997281" xlink:href="#m61895177e6" y="131.852177"/>
     <use style="stroke:#000000;" x="71.263605" xlink:href="#m61895177e6" y="134.192721"/>
     <use style="stroke:#000000;" x="71.529929" xlink:href="#m61895177e6" y="136.462291"/>
     <use style="stroke:#000000;" x="71.796253" xlink:href="#m61895177e6" y="138.664068"/>
     <use style="stroke:#000000;" x="72.062577" xlink:href="#m61895177e6" y="140.801043"/>
     <use style="stroke:#000000;" x="72.328901" xlink:href="#m61895177e6" y="142.876037"/>
     <use style="stroke:#000000;" x="72.595226" xlink:href="#m61895177e6" y="144.891707"/>
     <use style="stroke:#000000;" x="72.86155" xlink:href="#m61895177e6" y="146.850562"/>
     <use style="stroke:#000000;" x="73.127874" xlink:href="#m61895177e6" y="148.75497"/>
     <use style="stroke:#000000;" x="73.394198" xlink:href="#m61895177e6" y="150.607171"/>
     <use style="stroke:#000000;" x="73.660522" xlink:href="#m61895177e6" y="152.409282"/>
     <use style="stroke:#000000;" x="73.926847" xlink:href="#m61895177e6" y="154.163307"/>
     <use style="stroke:#000000;" x="74.193171" xlink:href="#m61895177e6" y="155.871147"/>
     <use style="stroke:#000000;" x="74.459495" xlink:href="#m61895177e6" y="157.534601"/>
     <use style="stroke:#000000;" x="74.725819" xlink:href="#m61895177e6" y="159.155379"/>
     <use style="stroke:#000000;" x="74.992143" xlink:href="#m61895177e6" y="160.7351"/>
     <use style="stroke:#000000;" x="75.258467" xlink:href="#m61895177e6" y="162.275306"/>
     <use style="stroke:#000000;" x="75.524792" xlink:href="#m61895177e6" y="163.777462"/>
     <use style="stroke:#000000;" x="75.791116" xlink:href="#m61895177e6" y="165.242959"/>
     <use style="stroke:#000000;" x="76.05744" xlink:href="#m61895177e6" y="166.673124"/>
     <use style="stroke:#000000;" x="76.323764" xlink:href="#m61895177e6" y="168.069219"/>
     <use style="stroke:#000000;" x="76.590088" xlink:href="#m61895177e6" y="169.432448"/>
     <use style="stroke:#000000;" x="76.990326" xlink:href="#m61895177e6" y="171.421829"/>
     <use style="stroke:#000000;" x="77.390563" xlink:href="#m61895177e6" y="173.343233"/>
     <use style="stroke:#000000;" x="77.790801" xlink:href="#m61895177e6" y="175.200084"/>
     <use style="stroke:#000000;" x="78.191038" xlink:href="#m61895177e6" y="176.995583"/>
     <use style="stroke:#000000;" x="78.591276" xlink:href="#m61895177e6" y="178.732721"/>
     <use style="stroke:#000000;" x="78.991513" xlink:href="#m61895177e6" y="180.414297"/>
     <use style="stroke:#000000;" x="79.39175" xlink:href="#m61895177e6" y="182.042936"/>
     <use style="stroke:#000000;" x="79.791988" xlink:href="#m61895177e6" y="183.621098"/>
     <use style="stroke:#000000;" x="80.192225" xlink:href="#m61895177e6" y="185.151094"/>
     <use style="stroke:#000000;" x="80.592463" xlink:href="#m61895177e6" y="186.635097"/>
     <use style="stroke:#000000;" x="80.9927" xlink:href="#m61895177e6" y="188.075148"/>
     <use style="stroke:#000000;" x="81.392938" xlink:href="#m61895177e6" y="189.473174"/>
     <use style="stroke:#000000;" x="81.793175" xlink:href="#m61895177e6" y="190.830986"/>
     <use style="stroke:#000000;" x="82.193412" xlink:href="#m61895177e6" y="192.150295"/>
     <use style="stroke:#000000;" x="82.59365" xlink:href="#m61895177e6" y="193.432716"/>
     <use style="stroke:#000000;" x="82.993887" xlink:href="#m61895177e6" y="194.679774"/>
     <use style="stroke:#000000;" x="83.394125" xlink:href="#m61895177e6" y="195.892913"/>
     <use style="stroke:#000000;" x="83.794362" xlink:href="#m61895177e6" y="197.073498"/>
     <use style="stroke:#000000;" x="84.1946" xlink:href="#m61895177e6" y="198.222822"/>
     <use style="stroke:#000000;" x="84.594837" xlink:href="#m61895177e6" y="199.34211"/>
     <use style="stroke:#000000;" x="84.995075" xlink:href="#m61895177e6" y="200.432525"/>
     <use style="stroke:#000000;" x="85.395312" xlink:href="#m61895177e6" y="201.495169"/>
     <use style="stroke:#000000;" x="85.795549" xlink:href="#m61895177e6" y="202.53109"/>
     <use style="stroke:#000000;" x="86.195787" xlink:href="#m61895177e6" y="203.541284"/>
     <use style="stroke:#000000;" x="86.799045" xlink:href="#m61895177e6" y="205.017364"/>
     <use style="stroke:#000000;" x="87.402303" xlink:href="#m61895177e6" y="206.440184"/>
     <use style="stroke:#000000;" x="88.005561" xlink:href="#m61895177e6" y="207.812574"/>
     <use style="stroke:#000000;" x="88.608819" xlink:href="#m61895177e6" y="209.13717"/>
     <use style="stroke:#000000;" x="89.212077" xlink:href="#m61895177e6" y="210.416426"/>
     <use style="stroke:#000000;" x="89.815336" xlink:href="#m61895177e6" y="211.65263"/>
     <use style="stroke:#000000;" x="90.418594" xlink:href="#m61895177e6" y="212.84792"/>
     <use style="stroke:#000000;" x="91.021852" xlink:href="#m61895177e6" y="214.004293"/>
     <use style="stroke:#000000;" x="91.62511" xlink:href="#m61895177e6" y="215.12362"/>
     <use style="stroke:#000000;" x="92.228368" xlink:href="#m61895177e6" y="216.207653"/>
     <use style="stroke:#000000;" x="92.831626" xlink:href="#m61895177e6" y="217.258035"/>
     <use style="stroke:#000000;" x="93.434884" xlink:href="#m61895177e6" y="218.27631"/>
     <use style="stroke:#000000;" x="94.038143" xlink:href="#m61895177e6" y="219.263927"/>
     <use style="stroke:#000000;" x="94.641401" xlink:href="#m61895177e6" y="220.22225"/>
     <use style="stroke:#000000;" x="95.244659" xlink:href="#m61895177e6" y="221.152564"/>
     <use style="stroke:#000000;" x="95.847917" xlink:href="#m61895177e6" y="222.056079"/>
     <use style="stroke:#000000;" x="96.451175" xlink:href="#m61895177e6" y="222.933936"/>
     <use style="stroke:#000000;" x="97.054433" xlink:href="#m61895177e6" y="223.787213"/>
     <use style="stroke:#000000;" x="97.657691" xlink:href="#m61895177e6" y="224.616929"/>
     <use style="stroke:#000000;" x="98.260949" xlink:href="#m61895177e6" y="225.424045"/>
     <use style="stroke:#000000;" x="98.864208" xlink:href="#m61895177e6" y="226.209473"/>
     <use style="stroke:#000000;" x="99.467466" xlink:href="#m61895177e6" y="226.974075"/>
     <use style="stroke:#000000;" x="100.070724" xlink:href="#m61895177e6" y="227.718669"/>
     <use style="stroke:#000000;" x="100.673982" xlink:href="#m61895177e6" y="228.44403"/>
     <use style="stroke:#000000;" x="101.594225" xlink:href="#m61895177e6" y="229.515141"/>
     <use style="stroke:#000000;" x="102.514468" xlink:href="#m61895177e6" y="230.545648"/>
     <use style="stroke:#000000;" x="103.43471" xlink:href="#m61895177e6" y="231.537816"/>
     <use style="stroke:#000000;" x="104.354953" xlink:href="#m61895177e6" y="232.493745"/>
     <use style="stroke:#000000;" x="105.275196" xlink:href="#m61895177e6" y="233.415386"/>
     <use style="stroke:#000000;" x="106.195439" xlink:href="#m61895177e6" y="234.304551"/>
     <use style="stroke:#000000;" x="107.115681" xlink:href="#m61895177e6" y="235.162926"/>
     <use style="stroke:#000000;" x="108.035924" xlink:href="#m61895177e6" y="235.992084"/>
     <use style="stroke:#000000;" x="108.956167" xlink:href="#m61895177e6" y="236.793491"/>
     <use style="stroke:#000000;" x="109.87641" xlink:href="#m61895177e6" y="237.568518"/>
     <use style="stroke:#000000;" x="110.796653" xlink:href="#m61895177e6" y="238.318446"/>
     <use style="stroke:#000000;" x="111.716895" xlink:href="#m61895177e6" y="239.044475"/>
     <use style="stroke:#000000;" x="112.637138" xlink:href="#m61895177e6" y="239.747729"/>
     <use style="stroke:#000000;" x="113.557381" xlink:href="#m61895177e6" y="240.429264"/>
     <use style="stroke:#000000;" x="114.477624" xlink:href="#m61895177e6" y="241.09007"/>
     <use style="stroke:#000000;" x="115.397867" xlink:href="#m61895177e6" y="241.731079"/>
     <use style="stroke:#000000;" x="116.318109" xlink:href="#m61895177e6" y="242.353168"/>
     <use style="stroke:#000000;" x="117.238352" xlink:href="#m61895177e6" y="242.957161"/>
     <use style="stroke:#000000;" x="118.158595" xlink:href="#m61895177e6" y="243.543837"/>
     <use style="stroke:#000000;" x="119.078838" xlink:href="#m61895177e6" y="244.113931"/>
     <use style="stroke:#000000;" x="119.999081" xlink:href="#m61895177e6" y="244.668136"/>
     <use style="stroke:#000000;" x="120.919323" xlink:href="#m61895177e6" y="245.207106"/>
     <use style="stroke:#000000;" x="122.313209" xlink:href="#m61895177e6" y="245.99584"/>
     <use style="stroke:#000000;" x="123.707095" xlink:href="#m61895177e6" y="246.753046"/>
     <use style="stroke:#000000;" x="125.10098" xlink:href="#m61895177e6" y="247.480577"/>
     <use style="stroke:#000000;" x="126.494866" xlink:href="#m61895177e6" y="248.180146"/>
     <use style="stroke:#000000;" x="127.888751" xlink:href="#m61895177e6" y="248.853333"/>
     <use style="stroke:#000000;" x="129.282637" xlink:href="#m61895177e6" y="249.501604"/>
     <use style="stroke:#000000;" x="130.676522" xlink:href="#m61895177e6" y="250.126316"/>
     <use style="stroke:#000000;" x="132.070408" xlink:href="#m61895177e6" y="250.72873"/>
     <use style="stroke:#000000;" x="133.464293" xlink:href="#m61895177e6" y="251.31002"/>
     <use style="stroke:#000000;" x="134.858179" xlink:href="#m61895177e6" y="251.871277"/>
     <use style="stroke:#000000;" x="136.252065" xlink:href="#m61895177e6" y="252.41352"/>
     <use style="stroke:#000000;" x="137.64595" xlink:href="#m61895177e6" y="252.937699"/>
     <use style="stroke:#000000;" x="139.039836" xlink:href="#m61895177e6" y="253.444701"/>
     <use style="stroke:#000000;" x="140.433721" xlink:href="#m61895177e6" y="253.935358"/>
     <use style="stroke:#000000;" x="141.827607" xlink:href="#m61895177e6" y="254.410446"/>
     <use style="stroke:#000000;" x="143.221492" xlink:href="#m61895177e6" y="254.870696"/>
     <use style="stroke:#000000;" x="144.615378" xlink:href="#m61895177e6" y="255.316793"/>
     <use style="stroke:#000000;" x="146.009263" xlink:href="#m61895177e6" y="255.749378"/>
     <use style="stroke:#000000;" x="147.403149" xlink:href="#m61895177e6" y="256.169057"/>
     <use style="stroke:#000000;" x="148.797035" xlink:href="#m61895177e6" y="256.576398"/>
     <use style="stroke:#000000;" x="150.19092" xlink:href="#m61895177e6" y="256.971939"/>
     <use style="stroke:#000000;" x="152.306577" xlink:href="#m61895177e6" y="257.55087"/>
     <use style="stroke:#000000;" x="154.422233" xlink:href="#m61895177e6" y="258.105416"/>
     <use style="stroke:#000000;" x="156.537889" xlink:href="#m61895177e6" y="258.637087"/>
     <use style="stroke:#000000;" x="158.653546" xlink:href="#m61895177e6" y="259.147268"/>
     <use style="stroke:#000000;" x="160.769202" xlink:href="#m61895177e6" y="259.637238"/>
     <use style="stroke:#000000;" x="162.884858" xlink:href="#m61895177e6" y="260.108173"/>
     <use style="stroke:#000000;" x="165.000515" xlink:href="#m61895177e6" y="260.561162"/>
     <use style="stroke:#000000;" x="167.116171" xlink:href="#m61895177e6" y="260.997212"/>
     <use style="stroke:#000000;" x="169.231828" xlink:href="#m61895177e6" y="261.417255"/>
     <use style="stroke:#000000;" x="171.347484" xlink:href="#m61895177e6" y="261.822156"/>
     <use style="stroke:#000000;" x="173.46314" xlink:href="#m61895177e6" y="262.212721"/>
     <use style="stroke:#000000;" x="175.578797" xlink:href="#m61895177e6" y="262.589696"/>
     <use style="stroke:#000000;" x="177.694453" xlink:href="#m61895177e6" y="262.95378"/>
     <use style="stroke:#000000;" x="179.810109" xlink:href="#m61895177e6" y="263.305622"/>
     <use style="stroke:#000000;" x="181.925766" xlink:href="#m61895177e6" y="263.64583"/>
     <use style="stroke:#000000;" x="184.041422" xlink:href="#m61895177e6" y="263.974971"/>
     <use style="stroke:#000000;" x="186.157079" xlink:href="#m61895177e6" y="264.293577"/>
     <use style="stroke:#000000;" x="188.272735" xlink:href="#m61895177e6" y="264.602145"/>
     <use style="stroke:#000000;" x="190.388391" xlink:href="#m61895177e6" y="264.901142"/>
     <use style="stroke:#000000;" x="192.504048" xlink:href="#m61895177e6" y="265.191008"/>
     <use style="stroke:#000000;" x="195.737692" xlink:href="#m61895177e6" y="265.617332"/>
     <use style="stroke:#000000;" x="198.971336" xlink:href="#m61895177e6" y="266.024642"/>
     <use style="stroke:#000000;" x="202.20498" xlink:href="#m61895177e6" y="266.414182"/>
     <use style="stroke:#000000;" x="205.438625" xlink:href="#m61895177e6" y="266.78709"/>
     <use style="stroke:#000000;" x="208.672269" xlink:href="#m61895177e6" y="267.14441"/>
     <use style="stroke:#000000;" x="211.905913" xlink:href="#m61895177e6" y="267.487099"/>
     <use style="stroke:#000000;" x="215.139557" xlink:href="#m61895177e6" y="267.816037"/>
     <use style="stroke:#000000;" x="218.373202" xlink:href="#m61895177e6" y="268.132035"/>
     <use style="stroke:#000000;" x="221.606846" xlink:href="#m61895177e6" y="268.435843"/>
     <use style="stroke:#000000;" x="224.84049" xlink:href="#m61895177e6" y="268.728153"/>
     <use style="stroke:#000000;" x="228.074134" xlink:href="#m61895177e6" y="269.009605"/>
     <use style="stroke:#000000;" x="231.307779" xlink:href="#m61895177e6" y="269.280793"/>
     <use style="stroke:#000000;" x="234.541423" xlink:href="#m61895177e6" y="269.542268"/>
     <use style="stroke:#000000;" x="237.775067" xlink:href="#m61895177e6" y="269.794544"/>
     <use style="stroke:#000000;" x="241.008711" xlink:href="#m61895177e6" y="270.038097"/>
     <use style="stroke:#000000;" x="244.242355" xlink:href="#m61895177e6" y="270.273372"/>
     <use style="stroke:#000000;" x="247.476" xlink:href="#m61895177e6" y="270.500783"/>
     <use style="stroke:#000000;" x="250.709644" xlink:href="#m61895177e6" y="270.72072"/>
     <use style="stroke:#000000;" x="253.943288" xlink:href="#m61895177e6" y="270.933543"/>
     <use style="stroke:#000000;" x="258.818169" xlink:href="#m61895177e6" y="271.241686"/>
     <use style="stroke:#000000;" x="263.693051" xlink:href="#m61895177e6" y="271.535504"/>
     <use style="stroke:#000000;" x="268.567932" xlink:href="#m61895177e6" y="271.815973"/>
     <use style="stroke:#000000;" x="273.442813" xlink:href="#m61895177e6" y="272.083983"/>
     <use style="stroke:#000000;" x="278.317694" xlink:href="#m61895177e6" y="272.340346"/>
     <use style="stroke:#000000;" x="283.192575" xlink:href="#m61895177e6" y="272.585806"/>
     <use style="stroke:#000000;" x="288.067457" xlink:href="#m61895177e6" y="272.821042"/>
     <use style="stroke:#000000;" x="292.942338" xlink:href="#m61895177e6" y="273.046682"/>
     <use style="stroke:#000000;" x="297.817219" xlink:href="#m61895177e6" y="273.2633"/>
     <use style="stroke:#000000;" x="302.6921" xlink:href="#m61895177e6" y="273.471427"/>
    </g>
   </g>
   <g id="line2d_18">
    <path clip-path="url(#p47b93d6009)" d="M 66.376477 84.152471 
L 67.561123 101.206914 
L 68.876191 117.023318 
L 70.191259 130.319215 
L 71.506326 141.652631 
L 73.040572 152.928293 
L 74.633767 162.88899 
L 76.007784 170.337395 
L 77.634459 178.05048 
L 79.261134 184.782349 
L 80.887809 190.709039 
L 82.514484 195.966855 
L 84.683384 202.118815 
L 86.852284 207.466121 
L 89.021184 212.156949 
L 91.190084 216.305198 
L 93.643184 220.454261 
L 96.122458 224.160178 
L 98.601732 227.456956 
L 101.081006 230.408803 
L 103.56028 233.06716 
L 106.865978 236.226048 
L 109.345252 238.348963 
L 113.071507 241.206197 
L 116.797762 243.726023 
L 120.524016 245.964875 
L 124.250271 247.967266 
L 129.218611 250.329781 
L 134.186951 252.400667 
L 139.847881 254.469139 
L 145.50881 256.282558 
L 151.16974 257.885358 
L 158.717647 259.753658 
L 166.265553 261.37143 
L 172.908281 262.625721 
L 181.514606 264.056917 
L 192.989705 265.690086 
L 204.464805 267.074663 
L 218.808679 268.534758 
L 234.655529 269.878729 
L 251.95963 271.100912 
L 273.589756 272.358151 
L 297.462195 273.486718 
L 323.735548 274.498141 
L 356.577239 275.51567 
L 389.418931 276.334125 
L 389.418931 276.334125 
" style="fill:none;stroke:#0000ff;stroke-linecap:square;stroke-width:1.5;"/>
   </g>
   <g id="line2d_19">
    <path clip-path="url(#p47b93d6009)" d="M 66.376477 84.341766 
L 68.151603 96.199634 
L 69.970057 106.969566 
L 71.910311 117.176608 
L 73.850564 126.270174 
L 75.790818 134.423038 
L 77.731071 141.773982 
L 80.156388 150.004767 
L 82.372101 156.73275 
L 84.653673 162.988844 
L 86.935245 168.6582 
L 88.895402 173.120708 
L 91.294669 178.133726 
L 93.693936 182.712642 
L 96.093203 186.9115 
L 98.492469 190.775729 
L 100.891736 194.343799 
L 104.490636 199.211032 
L 108.089537 203.576409 
L 111.688437 207.513741 
L 115.287337 211.083043 
L 118.886238 214.333609 
L 122.485138 217.306309 
L 126.713494 220.489796 
L 130.371673 223.008128 
L 134.029852 225.334024 
L 139.51712 228.507685 
L 145.004389 231.354983 
L 150.491657 233.923798 
L 155.978925 236.253081 
L 161.466194 238.374841 
L 166.964166 240.319253 
L 175.211124 242.943092 
L 183.458082 245.268822 
L 191.70504 247.344515 
L 199.951998 249.208436 
L 210.947942 251.416688 
L 220.622152 253.139259 
L 233.150867 255.115912 
L 245.679583 256.853744 
L 258.208298 258.393569 
L 274.913251 260.193021 
L 291.618205 261.755156 
L 308.492654 263.137036 
L 327.53997 264.503144 
L 352.936391 266.067339 
L 378.332812 267.397887 
L 391.031023 267.991314 
L 391.031023 267.991314 
" style="fill:none;stroke:#ff0000;stroke-linecap:square;stroke-width:1.5;"/>
   </g>
   <g id="line2d_20">
    <path clip-path="url(#p47b93d6009)" d="M 66.376477 34.414125 
L 67.459837 57.088864 
L 68.618222 76.844305 
L 69.931984 95.112446 
L 71.263605 110.332148 
L 72.595226 123.059829 
L 73.926847 133.891352 
L 75.524792 144.957569 
L 76.990326 153.649988 
L 78.591276 161.907953 
L 80.192225 169.120635 
L 82.193412 176.960852 
L 84.1946 183.755513 
L 86.195787 189.704308 
L 88.005561 194.489884 
L 90.418594 200.136607 
L 92.831626 205.103152 
L 95.244659 209.498022 
L 97.657691 213.41797 
L 100.070724 216.942864 
L 102.514468 220.165238 
L 105.275196 223.450097 
L 108.035924 226.406477 
L 110.796653 229.085394 
L 113.557381 231.523007 
L 117.238352 234.454591 
L 120.919323 237.07468 
L 125.10098 239.730854 
L 129.282637 242.102547 
L 133.464293 244.228285 
L 139.039836 246.746013 
L 144.615378 248.964362 
L 150.19092 250.932522 
L 156.537889 252.919856 
L 162.884858 254.679197 
L 169.231828 256.248871 
L 177.694453 258.095622 
L 186.157079 259.711975 
L 195.737692 261.315394 
L 205.438625 262.732593 
L 218.373202 264.368694 
L 231.307779 265.768012 
L 247.476 267.260493 
L 263.693051 268.527092 
L 283.192575 269.817215 
L 302.6921 270.906313 
L 302.6921 270.906313 
" style="fill:none;stroke:#0000ff;stroke-dasharray:5.55,2.4;stroke-dashoffset:0;stroke-width:1.5;"/>
   </g>
   <g id="line2d_21">
    <path clip-path="url(#p47b93d6009)" d="M 66.376477 123.974114 
L 67.760239 137.306137 
L 69.399335 150.940191 
L 70.997281 162.334043 
L 72.595226 172.16612 
L 74.193171 180.673674 
L 75.791116 188.088134 
L 77.390563 194.589286 
L 78.991513 200.32861 
L 80.9927 206.597229 
L 82.993887 212.030254 
L 84.995075 216.774125 
L 86.799045 220.562578 
L 88.608819 223.966216 
L 91.021852 227.986411 
L 93.434884 231.509598 
L 95.847917 234.623855 
L 98.260949 237.394941 
L 100.673982 239.873615 
L 103.43471 242.410292 
L 106.195439 244.671255 
L 108.956167 246.699535 
L 112.637138 249.100625 
L 116.318109 251.214416 
L 119.999081 253.086738 
L 123.707095 254.768951 
L 127.888751 256.460945 
L 133.464293 258.430923 
L 139.039836 260.137213 
L 144.615378 261.631386 
L 150.19092 262.948858 
L 158.653546 264.677041 
L 167.116171 266.139759 
L 175.578797 267.397106 
L 186.157079 268.737276 
L 198.971336 270.097403 
L 211.905913 271.241886 
L 228.074134 272.430253 
L 247.476 273.59359 
L 268.567932 274.615422 
L 292.942338 275.569003 
L 302.6921 275.898334 
L 302.6921 275.898334 
" style="fill:none;stroke:#0000ff;stroke-dasharray:5.55,2.4;stroke-dashoffset:0;stroke-width:1.5;"/>
   </g>
   <g id="line2d_22"/>
   <g id="line2d_23"/>
   <g id="line2d_24"/>
   <g id="line2d_25"/>
   <g id="patch_3">
    <path d="M 50.14375 288.430125 
L 50.14375 22.318125 
" style="fill:none;stroke:#000000;stroke-linecap:square;stroke-linejoin:miter;stroke-width:0.8;"/>
   </g>
   <g id="patch_4">
    <path d="M 407.26375 288.430125 
L 407.26375 22.318125 
" style="fill:none;stroke:#000000;stroke-linecap:square;stroke-linejoin:miter;stroke-width:0.8;"/>
   </g>
   <g id="patch_5">
    <path d="M 50.14375 288.430125 
L 407.26375 288.430125 
" style="fill:none;stroke:#000000;stroke-linecap:square;stroke-linejoin:miter;stroke-width:0.8;"/>
   </g>
   <g id="patch_6">
    <path d="M 50.14375 22.318125 
L 407.26375 22.318125 
" style="fill:none;stroke:#000000;stroke-linecap:square;stroke-linejoin:miter;stroke-width:0.8;"/>
   </g>
   <g id="text_19">
    <!-- Experiment_112 -->
    <g transform="translate(179.583438 16.318125)scale(0.12 -0.12)">
     <defs>
      <path d="M 9.8125 72.90625 
L 55.90625 72.90625 
L 55.90625 64.59375 
L 19.671875 64.59375 
L 19.671875 43.015625 
L 54.390625 43.015625 
L 54.390625 34.71875 
L 19.671875 34.71875 
L 19.671875 8.296875 
L 56.78125 8.296875 
L 56.78125 0 
L 9.8125 0 
z
" id="DejaVuSans-69"/>
      <path d="M 54.890625 54.6875 
L 35.109375 28.078125 
L 55.90625 0 
L 45.3125 0 
L 29.390625 21.484375 
L 13.484375 0 
L 2.875 0 
L 24.125 28.609375 
L 4.6875 54.6875 
L 15.28125 54.6875 
L 29.78125 35.203125 
L 44.28125 54.6875 
z
" id="DejaVuSans-120"/>
      <path d="M 18.109375 8.203125 
L 18.109375 -20.796875 
L 9.078125 -20.796875 
L 9.078125 54.6875 
L 18.109375 54.6875 
L 18.109375 46.390625 
Q 20.953125 51.265625 25.265625 53.625 
Q 29.59375 56 35.59375 56 
Q 45.5625 56 51.78125 48.09375 
Q 58.015625 40.1875 58.015625 27.296875 
Q 58.015625 14.40625 51.78125 6.484375 
Q 45.5625 -1.421875 35.59375 -1.421875 
Q 29.59375 -1.421875 25.265625 0.953125 
Q 20.953125 3.328125 18.109375 8.203125 
z
M 48.6875 27.296875 
Q 48.6875 37.203125 44.609375 42.84375 
Q 40.53125 48.484375 33.40625 48.484375 
Q 26.265625 48.484375 22.1875 42.84375 
Q 18.109375 37.203125 18.109375 27.296875 
Q 18.109375 17.390625 22.1875 11.75 
Q 26.265625 6.109375 33.40625 6.109375 
Q 40.53125 6.109375 44.609375 11.75 
Q 48.6875 17.390625 48.6875 27.296875 
z
" id="DejaVuSans-112"/>
      <path d="M 18.3125 70.21875 
L 18.3125 54.6875 
L 36.8125 54.6875 
L 36.8125 47.703125 
L 18.3125 47.703125 
L 18.3125 18.015625 
Q 18.3125 11.328125 20.140625 9.421875 
Q 21.96875 7.515625 27.59375 7.515625 
L 36.8125 7.515625 
L 36.8125 0 
L 27.59375 0 
Q 17.1875 0 13.234375 3.875 
Q 9.28125 7.765625 9.28125 18.015625 
L 9.28125 47.703125 
L 2.6875 47.703125 
L 2.6875 54.6875 
L 9.28125 54.6875 
L 9.28125 70.21875 
z
" id="DejaVuSans-116"/>
      <path d="M 50.984375 -16.609375 
L 50.984375 -23.578125 
L -0.984375 -23.578125 
L -0.984375 -16.609375 
z
" id="DejaVuSans-95"/>
     </defs>
     <use xlink:href="#DejaVuSans-69"/>
     <use x="63.183594" xlink:href="#DejaVuSans-120"/>
     <use x="122.363281" xlink:href="#DejaVuSans-112"/>
     <use x="185.839844" xlink:href="#DejaVuSans-101"/>
     <use x="247.363281" xlink:href="#DejaVuSans-114"/>
     <use x="288.476562" xlink:href="#DejaVuSans-105"/>
     <use x="316.259766" xlink:href="#DejaVuSans-109"/>
     <use x="413.671875" xlink:href="#DejaVuSans-101"/>
     <use x="475.195312" xlink:href="#DejaVuSans-110"/>
     <use x="538.574219" xlink:href="#DejaVuSans-116"/>
     <use x="577.783203" xlink:href="#DejaVuSans-95"/>
     <use x="627.783203" xlink:href="#DejaVuSans-49"/>
     <use x="691.40625" xlink:href="#DejaVuSans-49"/>
     <use x="755.029297" xlink:href="#DejaVuSans-50"/>
    </g>
   </g>
   <g id="legend_1">
    <g id="patch_7">
     <path d="M 65.284062 89.0525 
L 400.26375 89.0525 
Q 402.26375 89.0525 402.26375 87.0525 
L 402.26375 29.318125 
Q 402.26375 27.318125 400.26375 27.318125 
L 65.284062 27.318125 
Q 63.284062 27.318125 63.284062 29.318125 
L 63.284062 87.0525 
Q 63.284062 89.0525 65.284062 89.0525 
z
" style="fill:#ffffff;opacity:0.8;stroke:#cccccc;stroke-linejoin:miter;"/>
    </g>
    <g id="line2d_26"/>
    <g id="line2d_27">
     <g>
      <use style="stroke:#000000;" x="77.284062" xlink:href="#m61895177e6" y="35.416562"/>
     </g>
    </g>
    <g id="text_20">
     <!-- Experimental Data -->
     <g transform="translate(95.284062 38.916562)scale(0.1 -0.1)">
      <defs>
       <path d="M 9.421875 75.984375 
L 18.40625 75.984375 
L 18.40625 0 
L 9.421875 0 
z
" id="DejaVuSans-108"/>
       <path d="M 19.671875 64.796875 
L 19.671875 8.109375 
L 31.59375 8.109375 
Q 46.6875 8.109375 53.6875 14.9375 
Q 60.6875 21.78125 60.6875 36.53125 
Q 60.6875 51.171875 53.6875 57.984375 
Q 46.6875 64.796875 31.59375 64.796875 
z
M 9.8125 72.90625 
L 30.078125 72.90625 
Q 51.265625 72.90625 61.171875 64.09375 
Q 71.09375 55.28125 71.09375 36.53125 
Q 71.09375 17.671875 61.125 8.828125 
Q 51.171875 0 30.078125 0 
L 9.8125 0 
z
" id="DejaVuSans-68"/>
      </defs>
      <use xlink:href="#DejaVuSans-69"/>
      <use x="63.183594" xlink:href="#DejaVuSans-120"/>
      <use x="122.363281" xlink:href="#DejaVuSans-112"/>
      <use x="185.839844" xlink:href="#DejaVuSans-101"/>
      <use x="247.363281" xlink:href="#DejaVuSans-114"/>
      <use x="288.476562" xlink:href="#DejaVuSans-105"/>
      <use x="316.259766" xlink:href="#DejaVuSans-109"/>
      <use x="413.671875" xlink:href="#DejaVuSans-101"/>
      <use x="475.195312" xlink:href="#DejaVuSans-110"/>
      <use x="538.574219" xlink:href="#DejaVuSans-116"/>
      <use x="577.783203" xlink:href="#DejaVuSans-97"/>
      <use x="639.0625" xlink:href="#DejaVuSans-108"/>
      <use x="666.845703" xlink:href="#DejaVuSans-32"/>
      <use x="698.632812" xlink:href="#DejaVuSans-68"/>
      <use x="775.634766" xlink:href="#DejaVuSans-97"/>
      <use x="836.914062" xlink:href="#DejaVuSans-116"/>
      <use x="876.123047" xlink:href="#DejaVuSans-97"/>
     </g>
    </g>
    <g id="line2d_28">
     <path d="M 67.284062 50.094688 
L 87.284062 50.094688 
" style="fill:none;stroke:#0000ff;stroke-linecap:square;stroke-width:1.5;"/>
    </g>
    <g id="line2d_29"/>
    <g id="text_21">
     <!-- MSI -->
     <g transform="translate(95.284062 53.594688)scale(0.1 -0.1)">
      <defs>
       <path d="M 9.8125 72.90625 
L 24.515625 72.90625 
L 43.109375 23.296875 
L 61.8125 72.90625 
L 76.515625 72.90625 
L 76.515625 0 
L 66.890625 0 
L 66.890625 64.015625 
L 48.09375 14.015625 
L 38.1875 14.015625 
L 19.390625 64.015625 
L 19.390625 0 
L 9.8125 0 
z
" id="DejaVuSans-77"/>
       <path d="M 53.515625 70.515625 
L 53.515625 60.890625 
Q 47.90625 63.578125 42.921875 64.890625 
Q 37.9375 66.21875 33.296875 66.21875 
Q 25.25 66.21875 20.875 63.09375 
Q 16.5 59.96875 16.5 54.203125 
Q 16.5 49.359375 19.40625 46.890625 
Q 22.3125 44.4375 30.421875 42.921875 
L 36.375 41.703125 
Q 47.40625 39.59375 52.65625 34.296875 
Q 57.90625 29 57.90625 20.125 
Q 57.90625 9.515625 50.796875 4.046875 
Q 43.703125 -1.421875 29.984375 -1.421875 
Q 24.8125 -1.421875 18.96875 -0.25 
Q 13.140625 0.921875 6.890625 3.21875 
L 6.890625 13.375 
Q 12.890625 10.015625 18.65625 8.296875 
Q 24.421875 6.59375 29.984375 6.59375 
Q 38.421875 6.59375 43.015625 9.90625 
Q 47.609375 13.234375 47.609375 19.390625 
Q 47.609375 24.75 44.3125 27.78125 
Q 41.015625 30.8125 33.5 32.328125 
L 27.484375 33.5 
Q 16.453125 35.6875 11.515625 40.375 
Q 6.59375 45.0625 6.59375 53.421875 
Q 6.59375 63.09375 13.40625 68.65625 
Q 20.21875 74.21875 32.171875 74.21875 
Q 37.3125 74.21875 42.625 73.28125 
Q 47.953125 72.359375 53.515625 70.515625 
z
" id="DejaVuSans-83"/>
       <path d="M 9.8125 72.90625 
L 19.671875 72.90625 
L 19.671875 0 
L 9.8125 0 
z
" id="DejaVuSans-73"/>
      </defs>
      <use xlink:href="#DejaVuSans-77"/>
      <use x="86.279297" xlink:href="#DejaVuSans-83"/>
      <use x="149.755859" xlink:href="#DejaVuSans-73"/>
     </g>
    </g>
    <g id="line2d_30">
     <path d="M 67.284062 64.774375 
L 87.284062 64.774375 
" style="fill:none;stroke:#ff0000;stroke-linecap:square;stroke-width:1.5;"/>
    </g>
    <g id="line2d_31"/>
    <g id="text_22">
     <!-- $\it{A priori}$ model -->
     <g transform="translate(95.284062 68.274375)scale(0.1 -0.1)">
      <defs>
       <path d="M 36.8125 72.90625 
L 48 72.90625 
L 61.53125 0 
L 51.21875 0 
L 48.1875 18.703125 
L 15.375 18.703125 
L 5.078125 0 
L -5.328125 0 
z
M 40.375 63.1875 
L 19.921875 26.90625 
L 46.6875 26.90625 
z
" id="DejaVuSans-Oblique-65"/>
       <path d="M 49.609375 33.6875 
Q 49.609375 40.875 46.484375 44.671875 
Q 43.359375 48.484375 37.5 48.484375 
Q 33.5 48.484375 29.859375 46.4375 
Q 26.21875 44.390625 23.390625 40.484375 
Q 20.609375 36.625 18.9375 31.15625 
Q 17.28125 25.6875 17.28125 20.3125 
Q 17.28125 13.484375 20.40625 9.796875 
Q 23.53125 6.109375 29.296875 6.109375 
Q 33.546875 6.109375 37.1875 8.109375 
Q 40.828125 10.109375 43.40625 13.921875 
Q 46.1875 17.921875 47.890625 23.34375 
Q 49.609375 28.765625 49.609375 33.6875 
z
M 21.78125 46.390625 
Q 25.390625 51.125 30.296875 53.5625 
Q 35.203125 56 41.21875 56 
Q 49.609375 56 54.25 50.5 
Q 58.890625 45.015625 58.890625 35.109375 
Q 58.890625 27 56 19.65625 
Q 53.125 12.3125 47.703125 6.5 
Q 44.09375 2.640625 39.546875 0.609375 
Q 35.015625 -1.421875 29.984375 -1.421875 
Q 24.171875 -1.421875 20.21875 1 
Q 16.265625 3.421875 14.3125 8.203125 
L 8.6875 -20.796875 
L -0.296875 -20.796875 
L 14.40625 54.6875 
L 23.390625 54.6875 
z
" id="DejaVuSans-Oblique-112"/>
       <path d="M 44.578125 46.390625 
Q 43.21875 47.125 41.453125 47.515625 
Q 39.703125 47.90625 37.703125 47.90625 
Q 30.515625 47.90625 25.140625 42.453125 
Q 19.78125 37.015625 18.015625 27.875 
L 12.5 0 
L 3.515625 0 
L 14.203125 54.6875 
L 23.1875 54.6875 
L 21.484375 46.1875 
Q 25.046875 50.921875 30 53.453125 
Q 34.96875 56 40.578125 56 
Q 42.046875 56 43.453125 55.828125 
Q 44.875 55.671875 46.296875 55.28125 
z
" id="DejaVuSans-Oblique-114"/>
       <path d="M 18.3125 75.984375 
L 27.296875 75.984375 
L 25.09375 64.59375 
L 16.109375 64.59375 
z
M 14.203125 54.6875 
L 23.1875 54.6875 
L 12.5 0 
L 3.515625 0 
z
" id="DejaVuSans-Oblique-105"/>
       <path d="M 25.390625 -1.421875 
Q 15.765625 -1.421875 10.171875 4.515625 
Q 4.59375 10.453125 4.59375 20.703125 
Q 4.59375 26.65625 6.515625 32.828125 
Q 8.453125 39.015625 11.53125 43.21875 
Q 16.359375 49.75 22.3125 52.875 
Q 28.265625 56 35.796875 56 
Q 45.125 56 50.859375 50.1875 
Q 56.59375 44.390625 56.59375 35.015625 
Q 56.59375 28.515625 54.6875 22.0625 
Q 52.78125 15.625 49.703125 11.375 
Q 44.921875 4.828125 38.96875 1.703125 
Q 33.015625 -1.421875 25.390625 -1.421875 
z
M 13.921875 21 
Q 13.921875 13.578125 17.015625 9.890625 
Q 20.125 6.203125 26.421875 6.203125 
Q 35.453125 6.203125 41.375 14.078125 
Q 47.3125 21.96875 47.3125 34.078125 
Q 47.3125 41.15625 44.140625 44.765625 
Q 40.96875 48.390625 34.8125 48.390625 
Q 29.734375 48.390625 25.78125 46.015625 
Q 21.828125 43.65625 18.703125 38.8125 
Q 16.40625 35.203125 15.15625 30.5625 
Q 13.921875 25.921875 13.921875 21 
z
" id="DejaVuSans-Oblique-111"/>
       <path d="M 45.40625 46.390625 
L 45.40625 75.984375 
L 54.390625 75.984375 
L 54.390625 0 
L 45.40625 0 
L 45.40625 8.203125 
Q 42.578125 3.328125 38.25 0.953125 
Q 33.9375 -1.421875 27.875 -1.421875 
Q 17.96875 -1.421875 11.734375 6.484375 
Q 5.515625 14.40625 5.515625 27.296875 
Q 5.515625 40.1875 11.734375 48.09375 
Q 17.96875 56 27.875 56 
Q 33.9375 56 38.25 53.625 
Q 42.578125 51.265625 45.40625 46.390625 
z
M 14.796875 27.296875 
Q 14.796875 17.390625 18.875 11.75 
Q 22.953125 6.109375 30.078125 6.109375 
Q 37.203125 6.109375 41.296875 11.75 
Q 45.40625 17.390625 45.40625 27.296875 
Q 45.40625 37.203125 41.296875 42.84375 
Q 37.203125 48.484375 30.078125 48.484375 
Q 22.953125 48.484375 18.875 42.84375 
Q 14.796875 37.203125 14.796875 27.296875 
z
" id="DejaVuSans-100"/>
      </defs>
      <use transform="translate(0 0.015625)" xlink:href="#DejaVuSans-Oblique-65"/>
      <use transform="translate(68.408203 0.015625)" xlink:href="#DejaVuSans-Oblique-112"/>
      <use transform="translate(131.884766 0.015625)" xlink:href="#DejaVuSans-Oblique-114"/>
      <use transform="translate(172.998047 0.015625)" xlink:href="#DejaVuSans-Oblique-105"/>
      <use transform="translate(200.78125 0.015625)" xlink:href="#DejaVuSans-Oblique-111"/>
      <use transform="translate(261.962891 0.015625)" xlink:href="#DejaVuSans-Oblique-114"/>
      <use transform="translate(303.076172 0.015625)" xlink:href="#DejaVuSans-Oblique-105"/>
      <use transform="translate(330.859375 0.015625)" xlink:href="#DejaVuSans-32"/>
      <use transform="translate(362.646484 0.015625)" xlink:href="#DejaVuSans-109"/>
      <use transform="translate(460.058594 0.015625)" xlink:href="#DejaVuSans-111"/>
      <use transform="translate(521.240234 0.015625)" xlink:href="#DejaVuSans-100"/>
      <use transform="translate(584.716797 0.015625)" xlink:href="#DejaVuSans-101"/>
      <use transform="translate(646.240234 0.015625)" xlink:href="#DejaVuSans-108"/>
     </g>
    </g>
    <g id="line2d_32">
     <path d="M 67.284062 79.472813 
L 87.284062 79.472813 
" style="fill:none;stroke:#ffffff;stroke-linecap:square;stroke-width:1.5;"/>
    </g>
    <g id="line2d_33"/>
    <g id="text_23">
     <!-- T:354.0 -->
     <g transform="translate(95.284062 82.972813)scale(0.1 -0.1)">
      <defs>
       <path d="M 11.71875 12.40625 
L 22.015625 12.40625 
L 22.015625 0 
L 11.71875 0 
z
M 11.71875 51.703125 
L 22.015625 51.703125 
L 22.015625 39.3125 
L 11.71875 39.3125 
z
" id="DejaVuSans-58"/>
      </defs>
      <use xlink:href="#DejaVuSans-84"/>
      <use x="50.083984" xlink:href="#DejaVuSans-58"/>
      <use x="83.775391" xlink:href="#DejaVuSans-51"/>
      <use x="147.398438" xlink:href="#DejaVuSans-53"/>
      <use x="211.021484" xlink:href="#DejaVuSans-52"/>
      <use x="274.644531" xlink:href="#DejaVuSans-46"/>
      <use x="306.431641" xlink:href="#DejaVuSans-48"/>
     </g>
    </g>
    <g id="line2d_34">
     <path d="M 209.024687 35.416562 
L 229.024687 35.416562 
" style="fill:none;stroke:#ffffff;stroke-linecap:square;stroke-width:1.5;"/>
    </g>
    <g id="line2d_35"/>
    <g id="text_24">
     <!-- P:2.82 -->
     <g transform="translate(237.024687 38.916562)scale(0.1 -0.1)">
      <defs>
       <path d="M 19.671875 64.796875 
L 19.671875 37.40625 
L 32.078125 37.40625 
Q 38.96875 37.40625 42.71875 40.96875 
Q 46.484375 44.53125 46.484375 51.125 
Q 46.484375 57.671875 42.71875 61.234375 
Q 38.96875 64.796875 32.078125 64.796875 
z
M 9.8125 72.90625 
L 32.078125 72.90625 
Q 44.34375 72.90625 50.609375 67.359375 
Q 56.890625 61.8125 56.890625 51.125 
Q 56.890625 40.328125 50.609375 34.8125 
Q 44.34375 29.296875 32.078125 29.296875 
L 19.671875 29.296875 
L 19.671875 0 
L 9.8125 0 
z
" id="DejaVuSans-80"/>
      </defs>
      <use xlink:href="#DejaVuSans-80"/>
      <use x="60.302734" xlink:href="#DejaVuSans-58"/>
      <use x="93.994141" xlink:href="#DejaVuSans-50"/>
      <use x="157.617188" xlink:href="#DejaVuSans-46"/>
      <use x="189.404297" xlink:href="#DejaVuSans-56"/>
      <use x="253.027344" xlink:href="#DejaVuSans-50"/>
     </g>
    </g>
    <g id="line2d_36">
     <path d="M 209.024687 50.094688 
L 229.024687 50.094688 
" style="fill:none;stroke:#ffffff;stroke-linecap:square;stroke-width:1.5;"/>
    </g>
    <g id="line2d_37"/>
    <g id="text_25">
     <!-- CH3: 2.9679595278246205e-06 -->
     <g transform="translate(237.024687 53.594688)scale(0.1 -0.1)">
      <defs>
       <path d="M 64.40625 67.28125 
L 64.40625 56.890625 
Q 59.421875 61.53125 53.78125 63.8125 
Q 48.140625 66.109375 41.796875 66.109375 
Q 29.296875 66.109375 22.65625 58.46875 
Q 16.015625 50.828125 16.015625 36.375 
Q 16.015625 21.96875 22.65625 14.328125 
Q 29.296875 6.6875 41.796875 6.6875 
Q 48.140625 6.6875 53.78125 8.984375 
Q 59.421875 11.28125 64.40625 15.921875 
L 64.40625 5.609375 
Q 59.234375 2.09375 53.4375 0.328125 
Q 47.65625 -1.421875 41.21875 -1.421875 
Q 24.65625 -1.421875 15.125 8.703125 
Q 5.609375 18.84375 5.609375 36.375 
Q 5.609375 53.953125 15.125 64.078125 
Q 24.65625 74.21875 41.21875 74.21875 
Q 47.75 74.21875 53.53125 72.484375 
Q 59.328125 70.75 64.40625 67.28125 
z
" id="DejaVuSans-67"/>
       <path d="M 9.8125 72.90625 
L 19.671875 72.90625 
L 19.671875 43.015625 
L 55.515625 43.015625 
L 55.515625 72.90625 
L 65.375 72.90625 
L 65.375 0 
L 55.515625 0 
L 55.515625 34.71875 
L 19.671875 34.71875 
L 19.671875 0 
L 9.8125 0 
z
" id="DejaVuSans-72"/>
       <path d="M 10.984375 1.515625 
L 10.984375 10.5 
Q 14.703125 8.734375 18.5 7.8125 
Q 22.3125 6.890625 25.984375 6.890625 
Q 35.75 6.890625 40.890625 13.453125 
Q 46.046875 20.015625 46.78125 33.40625 
Q 43.953125 29.203125 39.59375 26.953125 
Q 35.25 24.703125 29.984375 24.703125 
Q 19.046875 24.703125 12.671875 31.3125 
Q 6.296875 37.9375 6.296875 49.421875 
Q 6.296875 60.640625 12.9375 67.421875 
Q 19.578125 74.21875 30.609375 74.21875 
Q 43.265625 74.21875 49.921875 64.515625 
Q 56.59375 54.828125 56.59375 36.375 
Q 56.59375 19.140625 48.40625 8.859375 
Q 40.234375 -1.421875 26.421875 -1.421875 
Q 22.703125 -1.421875 18.890625 -0.6875 
Q 15.09375 0.046875 10.984375 1.515625 
z
M 30.609375 32.421875 
Q 37.25 32.421875 41.125 36.953125 
Q 45.015625 41.5 45.015625 49.421875 
Q 45.015625 57.28125 41.125 61.84375 
Q 37.25 66.40625 30.609375 66.40625 
Q 23.96875 66.40625 20.09375 61.84375 
Q 16.21875 57.28125 16.21875 49.421875 
Q 16.21875 41.5 20.09375 36.953125 
Q 23.96875 32.421875 30.609375 32.421875 
z
" id="DejaVuSans-57"/>
       <path d="M 4.890625 31.390625 
L 31.203125 31.390625 
L 31.203125 23.390625 
L 4.890625 23.390625 
z
" id="DejaVuSans-45"/>
      </defs>
      <use xlink:href="#DejaVuSans-67"/>
      <use x="69.824219" xlink:href="#DejaVuSans-72"/>
      <use x="145.019531" xlink:href="#DejaVuSans-51"/>
      <use x="208.642578" xlink:href="#DejaVuSans-58"/>
      <use x="242.333984" xlink:href="#DejaVuSans-32"/>
      <use x="274.121094" xlink:href="#DejaVuSans-50"/>
      <use x="337.744141" xlink:href="#DejaVuSans-46"/>
      <use x="369.53125" xlink:href="#DejaVuSans-57"/>
      <use x="433.154297" xlink:href="#DejaVuSans-54"/>
      <use x="496.777344" xlink:href="#DejaVuSans-55"/>
      <use x="560.400391" xlink:href="#DejaVuSans-57"/>
      <use x="624.023438" xlink:href="#DejaVuSans-53"/>
      <use x="687.646484" xlink:href="#DejaVuSans-57"/>
      <use x="751.269531" xlink:href="#DejaVuSans-53"/>
      <use x="814.892578" xlink:href="#DejaVuSans-50"/>
      <use x="878.515625" xlink:href="#DejaVuSans-55"/>
      <use x="942.138672" xlink:href="#DejaVuSans-56"/>
      <use x="1005.761719" xlink:href="#DejaVuSans-50"/>
      <use x="1069.384766" xlink:href="#DejaVuSans-52"/>
      <use x="1133.007812" xlink:href="#DejaVuSans-54"/>
      <use x="1196.630859" xlink:href="#DejaVuSans-50"/>
      <use x="1260.253906" xlink:href="#DejaVuSans-48"/>
      <use x="1323.876953" xlink:href="#DejaVuSans-53"/>
      <use x="1387.5" xlink:href="#DejaVuSans-101"/>
      <use x="1449.023438" xlink:href="#DejaVuSans-45"/>
      <use x="1485.107422" xlink:href="#DejaVuSans-48"/>
      <use x="1548.730469" xlink:href="#DejaVuSans-54"/>
     </g>
    </g>
    <g id="line2d_38">
     <path d="M 209.024687 64.772812 
L 229.024687 64.772812 
" style="fill:none;stroke:#ffffff;stroke-linecap:square;stroke-width:1.5;"/>
    </g>
    <g id="line2d_39"/>
    <g id="text_26">
     <!-- Ar: 0.9999970320404722 -->
     <g transform="translate(237.024687 68.272812)scale(0.1 -0.1)">
      <use xlink:href="#DejaVuSans-65"/>
      <use x="68.408203" xlink:href="#DejaVuSans-114"/>
      <use x="107.771484" xlink:href="#DejaVuSans-58"/>
      <use x="141.462891" xlink:href="#DejaVuSans-32"/>
      <use x="173.25" xlink:href="#DejaVuSans-48"/>
      <use x="236.873047" xlink:href="#DejaVuSans-46"/>
      <use x="268.660156" xlink:href="#DejaVuSans-57"/>
      <use x="332.283203" xlink:href="#DejaVuSans-57"/>
      <use x="395.90625" xlink:href="#DejaVuSans-57"/>
      <use x="459.529297" xlink:href="#DejaVuSans-57"/>
      <use x="523.152344" xlink:href="#DejaVuSans-57"/>
      <use x="586.775391" xlink:href="#DejaVuSans-55"/>
      <use x="650.398438" xlink:href="#DejaVuSans-48"/>
      <use x="714.021484" xlink:href="#DejaVuSans-51"/>
      <use x="777.644531" xlink:href="#DejaVuSans-50"/>
      <use x="841.267578" xlink:href="#DejaVuSans-48"/>
      <use x="904.890625" xlink:href="#DejaVuSans-52"/>
      <use x="968.513672" xlink:href="#DejaVuSans-48"/>
      <use x="1032.136719" xlink:href="#DejaVuSans-52"/>
      <use x="1095.759766" xlink:href="#DejaVuSans-55"/>
      <use x="1159.382812" xlink:href="#DejaVuSans-50"/>
      <use x="1223.005859" xlink:href="#DejaVuSans-50"/>
     </g>
    </g>
   </g>
  </g>
 </g>
 <defs>
  <clipPath id="p47b93d6009">
   <rect height="266.112" width="357.12" x="50.14375" y="22.318125"/>
  </clipPath>
 </defs>
</svg>
