<?xml version="1.0" encoding="utf-8" standalone="no"?>
<!DOCTYPE svg PUBLIC "-//W3C//DTD SVG 1.1//EN"
  "http://www.w3.org/Graphics/SVG/1.1/DTD/svg11.dtd">
<!-- Created with matplotlib (https://matplotlib.org/) -->
<svg height="325.986375pt" version="1.1" viewBox="0 0 427.606997 325.986375" width="427.606997pt" xmlns="http://www.w3.org/2000/svg" xmlns:xlink="http://www.w3.org/1999/xlink">
 <metadata>
  <rdf:RDF xmlns:cc="http://creativecommons.org/ns#" xmlns:dc="http://purl.org/dc/elements/1.1/" xmlns:rdf="http://www.w3.org/1999/02/22-rdf-syntax-ns#">
   <cc:Work>
    <dc:type rdf:resource="http://purl.org/dc/dcmitype/StillImage"/>
    <dc:date>2023-01-06T05:11:09.072462</dc:date>
    <dc:format>image/svg+xml</dc:format>
    <dc:creator>
     <cc:Agent>
      <dc:title>Matplotlib v3.3.1, https://matplotlib.org/</dc:title>
     </cc:Agent>
    </dc:creator>
   </cc:Work>
  </rdf:RDF>
 </metadata>
 <defs>
  <style type="text/css">*{stroke-linecap:butt;stroke-linejoin:round;}</style>
 </defs>
 <g id="figure_1">
  <g id="patch_1">
   <path d="M 0 325.986375 
L 427.606997 325.986375 
L 427.606997 0 
L 0 0 
z
" style="fill:none;"/>
  </g>
  <g id="axes_1">
   <g id="patch_2">
    <path d="M 56.50625 288.430125 
L 413.62625 288.430125 
L 413.62625 22.318125 
L 56.50625 22.318125 
z
" style="fill:none;"/>
   </g>
   <g id="matplotlib.axis_1">
    <g id="xtick_1">
     <g id="line2d_1">
      <defs>
       <path d="M 0 0 
L 0 3.5 
" id="m79a26e54c1" style="stroke:#000000;stroke-width:0.8;"/>
      </defs>
      <g>
       <use style="stroke:#000000;stroke-width:0.8;" x="72.738977" xlink:href="#m79a26e54c1" y="288.430125"/>
      </g>
     </g>
     <g id="text_1">
      <!-- 0.0 -->
      <g transform="translate(64.787415 303.028562)scale(0.1 -0.1)">
       <defs>
        <path d="M 31.78125 66.40625 
Q 24.171875 66.40625 20.328125 58.90625 
Q 16.5 51.421875 16.5 36.375 
Q 16.5 21.390625 20.328125 13.890625 
Q 24.171875 6.390625 31.78125 6.390625 
Q 39.453125 6.390625 43.28125 13.890625 
Q 47.125 21.390625 47.125 36.375 
Q 47.125 51.421875 43.28125 58.90625 
Q 39.453125 66.40625 31.78125 66.40625 
z
M 31.78125 74.21875 
Q 44.046875 74.21875 50.515625 64.515625 
Q 56.984375 54.828125 56.984375 36.375 
Q 56.984375 17.96875 50.515625 8.265625 
Q 44.046875 -1.421875 31.78125 -1.421875 
Q 19.53125 -1.421875 13.0625 8.265625 
Q 6.59375 17.96875 6.59375 36.375 
Q 6.59375 54.828125 13.0625 64.515625 
Q 19.53125 74.21875 31.78125 74.21875 
z
" id="DejaVuSans-48"/>
        <path d="M 10.6875 12.40625 
L 21 12.40625 
L 21 0 
L 10.6875 0 
z
" id="DejaVuSans-46"/>
       </defs>
       <use xlink:href="#DejaVuSans-48"/>
       <use x="63.623047" xlink:href="#DejaVuSans-46"/>
       <use x="95.410156" xlink:href="#DejaVuSans-48"/>
      </g>
     </g>
    </g>
    <g id="xtick_2">
     <g id="line2d_2">
      <g>
       <use style="stroke:#000000;stroke-width:0.8;" x="115.203534" xlink:href="#m79a26e54c1" y="288.430125"/>
      </g>
     </g>
     <g id="text_2">
      <!-- 0.2 -->
      <g transform="translate(107.251972 303.028562)scale(0.1 -0.1)">
       <defs>
        <path d="M 19.1875 8.296875 
L 53.609375 8.296875 
L 53.609375 0 
L 7.328125 0 
L 7.328125 8.296875 
Q 12.9375 14.109375 22.625 23.890625 
Q 32.328125 33.6875 34.8125 36.53125 
Q 39.546875 41.84375 41.421875 45.53125 
Q 43.3125 49.21875 43.3125 52.78125 
Q 43.3125 58.59375 39.234375 62.25 
Q 35.15625 65.921875 28.609375 65.921875 
Q 23.96875 65.921875 18.8125 64.3125 
Q 13.671875 62.703125 7.8125 59.421875 
L 7.8125 69.390625 
Q 13.765625 71.78125 18.9375 73 
Q 24.125 74.21875 28.421875 74.21875 
Q 39.75 74.21875 46.484375 68.546875 
Q 53.21875 62.890625 53.21875 53.421875 
Q 53.21875 48.921875 51.53125 44.890625 
Q 49.859375 40.875 45.40625 35.40625 
Q 44.1875 33.984375 37.640625 27.21875 
Q 31.109375 20.453125 19.1875 8.296875 
z
" id="DejaVuSans-50"/>
       </defs>
       <use xlink:href="#DejaVuSans-48"/>
       <use x="63.623047" xlink:href="#DejaVuSans-46"/>
       <use x="95.410156" xlink:href="#DejaVuSans-50"/>
      </g>
     </g>
    </g>
    <g id="xtick_3">
     <g id="line2d_3">
      <g>
       <use style="stroke:#000000;stroke-width:0.8;" x="157.668092" xlink:href="#m79a26e54c1" y="288.430125"/>
      </g>
     </g>
     <g id="text_3">
      <!-- 0.4 -->
      <g transform="translate(149.716529 303.028562)scale(0.1 -0.1)">
       <defs>
        <path d="M 37.796875 64.3125 
L 12.890625 25.390625 
L 37.796875 25.390625 
z
M 35.203125 72.90625 
L 47.609375 72.90625 
L 47.609375 25.390625 
L 58.015625 25.390625 
L 58.015625 17.1875 
L 47.609375 17.1875 
L 47.609375 0 
L 37.796875 0 
L 37.796875 17.1875 
L 4.890625 17.1875 
L 4.890625 26.703125 
z
" id="DejaVuSans-52"/>
       </defs>
       <use xlink:href="#DejaVuSans-48"/>
       <use x="63.623047" xlink:href="#DejaVuSans-46"/>
       <use x="95.410156" xlink:href="#DejaVuSans-52"/>
      </g>
     </g>
    </g>
    <g id="xtick_4">
     <g id="line2d_4">
      <g>
       <use style="stroke:#000000;stroke-width:0.8;" x="200.132649" xlink:href="#m79a26e54c1" y="288.430125"/>
      </g>
     </g>
     <g id="text_4">
      <!-- 0.6 -->
      <g transform="translate(192.181086 303.028562)scale(0.1 -0.1)">
       <defs>
        <path d="M 33.015625 40.375 
Q 26.375 40.375 22.484375 35.828125 
Q 18.609375 31.296875 18.609375 23.390625 
Q 18.609375 15.53125 22.484375 10.953125 
Q 26.375 6.390625 33.015625 6.390625 
Q 39.65625 6.390625 43.53125 10.953125 
Q 47.40625 15.53125 47.40625 23.390625 
Q 47.40625 31.296875 43.53125 35.828125 
Q 39.65625 40.375 33.015625 40.375 
z
M 52.59375 71.296875 
L 52.59375 62.3125 
Q 48.875 64.0625 45.09375 64.984375 
Q 41.3125 65.921875 37.59375 65.921875 
Q 27.828125 65.921875 22.671875 59.328125 
Q 17.53125 52.734375 16.796875 39.40625 
Q 19.671875 43.65625 24.015625 45.921875 
Q 28.375 48.1875 33.59375 48.1875 
Q 44.578125 48.1875 50.953125 41.515625 
Q 57.328125 34.859375 57.328125 23.390625 
Q 57.328125 12.15625 50.6875 5.359375 
Q 44.046875 -1.421875 33.015625 -1.421875 
Q 20.359375 -1.421875 13.671875 8.265625 
Q 6.984375 17.96875 6.984375 36.375 
Q 6.984375 53.65625 15.1875 63.9375 
Q 23.390625 74.21875 37.203125 74.21875 
Q 40.921875 74.21875 44.703125 73.484375 
Q 48.484375 72.75 52.59375 71.296875 
z
" id="DejaVuSans-54"/>
       </defs>
       <use xlink:href="#DejaVuSans-48"/>
       <use x="63.623047" xlink:href="#DejaVuSans-46"/>
       <use x="95.410156" xlink:href="#DejaVuSans-54"/>
      </g>
     </g>
    </g>
    <g id="xtick_5">
     <g id="line2d_5">
      <g>
       <use style="stroke:#000000;stroke-width:0.8;" x="242.597206" xlink:href="#m79a26e54c1" y="288.430125"/>
      </g>
     </g>
     <g id="text_5">
      <!-- 0.8 -->
      <g transform="translate(234.645644 303.028562)scale(0.1 -0.1)">
       <defs>
        <path d="M 31.78125 34.625 
Q 24.75 34.625 20.71875 30.859375 
Q 16.703125 27.09375 16.703125 20.515625 
Q 16.703125 13.921875 20.71875 10.15625 
Q 24.75 6.390625 31.78125 6.390625 
Q 38.8125 6.390625 42.859375 10.171875 
Q 46.921875 13.96875 46.921875 20.515625 
Q 46.921875 27.09375 42.890625 30.859375 
Q 38.875 34.625 31.78125 34.625 
z
M 21.921875 38.8125 
Q 15.578125 40.375 12.03125 44.71875 
Q 8.5 49.078125 8.5 55.328125 
Q 8.5 64.0625 14.71875 69.140625 
Q 20.953125 74.21875 31.78125 74.21875 
Q 42.671875 74.21875 48.875 69.140625 
Q 55.078125 64.0625 55.078125 55.328125 
Q 55.078125 49.078125 51.53125 44.71875 
Q 48 40.375 41.703125 38.8125 
Q 48.828125 37.15625 52.796875 32.3125 
Q 56.78125 27.484375 56.78125 20.515625 
Q 56.78125 9.90625 50.3125 4.234375 
Q 43.84375 -1.421875 31.78125 -1.421875 
Q 19.734375 -1.421875 13.25 4.234375 
Q 6.78125 9.90625 6.78125 20.515625 
Q 6.78125 27.484375 10.78125 32.3125 
Q 14.796875 37.15625 21.921875 38.8125 
z
M 18.3125 54.390625 
Q 18.3125 48.734375 21.84375 45.5625 
Q 25.390625 42.390625 31.78125 42.390625 
Q 38.140625 42.390625 41.71875 45.5625 
Q 45.3125 48.734375 45.3125 54.390625 
Q 45.3125 60.0625 41.71875 63.234375 
Q 38.140625 66.40625 31.78125 66.40625 
Q 25.390625 66.40625 21.84375 63.234375 
Q 18.3125 60.0625 18.3125 54.390625 
z
" id="DejaVuSans-56"/>
       </defs>
       <use xlink:href="#DejaVuSans-48"/>
       <use x="63.623047" xlink:href="#DejaVuSans-46"/>
       <use x="95.410156" xlink:href="#DejaVuSans-56"/>
      </g>
     </g>
    </g>
    <g id="xtick_6">
     <g id="line2d_6">
      <g>
       <use style="stroke:#000000;stroke-width:0.8;" x="285.061763" xlink:href="#m79a26e54c1" y="288.430125"/>
      </g>
     </g>
     <g id="text_6">
      <!-- 1.0 -->
      <g transform="translate(277.110201 303.028562)scale(0.1 -0.1)">
       <defs>
        <path d="M 12.40625 8.296875 
L 28.515625 8.296875 
L 28.515625 63.921875 
L 10.984375 60.40625 
L 10.984375 69.390625 
L 28.421875 72.90625 
L 38.28125 72.90625 
L 38.28125 8.296875 
L 54.390625 8.296875 
L 54.390625 0 
L 12.40625 0 
z
" id="DejaVuSans-49"/>
       </defs>
       <use xlink:href="#DejaVuSans-49"/>
       <use x="63.623047" xlink:href="#DejaVuSans-46"/>
       <use x="95.410156" xlink:href="#DejaVuSans-48"/>
      </g>
     </g>
    </g>
    <g id="xtick_7">
     <g id="line2d_7">
      <g>
       <use style="stroke:#000000;stroke-width:0.8;" x="327.52632" xlink:href="#m79a26e54c1" y="288.430125"/>
      </g>
     </g>
     <g id="text_7">
      <!-- 1.2 -->
      <g transform="translate(319.574758 303.028562)scale(0.1 -0.1)">
       <use xlink:href="#DejaVuSans-49"/>
       <use x="63.623047" xlink:href="#DejaVuSans-46"/>
       <use x="95.410156" xlink:href="#DejaVuSans-50"/>
      </g>
     </g>
    </g>
    <g id="xtick_8">
     <g id="line2d_8">
      <g>
       <use style="stroke:#000000;stroke-width:0.8;" x="369.990878" xlink:href="#m79a26e54c1" y="288.430125"/>
      </g>
     </g>
     <g id="text_8">
      <!-- 1.4 -->
      <g transform="translate(362.039315 303.028562)scale(0.1 -0.1)">
       <use xlink:href="#DejaVuSans-49"/>
       <use x="63.623047" xlink:href="#DejaVuSans-46"/>
       <use x="95.410156" xlink:href="#DejaVuSans-52"/>
      </g>
     </g>
    </g>
    <g id="xtick_9">
     <g id="line2d_9">
      <g>
       <use style="stroke:#000000;stroke-width:0.8;" x="412.455435" xlink:href="#m79a26e54c1" y="288.430125"/>
      </g>
     </g>
     <g id="text_9">
      <!-- 1.6 -->
      <g transform="translate(404.503872 303.028562)scale(0.1 -0.1)">
       <use xlink:href="#DejaVuSans-49"/>
       <use x="63.623047" xlink:href="#DejaVuSans-46"/>
       <use x="95.410156" xlink:href="#DejaVuSans-54"/>
      </g>
     </g>
    </g>
    <g id="text_10">
     <!-- Time (ms) -->
     <g transform="translate(209.867031 316.706687)scale(0.1 -0.1)">
      <defs>
       <path d="M -0.296875 72.90625 
L 61.375 72.90625 
L 61.375 64.59375 
L 35.5 64.59375 
L 35.5 0 
L 25.59375 0 
L 25.59375 64.59375 
L -0.296875 64.59375 
z
" id="DejaVuSans-84"/>
       <path d="M 9.421875 54.6875 
L 18.40625 54.6875 
L 18.40625 0 
L 9.421875 0 
z
M 9.421875 75.984375 
L 18.40625 75.984375 
L 18.40625 64.59375 
L 9.421875 64.59375 
z
" id="DejaVuSans-105"/>
       <path d="M 52 44.1875 
Q 55.375 50.25 60.0625 53.125 
Q 64.75 56 71.09375 56 
Q 79.640625 56 84.28125 50.015625 
Q 88.921875 44.046875 88.921875 33.015625 
L 88.921875 0 
L 79.890625 0 
L 79.890625 32.71875 
Q 79.890625 40.578125 77.09375 44.375 
Q 74.3125 48.1875 68.609375 48.1875 
Q 61.625 48.1875 57.5625 43.546875 
Q 53.515625 38.921875 53.515625 30.90625 
L 53.515625 0 
L 44.484375 0 
L 44.484375 32.71875 
Q 44.484375 40.625 41.703125 44.40625 
Q 38.921875 48.1875 33.109375 48.1875 
Q 26.21875 48.1875 22.15625 43.53125 
Q 18.109375 38.875 18.109375 30.90625 
L 18.109375 0 
L 9.078125 0 
L 9.078125 54.6875 
L 18.109375 54.6875 
L 18.109375 46.1875 
Q 21.1875 51.21875 25.484375 53.609375 
Q 29.78125 56 35.6875 56 
Q 41.65625 56 45.828125 52.96875 
Q 50 49.953125 52 44.1875 
z
" id="DejaVuSans-109"/>
       <path d="M 56.203125 29.59375 
L 56.203125 25.203125 
L 14.890625 25.203125 
Q 15.484375 15.921875 20.484375 11.0625 
Q 25.484375 6.203125 34.421875 6.203125 
Q 39.59375 6.203125 44.453125 7.46875 
Q 49.3125 8.734375 54.109375 11.28125 
L 54.109375 2.78125 
Q 49.265625 0.734375 44.1875 -0.34375 
Q 39.109375 -1.421875 33.890625 -1.421875 
Q 20.796875 -1.421875 13.15625 6.1875 
Q 5.515625 13.8125 5.515625 26.8125 
Q 5.515625 40.234375 12.765625 48.109375 
Q 20.015625 56 32.328125 56 
Q 43.359375 56 49.78125 48.890625 
Q 56.203125 41.796875 56.203125 29.59375 
z
M 47.21875 32.234375 
Q 47.125 39.59375 43.09375 43.984375 
Q 39.0625 48.390625 32.421875 48.390625 
Q 24.90625 48.390625 20.390625 44.140625 
Q 15.875 39.890625 15.1875 32.171875 
z
" id="DejaVuSans-101"/>
       <path id="DejaVuSans-32"/>
       <path d="M 31 75.875 
Q 24.46875 64.65625 21.28125 53.65625 
Q 18.109375 42.671875 18.109375 31.390625 
Q 18.109375 20.125 21.3125 9.0625 
Q 24.515625 -2 31 -13.1875 
L 23.1875 -13.1875 
Q 15.875 -1.703125 12.234375 9.375 
Q 8.59375 20.453125 8.59375 31.390625 
Q 8.59375 42.28125 12.203125 53.3125 
Q 15.828125 64.359375 23.1875 75.875 
z
" id="DejaVuSans-40"/>
       <path d="M 44.28125 53.078125 
L 44.28125 44.578125 
Q 40.484375 46.53125 36.375 47.5 
Q 32.28125 48.484375 27.875 48.484375 
Q 21.1875 48.484375 17.84375 46.4375 
Q 14.5 44.390625 14.5 40.28125 
Q 14.5 37.15625 16.890625 35.375 
Q 19.28125 33.59375 26.515625 31.984375 
L 29.59375 31.296875 
Q 39.15625 29.25 43.1875 25.515625 
Q 47.21875 21.78125 47.21875 15.09375 
Q 47.21875 7.46875 41.1875 3.015625 
Q 35.15625 -1.421875 24.609375 -1.421875 
Q 20.21875 -1.421875 15.453125 -0.5625 
Q 10.6875 0.296875 5.421875 2 
L 5.421875 11.28125 
Q 10.40625 8.6875 15.234375 7.390625 
Q 20.0625 6.109375 24.8125 6.109375 
Q 31.15625 6.109375 34.5625 8.28125 
Q 37.984375 10.453125 37.984375 14.40625 
Q 37.984375 18.0625 35.515625 20.015625 
Q 33.0625 21.96875 24.703125 23.78125 
L 21.578125 24.515625 
Q 13.234375 26.265625 9.515625 29.90625 
Q 5.8125 33.546875 5.8125 39.890625 
Q 5.8125 47.609375 11.28125 51.796875 
Q 16.75 56 26.8125 56 
Q 31.78125 56 36.171875 55.265625 
Q 40.578125 54.546875 44.28125 53.078125 
z
" id="DejaVuSans-115"/>
       <path d="M 8.015625 75.875 
L 15.828125 75.875 
Q 23.140625 64.359375 26.78125 53.3125 
Q 30.421875 42.28125 30.421875 31.390625 
Q 30.421875 20.453125 26.78125 9.375 
Q 23.140625 -1.703125 15.828125 -13.1875 
L 8.015625 -13.1875 
Q 14.5 -2 17.703125 9.0625 
Q 20.90625 20.125 20.90625 31.390625 
Q 20.90625 42.671875 17.703125 53.65625 
Q 14.5 64.65625 8.015625 75.875 
z
" id="DejaVuSans-41"/>
      </defs>
      <use xlink:href="#DejaVuSans-84"/>
      <use x="57.958984" xlink:href="#DejaVuSans-105"/>
      <use x="85.742188" xlink:href="#DejaVuSans-109"/>
      <use x="183.154297" xlink:href="#DejaVuSans-101"/>
      <use x="244.677734" xlink:href="#DejaVuSans-32"/>
      <use x="276.464844" xlink:href="#DejaVuSans-40"/>
      <use x="315.478516" xlink:href="#DejaVuSans-109"/>
      <use x="412.890625" xlink:href="#DejaVuSans-115"/>
      <use x="464.990234" xlink:href="#DejaVuSans-41"/>
     </g>
    </g>
   </g>
   <g id="matplotlib.axis_2">
    <g id="ytick_1">
     <g id="line2d_10">
      <defs>
       <path d="M 0 0 
L -3.5 0 
" id="m5f377339ff" style="stroke:#000000;stroke-width:0.8;"/>
      </defs>
      <g>
       <use style="stroke:#000000;stroke-width:0.8;" x="56.50625" xlink:href="#m5f377339ff" y="246.47572"/>
      </g>
     </g>
     <g id="text_11">
      <!-- 0.005 -->
      <g transform="translate(20.878125 250.274938)scale(0.1 -0.1)">
       <defs>
        <path d="M 10.796875 72.90625 
L 49.515625 72.90625 
L 49.515625 64.59375 
L 19.828125 64.59375 
L 19.828125 46.734375 
Q 21.96875 47.46875 24.109375 47.828125 
Q 26.265625 48.1875 28.421875 48.1875 
Q 40.625 48.1875 47.75 41.5 
Q 54.890625 34.8125 54.890625 23.390625 
Q 54.890625 11.625 47.5625 5.09375 
Q 40.234375 -1.421875 26.90625 -1.421875 
Q 22.3125 -1.421875 17.546875 -0.640625 
Q 12.796875 0.140625 7.71875 1.703125 
L 7.71875 11.625 
Q 12.109375 9.234375 16.796875 8.0625 
Q 21.484375 6.890625 26.703125 6.890625 
Q 35.15625 6.890625 40.078125 11.328125 
Q 45.015625 15.765625 45.015625 23.390625 
Q 45.015625 31 40.078125 35.4375 
Q 35.15625 39.890625 26.703125 39.890625 
Q 22.75 39.890625 18.8125 39.015625 
Q 14.890625 38.140625 10.796875 36.28125 
z
" id="DejaVuSans-53"/>
       </defs>
       <use xlink:href="#DejaVuSans-48"/>
       <use x="63.623047" xlink:href="#DejaVuSans-46"/>
       <use x="95.410156" xlink:href="#DejaVuSans-48"/>
       <use x="159.033203" xlink:href="#DejaVuSans-48"/>
       <use x="222.65625" xlink:href="#DejaVuSans-53"/>
      </g>
     </g>
    </g>
    <g id="ytick_2">
     <g id="line2d_11">
      <g>
       <use style="stroke:#000000;stroke-width:0.8;" x="56.50625" xlink:href="#m5f377339ff" y="204.409537"/>
      </g>
     </g>
     <g id="text_12">
      <!-- 0.010 -->
      <g transform="translate(20.878125 208.208756)scale(0.1 -0.1)">
       <use xlink:href="#DejaVuSans-48"/>
       <use x="63.623047" xlink:href="#DejaVuSans-46"/>
       <use x="95.410156" xlink:href="#DejaVuSans-48"/>
       <use x="159.033203" xlink:href="#DejaVuSans-49"/>
       <use x="222.65625" xlink:href="#DejaVuSans-48"/>
      </g>
     </g>
    </g>
    <g id="ytick_3">
     <g id="line2d_12">
      <g>
       <use style="stroke:#000000;stroke-width:0.8;" x="56.50625" xlink:href="#m5f377339ff" y="162.343355"/>
      </g>
     </g>
     <g id="text_13">
      <!-- 0.015 -->
      <g transform="translate(20.878125 166.142574)scale(0.1 -0.1)">
       <use xlink:href="#DejaVuSans-48"/>
       <use x="63.623047" xlink:href="#DejaVuSans-46"/>
       <use x="95.410156" xlink:href="#DejaVuSans-48"/>
       <use x="159.033203" xlink:href="#DejaVuSans-49"/>
       <use x="222.65625" xlink:href="#DejaVuSans-53"/>
      </g>
     </g>
    </g>
    <g id="ytick_4">
     <g id="line2d_13">
      <g>
       <use style="stroke:#000000;stroke-width:0.8;" x="56.50625" xlink:href="#m5f377339ff" y="120.277172"/>
      </g>
     </g>
     <g id="text_14">
      <!-- 0.020 -->
      <g transform="translate(20.878125 124.076391)scale(0.1 -0.1)">
       <use xlink:href="#DejaVuSans-48"/>
       <use x="63.623047" xlink:href="#DejaVuSans-46"/>
       <use x="95.410156" xlink:href="#DejaVuSans-48"/>
       <use x="159.033203" xlink:href="#DejaVuSans-50"/>
       <use x="222.65625" xlink:href="#DejaVuSans-48"/>
      </g>
     </g>
    </g>
    <g id="ytick_5">
     <g id="line2d_14">
      <g>
       <use style="stroke:#000000;stroke-width:0.8;" x="56.50625" xlink:href="#m5f377339ff" y="78.21099"/>
      </g>
     </g>
     <g id="text_15">
      <!-- 0.025 -->
      <g transform="translate(20.878125 82.010209)scale(0.1 -0.1)">
       <use xlink:href="#DejaVuSans-48"/>
       <use x="63.623047" xlink:href="#DejaVuSans-46"/>
       <use x="95.410156" xlink:href="#DejaVuSans-48"/>
       <use x="159.033203" xlink:href="#DejaVuSans-50"/>
       <use x="222.65625" xlink:href="#DejaVuSans-53"/>
      </g>
     </g>
    </g>
    <g id="ytick_6">
     <g id="line2d_15">
      <g>
       <use style="stroke:#000000;stroke-width:0.8;" x="56.50625" xlink:href="#m5f377339ff" y="36.144808"/>
      </g>
     </g>
     <g id="text_16">
      <!-- 0.030 -->
      <g transform="translate(20.878125 39.944026)scale(0.1 -0.1)">
       <defs>
        <path d="M 40.578125 39.3125 
Q 47.65625 37.796875 51.625 33 
Q 55.609375 28.21875 55.609375 21.1875 
Q 55.609375 10.40625 48.1875 4.484375 
Q 40.765625 -1.421875 27.09375 -1.421875 
Q 22.515625 -1.421875 17.65625 -0.515625 
Q 12.796875 0.390625 7.625 2.203125 
L 7.625 11.71875 
Q 11.71875 9.328125 16.59375 8.109375 
Q 21.484375 6.890625 26.8125 6.890625 
Q 36.078125 6.890625 40.9375 10.546875 
Q 45.796875 14.203125 45.796875 21.1875 
Q 45.796875 27.640625 41.28125 31.265625 
Q 36.765625 34.90625 28.71875 34.90625 
L 20.21875 34.90625 
L 20.21875 43.015625 
L 29.109375 43.015625 
Q 36.375 43.015625 40.234375 45.921875 
Q 44.09375 48.828125 44.09375 54.296875 
Q 44.09375 59.90625 40.109375 62.90625 
Q 36.140625 65.921875 28.71875 65.921875 
Q 24.65625 65.921875 20.015625 65.03125 
Q 15.375 64.15625 9.8125 62.3125 
L 9.8125 71.09375 
Q 15.4375 72.65625 20.34375 73.4375 
Q 25.25 74.21875 29.59375 74.21875 
Q 40.828125 74.21875 47.359375 69.109375 
Q 53.90625 64.015625 53.90625 55.328125 
Q 53.90625 49.265625 50.4375 45.09375 
Q 46.96875 40.921875 40.578125 39.3125 
z
" id="DejaVuSans-51"/>
       </defs>
       <use xlink:href="#DejaVuSans-48"/>
       <use x="63.623047" xlink:href="#DejaVuSans-46"/>
       <use x="95.410156" xlink:href="#DejaVuSans-48"/>
       <use x="159.033203" xlink:href="#DejaVuSans-51"/>
       <use x="222.65625" xlink:href="#DejaVuSans-48"/>
      </g>
     </g>
    </g>
    <g id="text_17">
     <!-- Absorbance216 -->
     <g transform="translate(14.798437 194.46475)rotate(-90)scale(0.1 -0.1)">
      <defs>
       <path d="M 34.1875 63.1875 
L 20.796875 26.90625 
L 47.609375 26.90625 
z
M 28.609375 72.90625 
L 39.796875 72.90625 
L 67.578125 0 
L 57.328125 0 
L 50.6875 18.703125 
L 17.828125 18.703125 
L 11.1875 0 
L 0.78125 0 
z
" id="DejaVuSans-65"/>
       <path d="M 48.6875 27.296875 
Q 48.6875 37.203125 44.609375 42.84375 
Q 40.53125 48.484375 33.40625 48.484375 
Q 26.265625 48.484375 22.1875 42.84375 
Q 18.109375 37.203125 18.109375 27.296875 
Q 18.109375 17.390625 22.1875 11.75 
Q 26.265625 6.109375 33.40625 6.109375 
Q 40.53125 6.109375 44.609375 11.75 
Q 48.6875 17.390625 48.6875 27.296875 
z
M 18.109375 46.390625 
Q 20.953125 51.265625 25.265625 53.625 
Q 29.59375 56 35.59375 56 
Q 45.5625 56 51.78125 48.09375 
Q 58.015625 40.1875 58.015625 27.296875 
Q 58.015625 14.40625 51.78125 6.484375 
Q 45.5625 -1.421875 35.59375 -1.421875 
Q 29.59375 -1.421875 25.265625 0.953125 
Q 20.953125 3.328125 18.109375 8.203125 
L 18.109375 0 
L 9.078125 0 
L 9.078125 75.984375 
L 18.109375 75.984375 
z
" id="DejaVuSans-98"/>
       <path d="M 30.609375 48.390625 
Q 23.390625 48.390625 19.1875 42.75 
Q 14.984375 37.109375 14.984375 27.296875 
Q 14.984375 17.484375 19.15625 11.84375 
Q 23.34375 6.203125 30.609375 6.203125 
Q 37.796875 6.203125 41.984375 11.859375 
Q 46.1875 17.53125 46.1875 27.296875 
Q 46.1875 37.015625 41.984375 42.703125 
Q 37.796875 48.390625 30.609375 48.390625 
z
M 30.609375 56 
Q 42.328125 56 49.015625 48.375 
Q 55.71875 40.765625 55.71875 27.296875 
Q 55.71875 13.875 49.015625 6.21875 
Q 42.328125 -1.421875 30.609375 -1.421875 
Q 18.84375 -1.421875 12.171875 6.21875 
Q 5.515625 13.875 5.515625 27.296875 
Q 5.515625 40.765625 12.171875 48.375 
Q 18.84375 56 30.609375 56 
z
" id="DejaVuSans-111"/>
       <path d="M 41.109375 46.296875 
Q 39.59375 47.171875 37.8125 47.578125 
Q 36.03125 48 33.890625 48 
Q 26.265625 48 22.1875 43.046875 
Q 18.109375 38.09375 18.109375 28.8125 
L 18.109375 0 
L 9.078125 0 
L 9.078125 54.6875 
L 18.109375 54.6875 
L 18.109375 46.1875 
Q 20.953125 51.171875 25.484375 53.578125 
Q 30.03125 56 36.53125 56 
Q 37.453125 56 38.578125 55.875 
Q 39.703125 55.765625 41.0625 55.515625 
z
" id="DejaVuSans-114"/>
       <path d="M 34.28125 27.484375 
Q 23.390625 27.484375 19.1875 25 
Q 14.984375 22.515625 14.984375 16.5 
Q 14.984375 11.71875 18.140625 8.90625 
Q 21.296875 6.109375 26.703125 6.109375 
Q 34.1875 6.109375 38.703125 11.40625 
Q 43.21875 16.703125 43.21875 25.484375 
L 43.21875 27.484375 
z
M 52.203125 31.203125 
L 52.203125 0 
L 43.21875 0 
L 43.21875 8.296875 
Q 40.140625 3.328125 35.546875 0.953125 
Q 30.953125 -1.421875 24.3125 -1.421875 
Q 15.921875 -1.421875 10.953125 3.296875 
Q 6 8.015625 6 15.921875 
Q 6 25.140625 12.171875 29.828125 
Q 18.359375 34.515625 30.609375 34.515625 
L 43.21875 34.515625 
L 43.21875 35.40625 
Q 43.21875 41.609375 39.140625 45 
Q 35.0625 48.390625 27.6875 48.390625 
Q 23 48.390625 18.546875 47.265625 
Q 14.109375 46.140625 10.015625 43.890625 
L 10.015625 52.203125 
Q 14.9375 54.109375 19.578125 55.046875 
Q 24.21875 56 28.609375 56 
Q 40.484375 56 46.34375 49.84375 
Q 52.203125 43.703125 52.203125 31.203125 
z
" id="DejaVuSans-97"/>
       <path d="M 54.890625 33.015625 
L 54.890625 0 
L 45.90625 0 
L 45.90625 32.71875 
Q 45.90625 40.484375 42.875 44.328125 
Q 39.84375 48.1875 33.796875 48.1875 
Q 26.515625 48.1875 22.3125 43.546875 
Q 18.109375 38.921875 18.109375 30.90625 
L 18.109375 0 
L 9.078125 0 
L 9.078125 54.6875 
L 18.109375 54.6875 
L 18.109375 46.1875 
Q 21.34375 51.125 25.703125 53.5625 
Q 30.078125 56 35.796875 56 
Q 45.21875 56 50.046875 50.171875 
Q 54.890625 44.34375 54.890625 33.015625 
z
" id="DejaVuSans-110"/>
       <path d="M 48.78125 52.59375 
L 48.78125 44.1875 
Q 44.96875 46.296875 41.140625 47.34375 
Q 37.3125 48.390625 33.40625 48.390625 
Q 24.65625 48.390625 19.8125 42.84375 
Q 14.984375 37.3125 14.984375 27.296875 
Q 14.984375 17.28125 19.8125 11.734375 
Q 24.65625 6.203125 33.40625 6.203125 
Q 37.3125 6.203125 41.140625 7.25 
Q 44.96875 8.296875 48.78125 10.40625 
L 48.78125 2.09375 
Q 45.015625 0.34375 40.984375 -0.53125 
Q 36.96875 -1.421875 32.421875 -1.421875 
Q 20.0625 -1.421875 12.78125 6.34375 
Q 5.515625 14.109375 5.515625 27.296875 
Q 5.515625 40.671875 12.859375 48.328125 
Q 20.21875 56 33.015625 56 
Q 37.15625 56 41.109375 55.140625 
Q 45.0625 54.296875 48.78125 52.59375 
z
" id="DejaVuSans-99"/>
      </defs>
      <use xlink:href="#DejaVuSans-65"/>
      <use x="68.408203" xlink:href="#DejaVuSans-98"/>
      <use x="131.884766" xlink:href="#DejaVuSans-115"/>
      <use x="183.984375" xlink:href="#DejaVuSans-111"/>
      <use x="245.166016" xlink:href="#DejaVuSans-114"/>
      <use x="286.279297" xlink:href="#DejaVuSans-98"/>
      <use x="349.755859" xlink:href="#DejaVuSans-97"/>
      <use x="411.035156" xlink:href="#DejaVuSans-110"/>
      <use x="474.414062" xlink:href="#DejaVuSans-99"/>
      <use x="529.394531" xlink:href="#DejaVuSans-101"/>
      <use x="590.917969" xlink:href="#DejaVuSans-50"/>
      <use x="654.541016" xlink:href="#DejaVuSans-49"/>
      <use x="718.164062" xlink:href="#DejaVuSans-54"/>
     </g>
    </g>
   </g>
   <g id="line2d_16">
    <defs>
     <path d="M 0 3 
C 0.795609 3 1.55874 2.683901 2.12132 2.12132 
C 2.683901 1.55874 3 0.795609 3 0 
C 3 -0.795609 2.683901 -1.55874 2.12132 -2.12132 
C 1.55874 -2.683901 0.795609 -3 0 -3 
C -0.795609 -3 -1.55874 -2.683901 -2.12132 -2.12132 
C -2.683901 -1.55874 -3 -0.795609 -3 0 
C -3 0.795609 -2.683901 1.55874 -2.12132 2.12132 
C -1.55874 2.683901 -0.795609 3 0 3 
z
" id="mf3e2ad0e9a" style="stroke:#000000;"/>
    </defs>
    <g clip-path="url(#pb9b9d50ffe)">
     <use style="stroke:#000000;" x="72.738977" xlink:href="#mf3e2ad0e9a" y="103.313682"/>
     <use style="stroke:#000000;" x="72.739037" xlink:href="#mf3e2ad0e9a" y="103.31414"/>
     <use style="stroke:#000000;" x="72.73963" xlink:href="#mf3e2ad0e9a" y="103.318724"/>
     <use style="stroke:#000000;" x="72.740543" xlink:href="#mf3e2ad0e9a" y="103.325767"/>
     <use style="stroke:#000000;" x="72.742097" xlink:href="#mf3e2ad0e9a" y="103.337763"/>
     <use style="stroke:#000000;" x="72.744769" xlink:href="#mf3e2ad0e9a" y="103.358384"/>
     <use style="stroke:#000000;" x="72.749396" xlink:href="#mf3e2ad0e9a" y="103.394083"/>
     <use style="stroke:#000000;" x="72.757511" xlink:href="#mf3e2ad0e9a" y="103.456656"/>
     <use style="stroke:#000000;" x="72.772726" xlink:href="#mf3e2ad0e9a" y="103.573869"/>
     <use style="stroke:#000000;" x="72.809672" xlink:href="#mf3e2ad0e9a" y="103.857875"/>
     <use style="stroke:#000000;" x="72.846619" xlink:href="#mf3e2ad0e9a" y="104.14101"/>
     <use style="stroke:#000000;" x="72.866763" xlink:href="#mf3e2ad0e9a" y="104.295018"/>
     <use style="stroke:#000000;" x="72.886908" xlink:href="#mf3e2ad0e9a" y="104.448769"/>
     <use style="stroke:#000000;" x="72.907052" xlink:href="#mf3e2ad0e9a" y="104.602263"/>
     <use style="stroke:#000000;" x="72.941803" xlink:href="#mf3e2ad0e9a" y="104.866456"/>
     <use style="stroke:#000000;" x="72.976554" xlink:href="#mf3e2ad0e9a" y="105.129892"/>
     <use style="stroke:#000000;" x="73.011305" xlink:href="#mf3e2ad0e9a" y="105.392572"/>
     <use style="stroke:#000000;" x="73.046056" xlink:href="#mf3e2ad0e9a" y="105.654501"/>
     <use style="stroke:#000000;" x="73.113849" xlink:href="#mf3e2ad0e9a" y="106.163321"/>
     <use style="stroke:#000000;" x="73.181641" xlink:href="#mf3e2ad0e9a" y="106.669317"/>
     <use style="stroke:#000000;" x="73.293564" xlink:href="#mf3e2ad0e9a" y="107.498586"/>
     <use style="stroke:#000000;" x="73.405487" xlink:href="#mf3e2ad0e9a" y="108.320326"/>
     <use style="stroke:#000000;" x="73.51741" xlink:href="#mf3e2ad0e9a" y="109.134641"/>
     <use style="stroke:#000000;" x="73.629333" xlink:href="#mf3e2ad0e9a" y="109.94163"/>
     <use style="stroke:#000000;" x="73.741256" xlink:href="#mf3e2ad0e9a" y="110.741392"/>
     <use style="stroke:#000000;" x="73.916939" xlink:href="#mf3e2ad0e9a" y="111.982413"/>
     <use style="stroke:#000000;" x="74.092621" xlink:href="#mf3e2ad0e9a" y="113.20623"/>
     <use style="stroke:#000000;" x="74.374013" xlink:href="#mf3e2ad0e9a" y="115.131461"/>
     <use style="stroke:#000000;" x="74.655404" xlink:href="#mf3e2ad0e9a" y="117.014872"/>
     <use style="stroke:#000000;" x="74.936796" xlink:href="#mf3e2ad0e9a" y="118.857812"/>
     <use style="stroke:#000000;" x="75.218187" xlink:href="#mf3e2ad0e9a" y="120.661569"/>
     <use style="stroke:#000000;" x="75.499579" xlink:href="#mf3e2ad0e9a" y="122.427381"/>
     <use style="stroke:#000000;" x="75.78097" xlink:href="#mf3e2ad0e9a" y="124.156433"/>
     <use style="stroke:#000000;" x="76.062362" xlink:href="#mf3e2ad0e9a" y="125.849862"/>
     <use style="stroke:#000000;" x="76.343753" xlink:href="#mf3e2ad0e9a" y="127.508756"/>
     <use style="stroke:#000000;" x="76.625145" xlink:href="#mf3e2ad0e9a" y="129.134162"/>
     <use style="stroke:#000000;" x="77.048465" xlink:href="#mf3e2ad0e9a" y="131.518507"/>
     <use style="stroke:#000000;" x="77.471785" xlink:href="#mf3e2ad0e9a" y="133.832575"/>
     <use style="stroke:#000000;" x="77.895106" xlink:href="#mf3e2ad0e9a" y="136.079428"/>
     <use style="stroke:#000000;" x="78.318426" xlink:href="#mf3e2ad0e9a" y="138.261954"/>
     <use style="stroke:#000000;" x="78.741747" xlink:href="#mf3e2ad0e9a" y="140.382875"/>
     <use style="stroke:#000000;" x="79.165067" xlink:href="#mf3e2ad0e9a" y="142.444763"/>
     <use style="stroke:#000000;" x="79.588387" xlink:href="#mf3e2ad0e9a" y="144.45005"/>
     <use style="stroke:#000000;" x="80.011708" xlink:href="#mf3e2ad0e9a" y="146.401034"/>
     <use style="stroke:#000000;" x="80.435028" xlink:href="#mf3e2ad0e9a" y="148.299892"/>
     <use style="stroke:#000000;" x="80.858349" xlink:href="#mf3e2ad0e9a" y="150.148685"/>
     <use style="stroke:#000000;" x="81.281669" xlink:href="#mf3e2ad0e9a" y="151.949367"/>
     <use style="stroke:#000000;" x="81.70499" xlink:href="#mf3e2ad0e9a" y="153.703793"/>
     <use style="stroke:#000000;" x="82.12831" xlink:href="#mf3e2ad0e9a" y="155.413722"/>
     <use style="stroke:#000000;" x="82.55163" xlink:href="#mf3e2ad0e9a" y="157.080825"/>
     <use style="stroke:#000000;" x="82.974951" xlink:href="#mf3e2ad0e9a" y="158.706692"/>
     <use style="stroke:#000000;" x="83.398271" xlink:href="#mf3e2ad0e9a" y="160.292834"/>
     <use style="stroke:#000000;" x="83.821592" xlink:href="#mf3e2ad0e9a" y="161.84069"/>
     <use style="stroke:#000000;" x="84.244912" xlink:href="#mf3e2ad0e9a" y="163.351628"/>
     <use style="stroke:#000000;" x="84.668232" xlink:href="#mf3e2ad0e9a" y="164.826954"/>
     <use style="stroke:#000000;" x="85.091553" xlink:href="#mf3e2ad0e9a" y="166.267913"/>
     <use style="stroke:#000000;" x="85.514873" xlink:href="#mf3e2ad0e9a" y="167.675692"/>
     <use style="stroke:#000000;" x="85.938194" xlink:href="#mf3e2ad0e9a" y="169.051423"/>
     <use style="stroke:#000000;" x="86.361514" xlink:href="#mf3e2ad0e9a" y="170.396189"/>
     <use style="stroke:#000000;" x="86.784835" xlink:href="#mf3e2ad0e9a" y="171.711023"/>
     <use style="stroke:#000000;" x="87.42307" xlink:href="#mf3e2ad0e9a" y="173.638974"/>
     <use style="stroke:#000000;" x="88.061306" xlink:href="#mf3e2ad0e9a" y="175.504327"/>
     <use style="stroke:#000000;" x="88.699541" xlink:href="#mf3e2ad0e9a" y="177.310082"/>
     <use style="stroke:#000000;" x="89.337777" xlink:href="#mf3e2ad0e9a" y="179.059052"/>
     <use style="stroke:#000000;" x="89.976013" xlink:href="#mf3e2ad0e9a" y="180.753873"/>
     <use style="stroke:#000000;" x="90.614248" xlink:href="#mf3e2ad0e9a" y="182.397021"/>
     <use style="stroke:#000000;" x="91.252484" xlink:href="#mf3e2ad0e9a" y="183.990824"/>
     <use style="stroke:#000000;" x="91.890719" xlink:href="#mf3e2ad0e9a" y="185.537472"/>
     <use style="stroke:#000000;" x="92.528955" xlink:href="#mf3e2ad0e9a" y="187.039028"/>
     <use style="stroke:#000000;" x="93.167191" xlink:href="#mf3e2ad0e9a" y="188.497434"/>
     <use style="stroke:#000000;" x="93.805426" xlink:href="#mf3e2ad0e9a" y="189.914525"/>
     <use style="stroke:#000000;" x="94.443662" xlink:href="#mf3e2ad0e9a" y="191.292032"/>
     <use style="stroke:#000000;" x="95.081897" xlink:href="#mf3e2ad0e9a" y="192.63159"/>
     <use style="stroke:#000000;" x="95.720133" xlink:href="#mf3e2ad0e9a" y="193.934746"/>
     <use style="stroke:#000000;" x="96.358369" xlink:href="#mf3e2ad0e9a" y="195.202964"/>
     <use style="stroke:#000000;" x="96.996604" xlink:href="#mf3e2ad0e9a" y="196.437631"/>
     <use style="stroke:#000000;" x="97.63484" xlink:href="#mf3e2ad0e9a" y="197.640061"/>
     <use style="stroke:#000000;" x="98.273075" xlink:href="#mf3e2ad0e9a" y="198.811499"/>
     <use style="stroke:#000000;" x="98.911311" xlink:href="#mf3e2ad0e9a" y="199.953129"/>
     <use style="stroke:#000000;" x="99.549547" xlink:href="#mf3e2ad0e9a" y="201.066075"/>
     <use style="stroke:#000000;" x="100.187782" xlink:href="#mf3e2ad0e9a" y="202.151403"/>
     <use style="stroke:#000000;" x="100.826018" xlink:href="#mf3e2ad0e9a" y="203.21013"/>
     <use style="stroke:#000000;" x="101.464253" xlink:href="#mf3e2ad0e9a" y="204.243222"/>
     <use style="stroke:#000000;" x="102.102489" xlink:href="#mf3e2ad0e9a" y="205.251597"/>
     <use style="stroke:#000000;" x="102.740725" xlink:href="#mf3e2ad0e9a" y="206.236134"/>
     <use style="stroke:#000000;" x="103.703216" xlink:href="#mf3e2ad0e9a" y="207.677618"/>
     <use style="stroke:#000000;" x="104.665707" xlink:href="#mf3e2ad0e9a" y="209.069479"/>
     <use style="stroke:#000000;" x="105.628198" xlink:href="#mf3e2ad0e9a" y="210.414237"/>
     <use style="stroke:#000000;" x="106.590689" xlink:href="#mf3e2ad0e9a" y="211.714242"/>
     <use style="stroke:#000000;" x="107.55318" xlink:href="#mf3e2ad0e9a" y="212.971693"/>
     <use style="stroke:#000000;" x="108.515671" xlink:href="#mf3e2ad0e9a" y="214.188645"/>
     <use style="stroke:#000000;" x="109.478162" xlink:href="#mf3e2ad0e9a" y="215.367024"/>
     <use style="stroke:#000000;" x="110.440653" xlink:href="#mf3e2ad0e9a" y="216.508634"/>
     <use style="stroke:#000000;" x="111.403144" xlink:href="#mf3e2ad0e9a" y="217.615171"/>
     <use style="stroke:#000000;" x="112.365635" xlink:href="#mf3e2ad0e9a" y="218.688226"/>
     <use style="stroke:#000000;" x="113.328126" xlink:href="#mf3e2ad0e9a" y="219.729297"/>
     <use style="stroke:#000000;" x="114.290617" xlink:href="#mf3e2ad0e9a" y="220.739791"/>
     <use style="stroke:#000000;" x="115.253108" xlink:href="#mf3e2ad0e9a" y="221.721038"/>
     <use style="stroke:#000000;" x="116.215599" xlink:href="#mf3e2ad0e9a" y="222.674288"/>
     <use style="stroke:#000000;" x="117.17809" xlink:href="#mf3e2ad0e9a" y="223.600723"/>
     <use style="stroke:#000000;" x="118.140581" xlink:href="#mf3e2ad0e9a" y="224.501458"/>
     <use style="stroke:#000000;" x="119.103072" xlink:href="#mf3e2ad0e9a" y="225.377549"/>
     <use style="stroke:#000000;" x="120.065564" xlink:href="#mf3e2ad0e9a" y="226.229994"/>
     <use style="stroke:#000000;" x="121.028055" xlink:href="#mf3e2ad0e9a" y="227.059736"/>
     <use style="stroke:#000000;" x="121.990546" xlink:href="#mf3e2ad0e9a" y="227.86767"/>
     <use style="stroke:#000000;" x="122.953037" xlink:href="#mf3e2ad0e9a" y="228.654646"/>
     <use style="stroke:#000000;" x="123.915528" xlink:href="#mf3e2ad0e9a" y="229.421469"/>
     <use style="stroke:#000000;" x="124.878019" xlink:href="#mf3e2ad0e9a" y="230.168902"/>
     <use style="stroke:#000000;" x="125.84051" xlink:href="#mf3e2ad0e9a" y="230.897673"/>
     <use style="stroke:#000000;" x="127.286256" xlink:href="#mf3e2ad0e9a" y="231.958784"/>
     <use style="stroke:#000000;" x="128.732002" xlink:href="#mf3e2ad0e9a" y="232.981535"/>
     <use style="stroke:#000000;" x="130.177748" xlink:href="#mf3e2ad0e9a" y="233.96797"/>
     <use style="stroke:#000000;" x="131.623494" xlink:href="#mf3e2ad0e9a" y="234.919989"/>
     <use style="stroke:#000000;" x="133.06924" xlink:href="#mf3e2ad0e9a" y="235.839362"/>
     <use style="stroke:#000000;" x="134.514986" xlink:href="#mf3e2ad0e9a" y="236.727741"/>
     <use style="stroke:#000000;" x="135.960732" xlink:href="#mf3e2ad0e9a" y="237.586666"/>
     <use style="stroke:#000000;" x="137.406478" xlink:href="#mf3e2ad0e9a" y="238.417579"/>
     <use style="stroke:#000000;" x="138.852224" xlink:href="#mf3e2ad0e9a" y="239.221827"/>
     <use style="stroke:#000000;" x="140.297971" xlink:href="#mf3e2ad0e9a" y="240.000675"/>
     <use style="stroke:#000000;" x="141.743717" xlink:href="#mf3e2ad0e9a" y="240.755307"/>
     <use style="stroke:#000000;" x="143.189463" xlink:href="#mf3e2ad0e9a" y="241.486834"/>
     <use style="stroke:#000000;" x="144.635209" xlink:href="#mf3e2ad0e9a" y="242.196303"/>
     <use style="stroke:#000000;" x="146.080955" xlink:href="#mf3e2ad0e9a" y="242.884695"/>
     <use style="stroke:#000000;" x="147.526701" xlink:href="#mf3e2ad0e9a" y="243.552937"/>
     <use style="stroke:#000000;" x="148.972447" xlink:href="#mf3e2ad0e9a" y="244.201899"/>
     <use style="stroke:#000000;" x="150.418193" xlink:href="#mf3e2ad0e9a" y="244.832406"/>
     <use style="stroke:#000000;" x="151.863939" xlink:href="#mf3e2ad0e9a" y="245.445233"/>
     <use style="stroke:#000000;" x="153.309685" xlink:href="#mf3e2ad0e9a" y="246.041113"/>
     <use style="stroke:#000000;" x="154.755431" xlink:href="#mf3e2ad0e9a" y="246.62074"/>
     <use style="stroke:#000000;" x="156.201177" xlink:href="#mf3e2ad0e9a" y="247.184769"/>
     <use style="stroke:#000000;" x="157.646923" xlink:href="#mf3e2ad0e9a" y="247.733823"/>
     <use style="stroke:#000000;" x="159.09267" xlink:href="#mf3e2ad0e9a" y="248.268489"/>
     <use style="stroke:#000000;" x="161.265206" xlink:href="#mf3e2ad0e9a" y="249.0461"/>
     <use style="stroke:#000000;" x="163.437743" xlink:href="#mf3e2ad0e9a" y="249.794252"/>
     <use style="stroke:#000000;" x="165.61028" xlink:href="#mf3e2ad0e9a" y="250.514586"/>
     <use style="stroke:#000000;" x="167.782816" xlink:href="#mf3e2ad0e9a" y="251.208626"/>
     <use style="stroke:#000000;" x="169.955353" xlink:href="#mf3e2ad0e9a" y="251.877787"/>
     <use style="stroke:#000000;" x="172.12789" xlink:href="#mf3e2ad0e9a" y="252.523382"/>
     <use style="stroke:#000000;" x="174.300426" xlink:href="#mf3e2ad0e9a" y="253.146635"/>
     <use style="stroke:#000000;" x="176.472963" xlink:href="#mf3e2ad0e9a" y="253.748686"/>
     <use style="stroke:#000000;" x="178.6455" xlink:href="#mf3e2ad0e9a" y="254.330598"/>
     <use style="stroke:#000000;" x="180.818036" xlink:href="#mf3e2ad0e9a" y="254.893365"/>
     <use style="stroke:#000000;" x="182.990573" xlink:href="#mf3e2ad0e9a" y="255.437918"/>
     <use style="stroke:#000000;" x="185.163109" xlink:href="#mf3e2ad0e9a" y="255.965125"/>
     <use style="stroke:#000000;" x="187.335646" xlink:href="#mf3e2ad0e9a" y="256.475804"/>
     <use style="stroke:#000000;" x="189.508183" xlink:href="#mf3e2ad0e9a" y="256.970718"/>
     <use style="stroke:#000000;" x="191.680719" xlink:href="#mf3e2ad0e9a" y="257.450588"/>
     <use style="stroke:#000000;" x="193.853256" xlink:href="#mf3e2ad0e9a" y="257.916088"/>
     <use style="stroke:#000000;" x="196.025793" xlink:href="#mf3e2ad0e9a" y="258.367855"/>
     <use style="stroke:#000000;" x="198.198329" xlink:href="#mf3e2ad0e9a" y="258.806487"/>
     <use style="stroke:#000000;" x="200.370866" xlink:href="#mf3e2ad0e9a" y="259.23255"/>
     <use style="stroke:#000000;" x="202.543403" xlink:href="#mf3e2ad0e9a" y="259.646576"/>
     <use style="stroke:#000000;" x="204.715939" xlink:href="#mf3e2ad0e9a" y="260.049067"/>
     <use style="stroke:#000000;" x="206.888476" xlink:href="#mf3e2ad0e9a" y="260.440499"/>
     <use style="stroke:#000000;" x="210.161919" xlink:href="#mf3e2ad0e9a" y="261.010387"/>
     <use style="stroke:#000000;" x="213.435363" xlink:href="#mf3e2ad0e9a" y="261.557619"/>
     <use style="stroke:#000000;" x="216.708806" xlink:href="#mf3e2ad0e9a" y="262.083521"/>
     <use style="stroke:#000000;" x="219.982249" xlink:href="#mf3e2ad0e9a" y="262.589316"/>
     <use style="stroke:#000000;" x="223.255693" xlink:href="#mf3e2ad0e9a" y="263.076136"/>
     <use style="stroke:#000000;" x="226.529136" xlink:href="#mf3e2ad0e9a" y="263.545029"/>
     <use style="stroke:#000000;" x="229.802579" xlink:href="#mf3e2ad0e9a" y="263.996966"/>
     <use style="stroke:#000000;" x="233.076023" xlink:href="#mf3e2ad0e9a" y="264.432852"/>
     <use style="stroke:#000000;" x="236.349466" xlink:href="#mf3e2ad0e9a" y="264.853527"/>
     <use style="stroke:#000000;" x="239.622909" xlink:href="#mf3e2ad0e9a" y="265.259773"/>
     <use style="stroke:#000000;" x="242.896352" xlink:href="#mf3e2ad0e9a" y="265.652319"/>
     <use style="stroke:#000000;" x="246.169796" xlink:href="#mf3e2ad0e9a" y="266.031849"/>
     <use style="stroke:#000000;" x="249.443239" xlink:href="#mf3e2ad0e9a" y="266.398998"/>
     <use style="stroke:#000000;" x="252.716682" xlink:href="#mf3e2ad0e9a" y="266.754362"/>
     <use style="stroke:#000000;" x="255.990126" xlink:href="#mf3e2ad0e9a" y="267.0985"/>
     <use style="stroke:#000000;" x="259.263569" xlink:href="#mf3e2ad0e9a" y="267.431936"/>
     <use style="stroke:#000000;" x="262.537012" xlink:href="#mf3e2ad0e9a" y="267.755161"/>
     <use style="stroke:#000000;" x="265.810456" xlink:href="#mf3e2ad0e9a" y="268.068637"/>
     <use style="stroke:#000000;" x="269.083899" xlink:href="#mf3e2ad0e9a" y="268.372799"/>
     <use style="stroke:#000000;" x="272.357342" xlink:href="#mf3e2ad0e9a" y="268.668055"/>
     <use style="stroke:#000000;" x="275.630785" xlink:href="#mf3e2ad0e9a" y="268.954792"/>
     <use style="stroke:#000000;" x="280.565011" xlink:href="#mf3e2ad0e9a" y="269.371702"/>
     <use style="stroke:#000000;" x="285.499237" xlink:href="#mf3e2ad0e9a" y="269.771233"/>
     <use style="stroke:#000000;" x="290.433462" xlink:href="#mf3e2ad0e9a" y="270.154451"/>
     <use style="stroke:#000000;" x="295.367688" xlink:href="#mf3e2ad0e9a" y="270.522335"/>
     <use style="stroke:#000000;" x="300.301913" xlink:href="#mf3e2ad0e9a" y="270.875787"/>
     <use style="stroke:#000000;" x="305.236139" xlink:href="#mf3e2ad0e9a" y="271.21564"/>
     <use style="stroke:#000000;" x="310.170364" xlink:href="#mf3e2ad0e9a" y="271.542664"/>
    </g>
   </g>
   <g id="line2d_17">
    <path clip-path="url(#pb9b9d50ffe)" d="M 72.738977 106.118389 
L 74.265585 117.274656 
L 76.029082 128.57563 
L 77.790815 138.468289 
L 79.491201 146.921468 
L 81.729396 156.696808 
L 83.63255 164.006148 
L 85.887508 171.682321 
L 87.888852 177.743663 
L 90.904253 185.774907 
L 93.412543 191.618931 
L 96.223643 197.425946 
L 99.034744 202.576478 
L 101.845844 207.175892 
L 104.656944 211.30815 
L 107.468044 215.040986 
L 110.279144 218.42964 
L 113.090245 221.519617 
L 115.901345 224.348738 
L 118.712445 226.948696 
L 122.958525 230.499575 
L 127.204605 233.663364 
L 131.450686 236.500088 
L 135.696766 239.05797 
L 139.942846 241.376198 
L 144.188926 243.486946 
L 149.850366 246.023959 
L 156.384983 248.618738 
L 162.919599 250.915038 
L 169.454216 252.961559 
L 175.988832 254.796952 
L 184.701654 256.968557 
L 193.414476 258.877572 
L 202.217635 260.585436 
L 212.155065 262.291492 
L 222.092496 263.801308 
L 235.342402 265.563487 
L 248.592309 267.091343 
L 261.842216 268.4287 
L 277.086739 269.774895 
L 297.412769 271.312487 
L 317.7388 272.617221 
L 343.146337 273.994299 
L 366.191393 275.05235 
L 397.393523 276.261652 
L 397.393523 276.261652 
" style="fill:none;stroke:#0000ff;stroke-linecap:square;stroke-width:1.5;"/>
   </g>
   <g id="line2d_18">
    <path clip-path="url(#pb9b9d50ffe)" d="M 72.738977 104.131271 
L 74.645468 112.715957 
L 76.964508 122.138746 
L 78.970309 129.510406 
L 81.276881 137.219293 
L 83.407802 143.705509 
L 86.057588 151.034784 
L 88.486552 157.130594 
L 90.915515 162.708932 
L 93.221311 167.583237 
L 96.770855 174.390247 
L 99.850959 179.705121 
L 102.931064 184.547138 
L 106.378486 189.479901 
L 109.107482 193.064907 
L 113.038805 197.795871 
L 116.260112 201.336586 
L 119.48142 204.611398 
L 122.702727 207.649174 
L 127.534687 211.814792 
L 132.366648 215.572432 
L 137.198609 218.97923 
L 142.03057 222.082128 
L 146.86253 224.920053 
L 151.694491 227.525555 
L 155.754253 229.555196 
L 160.65247 231.831226 
L 167.999795 234.933982 
L 175.34712 237.714859 
L 182.694445 240.221473 
L 190.04177 242.492491 
L 197.389096 244.559636 
L 207.185529 247.043464 
L 218.519568 249.588591 
L 229.853607 251.839593 
L 241.187646 253.844671 
L 252.521684 255.642038 
L 267.633736 257.7676 
L 282.745788 259.635201 
L 298.033369 261.307211 
L 315.297722 262.977144 
L 332.562075 264.45414 
L 355.581212 266.177 
L 378.600349 267.669881 
L 395.864702 268.665 
L 395.864702 268.665 
" style="fill:none;stroke:#ff0000;stroke-linecap:square;stroke-width:1.5;"/>
   </g>
   <g id="line2d_19">
    <path clip-path="url(#pb9b9d50ffe)" d="M 72.738977 34.414125 
L 74.092621 49.996113 
L 75.78097 66.817244 
L 77.471785 81.33667 
L 79.165067 94.031261 
L 80.858349 105.182804 
L 82.55163 115.072922 
L 84.244912 123.900411 
L 86.361514 133.713675 
L 88.061306 140.747284 
L 90.614248 150.164376 
L 92.528955 156.456042 
L 95.081897 163.966953 
L 97.63484 170.649196 
L 100.187782 176.64179 
L 102.740725 182.041602 
L 105.628198 187.537547 
L 108.515671 192.481712 
L 111.403144 196.956356 
L 114.290617 201.027843 
L 117.17809 204.74686 
L 120.065564 208.161559 
L 123.915528 212.291092 
L 127.286256 215.578008 
L 131.623494 219.402047 
L 135.960732 222.84245 
L 140.297971 225.953775 
L 144.635209 228.782187 
L 148.972447 231.364432 
L 154.755431 234.475381 
L 159.09267 236.595537 
L 165.61028 239.484682 
L 172.12789 242.068056 
L 178.6455 244.392042 
L 185.163109 246.493808 
L 191.680719 248.403979 
L 200.370866 250.692263 
L 206.888476 252.246333 
L 216.708806 254.36026 
L 226.529136 256.241113 
L 236.349466 257.925589 
L 249.443239 259.915368 
L 262.537012 261.661259 
L 275.630785 263.205768 
L 290.433462 264.751567 
L 310.170364 266.541478 
L 310.170364 266.541478 
" style="fill:none;stroke:#0000ff;stroke-dasharray:5.55,2.4;stroke-dashoffset:0;stroke-width:1.5;"/>
   </g>
   <g id="line2d_20">
    <path clip-path="url(#pb9b9d50ffe)" d="M 72.738977 157.5907 
L 74.655404 166.30479 
L 76.625145 174.227116 
L 78.741747 181.759962 
L 80.858349 188.4256 
L 82.974951 194.352033 
L 85.091553 199.652924 
L 87.42307 204.871368 
L 89.976013 209.955672 
L 92.528955 214.479956 
L 95.081897 218.522402 
L 97.63484 222.160881 
L 100.187782 225.452033 
L 102.740725 228.441478 
L 105.628198 231.502683 
L 108.515671 234.272054 
L 111.403144 236.789998 
L 115.253108 239.810079 
L 119.103072 242.500261 
L 122.953037 244.917774 
L 127.286256 247.350895 
L 131.623494 249.531701 
L 135.960732 251.495036 
L 141.743717 253.827346 
L 147.526701 255.885291 
L 153.309685 257.712536 
L 159.09267 259.349786 
L 165.61028 260.998605 
L 174.300426 262.928674 
L 182.990573 264.606831 
L 191.680719 266.079267 
L 202.543403 267.683713 
L 213.435363 269.077253 
L 226.529136 270.526157 
L 239.622909 271.774558 
L 255.990126 273.111599 
L 275.630785 274.458413 
L 295.367688 275.595046 
L 310.170364 276.334125 
L 310.170364 276.334125 
" style="fill:none;stroke:#0000ff;stroke-dasharray:5.55,2.4;stroke-dashoffset:0;stroke-width:1.5;"/>
   </g>
   <g id="line2d_21"/>
   <g id="line2d_22"/>
   <g id="line2d_23"/>
   <g id="line2d_24"/>
   <g id="patch_3">
    <path d="M 56.50625 288.430125 
L 56.50625 22.318125 
" style="fill:none;stroke:#000000;stroke-linecap:square;stroke-linejoin:miter;stroke-width:0.8;"/>
   </g>
   <g id="patch_4">
    <path d="M 413.62625 288.430125 
L 413.62625 22.318125 
" style="fill:none;stroke:#000000;stroke-linecap:square;stroke-linejoin:miter;stroke-width:0.8;"/>
   </g>
   <g id="patch_5">
    <path d="M 56.50625 288.430125 
L 413.62625 288.430125 
" style="fill:none;stroke:#000000;stroke-linecap:square;stroke-linejoin:miter;stroke-width:0.8;"/>
   </g>
   <g id="patch_6">
    <path d="M 56.50625 22.318125 
L 413.62625 22.318125 
" style="fill:none;stroke:#000000;stroke-linecap:square;stroke-linejoin:miter;stroke-width:0.8;"/>
   </g>
   <g id="text_18">
    <!-- Experiment_98 -->
    <g transform="translate(189.763438 16.318125)scale(0.12 -0.12)">
     <defs>
      <path d="M 9.8125 72.90625 
L 55.90625 72.90625 
L 55.90625 64.59375 
L 19.671875 64.59375 
L 19.671875 43.015625 
L 54.390625 43.015625 
L 54.390625 34.71875 
L 19.671875 34.71875 
L 19.671875 8.296875 
L 56.78125 8.296875 
L 56.78125 0 
L 9.8125 0 
z
" id="DejaVuSans-69"/>
      <path d="M 54.890625 54.6875 
L 35.109375 28.078125 
L 55.90625 0 
L 45.3125 0 
L 29.390625 21.484375 
L 13.484375 0 
L 2.875 0 
L 24.125 28.609375 
L 4.6875 54.6875 
L 15.28125 54.6875 
L 29.78125 35.203125 
L 44.28125 54.6875 
z
" id="DejaVuSans-120"/>
      <path d="M 18.109375 8.203125 
L 18.109375 -20.796875 
L 9.078125 -20.796875 
L 9.078125 54.6875 
L 18.109375 54.6875 
L 18.109375 46.390625 
Q 20.953125 51.265625 25.265625 53.625 
Q 29.59375 56 35.59375 56 
Q 45.5625 56 51.78125 48.09375 
Q 58.015625 40.1875 58.015625 27.296875 
Q 58.015625 14.40625 51.78125 6.484375 
Q 45.5625 -1.421875 35.59375 -1.421875 
Q 29.59375 -1.421875 25.265625 0.953125 
Q 20.953125 3.328125 18.109375 8.203125 
z
M 48.6875 27.296875 
Q 48.6875 37.203125 44.609375 42.84375 
Q 40.53125 48.484375 33.40625 48.484375 
Q 26.265625 48.484375 22.1875 42.84375 
Q 18.109375 37.203125 18.109375 27.296875 
Q 18.109375 17.390625 22.1875 11.75 
Q 26.265625 6.109375 33.40625 6.109375 
Q 40.53125 6.109375 44.609375 11.75 
Q 48.6875 17.390625 48.6875 27.296875 
z
" id="DejaVuSans-112"/>
      <path d="M 18.3125 70.21875 
L 18.3125 54.6875 
L 36.8125 54.6875 
L 36.8125 47.703125 
L 18.3125 47.703125 
L 18.3125 18.015625 
Q 18.3125 11.328125 20.140625 9.421875 
Q 21.96875 7.515625 27.59375 7.515625 
L 36.8125 7.515625 
L 36.8125 0 
L 27.59375 0 
Q 17.1875 0 13.234375 3.875 
Q 9.28125 7.765625 9.28125 18.015625 
L 9.28125 47.703125 
L 2.6875 47.703125 
L 2.6875 54.6875 
L 9.28125 54.6875 
L 9.28125 70.21875 
z
" id="DejaVuSans-116"/>
      <path d="M 50.984375 -16.609375 
L 50.984375 -23.578125 
L -0.984375 -23.578125 
L -0.984375 -16.609375 
z
" id="DejaVuSans-95"/>
      <path d="M 10.984375 1.515625 
L 10.984375 10.5 
Q 14.703125 8.734375 18.5 7.8125 
Q 22.3125 6.890625 25.984375 6.890625 
Q 35.75 6.890625 40.890625 13.453125 
Q 46.046875 20.015625 46.78125 33.40625 
Q 43.953125 29.203125 39.59375 26.953125 
Q 35.25 24.703125 29.984375 24.703125 
Q 19.046875 24.703125 12.671875 31.3125 
Q 6.296875 37.9375 6.296875 49.421875 
Q 6.296875 60.640625 12.9375 67.421875 
Q 19.578125 74.21875 30.609375 74.21875 
Q 43.265625 74.21875 49.921875 64.515625 
Q 56.59375 54.828125 56.59375 36.375 
Q 56.59375 19.140625 48.40625 8.859375 
Q 40.234375 -1.421875 26.421875 -1.421875 
Q 22.703125 -1.421875 18.890625 -0.6875 
Q 15.09375 0.046875 10.984375 1.515625 
z
M 30.609375 32.421875 
Q 37.25 32.421875 41.125 36.953125 
Q 45.015625 41.5 45.015625 49.421875 
Q 45.015625 57.28125 41.125 61.84375 
Q 37.25 66.40625 30.609375 66.40625 
Q 23.96875 66.40625 20.09375 61.84375 
Q 16.21875 57.28125 16.21875 49.421875 
Q 16.21875 41.5 20.09375 36.953125 
Q 23.96875 32.421875 30.609375 32.421875 
z
" id="DejaVuSans-57"/>
     </defs>
     <use xlink:href="#DejaVuSans-69"/>
     <use x="63.183594" xlink:href="#DejaVuSans-120"/>
     <use x="122.363281" xlink:href="#DejaVuSans-112"/>
     <use x="185.839844" xlink:href="#DejaVuSans-101"/>
     <use x="247.363281" xlink:href="#DejaVuSans-114"/>
     <use x="288.476562" xlink:href="#DejaVuSans-105"/>
     <use x="316.259766" xlink:href="#DejaVuSans-109"/>
     <use x="413.671875" xlink:href="#DejaVuSans-101"/>
     <use x="475.195312" xlink:href="#DejaVuSans-110"/>
     <use x="538.574219" xlink:href="#DejaVuSans-116"/>
     <use x="577.783203" xlink:href="#DejaVuSans-95"/>
     <use x="627.783203" xlink:href="#DejaVuSans-57"/>
     <use x="691.40625" xlink:href="#DejaVuSans-56"/>
    </g>
   </g>
   <g id="legend_1">
    <g id="patch_7">
     <path d="M 78.009062 89.0525 
L 406.62625 89.0525 
Q 408.62625 89.0525 408.62625 87.0525 
L 408.62625 29.318125 
Q 408.62625 27.318125 406.62625 27.318125 
L 78.009062 27.318125 
Q 76.009062 27.318125 76.009062 29.318125 
L 76.009062 87.0525 
Q 76.009062 89.0525 78.009062 89.0525 
z
" style="fill:#ffffff;opacity:0.8;stroke:#cccccc;stroke-linejoin:miter;"/>
    </g>
    <g id="line2d_25"/>
    <g id="line2d_26">
     <g>
      <use style="stroke:#000000;" x="90.009062" xlink:href="#mf3e2ad0e9a" y="35.416562"/>
     </g>
    </g>
    <g id="text_19">
     <!-- Experimental Data -->
     <g transform="translate(108.009062 38.916562)scale(0.1 -0.1)">
      <defs>
       <path d="M 9.421875 75.984375 
L 18.40625 75.984375 
L 18.40625 0 
L 9.421875 0 
z
" id="DejaVuSans-108"/>
       <path d="M 19.671875 64.796875 
L 19.671875 8.109375 
L 31.59375 8.109375 
Q 46.6875 8.109375 53.6875 14.9375 
Q 60.6875 21.78125 60.6875 36.53125 
Q 60.6875 51.171875 53.6875 57.984375 
Q 46.6875 64.796875 31.59375 64.796875 
z
M 9.8125 72.90625 
L 30.078125 72.90625 
Q 51.265625 72.90625 61.171875 64.09375 
Q 71.09375 55.28125 71.09375 36.53125 
Q 71.09375 17.671875 61.125 8.828125 
Q 51.171875 0 30.078125 0 
L 9.8125 0 
z
" id="DejaVuSans-68"/>
      </defs>
      <use xlink:href="#DejaVuSans-69"/>
      <use x="63.183594" xlink:href="#DejaVuSans-120"/>
      <use x="122.363281" xlink:href="#DejaVuSans-112"/>
      <use x="185.839844" xlink:href="#DejaVuSans-101"/>
      <use x="247.363281" xlink:href="#DejaVuSans-114"/>
      <use x="288.476562" xlink:href="#DejaVuSans-105"/>
      <use x="316.259766" xlink:href="#DejaVuSans-109"/>
      <use x="413.671875" xlink:href="#DejaVuSans-101"/>
      <use x="475.195312" xlink:href="#DejaVuSans-110"/>
      <use x="538.574219" xlink:href="#DejaVuSans-116"/>
      <use x="577.783203" xlink:href="#DejaVuSans-97"/>
      <use x="639.0625" xlink:href="#DejaVuSans-108"/>
      <use x="666.845703" xlink:href="#DejaVuSans-32"/>
      <use x="698.632812" xlink:href="#DejaVuSans-68"/>
      <use x="775.634766" xlink:href="#DejaVuSans-97"/>
      <use x="836.914062" xlink:href="#DejaVuSans-116"/>
      <use x="876.123047" xlink:href="#DejaVuSans-97"/>
     </g>
    </g>
    <g id="line2d_27">
     <path d="M 80.009062 50.094688 
L 100.009062 50.094688 
" style="fill:none;stroke:#0000ff;stroke-linecap:square;stroke-width:1.5;"/>
    </g>
    <g id="line2d_28"/>
    <g id="text_20">
     <!-- MSI -->
     <g transform="translate(108.009062 53.594688)scale(0.1 -0.1)">
      <defs>
       <path d="M 9.8125 72.90625 
L 24.515625 72.90625 
L 43.109375 23.296875 
L 61.8125 72.90625 
L 76.515625 72.90625 
L 76.515625 0 
L 66.890625 0 
L 66.890625 64.015625 
L 48.09375 14.015625 
L 38.1875 14.015625 
L 19.390625 64.015625 
L 19.390625 0 
L 9.8125 0 
z
" id="DejaVuSans-77"/>
       <path d="M 53.515625 70.515625 
L 53.515625 60.890625 
Q 47.90625 63.578125 42.921875 64.890625 
Q 37.9375 66.21875 33.296875 66.21875 
Q 25.25 66.21875 20.875 63.09375 
Q 16.5 59.96875 16.5 54.203125 
Q 16.5 49.359375 19.40625 46.890625 
Q 22.3125 44.4375 30.421875 42.921875 
L 36.375 41.703125 
Q 47.40625 39.59375 52.65625 34.296875 
Q 57.90625 29 57.90625 20.125 
Q 57.90625 9.515625 50.796875 4.046875 
Q 43.703125 -1.421875 29.984375 -1.421875 
Q 24.8125 -1.421875 18.96875 -0.25 
Q 13.140625 0.921875 6.890625 3.21875 
L 6.890625 13.375 
Q 12.890625 10.015625 18.65625 8.296875 
Q 24.421875 6.59375 29.984375 6.59375 
Q 38.421875 6.59375 43.015625 9.90625 
Q 47.609375 13.234375 47.609375 19.390625 
Q 47.609375 24.75 44.3125 27.78125 
Q 41.015625 30.8125 33.5 32.328125 
L 27.484375 33.5 
Q 16.453125 35.6875 11.515625 40.375 
Q 6.59375 45.0625 6.59375 53.421875 
Q 6.59375 63.09375 13.40625 68.65625 
Q 20.21875 74.21875 32.171875 74.21875 
Q 37.3125 74.21875 42.625 73.28125 
Q 47.953125 72.359375 53.515625 70.515625 
z
" id="DejaVuSans-83"/>
       <path d="M 9.8125 72.90625 
L 19.671875 72.90625 
L 19.671875 0 
L 9.8125 0 
z
" id="DejaVuSans-73"/>
      </defs>
      <use xlink:href="#DejaVuSans-77"/>
      <use x="86.279297" xlink:href="#DejaVuSans-83"/>
      <use x="149.755859" xlink:href="#DejaVuSans-73"/>
     </g>
    </g>
    <g id="line2d_29">
     <path d="M 80.009062 64.774375 
L 100.009062 64.774375 
" style="fill:none;stroke:#ff0000;stroke-linecap:square;stroke-width:1.5;"/>
    </g>
    <g id="line2d_30"/>
    <g id="text_21">
     <!-- $\it{A priori}$ model -->
     <g transform="translate(108.009062 68.274375)scale(0.1 -0.1)">
      <defs>
       <path d="M 36.8125 72.90625 
L 48 72.90625 
L 61.53125 0 
L 51.21875 0 
L 48.1875 18.703125 
L 15.375 18.703125 
L 5.078125 0 
L -5.328125 0 
z
M 40.375 63.1875 
L 19.921875 26.90625 
L 46.6875 26.90625 
z
" id="DejaVuSans-Oblique-65"/>
       <path d="M 49.609375 33.6875 
Q 49.609375 40.875 46.484375 44.671875 
Q 43.359375 48.484375 37.5 48.484375 
Q 33.5 48.484375 29.859375 46.4375 
Q 26.21875 44.390625 23.390625 40.484375 
Q 20.609375 36.625 18.9375 31.15625 
Q 17.28125 25.6875 17.28125 20.3125 
Q 17.28125 13.484375 20.40625 9.796875 
Q 23.53125 6.109375 29.296875 6.109375 
Q 33.546875 6.109375 37.1875 8.109375 
Q 40.828125 10.109375 43.40625 13.921875 
Q 46.1875 17.921875 47.890625 23.34375 
Q 49.609375 28.765625 49.609375 33.6875 
z
M 21.78125 46.390625 
Q 25.390625 51.125 30.296875 53.5625 
Q 35.203125 56 41.21875 56 
Q 49.609375 56 54.25 50.5 
Q 58.890625 45.015625 58.890625 35.109375 
Q 58.890625 27 56 19.65625 
Q 53.125 12.3125 47.703125 6.5 
Q 44.09375 2.640625 39.546875 0.609375 
Q 35.015625 -1.421875 29.984375 -1.421875 
Q 24.171875 -1.421875 20.21875 1 
Q 16.265625 3.421875 14.3125 8.203125 
L 8.6875 -20.796875 
L -0.296875 -20.796875 
L 14.40625 54.6875 
L 23.390625 54.6875 
z
" id="DejaVuSans-Oblique-112"/>
       <path d="M 44.578125 46.390625 
Q 43.21875 47.125 41.453125 47.515625 
Q 39.703125 47.90625 37.703125 47.90625 
Q 30.515625 47.90625 25.140625 42.453125 
Q 19.78125 37.015625 18.015625 27.875 
L 12.5 0 
L 3.515625 0 
L 14.203125 54.6875 
L 23.1875 54.6875 
L 21.484375 46.1875 
Q 25.046875 50.921875 30 53.453125 
Q 34.96875 56 40.578125 56 
Q 42.046875 56 43.453125 55.828125 
Q 44.875 55.671875 46.296875 55.28125 
z
" id="DejaVuSans-Oblique-114"/>
       <path d="M 18.3125 75.984375 
L 27.296875 75.984375 
L 25.09375 64.59375 
L 16.109375 64.59375 
z
M 14.203125 54.6875 
L 23.1875 54.6875 
L 12.5 0 
L 3.515625 0 
z
" id="DejaVuSans-Oblique-105"/>
       <path d="M 25.390625 -1.421875 
Q 15.765625 -1.421875 10.171875 4.515625 
Q 4.59375 10.453125 4.59375 20.703125 
Q 4.59375 26.65625 6.515625 32.828125 
Q 8.453125 39.015625 11.53125 43.21875 
Q 16.359375 49.75 22.3125 52.875 
Q 28.265625 56 35.796875 56 
Q 45.125 56 50.859375 50.1875 
Q 56.59375 44.390625 56.59375 35.015625 
Q 56.59375 28.515625 54.6875 22.0625 
Q 52.78125 15.625 49.703125 11.375 
Q 44.921875 4.828125 38.96875 1.703125 
Q 33.015625 -1.421875 25.390625 -1.421875 
z
M 13.921875 21 
Q 13.921875 13.578125 17.015625 9.890625 
Q 20.125 6.203125 26.421875 6.203125 
Q 35.453125 6.203125 41.375 14.078125 
Q 47.3125 21.96875 47.3125 34.078125 
Q 47.3125 41.15625 44.140625 44.765625 
Q 40.96875 48.390625 34.8125 48.390625 
Q 29.734375 48.390625 25.78125 46.015625 
Q 21.828125 43.65625 18.703125 38.8125 
Q 16.40625 35.203125 15.15625 30.5625 
Q 13.921875 25.921875 13.921875 21 
z
" id="DejaVuSans-Oblique-111"/>
       <path d="M 45.40625 46.390625 
L 45.40625 75.984375 
L 54.390625 75.984375 
L 54.390625 0 
L 45.40625 0 
L 45.40625 8.203125 
Q 42.578125 3.328125 38.25 0.953125 
Q 33.9375 -1.421875 27.875 -1.421875 
Q 17.96875 -1.421875 11.734375 6.484375 
Q 5.515625 14.40625 5.515625 27.296875 
Q 5.515625 40.1875 11.734375 48.09375 
Q 17.96875 56 27.875 56 
Q 33.9375 56 38.25 53.625 
Q 42.578125 51.265625 45.40625 46.390625 
z
M 14.796875 27.296875 
Q 14.796875 17.390625 18.875 11.75 
Q 22.953125 6.109375 30.078125 6.109375 
Q 37.203125 6.109375 41.296875 11.75 
Q 45.40625 17.390625 45.40625 27.296875 
Q 45.40625 37.203125 41.296875 42.84375 
Q 37.203125 48.484375 30.078125 48.484375 
Q 22.953125 48.484375 18.875 42.84375 
Q 14.796875 37.203125 14.796875 27.296875 
z
" id="DejaVuSans-100"/>
      </defs>
      <use transform="translate(0 0.015625)" xlink:href="#DejaVuSans-Oblique-65"/>
      <use transform="translate(68.408203 0.015625)" xlink:href="#DejaVuSans-Oblique-112"/>
      <use transform="translate(131.884766 0.015625)" xlink:href="#DejaVuSans-Oblique-114"/>
      <use transform="translate(172.998047 0.015625)" xlink:href="#DejaVuSans-Oblique-105"/>
      <use transform="translate(200.78125 0.015625)" xlink:href="#DejaVuSans-Oblique-111"/>
      <use transform="translate(261.962891 0.015625)" xlink:href="#DejaVuSans-Oblique-114"/>
      <use transform="translate(303.076172 0.015625)" xlink:href="#DejaVuSans-Oblique-105"/>
      <use transform="translate(330.859375 0.015625)" xlink:href="#DejaVuSans-32"/>
      <use transform="translate(362.646484 0.015625)" xlink:href="#DejaVuSans-109"/>
      <use transform="translate(460.058594 0.015625)" xlink:href="#DejaVuSans-111"/>
      <use transform="translate(521.240234 0.015625)" xlink:href="#DejaVuSans-100"/>
      <use transform="translate(584.716797 0.015625)" xlink:href="#DejaVuSans-101"/>
      <use transform="translate(646.240234 0.015625)" xlink:href="#DejaVuSans-108"/>
     </g>
    </g>
    <g id="line2d_31">
     <path d="M 80.009062 79.472813 
L 100.009062 79.472813 
" style="fill:none;stroke:#ffffff;stroke-linecap:square;stroke-width:1.5;"/>
    </g>
    <g id="line2d_32"/>
    <g id="text_22">
     <!-- T:714.0 -->
     <g transform="translate(108.009062 82.972813)scale(0.1 -0.1)">
      <defs>
       <path d="M 11.71875 12.40625 
L 22.015625 12.40625 
L 22.015625 0 
L 11.71875 0 
z
M 11.71875 51.703125 
L 22.015625 51.703125 
L 22.015625 39.3125 
L 11.71875 39.3125 
z
" id="DejaVuSans-58"/>
       <path d="M 8.203125 72.90625 
L 55.078125 72.90625 
L 55.078125 68.703125 
L 28.609375 0 
L 18.3125 0 
L 43.21875 64.59375 
L 8.203125 64.59375 
z
" id="DejaVuSans-55"/>
      </defs>
      <use xlink:href="#DejaVuSans-84"/>
      <use x="50.083984" xlink:href="#DejaVuSans-58"/>
      <use x="83.775391" xlink:href="#DejaVuSans-55"/>
      <use x="147.398438" xlink:href="#DejaVuSans-49"/>
      <use x="211.021484" xlink:href="#DejaVuSans-52"/>
      <use x="274.644531" xlink:href="#DejaVuSans-46"/>
      <use x="306.431641" xlink:href="#DejaVuSans-48"/>
     </g>
    </g>
    <g id="line2d_33">
     <path d="M 221.749688 35.416562 
L 241.749688 35.416562 
" style="fill:none;stroke:#ffffff;stroke-linecap:square;stroke-width:1.5;"/>
    </g>
    <g id="line2d_34"/>
    <g id="text_23">
     <!-- P:2.82 -->
     <g transform="translate(249.749688 38.916562)scale(0.1 -0.1)">
      <defs>
       <path d="M 19.671875 64.796875 
L 19.671875 37.40625 
L 32.078125 37.40625 
Q 38.96875 37.40625 42.71875 40.96875 
Q 46.484375 44.53125 46.484375 51.125 
Q 46.484375 57.671875 42.71875 61.234375 
Q 38.96875 64.796875 32.078125 64.796875 
z
M 9.8125 72.90625 
L 32.078125 72.90625 
Q 44.34375 72.90625 50.609375 67.359375 
Q 56.890625 61.8125 56.890625 51.125 
Q 56.890625 40.328125 50.609375 34.8125 
Q 44.34375 29.296875 32.078125 29.296875 
L 19.671875 29.296875 
L 19.671875 0 
L 9.8125 0 
z
" id="DejaVuSans-80"/>
      </defs>
      <use xlink:href="#DejaVuSans-80"/>
      <use x="60.302734" xlink:href="#DejaVuSans-58"/>
      <use x="93.994141" xlink:href="#DejaVuSans-50"/>
      <use x="157.617188" xlink:href="#DejaVuSans-46"/>
      <use x="189.404297" xlink:href="#DejaVuSans-56"/>
      <use x="253.027344" xlink:href="#DejaVuSans-50"/>
     </g>
    </g>
    <g id="line2d_35">
     <path d="M 221.749688 50.094688 
L 241.749688 50.094688 
" style="fill:none;stroke:#ffffff;stroke-linecap:square;stroke-width:1.5;"/>
    </g>
    <g id="line2d_36"/>
    <g id="text_24">
     <!-- CH3: 3.945578231292517e-06 -->
     <g transform="translate(249.749688 53.594688)scale(0.1 -0.1)">
      <defs>
       <path d="M 64.40625 67.28125 
L 64.40625 56.890625 
Q 59.421875 61.53125 53.78125 63.8125 
Q 48.140625 66.109375 41.796875 66.109375 
Q 29.296875 66.109375 22.65625 58.46875 
Q 16.015625 50.828125 16.015625 36.375 
Q 16.015625 21.96875 22.65625 14.328125 
Q 29.296875 6.6875 41.796875 6.6875 
Q 48.140625 6.6875 53.78125 8.984375 
Q 59.421875 11.28125 64.40625 15.921875 
L 64.40625 5.609375 
Q 59.234375 2.09375 53.4375 0.328125 
Q 47.65625 -1.421875 41.21875 -1.421875 
Q 24.65625 -1.421875 15.125 8.703125 
Q 5.609375 18.84375 5.609375 36.375 
Q 5.609375 53.953125 15.125 64.078125 
Q 24.65625 74.21875 41.21875 74.21875 
Q 47.75 74.21875 53.53125 72.484375 
Q 59.328125 70.75 64.40625 67.28125 
z
" id="DejaVuSans-67"/>
       <path d="M 9.8125 72.90625 
L 19.671875 72.90625 
L 19.671875 43.015625 
L 55.515625 43.015625 
L 55.515625 72.90625 
L 65.375 72.90625 
L 65.375 0 
L 55.515625 0 
L 55.515625 34.71875 
L 19.671875 34.71875 
L 19.671875 0 
L 9.8125 0 
z
" id="DejaVuSans-72"/>
       <path d="M 4.890625 31.390625 
L 31.203125 31.390625 
L 31.203125 23.390625 
L 4.890625 23.390625 
z
" id="DejaVuSans-45"/>
      </defs>
      <use xlink:href="#DejaVuSans-67"/>
      <use x="69.824219" xlink:href="#DejaVuSans-72"/>
      <use x="145.019531" xlink:href="#DejaVuSans-51"/>
      <use x="208.642578" xlink:href="#DejaVuSans-58"/>
      <use x="242.333984" xlink:href="#DejaVuSans-32"/>
      <use x="274.121094" xlink:href="#DejaVuSans-51"/>
      <use x="337.744141" xlink:href="#DejaVuSans-46"/>
      <use x="369.53125" xlink:href="#DejaVuSans-57"/>
      <use x="433.154297" xlink:href="#DejaVuSans-52"/>
      <use x="496.777344" xlink:href="#DejaVuSans-53"/>
      <use x="560.400391" xlink:href="#DejaVuSans-53"/>
      <use x="624.023438" xlink:href="#DejaVuSans-55"/>
      <use x="687.646484" xlink:href="#DejaVuSans-56"/>
      <use x="751.269531" xlink:href="#DejaVuSans-50"/>
      <use x="814.892578" xlink:href="#DejaVuSans-51"/>
      <use x="878.515625" xlink:href="#DejaVuSans-49"/>
      <use x="942.138672" xlink:href="#DejaVuSans-50"/>
      <use x="1005.761719" xlink:href="#DejaVuSans-57"/>
      <use x="1069.384766" xlink:href="#DejaVuSans-50"/>
      <use x="1133.007812" xlink:href="#DejaVuSans-53"/>
      <use x="1196.630859" xlink:href="#DejaVuSans-49"/>
      <use x="1260.253906" xlink:href="#DejaVuSans-55"/>
      <use x="1323.876953" xlink:href="#DejaVuSans-101"/>
      <use x="1385.400391" xlink:href="#DejaVuSans-45"/>
      <use x="1421.484375" xlink:href="#DejaVuSans-48"/>
      <use x="1485.107422" xlink:href="#DejaVuSans-54"/>
     </g>
    </g>
    <g id="line2d_37">
     <path d="M 221.749688 64.772812 
L 241.749688 64.772812 
" style="fill:none;stroke:#ffffff;stroke-linecap:square;stroke-width:1.5;"/>
    </g>
    <g id="line2d_38"/>
    <g id="text_25">
     <!-- Ar: 0.9999960544217688 -->
     <g transform="translate(249.749688 68.272812)scale(0.1 -0.1)">
      <use xlink:href="#DejaVuSans-65"/>
      <use x="68.408203" xlink:href="#DejaVuSans-114"/>
      <use x="107.771484" xlink:href="#DejaVuSans-58"/>
      <use x="141.462891" xlink:href="#DejaVuSans-32"/>
      <use x="173.25" xlink:href="#DejaVuSans-48"/>
      <use x="236.873047" xlink:href="#DejaVuSans-46"/>
      <use x="268.660156" xlink:href="#DejaVuSans-57"/>
      <use x="332.283203" xlink:href="#DejaVuSans-57"/>
      <use x="395.90625" xlink:href="#DejaVuSans-57"/>
      <use x="459.529297" xlink:href="#DejaVuSans-57"/>
      <use x="523.152344" xlink:href="#DejaVuSans-57"/>
      <use x="586.775391" xlink:href="#DejaVuSans-54"/>
      <use x="650.398438" xlink:href="#DejaVuSans-48"/>
      <use x="714.021484" xlink:href="#DejaVuSans-53"/>
      <use x="777.644531" xlink:href="#DejaVuSans-52"/>
      <use x="841.267578" xlink:href="#DejaVuSans-52"/>
      <use x="904.890625" xlink:href="#DejaVuSans-50"/>
      <use x="968.513672" xlink:href="#DejaVuSans-49"/>
      <use x="1032.136719" xlink:href="#DejaVuSans-55"/>
      <use x="1095.759766" xlink:href="#DejaVuSans-54"/>
      <use x="1159.382812" xlink:href="#DejaVuSans-56"/>
      <use x="1223.005859" xlink:href="#DejaVuSans-56"/>
     </g>
    </g>
   </g>
  </g>
 </g>
 <defs>
  <clipPath id="pb9b9d50ffe">
   <rect height="266.112" width="357.12" x="56.50625" y="22.318125"/>
  </clipPath>
 </defs>
</svg>
