<?xml version="1.0" encoding="utf-8" standalone="no"?>
<!DOCTYPE svg PUBLIC "-//W3C//DTD SVG 1.1//EN"
  "http://www.w3.org/Graphics/SVG/1.1/DTD/svg11.dtd">
<!-- Created with matplotlib (https://matplotlib.org/) -->
<svg height="325.986375pt" version="1.1" viewBox="0 0 414.46375 325.986375" width="414.46375pt" xmlns="http://www.w3.org/2000/svg" xmlns:xlink="http://www.w3.org/1999/xlink">
 <metadata>
  <rdf:RDF xmlns:cc="http://creativecommons.org/ns#" xmlns:dc="http://purl.org/dc/elements/1.1/" xmlns:rdf="http://www.w3.org/1999/02/22-rdf-syntax-ns#">
   <cc:Work>
    <dc:type rdf:resource="http://purl.org/dc/dcmitype/StillImage"/>
    <dc:date>2023-08-04T12:52:37.679292</dc:date>
    <dc:format>image/svg+xml</dc:format>
    <dc:creator>
     <cc:Agent>
      <dc:title>Matplotlib v3.3.1, https://matplotlib.org/</dc:title>
     </cc:Agent>
    </dc:creator>
   </cc:Work>
  </rdf:RDF>
 </metadata>
 <defs>
  <style type="text/css">*{stroke-linecap:butt;stroke-linejoin:round;}</style>
 </defs>
 <g id="figure_1">
  <g id="patch_1">
   <path d="M 0 325.986375 
L 414.46375 325.986375 
L 414.46375 0 
L 0 0 
z
" style="fill:none;"/>
  </g>
  <g id="axes_1">
   <g id="patch_2">
    <path d="M 50.14375 288.430125 
L 407.26375 288.430125 
L 407.26375 22.318125 
L 50.14375 22.318125 
z
" style="fill:none;"/>
   </g>
   <g id="matplotlib.axis_1">
    <g id="xtick_1">
     <g id="line2d_1">
      <defs>
       <path d="M 0 0 
L 0 3.5 
" id="m445db6b7e3" style="stroke:#000000;stroke-width:0.8;"/>
      </defs>
      <g>
       <use style="stroke:#000000;stroke-width:0.8;" x="66.376477" xlink:href="#m445db6b7e3" y="288.430125"/>
      </g>
     </g>
     <g id="text_1">
      <!-- 0.0 -->
      <g transform="translate(58.424915 303.028562)scale(0.1 -0.1)">
       <defs>
        <path d="M 31.78125 66.40625 
Q 24.171875 66.40625 20.328125 58.90625 
Q 16.5 51.421875 16.5 36.375 
Q 16.5 21.390625 20.328125 13.890625 
Q 24.171875 6.390625 31.78125 6.390625 
Q 39.453125 6.390625 43.28125 13.890625 
Q 47.125 21.390625 47.125 36.375 
Q 47.125 51.421875 43.28125 58.90625 
Q 39.453125 66.40625 31.78125 66.40625 
z
M 31.78125 74.21875 
Q 44.046875 74.21875 50.515625 64.515625 
Q 56.984375 54.828125 56.984375 36.375 
Q 56.984375 17.96875 50.515625 8.265625 
Q 44.046875 -1.421875 31.78125 -1.421875 
Q 19.53125 -1.421875 13.0625 8.265625 
Q 6.59375 17.96875 6.59375 36.375 
Q 6.59375 54.828125 13.0625 64.515625 
Q 19.53125 74.21875 31.78125 74.21875 
z
" id="DejaVuSans-48"/>
        <path d="M 10.6875 12.40625 
L 21 12.40625 
L 21 0 
L 10.6875 0 
z
" id="DejaVuSans-46"/>
       </defs>
       <use xlink:href="#DejaVuSans-48"/>
       <use x="63.623047" xlink:href="#DejaVuSans-46"/>
       <use x="95.410156" xlink:href="#DejaVuSans-48"/>
      </g>
     </g>
    </g>
    <g id="xtick_2">
     <g id="line2d_2">
      <g>
       <use style="stroke:#000000;stroke-width:0.8;" x="109.299099" xlink:href="#m445db6b7e3" y="288.430125"/>
      </g>
     </g>
     <g id="text_2">
      <!-- 0.2 -->
      <g transform="translate(101.347537 303.028562)scale(0.1 -0.1)">
       <defs>
        <path d="M 19.1875 8.296875 
L 53.609375 8.296875 
L 53.609375 0 
L 7.328125 0 
L 7.328125 8.296875 
Q 12.9375 14.109375 22.625 23.890625 
Q 32.328125 33.6875 34.8125 36.53125 
Q 39.546875 41.84375 41.421875 45.53125 
Q 43.3125 49.21875 43.3125 52.78125 
Q 43.3125 58.59375 39.234375 62.25 
Q 35.15625 65.921875 28.609375 65.921875 
Q 23.96875 65.921875 18.8125 64.3125 
Q 13.671875 62.703125 7.8125 59.421875 
L 7.8125 69.390625 
Q 13.765625 71.78125 18.9375 73 
Q 24.125 74.21875 28.421875 74.21875 
Q 39.75 74.21875 46.484375 68.546875 
Q 53.21875 62.890625 53.21875 53.421875 
Q 53.21875 48.921875 51.53125 44.890625 
Q 49.859375 40.875 45.40625 35.40625 
Q 44.1875 33.984375 37.640625 27.21875 
Q 31.109375 20.453125 19.1875 8.296875 
z
" id="DejaVuSans-50"/>
       </defs>
       <use xlink:href="#DejaVuSans-48"/>
       <use x="63.623047" xlink:href="#DejaVuSans-46"/>
       <use x="95.410156" xlink:href="#DejaVuSans-50"/>
      </g>
     </g>
    </g>
    <g id="xtick_3">
     <g id="line2d_3">
      <g>
       <use style="stroke:#000000;stroke-width:0.8;" x="152.221722" xlink:href="#m445db6b7e3" y="288.430125"/>
      </g>
     </g>
     <g id="text_3">
      <!-- 0.4 -->
      <g transform="translate(144.270159 303.028562)scale(0.1 -0.1)">
       <defs>
        <path d="M 37.796875 64.3125 
L 12.890625 25.390625 
L 37.796875 25.390625 
z
M 35.203125 72.90625 
L 47.609375 72.90625 
L 47.609375 25.390625 
L 58.015625 25.390625 
L 58.015625 17.1875 
L 47.609375 17.1875 
L 47.609375 0 
L 37.796875 0 
L 37.796875 17.1875 
L 4.890625 17.1875 
L 4.890625 26.703125 
z
" id="DejaVuSans-52"/>
       </defs>
       <use xlink:href="#DejaVuSans-48"/>
       <use x="63.623047" xlink:href="#DejaVuSans-46"/>
       <use x="95.410156" xlink:href="#DejaVuSans-52"/>
      </g>
     </g>
    </g>
    <g id="xtick_4">
     <g id="line2d_4">
      <g>
       <use style="stroke:#000000;stroke-width:0.8;" x="195.144344" xlink:href="#m445db6b7e3" y="288.430125"/>
      </g>
     </g>
     <g id="text_4">
      <!-- 0.6 -->
      <g transform="translate(187.192781 303.028562)scale(0.1 -0.1)">
       <defs>
        <path d="M 33.015625 40.375 
Q 26.375 40.375 22.484375 35.828125 
Q 18.609375 31.296875 18.609375 23.390625 
Q 18.609375 15.53125 22.484375 10.953125 
Q 26.375 6.390625 33.015625 6.390625 
Q 39.65625 6.390625 43.53125 10.953125 
Q 47.40625 15.53125 47.40625 23.390625 
Q 47.40625 31.296875 43.53125 35.828125 
Q 39.65625 40.375 33.015625 40.375 
z
M 52.59375 71.296875 
L 52.59375 62.3125 
Q 48.875 64.0625 45.09375 64.984375 
Q 41.3125 65.921875 37.59375 65.921875 
Q 27.828125 65.921875 22.671875 59.328125 
Q 17.53125 52.734375 16.796875 39.40625 
Q 19.671875 43.65625 24.015625 45.921875 
Q 28.375 48.1875 33.59375 48.1875 
Q 44.578125 48.1875 50.953125 41.515625 
Q 57.328125 34.859375 57.328125 23.390625 
Q 57.328125 12.15625 50.6875 5.359375 
Q 44.046875 -1.421875 33.015625 -1.421875 
Q 20.359375 -1.421875 13.671875 8.265625 
Q 6.984375 17.96875 6.984375 36.375 
Q 6.984375 53.65625 15.1875 63.9375 
Q 23.390625 74.21875 37.203125 74.21875 
Q 40.921875 74.21875 44.703125 73.484375 
Q 48.484375 72.75 52.59375 71.296875 
z
" id="DejaVuSans-54"/>
       </defs>
       <use xlink:href="#DejaVuSans-48"/>
       <use x="63.623047" xlink:href="#DejaVuSans-46"/>
       <use x="95.410156" xlink:href="#DejaVuSans-54"/>
      </g>
     </g>
    </g>
    <g id="xtick_5">
     <g id="line2d_5">
      <g>
       <use style="stroke:#000000;stroke-width:0.8;" x="238.066966" xlink:href="#m445db6b7e3" y="288.430125"/>
      </g>
     </g>
     <g id="text_5">
      <!-- 0.8 -->
      <g transform="translate(230.115403 303.028562)scale(0.1 -0.1)">
       <defs>
        <path d="M 31.78125 34.625 
Q 24.75 34.625 20.71875 30.859375 
Q 16.703125 27.09375 16.703125 20.515625 
Q 16.703125 13.921875 20.71875 10.15625 
Q 24.75 6.390625 31.78125 6.390625 
Q 38.8125 6.390625 42.859375 10.171875 
Q 46.921875 13.96875 46.921875 20.515625 
Q 46.921875 27.09375 42.890625 30.859375 
Q 38.875 34.625 31.78125 34.625 
z
M 21.921875 38.8125 
Q 15.578125 40.375 12.03125 44.71875 
Q 8.5 49.078125 8.5 55.328125 
Q 8.5 64.0625 14.71875 69.140625 
Q 20.953125 74.21875 31.78125 74.21875 
Q 42.671875 74.21875 48.875 69.140625 
Q 55.078125 64.0625 55.078125 55.328125 
Q 55.078125 49.078125 51.53125 44.71875 
Q 48 40.375 41.703125 38.8125 
Q 48.828125 37.15625 52.796875 32.3125 
Q 56.78125 27.484375 56.78125 20.515625 
Q 56.78125 9.90625 50.3125 4.234375 
Q 43.84375 -1.421875 31.78125 -1.421875 
Q 19.734375 -1.421875 13.25 4.234375 
Q 6.78125 9.90625 6.78125 20.515625 
Q 6.78125 27.484375 10.78125 32.3125 
Q 14.796875 37.15625 21.921875 38.8125 
z
M 18.3125 54.390625 
Q 18.3125 48.734375 21.84375 45.5625 
Q 25.390625 42.390625 31.78125 42.390625 
Q 38.140625 42.390625 41.71875 45.5625 
Q 45.3125 48.734375 45.3125 54.390625 
Q 45.3125 60.0625 41.71875 63.234375 
Q 38.140625 66.40625 31.78125 66.40625 
Q 25.390625 66.40625 21.84375 63.234375 
Q 18.3125 60.0625 18.3125 54.390625 
z
" id="DejaVuSans-56"/>
       </defs>
       <use xlink:href="#DejaVuSans-48"/>
       <use x="63.623047" xlink:href="#DejaVuSans-46"/>
       <use x="95.410156" xlink:href="#DejaVuSans-56"/>
      </g>
     </g>
    </g>
    <g id="xtick_6">
     <g id="line2d_6">
      <g>
       <use style="stroke:#000000;stroke-width:0.8;" x="280.989588" xlink:href="#m445db6b7e3" y="288.430125"/>
      </g>
     </g>
     <g id="text_6">
      <!-- 1.0 -->
      <g transform="translate(273.038025 303.028562)scale(0.1 -0.1)">
       <defs>
        <path d="M 12.40625 8.296875 
L 28.515625 8.296875 
L 28.515625 63.921875 
L 10.984375 60.40625 
L 10.984375 69.390625 
L 28.421875 72.90625 
L 38.28125 72.90625 
L 38.28125 8.296875 
L 54.390625 8.296875 
L 54.390625 0 
L 12.40625 0 
z
" id="DejaVuSans-49"/>
       </defs>
       <use xlink:href="#DejaVuSans-49"/>
       <use x="63.623047" xlink:href="#DejaVuSans-46"/>
       <use x="95.410156" xlink:href="#DejaVuSans-48"/>
      </g>
     </g>
    </g>
    <g id="xtick_7">
     <g id="line2d_7">
      <g>
       <use style="stroke:#000000;stroke-width:0.8;" x="323.91221" xlink:href="#m445db6b7e3" y="288.430125"/>
      </g>
     </g>
     <g id="text_7">
      <!-- 1.2 -->
      <g transform="translate(315.960647 303.028562)scale(0.1 -0.1)">
       <use xlink:href="#DejaVuSans-49"/>
       <use x="63.623047" xlink:href="#DejaVuSans-46"/>
       <use x="95.410156" xlink:href="#DejaVuSans-50"/>
      </g>
     </g>
    </g>
    <g id="xtick_8">
     <g id="line2d_8">
      <g>
       <use style="stroke:#000000;stroke-width:0.8;" x="366.834832" xlink:href="#m445db6b7e3" y="288.430125"/>
      </g>
     </g>
     <g id="text_8">
      <!-- 1.4 -->
      <g transform="translate(358.88327 303.028562)scale(0.1 -0.1)">
       <use xlink:href="#DejaVuSans-49"/>
       <use x="63.623047" xlink:href="#DejaVuSans-46"/>
       <use x="95.410156" xlink:href="#DejaVuSans-52"/>
      </g>
     </g>
    </g>
    <g id="text_9">
     <!-- Time (ms) -->
     <g transform="translate(203.504531 316.706687)scale(0.1 -0.1)">
      <defs>
       <path d="M -0.296875 72.90625 
L 61.375 72.90625 
L 61.375 64.59375 
L 35.5 64.59375 
L 35.5 0 
L 25.59375 0 
L 25.59375 64.59375 
L -0.296875 64.59375 
z
" id="DejaVuSans-84"/>
       <path d="M 9.421875 54.6875 
L 18.40625 54.6875 
L 18.40625 0 
L 9.421875 0 
z
M 9.421875 75.984375 
L 18.40625 75.984375 
L 18.40625 64.59375 
L 9.421875 64.59375 
z
" id="DejaVuSans-105"/>
       <path d="M 52 44.1875 
Q 55.375 50.25 60.0625 53.125 
Q 64.75 56 71.09375 56 
Q 79.640625 56 84.28125 50.015625 
Q 88.921875 44.046875 88.921875 33.015625 
L 88.921875 0 
L 79.890625 0 
L 79.890625 32.71875 
Q 79.890625 40.578125 77.09375 44.375 
Q 74.3125 48.1875 68.609375 48.1875 
Q 61.625 48.1875 57.5625 43.546875 
Q 53.515625 38.921875 53.515625 30.90625 
L 53.515625 0 
L 44.484375 0 
L 44.484375 32.71875 
Q 44.484375 40.625 41.703125 44.40625 
Q 38.921875 48.1875 33.109375 48.1875 
Q 26.21875 48.1875 22.15625 43.53125 
Q 18.109375 38.875 18.109375 30.90625 
L 18.109375 0 
L 9.078125 0 
L 9.078125 54.6875 
L 18.109375 54.6875 
L 18.109375 46.1875 
Q 21.1875 51.21875 25.484375 53.609375 
Q 29.78125 56 35.6875 56 
Q 41.65625 56 45.828125 52.96875 
Q 50 49.953125 52 44.1875 
z
" id="DejaVuSans-109"/>
       <path d="M 56.203125 29.59375 
L 56.203125 25.203125 
L 14.890625 25.203125 
Q 15.484375 15.921875 20.484375 11.0625 
Q 25.484375 6.203125 34.421875 6.203125 
Q 39.59375 6.203125 44.453125 7.46875 
Q 49.3125 8.734375 54.109375 11.28125 
L 54.109375 2.78125 
Q 49.265625 0.734375 44.1875 -0.34375 
Q 39.109375 -1.421875 33.890625 -1.421875 
Q 20.796875 -1.421875 13.15625 6.1875 
Q 5.515625 13.8125 5.515625 26.8125 
Q 5.515625 40.234375 12.765625 48.109375 
Q 20.015625 56 32.328125 56 
Q 43.359375 56 49.78125 48.890625 
Q 56.203125 41.796875 56.203125 29.59375 
z
M 47.21875 32.234375 
Q 47.125 39.59375 43.09375 43.984375 
Q 39.0625 48.390625 32.421875 48.390625 
Q 24.90625 48.390625 20.390625 44.140625 
Q 15.875 39.890625 15.1875 32.171875 
z
" id="DejaVuSans-101"/>
       <path id="DejaVuSans-32"/>
       <path d="M 31 75.875 
Q 24.46875 64.65625 21.28125 53.65625 
Q 18.109375 42.671875 18.109375 31.390625 
Q 18.109375 20.125 21.3125 9.0625 
Q 24.515625 -2 31 -13.1875 
L 23.1875 -13.1875 
Q 15.875 -1.703125 12.234375 9.375 
Q 8.59375 20.453125 8.59375 31.390625 
Q 8.59375 42.28125 12.203125 53.3125 
Q 15.828125 64.359375 23.1875 75.875 
z
" id="DejaVuSans-40"/>
       <path d="M 44.28125 53.078125 
L 44.28125 44.578125 
Q 40.484375 46.53125 36.375 47.5 
Q 32.28125 48.484375 27.875 48.484375 
Q 21.1875 48.484375 17.84375 46.4375 
Q 14.5 44.390625 14.5 40.28125 
Q 14.5 37.15625 16.890625 35.375 
Q 19.28125 33.59375 26.515625 31.984375 
L 29.59375 31.296875 
Q 39.15625 29.25 43.1875 25.515625 
Q 47.21875 21.78125 47.21875 15.09375 
Q 47.21875 7.46875 41.1875 3.015625 
Q 35.15625 -1.421875 24.609375 -1.421875 
Q 20.21875 -1.421875 15.453125 -0.5625 
Q 10.6875 0.296875 5.421875 2 
L 5.421875 11.28125 
Q 10.40625 8.6875 15.234375 7.390625 
Q 20.0625 6.109375 24.8125 6.109375 
Q 31.15625 6.109375 34.5625 8.28125 
Q 37.984375 10.453125 37.984375 14.40625 
Q 37.984375 18.0625 35.515625 20.015625 
Q 33.0625 21.96875 24.703125 23.78125 
L 21.578125 24.515625 
Q 13.234375 26.265625 9.515625 29.90625 
Q 5.8125 33.546875 5.8125 39.890625 
Q 5.8125 47.609375 11.28125 51.796875 
Q 16.75 56 26.8125 56 
Q 31.78125 56 36.171875 55.265625 
Q 40.578125 54.546875 44.28125 53.078125 
z
" id="DejaVuSans-115"/>
       <path d="M 8.015625 75.875 
L 15.828125 75.875 
Q 23.140625 64.359375 26.78125 53.3125 
Q 30.421875 42.28125 30.421875 31.390625 
Q 30.421875 20.453125 26.78125 9.375 
Q 23.140625 -1.703125 15.828125 -13.1875 
L 8.015625 -13.1875 
Q 14.5 -2 17.703125 9.0625 
Q 20.90625 20.125 20.90625 31.390625 
Q 20.90625 42.671875 17.703125 53.65625 
Q 14.5 64.65625 8.015625 75.875 
z
" id="DejaVuSans-41"/>
      </defs>
      <use xlink:href="#DejaVuSans-84"/>
      <use x="57.958984" xlink:href="#DejaVuSans-105"/>
      <use x="85.742188" xlink:href="#DejaVuSans-109"/>
      <use x="183.154297" xlink:href="#DejaVuSans-101"/>
      <use x="244.677734" xlink:href="#DejaVuSans-32"/>
      <use x="276.464844" xlink:href="#DejaVuSans-40"/>
      <use x="315.478516" xlink:href="#DejaVuSans-109"/>
      <use x="412.890625" xlink:href="#DejaVuSans-115"/>
      <use x="464.990234" xlink:href="#DejaVuSans-41"/>
     </g>
    </g>
   </g>
   <g id="matplotlib.axis_2">
    <g id="ytick_1">
     <g id="line2d_9">
      <defs>
       <path d="M 0 0 
L -3.5 0 
" id="m74fe114555" style="stroke:#000000;stroke-width:0.8;"/>
      </defs>
      <g>
       <use style="stroke:#000000;stroke-width:0.8;" x="50.14375" xlink:href="#m74fe114555" y="281.881956"/>
      </g>
     </g>
     <g id="text_10">
      <!-- 0.00 -->
      <g transform="translate(20.878125 285.681175)scale(0.1 -0.1)">
       <use xlink:href="#DejaVuSans-48"/>
       <use x="63.623047" xlink:href="#DejaVuSans-46"/>
       <use x="95.410156" xlink:href="#DejaVuSans-48"/>
       <use x="159.033203" xlink:href="#DejaVuSans-48"/>
      </g>
     </g>
    </g>
    <g id="ytick_2">
     <g id="line2d_10">
      <g>
       <use style="stroke:#000000;stroke-width:0.8;" x="50.14375" xlink:href="#m74fe114555" y="225.382596"/>
      </g>
     </g>
     <g id="text_11">
      <!-- 0.02 -->
      <g transform="translate(20.878125 229.181815)scale(0.1 -0.1)">
       <use xlink:href="#DejaVuSans-48"/>
       <use x="63.623047" xlink:href="#DejaVuSans-46"/>
       <use x="95.410156" xlink:href="#DejaVuSans-48"/>
       <use x="159.033203" xlink:href="#DejaVuSans-50"/>
      </g>
     </g>
    </g>
    <g id="ytick_3">
     <g id="line2d_11">
      <g>
       <use style="stroke:#000000;stroke-width:0.8;" x="50.14375" xlink:href="#m74fe114555" y="168.883236"/>
      </g>
     </g>
     <g id="text_12">
      <!-- 0.04 -->
      <g transform="translate(20.878125 172.682455)scale(0.1 -0.1)">
       <use xlink:href="#DejaVuSans-48"/>
       <use x="63.623047" xlink:href="#DejaVuSans-46"/>
       <use x="95.410156" xlink:href="#DejaVuSans-48"/>
       <use x="159.033203" xlink:href="#DejaVuSans-52"/>
      </g>
     </g>
    </g>
    <g id="ytick_4">
     <g id="line2d_12">
      <g>
       <use style="stroke:#000000;stroke-width:0.8;" x="50.14375" xlink:href="#m74fe114555" y="112.383876"/>
      </g>
     </g>
     <g id="text_13">
      <!-- 0.06 -->
      <g transform="translate(20.878125 116.183095)scale(0.1 -0.1)">
       <use xlink:href="#DejaVuSans-48"/>
       <use x="63.623047" xlink:href="#DejaVuSans-46"/>
       <use x="95.410156" xlink:href="#DejaVuSans-48"/>
       <use x="159.033203" xlink:href="#DejaVuSans-54"/>
      </g>
     </g>
    </g>
    <g id="ytick_5">
     <g id="line2d_13">
      <g>
       <use style="stroke:#000000;stroke-width:0.8;" x="50.14375" xlink:href="#m74fe114555" y="55.884517"/>
      </g>
     </g>
     <g id="text_14">
      <!-- 0.08 -->
      <g transform="translate(20.878125 59.683735)scale(0.1 -0.1)">
       <use xlink:href="#DejaVuSans-48"/>
       <use x="63.623047" xlink:href="#DejaVuSans-46"/>
       <use x="95.410156" xlink:href="#DejaVuSans-48"/>
       <use x="159.033203" xlink:href="#DejaVuSans-56"/>
      </g>
     </g>
    </g>
    <g id="text_15">
     <!-- Absorbance216 -->
     <g transform="translate(14.798438 194.46475)rotate(-90)scale(0.1 -0.1)">
      <defs>
       <path d="M 34.1875 63.1875 
L 20.796875 26.90625 
L 47.609375 26.90625 
z
M 28.609375 72.90625 
L 39.796875 72.90625 
L 67.578125 0 
L 57.328125 0 
L 50.6875 18.703125 
L 17.828125 18.703125 
L 11.1875 0 
L 0.78125 0 
z
" id="DejaVuSans-65"/>
       <path d="M 48.6875 27.296875 
Q 48.6875 37.203125 44.609375 42.84375 
Q 40.53125 48.484375 33.40625 48.484375 
Q 26.265625 48.484375 22.1875 42.84375 
Q 18.109375 37.203125 18.109375 27.296875 
Q 18.109375 17.390625 22.1875 11.75 
Q 26.265625 6.109375 33.40625 6.109375 
Q 40.53125 6.109375 44.609375 11.75 
Q 48.6875 17.390625 48.6875 27.296875 
z
M 18.109375 46.390625 
Q 20.953125 51.265625 25.265625 53.625 
Q 29.59375 56 35.59375 56 
Q 45.5625 56 51.78125 48.09375 
Q 58.015625 40.1875 58.015625 27.296875 
Q 58.015625 14.40625 51.78125 6.484375 
Q 45.5625 -1.421875 35.59375 -1.421875 
Q 29.59375 -1.421875 25.265625 0.953125 
Q 20.953125 3.328125 18.109375 8.203125 
L 18.109375 0 
L 9.078125 0 
L 9.078125 75.984375 
L 18.109375 75.984375 
z
" id="DejaVuSans-98"/>
       <path d="M 30.609375 48.390625 
Q 23.390625 48.390625 19.1875 42.75 
Q 14.984375 37.109375 14.984375 27.296875 
Q 14.984375 17.484375 19.15625 11.84375 
Q 23.34375 6.203125 30.609375 6.203125 
Q 37.796875 6.203125 41.984375 11.859375 
Q 46.1875 17.53125 46.1875 27.296875 
Q 46.1875 37.015625 41.984375 42.703125 
Q 37.796875 48.390625 30.609375 48.390625 
z
M 30.609375 56 
Q 42.328125 56 49.015625 48.375 
Q 55.71875 40.765625 55.71875 27.296875 
Q 55.71875 13.875 49.015625 6.21875 
Q 42.328125 -1.421875 30.609375 -1.421875 
Q 18.84375 -1.421875 12.171875 6.21875 
Q 5.515625 13.875 5.515625 27.296875 
Q 5.515625 40.765625 12.171875 48.375 
Q 18.84375 56 30.609375 56 
z
" id="DejaVuSans-111"/>
       <path d="M 41.109375 46.296875 
Q 39.59375 47.171875 37.8125 47.578125 
Q 36.03125 48 33.890625 48 
Q 26.265625 48 22.1875 43.046875 
Q 18.109375 38.09375 18.109375 28.8125 
L 18.109375 0 
L 9.078125 0 
L 9.078125 54.6875 
L 18.109375 54.6875 
L 18.109375 46.1875 
Q 20.953125 51.171875 25.484375 53.578125 
Q 30.03125 56 36.53125 56 
Q 37.453125 56 38.578125 55.875 
Q 39.703125 55.765625 41.0625 55.515625 
z
" id="DejaVuSans-114"/>
       <path d="M 34.28125 27.484375 
Q 23.390625 27.484375 19.1875 25 
Q 14.984375 22.515625 14.984375 16.5 
Q 14.984375 11.71875 18.140625 8.90625 
Q 21.296875 6.109375 26.703125 6.109375 
Q 34.1875 6.109375 38.703125 11.40625 
Q 43.21875 16.703125 43.21875 25.484375 
L 43.21875 27.484375 
z
M 52.203125 31.203125 
L 52.203125 0 
L 43.21875 0 
L 43.21875 8.296875 
Q 40.140625 3.328125 35.546875 0.953125 
Q 30.953125 -1.421875 24.3125 -1.421875 
Q 15.921875 -1.421875 10.953125 3.296875 
Q 6 8.015625 6 15.921875 
Q 6 25.140625 12.171875 29.828125 
Q 18.359375 34.515625 30.609375 34.515625 
L 43.21875 34.515625 
L 43.21875 35.40625 
Q 43.21875 41.609375 39.140625 45 
Q 35.0625 48.390625 27.6875 48.390625 
Q 23 48.390625 18.546875 47.265625 
Q 14.109375 46.140625 10.015625 43.890625 
L 10.015625 52.203125 
Q 14.9375 54.109375 19.578125 55.046875 
Q 24.21875 56 28.609375 56 
Q 40.484375 56 46.34375 49.84375 
Q 52.203125 43.703125 52.203125 31.203125 
z
" id="DejaVuSans-97"/>
       <path d="M 54.890625 33.015625 
L 54.890625 0 
L 45.90625 0 
L 45.90625 32.71875 
Q 45.90625 40.484375 42.875 44.328125 
Q 39.84375 48.1875 33.796875 48.1875 
Q 26.515625 48.1875 22.3125 43.546875 
Q 18.109375 38.921875 18.109375 30.90625 
L 18.109375 0 
L 9.078125 0 
L 9.078125 54.6875 
L 18.109375 54.6875 
L 18.109375 46.1875 
Q 21.34375 51.125 25.703125 53.5625 
Q 30.078125 56 35.796875 56 
Q 45.21875 56 50.046875 50.171875 
Q 54.890625 44.34375 54.890625 33.015625 
z
" id="DejaVuSans-110"/>
       <path d="M 48.78125 52.59375 
L 48.78125 44.1875 
Q 44.96875 46.296875 41.140625 47.34375 
Q 37.3125 48.390625 33.40625 48.390625 
Q 24.65625 48.390625 19.8125 42.84375 
Q 14.984375 37.3125 14.984375 27.296875 
Q 14.984375 17.28125 19.8125 11.734375 
Q 24.65625 6.203125 33.40625 6.203125 
Q 37.3125 6.203125 41.140625 7.25 
Q 44.96875 8.296875 48.78125 10.40625 
L 48.78125 2.09375 
Q 45.015625 0.34375 40.984375 -0.53125 
Q 36.96875 -1.421875 32.421875 -1.421875 
Q 20.0625 -1.421875 12.78125 6.34375 
Q 5.515625 14.109375 5.515625 27.296875 
Q 5.515625 40.671875 12.859375 48.328125 
Q 20.21875 56 33.015625 56 
Q 37.15625 56 41.109375 55.140625 
Q 45.0625 54.296875 48.78125 52.59375 
z
" id="DejaVuSans-99"/>
      </defs>
      <use xlink:href="#DejaVuSans-65"/>
      <use x="68.408203" xlink:href="#DejaVuSans-98"/>
      <use x="131.884766" xlink:href="#DejaVuSans-115"/>
      <use x="183.984375" xlink:href="#DejaVuSans-111"/>
      <use x="245.166016" xlink:href="#DejaVuSans-114"/>
      <use x="286.279297" xlink:href="#DejaVuSans-98"/>
      <use x="349.755859" xlink:href="#DejaVuSans-97"/>
      <use x="411.035156" xlink:href="#DejaVuSans-110"/>
      <use x="474.414062" xlink:href="#DejaVuSans-99"/>
      <use x="529.394531" xlink:href="#DejaVuSans-101"/>
      <use x="590.917969" xlink:href="#DejaVuSans-50"/>
      <use x="654.541016" xlink:href="#DejaVuSans-49"/>
      <use x="718.164062" xlink:href="#DejaVuSans-54"/>
     </g>
    </g>
   </g>
   <g id="line2d_14">
    <defs>
     <path d="M 0 3 
C 0.795609 3 1.55874 2.683901 2.12132 2.12132 
C 2.683901 1.55874 3 0.795609 3 0 
C 3 -0.795609 2.683901 -1.55874 2.12132 -2.12132 
C 1.55874 -2.683901 0.795609 -3 0 -3 
C -0.795609 -3 -1.55874 -2.683901 -2.12132 -2.12132 
C -2.683901 -1.55874 -3 -0.795609 -3 0 
C -3 0.795609 -2.683901 1.55874 -2.12132 2.12132 
C -1.55874 2.683901 -0.795609 3 0 3 
z
" id="m811636c661" style="stroke:#000000;"/>
    </defs>
    <g clip-path="url(#p16f86f1247)">
     <use style="stroke:#000000;" x="66.376477" xlink:href="#m811636c661" y="93.191954"/>
     <use style="stroke:#000000;" x="66.376557" xlink:href="#m811636c661" y="93.193565"/>
     <use style="stroke:#000000;" x="66.377354" xlink:href="#m811636c661" y="93.209669"/>
     <use style="stroke:#000000;" x="66.378151" xlink:href="#m811636c661" y="93.225771"/>
     <use style="stroke:#000000;" x="66.378948" xlink:href="#m811636c661" y="93.241871"/>
     <use style="stroke:#000000;" x="66.380672" xlink:href="#m811636c661" y="93.276681"/>
     <use style="stroke:#000000;" x="66.383843" xlink:href="#m811636c661" y="93.340668"/>
     <use style="stroke:#000000;" x="66.389589" xlink:href="#m811636c661" y="93.456519"/>
     <use style="stroke:#000000;" x="66.401415" xlink:href="#m811636c661" y="93.694501"/>
     <use style="stroke:#000000;" x="66.413241" xlink:href="#m811636c661" y="93.931882"/>
     <use style="stroke:#000000;" x="66.425067" xlink:href="#m811636c661" y="94.168666"/>
     <use style="stroke:#000000;" x="66.443824" xlink:href="#m811636c661" y="94.543"/>
     <use style="stroke:#000000;" x="66.462581" xlink:href="#m811636c661" y="94.915843"/>
     <use style="stroke:#000000;" x="66.481338" xlink:href="#m811636c661" y="95.287204"/>
     <use style="stroke:#000000;" x="66.500095" xlink:href="#m811636c661" y="95.657094"/>
     <use style="stroke:#000000;" x="66.533067" xlink:href="#m811636c661" y="96.303761"/>
     <use style="stroke:#000000;" x="66.566038" xlink:href="#m811636c661" y="96.945952"/>
     <use style="stroke:#000000;" x="66.59901" xlink:href="#m811636c661" y="97.583715"/>
     <use style="stroke:#000000;" x="66.631982" xlink:href="#m811636c661" y="98.217094"/>
     <use style="stroke:#000000;" x="66.685419" xlink:href="#m811636c661" y="99.234419"/>
     <use style="stroke:#000000;" x="66.738857" xlink:href="#m811636c661" y="100.240537"/>
     <use style="stroke:#000000;" x="66.792294" xlink:href="#m811636c661" y="101.235631"/>
     <use style="stroke:#000000;" x="66.845732" xlink:href="#m811636c661" y="102.219882"/>
     <use style="stroke:#000000;" x="66.9347" xlink:href="#m811636c661" y="103.834995"/>
     <use style="stroke:#000000;" x="67.023669" xlink:href="#m811636c661" y="105.421327"/>
     <use style="stroke:#000000;" x="67.112638" xlink:href="#m811636c661" y="106.979642"/>
     <use style="stroke:#000000;" x="67.201606" xlink:href="#m811636c661" y="108.510675"/>
     <use style="stroke:#000000;" x="67.290575" xlink:href="#m811636c661" y="110.015136"/>
     <use style="stroke:#000000;" x="67.379544" xlink:href="#m811636c661" y="111.493711"/>
     <use style="stroke:#000000;" x="67.468512" xlink:href="#m811636c661" y="112.947063"/>
     <use style="stroke:#000000;" x="67.651071" xlink:href="#m811636c661" y="115.852959"/>
     <use style="stroke:#000000;" x="67.833629" xlink:href="#m811636c661" y="118.660578"/>
     <use style="stroke:#000000;" x="67.968117" xlink:href="#m811636c661" y="120.668914"/>
     <use style="stroke:#000000;" x="68.102605" xlink:href="#m811636c661" y="122.628424"/>
     <use style="stroke:#000000;" x="68.237094" xlink:href="#m811636c661" y="124.540872"/>
     <use style="stroke:#000000;" x="68.371582" xlink:href="#m811636c661" y="126.407933"/>
     <use style="stroke:#000000;" x="68.50607" xlink:href="#m811636c661" y="128.231204"/>
     <use style="stroke:#000000;" x="68.640558" xlink:href="#m811636c661" y="130.012207"/>
     <use style="stroke:#000000;" x="68.775046" xlink:href="#m811636c661" y="131.752394"/>
     <use style="stroke:#000000;" x="68.909534" xlink:href="#m811636c661" y="133.453154"/>
     <use style="stroke:#000000;" x="69.044022" xlink:href="#m811636c661" y="135.11581"/>
     <use style="stroke:#000000;" x="69.178511" xlink:href="#m811636c661" y="136.741631"/>
     <use style="stroke:#000000;" x="69.398883" xlink:href="#m811636c661" y="139.329221"/>
     <use style="stroke:#000000;" x="69.740946" xlink:href="#m811636c661" y="143.16786"/>
     <use style="stroke:#000000;" x="69.988796" xlink:href="#m811636c661" y="145.822537"/>
     <use style="stroke:#000000;" x="70.236646" xlink:href="#m811636c661" y="148.377514"/>
     <use style="stroke:#000000;" x="70.484496" xlink:href="#m811636c661" y="150.838305"/>
     <use style="stroke:#000000;" x="70.732345" xlink:href="#m811636c661" y="153.210021"/>
     <use style="stroke:#000000;" x="70.980195" xlink:href="#m811636c661" y="155.497413"/>
     <use style="stroke:#000000;" x="71.228045" xlink:href="#m811636c661" y="157.7049"/>
     <use style="stroke:#000000;" x="71.475894" xlink:href="#m811636c661" y="159.836597"/>
     <use style="stroke:#000000;" x="71.723744" xlink:href="#m811636c661" y="161.896341"/>
     <use style="stroke:#000000;" x="71.971594" xlink:href="#m811636c661" y="163.887715"/>
     <use style="stroke:#000000;" x="72.219443" xlink:href="#m811636c661" y="165.814068"/>
     <use style="stroke:#000000;" x="72.467293" xlink:href="#m811636c661" y="167.678532"/>
     <use style="stroke:#000000;" x="72.715143" xlink:href="#m811636c661" y="169.484044"/>
     <use style="stroke:#000000;" x="72.962992" xlink:href="#m811636c661" y="171.233355"/>
     <use style="stroke:#000000;" x="73.210842" xlink:href="#m811636c661" y="172.92905"/>
     <use style="stroke:#000000;" x="73.458692" xlink:href="#m811636c661" y="174.573555"/>
     <use style="stroke:#000000;" x="73.706541" xlink:href="#m811636c661" y="176.169156"/>
     <use style="stroke:#000000;" x="73.954391" xlink:href="#m811636c661" y="177.718001"/>
     <use style="stroke:#000000;" x="74.202241" xlink:href="#m811636c661" y="179.222116"/>
     <use style="stroke:#000000;" x="74.45009" xlink:href="#m811636c661" y="180.68341"/>
     <use style="stroke:#000000;" x="74.69794" xlink:href="#m811636c661" y="182.103688"/>
     <use style="stroke:#000000;" x="74.94579" xlink:href="#m811636c661" y="183.484651"/>
     <use style="stroke:#000000;" x="75.193639" xlink:href="#m811636c661" y="184.82791"/>
     <use style="stroke:#000000;" x="75.441489" xlink:href="#m811636c661" y="186.134988"/>
     <use style="stroke:#000000;" x="75.814828" xlink:href="#m811636c661" y="188.038719"/>
     <use style="stroke:#000000;" x="76.188166" xlink:href="#m811636c661" y="189.868221"/>
     <use style="stroke:#000000;" x="76.561505" xlink:href="#m811636c661" y="191.627754"/>
     <use style="stroke:#000000;" x="76.934844" xlink:href="#m811636c661" y="193.321257"/>
     <use style="stroke:#000000;" x="77.308183" xlink:href="#m811636c661" y="194.952378"/>
     <use style="stroke:#000000;" x="77.681521" xlink:href="#m811636c661" y="196.524501"/>
     <use style="stroke:#000000;" x="78.05486" xlink:href="#m811636c661" y="198.04077"/>
     <use style="stroke:#000000;" x="78.428199" xlink:href="#m811636c661" y="199.50411"/>
     <use style="stroke:#000000;" x="78.801537" xlink:href="#m811636c661" y="200.917245"/>
     <use style="stroke:#000000;" x="79.174876" xlink:href="#m811636c661" y="202.282716"/>
     <use style="stroke:#000000;" x="79.548215" xlink:href="#m811636c661" y="203.602892"/>
     <use style="stroke:#000000;" x="79.921553" xlink:href="#m811636c661" y="204.879993"/>
     <use style="stroke:#000000;" x="80.294892" xlink:href="#m811636c661" y="206.116091"/>
     <use style="stroke:#000000;" x="80.668231" xlink:href="#m811636c661" y="207.31313"/>
     <use style="stroke:#000000;" x="81.04157" xlink:href="#m811636c661" y="208.472933"/>
     <use style="stroke:#000000;" x="81.414908" xlink:href="#m811636c661" y="209.597211"/>
     <use style="stroke:#000000;" x="81.788247" xlink:href="#m811636c661" y="210.687571"/>
     <use style="stroke:#000000;" x="82.161586" xlink:href="#m811636c661" y="211.745526"/>
     <use style="stroke:#000000;" x="82.534924" xlink:href="#m811636c661" y="212.772498"/>
     <use style="stroke:#000000;" x="82.908263" xlink:href="#m811636c661" y="213.769829"/>
     <use style="stroke:#000000;" x="83.281602" xlink:href="#m811636c661" y="214.738785"/>
     <use style="stroke:#000000;" x="83.846763" xlink:href="#m811636c661" y="216.154244"/>
     <use style="stroke:#000000;" x="84.411925" xlink:href="#m811636c661" y="217.511256"/>
     <use style="stroke:#000000;" x="84.977086" xlink:href="#m811636c661" y="218.813367"/>
     <use style="stroke:#000000;" x="85.542248" xlink:href="#m811636c661" y="220.063844"/>
     <use style="stroke:#000000;" x="86.107409" xlink:href="#m811636c661" y="221.265698"/>
     <use style="stroke:#000000;" x="86.672571" xlink:href="#m811636c661" y="222.421712"/>
     <use style="stroke:#000000;" x="87.237732" xlink:href="#m811636c661" y="223.534457"/>
     <use style="stroke:#000000;" x="87.802893" xlink:href="#m811636c661" y="224.60632"/>
     <use style="stroke:#000000;" x="88.368055" xlink:href="#m811636c661" y="225.639512"/>
     <use style="stroke:#000000;" x="88.933216" xlink:href="#m811636c661" y="226.636089"/>
     <use style="stroke:#000000;" x="89.498378" xlink:href="#m811636c661" y="227.597964"/>
     <use style="stroke:#000000;" x="90.063539" xlink:href="#m811636c661" y="228.526918"/>
     <use style="stroke:#000000;" x="90.628701" xlink:href="#m811636c661" y="229.424613"/>
     <use style="stroke:#000000;" x="91.193862" xlink:href="#m811636c661" y="230.292601"/>
     <use style="stroke:#000000;" x="91.759023" xlink:href="#m811636c661" y="231.132331"/>
     <use style="stroke:#000000;" x="92.324185" xlink:href="#m811636c661" y="231.945163"/>
     <use style="stroke:#000000;" x="92.889346" xlink:href="#m811636c661" y="232.732367"/>
     <use style="stroke:#000000;" x="93.454508" xlink:href="#m811636c661" y="233.495138"/>
     <use style="stroke:#000000;" x="94.019669" xlink:href="#m811636c661" y="234.234595"/>
     <use style="stroke:#000000;" x="94.584831" xlink:href="#m811636c661" y="234.951791"/>
     <use style="stroke:#000000;" x="95.440719" xlink:href="#m811636c661" y="235.997733"/>
     <use style="stroke:#000000;" x="96.296608" xlink:href="#m811636c661" y="236.998067"/>
     <use style="stroke:#000000;" x="97.152497" xlink:href="#m811636c661" y="237.955715"/>
     <use style="stroke:#000000;" x="98.008386" xlink:href="#m811636c661" y="238.873353"/>
     <use style="stroke:#000000;" x="98.864274" xlink:href="#m811636c661" y="239.753435"/>
     <use style="stroke:#000000;" x="99.720163" xlink:href="#m811636c661" y="240.598222"/>
     <use style="stroke:#000000;" x="100.576052" xlink:href="#m811636c661" y="241.409794"/>
     <use style="stroke:#000000;" x="101.43194" xlink:href="#m811636c661" y="242.190072"/>
     <use style="stroke:#000000;" x="102.287829" xlink:href="#m811636c661" y="242.940834"/>
     <use style="stroke:#000000;" x="103.143718" xlink:href="#m811636c661" y="243.663722"/>
     <use style="stroke:#000000;" x="103.999607" xlink:href="#m811636c661" y="244.36026"/>
     <use style="stroke:#000000;" x="104.855495" xlink:href="#m811636c661" y="245.031863"/>
     <use style="stroke:#000000;" x="105.711384" xlink:href="#m811636c661" y="245.679847"/>
     <use style="stroke:#000000;" x="106.567273" xlink:href="#m811636c661" y="246.305436"/>
     <use style="stroke:#000000;" x="107.423161" xlink:href="#m811636c661" y="246.909772"/>
     <use style="stroke:#000000;" x="108.27905" xlink:href="#m811636c661" y="247.493919"/>
     <use style="stroke:#000000;" x="109.134939" xlink:href="#m811636c661" y="248.058872"/>
     <use style="stroke:#000000;" x="109.990828" xlink:href="#m811636c661" y="248.605562"/>
     <use style="stroke:#000000;" x="110.846716" xlink:href="#m811636c661" y="249.134861"/>
     <use style="stroke:#000000;" x="112.142653" xlink:href="#m811636c661" y="249.904998"/>
     <use style="stroke:#000000;" x="113.43859" xlink:href="#m811636c661" y="250.639743"/>
     <use style="stroke:#000000;" x="114.734527" xlink:href="#m811636c661" y="251.341482"/>
     <use style="stroke:#000000;" x="116.030464" xlink:href="#m811636c661" y="252.012389"/>
     <use style="stroke:#000000;" x="117.3264" xlink:href="#m811636c661" y="252.654454"/>
     <use style="stroke:#000000;" x="118.622337" xlink:href="#m811636c661" y="253.269496"/>
     <use style="stroke:#000000;" x="119.918274" xlink:href="#m811636c661" y="253.859187"/>
     <use style="stroke:#000000;" x="121.214211" xlink:href="#m811636c661" y="254.425062"/>
     <use style="stroke:#000000;" x="122.510148" xlink:href="#m811636c661" y="254.968536"/>
     <use style="stroke:#000000;" x="123.806085" xlink:href="#m811636c661" y="255.490912"/>
     <use style="stroke:#000000;" x="125.102021" xlink:href="#m811636c661" y="255.993397"/>
     <use style="stroke:#000000;" x="126.397958" xlink:href="#m811636c661" y="256.477104"/>
     <use style="stroke:#000000;" x="127.693895" xlink:href="#m811636c661" y="256.943068"/>
     <use style="stroke:#000000;" x="128.989832" xlink:href="#m811636c661" y="257.392246"/>
     <use style="stroke:#000000;" x="130.285769" xlink:href="#m811636c661" y="257.825531"/>
     <use style="stroke:#000000;" x="131.581705" xlink:href="#m811636c661" y="258.24375"/>
     <use style="stroke:#000000;" x="132.877642" xlink:href="#m811636c661" y="258.647676"/>
     <use style="stroke:#000000;" x="134.173579" xlink:href="#m811636c661" y="259.03803"/>
     <use style="stroke:#000000;" x="136.123514" xlink:href="#m811636c661" y="259.60127"/>
     <use style="stroke:#000000;" x="138.073448" xlink:href="#m811636c661" y="260.137404"/>
     <use style="stroke:#000000;" x="140.023383" xlink:href="#m811636c661" y="260.648341"/>
     <use style="stroke:#000000;" x="141.973317" xlink:href="#m811636c661" y="261.13582"/>
     <use style="stroke:#000000;" x="143.923252" xlink:href="#m811636c661" y="261.601418"/>
     <use style="stroke:#000000;" x="145.873186" xlink:href="#m811636c661" y="262.046576"/>
     <use style="stroke:#000000;" x="147.823121" xlink:href="#m811636c661" y="262.472611"/>
     <use style="stroke:#000000;" x="149.773055" xlink:href="#m811636c661" y="262.88073"/>
     <use style="stroke:#000000;" x="151.72299" xlink:href="#m811636c661" y="263.27204"/>
     <use style="stroke:#000000;" x="153.672925" xlink:href="#m811636c661" y="263.647557"/>
     <use style="stroke:#000000;" x="155.622859" xlink:href="#m811636c661" y="264.00822"/>
     <use style="stroke:#000000;" x="157.572794" xlink:href="#m811636c661" y="264.354892"/>
     <use style="stroke:#000000;" x="159.522728" xlink:href="#m811636c661" y="264.688372"/>
     <use style="stroke:#000000;" x="161.472663" xlink:href="#m811636c661" y="265.0094"/>
     <use style="stroke:#000000;" x="163.422597" xlink:href="#m811636c661" y="265.318659"/>
     <use style="stroke:#000000;" x="165.372532" xlink:href="#m811636c661" y="265.616785"/>
     <use style="stroke:#000000;" x="168.300222" xlink:href="#m811636c661" y="266.044777"/>
     <use style="stroke:#000000;" x="171.227912" xlink:href="#m811636c661" y="266.450822"/>
     <use style="stroke:#000000;" x="174.155602" xlink:href="#m811636c661" y="266.836566"/>
     <use style="stroke:#000000;" x="177.083292" xlink:href="#m811636c661" y="267.203496"/>
     <use style="stroke:#000000;" x="180.010982" xlink:href="#m811636c661" y="267.552955"/>
     <use style="stroke:#000000;" x="182.938673" xlink:href="#m811636c661" y="267.886161"/>
     <use style="stroke:#000000;" x="185.866363" xlink:href="#m811636c661" y="268.204223"/>
     <use style="stroke:#000000;" x="188.794053" xlink:href="#m811636c661" y="268.508149"/>
     <use style="stroke:#000000;" x="191.721743" xlink:href="#m811636c661" y="268.798863"/>
     <use style="stroke:#000000;" x="194.649433" xlink:href="#m811636c661" y="269.077206"/>
     <use style="stroke:#000000;" x="197.577123" xlink:href="#m811636c661" y="269.343953"/>
     <use style="stroke:#000000;" x="200.504813" xlink:href="#m811636c661" y="269.599813"/>
     <use style="stroke:#000000;" x="203.432504" xlink:href="#m811636c661" y="269.845439"/>
     <use style="stroke:#000000;" x="206.360194" xlink:href="#m811636c661" y="270.081433"/>
     <use style="stroke:#000000;" x="209.287884" xlink:href="#m811636c661" y="270.308351"/>
     <use style="stroke:#000000;" x="213.700095" xlink:href="#m811636c661" y="270.634309"/>
     <use style="stroke:#000000;" x="218.112306" xlink:href="#m811636c661" y="270.942408"/>
     <use style="stroke:#000000;" x="222.524517" xlink:href="#m811636c661" y="271.234078"/>
     <use style="stroke:#000000;" x="226.936728" xlink:href="#m811636c661" y="271.5106"/>
     <use style="stroke:#000000;" x="231.348939" xlink:href="#m811636c661" y="271.773123"/>
     <use style="stroke:#000000;" x="235.76115" xlink:href="#m811636c661" y="272.022684"/>
     <use style="stroke:#000000;" x="240.173361" xlink:href="#m811636c661" y="272.26022"/>
     <use style="stroke:#000000;" x="244.585572" xlink:href="#m811636c661" y="272.486579"/>
     <use style="stroke:#000000;" x="248.997783" xlink:href="#m811636c661" y="272.702532"/>
     <use style="stroke:#000000;" x="253.409994" xlink:href="#m811636c661" y="272.908782"/>
     <use style="stroke:#000000;" x="257.822205" xlink:href="#m811636c661" y="273.105966"/>
     <use style="stroke:#000000;" x="262.234416" xlink:href="#m811636c661" y="273.294671"/>
     <use style="stroke:#000000;" x="266.646627" xlink:href="#m811636c661" y="273.475431"/>
     <use style="stroke:#000000;" x="271.058838" xlink:href="#m811636c661" y="273.648739"/>
     <use style="stroke:#000000;" x="275.471049" xlink:href="#m811636c661" y="273.815045"/>
     <use style="stroke:#000000;" x="282.733885" xlink:href="#m811636c661" y="274.074635"/>
     <use style="stroke:#000000;" x="289.996721" xlink:href="#m811636c661" y="274.318038"/>
     <use style="stroke:#000000;" x="297.259558" xlink:href="#m811636c661" y="274.546723"/>
     <use style="stroke:#000000;" x="304.522394" xlink:href="#m811636c661" y="274.761986"/>
    </g>
   </g>
   <g id="line2d_15">
    <path clip-path="url(#p16f86f1247)" d="M 66.376477 109.287997 
L 67.522674 125.483084 
L 68.774836 140.024675 
L 69.95225 151.429833 
L 71.385783 163.06096 
L 72.812713 172.746663 
L 74.183818 180.673912 
L 75.212147 185.902648 
L 76.914977 193.466594 
L 78.725066 200.300835 
L 80.369152 205.65275 
L 82.013237 210.345702 
L 83.657323 214.49434 
L 85.849437 219.33107 
L 88.041551 223.519992 
L 90.233665 227.183081 
L 92.754376 230.865142 
L 95.275088 234.082755 
L 97.7958 236.918581 
L 100.316511 239.436767 
L 102.837223 241.68785 
L 106.198172 244.342402 
L 110.089872 247.009213 
L 113.981573 249.322258 
L 117.873273 251.34755 
L 121.764974 253.135641 
L 125.656674 254.725898 
L 131.516622 256.814025 
L 137.376571 258.603957 
L 143.236519 260.155312 
L 149.096468 261.512808 
L 156.909732 263.07922 
L 164.750799 264.426352 
L 173.582425 265.729776 
L 185.357926 267.192296 
L 197.133428 268.411956 
L 212.022143 269.691684 
L 230.024072 270.947716 
L 248.026 271.969095 
L 270.528411 273.00554 
L 299.366576 274.054386 
L 324.996736 274.798287 
L 365.323989 275.719739 
L 391.024431 276.191486 
L 391.024431 276.191486 
" style="fill:none;stroke:#0000ff;stroke-linecap:square;stroke-width:1.5;"/>
   </g>
   <g id="line2d_16">
    <path clip-path="url(#p16f86f1247)" d="M 66.376477 105.227808 
L 67.886208 115.482226 
L 69.797536 126.873685 
L 71.425766 135.41546 
L 73.590039 145.411529 
L 75.213243 152.056793 
L 77.604452 160.74621 
L 79.34261 166.36635 
L 81.534161 172.750285 
L 83.725713 178.465557 
L 85.917264 183.612014 
L 88.108815 188.27054 
L 90.300366 192.507386 
L 92.491917 196.377327 
L 94.683468 199.926043 
L 97.970795 204.729183 
L 101.258122 209.00051 
L 104.545449 212.823713 
L 107.832775 216.2658 
L 111.120102 219.381052 
L 113.888586 221.783985 
L 117.234003 224.452081 
L 120.579419 226.893347 
L 123.924835 229.135529 
L 128.94296 232.175718 
L 133.961085 234.88455 
L 138.97921 237.313398 
L 143.997334 239.503536 
L 149.112861 241.525196 
L 154.228389 243.362753 
L 161.90168 245.825393 
L 169.574971 247.99207 
L 177.248261 249.913113 
L 184.921552 251.628052 
L 193.936616 253.421742 
L 205.635224 255.454939 
L 217.333833 257.217005 
L 229.032441 258.758784 
L 244.630586 260.537723 
L 260.645621 262.100265 
L 278.818869 263.61753 
L 296.992117 264.918629 
L 321.223115 266.390085 
L 345.454113 267.62664 
L 372.800259 268.804656 
L 391.031023 269.487485 
L 391.031023 269.487485 
" style="fill:none;stroke:#ff0000;stroke-linecap:square;stroke-width:1.5;"/>
   </g>
   <g id="line2d_17">
    <path clip-path="url(#p16f86f1247)" d="M 66.376477 34.414125 
L 67.379544 57.881068 
L 68.50607 79.201086 
L 69.740946 98.124999 
L 70.980195 113.719303 
L 72.219443 126.727239 
L 73.458692 137.837735 
L 74.94579 149.1237 
L 76.188166 157.222248 
L 77.681521 165.685897 
L 79.174876 173.081078 
L 81.04157 181.038592 
L 82.908263 187.88434 
L 84.411925 192.745278 
L 86.107409 197.644224 
L 88.368055 203.382746 
L 90.628701 208.371535 
L 92.889346 212.765556 
L 95.440719 217.121683 
L 98.008386 220.979005 
L 100.576052 224.398557 
L 103.143718 227.451623 
L 105.711384 230.194656 
L 109.134939 233.44402 
L 112.142653 235.978347 
L 116.030464 238.885689 
L 119.918274 241.445165 
L 123.806085 243.715988 
L 127.693895 245.746029 
L 132.877642 248.132609 
L 138.073448 250.230341 
L 143.923252 252.299954 
L 149.773055 254.115094 
L 155.622859 255.720082 
L 163.422597 257.588954 
L 171.227912 259.213014 
L 180.010982 260.797451 
L 188.794053 262.174869 
L 200.504813 263.753748 
L 213.700095 265.251801 
L 226.936728 266.527095 
L 244.585572 267.951321 
L 262.234416 269.133855 
L 282.733885 270.275716 
L 304.522394 271.286432 
L 304.522394 271.286432 
" style="fill:none;stroke:#0000ff;stroke-dasharray:5.55,2.4;stroke-dashoffset:0;stroke-width:1.5;"/>
   </g>
   <g id="line2d_18">
    <path clip-path="url(#p16f86f1247)" d="M 66.376477 161.508029 
L 67.651071 172.21467 
L 69.044022 182.144461 
L 70.484496 190.834201 
L 71.971594 198.459871 
L 73.706541 205.963019 
L 75.193639 211.454076 
L 76.934844 216.989006 
L 78.801537 222.061595 
L 80.668231 226.420984 
L 82.534924 230.210699 
L 84.411925 233.536227 
L 86.672571 237.028008 
L 88.933216 240.05796 
L 91.193862 242.709217 
L 93.454508 245.04853 
L 96.296608 247.624953 
L 98.864274 249.663825 
L 102.287829 252.035684 
L 105.711384 254.084727 
L 109.134939 255.870906 
L 112.142653 257.262236 
L 116.030464 258.85624 
L 121.214211 260.687142 
L 126.397958 262.247473 
L 131.581705 263.598534 
L 138.073448 265.045089 
L 145.873186 266.509338 
L 153.672925 267.739564 
L 163.422597 269.024525 
L 174.155602 270.196116 
L 185.866363 271.252501 
L 200.504813 272.331636 
L 218.112306 273.370075 
L 240.173361 274.39223 
L 266.646627 275.33544 
L 297.259558 276.16669 
L 304.522394 276.334125 
L 304.522394 276.334125 
" style="fill:none;stroke:#0000ff;stroke-dasharray:5.55,2.4;stroke-dashoffset:0;stroke-width:1.5;"/>
   </g>
   <g id="line2d_19"/>
   <g id="line2d_20"/>
   <g id="line2d_21"/>
   <g id="line2d_22"/>
   <g id="patch_3">
    <path d="M 50.14375 288.430125 
L 50.14375 22.318125 
" style="fill:none;stroke:#000000;stroke-linecap:square;stroke-linejoin:miter;stroke-width:0.8;"/>
   </g>
   <g id="patch_4">
    <path d="M 407.26375 288.430125 
L 407.26375 22.318125 
" style="fill:none;stroke:#000000;stroke-linecap:square;stroke-linejoin:miter;stroke-width:0.8;"/>
   </g>
   <g id="patch_5">
    <path d="M 50.14375 288.430125 
L 407.26375 288.430125 
" style="fill:none;stroke:#000000;stroke-linecap:square;stroke-linejoin:miter;stroke-width:0.8;"/>
   </g>
   <g id="patch_6">
    <path d="M 50.14375 22.318125 
L 407.26375 22.318125 
" style="fill:none;stroke:#000000;stroke-linecap:square;stroke-linejoin:miter;stroke-width:0.8;"/>
   </g>
   <g id="text_16">
    <!-- Experiment_118 -->
    <g transform="translate(179.583438 16.318125)scale(0.12 -0.12)">
     <defs>
      <path d="M 9.8125 72.90625 
L 55.90625 72.90625 
L 55.90625 64.59375 
L 19.671875 64.59375 
L 19.671875 43.015625 
L 54.390625 43.015625 
L 54.390625 34.71875 
L 19.671875 34.71875 
L 19.671875 8.296875 
L 56.78125 8.296875 
L 56.78125 0 
L 9.8125 0 
z
" id="DejaVuSans-69"/>
      <path d="M 54.890625 54.6875 
L 35.109375 28.078125 
L 55.90625 0 
L 45.3125 0 
L 29.390625 21.484375 
L 13.484375 0 
L 2.875 0 
L 24.125 28.609375 
L 4.6875 54.6875 
L 15.28125 54.6875 
L 29.78125 35.203125 
L 44.28125 54.6875 
z
" id="DejaVuSans-120"/>
      <path d="M 18.109375 8.203125 
L 18.109375 -20.796875 
L 9.078125 -20.796875 
L 9.078125 54.6875 
L 18.109375 54.6875 
L 18.109375 46.390625 
Q 20.953125 51.265625 25.265625 53.625 
Q 29.59375 56 35.59375 56 
Q 45.5625 56 51.78125 48.09375 
Q 58.015625 40.1875 58.015625 27.296875 
Q 58.015625 14.40625 51.78125 6.484375 
Q 45.5625 -1.421875 35.59375 -1.421875 
Q 29.59375 -1.421875 25.265625 0.953125 
Q 20.953125 3.328125 18.109375 8.203125 
z
M 48.6875 27.296875 
Q 48.6875 37.203125 44.609375 42.84375 
Q 40.53125 48.484375 33.40625 48.484375 
Q 26.265625 48.484375 22.1875 42.84375 
Q 18.109375 37.203125 18.109375 27.296875 
Q 18.109375 17.390625 22.1875 11.75 
Q 26.265625 6.109375 33.40625 6.109375 
Q 40.53125 6.109375 44.609375 11.75 
Q 48.6875 17.390625 48.6875 27.296875 
z
" id="DejaVuSans-112"/>
      <path d="M 18.3125 70.21875 
L 18.3125 54.6875 
L 36.8125 54.6875 
L 36.8125 47.703125 
L 18.3125 47.703125 
L 18.3125 18.015625 
Q 18.3125 11.328125 20.140625 9.421875 
Q 21.96875 7.515625 27.59375 7.515625 
L 36.8125 7.515625 
L 36.8125 0 
L 27.59375 0 
Q 17.1875 0 13.234375 3.875 
Q 9.28125 7.765625 9.28125 18.015625 
L 9.28125 47.703125 
L 2.6875 47.703125 
L 2.6875 54.6875 
L 9.28125 54.6875 
L 9.28125 70.21875 
z
" id="DejaVuSans-116"/>
      <path d="M 50.984375 -16.609375 
L 50.984375 -23.578125 
L -0.984375 -23.578125 
L -0.984375 -16.609375 
z
" id="DejaVuSans-95"/>
     </defs>
     <use xlink:href="#DejaVuSans-69"/>
     <use x="63.183594" xlink:href="#DejaVuSans-120"/>
     <use x="122.363281" xlink:href="#DejaVuSans-112"/>
     <use x="185.839844" xlink:href="#DejaVuSans-101"/>
     <use x="247.363281" xlink:href="#DejaVuSans-114"/>
     <use x="288.476562" xlink:href="#DejaVuSans-105"/>
     <use x="316.259766" xlink:href="#DejaVuSans-109"/>
     <use x="413.671875" xlink:href="#DejaVuSans-101"/>
     <use x="475.195312" xlink:href="#DejaVuSans-110"/>
     <use x="538.574219" xlink:href="#DejaVuSans-116"/>
     <use x="577.783203" xlink:href="#DejaVuSans-95"/>
     <use x="627.783203" xlink:href="#DejaVuSans-49"/>
     <use x="691.40625" xlink:href="#DejaVuSans-49"/>
     <use x="755.029297" xlink:href="#DejaVuSans-56"/>
    </g>
   </g>
   <g id="legend_1">
    <g id="patch_7">
     <path d="M 65.284062 89.0525 
L 400.26375 89.0525 
Q 402.26375 89.0525 402.26375 87.0525 
L 402.26375 29.318125 
Q 402.26375 27.318125 400.26375 27.318125 
L 65.284062 27.318125 
Q 63.284062 27.318125 63.284062 29.318125 
L 63.284062 87.0525 
Q 63.284062 89.0525 65.284062 89.0525 
z
" style="fill:#ffffff;opacity:0.8;stroke:#cccccc;stroke-linejoin:miter;"/>
    </g>
    <g id="line2d_23"/>
    <g id="line2d_24">
     <g>
      <use style="stroke:#000000;" x="77.284062" xlink:href="#m811636c661" y="35.416562"/>
     </g>
    </g>
    <g id="text_17">
     <!-- Experimental Data -->
     <g transform="translate(95.284062 38.916562)scale(0.1 -0.1)">
      <defs>
       <path d="M 9.421875 75.984375 
L 18.40625 75.984375 
L 18.40625 0 
L 9.421875 0 
z
" id="DejaVuSans-108"/>
       <path d="M 19.671875 64.796875 
L 19.671875 8.109375 
L 31.59375 8.109375 
Q 46.6875 8.109375 53.6875 14.9375 
Q 60.6875 21.78125 60.6875 36.53125 
Q 60.6875 51.171875 53.6875 57.984375 
Q 46.6875 64.796875 31.59375 64.796875 
z
M 9.8125 72.90625 
L 30.078125 72.90625 
Q 51.265625 72.90625 61.171875 64.09375 
Q 71.09375 55.28125 71.09375 36.53125 
Q 71.09375 17.671875 61.125 8.828125 
Q 51.171875 0 30.078125 0 
L 9.8125 0 
z
" id="DejaVuSans-68"/>
      </defs>
      <use xlink:href="#DejaVuSans-69"/>
      <use x="63.183594" xlink:href="#DejaVuSans-120"/>
      <use x="122.363281" xlink:href="#DejaVuSans-112"/>
      <use x="185.839844" xlink:href="#DejaVuSans-101"/>
      <use x="247.363281" xlink:href="#DejaVuSans-114"/>
      <use x="288.476562" xlink:href="#DejaVuSans-105"/>
      <use x="316.259766" xlink:href="#DejaVuSans-109"/>
      <use x="413.671875" xlink:href="#DejaVuSans-101"/>
      <use x="475.195312" xlink:href="#DejaVuSans-110"/>
      <use x="538.574219" xlink:href="#DejaVuSans-116"/>
      <use x="577.783203" xlink:href="#DejaVuSans-97"/>
      <use x="639.0625" xlink:href="#DejaVuSans-108"/>
      <use x="666.845703" xlink:href="#DejaVuSans-32"/>
      <use x="698.632812" xlink:href="#DejaVuSans-68"/>
      <use x="775.634766" xlink:href="#DejaVuSans-97"/>
      <use x="836.914062" xlink:href="#DejaVuSans-116"/>
      <use x="876.123047" xlink:href="#DejaVuSans-97"/>
     </g>
    </g>
    <g id="line2d_25">
     <path d="M 67.284062 50.094688 
L 87.284062 50.094688 
" style="fill:none;stroke:#0000ff;stroke-linecap:square;stroke-width:1.5;"/>
    </g>
    <g id="line2d_26"/>
    <g id="text_18">
     <!-- MSI -->
     <g transform="translate(95.284062 53.594688)scale(0.1 -0.1)">
      <defs>
       <path d="M 9.8125 72.90625 
L 24.515625 72.90625 
L 43.109375 23.296875 
L 61.8125 72.90625 
L 76.515625 72.90625 
L 76.515625 0 
L 66.890625 0 
L 66.890625 64.015625 
L 48.09375 14.015625 
L 38.1875 14.015625 
L 19.390625 64.015625 
L 19.390625 0 
L 9.8125 0 
z
" id="DejaVuSans-77"/>
       <path d="M 53.515625 70.515625 
L 53.515625 60.890625 
Q 47.90625 63.578125 42.921875 64.890625 
Q 37.9375 66.21875 33.296875 66.21875 
Q 25.25 66.21875 20.875 63.09375 
Q 16.5 59.96875 16.5 54.203125 
Q 16.5 49.359375 19.40625 46.890625 
Q 22.3125 44.4375 30.421875 42.921875 
L 36.375 41.703125 
Q 47.40625 39.59375 52.65625 34.296875 
Q 57.90625 29 57.90625 20.125 
Q 57.90625 9.515625 50.796875 4.046875 
Q 43.703125 -1.421875 29.984375 -1.421875 
Q 24.8125 -1.421875 18.96875 -0.25 
Q 13.140625 0.921875 6.890625 3.21875 
L 6.890625 13.375 
Q 12.890625 10.015625 18.65625 8.296875 
Q 24.421875 6.59375 29.984375 6.59375 
Q 38.421875 6.59375 43.015625 9.90625 
Q 47.609375 13.234375 47.609375 19.390625 
Q 47.609375 24.75 44.3125 27.78125 
Q 41.015625 30.8125 33.5 32.328125 
L 27.484375 33.5 
Q 16.453125 35.6875 11.515625 40.375 
Q 6.59375 45.0625 6.59375 53.421875 
Q 6.59375 63.09375 13.40625 68.65625 
Q 20.21875 74.21875 32.171875 74.21875 
Q 37.3125 74.21875 42.625 73.28125 
Q 47.953125 72.359375 53.515625 70.515625 
z
" id="DejaVuSans-83"/>
       <path d="M 9.8125 72.90625 
L 19.671875 72.90625 
L 19.671875 0 
L 9.8125 0 
z
" id="DejaVuSans-73"/>
      </defs>
      <use xlink:href="#DejaVuSans-77"/>
      <use x="86.279297" xlink:href="#DejaVuSans-83"/>
      <use x="149.755859" xlink:href="#DejaVuSans-73"/>
     </g>
    </g>
    <g id="line2d_27">
     <path d="M 67.284062 64.774375 
L 87.284062 64.774375 
" style="fill:none;stroke:#ff0000;stroke-linecap:square;stroke-width:1.5;"/>
    </g>
    <g id="line2d_28"/>
    <g id="text_19">
     <!-- $\it{A priori}$ model -->
     <g transform="translate(95.284062 68.274375)scale(0.1 -0.1)">
      <defs>
       <path d="M 36.8125 72.90625 
L 48 72.90625 
L 61.53125 0 
L 51.21875 0 
L 48.1875 18.703125 
L 15.375 18.703125 
L 5.078125 0 
L -5.328125 0 
z
M 40.375 63.1875 
L 19.921875 26.90625 
L 46.6875 26.90625 
z
" id="DejaVuSans-Oblique-65"/>
       <path d="M 49.609375 33.6875 
Q 49.609375 40.875 46.484375 44.671875 
Q 43.359375 48.484375 37.5 48.484375 
Q 33.5 48.484375 29.859375 46.4375 
Q 26.21875 44.390625 23.390625 40.484375 
Q 20.609375 36.625 18.9375 31.15625 
Q 17.28125 25.6875 17.28125 20.3125 
Q 17.28125 13.484375 20.40625 9.796875 
Q 23.53125 6.109375 29.296875 6.109375 
Q 33.546875 6.109375 37.1875 8.109375 
Q 40.828125 10.109375 43.40625 13.921875 
Q 46.1875 17.921875 47.890625 23.34375 
Q 49.609375 28.765625 49.609375 33.6875 
z
M 21.78125 46.390625 
Q 25.390625 51.125 30.296875 53.5625 
Q 35.203125 56 41.21875 56 
Q 49.609375 56 54.25 50.5 
Q 58.890625 45.015625 58.890625 35.109375 
Q 58.890625 27 56 19.65625 
Q 53.125 12.3125 47.703125 6.5 
Q 44.09375 2.640625 39.546875 0.609375 
Q 35.015625 -1.421875 29.984375 -1.421875 
Q 24.171875 -1.421875 20.21875 1 
Q 16.265625 3.421875 14.3125 8.203125 
L 8.6875 -20.796875 
L -0.296875 -20.796875 
L 14.40625 54.6875 
L 23.390625 54.6875 
z
" id="DejaVuSans-Oblique-112"/>
       <path d="M 44.578125 46.390625 
Q 43.21875 47.125 41.453125 47.515625 
Q 39.703125 47.90625 37.703125 47.90625 
Q 30.515625 47.90625 25.140625 42.453125 
Q 19.78125 37.015625 18.015625 27.875 
L 12.5 0 
L 3.515625 0 
L 14.203125 54.6875 
L 23.1875 54.6875 
L 21.484375 46.1875 
Q 25.046875 50.921875 30 53.453125 
Q 34.96875 56 40.578125 56 
Q 42.046875 56 43.453125 55.828125 
Q 44.875 55.671875 46.296875 55.28125 
z
" id="DejaVuSans-Oblique-114"/>
       <path d="M 18.3125 75.984375 
L 27.296875 75.984375 
L 25.09375 64.59375 
L 16.109375 64.59375 
z
M 14.203125 54.6875 
L 23.1875 54.6875 
L 12.5 0 
L 3.515625 0 
z
" id="DejaVuSans-Oblique-105"/>
       <path d="M 25.390625 -1.421875 
Q 15.765625 -1.421875 10.171875 4.515625 
Q 4.59375 10.453125 4.59375 20.703125 
Q 4.59375 26.65625 6.515625 32.828125 
Q 8.453125 39.015625 11.53125 43.21875 
Q 16.359375 49.75 22.3125 52.875 
Q 28.265625 56 35.796875 56 
Q 45.125 56 50.859375 50.1875 
Q 56.59375 44.390625 56.59375 35.015625 
Q 56.59375 28.515625 54.6875 22.0625 
Q 52.78125 15.625 49.703125 11.375 
Q 44.921875 4.828125 38.96875 1.703125 
Q 33.015625 -1.421875 25.390625 -1.421875 
z
M 13.921875 21 
Q 13.921875 13.578125 17.015625 9.890625 
Q 20.125 6.203125 26.421875 6.203125 
Q 35.453125 6.203125 41.375 14.078125 
Q 47.3125 21.96875 47.3125 34.078125 
Q 47.3125 41.15625 44.140625 44.765625 
Q 40.96875 48.390625 34.8125 48.390625 
Q 29.734375 48.390625 25.78125 46.015625 
Q 21.828125 43.65625 18.703125 38.8125 
Q 16.40625 35.203125 15.15625 30.5625 
Q 13.921875 25.921875 13.921875 21 
z
" id="DejaVuSans-Oblique-111"/>
       <path d="M 45.40625 46.390625 
L 45.40625 75.984375 
L 54.390625 75.984375 
L 54.390625 0 
L 45.40625 0 
L 45.40625 8.203125 
Q 42.578125 3.328125 38.25 0.953125 
Q 33.9375 -1.421875 27.875 -1.421875 
Q 17.96875 -1.421875 11.734375 6.484375 
Q 5.515625 14.40625 5.515625 27.296875 
Q 5.515625 40.1875 11.734375 48.09375 
Q 17.96875 56 27.875 56 
Q 33.9375 56 38.25 53.625 
Q 42.578125 51.265625 45.40625 46.390625 
z
M 14.796875 27.296875 
Q 14.796875 17.390625 18.875 11.75 
Q 22.953125 6.109375 30.078125 6.109375 
Q 37.203125 6.109375 41.296875 11.75 
Q 45.40625 17.390625 45.40625 27.296875 
Q 45.40625 37.203125 41.296875 42.84375 
Q 37.203125 48.484375 30.078125 48.484375 
Q 22.953125 48.484375 18.875 42.84375 
Q 14.796875 37.203125 14.796875 27.296875 
z
" id="DejaVuSans-100"/>
      </defs>
      <use transform="translate(0 0.015625)" xlink:href="#DejaVuSans-Oblique-65"/>
      <use transform="translate(68.408203 0.015625)" xlink:href="#DejaVuSans-Oblique-112"/>
      <use transform="translate(131.884766 0.015625)" xlink:href="#DejaVuSans-Oblique-114"/>
      <use transform="translate(172.998047 0.015625)" xlink:href="#DejaVuSans-Oblique-105"/>
      <use transform="translate(200.78125 0.015625)" xlink:href="#DejaVuSans-Oblique-111"/>
      <use transform="translate(261.962891 0.015625)" xlink:href="#DejaVuSans-Oblique-114"/>
      <use transform="translate(303.076172 0.015625)" xlink:href="#DejaVuSans-Oblique-105"/>
      <use transform="translate(330.859375 0.015625)" xlink:href="#DejaVuSans-32"/>
      <use transform="translate(362.646484 0.015625)" xlink:href="#DejaVuSans-109"/>
      <use transform="translate(460.058594 0.015625)" xlink:href="#DejaVuSans-111"/>
      <use transform="translate(521.240234 0.015625)" xlink:href="#DejaVuSans-100"/>
      <use transform="translate(584.716797 0.015625)" xlink:href="#DejaVuSans-101"/>
      <use transform="translate(646.240234 0.015625)" xlink:href="#DejaVuSans-108"/>
     </g>
    </g>
    <g id="line2d_29">
     <path d="M 67.284062 79.472813 
L 87.284062 79.472813 
" style="fill:none;stroke:#ffffff;stroke-linecap:square;stroke-width:1.5;"/>
    </g>
    <g id="line2d_30"/>
    <g id="text_20">
     <!-- T:354.0 -->
     <g transform="translate(95.284062 82.972813)scale(0.1 -0.1)">
      <defs>
       <path d="M 11.71875 12.40625 
L 22.015625 12.40625 
L 22.015625 0 
L 11.71875 0 
z
M 11.71875 51.703125 
L 22.015625 51.703125 
L 22.015625 39.3125 
L 11.71875 39.3125 
z
" id="DejaVuSans-58"/>
       <path d="M 40.578125 39.3125 
Q 47.65625 37.796875 51.625 33 
Q 55.609375 28.21875 55.609375 21.1875 
Q 55.609375 10.40625 48.1875 4.484375 
Q 40.765625 -1.421875 27.09375 -1.421875 
Q 22.515625 -1.421875 17.65625 -0.515625 
Q 12.796875 0.390625 7.625 2.203125 
L 7.625 11.71875 
Q 11.71875 9.328125 16.59375 8.109375 
Q 21.484375 6.890625 26.8125 6.890625 
Q 36.078125 6.890625 40.9375 10.546875 
Q 45.796875 14.203125 45.796875 21.1875 
Q 45.796875 27.640625 41.28125 31.265625 
Q 36.765625 34.90625 28.71875 34.90625 
L 20.21875 34.90625 
L 20.21875 43.015625 
L 29.109375 43.015625 
Q 36.375 43.015625 40.234375 45.921875 
Q 44.09375 48.828125 44.09375 54.296875 
Q 44.09375 59.90625 40.109375 62.90625 
Q 36.140625 65.921875 28.71875 65.921875 
Q 24.65625 65.921875 20.015625 65.03125 
Q 15.375 64.15625 9.8125 62.3125 
L 9.8125 71.09375 
Q 15.4375 72.65625 20.34375 73.4375 
Q 25.25 74.21875 29.59375 74.21875 
Q 40.828125 74.21875 47.359375 69.109375 
Q 53.90625 64.015625 53.90625 55.328125 
Q 53.90625 49.265625 50.4375 45.09375 
Q 46.96875 40.921875 40.578125 39.3125 
z
" id="DejaVuSans-51"/>
       <path d="M 10.796875 72.90625 
L 49.515625 72.90625 
L 49.515625 64.59375 
L 19.828125 64.59375 
L 19.828125 46.734375 
Q 21.96875 47.46875 24.109375 47.828125 
Q 26.265625 48.1875 28.421875 48.1875 
Q 40.625 48.1875 47.75 41.5 
Q 54.890625 34.8125 54.890625 23.390625 
Q 54.890625 11.625 47.5625 5.09375 
Q 40.234375 -1.421875 26.90625 -1.421875 
Q 22.3125 -1.421875 17.546875 -0.640625 
Q 12.796875 0.140625 7.71875 1.703125 
L 7.71875 11.625 
Q 12.109375 9.234375 16.796875 8.0625 
Q 21.484375 6.890625 26.703125 6.890625 
Q 35.15625 6.890625 40.078125 11.328125 
Q 45.015625 15.765625 45.015625 23.390625 
Q 45.015625 31 40.078125 35.4375 
Q 35.15625 39.890625 26.703125 39.890625 
Q 22.75 39.890625 18.8125 39.015625 
Q 14.890625 38.140625 10.796875 36.28125 
z
" id="DejaVuSans-53"/>
      </defs>
      <use xlink:href="#DejaVuSans-84"/>
      <use x="50.083984" xlink:href="#DejaVuSans-58"/>
      <use x="83.775391" xlink:href="#DejaVuSans-51"/>
      <use x="147.398438" xlink:href="#DejaVuSans-53"/>
      <use x="211.021484" xlink:href="#DejaVuSans-52"/>
      <use x="274.644531" xlink:href="#DejaVuSans-46"/>
      <use x="306.431641" xlink:href="#DejaVuSans-48"/>
     </g>
    </g>
    <g id="line2d_31">
     <path d="M 209.024687 35.416562 
L 229.024687 35.416562 
" style="fill:none;stroke:#ffffff;stroke-linecap:square;stroke-width:1.5;"/>
    </g>
    <g id="line2d_32"/>
    <g id="text_21">
     <!-- P:9.29 -->
     <g transform="translate(237.024687 38.916562)scale(0.1 -0.1)">
      <defs>
       <path d="M 19.671875 64.796875 
L 19.671875 37.40625 
L 32.078125 37.40625 
Q 38.96875 37.40625 42.71875 40.96875 
Q 46.484375 44.53125 46.484375 51.125 
Q 46.484375 57.671875 42.71875 61.234375 
Q 38.96875 64.796875 32.078125 64.796875 
z
M 9.8125 72.90625 
L 32.078125 72.90625 
Q 44.34375 72.90625 50.609375 67.359375 
Q 56.890625 61.8125 56.890625 51.125 
Q 56.890625 40.328125 50.609375 34.8125 
Q 44.34375 29.296875 32.078125 29.296875 
L 19.671875 29.296875 
L 19.671875 0 
L 9.8125 0 
z
" id="DejaVuSans-80"/>
       <path d="M 10.984375 1.515625 
L 10.984375 10.5 
Q 14.703125 8.734375 18.5 7.8125 
Q 22.3125 6.890625 25.984375 6.890625 
Q 35.75 6.890625 40.890625 13.453125 
Q 46.046875 20.015625 46.78125 33.40625 
Q 43.953125 29.203125 39.59375 26.953125 
Q 35.25 24.703125 29.984375 24.703125 
Q 19.046875 24.703125 12.671875 31.3125 
Q 6.296875 37.9375 6.296875 49.421875 
Q 6.296875 60.640625 12.9375 67.421875 
Q 19.578125 74.21875 30.609375 74.21875 
Q 43.265625 74.21875 49.921875 64.515625 
Q 56.59375 54.828125 56.59375 36.375 
Q 56.59375 19.140625 48.40625 8.859375 
Q 40.234375 -1.421875 26.421875 -1.421875 
Q 22.703125 -1.421875 18.890625 -0.6875 
Q 15.09375 0.046875 10.984375 1.515625 
z
M 30.609375 32.421875 
Q 37.25 32.421875 41.125 36.953125 
Q 45.015625 41.5 45.015625 49.421875 
Q 45.015625 57.28125 41.125 61.84375 
Q 37.25 66.40625 30.609375 66.40625 
Q 23.96875 66.40625 20.09375 61.84375 
Q 16.21875 57.28125 16.21875 49.421875 
Q 16.21875 41.5 20.09375 36.953125 
Q 23.96875 32.421875 30.609375 32.421875 
z
" id="DejaVuSans-57"/>
      </defs>
      <use xlink:href="#DejaVuSans-80"/>
      <use x="60.302734" xlink:href="#DejaVuSans-58"/>
      <use x="93.994141" xlink:href="#DejaVuSans-57"/>
      <use x="157.617188" xlink:href="#DejaVuSans-46"/>
      <use x="189.404297" xlink:href="#DejaVuSans-50"/>
      <use x="253.027344" xlink:href="#DejaVuSans-57"/>
     </g>
    </g>
    <g id="line2d_33">
     <path d="M 209.024687 50.094688 
L 229.024687 50.094688 
" style="fill:none;stroke:#ffffff;stroke-linecap:square;stroke-width:1.5;"/>
    </g>
    <g id="line2d_34"/>
    <g id="text_22">
     <!-- CH3: 1.0406091370558375e-06 -->
     <g transform="translate(237.024687 53.594688)scale(0.1 -0.1)">
      <defs>
       <path d="M 64.40625 67.28125 
L 64.40625 56.890625 
Q 59.421875 61.53125 53.78125 63.8125 
Q 48.140625 66.109375 41.796875 66.109375 
Q 29.296875 66.109375 22.65625 58.46875 
Q 16.015625 50.828125 16.015625 36.375 
Q 16.015625 21.96875 22.65625 14.328125 
Q 29.296875 6.6875 41.796875 6.6875 
Q 48.140625 6.6875 53.78125 8.984375 
Q 59.421875 11.28125 64.40625 15.921875 
L 64.40625 5.609375 
Q 59.234375 2.09375 53.4375 0.328125 
Q 47.65625 -1.421875 41.21875 -1.421875 
Q 24.65625 -1.421875 15.125 8.703125 
Q 5.609375 18.84375 5.609375 36.375 
Q 5.609375 53.953125 15.125 64.078125 
Q 24.65625 74.21875 41.21875 74.21875 
Q 47.75 74.21875 53.53125 72.484375 
Q 59.328125 70.75 64.40625 67.28125 
z
" id="DejaVuSans-67"/>
       <path d="M 9.8125 72.90625 
L 19.671875 72.90625 
L 19.671875 43.015625 
L 55.515625 43.015625 
L 55.515625 72.90625 
L 65.375 72.90625 
L 65.375 0 
L 55.515625 0 
L 55.515625 34.71875 
L 19.671875 34.71875 
L 19.671875 0 
L 9.8125 0 
z
" id="DejaVuSans-72"/>
       <path d="M 8.203125 72.90625 
L 55.078125 72.90625 
L 55.078125 68.703125 
L 28.609375 0 
L 18.3125 0 
L 43.21875 64.59375 
L 8.203125 64.59375 
z
" id="DejaVuSans-55"/>
       <path d="M 4.890625 31.390625 
L 31.203125 31.390625 
L 31.203125 23.390625 
L 4.890625 23.390625 
z
" id="DejaVuSans-45"/>
      </defs>
      <use xlink:href="#DejaVuSans-67"/>
      <use x="69.824219" xlink:href="#DejaVuSans-72"/>
      <use x="145.019531" xlink:href="#DejaVuSans-51"/>
      <use x="208.642578" xlink:href="#DejaVuSans-58"/>
      <use x="242.333984" xlink:href="#DejaVuSans-32"/>
      <use x="274.121094" xlink:href="#DejaVuSans-49"/>
      <use x="337.744141" xlink:href="#DejaVuSans-46"/>
      <use x="369.53125" xlink:href="#DejaVuSans-48"/>
      <use x="433.154297" xlink:href="#DejaVuSans-52"/>
      <use x="496.777344" xlink:href="#DejaVuSans-48"/>
      <use x="560.400391" xlink:href="#DejaVuSans-54"/>
      <use x="624.023438" xlink:href="#DejaVuSans-48"/>
      <use x="687.646484" xlink:href="#DejaVuSans-57"/>
      <use x="751.269531" xlink:href="#DejaVuSans-49"/>
      <use x="814.892578" xlink:href="#DejaVuSans-51"/>
      <use x="878.515625" xlink:href="#DejaVuSans-55"/>
      <use x="942.138672" xlink:href="#DejaVuSans-48"/>
      <use x="1005.761719" xlink:href="#DejaVuSans-53"/>
      <use x="1069.384766" xlink:href="#DejaVuSans-53"/>
      <use x="1133.007812" xlink:href="#DejaVuSans-56"/>
      <use x="1196.630859" xlink:href="#DejaVuSans-51"/>
      <use x="1260.253906" xlink:href="#DejaVuSans-55"/>
      <use x="1323.876953" xlink:href="#DejaVuSans-53"/>
      <use x="1387.5" xlink:href="#DejaVuSans-101"/>
      <use x="1449.023438" xlink:href="#DejaVuSans-45"/>
      <use x="1485.107422" xlink:href="#DejaVuSans-48"/>
      <use x="1548.730469" xlink:href="#DejaVuSans-54"/>
     </g>
    </g>
    <g id="line2d_35">
     <path d="M 209.024687 64.772812 
L 229.024687 64.772812 
" style="fill:none;stroke:#ffffff;stroke-linecap:square;stroke-width:1.5;"/>
    </g>
    <g id="line2d_36"/>
    <g id="text_23">
     <!-- Ar: 0.9999989593908629 -->
     <g transform="translate(237.024687 68.272812)scale(0.1 -0.1)">
      <use xlink:href="#DejaVuSans-65"/>
      <use x="68.408203" xlink:href="#DejaVuSans-114"/>
      <use x="107.771484" xlink:href="#DejaVuSans-58"/>
      <use x="141.462891" xlink:href="#DejaVuSans-32"/>
      <use x="173.25" xlink:href="#DejaVuSans-48"/>
      <use x="236.873047" xlink:href="#DejaVuSans-46"/>
      <use x="268.660156" xlink:href="#DejaVuSans-57"/>
      <use x="332.283203" xlink:href="#DejaVuSans-57"/>
      <use x="395.90625" xlink:href="#DejaVuSans-57"/>
      <use x="459.529297" xlink:href="#DejaVuSans-57"/>
      <use x="523.152344" xlink:href="#DejaVuSans-57"/>
      <use x="586.775391" xlink:href="#DejaVuSans-56"/>
      <use x="650.398438" xlink:href="#DejaVuSans-57"/>
      <use x="714.021484" xlink:href="#DejaVuSans-53"/>
      <use x="777.644531" xlink:href="#DejaVuSans-57"/>
      <use x="841.267578" xlink:href="#DejaVuSans-51"/>
      <use x="904.890625" xlink:href="#DejaVuSans-57"/>
      <use x="968.513672" xlink:href="#DejaVuSans-48"/>
      <use x="1032.136719" xlink:href="#DejaVuSans-56"/>
      <use x="1095.759766" xlink:href="#DejaVuSans-54"/>
      <use x="1159.382812" xlink:href="#DejaVuSans-50"/>
      <use x="1223.005859" xlink:href="#DejaVuSans-57"/>
     </g>
    </g>
   </g>
  </g>
 </g>
 <defs>
  <clipPath id="p16f86f1247">
   <rect height="266.112" width="357.12" x="50.14375" y="22.318125"/>
  </clipPath>
 </defs>
</svg>
