<?xml version="1.0" encoding="utf-8" standalone="no"?>
<!DOCTYPE svg PUBLIC "-//W3C//DTD SVG 1.1//EN"
  "http://www.w3.org/Graphics/SVG/1.1/DTD/svg11.dtd">
<!-- Created with matplotlib (https://matplotlib.org/) -->
<svg height="277.314375pt" version="1.1" viewBox="0 0 392.14375 277.314375" width="392.14375pt" xmlns="http://www.w3.org/2000/svg" xmlns:xlink="http://www.w3.org/1999/xlink">
 <metadata>
  <rdf:RDF xmlns:cc="http://creativecommons.org/ns#" xmlns:dc="http://purl.org/dc/elements/1.1/" xmlns:rdf="http://www.w3.org/1999/02/22-rdf-syntax-ns#">
   <cc:Work>
    <dc:type rdf:resource="http://purl.org/dc/dcmitype/StillImage"/>
    <dc:date>2020-11-12T21:39:38.506343</dc:date>
    <dc:format>image/svg+xml</dc:format>
    <dc:creator>
     <cc:Agent>
      <dc:title>Matplotlib v3.3.1, https://matplotlib.org/</dc:title>
     </cc:Agent>
    </dc:creator>
   </cc:Work>
  </rdf:RDF>
 </metadata>
 <defs>
  <style type="text/css">*{stroke-linecap:butt;stroke-linejoin:round;}</style>
 </defs>
 <g id="figure_1">
  <g id="patch_1">
   <path d="M 0 277.314375 
L 392.14375 277.314375 
L 392.14375 0 
L 0 0 
z
" style="fill:none;"/>
  </g>
  <g id="axes_1">
   <g id="patch_2">
    <path d="M 50.14375 239.758125 
L 384.94375 239.758125 
L 384.94375 22.318125 
L 50.14375 22.318125 
z
" style="fill:none;"/>
   </g>
   <g id="matplotlib.axis_1">
    <g id="xtick_1">
     <g id="line2d_1">
      <defs>
       <path d="M 0 0 
L 0 3.5 
" id="ma5a5f7957f" style="stroke:#000000;stroke-width:0.8;"/>
      </defs>
      <g>
       <use style="stroke:#000000;stroke-width:0.8;" x="65.361932" xlink:href="#ma5a5f7957f" y="239.758125"/>
      </g>
     </g>
     <g id="text_1">
      <!-- 0.00 -->
      <g transform="translate(54.229119 254.356562)scale(0.1 -0.1)">
       <defs>
        <path d="M 31.78125 66.40625 
Q 24.171875 66.40625 20.328125 58.90625 
Q 16.5 51.421875 16.5 36.375 
Q 16.5 21.390625 20.328125 13.890625 
Q 24.171875 6.390625 31.78125 6.390625 
Q 39.453125 6.390625 43.28125 13.890625 
Q 47.125 21.390625 47.125 36.375 
Q 47.125 51.421875 43.28125 58.90625 
Q 39.453125 66.40625 31.78125 66.40625 
z
M 31.78125 74.21875 
Q 44.046875 74.21875 50.515625 64.515625 
Q 56.984375 54.828125 56.984375 36.375 
Q 56.984375 17.96875 50.515625 8.265625 
Q 44.046875 -1.421875 31.78125 -1.421875 
Q 19.53125 -1.421875 13.0625 8.265625 
Q 6.59375 17.96875 6.59375 36.375 
Q 6.59375 54.828125 13.0625 64.515625 
Q 19.53125 74.21875 31.78125 74.21875 
z
" id="DejaVuSans-48"/>
        <path d="M 10.6875 12.40625 
L 21 12.40625 
L 21 0 
L 10.6875 0 
z
" id="DejaVuSans-46"/>
       </defs>
       <use xlink:href="#DejaVuSans-48"/>
       <use x="63.623047" xlink:href="#DejaVuSans-46"/>
       <use x="95.410156" xlink:href="#DejaVuSans-48"/>
       <use x="159.033203" xlink:href="#DejaVuSans-48"/>
      </g>
     </g>
    </g>
    <g id="xtick_2">
     <g id="line2d_2">
      <g>
       <use style="stroke:#000000;stroke-width:0.8;" x="103.179279" xlink:href="#ma5a5f7957f" y="239.758125"/>
      </g>
     </g>
     <g id="text_2">
      <!-- 0.25 -->
      <g transform="translate(92.046467 254.356562)scale(0.1 -0.1)">
       <defs>
        <path d="M 19.1875 8.296875 
L 53.609375 8.296875 
L 53.609375 0 
L 7.328125 0 
L 7.328125 8.296875 
Q 12.9375 14.109375 22.625 23.890625 
Q 32.328125 33.6875 34.8125 36.53125 
Q 39.546875 41.84375 41.421875 45.53125 
Q 43.3125 49.21875 43.3125 52.78125 
Q 43.3125 58.59375 39.234375 62.25 
Q 35.15625 65.921875 28.609375 65.921875 
Q 23.96875 65.921875 18.8125 64.3125 
Q 13.671875 62.703125 7.8125 59.421875 
L 7.8125 69.390625 
Q 13.765625 71.78125 18.9375 73 
Q 24.125 74.21875 28.421875 74.21875 
Q 39.75 74.21875 46.484375 68.546875 
Q 53.21875 62.890625 53.21875 53.421875 
Q 53.21875 48.921875 51.53125 44.890625 
Q 49.859375 40.875 45.40625 35.40625 
Q 44.1875 33.984375 37.640625 27.21875 
Q 31.109375 20.453125 19.1875 8.296875 
z
" id="DejaVuSans-50"/>
        <path d="M 10.796875 72.90625 
L 49.515625 72.90625 
L 49.515625 64.59375 
L 19.828125 64.59375 
L 19.828125 46.734375 
Q 21.96875 47.46875 24.109375 47.828125 
Q 26.265625 48.1875 28.421875 48.1875 
Q 40.625 48.1875 47.75 41.5 
Q 54.890625 34.8125 54.890625 23.390625 
Q 54.890625 11.625 47.5625 5.09375 
Q 40.234375 -1.421875 26.90625 -1.421875 
Q 22.3125 -1.421875 17.546875 -0.640625 
Q 12.796875 0.140625 7.71875 1.703125 
L 7.71875 11.625 
Q 12.109375 9.234375 16.796875 8.0625 
Q 21.484375 6.890625 26.703125 6.890625 
Q 35.15625 6.890625 40.078125 11.328125 
Q 45.015625 15.765625 45.015625 23.390625 
Q 45.015625 31 40.078125 35.4375 
Q 35.15625 39.890625 26.703125 39.890625 
Q 22.75 39.890625 18.8125 39.015625 
Q 14.890625 38.140625 10.796875 36.28125 
z
" id="DejaVuSans-53"/>
       </defs>
       <use xlink:href="#DejaVuSans-48"/>
       <use x="63.623047" xlink:href="#DejaVuSans-46"/>
       <use x="95.410156" xlink:href="#DejaVuSans-50"/>
       <use x="159.033203" xlink:href="#DejaVuSans-53"/>
      </g>
     </g>
    </g>
    <g id="xtick_3">
     <g id="line2d_3">
      <g>
       <use style="stroke:#000000;stroke-width:0.8;" x="140.996627" xlink:href="#ma5a5f7957f" y="239.758125"/>
      </g>
     </g>
     <g id="text_3">
      <!-- 0.50 -->
      <g transform="translate(129.863814 254.356562)scale(0.1 -0.1)">
       <use xlink:href="#DejaVuSans-48"/>
       <use x="63.623047" xlink:href="#DejaVuSans-46"/>
       <use x="95.410156" xlink:href="#DejaVuSans-53"/>
       <use x="159.033203" xlink:href="#DejaVuSans-48"/>
      </g>
     </g>
    </g>
    <g id="xtick_4">
     <g id="line2d_4">
      <g>
       <use style="stroke:#000000;stroke-width:0.8;" x="178.813975" xlink:href="#ma5a5f7957f" y="239.758125"/>
      </g>
     </g>
     <g id="text_4">
      <!-- 0.75 -->
      <g transform="translate(167.681162 254.356562)scale(0.1 -0.1)">
       <defs>
        <path d="M 8.203125 72.90625 
L 55.078125 72.90625 
L 55.078125 68.703125 
L 28.609375 0 
L 18.3125 0 
L 43.21875 64.59375 
L 8.203125 64.59375 
z
" id="DejaVuSans-55"/>
       </defs>
       <use xlink:href="#DejaVuSans-48"/>
       <use x="63.623047" xlink:href="#DejaVuSans-46"/>
       <use x="95.410156" xlink:href="#DejaVuSans-55"/>
       <use x="159.033203" xlink:href="#DejaVuSans-53"/>
      </g>
     </g>
    </g>
    <g id="xtick_5">
     <g id="line2d_5">
      <g>
       <use style="stroke:#000000;stroke-width:0.8;" x="216.631322" xlink:href="#ma5a5f7957f" y="239.758125"/>
      </g>
     </g>
     <g id="text_5">
      <!-- 1.00 -->
      <g transform="translate(205.49851 254.356562)scale(0.1 -0.1)">
       <defs>
        <path d="M 12.40625 8.296875 
L 28.515625 8.296875 
L 28.515625 63.921875 
L 10.984375 60.40625 
L 10.984375 69.390625 
L 28.421875 72.90625 
L 38.28125 72.90625 
L 38.28125 8.296875 
L 54.390625 8.296875 
L 54.390625 0 
L 12.40625 0 
z
" id="DejaVuSans-49"/>
       </defs>
       <use xlink:href="#DejaVuSans-49"/>
       <use x="63.623047" xlink:href="#DejaVuSans-46"/>
       <use x="95.410156" xlink:href="#DejaVuSans-48"/>
       <use x="159.033203" xlink:href="#DejaVuSans-48"/>
      </g>
     </g>
    </g>
    <g id="xtick_6">
     <g id="line2d_6">
      <g>
       <use style="stroke:#000000;stroke-width:0.8;" x="254.44867" xlink:href="#ma5a5f7957f" y="239.758125"/>
      </g>
     </g>
     <g id="text_6">
      <!-- 1.25 -->
      <g transform="translate(243.315857 254.356562)scale(0.1 -0.1)">
       <use xlink:href="#DejaVuSans-49"/>
       <use x="63.623047" xlink:href="#DejaVuSans-46"/>
       <use x="95.410156" xlink:href="#DejaVuSans-50"/>
       <use x="159.033203" xlink:href="#DejaVuSans-53"/>
      </g>
     </g>
    </g>
    <g id="xtick_7">
     <g id="line2d_7">
      <g>
       <use style="stroke:#000000;stroke-width:0.8;" x="292.266017" xlink:href="#ma5a5f7957f" y="239.758125"/>
      </g>
     </g>
     <g id="text_7">
      <!-- 1.50 -->
      <g transform="translate(281.133205 254.356562)scale(0.1 -0.1)">
       <use xlink:href="#DejaVuSans-49"/>
       <use x="63.623047" xlink:href="#DejaVuSans-46"/>
       <use x="95.410156" xlink:href="#DejaVuSans-53"/>
       <use x="159.033203" xlink:href="#DejaVuSans-48"/>
      </g>
     </g>
    </g>
    <g id="xtick_8">
     <g id="line2d_8">
      <g>
       <use style="stroke:#000000;stroke-width:0.8;" x="330.083365" xlink:href="#ma5a5f7957f" y="239.758125"/>
      </g>
     </g>
     <g id="text_8">
      <!-- 1.75 -->
      <g transform="translate(318.950552 254.356562)scale(0.1 -0.1)">
       <use xlink:href="#DejaVuSans-49"/>
       <use x="63.623047" xlink:href="#DejaVuSans-46"/>
       <use x="95.410156" xlink:href="#DejaVuSans-55"/>
       <use x="159.033203" xlink:href="#DejaVuSans-53"/>
      </g>
     </g>
    </g>
    <g id="xtick_9">
     <g id="line2d_9">
      <g>
       <use style="stroke:#000000;stroke-width:0.8;" x="367.900712" xlink:href="#ma5a5f7957f" y="239.758125"/>
      </g>
     </g>
     <g id="text_9">
      <!-- 2.00 -->
      <g transform="translate(356.7679 254.356562)scale(0.1 -0.1)">
       <use xlink:href="#DejaVuSans-50"/>
       <use x="63.623047" xlink:href="#DejaVuSans-46"/>
       <use x="95.410156" xlink:href="#DejaVuSans-48"/>
       <use x="159.033203" xlink:href="#DejaVuSans-48"/>
      </g>
     </g>
    </g>
    <g id="text_10">
     <!-- Time (ms) -->
     <g transform="translate(192.344531 268.034687)scale(0.1 -0.1)">
      <defs>
       <path d="M -0.296875 72.90625 
L 61.375 72.90625 
L 61.375 64.59375 
L 35.5 64.59375 
L 35.5 0 
L 25.59375 0 
L 25.59375 64.59375 
L -0.296875 64.59375 
z
" id="DejaVuSans-84"/>
       <path d="M 9.421875 54.6875 
L 18.40625 54.6875 
L 18.40625 0 
L 9.421875 0 
z
M 9.421875 75.984375 
L 18.40625 75.984375 
L 18.40625 64.59375 
L 9.421875 64.59375 
z
" id="DejaVuSans-105"/>
       <path d="M 52 44.1875 
Q 55.375 50.25 60.0625 53.125 
Q 64.75 56 71.09375 56 
Q 79.640625 56 84.28125 50.015625 
Q 88.921875 44.046875 88.921875 33.015625 
L 88.921875 0 
L 79.890625 0 
L 79.890625 32.71875 
Q 79.890625 40.578125 77.09375 44.375 
Q 74.3125 48.1875 68.609375 48.1875 
Q 61.625 48.1875 57.5625 43.546875 
Q 53.515625 38.921875 53.515625 30.90625 
L 53.515625 0 
L 44.484375 0 
L 44.484375 32.71875 
Q 44.484375 40.625 41.703125 44.40625 
Q 38.921875 48.1875 33.109375 48.1875 
Q 26.21875 48.1875 22.15625 43.53125 
Q 18.109375 38.875 18.109375 30.90625 
L 18.109375 0 
L 9.078125 0 
L 9.078125 54.6875 
L 18.109375 54.6875 
L 18.109375 46.1875 
Q 21.1875 51.21875 25.484375 53.609375 
Q 29.78125 56 35.6875 56 
Q 41.65625 56 45.828125 52.96875 
Q 50 49.953125 52 44.1875 
z
" id="DejaVuSans-109"/>
       <path d="M 56.203125 29.59375 
L 56.203125 25.203125 
L 14.890625 25.203125 
Q 15.484375 15.921875 20.484375 11.0625 
Q 25.484375 6.203125 34.421875 6.203125 
Q 39.59375 6.203125 44.453125 7.46875 
Q 49.3125 8.734375 54.109375 11.28125 
L 54.109375 2.78125 
Q 49.265625 0.734375 44.1875 -0.34375 
Q 39.109375 -1.421875 33.890625 -1.421875 
Q 20.796875 -1.421875 13.15625 6.1875 
Q 5.515625 13.8125 5.515625 26.8125 
Q 5.515625 40.234375 12.765625 48.109375 
Q 20.015625 56 32.328125 56 
Q 43.359375 56 49.78125 48.890625 
Q 56.203125 41.796875 56.203125 29.59375 
z
M 47.21875 32.234375 
Q 47.125 39.59375 43.09375 43.984375 
Q 39.0625 48.390625 32.421875 48.390625 
Q 24.90625 48.390625 20.390625 44.140625 
Q 15.875 39.890625 15.1875 32.171875 
z
" id="DejaVuSans-101"/>
       <path id="DejaVuSans-32"/>
       <path d="M 31 75.875 
Q 24.46875 64.65625 21.28125 53.65625 
Q 18.109375 42.671875 18.109375 31.390625 
Q 18.109375 20.125 21.3125 9.0625 
Q 24.515625 -2 31 -13.1875 
L 23.1875 -13.1875 
Q 15.875 -1.703125 12.234375 9.375 
Q 8.59375 20.453125 8.59375 31.390625 
Q 8.59375 42.28125 12.203125 53.3125 
Q 15.828125 64.359375 23.1875 75.875 
z
" id="DejaVuSans-40"/>
       <path d="M 44.28125 53.078125 
L 44.28125 44.578125 
Q 40.484375 46.53125 36.375 47.5 
Q 32.28125 48.484375 27.875 48.484375 
Q 21.1875 48.484375 17.84375 46.4375 
Q 14.5 44.390625 14.5 40.28125 
Q 14.5 37.15625 16.890625 35.375 
Q 19.28125 33.59375 26.515625 31.984375 
L 29.59375 31.296875 
Q 39.15625 29.25 43.1875 25.515625 
Q 47.21875 21.78125 47.21875 15.09375 
Q 47.21875 7.46875 41.1875 3.015625 
Q 35.15625 -1.421875 24.609375 -1.421875 
Q 20.21875 -1.421875 15.453125 -0.5625 
Q 10.6875 0.296875 5.421875 2 
L 5.421875 11.28125 
Q 10.40625 8.6875 15.234375 7.390625 
Q 20.0625 6.109375 24.8125 6.109375 
Q 31.15625 6.109375 34.5625 8.28125 
Q 37.984375 10.453125 37.984375 14.40625 
Q 37.984375 18.0625 35.515625 20.015625 
Q 33.0625 21.96875 24.703125 23.78125 
L 21.578125 24.515625 
Q 13.234375 26.265625 9.515625 29.90625 
Q 5.8125 33.546875 5.8125 39.890625 
Q 5.8125 47.609375 11.28125 51.796875 
Q 16.75 56 26.8125 56 
Q 31.78125 56 36.171875 55.265625 
Q 40.578125 54.546875 44.28125 53.078125 
z
" id="DejaVuSans-115"/>
       <path d="M 8.015625 75.875 
L 15.828125 75.875 
Q 23.140625 64.359375 26.78125 53.3125 
Q 30.421875 42.28125 30.421875 31.390625 
Q 30.421875 20.453125 26.78125 9.375 
Q 23.140625 -1.703125 15.828125 -13.1875 
L 8.015625 -13.1875 
Q 14.5 -2 17.703125 9.0625 
Q 20.90625 20.125 20.90625 31.390625 
Q 20.90625 42.671875 17.703125 53.65625 
Q 14.5 64.65625 8.015625 75.875 
z
" id="DejaVuSans-41"/>
      </defs>
      <use xlink:href="#DejaVuSans-84"/>
      <use x="57.958984" xlink:href="#DejaVuSans-105"/>
      <use x="85.742188" xlink:href="#DejaVuSans-109"/>
      <use x="183.154297" xlink:href="#DejaVuSans-101"/>
      <use x="244.677734" xlink:href="#DejaVuSans-32"/>
      <use x="276.464844" xlink:href="#DejaVuSans-40"/>
      <use x="315.478516" xlink:href="#DejaVuSans-109"/>
      <use x="412.890625" xlink:href="#DejaVuSans-115"/>
      <use x="464.990234" xlink:href="#DejaVuSans-41"/>
     </g>
    </g>
   </g>
   <g id="matplotlib.axis_2">
    <g id="ytick_1">
     <g id="line2d_10">
      <defs>
       <path d="M 0 0 
L -3.5 0 
" id="m7a9c599db6" style="stroke:#000000;stroke-width:0.8;"/>
      </defs>
      <g>
       <use style="stroke:#000000;stroke-width:0.8;" x="50.14375" xlink:href="#m7a9c599db6" y="218.436283"/>
      </g>
     </g>
     <g id="text_11">
      <!-- 0.15 -->
      <g transform="translate(20.878125 222.235502)scale(0.1 -0.1)">
       <use xlink:href="#DejaVuSans-48"/>
       <use x="63.623047" xlink:href="#DejaVuSans-46"/>
       <use x="95.410156" xlink:href="#DejaVuSans-49"/>
       <use x="159.033203" xlink:href="#DejaVuSans-53"/>
      </g>
     </g>
    </g>
    <g id="ytick_2">
     <g id="line2d_11">
      <g>
       <use style="stroke:#000000;stroke-width:0.8;" x="50.14375" xlink:href="#m7a9c599db6" y="187.407397"/>
      </g>
     </g>
     <g id="text_12">
      <!-- 0.20 -->
      <g transform="translate(20.878125 191.206616)scale(0.1 -0.1)">
       <use xlink:href="#DejaVuSans-48"/>
       <use x="63.623047" xlink:href="#DejaVuSans-46"/>
       <use x="95.410156" xlink:href="#DejaVuSans-50"/>
       <use x="159.033203" xlink:href="#DejaVuSans-48"/>
      </g>
     </g>
    </g>
    <g id="ytick_3">
     <g id="line2d_12">
      <g>
       <use style="stroke:#000000;stroke-width:0.8;" x="50.14375" xlink:href="#m7a9c599db6" y="156.378512"/>
      </g>
     </g>
     <g id="text_13">
      <!-- 0.25 -->
      <g transform="translate(20.878125 160.17773)scale(0.1 -0.1)">
       <use xlink:href="#DejaVuSans-48"/>
       <use x="63.623047" xlink:href="#DejaVuSans-46"/>
       <use x="95.410156" xlink:href="#DejaVuSans-50"/>
       <use x="159.033203" xlink:href="#DejaVuSans-53"/>
      </g>
     </g>
    </g>
    <g id="ytick_4">
     <g id="line2d_13">
      <g>
       <use style="stroke:#000000;stroke-width:0.8;" x="50.14375" xlink:href="#m7a9c599db6" y="125.349626"/>
      </g>
     </g>
     <g id="text_14">
      <!-- 0.30 -->
      <g transform="translate(20.878125 129.148845)scale(0.1 -0.1)">
       <defs>
        <path d="M 40.578125 39.3125 
Q 47.65625 37.796875 51.625 33 
Q 55.609375 28.21875 55.609375 21.1875 
Q 55.609375 10.40625 48.1875 4.484375 
Q 40.765625 -1.421875 27.09375 -1.421875 
Q 22.515625 -1.421875 17.65625 -0.515625 
Q 12.796875 0.390625 7.625 2.203125 
L 7.625 11.71875 
Q 11.71875 9.328125 16.59375 8.109375 
Q 21.484375 6.890625 26.8125 6.890625 
Q 36.078125 6.890625 40.9375 10.546875 
Q 45.796875 14.203125 45.796875 21.1875 
Q 45.796875 27.640625 41.28125 31.265625 
Q 36.765625 34.90625 28.71875 34.90625 
L 20.21875 34.90625 
L 20.21875 43.015625 
L 29.109375 43.015625 
Q 36.375 43.015625 40.234375 45.921875 
Q 44.09375 48.828125 44.09375 54.296875 
Q 44.09375 59.90625 40.109375 62.90625 
Q 36.140625 65.921875 28.71875 65.921875 
Q 24.65625 65.921875 20.015625 65.03125 
Q 15.375 64.15625 9.8125 62.3125 
L 9.8125 71.09375 
Q 15.4375 72.65625 20.34375 73.4375 
Q 25.25 74.21875 29.59375 74.21875 
Q 40.828125 74.21875 47.359375 69.109375 
Q 53.90625 64.015625 53.90625 55.328125 
Q 53.90625 49.265625 50.4375 45.09375 
Q 46.96875 40.921875 40.578125 39.3125 
z
" id="DejaVuSans-51"/>
       </defs>
       <use xlink:href="#DejaVuSans-48"/>
       <use x="63.623047" xlink:href="#DejaVuSans-46"/>
       <use x="95.410156" xlink:href="#DejaVuSans-51"/>
       <use x="159.033203" xlink:href="#DejaVuSans-48"/>
      </g>
     </g>
    </g>
    <g id="ytick_5">
     <g id="line2d_14">
      <g>
       <use style="stroke:#000000;stroke-width:0.8;" x="50.14375" xlink:href="#m7a9c599db6" y="94.32074"/>
      </g>
     </g>
     <g id="text_15">
      <!-- 0.35 -->
      <g transform="translate(20.878125 98.119959)scale(0.1 -0.1)">
       <use xlink:href="#DejaVuSans-48"/>
       <use x="63.623047" xlink:href="#DejaVuSans-46"/>
       <use x="95.410156" xlink:href="#DejaVuSans-51"/>
       <use x="159.033203" xlink:href="#DejaVuSans-53"/>
      </g>
     </g>
    </g>
    <g id="ytick_6">
     <g id="line2d_15">
      <g>
       <use style="stroke:#000000;stroke-width:0.8;" x="50.14375" xlink:href="#m7a9c599db6" y="63.291854"/>
      </g>
     </g>
     <g id="text_16">
      <!-- 0.40 -->
      <g transform="translate(20.878125 67.091073)scale(0.1 -0.1)">
       <defs>
        <path d="M 37.796875 64.3125 
L 12.890625 25.390625 
L 37.796875 25.390625 
z
M 35.203125 72.90625 
L 47.609375 72.90625 
L 47.609375 25.390625 
L 58.015625 25.390625 
L 58.015625 17.1875 
L 47.609375 17.1875 
L 47.609375 0 
L 37.796875 0 
L 37.796875 17.1875 
L 4.890625 17.1875 
L 4.890625 26.703125 
z
" id="DejaVuSans-52"/>
       </defs>
       <use xlink:href="#DejaVuSans-48"/>
       <use x="63.623047" xlink:href="#DejaVuSans-46"/>
       <use x="95.410156" xlink:href="#DejaVuSans-52"/>
       <use x="159.033203" xlink:href="#DejaVuSans-48"/>
      </g>
     </g>
    </g>
    <g id="ytick_7">
     <g id="line2d_16">
      <g>
       <use style="stroke:#000000;stroke-width:0.8;" x="50.14375" xlink:href="#m7a9c599db6" y="32.262968"/>
      </g>
     </g>
     <g id="text_17">
      <!-- 0.45 -->
      <g transform="translate(20.878125 36.062187)scale(0.1 -0.1)">
       <use xlink:href="#DejaVuSans-48"/>
       <use x="63.623047" xlink:href="#DejaVuSans-46"/>
       <use x="95.410156" xlink:href="#DejaVuSans-52"/>
       <use x="159.033203" xlink:href="#DejaVuSans-53"/>
      </g>
     </g>
    </g>
    <g id="text_18">
     <!-- Absorbance215 -->
     <g transform="translate(14.798438 170.12875)rotate(-90)scale(0.1 -0.1)">
      <defs>
       <path d="M 34.1875 63.1875 
L 20.796875 26.90625 
L 47.609375 26.90625 
z
M 28.609375 72.90625 
L 39.796875 72.90625 
L 67.578125 0 
L 57.328125 0 
L 50.6875 18.703125 
L 17.828125 18.703125 
L 11.1875 0 
L 0.78125 0 
z
" id="DejaVuSans-65"/>
       <path d="M 48.6875 27.296875 
Q 48.6875 37.203125 44.609375 42.84375 
Q 40.53125 48.484375 33.40625 48.484375 
Q 26.265625 48.484375 22.1875 42.84375 
Q 18.109375 37.203125 18.109375 27.296875 
Q 18.109375 17.390625 22.1875 11.75 
Q 26.265625 6.109375 33.40625 6.109375 
Q 40.53125 6.109375 44.609375 11.75 
Q 48.6875 17.390625 48.6875 27.296875 
z
M 18.109375 46.390625 
Q 20.953125 51.265625 25.265625 53.625 
Q 29.59375 56 35.59375 56 
Q 45.5625 56 51.78125 48.09375 
Q 58.015625 40.1875 58.015625 27.296875 
Q 58.015625 14.40625 51.78125 6.484375 
Q 45.5625 -1.421875 35.59375 -1.421875 
Q 29.59375 -1.421875 25.265625 0.953125 
Q 20.953125 3.328125 18.109375 8.203125 
L 18.109375 0 
L 9.078125 0 
L 9.078125 75.984375 
L 18.109375 75.984375 
z
" id="DejaVuSans-98"/>
       <path d="M 30.609375 48.390625 
Q 23.390625 48.390625 19.1875 42.75 
Q 14.984375 37.109375 14.984375 27.296875 
Q 14.984375 17.484375 19.15625 11.84375 
Q 23.34375 6.203125 30.609375 6.203125 
Q 37.796875 6.203125 41.984375 11.859375 
Q 46.1875 17.53125 46.1875 27.296875 
Q 46.1875 37.015625 41.984375 42.703125 
Q 37.796875 48.390625 30.609375 48.390625 
z
M 30.609375 56 
Q 42.328125 56 49.015625 48.375 
Q 55.71875 40.765625 55.71875 27.296875 
Q 55.71875 13.875 49.015625 6.21875 
Q 42.328125 -1.421875 30.609375 -1.421875 
Q 18.84375 -1.421875 12.171875 6.21875 
Q 5.515625 13.875 5.515625 27.296875 
Q 5.515625 40.765625 12.171875 48.375 
Q 18.84375 56 30.609375 56 
z
" id="DejaVuSans-111"/>
       <path d="M 41.109375 46.296875 
Q 39.59375 47.171875 37.8125 47.578125 
Q 36.03125 48 33.890625 48 
Q 26.265625 48 22.1875 43.046875 
Q 18.109375 38.09375 18.109375 28.8125 
L 18.109375 0 
L 9.078125 0 
L 9.078125 54.6875 
L 18.109375 54.6875 
L 18.109375 46.1875 
Q 20.953125 51.171875 25.484375 53.578125 
Q 30.03125 56 36.53125 56 
Q 37.453125 56 38.578125 55.875 
Q 39.703125 55.765625 41.0625 55.515625 
z
" id="DejaVuSans-114"/>
       <path d="M 34.28125 27.484375 
Q 23.390625 27.484375 19.1875 25 
Q 14.984375 22.515625 14.984375 16.5 
Q 14.984375 11.71875 18.140625 8.90625 
Q 21.296875 6.109375 26.703125 6.109375 
Q 34.1875 6.109375 38.703125 11.40625 
Q 43.21875 16.703125 43.21875 25.484375 
L 43.21875 27.484375 
z
M 52.203125 31.203125 
L 52.203125 0 
L 43.21875 0 
L 43.21875 8.296875 
Q 40.140625 3.328125 35.546875 0.953125 
Q 30.953125 -1.421875 24.3125 -1.421875 
Q 15.921875 -1.421875 10.953125 3.296875 
Q 6 8.015625 6 15.921875 
Q 6 25.140625 12.171875 29.828125 
Q 18.359375 34.515625 30.609375 34.515625 
L 43.21875 34.515625 
L 43.21875 35.40625 
Q 43.21875 41.609375 39.140625 45 
Q 35.0625 48.390625 27.6875 48.390625 
Q 23 48.390625 18.546875 47.265625 
Q 14.109375 46.140625 10.015625 43.890625 
L 10.015625 52.203125 
Q 14.9375 54.109375 19.578125 55.046875 
Q 24.21875 56 28.609375 56 
Q 40.484375 56 46.34375 49.84375 
Q 52.203125 43.703125 52.203125 31.203125 
z
" id="DejaVuSans-97"/>
       <path d="M 54.890625 33.015625 
L 54.890625 0 
L 45.90625 0 
L 45.90625 32.71875 
Q 45.90625 40.484375 42.875 44.328125 
Q 39.84375 48.1875 33.796875 48.1875 
Q 26.515625 48.1875 22.3125 43.546875 
Q 18.109375 38.921875 18.109375 30.90625 
L 18.109375 0 
L 9.078125 0 
L 9.078125 54.6875 
L 18.109375 54.6875 
L 18.109375 46.1875 
Q 21.34375 51.125 25.703125 53.5625 
Q 30.078125 56 35.796875 56 
Q 45.21875 56 50.046875 50.171875 
Q 54.890625 44.34375 54.890625 33.015625 
z
" id="DejaVuSans-110"/>
       <path d="M 48.78125 52.59375 
L 48.78125 44.1875 
Q 44.96875 46.296875 41.140625 47.34375 
Q 37.3125 48.390625 33.40625 48.390625 
Q 24.65625 48.390625 19.8125 42.84375 
Q 14.984375 37.3125 14.984375 27.296875 
Q 14.984375 17.28125 19.8125 11.734375 
Q 24.65625 6.203125 33.40625 6.203125 
Q 37.3125 6.203125 41.140625 7.25 
Q 44.96875 8.296875 48.78125 10.40625 
L 48.78125 2.09375 
Q 45.015625 0.34375 40.984375 -0.53125 
Q 36.96875 -1.421875 32.421875 -1.421875 
Q 20.0625 -1.421875 12.78125 6.34375 
Q 5.515625 14.109375 5.515625 27.296875 
Q 5.515625 40.671875 12.859375 48.328125 
Q 20.21875 56 33.015625 56 
Q 37.15625 56 41.109375 55.140625 
Q 45.0625 54.296875 48.78125 52.59375 
z
" id="DejaVuSans-99"/>
      </defs>
      <use xlink:href="#DejaVuSans-65"/>
      <use x="68.408203" xlink:href="#DejaVuSans-98"/>
      <use x="131.884766" xlink:href="#DejaVuSans-115"/>
      <use x="183.984375" xlink:href="#DejaVuSans-111"/>
      <use x="245.166016" xlink:href="#DejaVuSans-114"/>
      <use x="286.279297" xlink:href="#DejaVuSans-98"/>
      <use x="349.755859" xlink:href="#DejaVuSans-97"/>
      <use x="411.035156" xlink:href="#DejaVuSans-110"/>
      <use x="474.414062" xlink:href="#DejaVuSans-99"/>
      <use x="529.394531" xlink:href="#DejaVuSans-101"/>
      <use x="590.917969" xlink:href="#DejaVuSans-50"/>
      <use x="654.541016" xlink:href="#DejaVuSans-49"/>
      <use x="718.164062" xlink:href="#DejaVuSans-53"/>
     </g>
    </g>
   </g>
   <g id="line2d_17">
    <defs>
     <path d="M 0 3 
C 0.795609 3 1.55874 2.683901 2.12132 2.12132 
C 2.683901 1.55874 3 0.795609 3 0 
C 3 -0.795609 2.683901 -1.55874 2.12132 -2.12132 
C 1.55874 -2.683901 0.795609 -3 0 -3 
C -0.795609 -3 -1.55874 -2.683901 -2.12132 -2.12132 
C -2.683901 -1.55874 -3 -0.795609 -3 0 
C -3 0.795609 -2.683901 1.55874 -2.12132 2.12132 
C -1.55874 2.683901 -0.795609 3 0 3 
z
" id="m2b0ce1e6fa" style="stroke:#000000;"/>
    </defs>
    <g clip-path="url(#p41656c1365)">
     <use style="stroke:#000000;" x="65.75024" xlink:href="#m2b0ce1e6fa" y="99.905939"/>
     <use style="stroke:#000000;" x="66.527009" xlink:href="#m2b0ce1e6fa" y="111.076338"/>
     <use style="stroke:#000000;" x="67.692086" xlink:href="#m2b0ce1e6fa" y="104.870561"/>
     <use style="stroke:#000000;" x="68.468854" xlink:href="#m2b0ce1e6fa" y="99.285362"/>
     <use style="stroke:#000000;" x="70.410699" xlink:href="#m2b0ce1e6fa" y="89.976696"/>
     <use style="stroke:#000000;" x="71.964084" xlink:href="#m2b0ce1e6fa" y="82.529763"/>
     <use style="stroke:#000000;" x="73.129312" xlink:href="#m2b0ce1e6fa" y="71.359365"/>
     <use style="stroke:#000000;" x="73.517621" xlink:href="#m2b0ce1e6fa" y="67.635898"/>
     <use style="stroke:#000000;" x="75.459466" xlink:href="#m2b0ce1e6fa" y="70.118209"/>
     <use style="stroke:#000000;" x="75.847775" xlink:href="#m2b0ce1e6fa" y="62.050699"/>
     <use style="stroke:#000000;" x="78.17808" xlink:href="#m2b0ce1e6fa" y="64.53301"/>
     <use style="stroke:#000000;" x="79.343156" xlink:href="#m2b0ce1e6fa" y="56.465499"/>
     <use style="stroke:#000000;" x="81.285002" xlink:href="#m2b0ce1e6fa" y="60.188966"/>
     <use style="stroke:#000000;" x="83.226847" xlink:href="#m2b0ce1e6fa" y="53.362611"/>
     <use style="stroke:#000000;" x="85.168692" xlink:href="#m2b0ce1e6fa" y="60.188966"/>
     <use style="stroke:#000000;" x="86.333769" xlink:href="#m2b0ce1e6fa" y="52.121455"/>
     <use style="stroke:#000000;" x="87.887154" xlink:href="#m2b0ce1e6fa" y="58.94781"/>
     <use style="stroke:#000000;" x="89.440691" xlink:href="#m2b0ce1e6fa" y="50.8803"/>
     <use style="stroke:#000000;" x="90.217459" xlink:href="#m2b0ce1e6fa" y="60.188966"/>
     <use style="stroke:#000000;" x="92.936073" xlink:href="#m2b0ce1e6fa" y="54.603766"/>
     <use style="stroke:#000000;" x="93.324381" xlink:href="#m2b0ce1e6fa" y="57.706655"/>
     <use style="stroke:#000000;" x="96.431303" xlink:href="#m2b0ce1e6fa" y="55.224344"/>
     <use style="stroke:#000000;" x="97.98484" xlink:href="#m2b0ce1e6fa" y="62.050699"/>
     <use style="stroke:#000000;" x="100.314993" xlink:href="#m2b0ce1e6fa" y="58.94781"/>
     <use style="stroke:#000000;" x="101.091762" xlink:href="#m2b0ce1e6fa" y="66.394743"/>
     <use style="stroke:#000000;" x="103.421915" xlink:href="#m2b0ce1e6fa" y="60.809543"/>
     <use style="stroke:#000000;" x="103.810375" xlink:href="#m2b0ce1e6fa" y="71.359365"/>
     <use style="stroke:#000000;" x="106.917297" xlink:href="#m2b0ce1e6fa" y="64.53301"/>
     <use style="stroke:#000000;" x="106.917297" xlink:href="#m2b0ce1e6fa" y="71.359365"/>
     <use style="stroke:#000000;" x="109.247451" xlink:href="#m2b0ce1e6fa" y="65.774165"/>
     <use style="stroke:#000000;" x="111.189296" xlink:href="#m2b0ce1e6fa" y="74.462253"/>
     <use style="stroke:#000000;" x="112.742833" xlink:href="#m2b0ce1e6fa" y="66.394743"/>
     <use style="stroke:#000000;" x="113.90791" xlink:href="#m2b0ce1e6fa" y="74.462253"/>
     <use style="stroke:#000000;" x="116.626523" xlink:href="#m2b0ce1e6fa" y="71.979942"/>
     <use style="stroke:#000000;" x="118.179908" xlink:href="#m2b0ce1e6fa" y="75.703409"/>
     <use style="stroke:#000000;" x="120.898522" xlink:href="#m2b0ce1e6fa" y="75.591705"/>
     <use style="stroke:#000000;" x="122.063599" xlink:href="#m2b0ce1e6fa" y="84.536712"/>
     <use style="stroke:#000000;" x="124.782212" xlink:href="#m2b0ce1e6fa" y="77.827646"/>
     <use style="stroke:#000000;" x="125.558981" xlink:href="#m2b0ce1e6fa" y="84.536712"/>
     <use style="stroke:#000000;" x="127.112366" xlink:href="#m2b0ce1e6fa" y="81.182489"/>
     <use style="stroke:#000000;" x="129.44252" xlink:href="#m2b0ce1e6fa" y="86.773274"/>
     <use style="stroke:#000000;" x="130.607294" xlink:href="#m2b0ce1e6fa" y="80.064208"/>
     <use style="stroke:#000000;" x="131.773581" xlink:href="#m2b0ce1e6fa" y="89.009215"/>
     <use style="stroke:#000000;" x="132.938355" xlink:href="#m2b0ce1e6fa" y="83.418431"/>
     <use style="stroke:#000000;" x="133.325605" xlink:href="#m2b0ce1e6fa" y="92.364058"/>
     <use style="stroke:#000000;" x="137.210203" xlink:href="#m2b0ce1e6fa" y="87.891555"/>
     <use style="stroke:#000000;" x="137.210203" xlink:href="#m2b0ce1e6fa" y="94.6"/>
     <use style="stroke:#000000;" x="140.706038" xlink:href="#m2b0ce1e6fa" y="87.891555"/>
     <use style="stroke:#000000;" x="140.706038" xlink:href="#m2b0ce1e6fa" y="95.718281"/>
     <use style="stroke:#000000;" x="143.811599" xlink:href="#m2b0ce1e6fa" y="93.48234"/>
     <use style="stroke:#000000;" x="144.589124" xlink:href="#m2b0ce1e6fa" y="101.309066"/>
     <use style="stroke:#000000;" x="149.638496" xlink:href="#m2b0ce1e6fa" y="97.954843"/>
     <use style="stroke:#000000;" x="150.025746" xlink:href="#m2b0ce1e6fa" y="103.545628"/>
     <use style="stroke:#000000;" x="154.297593" xlink:href="#m2b0ce1e6fa" y="103.545628"/>
     <use style="stroke:#000000;" x="154.297593" xlink:href="#m2b0ce1e6fa" y="109.136412"/>
     <use style="stroke:#000000;" x="157.017417" xlink:href="#m2b0ce1e6fa" y="105.781569"/>
     <use style="stroke:#000000;" x="157.793429" xlink:href="#m2b0ce1e6fa" y="113.608916"/>
     <use style="stroke:#000000;" x="161.676514" xlink:href="#m2b0ce1e6fa" y="108.018131"/>
     <use style="stroke:#000000;" x="161.676514" xlink:href="#m2b0ce1e6fa" y="118.08142"/>
     <use style="stroke:#000000;" x="164.396338" xlink:href="#m2b0ce1e6fa" y="111.372354"/>
     <use style="stroke:#000000;" x="164.783587" xlink:href="#m2b0ce1e6fa" y="118.08142"/>
     <use style="stroke:#000000;" x="168.668185" xlink:href="#m2b0ce1e6fa" y="112.490635"/>
     <use style="stroke:#000000;" x="169.055435" xlink:href="#m2b0ce1e6fa" y="122.553923"/>
     <use style="stroke:#000000;" x="172.162508" xlink:href="#m2b0ce1e6fa" y="119.199701"/>
     <use style="stroke:#000000;" x="173.328795" xlink:href="#m2b0ce1e6fa" y="123.672204"/>
     <use style="stroke:#000000;" x="176.823118" xlink:href="#m2b0ce1e6fa" y="121.436263"/>
     <use style="stroke:#000000;" x="176.823118" xlink:href="#m2b0ce1e6fa" y="129.262989"/>
     <use style="stroke:#000000;" x="179.930191" xlink:href="#m2b0ce1e6fa" y="127.027047"/>
     <use style="stroke:#000000;" x="182.261253" xlink:href="#m2b0ce1e6fa" y="131.499551"/>
     <use style="stroke:#000000;" x="186.5331" xlink:href="#m2b0ce1e6fa" y="130.38127"/>
     <use style="stroke:#000000;" x="187.309112" xlink:href="#m2b0ce1e6fa" y="135.972055"/>
     <use style="stroke:#000000;" x="189.640174" xlink:href="#m2b0ce1e6fa" y="130.38127"/>
     <use style="stroke:#000000;" x="190.027423" xlink:href="#m2b0ce1e6fa" y="139.326898"/>
     <use style="stroke:#000000;" x="194.300783" xlink:href="#m2b0ce1e6fa" y="135.972055"/>
     <use style="stroke:#000000;" x="195.465558" xlink:href="#m2b0ce1e6fa" y="142.68112"/>
     <use style="stroke:#000000;" x="198.572631" xlink:href="#m2b0ce1e6fa" y="139.326898"/>
     <use style="stroke:#000000;" x="200.513417" xlink:href="#m2b0ce1e6fa" y="146.035343"/>
     <use style="stroke:#000000;" x="202.455716" xlink:href="#m2b0ce1e6fa" y="141.562839"/>
     <use style="stroke:#000000;" x="205.56279" xlink:href="#m2b0ce1e6fa" y="151.626128"/>
     <use style="stroke:#000000;" x="208.669863" xlink:href="#m2b0ce1e6fa" y="146.035343"/>
     <use style="stroke:#000000;" x="209.445875" xlink:href="#m2b0ce1e6fa" y="151.626128"/>
     <use style="stroke:#000000;" x="212.165698" xlink:href="#m2b0ce1e6fa" y="147.153624"/>
     <use style="stroke:#000000;" x="214.106485" xlink:href="#m2b0ce1e6fa" y="154.980971"/>
     <use style="stroke:#000000;" x="216.437546" xlink:href="#m2b0ce1e6fa" y="151.626128"/>
     <use style="stroke:#000000;" x="219.155857" xlink:href="#m2b0ce1e6fa" y="157.216912"/>
     <use style="stroke:#000000;" x="220.709394" xlink:href="#m2b0ce1e6fa" y="150.508467"/>
     <use style="stroke:#000000;" x="221.485406" xlink:href="#m2b0ce1e6fa" y="161.690036"/>
     <use style="stroke:#000000;" x="226.534778" xlink:href="#m2b0ce1e6fa" y="159.453474"/>
     <use style="stroke:#000000;" x="229.253089" xlink:href="#m2b0ce1e6fa" y="167.280821"/>
     <use style="stroke:#000000;" x="231.195388" xlink:href="#m2b0ce1e6fa" y="160.571755"/>
     <use style="stroke:#000000;" x="231.9714" xlink:href="#m2b0ce1e6fa" y="166.16254"/>
     <use style="stroke:#000000;" x="234.302461" xlink:href="#m2b0ce1e6fa" y="162.807697"/>
     <use style="stroke:#000000;" x="236.63201" xlink:href="#m2b0ce1e6fa" y="170.635044"/>
     <use style="stroke:#000000;" x="240.127845" xlink:href="#m2b0ce1e6fa" y="165.044259"/>
     <use style="stroke:#000000;" x="244.01093" xlink:href="#m2b0ce1e6fa" y="178.46239"/>
     <use style="stroke:#000000;" x="245.953229" xlink:href="#m2b0ce1e6fa" y="168.398481"/>
     <use style="stroke:#000000;" x="247.506766" xlink:href="#m2b0ce1e6fa" y="179.580051"/>
     <use style="stroke:#000000;" x="252.167376" xlink:href="#m2b0ce1e6fa" y="173.989266"/>
     <use style="stroke:#000000;" x="254.496925" xlink:href="#m2b0ce1e6fa" y="186.289116"/>
     <use style="stroke:#000000;" x="258.768772" xlink:href="#m2b0ce1e6fa" y="181.816613"/>
     <use style="stroke:#000000;" x="259.546297" xlink:href="#m2b0ce1e6fa" y="189.64396"/>
     <use style="stroke:#000000;" x="262.264608" xlink:href="#m2b0ce1e6fa" y="185.170835"/>
     <use style="stroke:#000000;" x="263.818144" xlink:href="#m2b0ce1e6fa" y="192.998182"/>
     <use style="stroke:#000000;" x="266.925218" xlink:href="#m2b0ce1e6fa" y="187.407397"/>
     <use style="stroke:#000000;" x="268.478754" xlink:href="#m2b0ce1e6fa" y="194.116463"/>
     <use style="stroke:#000000;" x="270.808303" xlink:href="#m2b0ce1e6fa" y="191.879901"/>
     <use style="stroke:#000000;" x="271.973077" xlink:href="#m2b0ce1e6fa" y="197.470686"/>
     <use style="stroke:#000000;" x="276.633687" xlink:href="#m2b0ce1e6fa" y="195.234744"/>
     <use style="stroke:#000000;" x="277.02245" xlink:href="#m2b0ce1e6fa" y="200.825529"/>
     <use style="stroke:#000000;" x="281.294297" xlink:href="#m2b0ce1e6fa" y="198.588967"/>
     <use style="stroke:#000000;" x="282.847834" xlink:href="#m2b0ce1e6fa" y="205.298032"/>
     <use style="stroke:#000000;" x="285.178895" xlink:href="#m2b0ce1e6fa" y="199.707248"/>
     <use style="stroke:#000000;" x="286.732432" xlink:href="#m2b0ce1e6fa" y="208.652255"/>
     <use style="stroke:#000000;" x="288.673218" xlink:href="#m2b0ce1e6fa" y="204.179751"/>
     <use style="stroke:#000000;" x="290.226755" xlink:href="#m2b0ce1e6fa" y="210.888817"/>
     <use style="stroke:#000000;" x="294.498602" xlink:href="#m2b0ce1e6fa" y="205.298032"/>
     <use style="stroke:#000000;" x="296.052139" xlink:href="#m2b0ce1e6fa" y="210.888817"/>
     <use style="stroke:#000000;" x="298.77045" xlink:href="#m2b0ce1e6fa" y="205.298032"/>
     <use style="stroke:#000000;" x="300.323986" xlink:href="#m2b0ce1e6fa" y="216.479602"/>
     <use style="stroke:#000000;" x="303.04381" xlink:href="#m2b0ce1e6fa" y="210.888817"/>
     <use style="stroke:#000000;" x="303.43106" xlink:href="#m2b0ce1e6fa" y="215.361321"/>
     <use style="stroke:#000000;" x="305.762121" xlink:href="#m2b0ce1e6fa" y="218.715543"/>
     <use style="stroke:#000000;" x="306.149371" xlink:href="#m2b0ce1e6fa" y="214.24304"/>
     <use style="stroke:#000000;" x="306.538133" xlink:href="#m2b0ce1e6fa" y="212.007098"/>
    </g>
   </g>
   <g id="line2d_18">
    <path clip-path="url(#p41656c1365)" d="M 65.361932 107.232877 
L 65.487105 107.164319 
L 65.67745 106.716283 
L 66.078968 105.064082 
L 67.523611 97.63233 
L 69.301168 89.15358 
L 70.799327 82.932382 
L 72.402059 77.23365 
L 73.875938 72.842343 
L 75.306867 69.312559 
L 76.737795 66.448326 
L 78.168724 64.185345 
L 79.24192 62.842361 
L 80.315117 61.77182 
L 81.388313 60.946624 
L 82.46151 60.341069 
L 83.534706 59.931127 
L 84.965635 59.650748 
L 86.396563 59.631569 
L 88.012485 59.872263 
L 89.64066 60.346694 
L 91.645442 61.186697 
L 94.403438 62.692008 
L 97.092259 64.438741 
L 100.453286 66.879669 
L 105.158722 70.583963 
L 113.225186 77.273577 
L 133.863676 94.478511 
L 146.089122 104.319814 
L 157.857473 113.487439 
L 169.81343 122.488386 
L 182.061765 131.382635 
L 194.3101 139.948319 
L 206.558435 148.188769 
L 218.80677 156.108189 
L 230.75401 163.52837 
L 242.10724 170.305707 
L 253.083695 176.609056 
L 264.731056 183.035349 
L 276.14731 189.07782 
L 287.724163 194.952471 
L 299.301015 200.579143 
L 310.877868 205.964706 
L 322.45472 211.11621 
L 336.138246 216.913167 
L 348.418964 221.855858 
L 360.699682 226.561726 
L 369.725568 229.874489 
L 369.725568 229.874489 
" style="fill:none;stroke:#0000ff;stroke-linecap:square;stroke-width:1.5;"/>
   </g>
   <g id="line2d_19">
    <path clip-path="url(#p41656c1365)" d="M 65.361932 127.282904 
L 65.505604 127.225859 
L 65.715775 126.844262 
L 66.087041 125.595469 
L 66.780474 122.309214 
L 71.069947 100.643315 
L 72.871588 92.962576 
L 74.767062 85.832327 
L 76.727148 79.430442 
L 78.516384 74.392511 
L 80.305621 70.065771 
L 82.094857 66.391514 
L 83.526245 63.882157 
L 85.145357 61.46401 
L 86.764469 59.452027 
L 88.383581 57.806558 
L 90.002692 56.490338 
L 91.621804 55.468715 
L 93.240916 54.709754 
L 94.860027 54.184248 
L 96.479139 53.865657 
L 98.098251 53.730002 
L 99.818429 53.762227 
L 102.398695 54.10239 
L 104.978962 54.734117 
L 107.559229 55.601915 
L 110.999584 57.048467 
L 114.43994 58.74834 
L 118.740384 61.130966 
L 123.900918 64.247697 
L 130.781629 68.665528 
L 142.826544 76.712209 
L 167.350699 93.126881 
L 182.686545 103.084727 
L 196.731645 111.93455 
L 210.776745 120.514596 
L 223.064349 127.796998 
L 235.351953 134.869965 
L 247.639557 141.734099 
L 261.244313 149.091866 
L 274.705496 156.123684 
L 288.399627 163.026598 
L 301.633323 169.460459 
L 315.323861 175.87507 
L 329.752224 182.374399 
L 343.896657 188.491017 
L 358.490998 194.543624 
L 368.029694 198.360643 
L 368.029694 198.360643 
" style="fill:none;stroke:#ff0000;stroke-linecap:square;stroke-width:1.5;"/>
   </g>
   <g id="line2d_20">
    <path clip-path="url(#p41656c1365)" d="M 65.75024 72.593159 
L 66.527009 69.434343 
L 67.692086 64.11749 
L 68.468854 60.67097 
L 70.410699 52.758648 
L 71.964084 47.355089 
L 73.129312 43.91765 
L 73.517621 42.886882 
L 75.459466 38.551778 
L 75.847775 37.852987 
L 78.17808 34.630465 
L 79.343156 33.600956 
L 81.285002 32.545126 
L 83.226847 32.201761 
L 85.168692 32.397682 
L 86.333769 32.708945 
L 87.887154 33.329847 
L 89.440691 34.135788 
L 90.217459 34.602684 
L 92.936073 36.472281 
L 93.324381 36.76809 
L 96.431303 39.302367 
L 97.98484 40.654592 
L 100.314993 42.783357 
L 101.091762 43.514969 
L 103.421915 45.747029 
L 103.810375 46.123066 
L 106.917297 49.177478 
L 106.917297 49.177478 
L 109.247451 51.495594 
L 111.189296 53.435472 
L 112.742833 54.990268 
L 113.90791 56.155294 
L 116.626523 58.867285 
L 118.179908 60.410436 
L 120.898522 63.095321 
L 122.063599 64.238915 
L 124.782212 66.888189 
L 125.558981 67.64018 
L 127.112366 69.1355 
L 129.44252 71.360774 
L 130.607294 72.463595 
L 131.773581 73.561843 
L 132.938355 74.652583 
L 133.325605 75.013752 
L 137.210203 78.600693 
L 137.210203 78.600693 
L 140.706038 81.764506 
L 140.706038 81.764506 
L 143.811599 84.527292 
L 144.589124 85.21168 
L 149.638496 89.580055 
L 150.025746 89.910688 
L 154.297593 93.50684 
L 154.297593 93.50684 
L 157.017417 95.747498 
L 157.793429 96.380956 
L 161.676514 99.506572 
L 161.676514 99.506572 
L 164.396338 101.655034 
L 164.783587 101.959095 
L 168.668185 104.960704 
L 169.055435 105.256534 
L 172.162508 107.60228 
L 173.328795 108.471032 
L 176.823118 111.046534 
L 176.823118 111.046534 
L 179.930191 113.294771 
L 182.261253 114.957285 
L 186.5331 117.943159 
L 187.309112 118.477728 
L 189.640174 120.070165 
L 190.027423 120.332082 
L 194.300783 123.197401 
L 195.465558 123.965539 
L 198.572631 125.997576 
L 200.513417 127.250437 
L 202.455716 128.49221 
L 205.56279 130.452271 
L 208.669863 132.384653 
L 209.445875 132.862425 
L 212.165698 134.52283 
L 214.106485 135.695061 
L 216.437546 137.089711 
L 219.155857 138.69583 
L 220.709394 139.605339 
L 221.485406 140.058113 
L 226.534778 142.96351 
L 229.253089 144.500731 
L 231.195388 145.589029 
L 231.9714 146.021032 
L 234.302461 147.31173 
L 236.63201 148.587534 
L 240.127845 150.481883 
L 244.01093 152.555985 
L 245.953229 153.58114 
L 247.506766 154.396659 
L 252.167376 156.812823 
L 254.496925 158.004581 
L 258.768772 160.164097 
L 259.546297 160.553684 
L 262.264608 161.90678 
L 263.818144 162.674315 
L 266.925218 164.197507 
L 268.478754 164.953838 
L 270.808303 166.074729 
L 271.973077 166.636463 
L 276.633687 168.850083 
L 277.02245 169.032253 
L 281.294297 171.029027 
L 282.847834 171.748448 
L 285.178895 172.81929 
L 286.732432 173.528995 
L 288.673218 174.41025 
L 290.226755 175.111106 
L 294.498602 177.023726 
L 296.052139 177.713333 
L 298.77045 178.909988 
L 300.323986 179.587343 
L 303.04381 180.769448 
L 303.43106 180.935935 
L 305.762121 181.934666 
L 306.149371 182.100997 
L 306.538133 182.268097 
" style="fill:none;stroke:#0000ff;stroke-dasharray:5.55,2.4;stroke-dashoffset:0;stroke-width:1.5;"/>
   </g>
   <g id="line2d_21">
    <path clip-path="url(#p41656c1365)" d="M 65.75024 135.543307 
L 66.527009 131.575655 
L 67.692086 125.131549 
L 68.468854 121.12833 
L 70.410699 112.283766 
L 71.964084 106.316503 
L 73.129312 102.41837 
L 73.517621 101.22195 
L 75.459466 96.019083 
L 75.847775 95.110692 
L 78.17808 90.563191 
L 79.343156 88.811743 
L 81.285002 86.586071 
L 83.226847 85.087981 
L 85.168692 84.214656 
L 86.333769 83.949015 
L 87.887154 83.836815 
L 89.440691 83.959977 
L 90.217459 84.089118 
L 92.936073 84.890739 
L 93.324381 85.032979 
L 96.431303 86.437193 
L 97.98484 87.275247 
L 100.314993 88.625957 
L 101.091762 89.095782 
L 103.421915 90.564531 
L 103.810375 90.815636 
L 106.917297 92.872661 
L 106.917297 92.872661 
L 109.247451 94.458111 
L 111.189296 95.799355 
L 112.742833 96.880988 
L 113.90791 97.696754 
L 116.626523 99.611723 
L 118.179908 100.711269 
L 120.898522 102.642525 
L 122.063599 103.472165 
L 124.782212 105.412335 
L 125.558981 105.967151 
L 127.112366 107.078501 
L 129.44252 108.746613 
L 130.607294 109.581823 
L 131.773581 110.418551 
L 132.938355 111.254239 
L 133.325605 111.531937 
L 137.210203 114.320447 
L 137.210203 114.320447 
L 140.706038 116.834811 
L 140.706038 116.834811 
L 143.811599 119.068831 
L 144.589124 119.628207 
L 149.638496 123.266869 
L 150.025746 123.546112 
L 154.297593 126.621739 
L 154.297593 126.621739 
L 157.017417 128.58312 
L 157.793429 129.143211 
L 161.676514 131.940451 
L 161.676514 131.940451 
L 164.396338 133.897589 
L 164.783587 134.17689 
L 168.668185 136.969219 
L 169.055435 137.247754 
L 172.162508 139.48264 
L 173.328795 140.318018 
L 176.823118 142.81989 
L 176.823118 142.81989 
L 179.930191 145.036757 
L 182.261253 146.694966 
L 186.5331 149.725906 
L 187.309112 150.275547 
L 189.640174 151.922759 
L 190.027423 152.195161 
L 194.300783 155.197608 
L 195.465558 156.010395 
L 198.572631 158.174383 
L 200.513417 159.518942 
L 202.455716 160.860429 
L 205.56279 162.995979 
L 208.669863 165.117486 
L 209.445875 165.644661 
L 212.165698 167.485489 
L 214.106485 168.793412 
L 216.437546 170.354222 
L 219.155857 172.162143 
L 220.709394 173.189183 
L 221.485406 173.701209 
L 226.534778 177.002222 
L 229.253089 178.759884 
L 231.195388 180.00624 
L 231.9714 180.502479 
L 234.302461 181.984529 
L 236.63201 183.456213 
L 240.127845 185.641814 
L 244.01093 188.038478 
L 245.953229 189.226362 
L 247.506766 190.169555 
L 252.167376 192.968837 
L 254.496925 194.349841 
L 258.768772 196.851148 
L 259.546297 197.302135 
L 262.264608 198.867807 
L 263.818144 199.755139 
L 266.925218 201.513868 
L 268.478754 202.384648 
L 270.808303 203.678009 
L 271.973077 204.323367 
L 276.633687 206.866976 
L 277.02245 207.076083 
L 281.294297 209.359637 
L 282.847834 210.180722 
L 285.178895 211.402071 
L 286.732432 212.210045 
L 288.673218 213.211162 
L 290.226755 214.0057 
L 294.498602 216.16378 
L 296.052139 216.938929 
L 298.77045 218.281814 
L 300.323986 219.041377 
L 303.04381 220.36196 
L 303.43106 220.548034 
L 305.762121 221.661919 
L 306.149371 221.846582 
L 306.538133 222.031855 
" style="fill:none;stroke:#0000ff;stroke-dasharray:5.55,2.4;stroke-dashoffset:0;stroke-width:1.5;"/>
   </g>
   <g id="line2d_22"/>
   <g id="line2d_23"/>
   <g id="line2d_24"/>
   <g id="line2d_25"/>
   <g id="patch_3">
    <path d="M 50.14375 239.758125 
L 50.14375 22.318125 
" style="fill:none;stroke:#000000;stroke-linecap:square;stroke-linejoin:miter;stroke-width:0.8;"/>
   </g>
   <g id="patch_4">
    <path d="M 384.94375 239.758125 
L 384.94375 22.318125 
" style="fill:none;stroke:#000000;stroke-linecap:square;stroke-linejoin:miter;stroke-width:0.8;"/>
   </g>
   <g id="patch_5">
    <path d="M 50.14375 239.758125 
L 384.94375 239.758125 
" style="fill:none;stroke:#000000;stroke-linecap:square;stroke-linejoin:miter;stroke-width:0.8;"/>
   </g>
   <g id="patch_6">
    <path d="M 50.14375 22.318125 
L 384.94375 22.318125 
" style="fill:none;stroke:#000000;stroke-linecap:square;stroke-linejoin:miter;stroke-width:0.8;"/>
   </g>
   <g id="text_19">
    <!-- Experiment_7 -->
    <g transform="translate(176.058438 16.318125)scale(0.12 -0.12)">
     <defs>
      <path d="M 9.8125 72.90625 
L 55.90625 72.90625 
L 55.90625 64.59375 
L 19.671875 64.59375 
L 19.671875 43.015625 
L 54.390625 43.015625 
L 54.390625 34.71875 
L 19.671875 34.71875 
L 19.671875 8.296875 
L 56.78125 8.296875 
L 56.78125 0 
L 9.8125 0 
z
" id="DejaVuSans-69"/>
      <path d="M 54.890625 54.6875 
L 35.109375 28.078125 
L 55.90625 0 
L 45.3125 0 
L 29.390625 21.484375 
L 13.484375 0 
L 2.875 0 
L 24.125 28.609375 
L 4.6875 54.6875 
L 15.28125 54.6875 
L 29.78125 35.203125 
L 44.28125 54.6875 
z
" id="DejaVuSans-120"/>
      <path d="M 18.109375 8.203125 
L 18.109375 -20.796875 
L 9.078125 -20.796875 
L 9.078125 54.6875 
L 18.109375 54.6875 
L 18.109375 46.390625 
Q 20.953125 51.265625 25.265625 53.625 
Q 29.59375 56 35.59375 56 
Q 45.5625 56 51.78125 48.09375 
Q 58.015625 40.1875 58.015625 27.296875 
Q 58.015625 14.40625 51.78125 6.484375 
Q 45.5625 -1.421875 35.59375 -1.421875 
Q 29.59375 -1.421875 25.265625 0.953125 
Q 20.953125 3.328125 18.109375 8.203125 
z
M 48.6875 27.296875 
Q 48.6875 37.203125 44.609375 42.84375 
Q 40.53125 48.484375 33.40625 48.484375 
Q 26.265625 48.484375 22.1875 42.84375 
Q 18.109375 37.203125 18.109375 27.296875 
Q 18.109375 17.390625 22.1875 11.75 
Q 26.265625 6.109375 33.40625 6.109375 
Q 40.53125 6.109375 44.609375 11.75 
Q 48.6875 17.390625 48.6875 27.296875 
z
" id="DejaVuSans-112"/>
      <path d="M 18.3125 70.21875 
L 18.3125 54.6875 
L 36.8125 54.6875 
L 36.8125 47.703125 
L 18.3125 47.703125 
L 18.3125 18.015625 
Q 18.3125 11.328125 20.140625 9.421875 
Q 21.96875 7.515625 27.59375 7.515625 
L 36.8125 7.515625 
L 36.8125 0 
L 27.59375 0 
Q 17.1875 0 13.234375 3.875 
Q 9.28125 7.765625 9.28125 18.015625 
L 9.28125 47.703125 
L 2.6875 47.703125 
L 2.6875 54.6875 
L 9.28125 54.6875 
L 9.28125 70.21875 
z
" id="DejaVuSans-116"/>
      <path d="M 50.984375 -16.609375 
L 50.984375 -23.578125 
L -0.984375 -23.578125 
L -0.984375 -16.609375 
z
" id="DejaVuSans-95"/>
     </defs>
     <use xlink:href="#DejaVuSans-69"/>
     <use x="63.183594" xlink:href="#DejaVuSans-120"/>
     <use x="122.363281" xlink:href="#DejaVuSans-112"/>
     <use x="185.839844" xlink:href="#DejaVuSans-101"/>
     <use x="247.363281" xlink:href="#DejaVuSans-114"/>
     <use x="288.476562" xlink:href="#DejaVuSans-105"/>
     <use x="316.259766" xlink:href="#DejaVuSans-109"/>
     <use x="413.671875" xlink:href="#DejaVuSans-101"/>
     <use x="475.195312" xlink:href="#DejaVuSans-110"/>
     <use x="538.574219" xlink:href="#DejaVuSans-116"/>
     <use x="577.783203" xlink:href="#DejaVuSans-95"/>
     <use x="627.783203" xlink:href="#DejaVuSans-55"/>
    </g>
   </g>
   <g id="legend_1">
    <g id="patch_7">
     <path d="M 109.098437 89.0525 
L 377.94375 89.0525 
Q 379.94375 89.0525 379.94375 87.0525 
L 379.94375 29.318125 
Q 379.94375 27.318125 377.94375 27.318125 
L 109.098437 27.318125 
Q 107.098437 27.318125 107.098437 29.318125 
L 107.098437 87.0525 
Q 107.098437 89.0525 109.098437 89.0525 
z
" style="fill:#ffffff;opacity:0.8;stroke:#cccccc;stroke-linejoin:miter;"/>
    </g>
    <g id="line2d_26"/>
    <g id="line2d_27">
     <g>
      <use style="stroke:#000000;" x="121.098437" xlink:href="#m2b0ce1e6fa" y="35.416562"/>
     </g>
    </g>
    <g id="text_20">
     <!-- Experimental Data -->
     <g transform="translate(139.098437 38.916562)scale(0.1 -0.1)">
      <defs>
       <path d="M 9.421875 75.984375 
L 18.40625 75.984375 
L 18.40625 0 
L 9.421875 0 
z
" id="DejaVuSans-108"/>
       <path d="M 19.671875 64.796875 
L 19.671875 8.109375 
L 31.59375 8.109375 
Q 46.6875 8.109375 53.6875 14.9375 
Q 60.6875 21.78125 60.6875 36.53125 
Q 60.6875 51.171875 53.6875 57.984375 
Q 46.6875 64.796875 31.59375 64.796875 
z
M 9.8125 72.90625 
L 30.078125 72.90625 
Q 51.265625 72.90625 61.171875 64.09375 
Q 71.09375 55.28125 71.09375 36.53125 
Q 71.09375 17.671875 61.125 8.828125 
Q 51.171875 0 30.078125 0 
L 9.8125 0 
z
" id="DejaVuSans-68"/>
      </defs>
      <use xlink:href="#DejaVuSans-69"/>
      <use x="63.183594" xlink:href="#DejaVuSans-120"/>
      <use x="122.363281" xlink:href="#DejaVuSans-112"/>
      <use x="185.839844" xlink:href="#DejaVuSans-101"/>
      <use x="247.363281" xlink:href="#DejaVuSans-114"/>
      <use x="288.476562" xlink:href="#DejaVuSans-105"/>
      <use x="316.259766" xlink:href="#DejaVuSans-109"/>
      <use x="413.671875" xlink:href="#DejaVuSans-101"/>
      <use x="475.195312" xlink:href="#DejaVuSans-110"/>
      <use x="538.574219" xlink:href="#DejaVuSans-116"/>
      <use x="577.783203" xlink:href="#DejaVuSans-97"/>
      <use x="639.0625" xlink:href="#DejaVuSans-108"/>
      <use x="666.845703" xlink:href="#DejaVuSans-32"/>
      <use x="698.632812" xlink:href="#DejaVuSans-68"/>
      <use x="775.634766" xlink:href="#DejaVuSans-97"/>
      <use x="836.914062" xlink:href="#DejaVuSans-116"/>
      <use x="876.123047" xlink:href="#DejaVuSans-97"/>
     </g>
    </g>
    <g id="line2d_28">
     <path d="M 111.098437 50.094687 
L 131.098437 50.094687 
" style="fill:none;stroke:#0000ff;stroke-linecap:square;stroke-width:1.5;"/>
    </g>
    <g id="line2d_29"/>
    <g id="text_21">
     <!-- MSI -->
     <g transform="translate(139.098437 53.594687)scale(0.1 -0.1)">
      <defs>
       <path d="M 9.8125 72.90625 
L 24.515625 72.90625 
L 43.109375 23.296875 
L 61.8125 72.90625 
L 76.515625 72.90625 
L 76.515625 0 
L 66.890625 0 
L 66.890625 64.015625 
L 48.09375 14.015625 
L 38.1875 14.015625 
L 19.390625 64.015625 
L 19.390625 0 
L 9.8125 0 
z
" id="DejaVuSans-77"/>
       <path d="M 53.515625 70.515625 
L 53.515625 60.890625 
Q 47.90625 63.578125 42.921875 64.890625 
Q 37.9375 66.21875 33.296875 66.21875 
Q 25.25 66.21875 20.875 63.09375 
Q 16.5 59.96875 16.5 54.203125 
Q 16.5 49.359375 19.40625 46.890625 
Q 22.3125 44.4375 30.421875 42.921875 
L 36.375 41.703125 
Q 47.40625 39.59375 52.65625 34.296875 
Q 57.90625 29 57.90625 20.125 
Q 57.90625 9.515625 50.796875 4.046875 
Q 43.703125 -1.421875 29.984375 -1.421875 
Q 24.8125 -1.421875 18.96875 -0.25 
Q 13.140625 0.921875 6.890625 3.21875 
L 6.890625 13.375 
Q 12.890625 10.015625 18.65625 8.296875 
Q 24.421875 6.59375 29.984375 6.59375 
Q 38.421875 6.59375 43.015625 9.90625 
Q 47.609375 13.234375 47.609375 19.390625 
Q 47.609375 24.75 44.3125 27.78125 
Q 41.015625 30.8125 33.5 32.328125 
L 27.484375 33.5 
Q 16.453125 35.6875 11.515625 40.375 
Q 6.59375 45.0625 6.59375 53.421875 
Q 6.59375 63.09375 13.40625 68.65625 
Q 20.21875 74.21875 32.171875 74.21875 
Q 37.3125 74.21875 42.625 73.28125 
Q 47.953125 72.359375 53.515625 70.515625 
z
" id="DejaVuSans-83"/>
       <path d="M 9.8125 72.90625 
L 19.671875 72.90625 
L 19.671875 0 
L 9.8125 0 
z
" id="DejaVuSans-73"/>
      </defs>
      <use xlink:href="#DejaVuSans-77"/>
      <use x="86.279297" xlink:href="#DejaVuSans-83"/>
      <use x="149.755859" xlink:href="#DejaVuSans-73"/>
     </g>
    </g>
    <g id="line2d_30">
     <path d="M 111.098437 64.774375 
L 131.098437 64.774375 
" style="fill:none;stroke:#ff0000;stroke-linecap:square;stroke-width:1.5;"/>
    </g>
    <g id="line2d_31"/>
    <g id="text_22">
     <!-- $\it{A priori}$ model -->
     <g transform="translate(139.098437 68.274375)scale(0.1 -0.1)">
      <defs>
       <path d="M 36.8125 72.90625 
L 48 72.90625 
L 61.53125 0 
L 51.21875 0 
L 48.1875 18.703125 
L 15.375 18.703125 
L 5.078125 0 
L -5.328125 0 
z
M 40.375 63.1875 
L 19.921875 26.90625 
L 46.6875 26.90625 
z
" id="DejaVuSans-Oblique-65"/>
       <path d="M 49.609375 33.6875 
Q 49.609375 40.875 46.484375 44.671875 
Q 43.359375 48.484375 37.5 48.484375 
Q 33.5 48.484375 29.859375 46.4375 
Q 26.21875 44.390625 23.390625 40.484375 
Q 20.609375 36.625 18.9375 31.15625 
Q 17.28125 25.6875 17.28125 20.3125 
Q 17.28125 13.484375 20.40625 9.796875 
Q 23.53125 6.109375 29.296875 6.109375 
Q 33.546875 6.109375 37.1875 8.109375 
Q 40.828125 10.109375 43.40625 13.921875 
Q 46.1875 17.921875 47.890625 23.34375 
Q 49.609375 28.765625 49.609375 33.6875 
z
M 21.78125 46.390625 
Q 25.390625 51.125 30.296875 53.5625 
Q 35.203125 56 41.21875 56 
Q 49.609375 56 54.25 50.5 
Q 58.890625 45.015625 58.890625 35.109375 
Q 58.890625 27 56 19.65625 
Q 53.125 12.3125 47.703125 6.5 
Q 44.09375 2.640625 39.546875 0.609375 
Q 35.015625 -1.421875 29.984375 -1.421875 
Q 24.171875 -1.421875 20.21875 1 
Q 16.265625 3.421875 14.3125 8.203125 
L 8.6875 -20.796875 
L -0.296875 -20.796875 
L 14.40625 54.6875 
L 23.390625 54.6875 
z
" id="DejaVuSans-Oblique-112"/>
       <path d="M 44.578125 46.390625 
Q 43.21875 47.125 41.453125 47.515625 
Q 39.703125 47.90625 37.703125 47.90625 
Q 30.515625 47.90625 25.140625 42.453125 
Q 19.78125 37.015625 18.015625 27.875 
L 12.5 0 
L 3.515625 0 
L 14.203125 54.6875 
L 23.1875 54.6875 
L 21.484375 46.1875 
Q 25.046875 50.921875 30 53.453125 
Q 34.96875 56 40.578125 56 
Q 42.046875 56 43.453125 55.828125 
Q 44.875 55.671875 46.296875 55.28125 
z
" id="DejaVuSans-Oblique-114"/>
       <path d="M 18.3125 75.984375 
L 27.296875 75.984375 
L 25.09375 64.59375 
L 16.109375 64.59375 
z
M 14.203125 54.6875 
L 23.1875 54.6875 
L 12.5 0 
L 3.515625 0 
z
" id="DejaVuSans-Oblique-105"/>
       <path d="M 25.390625 -1.421875 
Q 15.765625 -1.421875 10.171875 4.515625 
Q 4.59375 10.453125 4.59375 20.703125 
Q 4.59375 26.65625 6.515625 32.828125 
Q 8.453125 39.015625 11.53125 43.21875 
Q 16.359375 49.75 22.3125 52.875 
Q 28.265625 56 35.796875 56 
Q 45.125 56 50.859375 50.1875 
Q 56.59375 44.390625 56.59375 35.015625 
Q 56.59375 28.515625 54.6875 22.0625 
Q 52.78125 15.625 49.703125 11.375 
Q 44.921875 4.828125 38.96875 1.703125 
Q 33.015625 -1.421875 25.390625 -1.421875 
z
M 13.921875 21 
Q 13.921875 13.578125 17.015625 9.890625 
Q 20.125 6.203125 26.421875 6.203125 
Q 35.453125 6.203125 41.375 14.078125 
Q 47.3125 21.96875 47.3125 34.078125 
Q 47.3125 41.15625 44.140625 44.765625 
Q 40.96875 48.390625 34.8125 48.390625 
Q 29.734375 48.390625 25.78125 46.015625 
Q 21.828125 43.65625 18.703125 38.8125 
Q 16.40625 35.203125 15.15625 30.5625 
Q 13.921875 25.921875 13.921875 21 
z
" id="DejaVuSans-Oblique-111"/>
       <path d="M 45.40625 46.390625 
L 45.40625 75.984375 
L 54.390625 75.984375 
L 54.390625 0 
L 45.40625 0 
L 45.40625 8.203125 
Q 42.578125 3.328125 38.25 0.953125 
Q 33.9375 -1.421875 27.875 -1.421875 
Q 17.96875 -1.421875 11.734375 6.484375 
Q 5.515625 14.40625 5.515625 27.296875 
Q 5.515625 40.1875 11.734375 48.09375 
Q 17.96875 56 27.875 56 
Q 33.9375 56 38.25 53.625 
Q 42.578125 51.265625 45.40625 46.390625 
z
M 14.796875 27.296875 
Q 14.796875 17.390625 18.875 11.75 
Q 22.953125 6.109375 30.078125 6.109375 
Q 37.203125 6.109375 41.296875 11.75 
Q 45.40625 17.390625 45.40625 27.296875 
Q 45.40625 37.203125 41.296875 42.84375 
Q 37.203125 48.484375 30.078125 48.484375 
Q 22.953125 48.484375 18.875 42.84375 
Q 14.796875 37.203125 14.796875 27.296875 
z
" id="DejaVuSans-100"/>
      </defs>
      <use transform="translate(0 0.015625)" xlink:href="#DejaVuSans-Oblique-65"/>
      <use transform="translate(68.408203 0.015625)" xlink:href="#DejaVuSans-Oblique-112"/>
      <use transform="translate(131.884766 0.015625)" xlink:href="#DejaVuSans-Oblique-114"/>
      <use transform="translate(172.998047 0.015625)" xlink:href="#DejaVuSans-Oblique-105"/>
      <use transform="translate(200.78125 0.015625)" xlink:href="#DejaVuSans-Oblique-111"/>
      <use transform="translate(261.962891 0.015625)" xlink:href="#DejaVuSans-Oblique-114"/>
      <use transform="translate(303.076172 0.015625)" xlink:href="#DejaVuSans-Oblique-105"/>
      <use transform="translate(330.859375 0.015625)" xlink:href="#DejaVuSans-32"/>
      <use transform="translate(362.646484 0.015625)" xlink:href="#DejaVuSans-109"/>
      <use transform="translate(460.058594 0.015625)" xlink:href="#DejaVuSans-111"/>
      <use transform="translate(521.240234 0.015625)" xlink:href="#DejaVuSans-100"/>
      <use transform="translate(584.716797 0.015625)" xlink:href="#DejaVuSans-101"/>
      <use transform="translate(646.240234 0.015625)" xlink:href="#DejaVuSans-108"/>
     </g>
    </g>
    <g id="line2d_32">
     <path d="M 111.098437 79.472812 
L 131.098437 79.472812 
" style="fill:none;stroke:#ffffff;stroke-linecap:square;stroke-width:1.5;"/>
    </g>
    <g id="line2d_33"/>
    <g id="text_23">
     <!-- T:1015 -->
     <g transform="translate(139.098437 82.972812)scale(0.1 -0.1)">
      <defs>
       <path d="M 11.71875 12.40625 
L 22.015625 12.40625 
L 22.015625 0 
L 11.71875 0 
z
M 11.71875 51.703125 
L 22.015625 51.703125 
L 22.015625 39.3125 
L 11.71875 39.3125 
z
" id="DejaVuSans-58"/>
      </defs>
      <use xlink:href="#DejaVuSans-84"/>
      <use x="50.083984" xlink:href="#DejaVuSans-58"/>
      <use x="83.775391" xlink:href="#DejaVuSans-49"/>
      <use x="147.398438" xlink:href="#DejaVuSans-48"/>
      <use x="211.021484" xlink:href="#DejaVuSans-49"/>
      <use x="274.644531" xlink:href="#DejaVuSans-53"/>
     </g>
    </g>
    <g id="line2d_34">
     <path d="M 252.839063 35.416562 
L 272.839063 35.416562 
" style="fill:none;stroke:#ffffff;stroke-linecap:square;stroke-width:1.5;"/>
    </g>
    <g id="line2d_35"/>
    <g id="text_24">
     <!-- P:3.298 -->
     <g transform="translate(280.839063 38.916562)scale(0.1 -0.1)">
      <defs>
       <path d="M 19.671875 64.796875 
L 19.671875 37.40625 
L 32.078125 37.40625 
Q 38.96875 37.40625 42.71875 40.96875 
Q 46.484375 44.53125 46.484375 51.125 
Q 46.484375 57.671875 42.71875 61.234375 
Q 38.96875 64.796875 32.078125 64.796875 
z
M 9.8125 72.90625 
L 32.078125 72.90625 
Q 44.34375 72.90625 50.609375 67.359375 
Q 56.890625 61.8125 56.890625 51.125 
Q 56.890625 40.328125 50.609375 34.8125 
Q 44.34375 29.296875 32.078125 29.296875 
L 19.671875 29.296875 
L 19.671875 0 
L 9.8125 0 
z
" id="DejaVuSans-80"/>
       <path d="M 10.984375 1.515625 
L 10.984375 10.5 
Q 14.703125 8.734375 18.5 7.8125 
Q 22.3125 6.890625 25.984375 6.890625 
Q 35.75 6.890625 40.890625 13.453125 
Q 46.046875 20.015625 46.78125 33.40625 
Q 43.953125 29.203125 39.59375 26.953125 
Q 35.25 24.703125 29.984375 24.703125 
Q 19.046875 24.703125 12.671875 31.3125 
Q 6.296875 37.9375 6.296875 49.421875 
Q 6.296875 60.640625 12.9375 67.421875 
Q 19.578125 74.21875 30.609375 74.21875 
Q 43.265625 74.21875 49.921875 64.515625 
Q 56.59375 54.828125 56.59375 36.375 
Q 56.59375 19.140625 48.40625 8.859375 
Q 40.234375 -1.421875 26.421875 -1.421875 
Q 22.703125 -1.421875 18.890625 -0.6875 
Q 15.09375 0.046875 10.984375 1.515625 
z
M 30.609375 32.421875 
Q 37.25 32.421875 41.125 36.953125 
Q 45.015625 41.5 45.015625 49.421875 
Q 45.015625 57.28125 41.125 61.84375 
Q 37.25 66.40625 30.609375 66.40625 
Q 23.96875 66.40625 20.09375 61.84375 
Q 16.21875 57.28125 16.21875 49.421875 
Q 16.21875 41.5 20.09375 36.953125 
Q 23.96875 32.421875 30.609375 32.421875 
z
" id="DejaVuSans-57"/>
       <path d="M 31.78125 34.625 
Q 24.75 34.625 20.71875 30.859375 
Q 16.703125 27.09375 16.703125 20.515625 
Q 16.703125 13.921875 20.71875 10.15625 
Q 24.75 6.390625 31.78125 6.390625 
Q 38.8125 6.390625 42.859375 10.171875 
Q 46.921875 13.96875 46.921875 20.515625 
Q 46.921875 27.09375 42.890625 30.859375 
Q 38.875 34.625 31.78125 34.625 
z
M 21.921875 38.8125 
Q 15.578125 40.375 12.03125 44.71875 
Q 8.5 49.078125 8.5 55.328125 
Q 8.5 64.0625 14.71875 69.140625 
Q 20.953125 74.21875 31.78125 74.21875 
Q 42.671875 74.21875 48.875 69.140625 
Q 55.078125 64.0625 55.078125 55.328125 
Q 55.078125 49.078125 51.53125 44.71875 
Q 48 40.375 41.703125 38.8125 
Q 48.828125 37.15625 52.796875 32.3125 
Q 56.78125 27.484375 56.78125 20.515625 
Q 56.78125 9.90625 50.3125 4.234375 
Q 43.84375 -1.421875 31.78125 -1.421875 
Q 19.734375 -1.421875 13.25 4.234375 
Q 6.78125 9.90625 6.78125 20.515625 
Q 6.78125 27.484375 10.78125 32.3125 
Q 14.796875 37.15625 21.921875 38.8125 
z
M 18.3125 54.390625 
Q 18.3125 48.734375 21.84375 45.5625 
Q 25.390625 42.390625 31.78125 42.390625 
Q 38.140625 42.390625 41.71875 45.5625 
Q 45.3125 48.734375 45.3125 54.390625 
Q 45.3125 60.0625 41.71875 63.234375 
Q 38.140625 66.40625 31.78125 66.40625 
Q 25.390625 66.40625 21.84375 63.234375 
Q 18.3125 60.0625 18.3125 54.390625 
z
" id="DejaVuSans-56"/>
      </defs>
      <use xlink:href="#DejaVuSans-80"/>
      <use x="60.302734" xlink:href="#DejaVuSans-58"/>
      <use x="93.994141" xlink:href="#DejaVuSans-51"/>
      <use x="157.617188" xlink:href="#DejaVuSans-46"/>
      <use x="189.404297" xlink:href="#DejaVuSans-50"/>
      <use x="253.027344" xlink:href="#DejaVuSans-57"/>
      <use x="316.650391" xlink:href="#DejaVuSans-56"/>
     </g>
    </g>
    <g id="line2d_36">
     <path d="M 252.839063 50.094687 
L 272.839063 50.094687 
" style="fill:none;stroke:#ffffff;stroke-linecap:square;stroke-width:1.5;"/>
    </g>
    <g id="line2d_37"/>
    <g id="text_25">
     <!-- H2O2: 0.00325758 -->
     <g transform="translate(280.839063 53.594687)scale(0.1 -0.1)">
      <defs>
       <path d="M 9.8125 72.90625 
L 19.671875 72.90625 
L 19.671875 43.015625 
L 55.515625 43.015625 
L 55.515625 72.90625 
L 65.375 72.90625 
L 65.375 0 
L 55.515625 0 
L 55.515625 34.71875 
L 19.671875 34.71875 
L 19.671875 0 
L 9.8125 0 
z
" id="DejaVuSans-72"/>
       <path d="M 39.40625 66.21875 
Q 28.65625 66.21875 22.328125 58.203125 
Q 16.015625 50.203125 16.015625 36.375 
Q 16.015625 22.609375 22.328125 14.59375 
Q 28.65625 6.59375 39.40625 6.59375 
Q 50.140625 6.59375 56.421875 14.59375 
Q 62.703125 22.609375 62.703125 36.375 
Q 62.703125 50.203125 56.421875 58.203125 
Q 50.140625 66.21875 39.40625 66.21875 
z
M 39.40625 74.21875 
Q 54.734375 74.21875 63.90625 63.9375 
Q 73.09375 53.65625 73.09375 36.375 
Q 73.09375 19.140625 63.90625 8.859375 
Q 54.734375 -1.421875 39.40625 -1.421875 
Q 24.03125 -1.421875 14.8125 8.828125 
Q 5.609375 19.09375 5.609375 36.375 
Q 5.609375 53.65625 14.8125 63.9375 
Q 24.03125 74.21875 39.40625 74.21875 
z
" id="DejaVuSans-79"/>
      </defs>
      <use xlink:href="#DejaVuSans-72"/>
      <use x="75.195312" xlink:href="#DejaVuSans-50"/>
      <use x="138.818359" xlink:href="#DejaVuSans-79"/>
      <use x="217.529297" xlink:href="#DejaVuSans-50"/>
      <use x="281.152344" xlink:href="#DejaVuSans-58"/>
      <use x="314.84375" xlink:href="#DejaVuSans-32"/>
      <use x="346.630859" xlink:href="#DejaVuSans-48"/>
      <use x="410.253906" xlink:href="#DejaVuSans-46"/>
      <use x="442.041016" xlink:href="#DejaVuSans-48"/>
      <use x="505.664062" xlink:href="#DejaVuSans-48"/>
      <use x="569.287109" xlink:href="#DejaVuSans-51"/>
      <use x="632.910156" xlink:href="#DejaVuSans-50"/>
      <use x="696.533203" xlink:href="#DejaVuSans-53"/>
      <use x="760.15625" xlink:href="#DejaVuSans-55"/>
      <use x="823.779297" xlink:href="#DejaVuSans-53"/>
      <use x="887.402344" xlink:href="#DejaVuSans-56"/>
     </g>
    </g>
    <g id="line2d_38">
     <path d="M 252.839063 64.772812 
L 272.839063 64.772812 
" style="fill:none;stroke:#ffffff;stroke-linecap:square;stroke-width:1.5;"/>
    </g>
    <g id="line2d_39"/>
    <g id="text_26">
     <!-- Ar: 0.99674242 -->
     <g transform="translate(280.839063 68.272812)scale(0.1 -0.1)">
      <defs>
       <path d="M 33.015625 40.375 
Q 26.375 40.375 22.484375 35.828125 
Q 18.609375 31.296875 18.609375 23.390625 
Q 18.609375 15.53125 22.484375 10.953125 
Q 26.375 6.390625 33.015625 6.390625 
Q 39.65625 6.390625 43.53125 10.953125 
Q 47.40625 15.53125 47.40625 23.390625 
Q 47.40625 31.296875 43.53125 35.828125 
Q 39.65625 40.375 33.015625 40.375 
z
M 52.59375 71.296875 
L 52.59375 62.3125 
Q 48.875 64.0625 45.09375 64.984375 
Q 41.3125 65.921875 37.59375 65.921875 
Q 27.828125 65.921875 22.671875 59.328125 
Q 17.53125 52.734375 16.796875 39.40625 
Q 19.671875 43.65625 24.015625 45.921875 
Q 28.375 48.1875 33.59375 48.1875 
Q 44.578125 48.1875 50.953125 41.515625 
Q 57.328125 34.859375 57.328125 23.390625 
Q 57.328125 12.15625 50.6875 5.359375 
Q 44.046875 -1.421875 33.015625 -1.421875 
Q 20.359375 -1.421875 13.671875 8.265625 
Q 6.984375 17.96875 6.984375 36.375 
Q 6.984375 53.65625 15.1875 63.9375 
Q 23.390625 74.21875 37.203125 74.21875 
Q 40.921875 74.21875 44.703125 73.484375 
Q 48.484375 72.75 52.59375 71.296875 
z
" id="DejaVuSans-54"/>
      </defs>
      <use xlink:href="#DejaVuSans-65"/>
      <use x="68.408203" xlink:href="#DejaVuSans-114"/>
      <use x="107.771484" xlink:href="#DejaVuSans-58"/>
      <use x="141.462891" xlink:href="#DejaVuSans-32"/>
      <use x="173.25" xlink:href="#DejaVuSans-48"/>
      <use x="236.873047" xlink:href="#DejaVuSans-46"/>
      <use x="268.660156" xlink:href="#DejaVuSans-57"/>
      <use x="332.283203" xlink:href="#DejaVuSans-57"/>
      <use x="395.90625" xlink:href="#DejaVuSans-54"/>
      <use x="459.529297" xlink:href="#DejaVuSans-55"/>
      <use x="523.152344" xlink:href="#DejaVuSans-52"/>
      <use x="586.775391" xlink:href="#DejaVuSans-50"/>
      <use x="650.398438" xlink:href="#DejaVuSans-52"/>
      <use x="714.021484" xlink:href="#DejaVuSans-50"/>
     </g>
    </g>
   </g>
  </g>
 </g>
 <defs>
  <clipPath id="p41656c1365">
   <rect height="217.44" width="334.8" x="50.14375" y="22.318125"/>
  </clipPath>
 </defs>
</svg>
