<?xml version="1.0" encoding="utf-8" standalone="no"?>
<!DOCTYPE svg PUBLIC "-//W3C//DTD SVG 1.1//EN"
  "http://www.w3.org/Graphics/SVG/1.1/DTD/svg11.dtd">
<!-- Created with matplotlib (https://matplotlib.org/) -->
<svg height="325.986375pt" version="1.1" viewBox="0 0 404.923125 325.986375" width="404.923125pt" xmlns="http://www.w3.org/2000/svg" xmlns:xlink="http://www.w3.org/1999/xlink">
 <metadata>
  <rdf:RDF xmlns:cc="http://creativecommons.org/ns#" xmlns:dc="http://purl.org/dc/elements/1.1/" xmlns:rdf="http://www.w3.org/1999/02/22-rdf-syntax-ns#">
   <cc:Work>
    <dc:type rdf:resource="http://purl.org/dc/dcmitype/StillImage"/>
    <dc:date>2022-12-10T02:50:46.589176</dc:date>
    <dc:format>image/svg+xml</dc:format>
    <dc:creator>
     <cc:Agent>
      <dc:title>Matplotlib v3.3.1, https://matplotlib.org/</dc:title>
     </cc:Agent>
    </dc:creator>
   </cc:Work>
  </rdf:RDF>
 </metadata>
 <defs>
  <style type="text/css">*{stroke-linecap:butt;stroke-linejoin:round;}</style>
 </defs>
 <g id="figure_1">
  <g id="patch_1">
   <path d="M 0 325.986375 
L 404.923125 325.986375 
L 404.923125 0 
L 0 0 
z
" style="fill:none;"/>
  </g>
  <g id="axes_1">
   <g id="patch_2">
    <path d="M 40.603125 288.430125 
L 397.723125 288.430125 
L 397.723125 22.318125 
L 40.603125 22.318125 
z
" style="fill:none;"/>
   </g>
   <g id="matplotlib.axis_1">
    <g id="xtick_1">
     <g id="line2d_1">
      <defs>
       <path d="M 0 0 
L 0 3.5 
" id="mf82b391869" style="stroke:#000000;stroke-width:0.8;"/>
      </defs>
      <g>
       <use style="stroke:#000000;stroke-width:0.8;" x="56.835852" xlink:href="#mf82b391869" y="288.430125"/>
      </g>
     </g>
     <g id="text_1">
      <!-- 0 -->
      <g transform="translate(53.654602 303.028562)scale(0.1 -0.1)">
       <defs>
        <path d="M 31.78125 66.40625 
Q 24.171875 66.40625 20.328125 58.90625 
Q 16.5 51.421875 16.5 36.375 
Q 16.5 21.390625 20.328125 13.890625 
Q 24.171875 6.390625 31.78125 6.390625 
Q 39.453125 6.390625 43.28125 13.890625 
Q 47.125 21.390625 47.125 36.375 
Q 47.125 51.421875 43.28125 58.90625 
Q 39.453125 66.40625 31.78125 66.40625 
z
M 31.78125 74.21875 
Q 44.046875 74.21875 50.515625 64.515625 
Q 56.984375 54.828125 56.984375 36.375 
Q 56.984375 17.96875 50.515625 8.265625 
Q 44.046875 -1.421875 31.78125 -1.421875 
Q 19.53125 -1.421875 13.0625 8.265625 
Q 6.59375 17.96875 6.59375 36.375 
Q 6.59375 54.828125 13.0625 64.515625 
Q 19.53125 74.21875 31.78125 74.21875 
z
" id="DejaVuSans-48"/>
       </defs>
       <use xlink:href="#DejaVuSans-48"/>
      </g>
     </g>
    </g>
    <g id="xtick_2">
     <g id="line2d_2">
      <g>
       <use style="stroke:#000000;stroke-width:0.8;" x="121.290469" xlink:href="#mf82b391869" y="288.430125"/>
      </g>
     </g>
     <g id="text_2">
      <!-- 1 -->
      <g transform="translate(118.109219 303.028562)scale(0.1 -0.1)">
       <defs>
        <path d="M 12.40625 8.296875 
L 28.515625 8.296875 
L 28.515625 63.921875 
L 10.984375 60.40625 
L 10.984375 69.390625 
L 28.421875 72.90625 
L 38.28125 72.90625 
L 38.28125 8.296875 
L 54.390625 8.296875 
L 54.390625 0 
L 12.40625 0 
z
" id="DejaVuSans-49"/>
       </defs>
       <use xlink:href="#DejaVuSans-49"/>
      </g>
     </g>
    </g>
    <g id="xtick_3">
     <g id="line2d_3">
      <g>
       <use style="stroke:#000000;stroke-width:0.8;" x="185.745085" xlink:href="#mf82b391869" y="288.430125"/>
      </g>
     </g>
     <g id="text_3">
      <!-- 2 -->
      <g transform="translate(182.563835 303.028562)scale(0.1 -0.1)">
       <defs>
        <path d="M 19.1875 8.296875 
L 53.609375 8.296875 
L 53.609375 0 
L 7.328125 0 
L 7.328125 8.296875 
Q 12.9375 14.109375 22.625 23.890625 
Q 32.328125 33.6875 34.8125 36.53125 
Q 39.546875 41.84375 41.421875 45.53125 
Q 43.3125 49.21875 43.3125 52.78125 
Q 43.3125 58.59375 39.234375 62.25 
Q 35.15625 65.921875 28.609375 65.921875 
Q 23.96875 65.921875 18.8125 64.3125 
Q 13.671875 62.703125 7.8125 59.421875 
L 7.8125 69.390625 
Q 13.765625 71.78125 18.9375 73 
Q 24.125 74.21875 28.421875 74.21875 
Q 39.75 74.21875 46.484375 68.546875 
Q 53.21875 62.890625 53.21875 53.421875 
Q 53.21875 48.921875 51.53125 44.890625 
Q 49.859375 40.875 45.40625 35.40625 
Q 44.1875 33.984375 37.640625 27.21875 
Q 31.109375 20.453125 19.1875 8.296875 
z
" id="DejaVuSans-50"/>
       </defs>
       <use xlink:href="#DejaVuSans-50"/>
      </g>
     </g>
    </g>
    <g id="xtick_4">
     <g id="line2d_4">
      <g>
       <use style="stroke:#000000;stroke-width:0.8;" x="250.199702" xlink:href="#mf82b391869" y="288.430125"/>
      </g>
     </g>
     <g id="text_4">
      <!-- 3 -->
      <g transform="translate(247.018452 303.028562)scale(0.1 -0.1)">
       <defs>
        <path d="M 40.578125 39.3125 
Q 47.65625 37.796875 51.625 33 
Q 55.609375 28.21875 55.609375 21.1875 
Q 55.609375 10.40625 48.1875 4.484375 
Q 40.765625 -1.421875 27.09375 -1.421875 
Q 22.515625 -1.421875 17.65625 -0.515625 
Q 12.796875 0.390625 7.625 2.203125 
L 7.625 11.71875 
Q 11.71875 9.328125 16.59375 8.109375 
Q 21.484375 6.890625 26.8125 6.890625 
Q 36.078125 6.890625 40.9375 10.546875 
Q 45.796875 14.203125 45.796875 21.1875 
Q 45.796875 27.640625 41.28125 31.265625 
Q 36.765625 34.90625 28.71875 34.90625 
L 20.21875 34.90625 
L 20.21875 43.015625 
L 29.109375 43.015625 
Q 36.375 43.015625 40.234375 45.921875 
Q 44.09375 48.828125 44.09375 54.296875 
Q 44.09375 59.90625 40.109375 62.90625 
Q 36.140625 65.921875 28.71875 65.921875 
Q 24.65625 65.921875 20.015625 65.03125 
Q 15.375 64.15625 9.8125 62.3125 
L 9.8125 71.09375 
Q 15.4375 72.65625 20.34375 73.4375 
Q 25.25 74.21875 29.59375 74.21875 
Q 40.828125 74.21875 47.359375 69.109375 
Q 53.90625 64.015625 53.90625 55.328125 
Q 53.90625 49.265625 50.4375 45.09375 
Q 46.96875 40.921875 40.578125 39.3125 
z
" id="DejaVuSans-51"/>
       </defs>
       <use xlink:href="#DejaVuSans-51"/>
      </g>
     </g>
    </g>
    <g id="xtick_5">
     <g id="line2d_5">
      <g>
       <use style="stroke:#000000;stroke-width:0.8;" x="314.654318" xlink:href="#mf82b391869" y="288.430125"/>
      </g>
     </g>
     <g id="text_5">
      <!-- 4 -->
      <g transform="translate(311.473068 303.028562)scale(0.1 -0.1)">
       <defs>
        <path d="M 37.796875 64.3125 
L 12.890625 25.390625 
L 37.796875 25.390625 
z
M 35.203125 72.90625 
L 47.609375 72.90625 
L 47.609375 25.390625 
L 58.015625 25.390625 
L 58.015625 17.1875 
L 47.609375 17.1875 
L 47.609375 0 
L 37.796875 0 
L 37.796875 17.1875 
L 4.890625 17.1875 
L 4.890625 26.703125 
z
" id="DejaVuSans-52"/>
       </defs>
       <use xlink:href="#DejaVuSans-52"/>
      </g>
     </g>
    </g>
    <g id="xtick_6">
     <g id="line2d_6">
      <g>
       <use style="stroke:#000000;stroke-width:0.8;" x="379.108934" xlink:href="#mf82b391869" y="288.430125"/>
      </g>
     </g>
     <g id="text_6">
      <!-- 5 -->
      <g transform="translate(375.927684 303.028562)scale(0.1 -0.1)">
       <defs>
        <path d="M 10.796875 72.90625 
L 49.515625 72.90625 
L 49.515625 64.59375 
L 19.828125 64.59375 
L 19.828125 46.734375 
Q 21.96875 47.46875 24.109375 47.828125 
Q 26.265625 48.1875 28.421875 48.1875 
Q 40.625 48.1875 47.75 41.5 
Q 54.890625 34.8125 54.890625 23.390625 
Q 54.890625 11.625 47.5625 5.09375 
Q 40.234375 -1.421875 26.90625 -1.421875 
Q 22.3125 -1.421875 17.546875 -0.640625 
Q 12.796875 0.140625 7.71875 1.703125 
L 7.71875 11.625 
Q 12.109375 9.234375 16.796875 8.0625 
Q 21.484375 6.890625 26.703125 6.890625 
Q 35.15625 6.890625 40.078125 11.328125 
Q 45.015625 15.765625 45.015625 23.390625 
Q 45.015625 31 40.078125 35.4375 
Q 35.15625 39.890625 26.703125 39.890625 
Q 22.75 39.890625 18.8125 39.015625 
Q 14.890625 38.140625 10.796875 36.28125 
z
" id="DejaVuSans-53"/>
       </defs>
       <use xlink:href="#DejaVuSans-53"/>
      </g>
     </g>
    </g>
    <g id="text_7">
     <!-- Time (ms) -->
     <g transform="translate(193.963906 316.706687)scale(0.1 -0.1)">
      <defs>
       <path d="M -0.296875 72.90625 
L 61.375 72.90625 
L 61.375 64.59375 
L 35.5 64.59375 
L 35.5 0 
L 25.59375 0 
L 25.59375 64.59375 
L -0.296875 64.59375 
z
" id="DejaVuSans-84"/>
       <path d="M 9.421875 54.6875 
L 18.40625 54.6875 
L 18.40625 0 
L 9.421875 0 
z
M 9.421875 75.984375 
L 18.40625 75.984375 
L 18.40625 64.59375 
L 9.421875 64.59375 
z
" id="DejaVuSans-105"/>
       <path d="M 52 44.1875 
Q 55.375 50.25 60.0625 53.125 
Q 64.75 56 71.09375 56 
Q 79.640625 56 84.28125 50.015625 
Q 88.921875 44.046875 88.921875 33.015625 
L 88.921875 0 
L 79.890625 0 
L 79.890625 32.71875 
Q 79.890625 40.578125 77.09375 44.375 
Q 74.3125 48.1875 68.609375 48.1875 
Q 61.625 48.1875 57.5625 43.546875 
Q 53.515625 38.921875 53.515625 30.90625 
L 53.515625 0 
L 44.484375 0 
L 44.484375 32.71875 
Q 44.484375 40.625 41.703125 44.40625 
Q 38.921875 48.1875 33.109375 48.1875 
Q 26.21875 48.1875 22.15625 43.53125 
Q 18.109375 38.875 18.109375 30.90625 
L 18.109375 0 
L 9.078125 0 
L 9.078125 54.6875 
L 18.109375 54.6875 
L 18.109375 46.1875 
Q 21.1875 51.21875 25.484375 53.609375 
Q 29.78125 56 35.6875 56 
Q 41.65625 56 45.828125 52.96875 
Q 50 49.953125 52 44.1875 
z
" id="DejaVuSans-109"/>
       <path d="M 56.203125 29.59375 
L 56.203125 25.203125 
L 14.890625 25.203125 
Q 15.484375 15.921875 20.484375 11.0625 
Q 25.484375 6.203125 34.421875 6.203125 
Q 39.59375 6.203125 44.453125 7.46875 
Q 49.3125 8.734375 54.109375 11.28125 
L 54.109375 2.78125 
Q 49.265625 0.734375 44.1875 -0.34375 
Q 39.109375 -1.421875 33.890625 -1.421875 
Q 20.796875 -1.421875 13.15625 6.1875 
Q 5.515625 13.8125 5.515625 26.8125 
Q 5.515625 40.234375 12.765625 48.109375 
Q 20.015625 56 32.328125 56 
Q 43.359375 56 49.78125 48.890625 
Q 56.203125 41.796875 56.203125 29.59375 
z
M 47.21875 32.234375 
Q 47.125 39.59375 43.09375 43.984375 
Q 39.0625 48.390625 32.421875 48.390625 
Q 24.90625 48.390625 20.390625 44.140625 
Q 15.875 39.890625 15.1875 32.171875 
z
" id="DejaVuSans-101"/>
       <path id="DejaVuSans-32"/>
       <path d="M 31 75.875 
Q 24.46875 64.65625 21.28125 53.65625 
Q 18.109375 42.671875 18.109375 31.390625 
Q 18.109375 20.125 21.3125 9.0625 
Q 24.515625 -2 31 -13.1875 
L 23.1875 -13.1875 
Q 15.875 -1.703125 12.234375 9.375 
Q 8.59375 20.453125 8.59375 31.390625 
Q 8.59375 42.28125 12.203125 53.3125 
Q 15.828125 64.359375 23.1875 75.875 
z
" id="DejaVuSans-40"/>
       <path d="M 44.28125 53.078125 
L 44.28125 44.578125 
Q 40.484375 46.53125 36.375 47.5 
Q 32.28125 48.484375 27.875 48.484375 
Q 21.1875 48.484375 17.84375 46.4375 
Q 14.5 44.390625 14.5 40.28125 
Q 14.5 37.15625 16.890625 35.375 
Q 19.28125 33.59375 26.515625 31.984375 
L 29.59375 31.296875 
Q 39.15625 29.25 43.1875 25.515625 
Q 47.21875 21.78125 47.21875 15.09375 
Q 47.21875 7.46875 41.1875 3.015625 
Q 35.15625 -1.421875 24.609375 -1.421875 
Q 20.21875 -1.421875 15.453125 -0.5625 
Q 10.6875 0.296875 5.421875 2 
L 5.421875 11.28125 
Q 10.40625 8.6875 15.234375 7.390625 
Q 20.0625 6.109375 24.8125 6.109375 
Q 31.15625 6.109375 34.5625 8.28125 
Q 37.984375 10.453125 37.984375 14.40625 
Q 37.984375 18.0625 35.515625 20.015625 
Q 33.0625 21.96875 24.703125 23.78125 
L 21.578125 24.515625 
Q 13.234375 26.265625 9.515625 29.90625 
Q 5.8125 33.546875 5.8125 39.890625 
Q 5.8125 47.609375 11.28125 51.796875 
Q 16.75 56 26.8125 56 
Q 31.78125 56 36.171875 55.265625 
Q 40.578125 54.546875 44.28125 53.078125 
z
" id="DejaVuSans-115"/>
       <path d="M 8.015625 75.875 
L 15.828125 75.875 
Q 23.140625 64.359375 26.78125 53.3125 
Q 30.421875 42.28125 30.421875 31.390625 
Q 30.421875 20.453125 26.78125 9.375 
Q 23.140625 -1.703125 15.828125 -13.1875 
L 8.015625 -13.1875 
Q 14.5 -2 17.703125 9.0625 
Q 20.90625 20.125 20.90625 31.390625 
Q 20.90625 42.671875 17.703125 53.65625 
Q 14.5 64.65625 8.015625 75.875 
z
" id="DejaVuSans-41"/>
      </defs>
      <use xlink:href="#DejaVuSans-84"/>
      <use x="57.958984" xlink:href="#DejaVuSans-105"/>
      <use x="85.742188" xlink:href="#DejaVuSans-109"/>
      <use x="183.154297" xlink:href="#DejaVuSans-101"/>
      <use x="244.677734" xlink:href="#DejaVuSans-32"/>
      <use x="276.464844" xlink:href="#DejaVuSans-40"/>
      <use x="315.478516" xlink:href="#DejaVuSans-109"/>
      <use x="412.890625" xlink:href="#DejaVuSans-115"/>
      <use x="464.990234" xlink:href="#DejaVuSans-41"/>
     </g>
    </g>
   </g>
   <g id="matplotlib.axis_2">
    <g id="ytick_1">
     <g id="line2d_7">
      <defs>
       <path d="M 0 0 
L -3.5 0 
" id="m49bc538f35" style="stroke:#000000;stroke-width:0.8;"/>
      </defs>
      <g>
       <use style="stroke:#000000;stroke-width:0.8;" x="40.603125" xlink:href="#m49bc538f35" y="276.334125"/>
      </g>
     </g>
     <g id="text_8">
      <!-- 0 -->
      <g transform="translate(27.240625 280.133344)scale(0.1 -0.1)">
       <use xlink:href="#DejaVuSans-48"/>
      </g>
     </g>
    </g>
    <g id="ytick_2">
     <g id="line2d_8">
      <g>
       <use style="stroke:#000000;stroke-width:0.8;" x="40.603125" xlink:href="#m49bc538f35" y="228.851368"/>
      </g>
     </g>
     <g id="text_9">
      <!-- 5 -->
      <g transform="translate(27.240625 232.650587)scale(0.1 -0.1)">
       <use xlink:href="#DejaVuSans-53"/>
      </g>
     </g>
    </g>
    <g id="ytick_3">
     <g id="line2d_9">
      <g>
       <use style="stroke:#000000;stroke-width:0.8;" x="40.603125" xlink:href="#m49bc538f35" y="181.36861"/>
      </g>
     </g>
     <g id="text_10">
      <!-- 10 -->
      <g transform="translate(20.878125 185.167829)scale(0.1 -0.1)">
       <use xlink:href="#DejaVuSans-49"/>
       <use x="63.623047" xlink:href="#DejaVuSans-48"/>
      </g>
     </g>
    </g>
    <g id="ytick_4">
     <g id="line2d_10">
      <g>
       <use style="stroke:#000000;stroke-width:0.8;" x="40.603125" xlink:href="#m49bc538f35" y="133.885853"/>
      </g>
     </g>
     <g id="text_11">
      <!-- 15 -->
      <g transform="translate(20.878125 137.685072)scale(0.1 -0.1)">
       <use xlink:href="#DejaVuSans-49"/>
       <use x="63.623047" xlink:href="#DejaVuSans-53"/>
      </g>
     </g>
    </g>
    <g id="ytick_5">
     <g id="line2d_11">
      <g>
       <use style="stroke:#000000;stroke-width:0.8;" x="40.603125" xlink:href="#m49bc538f35" y="86.403096"/>
      </g>
     </g>
     <g id="text_12">
      <!-- 20 -->
      <g transform="translate(20.878125 90.202315)scale(0.1 -0.1)">
       <use xlink:href="#DejaVuSans-50"/>
       <use x="63.623047" xlink:href="#DejaVuSans-48"/>
      </g>
     </g>
    </g>
    <g id="ytick_6">
     <g id="line2d_12">
      <g>
       <use style="stroke:#000000;stroke-width:0.8;" x="40.603125" xlink:href="#m49bc538f35" y="38.920339"/>
      </g>
     </g>
     <g id="text_13">
      <!-- 25 -->
      <g transform="translate(20.878125 42.719557)scale(0.1 -0.1)">
       <use xlink:href="#DejaVuSans-50"/>
       <use x="63.623047" xlink:href="#DejaVuSans-53"/>
      </g>
     </g>
    </g>
    <g id="text_14">
     <!-- OH ppm -->
     <g transform="translate(14.798438 175.878031)rotate(-90)scale(0.1 -0.1)">
      <defs>
       <path d="M 39.40625 66.21875 
Q 28.65625 66.21875 22.328125 58.203125 
Q 16.015625 50.203125 16.015625 36.375 
Q 16.015625 22.609375 22.328125 14.59375 
Q 28.65625 6.59375 39.40625 6.59375 
Q 50.140625 6.59375 56.421875 14.59375 
Q 62.703125 22.609375 62.703125 36.375 
Q 62.703125 50.203125 56.421875 58.203125 
Q 50.140625 66.21875 39.40625 66.21875 
z
M 39.40625 74.21875 
Q 54.734375 74.21875 63.90625 63.9375 
Q 73.09375 53.65625 73.09375 36.375 
Q 73.09375 19.140625 63.90625 8.859375 
Q 54.734375 -1.421875 39.40625 -1.421875 
Q 24.03125 -1.421875 14.8125 8.828125 
Q 5.609375 19.09375 5.609375 36.375 
Q 5.609375 53.65625 14.8125 63.9375 
Q 24.03125 74.21875 39.40625 74.21875 
z
" id="DejaVuSans-79"/>
       <path d="M 9.8125 72.90625 
L 19.671875 72.90625 
L 19.671875 43.015625 
L 55.515625 43.015625 
L 55.515625 72.90625 
L 65.375 72.90625 
L 65.375 0 
L 55.515625 0 
L 55.515625 34.71875 
L 19.671875 34.71875 
L 19.671875 0 
L 9.8125 0 
z
" id="DejaVuSans-72"/>
       <path d="M 18.109375 8.203125 
L 18.109375 -20.796875 
L 9.078125 -20.796875 
L 9.078125 54.6875 
L 18.109375 54.6875 
L 18.109375 46.390625 
Q 20.953125 51.265625 25.265625 53.625 
Q 29.59375 56 35.59375 56 
Q 45.5625 56 51.78125 48.09375 
Q 58.015625 40.1875 58.015625 27.296875 
Q 58.015625 14.40625 51.78125 6.484375 
Q 45.5625 -1.421875 35.59375 -1.421875 
Q 29.59375 -1.421875 25.265625 0.953125 
Q 20.953125 3.328125 18.109375 8.203125 
z
M 48.6875 27.296875 
Q 48.6875 37.203125 44.609375 42.84375 
Q 40.53125 48.484375 33.40625 48.484375 
Q 26.265625 48.484375 22.1875 42.84375 
Q 18.109375 37.203125 18.109375 27.296875 
Q 18.109375 17.390625 22.1875 11.75 
Q 26.265625 6.109375 33.40625 6.109375 
Q 40.53125 6.109375 44.609375 11.75 
Q 48.6875 17.390625 48.6875 27.296875 
z
" id="DejaVuSans-112"/>
      </defs>
      <use xlink:href="#DejaVuSans-79"/>
      <use x="78.710938" xlink:href="#DejaVuSans-72"/>
      <use x="153.90625" xlink:href="#DejaVuSans-32"/>
      <use x="185.693359" xlink:href="#DejaVuSans-112"/>
      <use x="249.169922" xlink:href="#DejaVuSans-112"/>
      <use x="312.646484" xlink:href="#DejaVuSans-109"/>
     </g>
    </g>
   </g>
   <g id="line2d_13">
    <path clip-path="url(#p0662136fd7)" d="M 56.835852 276.334125 
L 57.194818 229.733882 
L 57.566325 206.371086 
L 57.937832 195.659809 
L 58.281256 191.372782 
L 58.583052 189.879293 
L 58.841734 189.508169 
L 59.057302 189.564516 
L 59.359097 189.952955 
L 60.007606 191.254046 
L 61.243108 193.664319 
L 62.222744 195.087135 
L 63.244986 196.174761 
L 64.345712 197.014764 
L 65.557063 197.663264 
L 67.010683 198.189337 
L 68.830776 198.610597 
L 71.381766 198.963088 
L 75.754893 199.301274 
L 87.568636 199.887959 
L 103.495249 200.777809 
L 119.235611 201.900981 
L 136.147363 203.335847 
L 155.994773 205.235306 
L 184.827674 208.231337 
L 258.142335 215.939501 
L 288.343897 218.853345 
L 317.971539 221.488835 
L 346.213774 223.786191 
L 374.51719 225.884399 
L 381.490398 226.371689 
L 381.490398 226.371689 
" style="fill:none;stroke:#0000ff;stroke-linecap:square;stroke-width:1.5;"/>
   </g>
   <g id="line2d_14">
    <path clip-path="url(#p0662136fd7)" d="M 56.835852 276.334125 
L 57.272711 159.588426 
L 57.703058 94.952606 
L 58.12135 60.84949 
L 58.539641 43.637589 
L 58.874784 37.191016 
L 59.189777 34.762061 
L 59.378772 34.414125 
L 59.504769 34.511199 
L 59.693765 35.028022 
L 60.071756 36.944558 
L 61.016734 43.496049 
L 62.058647 50.052048 
L 62.911121 54.159046 
L 63.816261 57.453259 
L 64.675103 59.818768 
L 65.541483 61.664854 
L 66.624457 63.435533 
L 67.707431 64.793487 
L 69.006999 66.058632 
L 70.523163 67.206695 
L 72.412183 68.334126 
L 74.798346 69.489601 
L 78.86407 71.159764 
L 91.229394 76.097136 
L 97.961817 79.078231 
L 106.093171 82.94775 
L 115.74954 87.812232 
L 132.414031 96.521001 
L 151.161584 106.249652 
L 163.659952 112.475192 
L 174.497947 117.634495 
L 185.335943 122.545597 
L 196.173938 127.200178 
L 207.011933 131.602108 
L 218.716627 136.087727 
L 230.566076 140.37099 
L 243.234066 144.701407 
L 256.350246 148.962711 
L 272.98486 154.123642 
L 294.609859 160.575142 
L 326.237477 169.761525 
L 356.310885 178.299598 
L 378.865941 184.468844 
L 381.372059 185.136004 
L 381.372059 185.136004 
" style="fill:none;stroke:#ff0000;stroke-linecap:square;stroke-width:1.5;"/>
   </g>
   <g id="line2d_15">
    <defs>
     <path d="M 0 3 
C 0.795609 3 1.55874 2.683901 2.12132 2.12132 
C 2.683901 1.55874 3 0.795609 3 0 
C 3 -0.795609 2.683901 -1.55874 2.12132 -2.12132 
C 1.55874 -2.683901 0.795609 -3 0 -3 
C -0.795609 -3 -1.55874 -2.683901 -2.12132 -2.12132 
C -2.683901 -1.55874 -3 -0.795609 -3 0 
C -3 0.795609 -2.683901 1.55874 -2.12132 2.12132 
C -1.55874 2.683901 -0.795609 3 0 3 
z
" id="macf758be2c" style="stroke:#000000;"/>
    </defs>
    <g clip-path="url(#p0662136fd7)">
     <use style="stroke:#000000;" x="57.867126" xlink:href="#macf758be2c" y="189.706583"/>
     <use style="stroke:#000000;" x="58.124945" xlink:href="#macf758be2c" y="190.520437"/>
     <use style="stroke:#000000;" x="58.382763" xlink:href="#macf758be2c" y="190.962027"/>
     <use style="stroke:#000000;" x="58.640582" xlink:href="#macf758be2c" y="191.638181"/>
     <use style="stroke:#000000;" x="58.8984" xlink:href="#macf758be2c" y="193.386496"/>
     <use style="stroke:#000000;" x="59.156218" xlink:href="#macf758be2c" y="195.672316"/>
     <use style="stroke:#000000;" x="59.414037" xlink:href="#macf758be2c" y="189.403643"/>
     <use style="stroke:#000000;" x="59.671855" xlink:href="#macf758be2c" y="190.660986"/>
     <use style="stroke:#000000;" x="59.929674" xlink:href="#macf758be2c" y="189.681892"/>
     <use style="stroke:#000000;" x="60.187492" xlink:href="#macf758be2c" y="191.733147"/>
     <use style="stroke:#000000;" x="60.445311" xlink:href="#macf758be2c" y="192.077872"/>
     <use style="stroke:#000000;" x="60.703129" xlink:href="#macf758be2c" y="193.290581"/>
     <use style="stroke:#000000;" x="60.960948" xlink:href="#macf758be2c" y="193.042721"/>
     <use style="stroke:#000000;" x="61.218766" xlink:href="#macf758be2c" y="195.622934"/>
     <use style="stroke:#000000;" x="61.476585" xlink:href="#macf758be2c" y="196.010394"/>
     <use style="stroke:#000000;" x="61.734403" xlink:href="#macf758be2c" y="193.146234"/>
     <use style="stroke:#000000;" x="61.992222" xlink:href="#macf758be2c" y="193.873669"/>
     <use style="stroke:#000000;" x="62.25004" xlink:href="#macf758be2c" y="194.31241"/>
     <use style="stroke:#000000;" x="62.507859" xlink:href="#macf758be2c" y="195.283907"/>
     <use style="stroke:#000000;" x="62.765677" xlink:href="#macf758be2c" y="195.813815"/>
     <use style="stroke:#000000;" x="63.023495" xlink:href="#macf758be2c" y="195.186093"/>
     <use style="stroke:#000000;" x="63.281314" xlink:href="#macf758be2c" y="190.333355"/>
     <use style="stroke:#000000;" x="63.539132" xlink:href="#macf758be2c" y="188.103565"/>
     <use style="stroke:#000000;" x="63.796951" xlink:href="#macf758be2c" y="195.52512"/>
     <use style="stroke:#000000;" x="64.054769" xlink:href="#macf758be2c" y="191.983856"/>
     <use style="stroke:#000000;" x="64.312588" xlink:href="#macf758be2c" y="194.553623"/>
     <use style="stroke:#000000;" x="64.570406" xlink:href="#macf758be2c" y="194.650487"/>
     <use style="stroke:#000000;" x="64.828225" xlink:href="#macf758be2c" y="196.6818"/>
     <use style="stroke:#000000;" x="65.086043" xlink:href="#macf758be2c" y="195.183244"/>
     <use style="stroke:#000000;" x="65.343862" xlink:href="#macf758be2c" y="194.990464"/>
     <use style="stroke:#000000;" x="65.60168" xlink:href="#macf758be2c" y="195.039846"/>
     <use style="stroke:#000000;" x="65.859499" xlink:href="#macf758be2c" y="197.076856"/>
     <use style="stroke:#000000;" x="66.117317" xlink:href="#macf758be2c" y="194.893599"/>
     <use style="stroke:#000000;" x="66.375136" xlink:href="#macf758be2c" y="194.166163"/>
     <use style="stroke:#000000;" x="66.632954" xlink:href="#macf758be2c" y="195.764433"/>
     <use style="stroke:#000000;" x="66.890772" xlink:href="#macf758be2c" y="195.231676"/>
     <use style="stroke:#000000;" x="67.148591" xlink:href="#macf758be2c" y="194.990464"/>
     <use style="stroke:#000000;" x="67.406409" xlink:href="#macf758be2c" y="195.235475"/>
     <use style="stroke:#000000;" x="67.664228" xlink:href="#macf758be2c" y="194.845167"/>
     <use style="stroke:#000000;" x="67.922046" xlink:href="#macf758be2c" y="196.445336"/>
     <use style="stroke:#000000;" x="68.179865" xlink:href="#macf758be2c" y="194.845167"/>
     <use style="stroke:#000000;" x="68.437683" xlink:href="#macf758be2c" y="194.020866"/>
     <use style="stroke:#000000;" x="68.695502" xlink:href="#macf758be2c" y="197.942942"/>
     <use style="stroke:#000000;" x="68.95332" xlink:href="#macf758be2c" y="193.829036"/>
     <use style="stroke:#000000;" x="69.211139" xlink:href="#macf758be2c" y="194.358943"/>
     <use style="stroke:#000000;" x="69.468957" xlink:href="#macf758be2c" y="191.794874"/>
     <use style="stroke:#000000;" x="69.726776" xlink:href="#macf758be2c" y="195.764433"/>
     <use style="stroke:#000000;" x="69.984594" xlink:href="#macf758be2c" y="193.924951"/>
     <use style="stroke:#000000;" x="70.242412" xlink:href="#macf758be2c" y="196.010394"/>
     <use style="stroke:#000000;" x="70.500231" xlink:href="#macf758be2c" y="195.235475"/>
     <use style="stroke:#000000;" x="70.758049" xlink:href="#macf758be2c" y="197.993273"/>
     <use style="stroke:#000000;" x="71.015868" xlink:href="#macf758be2c" y="197.860322"/>
     <use style="stroke:#000000;" x="71.273686" xlink:href="#macf758be2c" y="196.494718"/>
     <use style="stroke:#000000;" x="71.531505" xlink:href="#macf758be2c" y="195.904982"/>
     <use style="stroke:#000000;" x="71.789323" xlink:href="#macf758be2c" y="194.602055"/>
     <use style="stroke:#000000;" x="72.047142" xlink:href="#macf758be2c" y="197.311421"/>
     <use style="stroke:#000000;" x="72.30496" xlink:href="#macf758be2c" y="195.715051"/>
     <use style="stroke:#000000;" x="72.562779" xlink:href="#macf758be2c" y="196.828996"/>
     <use style="stroke:#000000;" x="72.820597" xlink:href="#macf758be2c" y="195.036997"/>
     <use style="stroke:#000000;" x="73.078416" xlink:href="#macf758be2c" y="201.919148"/>
     <use style="stroke:#000000;" x="73.336234" xlink:href="#macf758be2c" y="199.842252"/>
     <use style="stroke:#000000;" x="73.594053" xlink:href="#macf758be2c" y="200.374059"/>
     <use style="stroke:#000000;" x="73.851871" xlink:href="#macf758be2c" y="198.025562"/>
     <use style="stroke:#000000;" x="74.109689" xlink:href="#macf758be2c" y="199.285754"/>
     <use style="stroke:#000000;" x="74.367508" xlink:href="#macf758be2c" y="197.495654"/>
     <use style="stroke:#000000;" x="74.625326" xlink:href="#macf758be2c" y="198.143319"/>
     <use style="stroke:#000000;" x="74.883145" xlink:href="#macf758be2c" y="198.827071"/>
     <use style="stroke:#000000;" x="75.140963" xlink:href="#macf758be2c" y="197.064511"/>
     <use style="stroke:#000000;" x="75.398782" xlink:href="#macf758be2c" y="196.058826"/>
     <use style="stroke:#000000;" x="75.6566" xlink:href="#macf758be2c" y="199.359827"/>
     <use style="stroke:#000000;" x="75.914419" xlink:href="#macf758be2c" y="197.027474"/>
     <use style="stroke:#000000;" x="76.172237" xlink:href="#macf758be2c" y="199.588694"/>
     <use style="stroke:#000000;" x="76.430056" xlink:href="#macf758be2c" y="200.395901"/>
     <use style="stroke:#000000;" x="76.687874" xlink:href="#macf758be2c" y="199.084427"/>
     <use style="stroke:#000000;" x="76.945693" xlink:href="#macf758be2c" y="200.958097"/>
     <use style="stroke:#000000;" x="77.203511" xlink:href="#macf758be2c" y="203.302795"/>
     <use style="stroke:#000000;" x="77.46133" xlink:href="#macf758be2c" y="201.984674"/>
     <use style="stroke:#000000;" x="77.719148" xlink:href="#macf758be2c" y="199.76533"/>
     <use style="stroke:#000000;" x="77.976966" xlink:href="#macf758be2c" y="202.126173"/>
     <use style="stroke:#000000;" x="78.234785" xlink:href="#macf758be2c" y="200.855534"/>
     <use style="stroke:#000000;" x="78.492603" xlink:href="#macf758be2c" y="198.324703"/>
     <use style="stroke:#000000;" x="78.750422" xlink:href="#macf758be2c" y="197.97618"/>
     <use style="stroke:#000000;" x="79.00824" xlink:href="#macf758be2c" y="198.575412"/>
     <use style="stroke:#000000;" x="79.266059" xlink:href="#macf758be2c" y="199.967607"/>
     <use style="stroke:#000000;" x="79.523877" xlink:href="#macf758be2c" y="198.85556"/>
     <use style="stroke:#000000;" x="79.781696" xlink:href="#macf758be2c" y="199.006556"/>
     <use style="stroke:#000000;" x="80.039514" xlink:href="#macf758be2c" y="200.671301"/>
     <use style="stroke:#000000;" x="80.297333" xlink:href="#macf758be2c" y="195.183244"/>
     <use style="stroke:#000000;" x="80.555151" xlink:href="#macf758be2c" y="200.651358"/>
     <use style="stroke:#000000;" x="80.81297" xlink:href="#macf758be2c" y="201.645647"/>
     <use style="stroke:#000000;" x="81.070788" xlink:href="#macf758be2c" y="201.970429"/>
     <use style="stroke:#000000;" x="81.328607" xlink:href="#macf758be2c" y="199.107219"/>
     <use style="stroke:#000000;" x="81.586425" xlink:href="#macf758be2c" y="201.712123"/>
     <use style="stroke:#000000;" x="81.844243" xlink:href="#macf758be2c" y="199.359827"/>
     <use style="stroke:#000000;" x="82.102062" xlink:href="#macf758be2c" y="199.487081"/>
     <use style="stroke:#000000;" x="82.35988" xlink:href="#macf758be2c" y="200.804253"/>
     <use style="stroke:#000000;" x="82.617699" xlink:href="#macf758be2c" y="199.714049"/>
     <use style="stroke:#000000;" x="82.875517" xlink:href="#macf758be2c" y="199.588694"/>
     <use style="stroke:#000000;" x="83.133336" xlink:href="#macf758be2c" y="198.625744"/>
     <use style="stroke:#000000;" x="83.391154" xlink:href="#macf758be2c" y="198.243033"/>
     <use style="stroke:#000000;" x="83.648973" xlink:href="#macf758be2c" y="198.474749"/>
     <use style="stroke:#000000;" x="83.906791" xlink:href="#macf758be2c" y="197.759658"/>
     <use style="stroke:#000000;" x="84.16461" xlink:href="#macf758be2c" y="199.690307"/>
     <use style="stroke:#000000;" x="84.422428" xlink:href="#macf758be2c" y="199.563053"/>
     <use style="stroke:#000000;" x="84.680247" xlink:href="#macf758be2c" y="200.447182"/>
     <use style="stroke:#000000;" x="84.938065" xlink:href="#macf758be2c" y="201.078703"/>
     <use style="stroke:#000000;" x="85.195884" xlink:href="#macf758be2c" y="198.604851"/>
     <use style="stroke:#000000;" x="85.453702" xlink:href="#macf758be2c" y="201.164172"/>
     <use style="stroke:#000000;" x="85.71152" xlink:href="#macf758be2c" y="196.553596"/>
     <use style="stroke:#000000;" x="85.969339" xlink:href="#macf758be2c" y="199.285754"/>
     <use style="stroke:#000000;" x="86.227157" xlink:href="#macf758be2c" y="197.694132"/>
     <use style="stroke:#000000;" x="86.484976" xlink:href="#macf758be2c" y="200.548795"/>
     <use style="stroke:#000000;" x="86.742794" xlink:href="#macf758be2c" y="198.805229"/>
     <use style="stroke:#000000;" x="87.000613" xlink:href="#macf758be2c" y="199.740639"/>
     <use style="stroke:#000000;" x="87.258431" xlink:href="#macf758be2c" y="201.353153"/>
     <use style="stroke:#000000;" x="87.51625" xlink:href="#macf758be2c" y="201.660842"/>
     <use style="stroke:#000000;" x="87.774068" xlink:href="#macf758be2c" y="200.374059"/>
     <use style="stroke:#000000;" x="88.031887" xlink:href="#macf758be2c" y="198.092987"/>
     <use style="stroke:#000000;" x="88.289705" xlink:href="#macf758be2c" y="199.336086"/>
     <use style="stroke:#000000;" x="88.547524" xlink:href="#macf758be2c" y="202.088186"/>
     <use style="stroke:#000000;" x="88.805342" xlink:href="#macf758be2c" y="200.395901"/>
     <use style="stroke:#000000;" x="89.06316" xlink:href="#macf758be2c" y="200.170833"/>
     <use style="stroke:#000000;" x="89.320979" xlink:href="#macf758be2c" y="199.285754"/>
     <use style="stroke:#000000;" x="89.578797" xlink:href="#macf758be2c" y="202.450005"/>
     <use style="stroke:#000000;" x="89.836616" xlink:href="#macf758be2c" y="198.85556"/>
     <use style="stroke:#000000;" x="90.094434" xlink:href="#macf758be2c" y="200.70264"/>
     <use style="stroke:#000000;" x="90.352253" xlink:href="#macf758be2c" y="200.476622"/>
     <use style="stroke:#000000;" x="90.610071" xlink:href="#macf758be2c" y="196.484271"/>
     <use style="stroke:#000000;" x="90.86789" xlink:href="#macf758be2c" y="198.125276"/>
     <use style="stroke:#000000;" x="91.125708" xlink:href="#macf758be2c" y="200.366462"/>
     <use style="stroke:#000000;" x="91.383527" xlink:href="#macf758be2c" y="203.780472"/>
     <use style="stroke:#000000;" x="91.641345" xlink:href="#macf758be2c" y="201.712123"/>
     <use style="stroke:#000000;" x="91.899164" xlink:href="#macf758be2c" y="203.722543"/>
     <use style="stroke:#000000;" x="92.156982" xlink:href="#macf758be2c" y="201.489904"/>
     <use style="stroke:#000000;" x="92.414801" xlink:href="#macf758be2c" y="202.825119"/>
     <use style="stroke:#000000;" x="92.672619" xlink:href="#macf758be2c" y="200.476622"/>
     <use style="stroke:#000000;" x="92.930437" xlink:href="#macf758be2c" y="200.996083"/>
     <use style="stroke:#000000;" x="93.188256" xlink:href="#macf758be2c" y="201.353153"/>
     <use style="stroke:#000000;" x="93.446074" xlink:href="#macf758be2c" y="202.565863"/>
     <use style="stroke:#000000;" x="93.703893" xlink:href="#macf758be2c" y="200.824195"/>
     <use style="stroke:#000000;" x="93.961711" xlink:href="#macf758be2c" y="201.852672"/>
     <use style="stroke:#000000;" x="94.21953" xlink:href="#macf758be2c" y="201.387341"/>
     <use style="stroke:#000000;" x="94.477348" xlink:href="#macf758be2c" y="199.436749"/>
     <use style="stroke:#000000;" x="94.735167" xlink:href="#macf758be2c" y="198.192701"/>
     <use style="stroke:#000000;" x="94.992985" xlink:href="#macf758be2c" y="202.190749"/>
     <use style="stroke:#000000;" x="95.250804" xlink:href="#macf758be2c" y="201.233497"/>
     <use style="stroke:#000000;" x="95.508622" xlink:href="#macf758be2c" y="200.804253"/>
     <use style="stroke:#000000;" x="95.766441" xlink:href="#macf758be2c" y="198.274371"/>
     <use style="stroke:#000000;" x="96.024259" xlink:href="#macf758be2c" y="201.970429"/>
     <use style="stroke:#000000;" x="96.282078" xlink:href="#macf758be2c" y="201.660842"/>
     <use style="stroke:#000000;" x="96.539896" xlink:href="#macf758be2c" y="202.346493"/>
     <use style="stroke:#000000;" x="96.797714" xlink:href="#macf758be2c" y="202.255326"/>
     <use style="stroke:#000000;" x="97.055533" xlink:href="#macf758be2c" y="202.825119"/>
     <use style="stroke:#000000;" x="97.313351" xlink:href="#macf758be2c" y="204.732976"/>
     <use style="stroke:#000000;" x="97.57117" xlink:href="#macf758be2c" y="201.984674"/>
     <use style="stroke:#000000;" x="97.828988" xlink:href="#macf758be2c" y="201.489904"/>
     <use style="stroke:#000000;" x="98.086807" xlink:href="#macf758be2c" y="202.398724"/>
     <use style="stroke:#000000;" x="98.344625" xlink:href="#macf758be2c" y="203.669362"/>
     <use style="stroke:#000000;" x="98.602444" xlink:href="#macf758be2c" y="197.510849"/>
     <use style="stroke:#000000;" x="98.860262" xlink:href="#macf758be2c" y="201.455716"/>
     <use style="stroke:#000000;" x="99.118081" xlink:href="#macf758be2c" y="202.398724"/>
     <use style="stroke:#000000;" x="99.375899" xlink:href="#macf758be2c" y="199.258214"/>
     <use style="stroke:#000000;" x="99.633718" xlink:href="#macf758be2c" y="201.558279"/>
     <use style="stroke:#000000;" x="99.891536" xlink:href="#macf758be2c" y="202.398724"/>
     <use style="stroke:#000000;" x="100.149355" xlink:href="#macf758be2c" y="204.573434"/>
     <use style="stroke:#000000;" x="100.407173" xlink:href="#macf758be2c" y="202.565863"/>
     <use style="stroke:#000000;" x="100.664991" xlink:href="#macf758be2c" y="202.513632"/>
     <use style="stroke:#000000;" x="100.92281" xlink:href="#macf758be2c" y="205.316064"/>
     <use style="stroke:#000000;" x="101.180628" xlink:href="#macf758be2c" y="203.832703"/>
     <use style="stroke:#000000;" x="101.438447" xlink:href="#macf758be2c" y="201.970429"/>
     <use style="stroke:#000000;" x="101.696265" xlink:href="#macf758be2c" y="202.929581"/>
     <use style="stroke:#000000;" x="101.954084" xlink:href="#macf758be2c" y="202.606698"/>
     <use style="stroke:#000000;" x="102.211902" xlink:href="#macf758be2c" y="205.420526"/>
     <use style="stroke:#000000;" x="102.469721" xlink:href="#macf758be2c" y="203.832703"/>
     <use style="stroke:#000000;" x="102.727539" xlink:href="#macf758be2c" y="205.208753"/>
     <use style="stroke:#000000;" x="102.985358" xlink:href="#macf758be2c" y="202.772888"/>
     <use style="stroke:#000000;" x="103.243176" xlink:href="#macf758be2c" y="203.199283"/>
     <use style="stroke:#000000;" x="103.500995" xlink:href="#macf758be2c" y="204.257199"/>
     <use style="stroke:#000000;" x="103.758813" xlink:href="#macf758be2c" y="205.367346"/>
     <use style="stroke:#000000;" x="104.016632" xlink:href="#macf758be2c" y="200.600077"/>
     <use style="stroke:#000000;" x="104.27445" xlink:href="#macf758be2c" y="205.68643"/>
     <use style="stroke:#000000;" x="104.532268" xlink:href="#macf758be2c" y="205.261934"/>
     <use style="stroke:#000000;" x="104.790087" xlink:href="#macf758be2c" y="205.476556"/>
     <use style="stroke:#000000;" x="105.047905" xlink:href="#macf758be2c" y="201.645647"/>
     <use style="stroke:#000000;" x="105.305724" xlink:href="#macf758be2c" y="204.518354"/>
     <use style="stroke:#000000;" x="105.563542" xlink:href="#macf758be2c" y="205.156522"/>
     <use style="stroke:#000000;" x="105.821361" xlink:href="#macf758be2c" y="205.793741"/>
     <use style="stroke:#000000;" x="106.079179" xlink:href="#macf758be2c" y="206.109976"/>
     <use style="stroke:#000000;" x="106.336998" xlink:href="#macf758be2c" y="209.028266"/>
     <use style="stroke:#000000;" x="106.594816" xlink:href="#macf758be2c" y="203.932417"/>
     <use style="stroke:#000000;" x="106.852635" xlink:href="#macf758be2c" y="205.793741"/>
     <use style="stroke:#000000;" x="107.110453" xlink:href="#macf758be2c" y="208.009286"/>
     <use style="stroke:#000000;" x="107.368272" xlink:href="#macf758be2c" y="205.74056"/>
     <use style="stroke:#000000;" x="107.62609" xlink:href="#macf758be2c" y="206.899139"/>
     <use style="stroke:#000000;" x="107.883908" xlink:href="#macf758be2c" y="203.728241"/>
     <use style="stroke:#000000;" x="108.141727" xlink:href="#macf758be2c" y="206.217287"/>
     <use style="stroke:#000000;" x="108.399545" xlink:href="#macf758be2c" y="207.75098"/>
     <use style="stroke:#000000;" x="108.657364" xlink:href="#macf758be2c" y="206.002665"/>
     <use style="stroke:#000000;" x="108.915182" xlink:href="#macf758be2c" y="203.250564"/>
     <use style="stroke:#000000;" x="109.173001" xlink:href="#macf758be2c" y="207.384413"/>
     <use style="stroke:#000000;" x="109.430819" xlink:href="#macf758be2c" y="205.582917"/>
     <use style="stroke:#000000;" x="109.688638" xlink:href="#macf758be2c" y="207.071027"/>
     <use style="stroke:#000000;" x="109.946456" xlink:href="#macf758be2c" y="203.5649"/>
     <use style="stroke:#000000;" x="110.204275" xlink:href="#macf758be2c" y="206.531623"/>
     <use style="stroke:#000000;" x="110.462093" xlink:href="#macf758be2c" y="204.786157"/>
     <use style="stroke:#000000;" x="110.719912" xlink:href="#macf758be2c" y="205.581018"/>
     <use style="stroke:#000000;" x="110.97773" xlink:href="#macf758be2c" y="204.838388"/>
     <use style="stroke:#000000;" x="111.235549" xlink:href="#macf758be2c" y="203.199283"/>
     <use style="stroke:#000000;" x="111.493367" xlink:href="#macf758be2c" y="204.091959"/>
     <use style="stroke:#000000;" x="111.751185" xlink:href="#macf758be2c" y="204.095757"/>
     <use style="stroke:#000000;" x="112.009004" xlink:href="#macf758be2c" y="207.00645"/>
     <use style="stroke:#000000;" x="112.266822" xlink:href="#macf758be2c" y="201.404435"/>
     <use style="stroke:#000000;" x="112.524641" xlink:href="#macf758be2c" y="208.826939"/>
     <use style="stroke:#000000;" x="112.782459" xlink:href="#macf758be2c" y="207.546804"/>
     <use style="stroke:#000000;" x="113.040278" xlink:href="#macf758be2c" y="204.147988"/>
     <use style="stroke:#000000;" x="113.298096" xlink:href="#macf758be2c" y="202.02266"/>
     <use style="stroke:#000000;" x="113.555915" xlink:href="#macf758be2c" y="204.095757"/>
     <use style="stroke:#000000;" x="113.813733" xlink:href="#macf758be2c" y="207.319837"/>
     <use style="stroke:#000000;" x="114.071552" xlink:href="#macf758be2c" y="204.573434"/>
     <use style="stroke:#000000;" x="114.32937" xlink:href="#macf758be2c" y="204.414842"/>
     <use style="stroke:#000000;" x="114.587189" xlink:href="#macf758be2c" y="205.954233"/>
     <use style="stroke:#000000;" x="114.845007" xlink:href="#macf758be2c" y="205.420526"/>
     <use style="stroke:#000000;" x="115.102826" xlink:href="#macf758be2c" y="206.486039"/>
     <use style="stroke:#000000;" x="115.360644" xlink:href="#macf758be2c" y="205.744359"/>
     <use style="stroke:#000000;" x="115.618462" xlink:href="#macf758be2c" y="205.846922"/>
     <use style="stroke:#000000;" x="115.876281" xlink:href="#macf758be2c" y="208.536345"/>
     <use style="stroke:#000000;" x="116.134099" xlink:href="#macf758be2c" y="208.117547"/>
     <use style="stroke:#000000;" x="116.391918" xlink:href="#macf758be2c" y="205.74056"/>
     <use style="stroke:#000000;" x="116.649736" xlink:href="#macf758be2c" y="208.536345"/>
     <use style="stroke:#000000;" x="116.907555" xlink:href="#macf758be2c" y="207.015947"/>
     <use style="stroke:#000000;" x="117.165373" xlink:href="#macf758be2c" y="207.492674"/>
     <use style="stroke:#000000;" x="117.423192" xlink:href="#macf758be2c" y="208.279938"/>
     <use style="stroke:#000000;" x="117.68101" xlink:href="#macf758be2c" y="205.944736"/>
     <use style="stroke:#000000;" x="117.938829" xlink:href="#macf758be2c" y="205.370195"/>
     <use style="stroke:#000000;" x="118.196647" xlink:href="#macf758be2c" y="205.314165"/>
     <use style="stroke:#000000;" x="118.454466" xlink:href="#macf758be2c" y="207.384413"/>
     <use style="stroke:#000000;" x="118.712284" xlink:href="#macf758be2c" y="207.167892"/>
     <use style="stroke:#000000;" x="118.970103" xlink:href="#macf758be2c" y="210.33879"/>
     <use style="stroke:#000000;" x="119.227921" xlink:href="#macf758be2c" y="207.642719"/>
     <use style="stroke:#000000;" x="119.485739" xlink:href="#macf758be2c" y="206.056795"/>
     <use style="stroke:#000000;" x="119.743558" xlink:href="#macf758be2c" y="210.142212"/>
     <use style="stroke:#000000;" x="120.001376" xlink:href="#macf758be2c" y="208.808896"/>
     <use style="stroke:#000000;" x="120.259195" xlink:href="#macf758be2c" y="206.371131"/>
     <use style="stroke:#000000;" x="120.517013" xlink:href="#macf758be2c" y="210.72625"/>
     <use style="stroke:#000000;" x="120.774832" xlink:href="#macf758be2c" y="208.063417"/>
     <use style="stroke:#000000;" x="121.03265" xlink:href="#macf758be2c" y="206.104278"/>
     <use style="stroke:#000000;" x="121.290469" xlink:href="#macf758be2c" y="208.334068"/>
    </g>
   </g>
   <g id="line2d_16">
    <path clip-path="url(#p0662136fd7)" d="M 57.867126 180.869659 
L 58.124945 176.044527 
L 58.382763 173.659153 
L 58.640582 172.722224 
L 58.8984 172.634754 
L 59.156218 173.027662 
L 59.929674 175.260732 
L 60.960948 178.294382 
L 61.992222 180.613274 
L 63.023495 182.293889 
L 64.054769 183.505527 
L 65.086043 184.382807 
L 66.375136 185.151349 
L 67.922046 185.761975 
L 69.726776 186.219112 
L 72.30496 186.624553 
L 76.687874 187.054427 
L 103.500995 189.37087 
L 117.68101 190.953101 
L 121.290469 191.407889 
L 121.290469 191.407889 
" style="fill:none;stroke:#0000ff;stroke-dasharray:5.55,2.4;stroke-dashoffset:0;stroke-width:1.5;"/>
   </g>
   <g id="line2d_17">
    <path clip-path="url(#p0662136fd7)" d="M 57.867126 210.546827 
L 58.124945 206.881794 
L 58.382763 204.917051 
L 58.640582 203.968876 
L 58.8984 203.620892 
L 59.156218 203.618336 
L 59.671855 204.098692 
L 61.734403 206.627466 
L 62.765677 207.478579 
L 64.054769 208.222811 
L 65.60168 208.806451 
L 67.406409 209.228884 
L 69.984594 209.57628 
L 73.851871 209.844429 
L 81.328607 210.09731 
L 112.266822 211.003202 
L 121.290469 211.382954 
L 121.290469 211.382954 
" style="fill:none;stroke:#0000ff;stroke-dasharray:5.55,2.4;stroke-dashoffset:0;stroke-width:1.5;"/>
   </g>
   <g id="line2d_18"/>
   <g id="line2d_19"/>
   <g id="line2d_20"/>
   <g id="line2d_21"/>
   <g id="line2d_22"/>
   <g id="line2d_23"/>
   <g id="patch_3">
    <path d="M 40.603125 288.430125 
L 40.603125 22.318125 
" style="fill:none;stroke:#000000;stroke-linecap:square;stroke-linejoin:miter;stroke-width:0.8;"/>
   </g>
   <g id="patch_4">
    <path d="M 397.723125 288.430125 
L 397.723125 22.318125 
" style="fill:none;stroke:#000000;stroke-linecap:square;stroke-linejoin:miter;stroke-width:0.8;"/>
   </g>
   <g id="patch_5">
    <path d="M 40.603125 288.430125 
L 397.723125 288.430125 
" style="fill:none;stroke:#000000;stroke-linecap:square;stroke-linejoin:miter;stroke-width:0.8;"/>
   </g>
   <g id="patch_6">
    <path d="M 40.603125 22.318125 
L 397.723125 22.318125 
" style="fill:none;stroke:#000000;stroke-linecap:square;stroke-linejoin:miter;stroke-width:0.8;"/>
   </g>
   <g id="text_15">
    <!-- Experiment_43 -->
    <g transform="translate(173.860313 16.318125)scale(0.12 -0.12)">
     <defs>
      <path d="M 9.8125 72.90625 
L 55.90625 72.90625 
L 55.90625 64.59375 
L 19.671875 64.59375 
L 19.671875 43.015625 
L 54.390625 43.015625 
L 54.390625 34.71875 
L 19.671875 34.71875 
L 19.671875 8.296875 
L 56.78125 8.296875 
L 56.78125 0 
L 9.8125 0 
z
" id="DejaVuSans-69"/>
      <path d="M 54.890625 54.6875 
L 35.109375 28.078125 
L 55.90625 0 
L 45.3125 0 
L 29.390625 21.484375 
L 13.484375 0 
L 2.875 0 
L 24.125 28.609375 
L 4.6875 54.6875 
L 15.28125 54.6875 
L 29.78125 35.203125 
L 44.28125 54.6875 
z
" id="DejaVuSans-120"/>
      <path d="M 41.109375 46.296875 
Q 39.59375 47.171875 37.8125 47.578125 
Q 36.03125 48 33.890625 48 
Q 26.265625 48 22.1875 43.046875 
Q 18.109375 38.09375 18.109375 28.8125 
L 18.109375 0 
L 9.078125 0 
L 9.078125 54.6875 
L 18.109375 54.6875 
L 18.109375 46.1875 
Q 20.953125 51.171875 25.484375 53.578125 
Q 30.03125 56 36.53125 56 
Q 37.453125 56 38.578125 55.875 
Q 39.703125 55.765625 41.0625 55.515625 
z
" id="DejaVuSans-114"/>
      <path d="M 54.890625 33.015625 
L 54.890625 0 
L 45.90625 0 
L 45.90625 32.71875 
Q 45.90625 40.484375 42.875 44.328125 
Q 39.84375 48.1875 33.796875 48.1875 
Q 26.515625 48.1875 22.3125 43.546875 
Q 18.109375 38.921875 18.109375 30.90625 
L 18.109375 0 
L 9.078125 0 
L 9.078125 54.6875 
L 18.109375 54.6875 
L 18.109375 46.1875 
Q 21.34375 51.125 25.703125 53.5625 
Q 30.078125 56 35.796875 56 
Q 45.21875 56 50.046875 50.171875 
Q 54.890625 44.34375 54.890625 33.015625 
z
" id="DejaVuSans-110"/>
      <path d="M 18.3125 70.21875 
L 18.3125 54.6875 
L 36.8125 54.6875 
L 36.8125 47.703125 
L 18.3125 47.703125 
L 18.3125 18.015625 
Q 18.3125 11.328125 20.140625 9.421875 
Q 21.96875 7.515625 27.59375 7.515625 
L 36.8125 7.515625 
L 36.8125 0 
L 27.59375 0 
Q 17.1875 0 13.234375 3.875 
Q 9.28125 7.765625 9.28125 18.015625 
L 9.28125 47.703125 
L 2.6875 47.703125 
L 2.6875 54.6875 
L 9.28125 54.6875 
L 9.28125 70.21875 
z
" id="DejaVuSans-116"/>
      <path d="M 50.984375 -16.609375 
L 50.984375 -23.578125 
L -0.984375 -23.578125 
L -0.984375 -16.609375 
z
" id="DejaVuSans-95"/>
     </defs>
     <use xlink:href="#DejaVuSans-69"/>
     <use x="63.183594" xlink:href="#DejaVuSans-120"/>
     <use x="122.363281" xlink:href="#DejaVuSans-112"/>
     <use x="185.839844" xlink:href="#DejaVuSans-101"/>
     <use x="247.363281" xlink:href="#DejaVuSans-114"/>
     <use x="288.476562" xlink:href="#DejaVuSans-105"/>
     <use x="316.259766" xlink:href="#DejaVuSans-109"/>
     <use x="413.671875" xlink:href="#DejaVuSans-101"/>
     <use x="475.195312" xlink:href="#DejaVuSans-110"/>
     <use x="538.574219" xlink:href="#DejaVuSans-116"/>
     <use x="577.783203" xlink:href="#DejaVuSans-95"/>
     <use x="627.783203" xlink:href="#DejaVuSans-52"/>
     <use x="691.40625" xlink:href="#DejaVuSans-51"/>
    </g>
   </g>
   <g id="legend_1">
    <g id="patch_7">
     <path d="M 134.602812 103.730625 
L 390.723125 103.730625 
Q 392.723125 103.730625 392.723125 101.730625 
L 392.723125 29.318125 
Q 392.723125 27.318125 390.723125 27.318125 
L 134.602812 27.318125 
Q 132.602812 27.318125 132.602812 29.318125 
L 132.602812 101.730625 
Q 132.602812 103.730625 134.602812 103.730625 
z
" style="fill:#ffffff;opacity:0.8;stroke:#cccccc;stroke-linejoin:miter;"/>
    </g>
    <g id="line2d_24">
     <path d="M 136.602812 35.416562 
L 156.602812 35.416562 
" style="fill:none;stroke:#0000ff;stroke-linecap:square;stroke-width:1.5;"/>
    </g>
    <g id="line2d_25"/>
    <g id="text_16">
     <!-- MSI -->
     <g transform="translate(164.602812 38.916562)scale(0.1 -0.1)">
      <defs>
       <path d="M 9.8125 72.90625 
L 24.515625 72.90625 
L 43.109375 23.296875 
L 61.8125 72.90625 
L 76.515625 72.90625 
L 76.515625 0 
L 66.890625 0 
L 66.890625 64.015625 
L 48.09375 14.015625 
L 38.1875 14.015625 
L 19.390625 64.015625 
L 19.390625 0 
L 9.8125 0 
z
" id="DejaVuSans-77"/>
       <path d="M 53.515625 70.515625 
L 53.515625 60.890625 
Q 47.90625 63.578125 42.921875 64.890625 
Q 37.9375 66.21875 33.296875 66.21875 
Q 25.25 66.21875 20.875 63.09375 
Q 16.5 59.96875 16.5 54.203125 
Q 16.5 49.359375 19.40625 46.890625 
Q 22.3125 44.4375 30.421875 42.921875 
L 36.375 41.703125 
Q 47.40625 39.59375 52.65625 34.296875 
Q 57.90625 29 57.90625 20.125 
Q 57.90625 9.515625 50.796875 4.046875 
Q 43.703125 -1.421875 29.984375 -1.421875 
Q 24.8125 -1.421875 18.96875 -0.25 
Q 13.140625 0.921875 6.890625 3.21875 
L 6.890625 13.375 
Q 12.890625 10.015625 18.65625 8.296875 
Q 24.421875 6.59375 29.984375 6.59375 
Q 38.421875 6.59375 43.015625 9.90625 
Q 47.609375 13.234375 47.609375 19.390625 
Q 47.609375 24.75 44.3125 27.78125 
Q 41.015625 30.8125 33.5 32.328125 
L 27.484375 33.5 
Q 16.453125 35.6875 11.515625 40.375 
Q 6.59375 45.0625 6.59375 53.421875 
Q 6.59375 63.09375 13.40625 68.65625 
Q 20.21875 74.21875 32.171875 74.21875 
Q 37.3125 74.21875 42.625 73.28125 
Q 47.953125 72.359375 53.515625 70.515625 
z
" id="DejaVuSans-83"/>
       <path d="M 9.8125 72.90625 
L 19.671875 72.90625 
L 19.671875 0 
L 9.8125 0 
z
" id="DejaVuSans-73"/>
      </defs>
      <use xlink:href="#DejaVuSans-77"/>
      <use x="86.279297" xlink:href="#DejaVuSans-83"/>
      <use x="149.755859" xlink:href="#DejaVuSans-73"/>
     </g>
    </g>
    <g id="line2d_26">
     <path d="M 136.602812 50.09625 
L 156.602812 50.09625 
" style="fill:none;stroke:#ff0000;stroke-linecap:square;stroke-width:1.5;"/>
    </g>
    <g id="line2d_27"/>
    <g id="text_17">
     <!-- $\it{A priori}$ model -->
     <g transform="translate(164.602812 53.59625)scale(0.1 -0.1)">
      <defs>
       <path d="M 36.8125 72.90625 
L 48 72.90625 
L 61.53125 0 
L 51.21875 0 
L 48.1875 18.703125 
L 15.375 18.703125 
L 5.078125 0 
L -5.328125 0 
z
M 40.375 63.1875 
L 19.921875 26.90625 
L 46.6875 26.90625 
z
" id="DejaVuSans-Oblique-65"/>
       <path d="M 49.609375 33.6875 
Q 49.609375 40.875 46.484375 44.671875 
Q 43.359375 48.484375 37.5 48.484375 
Q 33.5 48.484375 29.859375 46.4375 
Q 26.21875 44.390625 23.390625 40.484375 
Q 20.609375 36.625 18.9375 31.15625 
Q 17.28125 25.6875 17.28125 20.3125 
Q 17.28125 13.484375 20.40625 9.796875 
Q 23.53125 6.109375 29.296875 6.109375 
Q 33.546875 6.109375 37.1875 8.109375 
Q 40.828125 10.109375 43.40625 13.921875 
Q 46.1875 17.921875 47.890625 23.34375 
Q 49.609375 28.765625 49.609375 33.6875 
z
M 21.78125 46.390625 
Q 25.390625 51.125 30.296875 53.5625 
Q 35.203125 56 41.21875 56 
Q 49.609375 56 54.25 50.5 
Q 58.890625 45.015625 58.890625 35.109375 
Q 58.890625 27 56 19.65625 
Q 53.125 12.3125 47.703125 6.5 
Q 44.09375 2.640625 39.546875 0.609375 
Q 35.015625 -1.421875 29.984375 -1.421875 
Q 24.171875 -1.421875 20.21875 1 
Q 16.265625 3.421875 14.3125 8.203125 
L 8.6875 -20.796875 
L -0.296875 -20.796875 
L 14.40625 54.6875 
L 23.390625 54.6875 
z
" id="DejaVuSans-Oblique-112"/>
       <path d="M 44.578125 46.390625 
Q 43.21875 47.125 41.453125 47.515625 
Q 39.703125 47.90625 37.703125 47.90625 
Q 30.515625 47.90625 25.140625 42.453125 
Q 19.78125 37.015625 18.015625 27.875 
L 12.5 0 
L 3.515625 0 
L 14.203125 54.6875 
L 23.1875 54.6875 
L 21.484375 46.1875 
Q 25.046875 50.921875 30 53.453125 
Q 34.96875 56 40.578125 56 
Q 42.046875 56 43.453125 55.828125 
Q 44.875 55.671875 46.296875 55.28125 
z
" id="DejaVuSans-Oblique-114"/>
       <path d="M 18.3125 75.984375 
L 27.296875 75.984375 
L 25.09375 64.59375 
L 16.109375 64.59375 
z
M 14.203125 54.6875 
L 23.1875 54.6875 
L 12.5 0 
L 3.515625 0 
z
" id="DejaVuSans-Oblique-105"/>
       <path d="M 25.390625 -1.421875 
Q 15.765625 -1.421875 10.171875 4.515625 
Q 4.59375 10.453125 4.59375 20.703125 
Q 4.59375 26.65625 6.515625 32.828125 
Q 8.453125 39.015625 11.53125 43.21875 
Q 16.359375 49.75 22.3125 52.875 
Q 28.265625 56 35.796875 56 
Q 45.125 56 50.859375 50.1875 
Q 56.59375 44.390625 56.59375 35.015625 
Q 56.59375 28.515625 54.6875 22.0625 
Q 52.78125 15.625 49.703125 11.375 
Q 44.921875 4.828125 38.96875 1.703125 
Q 33.015625 -1.421875 25.390625 -1.421875 
z
M 13.921875 21 
Q 13.921875 13.578125 17.015625 9.890625 
Q 20.125 6.203125 26.421875 6.203125 
Q 35.453125 6.203125 41.375 14.078125 
Q 47.3125 21.96875 47.3125 34.078125 
Q 47.3125 41.15625 44.140625 44.765625 
Q 40.96875 48.390625 34.8125 48.390625 
Q 29.734375 48.390625 25.78125 46.015625 
Q 21.828125 43.65625 18.703125 38.8125 
Q 16.40625 35.203125 15.15625 30.5625 
Q 13.921875 25.921875 13.921875 21 
z
" id="DejaVuSans-Oblique-111"/>
       <path d="M 30.609375 48.390625 
Q 23.390625 48.390625 19.1875 42.75 
Q 14.984375 37.109375 14.984375 27.296875 
Q 14.984375 17.484375 19.15625 11.84375 
Q 23.34375 6.203125 30.609375 6.203125 
Q 37.796875 6.203125 41.984375 11.859375 
Q 46.1875 17.53125 46.1875 27.296875 
Q 46.1875 37.015625 41.984375 42.703125 
Q 37.796875 48.390625 30.609375 48.390625 
z
M 30.609375 56 
Q 42.328125 56 49.015625 48.375 
Q 55.71875 40.765625 55.71875 27.296875 
Q 55.71875 13.875 49.015625 6.21875 
Q 42.328125 -1.421875 30.609375 -1.421875 
Q 18.84375 -1.421875 12.171875 6.21875 
Q 5.515625 13.875 5.515625 27.296875 
Q 5.515625 40.765625 12.171875 48.375 
Q 18.84375 56 30.609375 56 
z
" id="DejaVuSans-111"/>
       <path d="M 45.40625 46.390625 
L 45.40625 75.984375 
L 54.390625 75.984375 
L 54.390625 0 
L 45.40625 0 
L 45.40625 8.203125 
Q 42.578125 3.328125 38.25 0.953125 
Q 33.9375 -1.421875 27.875 -1.421875 
Q 17.96875 -1.421875 11.734375 6.484375 
Q 5.515625 14.40625 5.515625 27.296875 
Q 5.515625 40.1875 11.734375 48.09375 
Q 17.96875 56 27.875 56 
Q 33.9375 56 38.25 53.625 
Q 42.578125 51.265625 45.40625 46.390625 
z
M 14.796875 27.296875 
Q 14.796875 17.390625 18.875 11.75 
Q 22.953125 6.109375 30.078125 6.109375 
Q 37.203125 6.109375 41.296875 11.75 
Q 45.40625 17.390625 45.40625 27.296875 
Q 45.40625 37.203125 41.296875 42.84375 
Q 37.203125 48.484375 30.078125 48.484375 
Q 22.953125 48.484375 18.875 42.84375 
Q 14.796875 37.203125 14.796875 27.296875 
z
" id="DejaVuSans-100"/>
       <path d="M 9.421875 75.984375 
L 18.40625 75.984375 
L 18.40625 0 
L 9.421875 0 
z
" id="DejaVuSans-108"/>
      </defs>
      <use transform="translate(0 0.015625)" xlink:href="#DejaVuSans-Oblique-65"/>
      <use transform="translate(68.408203 0.015625)" xlink:href="#DejaVuSans-Oblique-112"/>
      <use transform="translate(131.884766 0.015625)" xlink:href="#DejaVuSans-Oblique-114"/>
      <use transform="translate(172.998047 0.015625)" xlink:href="#DejaVuSans-Oblique-105"/>
      <use transform="translate(200.78125 0.015625)" xlink:href="#DejaVuSans-Oblique-111"/>
      <use transform="translate(261.962891 0.015625)" xlink:href="#DejaVuSans-Oblique-114"/>
      <use transform="translate(303.076172 0.015625)" xlink:href="#DejaVuSans-Oblique-105"/>
      <use transform="translate(330.859375 0.015625)" xlink:href="#DejaVuSans-32"/>
      <use transform="translate(362.646484 0.015625)" xlink:href="#DejaVuSans-109"/>
      <use transform="translate(460.058594 0.015625)" xlink:href="#DejaVuSans-111"/>
      <use transform="translate(521.240234 0.015625)" xlink:href="#DejaVuSans-100"/>
      <use transform="translate(584.716797 0.015625)" xlink:href="#DejaVuSans-101"/>
      <use transform="translate(646.240234 0.015625)" xlink:href="#DejaVuSans-108"/>
     </g>
    </g>
    <g id="line2d_28"/>
    <g id="line2d_29">
     <g>
      <use style="stroke:#000000;" x="146.602812" xlink:href="#macf758be2c" y="64.794688"/>
     </g>
    </g>
    <g id="text_18">
     <!-- Experimental Data -->
     <g transform="translate(164.602812 68.294688)scale(0.1 -0.1)">
      <defs>
       <path d="M 34.28125 27.484375 
Q 23.390625 27.484375 19.1875 25 
Q 14.984375 22.515625 14.984375 16.5 
Q 14.984375 11.71875 18.140625 8.90625 
Q 21.296875 6.109375 26.703125 6.109375 
Q 34.1875 6.109375 38.703125 11.40625 
Q 43.21875 16.703125 43.21875 25.484375 
L 43.21875 27.484375 
z
M 52.203125 31.203125 
L 52.203125 0 
L 43.21875 0 
L 43.21875 8.296875 
Q 40.140625 3.328125 35.546875 0.953125 
Q 30.953125 -1.421875 24.3125 -1.421875 
Q 15.921875 -1.421875 10.953125 3.296875 
Q 6 8.015625 6 15.921875 
Q 6 25.140625 12.171875 29.828125 
Q 18.359375 34.515625 30.609375 34.515625 
L 43.21875 34.515625 
L 43.21875 35.40625 
Q 43.21875 41.609375 39.140625 45 
Q 35.0625 48.390625 27.6875 48.390625 
Q 23 48.390625 18.546875 47.265625 
Q 14.109375 46.140625 10.015625 43.890625 
L 10.015625 52.203125 
Q 14.9375 54.109375 19.578125 55.046875 
Q 24.21875 56 28.609375 56 
Q 40.484375 56 46.34375 49.84375 
Q 52.203125 43.703125 52.203125 31.203125 
z
" id="DejaVuSans-97"/>
       <path d="M 19.671875 64.796875 
L 19.671875 8.109375 
L 31.59375 8.109375 
Q 46.6875 8.109375 53.6875 14.9375 
Q 60.6875 21.78125 60.6875 36.53125 
Q 60.6875 51.171875 53.6875 57.984375 
Q 46.6875 64.796875 31.59375 64.796875 
z
M 9.8125 72.90625 
L 30.078125 72.90625 
Q 51.265625 72.90625 61.171875 64.09375 
Q 71.09375 55.28125 71.09375 36.53125 
Q 71.09375 17.671875 61.125 8.828125 
Q 51.171875 0 30.078125 0 
L 9.8125 0 
z
" id="DejaVuSans-68"/>
      </defs>
      <use xlink:href="#DejaVuSans-69"/>
      <use x="63.183594" xlink:href="#DejaVuSans-120"/>
      <use x="122.363281" xlink:href="#DejaVuSans-112"/>
      <use x="185.839844" xlink:href="#DejaVuSans-101"/>
      <use x="247.363281" xlink:href="#DejaVuSans-114"/>
      <use x="288.476562" xlink:href="#DejaVuSans-105"/>
      <use x="316.259766" xlink:href="#DejaVuSans-109"/>
      <use x="413.671875" xlink:href="#DejaVuSans-101"/>
      <use x="475.195312" xlink:href="#DejaVuSans-110"/>
      <use x="538.574219" xlink:href="#DejaVuSans-116"/>
      <use x="577.783203" xlink:href="#DejaVuSans-97"/>
      <use x="639.0625" xlink:href="#DejaVuSans-108"/>
      <use x="666.845703" xlink:href="#DejaVuSans-32"/>
      <use x="698.632812" xlink:href="#DejaVuSans-68"/>
      <use x="775.634766" xlink:href="#DejaVuSans-97"/>
      <use x="836.914062" xlink:href="#DejaVuSans-116"/>
      <use x="876.123047" xlink:href="#DejaVuSans-97"/>
     </g>
    </g>
    <g id="line2d_30">
     <path d="M 136.602812 79.472813 
L 156.602812 79.472813 
" style="fill:none;stroke:#ffffff;stroke-linecap:square;stroke-width:1.5;"/>
    </g>
    <g id="line2d_31"/>
    <g id="text_19">
     <!-- T:1072 -->
     <g transform="translate(164.602812 82.972813)scale(0.1 -0.1)">
      <defs>
       <path d="M 11.71875 12.40625 
L 22.015625 12.40625 
L 22.015625 0 
L 11.71875 0 
z
M 11.71875 51.703125 
L 22.015625 51.703125 
L 22.015625 39.3125 
L 11.71875 39.3125 
z
" id="DejaVuSans-58"/>
       <path d="M 8.203125 72.90625 
L 55.078125 72.90625 
L 55.078125 68.703125 
L 28.609375 0 
L 18.3125 0 
L 43.21875 64.59375 
L 8.203125 64.59375 
z
" id="DejaVuSans-55"/>
      </defs>
      <use xlink:href="#DejaVuSans-84"/>
      <use x="50.083984" xlink:href="#DejaVuSans-58"/>
      <use x="83.775391" xlink:href="#DejaVuSans-49"/>
      <use x="147.398438" xlink:href="#DejaVuSans-48"/>
      <use x="211.021484" xlink:href="#DejaVuSans-55"/>
      <use x="274.644531" xlink:href="#DejaVuSans-50"/>
     </g>
    </g>
    <g id="line2d_32">
     <path d="M 136.602812 94.150937 
L 156.602812 94.150937 
" style="fill:none;stroke:#ffffff;stroke-linecap:square;stroke-width:1.5;"/>
    </g>
    <g id="line2d_33"/>
    <g id="text_20">
     <!-- P:1.786 -->
     <g transform="translate(164.602812 97.650937)scale(0.1 -0.1)">
      <defs>
       <path d="M 19.671875 64.796875 
L 19.671875 37.40625 
L 32.078125 37.40625 
Q 38.96875 37.40625 42.71875 40.96875 
Q 46.484375 44.53125 46.484375 51.125 
Q 46.484375 57.671875 42.71875 61.234375 
Q 38.96875 64.796875 32.078125 64.796875 
z
M 9.8125 72.90625 
L 32.078125 72.90625 
Q 44.34375 72.90625 50.609375 67.359375 
Q 56.890625 61.8125 56.890625 51.125 
Q 56.890625 40.328125 50.609375 34.8125 
Q 44.34375 29.296875 32.078125 29.296875 
L 19.671875 29.296875 
L 19.671875 0 
L 9.8125 0 
z
" id="DejaVuSans-80"/>
       <path d="M 10.6875 12.40625 
L 21 12.40625 
L 21 0 
L 10.6875 0 
z
" id="DejaVuSans-46"/>
       <path d="M 31.78125 34.625 
Q 24.75 34.625 20.71875 30.859375 
Q 16.703125 27.09375 16.703125 20.515625 
Q 16.703125 13.921875 20.71875 10.15625 
Q 24.75 6.390625 31.78125 6.390625 
Q 38.8125 6.390625 42.859375 10.171875 
Q 46.921875 13.96875 46.921875 20.515625 
Q 46.921875 27.09375 42.890625 30.859375 
Q 38.875 34.625 31.78125 34.625 
z
M 21.921875 38.8125 
Q 15.578125 40.375 12.03125 44.71875 
Q 8.5 49.078125 8.5 55.328125 
Q 8.5 64.0625 14.71875 69.140625 
Q 20.953125 74.21875 31.78125 74.21875 
Q 42.671875 74.21875 48.875 69.140625 
Q 55.078125 64.0625 55.078125 55.328125 
Q 55.078125 49.078125 51.53125 44.71875 
Q 48 40.375 41.703125 38.8125 
Q 48.828125 37.15625 52.796875 32.3125 
Q 56.78125 27.484375 56.78125 20.515625 
Q 56.78125 9.90625 50.3125 4.234375 
Q 43.84375 -1.421875 31.78125 -1.421875 
Q 19.734375 -1.421875 13.25 4.234375 
Q 6.78125 9.90625 6.78125 20.515625 
Q 6.78125 27.484375 10.78125 32.3125 
Q 14.796875 37.15625 21.921875 38.8125 
z
M 18.3125 54.390625 
Q 18.3125 48.734375 21.84375 45.5625 
Q 25.390625 42.390625 31.78125 42.390625 
Q 38.140625 42.390625 41.71875 45.5625 
Q 45.3125 48.734375 45.3125 54.390625 
Q 45.3125 60.0625 41.71875 63.234375 
Q 38.140625 66.40625 31.78125 66.40625 
Q 25.390625 66.40625 21.84375 63.234375 
Q 18.3125 60.0625 18.3125 54.390625 
z
" id="DejaVuSans-56"/>
       <path d="M 33.015625 40.375 
Q 26.375 40.375 22.484375 35.828125 
Q 18.609375 31.296875 18.609375 23.390625 
Q 18.609375 15.53125 22.484375 10.953125 
Q 26.375 6.390625 33.015625 6.390625 
Q 39.65625 6.390625 43.53125 10.953125 
Q 47.40625 15.53125 47.40625 23.390625 
Q 47.40625 31.296875 43.53125 35.828125 
Q 39.65625 40.375 33.015625 40.375 
z
M 52.59375 71.296875 
L 52.59375 62.3125 
Q 48.875 64.0625 45.09375 64.984375 
Q 41.3125 65.921875 37.59375 65.921875 
Q 27.828125 65.921875 22.671875 59.328125 
Q 17.53125 52.734375 16.796875 39.40625 
Q 19.671875 43.65625 24.015625 45.921875 
Q 28.375 48.1875 33.59375 48.1875 
Q 44.578125 48.1875 50.953125 41.515625 
Q 57.328125 34.859375 57.328125 23.390625 
Q 57.328125 12.15625 50.6875 5.359375 
Q 44.046875 -1.421875 33.015625 -1.421875 
Q 20.359375 -1.421875 13.671875 8.265625 
Q 6.984375 17.96875 6.984375 36.375 
Q 6.984375 53.65625 15.1875 63.9375 
Q 23.390625 74.21875 37.203125 74.21875 
Q 40.921875 74.21875 44.703125 73.484375 
Q 48.484375 72.75 52.59375 71.296875 
z
" id="DejaVuSans-54"/>
      </defs>
      <use xlink:href="#DejaVuSans-80"/>
      <use x="60.302734" xlink:href="#DejaVuSans-58"/>
      <use x="93.994141" xlink:href="#DejaVuSans-49"/>
      <use x="157.617188" xlink:href="#DejaVuSans-46"/>
      <use x="189.404297" xlink:href="#DejaVuSans-55"/>
      <use x="253.027344" xlink:href="#DejaVuSans-56"/>
      <use x="316.650391" xlink:href="#DejaVuSans-54"/>
     </g>
    </g>
    <g id="line2d_34">
     <path d="M 278.343438 35.416562 
L 298.343438 35.416562 
" style="fill:none;stroke:#ffffff;stroke-linecap:square;stroke-width:1.5;"/>
    </g>
    <g id="line2d_35"/>
    <g id="text_21">
     <!-- H2O2: 0.001779 -->
     <g transform="translate(306.343438 38.916562)scale(0.1 -0.1)">
      <defs>
       <path d="M 10.984375 1.515625 
L 10.984375 10.5 
Q 14.703125 8.734375 18.5 7.8125 
Q 22.3125 6.890625 25.984375 6.890625 
Q 35.75 6.890625 40.890625 13.453125 
Q 46.046875 20.015625 46.78125 33.40625 
Q 43.953125 29.203125 39.59375 26.953125 
Q 35.25 24.703125 29.984375 24.703125 
Q 19.046875 24.703125 12.671875 31.3125 
Q 6.296875 37.9375 6.296875 49.421875 
Q 6.296875 60.640625 12.9375 67.421875 
Q 19.578125 74.21875 30.609375 74.21875 
Q 43.265625 74.21875 49.921875 64.515625 
Q 56.59375 54.828125 56.59375 36.375 
Q 56.59375 19.140625 48.40625 8.859375 
Q 40.234375 -1.421875 26.421875 -1.421875 
Q 22.703125 -1.421875 18.890625 -0.6875 
Q 15.09375 0.046875 10.984375 1.515625 
z
M 30.609375 32.421875 
Q 37.25 32.421875 41.125 36.953125 
Q 45.015625 41.5 45.015625 49.421875 
Q 45.015625 57.28125 41.125 61.84375 
Q 37.25 66.40625 30.609375 66.40625 
Q 23.96875 66.40625 20.09375 61.84375 
Q 16.21875 57.28125 16.21875 49.421875 
Q 16.21875 41.5 20.09375 36.953125 
Q 23.96875 32.421875 30.609375 32.421875 
z
" id="DejaVuSans-57"/>
      </defs>
      <use xlink:href="#DejaVuSans-72"/>
      <use x="75.195312" xlink:href="#DejaVuSans-50"/>
      <use x="138.818359" xlink:href="#DejaVuSans-79"/>
      <use x="217.529297" xlink:href="#DejaVuSans-50"/>
      <use x="281.152344" xlink:href="#DejaVuSans-58"/>
      <use x="314.84375" xlink:href="#DejaVuSans-32"/>
      <use x="346.630859" xlink:href="#DejaVuSans-48"/>
      <use x="410.253906" xlink:href="#DejaVuSans-46"/>
      <use x="442.041016" xlink:href="#DejaVuSans-48"/>
      <use x="505.664062" xlink:href="#DejaVuSans-48"/>
      <use x="569.287109" xlink:href="#DejaVuSans-49"/>
      <use x="632.910156" xlink:href="#DejaVuSans-55"/>
      <use x="696.533203" xlink:href="#DejaVuSans-55"/>
      <use x="760.15625" xlink:href="#DejaVuSans-57"/>
     </g>
    </g>
    <g id="line2d_36">
     <path d="M 278.343438 50.094688 
L 298.343438 50.094688 
" style="fill:none;stroke:#ffffff;stroke-linecap:square;stroke-width:1.5;"/>
    </g>
    <g id="line2d_37"/>
    <g id="text_22">
     <!-- H2O: 0.00148 -->
     <g transform="translate(306.343438 53.594688)scale(0.1 -0.1)">
      <use xlink:href="#DejaVuSans-72"/>
      <use x="75.195312" xlink:href="#DejaVuSans-50"/>
      <use x="138.818359" xlink:href="#DejaVuSans-79"/>
      <use x="215.779297" xlink:href="#DejaVuSans-58"/>
      <use x="249.470703" xlink:href="#DejaVuSans-32"/>
      <use x="281.257812" xlink:href="#DejaVuSans-48"/>
      <use x="344.880859" xlink:href="#DejaVuSans-46"/>
      <use x="376.667969" xlink:href="#DejaVuSans-48"/>
      <use x="440.291016" xlink:href="#DejaVuSans-48"/>
      <use x="503.914062" xlink:href="#DejaVuSans-49"/>
      <use x="567.537109" xlink:href="#DejaVuSans-52"/>
      <use x="631.160156" xlink:href="#DejaVuSans-56"/>
     </g>
    </g>
    <g id="line2d_38">
     <path d="M 278.343438 64.772812 
L 298.343438 64.772812 
" style="fill:none;stroke:#ffffff;stroke-linecap:square;stroke-width:1.5;"/>
    </g>
    <g id="line2d_39"/>
    <g id="text_23">
     <!-- O2: 0.000556 -->
     <g transform="translate(306.343438 68.272812)scale(0.1 -0.1)">
      <use xlink:href="#DejaVuSans-79"/>
      <use x="78.710938" xlink:href="#DejaVuSans-50"/>
      <use x="142.333984" xlink:href="#DejaVuSans-58"/>
      <use x="176.025391" xlink:href="#DejaVuSans-32"/>
      <use x="207.8125" xlink:href="#DejaVuSans-48"/>
      <use x="271.435547" xlink:href="#DejaVuSans-46"/>
      <use x="303.222656" xlink:href="#DejaVuSans-48"/>
      <use x="366.845703" xlink:href="#DejaVuSans-48"/>
      <use x="430.46875" xlink:href="#DejaVuSans-48"/>
      <use x="494.091797" xlink:href="#DejaVuSans-53"/>
      <use x="557.714844" xlink:href="#DejaVuSans-53"/>
      <use x="621.337891" xlink:href="#DejaVuSans-54"/>
     </g>
    </g>
    <g id="line2d_40">
     <path d="M 278.343438 79.450938 
L 298.343438 79.450938 
" style="fill:none;stroke:#ffffff;stroke-linecap:square;stroke-width:1.5;"/>
    </g>
    <g id="line2d_41"/>
    <g id="text_24">
     <!-- Ar: 0.996741 -->
     <g transform="translate(306.343438 82.950938)scale(0.1 -0.1)">
      <defs>
       <path d="M 34.1875 63.1875 
L 20.796875 26.90625 
L 47.609375 26.90625 
z
M 28.609375 72.90625 
L 39.796875 72.90625 
L 67.578125 0 
L 57.328125 0 
L 50.6875 18.703125 
L 17.828125 18.703125 
L 11.1875 0 
L 0.78125 0 
z
" id="DejaVuSans-65"/>
      </defs>
      <use xlink:href="#DejaVuSans-65"/>
      <use x="68.408203" xlink:href="#DejaVuSans-114"/>
      <use x="107.771484" xlink:href="#DejaVuSans-58"/>
      <use x="141.462891" xlink:href="#DejaVuSans-32"/>
      <use x="173.25" xlink:href="#DejaVuSans-48"/>
      <use x="236.873047" xlink:href="#DejaVuSans-46"/>
      <use x="268.660156" xlink:href="#DejaVuSans-57"/>
      <use x="332.283203" xlink:href="#DejaVuSans-57"/>
      <use x="395.90625" xlink:href="#DejaVuSans-54"/>
      <use x="459.529297" xlink:href="#DejaVuSans-55"/>
      <use x="523.152344" xlink:href="#DejaVuSans-52"/>
      <use x="586.775391" xlink:href="#DejaVuSans-49"/>
     </g>
    </g>
   </g>
  </g>
 </g>
 <defs>
  <clipPath id="p0662136fd7">
   <rect height="266.112" width="357.12" x="40.603125" y="22.318125"/>
  </clipPath>
 </defs>
</svg>
