<?xml version="1.0" encoding="utf-8" standalone="no"?>
<!DOCTYPE svg PUBLIC "-//W3C//DTD SVG 1.1//EN"
  "http://www.w3.org/Graphics/SVG/1.1/DTD/svg11.dtd">
<!-- Created with matplotlib (https://matplotlib.org/) -->
<svg height="277.314375pt" version="1.1" viewBox="0 0 385.78125 277.314375" width="385.78125pt" xmlns="http://www.w3.org/2000/svg" xmlns:xlink="http://www.w3.org/1999/xlink">
 <metadata>
  <rdf:RDF xmlns:cc="http://creativecommons.org/ns#" xmlns:dc="http://purl.org/dc/elements/1.1/" xmlns:rdf="http://www.w3.org/1999/02/22-rdf-syntax-ns#">
   <cc:Work>
    <dc:type rdf:resource="http://purl.org/dc/dcmitype/StillImage"/>
    <dc:date>2022-12-07T02:17:51.817613</dc:date>
    <dc:format>image/svg+xml</dc:format>
    <dc:creator>
     <cc:Agent>
      <dc:title>Matplotlib v3.3.1, https://matplotlib.org/</dc:title>
     </cc:Agent>
    </dc:creator>
   </cc:Work>
  </rdf:RDF>
 </metadata>
 <defs>
  <style type="text/css">*{stroke-linecap:butt;stroke-linejoin:round;}</style>
 </defs>
 <g id="figure_1">
  <g id="patch_1">
   <path d="M 0 277.314375 
L 385.78125 277.314375 
L 385.78125 0 
L 0 0 
z
" style="fill:none;"/>
  </g>
  <g id="axes_1">
   <g id="patch_2">
    <path d="M 43.78125 239.758125 
L 378.58125 239.758125 
L 378.58125 22.318125 
L 43.78125 22.318125 
z
" style="fill:none;"/>
   </g>
   <g id="matplotlib.axis_1">
    <g id="xtick_1">
     <g id="line2d_1">
      <defs>
       <path d="M 0 0 
L 0 3.5 
" id="ma22f428d20" style="stroke:#000000;stroke-width:0.8;"/>
      </defs>
      <g>
       <use style="stroke:#000000;stroke-width:0.8;" x="58.999432" xlink:href="#ma22f428d20" y="239.758125"/>
      </g>
     </g>
     <g id="text_1">
      <!-- 0 -->
      <g transform="translate(55.818182 254.356562)scale(0.1 -0.1)">
       <defs>
        <path d="M 31.78125 66.40625 
Q 24.171875 66.40625 20.328125 58.90625 
Q 16.5 51.421875 16.5 36.375 
Q 16.5 21.390625 20.328125 13.890625 
Q 24.171875 6.390625 31.78125 6.390625 
Q 39.453125 6.390625 43.28125 13.890625 
Q 47.125 21.390625 47.125 36.375 
Q 47.125 51.421875 43.28125 58.90625 
Q 39.453125 66.40625 31.78125 66.40625 
z
M 31.78125 74.21875 
Q 44.046875 74.21875 50.515625 64.515625 
Q 56.984375 54.828125 56.984375 36.375 
Q 56.984375 17.96875 50.515625 8.265625 
Q 44.046875 -1.421875 31.78125 -1.421875 
Q 19.53125 -1.421875 13.0625 8.265625 
Q 6.59375 17.96875 6.59375 36.375 
Q 6.59375 54.828125 13.0625 64.515625 
Q 19.53125 74.21875 31.78125 74.21875 
z
" id="DejaVuSans-48"/>
       </defs>
       <use xlink:href="#DejaVuSans-48"/>
      </g>
     </g>
    </g>
    <g id="xtick_2">
     <g id="line2d_2">
      <g>
       <use style="stroke:#000000;stroke-width:0.8;" x="117.63721" xlink:href="#ma22f428d20" y="239.758125"/>
      </g>
     </g>
     <g id="text_2">
      <!-- 1 -->
      <g transform="translate(114.45596 254.356562)scale(0.1 -0.1)">
       <defs>
        <path d="M 12.40625 8.296875 
L 28.515625 8.296875 
L 28.515625 63.921875 
L 10.984375 60.40625 
L 10.984375 69.390625 
L 28.421875 72.90625 
L 38.28125 72.90625 
L 38.28125 8.296875 
L 54.390625 8.296875 
L 54.390625 0 
L 12.40625 0 
z
" id="DejaVuSans-49"/>
       </defs>
       <use xlink:href="#DejaVuSans-49"/>
      </g>
     </g>
    </g>
    <g id="xtick_3">
     <g id="line2d_3">
      <g>
       <use style="stroke:#000000;stroke-width:0.8;" x="176.274988" xlink:href="#ma22f428d20" y="239.758125"/>
      </g>
     </g>
     <g id="text_3">
      <!-- 2 -->
      <g transform="translate(173.093738 254.356562)scale(0.1 -0.1)">
       <defs>
        <path d="M 19.1875 8.296875 
L 53.609375 8.296875 
L 53.609375 0 
L 7.328125 0 
L 7.328125 8.296875 
Q 12.9375 14.109375 22.625 23.890625 
Q 32.328125 33.6875 34.8125 36.53125 
Q 39.546875 41.84375 41.421875 45.53125 
Q 43.3125 49.21875 43.3125 52.78125 
Q 43.3125 58.59375 39.234375 62.25 
Q 35.15625 65.921875 28.609375 65.921875 
Q 23.96875 65.921875 18.8125 64.3125 
Q 13.671875 62.703125 7.8125 59.421875 
L 7.8125 69.390625 
Q 13.765625 71.78125 18.9375 73 
Q 24.125 74.21875 28.421875 74.21875 
Q 39.75 74.21875 46.484375 68.546875 
Q 53.21875 62.890625 53.21875 53.421875 
Q 53.21875 48.921875 51.53125 44.890625 
Q 49.859375 40.875 45.40625 35.40625 
Q 44.1875 33.984375 37.640625 27.21875 
Q 31.109375 20.453125 19.1875 8.296875 
z
" id="DejaVuSans-50"/>
       </defs>
       <use xlink:href="#DejaVuSans-50"/>
      </g>
     </g>
    </g>
    <g id="xtick_4">
     <g id="line2d_4">
      <g>
       <use style="stroke:#000000;stroke-width:0.8;" x="234.912767" xlink:href="#ma22f428d20" y="239.758125"/>
      </g>
     </g>
     <g id="text_4">
      <!-- 3 -->
      <g transform="translate(231.731517 254.356562)scale(0.1 -0.1)">
       <defs>
        <path d="M 40.578125 39.3125 
Q 47.65625 37.796875 51.625 33 
Q 55.609375 28.21875 55.609375 21.1875 
Q 55.609375 10.40625 48.1875 4.484375 
Q 40.765625 -1.421875 27.09375 -1.421875 
Q 22.515625 -1.421875 17.65625 -0.515625 
Q 12.796875 0.390625 7.625 2.203125 
L 7.625 11.71875 
Q 11.71875 9.328125 16.59375 8.109375 
Q 21.484375 6.890625 26.8125 6.890625 
Q 36.078125 6.890625 40.9375 10.546875 
Q 45.796875 14.203125 45.796875 21.1875 
Q 45.796875 27.640625 41.28125 31.265625 
Q 36.765625 34.90625 28.71875 34.90625 
L 20.21875 34.90625 
L 20.21875 43.015625 
L 29.109375 43.015625 
Q 36.375 43.015625 40.234375 45.921875 
Q 44.09375 48.828125 44.09375 54.296875 
Q 44.09375 59.90625 40.109375 62.90625 
Q 36.140625 65.921875 28.71875 65.921875 
Q 24.65625 65.921875 20.015625 65.03125 
Q 15.375 64.15625 9.8125 62.3125 
L 9.8125 71.09375 
Q 15.4375 72.65625 20.34375 73.4375 
Q 25.25 74.21875 29.59375 74.21875 
Q 40.828125 74.21875 47.359375 69.109375 
Q 53.90625 64.015625 53.90625 55.328125 
Q 53.90625 49.265625 50.4375 45.09375 
Q 46.96875 40.921875 40.578125 39.3125 
z
" id="DejaVuSans-51"/>
       </defs>
       <use xlink:href="#DejaVuSans-51"/>
      </g>
     </g>
    </g>
    <g id="xtick_5">
     <g id="line2d_5">
      <g>
       <use style="stroke:#000000;stroke-width:0.8;" x="293.550545" xlink:href="#ma22f428d20" y="239.758125"/>
      </g>
     </g>
     <g id="text_5">
      <!-- 4 -->
      <g transform="translate(290.369295 254.356562)scale(0.1 -0.1)">
       <defs>
        <path d="M 37.796875 64.3125 
L 12.890625 25.390625 
L 37.796875 25.390625 
z
M 35.203125 72.90625 
L 47.609375 72.90625 
L 47.609375 25.390625 
L 58.015625 25.390625 
L 58.015625 17.1875 
L 47.609375 17.1875 
L 47.609375 0 
L 37.796875 0 
L 37.796875 17.1875 
L 4.890625 17.1875 
L 4.890625 26.703125 
z
" id="DejaVuSans-52"/>
       </defs>
       <use xlink:href="#DejaVuSans-52"/>
      </g>
     </g>
    </g>
    <g id="xtick_6">
     <g id="line2d_6">
      <g>
       <use style="stroke:#000000;stroke-width:0.8;" x="352.188323" xlink:href="#ma22f428d20" y="239.758125"/>
      </g>
     </g>
     <g id="text_6">
      <!-- 5 -->
      <g transform="translate(349.007073 254.356562)scale(0.1 -0.1)">
       <defs>
        <path d="M 10.796875 72.90625 
L 49.515625 72.90625 
L 49.515625 64.59375 
L 19.828125 64.59375 
L 19.828125 46.734375 
Q 21.96875 47.46875 24.109375 47.828125 
Q 26.265625 48.1875 28.421875 48.1875 
Q 40.625 48.1875 47.75 41.5 
Q 54.890625 34.8125 54.890625 23.390625 
Q 54.890625 11.625 47.5625 5.09375 
Q 40.234375 -1.421875 26.90625 -1.421875 
Q 22.3125 -1.421875 17.546875 -0.640625 
Q 12.796875 0.140625 7.71875 1.703125 
L 7.71875 11.625 
Q 12.109375 9.234375 16.796875 8.0625 
Q 21.484375 6.890625 26.703125 6.890625 
Q 35.15625 6.890625 40.078125 11.328125 
Q 45.015625 15.765625 45.015625 23.390625 
Q 45.015625 31 40.078125 35.4375 
Q 35.15625 39.890625 26.703125 39.890625 
Q 22.75 39.890625 18.8125 39.015625 
Q 14.890625 38.140625 10.796875 36.28125 
z
" id="DejaVuSans-53"/>
       </defs>
       <use xlink:href="#DejaVuSans-53"/>
      </g>
     </g>
    </g>
    <g id="text_7">
     <!-- Time (ms) -->
     <g transform="translate(185.982031 268.034687)scale(0.1 -0.1)">
      <defs>
       <path d="M -0.296875 72.90625 
L 61.375 72.90625 
L 61.375 64.59375 
L 35.5 64.59375 
L 35.5 0 
L 25.59375 0 
L 25.59375 64.59375 
L -0.296875 64.59375 
z
" id="DejaVuSans-84"/>
       <path d="M 9.421875 54.6875 
L 18.40625 54.6875 
L 18.40625 0 
L 9.421875 0 
z
M 9.421875 75.984375 
L 18.40625 75.984375 
L 18.40625 64.59375 
L 9.421875 64.59375 
z
" id="DejaVuSans-105"/>
       <path d="M 52 44.1875 
Q 55.375 50.25 60.0625 53.125 
Q 64.75 56 71.09375 56 
Q 79.640625 56 84.28125 50.015625 
Q 88.921875 44.046875 88.921875 33.015625 
L 88.921875 0 
L 79.890625 0 
L 79.890625 32.71875 
Q 79.890625 40.578125 77.09375 44.375 
Q 74.3125 48.1875 68.609375 48.1875 
Q 61.625 48.1875 57.5625 43.546875 
Q 53.515625 38.921875 53.515625 30.90625 
L 53.515625 0 
L 44.484375 0 
L 44.484375 32.71875 
Q 44.484375 40.625 41.703125 44.40625 
Q 38.921875 48.1875 33.109375 48.1875 
Q 26.21875 48.1875 22.15625 43.53125 
Q 18.109375 38.875 18.109375 30.90625 
L 18.109375 0 
L 9.078125 0 
L 9.078125 54.6875 
L 18.109375 54.6875 
L 18.109375 46.1875 
Q 21.1875 51.21875 25.484375 53.609375 
Q 29.78125 56 35.6875 56 
Q 41.65625 56 45.828125 52.96875 
Q 50 49.953125 52 44.1875 
z
" id="DejaVuSans-109"/>
       <path d="M 56.203125 29.59375 
L 56.203125 25.203125 
L 14.890625 25.203125 
Q 15.484375 15.921875 20.484375 11.0625 
Q 25.484375 6.203125 34.421875 6.203125 
Q 39.59375 6.203125 44.453125 7.46875 
Q 49.3125 8.734375 54.109375 11.28125 
L 54.109375 2.78125 
Q 49.265625 0.734375 44.1875 -0.34375 
Q 39.109375 -1.421875 33.890625 -1.421875 
Q 20.796875 -1.421875 13.15625 6.1875 
Q 5.515625 13.8125 5.515625 26.8125 
Q 5.515625 40.234375 12.765625 48.109375 
Q 20.015625 56 32.328125 56 
Q 43.359375 56 49.78125 48.890625 
Q 56.203125 41.796875 56.203125 29.59375 
z
M 47.21875 32.234375 
Q 47.125 39.59375 43.09375 43.984375 
Q 39.0625 48.390625 32.421875 48.390625 
Q 24.90625 48.390625 20.390625 44.140625 
Q 15.875 39.890625 15.1875 32.171875 
z
" id="DejaVuSans-101"/>
       <path id="DejaVuSans-32"/>
       <path d="M 31 75.875 
Q 24.46875 64.65625 21.28125 53.65625 
Q 18.109375 42.671875 18.109375 31.390625 
Q 18.109375 20.125 21.3125 9.0625 
Q 24.515625 -2 31 -13.1875 
L 23.1875 -13.1875 
Q 15.875 -1.703125 12.234375 9.375 
Q 8.59375 20.453125 8.59375 31.390625 
Q 8.59375 42.28125 12.203125 53.3125 
Q 15.828125 64.359375 23.1875 75.875 
z
" id="DejaVuSans-40"/>
       <path d="M 44.28125 53.078125 
L 44.28125 44.578125 
Q 40.484375 46.53125 36.375 47.5 
Q 32.28125 48.484375 27.875 48.484375 
Q 21.1875 48.484375 17.84375 46.4375 
Q 14.5 44.390625 14.5 40.28125 
Q 14.5 37.15625 16.890625 35.375 
Q 19.28125 33.59375 26.515625 31.984375 
L 29.59375 31.296875 
Q 39.15625 29.25 43.1875 25.515625 
Q 47.21875 21.78125 47.21875 15.09375 
Q 47.21875 7.46875 41.1875 3.015625 
Q 35.15625 -1.421875 24.609375 -1.421875 
Q 20.21875 -1.421875 15.453125 -0.5625 
Q 10.6875 0.296875 5.421875 2 
L 5.421875 11.28125 
Q 10.40625 8.6875 15.234375 7.390625 
Q 20.0625 6.109375 24.8125 6.109375 
Q 31.15625 6.109375 34.5625 8.28125 
Q 37.984375 10.453125 37.984375 14.40625 
Q 37.984375 18.0625 35.515625 20.015625 
Q 33.0625 21.96875 24.703125 23.78125 
L 21.578125 24.515625 
Q 13.234375 26.265625 9.515625 29.90625 
Q 5.8125 33.546875 5.8125 39.890625 
Q 5.8125 47.609375 11.28125 51.796875 
Q 16.75 56 26.8125 56 
Q 31.78125 56 36.171875 55.265625 
Q 40.578125 54.546875 44.28125 53.078125 
z
" id="DejaVuSans-115"/>
       <path d="M 8.015625 75.875 
L 15.828125 75.875 
Q 23.140625 64.359375 26.78125 53.3125 
Q 30.421875 42.28125 30.421875 31.390625 
Q 30.421875 20.453125 26.78125 9.375 
Q 23.140625 -1.703125 15.828125 -13.1875 
L 8.015625 -13.1875 
Q 14.5 -2 17.703125 9.0625 
Q 20.90625 20.125 20.90625 31.390625 
Q 20.90625 42.671875 17.703125 53.65625 
Q 14.5 64.65625 8.015625 75.875 
z
" id="DejaVuSans-41"/>
      </defs>
      <use xlink:href="#DejaVuSans-84"/>
      <use x="57.958984" xlink:href="#DejaVuSans-105"/>
      <use x="85.742188" xlink:href="#DejaVuSans-109"/>
      <use x="183.154297" xlink:href="#DejaVuSans-101"/>
      <use x="244.677734" xlink:href="#DejaVuSans-32"/>
      <use x="276.464844" xlink:href="#DejaVuSans-40"/>
      <use x="315.478516" xlink:href="#DejaVuSans-109"/>
      <use x="412.890625" xlink:href="#DejaVuSans-115"/>
      <use x="464.990234" xlink:href="#DejaVuSans-41"/>
     </g>
    </g>
   </g>
   <g id="matplotlib.axis_2">
    <g id="ytick_1">
     <g id="line2d_7">
      <defs>
       <path d="M 0 0 
L -3.5 0 
" id="m4bcb20a1fc" style="stroke:#000000;stroke-width:0.8;"/>
      </defs>
      <g>
       <use style="stroke:#000000;stroke-width:0.8;" x="43.78125" xlink:href="#m4bcb20a1fc" y="231.364501"/>
      </g>
     </g>
     <g id="text_8">
      <!-- 0.0 -->
      <g transform="translate(20.878125 235.163719)scale(0.1 -0.1)">
       <defs>
        <path d="M 10.6875 12.40625 
L 21 12.40625 
L 21 0 
L 10.6875 0 
z
" id="DejaVuSans-46"/>
       </defs>
       <use xlink:href="#DejaVuSans-48"/>
       <use x="63.623047" xlink:href="#DejaVuSans-46"/>
       <use x="95.410156" xlink:href="#DejaVuSans-48"/>
      </g>
     </g>
    </g>
    <g id="ytick_2">
     <g id="line2d_8">
      <g>
       <use style="stroke:#000000;stroke-width:0.8;" x="43.78125" xlink:href="#m4bcb20a1fc" y="203.654332"/>
      </g>
     </g>
     <g id="text_9">
      <!-- 0.1 -->
      <g transform="translate(20.878125 207.453551)scale(0.1 -0.1)">
       <use xlink:href="#DejaVuSans-48"/>
       <use x="63.623047" xlink:href="#DejaVuSans-46"/>
       <use x="95.410156" xlink:href="#DejaVuSans-49"/>
      </g>
     </g>
    </g>
    <g id="ytick_3">
     <g id="line2d_9">
      <g>
       <use style="stroke:#000000;stroke-width:0.8;" x="43.78125" xlink:href="#m4bcb20a1fc" y="175.944164"/>
      </g>
     </g>
     <g id="text_10">
      <!-- 0.2 -->
      <g transform="translate(20.878125 179.743383)scale(0.1 -0.1)">
       <use xlink:href="#DejaVuSans-48"/>
       <use x="63.623047" xlink:href="#DejaVuSans-46"/>
       <use x="95.410156" xlink:href="#DejaVuSans-50"/>
      </g>
     </g>
    </g>
    <g id="ytick_4">
     <g id="line2d_10">
      <g>
       <use style="stroke:#000000;stroke-width:0.8;" x="43.78125" xlink:href="#m4bcb20a1fc" y="148.233996"/>
      </g>
     </g>
     <g id="text_11">
      <!-- 0.3 -->
      <g transform="translate(20.878125 152.033214)scale(0.1 -0.1)">
       <use xlink:href="#DejaVuSans-48"/>
       <use x="63.623047" xlink:href="#DejaVuSans-46"/>
       <use x="95.410156" xlink:href="#DejaVuSans-51"/>
      </g>
     </g>
    </g>
    <g id="ytick_5">
     <g id="line2d_11">
      <g>
       <use style="stroke:#000000;stroke-width:0.8;" x="43.78125" xlink:href="#m4bcb20a1fc" y="120.523827"/>
      </g>
     </g>
     <g id="text_12">
      <!-- 0.4 -->
      <g transform="translate(20.878125 124.323046)scale(0.1 -0.1)">
       <use xlink:href="#DejaVuSans-48"/>
       <use x="63.623047" xlink:href="#DejaVuSans-46"/>
       <use x="95.410156" xlink:href="#DejaVuSans-52"/>
      </g>
     </g>
    </g>
    <g id="ytick_6">
     <g id="line2d_12">
      <g>
       <use style="stroke:#000000;stroke-width:0.8;" x="43.78125" xlink:href="#m4bcb20a1fc" y="92.813659"/>
      </g>
     </g>
     <g id="text_13">
      <!-- 0.5 -->
      <g transform="translate(20.878125 96.612878)scale(0.1 -0.1)">
       <use xlink:href="#DejaVuSans-48"/>
       <use x="63.623047" xlink:href="#DejaVuSans-46"/>
       <use x="95.410156" xlink:href="#DejaVuSans-53"/>
      </g>
     </g>
    </g>
    <g id="ytick_7">
     <g id="line2d_13">
      <g>
       <use style="stroke:#000000;stroke-width:0.8;" x="43.78125" xlink:href="#m4bcb20a1fc" y="65.103491"/>
      </g>
     </g>
     <g id="text_14">
      <!-- 0.6 -->
      <g transform="translate(20.878125 68.90271)scale(0.1 -0.1)">
       <defs>
        <path d="M 33.015625 40.375 
Q 26.375 40.375 22.484375 35.828125 
Q 18.609375 31.296875 18.609375 23.390625 
Q 18.609375 15.53125 22.484375 10.953125 
Q 26.375 6.390625 33.015625 6.390625 
Q 39.65625 6.390625 43.53125 10.953125 
Q 47.40625 15.53125 47.40625 23.390625 
Q 47.40625 31.296875 43.53125 35.828125 
Q 39.65625 40.375 33.015625 40.375 
z
M 52.59375 71.296875 
L 52.59375 62.3125 
Q 48.875 64.0625 45.09375 64.984375 
Q 41.3125 65.921875 37.59375 65.921875 
Q 27.828125 65.921875 22.671875 59.328125 
Q 17.53125 52.734375 16.796875 39.40625 
Q 19.671875 43.65625 24.015625 45.921875 
Q 28.375 48.1875 33.59375 48.1875 
Q 44.578125 48.1875 50.953125 41.515625 
Q 57.328125 34.859375 57.328125 23.390625 
Q 57.328125 12.15625 50.6875 5.359375 
Q 44.046875 -1.421875 33.015625 -1.421875 
Q 20.359375 -1.421875 13.671875 8.265625 
Q 6.984375 17.96875 6.984375 36.375 
Q 6.984375 53.65625 15.1875 63.9375 
Q 23.390625 74.21875 37.203125 74.21875 
Q 40.921875 74.21875 44.703125 73.484375 
Q 48.484375 72.75 52.59375 71.296875 
z
" id="DejaVuSans-54"/>
       </defs>
       <use xlink:href="#DejaVuSans-48"/>
       <use x="63.623047" xlink:href="#DejaVuSans-46"/>
       <use x="95.410156" xlink:href="#DejaVuSans-54"/>
      </g>
     </g>
    </g>
    <g id="ytick_8">
     <g id="line2d_14">
      <g>
       <use style="stroke:#000000;stroke-width:0.8;" x="43.78125" xlink:href="#m4bcb20a1fc" y="37.393323"/>
      </g>
     </g>
     <g id="text_15">
      <!-- 0.7 -->
      <g transform="translate(20.878125 41.192541)scale(0.1 -0.1)">
       <defs>
        <path d="M 8.203125 72.90625 
L 55.078125 72.90625 
L 55.078125 68.703125 
L 28.609375 0 
L 18.3125 0 
L 43.21875 64.59375 
L 8.203125 64.59375 
z
" id="DejaVuSans-55"/>
       </defs>
       <use xlink:href="#DejaVuSans-48"/>
       <use x="63.623047" xlink:href="#DejaVuSans-46"/>
       <use x="95.410156" xlink:href="#DejaVuSans-55"/>
      </g>
     </g>
    </g>
    <g id="text_16">
     <!-- H ppm -->
     <g transform="translate(14.798438 147.606094)rotate(-90)scale(0.1 -0.1)">
      <defs>
       <path d="M 9.8125 72.90625 
L 19.671875 72.90625 
L 19.671875 43.015625 
L 55.515625 43.015625 
L 55.515625 72.90625 
L 65.375 72.90625 
L 65.375 0 
L 55.515625 0 
L 55.515625 34.71875 
L 19.671875 34.71875 
L 19.671875 0 
L 9.8125 0 
z
" id="DejaVuSans-72"/>
       <path d="M 18.109375 8.203125 
L 18.109375 -20.796875 
L 9.078125 -20.796875 
L 9.078125 54.6875 
L 18.109375 54.6875 
L 18.109375 46.390625 
Q 20.953125 51.265625 25.265625 53.625 
Q 29.59375 56 35.59375 56 
Q 45.5625 56 51.78125 48.09375 
Q 58.015625 40.1875 58.015625 27.296875 
Q 58.015625 14.40625 51.78125 6.484375 
Q 45.5625 -1.421875 35.59375 -1.421875 
Q 29.59375 -1.421875 25.265625 0.953125 
Q 20.953125 3.328125 18.109375 8.203125 
z
M 48.6875 27.296875 
Q 48.6875 37.203125 44.609375 42.84375 
Q 40.53125 48.484375 33.40625 48.484375 
Q 26.265625 48.484375 22.1875 42.84375 
Q 18.109375 37.203125 18.109375 27.296875 
Q 18.109375 17.390625 22.1875 11.75 
Q 26.265625 6.109375 33.40625 6.109375 
Q 40.53125 6.109375 44.609375 11.75 
Q 48.6875 17.390625 48.6875 27.296875 
z
" id="DejaVuSans-112"/>
      </defs>
      <use xlink:href="#DejaVuSans-72"/>
      <use x="75.195312" xlink:href="#DejaVuSans-32"/>
      <use x="106.982422" xlink:href="#DejaVuSans-112"/>
      <use x="170.458984" xlink:href="#DejaVuSans-112"/>
      <use x="233.935547" xlink:href="#DejaVuSans-109"/>
     </g>
    </g>
   </g>
   <g id="line2d_15">
    <path clip-path="url(#p04952926d4)" d="M 58.999432 50.971296 
L 58.999673 50.973234 
L 59.002084 50.992616 
L 59.005901 51.023311 
L 59.012467 51.076079 
L 59.023799 51.167122 
L 59.043471 51.325067 
L 59.07822 51.603721 
L 59.146691 52.151538 
L 59.253963 53.006448 
L 59.361235 53.857289 
L 59.468507 54.70408 
L 59.575779 55.546839 
L 59.69809 56.502855 
L 59.820402 57.453679 
L 59.942713 58.399339 
L 60.149433 59.985948 
L 60.356153 61.558023 
L 60.562873 63.115693 
L 60.769593 64.659089 
L 61.094283 67.054754 
L 61.418973 69.41601 
L 61.743663 71.743342 
L 62.391544 76.287769 
L 63.039424 80.702744 
L 63.687305 84.991899 
L 64.335186 89.158761 
L 64.983067 93.206758 
L 65.630947 97.139222 
L 66.278828 100.959399 
L 66.926709 104.670449 
L 68.030268 110.749058 
L 69.133827 116.534555 
L 70.237385 122.040888 
L 71.340944 127.28136 
L 72.444503 132.268656 
L 73.548062 137.014871 
L 74.651621 141.531536 
L 75.75518 145.82964 
L 76.858739 149.919659 
L 78.733372 156.418461 
L 79.992608 160.485861 
L 81.251845 164.328962 
L 82.511081 167.96005 
L 83.770317 171.390743 
L 85.029554 174.632028 
L 86.28879 177.694292 
L 87.548026 180.587364 
L 89.493179 184.745209 
L 91.438332 188.553308 
L 93.383485 192.040949 
L 95.328638 195.234988 
L 97.273791 198.160043 
L 99.218944 200.838683 
L 101.164097 203.291598 
L 103.10925 205.537751 
L 105.054403 207.594523 
L 106.999556 209.477841 
L 108.944709 211.202296 
L 110.889862 212.781261 
L 112.835015 214.226984 
L 114.780168 215.550688 
L 116.725321 216.762654 
L 118.670474 217.872298 
L 120.615627 218.888246 
L 122.56078 219.818397 
L 124.505933 220.669987 
L 126.451086 221.449643 
L 128.396239 222.163433 
L 130.341392 222.816916 
L 132.286545 223.415181 
L 134.231698 223.962888 
L 136.176851 224.464305 
L 138.122004 224.923341 
L 140.067157 225.343573 
L 142.01231 225.728279 
L 143.957463 226.080458 
L 145.902616 226.402858 
L 147.847769 226.697993 
L 150.785548 227.097107 
L 153.723328 227.446346 
L 156.661108 227.751935 
L 159.598888 228.019326 
L 162.536668 228.253285 
L 165.474448 228.457986 
L 168.412228 228.637079 
L 171.350008 228.793763 
L 174.287788 228.930835 
L 177.225568 229.050744 
L 180.163348 229.155632 
L 183.101128 229.247374 
L 186.038908 229.327613 
L 188.976688 229.397784 
L 191.914468 229.459145 
L 194.852247 229.512796 
L 197.790027 229.559699 
L 200.727807 229.600696 
L 203.665587 229.636527 
L 206.603367 229.667834 
L 211.103352 229.708288 
L 215.603338 229.741154 
L 220.103323 229.767838 
L 224.603308 229.789482 
L 229.103294 229.807018 
L 233.603279 229.821206 
L 238.103264 229.832662 
L 242.603249 229.841892 
L 247.103235 229.849307 
L 251.60322 229.855243 
L 256.103205 229.859974 
L 260.603191 229.863721 
L 265.103176 229.866666 
L 269.603161 229.868958 
L 276.484132 229.871467 
L 283.365103 229.873058 
L 290.246074 229.87398 
L 297.127045 229.874413 
L 304.008016 229.874489 
L 310.888987 229.874302 
L 321.25261 229.873672 
L 331.616233 229.872764 
L 341.979857 229.871685 
L 352.34348 229.870503 
" style="fill:none;stroke:#0000ff;stroke-linecap:square;stroke-width:1.5;"/>
   </g>
   <g id="line2d_16">
    <path clip-path="url(#p04952926d4)" d="M 58.999432 50.971305 
L 58.999703 50.973211 
L 59.002411 50.992269 
L 59.006748 51.022781 
L 59.01423 51.075414 
L 59.027161 51.166343 
L 59.049622 51.324167 
L 59.089309 51.602698 
L 59.167607 52.150956 
L 59.28952 53.001304 
L 59.411434 53.84763 
L 59.533347 54.689951 
L 59.655261 55.528287 
L 59.794771 56.482754 
L 59.934281 57.43205 
L 60.073791 58.376204 
L 60.308192 59.951045 
L 60.542592 61.511579 
L 60.776993 63.057934 
L 61.011394 64.590235 
L 61.380062 66.972124 
L 61.748731 69.320037 
L 62.1174 71.63445 
L 62.857273 76.17999 
L 63.597146 80.596189 
L 64.337019 84.886667 
L 65.076892 89.054938 
L 65.816765 93.104419 
L 66.556638 97.038433 
L 67.296511 100.860215 
L 68.036384 104.572917 
L 69.265697 110.508691 
L 70.495011 116.165309 
L 71.724324 121.555714 
L 72.953638 126.692262 
L 74.182951 131.586755 
L 75.412265 136.250458 
L 76.641578 140.694129 
L 77.870892 144.928032 
L 79.100205 148.961965 
L 81.179936 155.357183 
L 82.603221 159.441316 
L 84.026506 163.302552 
L 85.449791 166.952963 
L 86.873076 170.403974 
L 88.296361 173.666397 
L 89.719646 176.750463 
L 91.142931 179.665857 
L 93.442454 184.04285 
L 95.741977 188.039304 
L 98.041499 191.688139 
L 100.341022 195.019455 
L 102.640545 198.060762 
L 104.940068 200.837205 
L 107.239591 203.371764 
L 109.539114 205.685445 
L 111.838637 207.797438 
L 114.13816 209.725276 
L 116.437683 211.484973 
L 118.737206 213.091159 
L 121.036729 214.557196 
L 123.336252 215.895288 
L 125.635775 217.116581 
L 127.935298 218.23125 
L 130.234821 219.248588 
L 132.534344 220.177082 
L 134.833866 221.024478 
L 137.133389 221.797849 
L 139.432912 222.503654 
L 141.732435 223.147787 
L 144.031958 223.73563 
L 146.331481 224.272096 
L 148.631004 224.76167 
L 150.930527 225.208446 
L 153.23005 225.61616 
L 155.529573 225.988223 
L 157.829096 226.32775 
L 160.128619 226.63758 
L 162.428142 226.920309 
L 164.727665 227.178304 
L 168.178663 227.523752 
L 171.629662 227.824837 
L 175.080661 228.087246 
L 178.531659 228.315942 
L 181.982658 228.515247 
L 185.433657 228.688929 
L 188.884656 228.840274 
L 192.335654 228.972147 
L 195.786653 229.087044 
L 199.237652 229.187144 
L 202.68865 229.274345 
L 206.139649 229.350299 
L 209.590648 229.416451 
L 213.041647 229.474058 
L 216.492645 229.524216 
L 219.943644 229.56788 
L 223.394643 229.605883 
L 226.845641 229.638951 
L 230.29664 229.667719 
L 235.489725 229.704095 
L 240.682809 229.73355 
L 245.875894 229.757377 
L 251.068978 229.776629 
L 256.262063 229.792159 
L 261.455147 229.804661 
L 266.648232 229.8147 
L 271.841316 229.822736 
L 277.0344 229.829144 
L 282.227485 229.834227 
L 287.420569 229.838232 
L 292.613654 229.841361 
L 297.806738 229.843777 
L 302.999823 229.845613 
L 311.016706 229.847553 
L 319.033589 229.848671 
L 327.050471 229.849193 
L 335.067354 229.849283 
L 343.084237 229.849058 
L 351.10112 229.848604 
L 363.363068 229.847602 
" style="fill:none;stroke:#ff0000;stroke-linecap:square;stroke-width:1.5;"/>
   </g>
   <g id="line2d_17">
    <defs>
     <path d="M 0 3 
C 0.795609 3 1.55874 2.683901 2.12132 2.12132 
C 2.683901 1.55874 3 0.795609 3 0 
C 3 -0.795609 2.683901 -1.55874 2.12132 -2.12132 
C 1.55874 -2.683901 0.795609 -3 0 -3 
C -0.795609 -3 -1.55874 -2.683901 -2.12132 -2.12132 
C -2.683901 -1.55874 -3 -0.795609 -3 0 
C -3 0.795609 -2.683901 1.55874 -2.12132 2.12132 
C -1.55874 2.683901 -0.795609 3 0 3 
z
" id="mbf311f64c9" style="stroke:#000000;"/>
    </defs>
    <g clip-path="url(#p04952926d4)">
     <use style="stroke:#000000;" x="58.999432" xlink:href="#mbf311f64c9" y="50.971305"/>
     <use style="stroke:#000000;" x="58.999681" xlink:href="#mbf311f64c9" y="50.973237"/>
     <use style="stroke:#000000;" x="59.002175" xlink:href="#mbf311f64c9" y="50.992554"/>
     <use style="stroke:#000000;" x="59.00611" xlink:href="#mbf311f64c9" y="51.023031"/>
     <use style="stroke:#000000;" x="59.012869" xlink:href="#mbf311f64c9" y="51.075364"/>
     <use style="stroke:#000000;" x="59.02453" xlink:href="#mbf311f64c9" y="51.165615"/>
     <use style="stroke:#000000;" x="59.04477" xlink:href="#mbf311f64c9" y="51.322162"/>
     <use style="stroke:#000000;" x="59.08052" xlink:href="#mbf311f64c9" y="51.598339"/>
     <use style="stroke:#000000;" x="59.150971" xlink:href="#mbf311f64c9" y="52.141347"/>
     <use style="stroke:#000000;" x="59.261282" xlink:href="#mbf311f64c9" y="52.988294"/>
     <use style="stroke:#000000;" x="59.371593" xlink:href="#mbf311f64c9" y="53.831236"/>
     <use style="stroke:#000000;" x="59.481904" xlink:href="#mbf311f64c9" y="54.670193"/>
     <use style="stroke:#000000;" x="59.592215" xlink:href="#mbf311f64c9" y="55.505182"/>
     <use style="stroke:#000000;" x="59.718078" xlink:href="#mbf311f64c9" y="56.453063"/>
     <use style="stroke:#000000;" x="59.843941" xlink:href="#mbf311f64c9" y="57.395826"/>
     <use style="stroke:#000000;" x="59.969804" xlink:href="#mbf311f64c9" y="58.333501"/>
     <use style="stroke:#000000;" x="60.182405" xlink:href="#mbf311f64c9" y="59.905896"/>
     <use style="stroke:#000000;" x="60.395006" xlink:href="#mbf311f64c9" y="61.463983"/>
     <use style="stroke:#000000;" x="60.607607" xlink:href="#mbf311f64c9" y="63.007893"/>
     <use style="stroke:#000000;" x="60.820207" xlink:href="#mbf311f64c9" y="64.537752"/>
     <use style="stroke:#000000;" x="61.152647" xlink:href="#mbf311f64c9" y="66.902099"/>
     <use style="stroke:#000000;" x="61.485087" xlink:href="#mbf311f64c9" y="69.232876"/>
     <use style="stroke:#000000;" x="61.817527" xlink:href="#mbf311f64c9" y="71.530554"/>
     <use style="stroke:#000000;" x="62.485553" xlink:href="#mbf311f64c9" y="76.049438"/>
     <use style="stroke:#000000;" x="63.153578" xlink:href="#mbf311f64c9" y="80.440226"/>
     <use style="stroke:#000000;" x="63.821604" xlink:href="#mbf311f64c9" y="84.706517"/>
     <use style="stroke:#000000;" x="64.48963" xlink:href="#mbf311f64c9" y="88.851804"/>
     <use style="stroke:#000000;" x="65.157656" xlink:href="#mbf311f64c9" y="92.879479"/>
     <use style="stroke:#000000;" x="65.825682" xlink:href="#mbf311f64c9" y="96.792841"/>
     <use style="stroke:#000000;" x="66.493707" xlink:href="#mbf311f64c9" y="100.595101"/>
     <use style="stroke:#000000;" x="67.161733" xlink:href="#mbf311f64c9" y="104.289383"/>
     <use style="stroke:#000000;" x="68.265126" xlink:href="#mbf311f64c9" y="110.162905"/>
     <use style="stroke:#000000;" x="69.368519" xlink:href="#mbf311f64c9" y="115.763291"/>
     <use style="stroke:#000000;" x="70.471912" xlink:href="#mbf311f64c9" y="121.103133"/>
     <use style="stroke:#000000;" x="71.575304" xlink:href="#mbf311f64c9" y="126.194452"/>
     <use style="stroke:#000000;" x="72.678697" xlink:href="#mbf311f64c9" y="131.048724"/>
     <use style="stroke:#000000;" x="73.78209" xlink:href="#mbf311f64c9" y="135.676906"/>
     <use style="stroke:#000000;" x="74.885483" xlink:href="#mbf311f64c9" y="140.089453"/>
     <use style="stroke:#000000;" x="75.988875" xlink:href="#mbf311f64c9" y="144.296345"/>
     <use style="stroke:#000000;" x="77.092268" xlink:href="#mbf311f64c9" y="148.307107"/>
     <use style="stroke:#000000;" x="78.94807" xlink:href="#mbf311f64c9" y="154.635453"/>
     <use style="stroke:#000000;" x="80.230372" xlink:href="#mbf311f64c9" y="158.720346"/>
     <use style="stroke:#000000;" x="81.512674" xlink:href="#mbf311f64c9" y="162.58452"/>
     <use style="stroke:#000000;" x="82.794976" xlink:href="#mbf311f64c9" y="166.239848"/>
     <use style="stroke:#000000;" x="84.077278" xlink:href="#mbf311f64c9" y="169.69757"/>
     <use style="stroke:#000000;" x="85.35958" xlink:href="#mbf311f64c9" y="172.96832"/>
     <use style="stroke:#000000;" x="86.641881" xlink:href="#mbf311f64c9" y="176.062163"/>
     <use style="stroke:#000000;" x="87.924183" xlink:href="#mbf311f64c9" y="178.98863"/>
     <use style="stroke:#000000;" x="90.025042" xlink:href="#mbf311f64c9" y="183.444897"/>
     <use style="stroke:#000000;" x="92.1259" xlink:href="#mbf311f64c9" y="187.512839"/>
     <use style="stroke:#000000;" x="94.226759" xlink:href="#mbf311f64c9" y="191.226199"/>
    </g>
   </g>
   <g id="line2d_18">
    <path clip-path="url(#p04952926d4)" d="M 58.999432 32.201761 
L 58.999681 32.203991 
L 59.002175 32.226289 
L 59.00611 32.261436 
L 59.012869 32.321803 
L 59.02453 32.425791 
L 59.04477 32.606007 
L 59.08052 32.923071 
L 59.150971 33.544454 
L 59.261282 34.50522 
L 59.371593 35.456285 
L 59.481904 36.396979 
L 59.592215 37.317412 
L 59.718078 38.355768 
L 59.843941 39.387951 
L 59.969804 40.413722 
L 60.182405 42.099948 
L 60.395006 43.72157 
L 60.607607 45.241715 
L 60.820207 46.835893 
L 61.152647 49.206172 
L 61.485087 51.573497 
L 61.817527 53.732431 
L 62.485553 58.065256 
L 63.153578 62.106533 
L 63.821604 65.904563 
L 64.48963 69.559705 
L 65.157656 73.037889 
L 65.825682 76.297405 
L 66.493707 79.597852 
L 67.161733 82.616924 
L 68.265126 87.403299 
L 69.368519 91.791483 
L 70.471912 96.430109 
L 71.575304 100.677374 
L 72.678697 104.741489 
L 73.78209 108.637518 
L 74.885483 112.368904 
L 75.988875 116.087836 
L 77.092268 120.199557 
L 78.94807 126.532956 
L 80.230372 129.780987 
L 81.512674 132.96584 
L 82.794976 136.063941 
L 84.077278 139.800267 
L 85.35958 142.915869 
L 86.641881 145.917233 
L 87.924183 149.138502 
L 90.025042 153.666401 
L 92.1259 158.145839 
L 94.226759 162.300549 
" style="fill:none;stroke:#0000ff;stroke-dasharray:5.55,2.4;stroke-dashoffset:0;stroke-width:1.5;"/>
   </g>
   <g id="line2d_19">
    <path clip-path="url(#p04952926d4)" d="M 58.999432 67.971948 
L 58.999681 67.973752 
L 59.002175 67.991783 
L 59.00611 68.020258 
L 59.012869 68.069141 
L 59.02453 68.153534 
L 59.04477 68.300039 
L 59.08052 68.559176 
L 59.150971 69.070226 
L 59.261282 69.874072 
L 59.371593 70.678091 
L 59.481904 71.482865 
L 59.592215 72.296458 
L 59.718078 73.225136 
L 59.843941 74.148917 
L 59.969804 75.067347 
L 60.182405 76.635439 
L 60.395006 78.228437 
L 60.607607 79.876404 
L 60.820207 81.434791 
L 61.152647 83.91919 
L 61.485087 86.340314 
L 61.817527 88.857676 
L 62.485553 93.738329 
L 63.153578 98.597834 
L 63.821604 103.401038 
L 64.48963 108.074254 
L 65.157656 112.6487 
L 65.825682 117.159102 
L 66.493707 121.419439 
L 67.161733 125.648273 
L 68.265126 132.361561 
L 69.368519 138.808283 
L 70.471912 144.586132 
L 71.575304 150.148047 
L 72.678697 155.380074 
L 73.78209 160.295958 
L 74.885483 164.915445 
L 75.988875 169.176763 
L 77.092268 172.874426 
L 78.94807 178.771157 
L 80.230372 182.917234 
L 81.512674 186.714586 
L 82.794976 190.203754 
L 84.077278 193.110447 
L 85.35958 195.997601 
L 86.641881 198.665123 
L 87.924183 200.993216 
L 90.025042 204.628221 
L 92.1259 207.753546 
L 94.226759 210.523575 
" style="fill:none;stroke:#0000ff;stroke-dasharray:5.55,2.4;stroke-dashoffset:0;stroke-width:1.5;"/>
   </g>
   <g id="line2d_20"/>
   <g id="line2d_21"/>
   <g id="line2d_22"/>
   <g id="line2d_23"/>
   <g id="line2d_24"/>
   <g id="patch_3">
    <path d="M 43.78125 239.758125 
L 43.78125 22.318125 
" style="fill:none;stroke:#000000;stroke-linecap:square;stroke-linejoin:miter;stroke-width:0.8;"/>
   </g>
   <g id="patch_4">
    <path d="M 378.58125 239.758125 
L 378.58125 22.318125 
" style="fill:none;stroke:#000000;stroke-linecap:square;stroke-linejoin:miter;stroke-width:0.8;"/>
   </g>
   <g id="patch_5">
    <path d="M 43.78125 239.758125 
L 378.58125 239.758125 
" style="fill:none;stroke:#000000;stroke-linecap:square;stroke-linejoin:miter;stroke-width:0.8;"/>
   </g>
   <g id="patch_6">
    <path d="M 43.78125 22.318125 
L 378.58125 22.318125 
" style="fill:none;stroke:#000000;stroke-linecap:square;stroke-linejoin:miter;stroke-width:0.8;"/>
   </g>
   <g id="text_17">
    <!-- Experiment_112 -->
    <g transform="translate(162.060938 16.318125)scale(0.12 -0.12)">
     <defs>
      <path d="M 9.8125 72.90625 
L 55.90625 72.90625 
L 55.90625 64.59375 
L 19.671875 64.59375 
L 19.671875 43.015625 
L 54.390625 43.015625 
L 54.390625 34.71875 
L 19.671875 34.71875 
L 19.671875 8.296875 
L 56.78125 8.296875 
L 56.78125 0 
L 9.8125 0 
z
" id="DejaVuSans-69"/>
      <path d="M 54.890625 54.6875 
L 35.109375 28.078125 
L 55.90625 0 
L 45.3125 0 
L 29.390625 21.484375 
L 13.484375 0 
L 2.875 0 
L 24.125 28.609375 
L 4.6875 54.6875 
L 15.28125 54.6875 
L 29.78125 35.203125 
L 44.28125 54.6875 
z
" id="DejaVuSans-120"/>
      <path d="M 41.109375 46.296875 
Q 39.59375 47.171875 37.8125 47.578125 
Q 36.03125 48 33.890625 48 
Q 26.265625 48 22.1875 43.046875 
Q 18.109375 38.09375 18.109375 28.8125 
L 18.109375 0 
L 9.078125 0 
L 9.078125 54.6875 
L 18.109375 54.6875 
L 18.109375 46.1875 
Q 20.953125 51.171875 25.484375 53.578125 
Q 30.03125 56 36.53125 56 
Q 37.453125 56 38.578125 55.875 
Q 39.703125 55.765625 41.0625 55.515625 
z
" id="DejaVuSans-114"/>
      <path d="M 54.890625 33.015625 
L 54.890625 0 
L 45.90625 0 
L 45.90625 32.71875 
Q 45.90625 40.484375 42.875 44.328125 
Q 39.84375 48.1875 33.796875 48.1875 
Q 26.515625 48.1875 22.3125 43.546875 
Q 18.109375 38.921875 18.109375 30.90625 
L 18.109375 0 
L 9.078125 0 
L 9.078125 54.6875 
L 18.109375 54.6875 
L 18.109375 46.1875 
Q 21.34375 51.125 25.703125 53.5625 
Q 30.078125 56 35.796875 56 
Q 45.21875 56 50.046875 50.171875 
Q 54.890625 44.34375 54.890625 33.015625 
z
" id="DejaVuSans-110"/>
      <path d="M 18.3125 70.21875 
L 18.3125 54.6875 
L 36.8125 54.6875 
L 36.8125 47.703125 
L 18.3125 47.703125 
L 18.3125 18.015625 
Q 18.3125 11.328125 20.140625 9.421875 
Q 21.96875 7.515625 27.59375 7.515625 
L 36.8125 7.515625 
L 36.8125 0 
L 27.59375 0 
Q 17.1875 0 13.234375 3.875 
Q 9.28125 7.765625 9.28125 18.015625 
L 9.28125 47.703125 
L 2.6875 47.703125 
L 2.6875 54.6875 
L 9.28125 54.6875 
L 9.28125 70.21875 
z
" id="DejaVuSans-116"/>
      <path d="M 50.984375 -16.609375 
L 50.984375 -23.578125 
L -0.984375 -23.578125 
L -0.984375 -16.609375 
z
" id="DejaVuSans-95"/>
     </defs>
     <use xlink:href="#DejaVuSans-69"/>
     <use x="63.183594" xlink:href="#DejaVuSans-120"/>
     <use x="122.363281" xlink:href="#DejaVuSans-112"/>
     <use x="185.839844" xlink:href="#DejaVuSans-101"/>
     <use x="247.363281" xlink:href="#DejaVuSans-114"/>
     <use x="288.476562" xlink:href="#DejaVuSans-105"/>
     <use x="316.259766" xlink:href="#DejaVuSans-109"/>
     <use x="413.671875" xlink:href="#DejaVuSans-101"/>
     <use x="475.195312" xlink:href="#DejaVuSans-110"/>
     <use x="538.574219" xlink:href="#DejaVuSans-116"/>
     <use x="577.783203" xlink:href="#DejaVuSans-95"/>
     <use x="627.783203" xlink:href="#DejaVuSans-49"/>
     <use x="691.40625" xlink:href="#DejaVuSans-49"/>
     <use x="755.029297" xlink:href="#DejaVuSans-50"/>
    </g>
   </g>
   <g id="legend_1">
    <g id="patch_7">
     <path d="M 113.714063 89.0525 
L 371.58125 89.0525 
Q 373.58125 89.0525 373.58125 87.0525 
L 373.58125 29.318125 
Q 373.58125 27.318125 371.58125 27.318125 
L 113.714063 27.318125 
Q 111.714063 27.318125 111.714063 29.318125 
L 111.714063 87.0525 
Q 111.714063 89.0525 113.714063 89.0525 
z
" style="fill:#ffffff;opacity:0.8;stroke:#cccccc;stroke-linejoin:miter;"/>
    </g>
    <g id="line2d_25">
     <path d="M 115.714063 35.416562 
L 135.714063 35.416562 
" style="fill:none;stroke:#0000ff;stroke-linecap:square;stroke-width:1.5;"/>
    </g>
    <g id="line2d_26"/>
    <g id="text_18">
     <!-- MSI -->
     <g transform="translate(143.714063 38.916562)scale(0.1 -0.1)">
      <defs>
       <path d="M 9.8125 72.90625 
L 24.515625 72.90625 
L 43.109375 23.296875 
L 61.8125 72.90625 
L 76.515625 72.90625 
L 76.515625 0 
L 66.890625 0 
L 66.890625 64.015625 
L 48.09375 14.015625 
L 38.1875 14.015625 
L 19.390625 64.015625 
L 19.390625 0 
L 9.8125 0 
z
" id="DejaVuSans-77"/>
       <path d="M 53.515625 70.515625 
L 53.515625 60.890625 
Q 47.90625 63.578125 42.921875 64.890625 
Q 37.9375 66.21875 33.296875 66.21875 
Q 25.25 66.21875 20.875 63.09375 
Q 16.5 59.96875 16.5 54.203125 
Q 16.5 49.359375 19.40625 46.890625 
Q 22.3125 44.4375 30.421875 42.921875 
L 36.375 41.703125 
Q 47.40625 39.59375 52.65625 34.296875 
Q 57.90625 29 57.90625 20.125 
Q 57.90625 9.515625 50.796875 4.046875 
Q 43.703125 -1.421875 29.984375 -1.421875 
Q 24.8125 -1.421875 18.96875 -0.25 
Q 13.140625 0.921875 6.890625 3.21875 
L 6.890625 13.375 
Q 12.890625 10.015625 18.65625 8.296875 
Q 24.421875 6.59375 29.984375 6.59375 
Q 38.421875 6.59375 43.015625 9.90625 
Q 47.609375 13.234375 47.609375 19.390625 
Q 47.609375 24.75 44.3125 27.78125 
Q 41.015625 30.8125 33.5 32.328125 
L 27.484375 33.5 
Q 16.453125 35.6875 11.515625 40.375 
Q 6.59375 45.0625 6.59375 53.421875 
Q 6.59375 63.09375 13.40625 68.65625 
Q 20.21875 74.21875 32.171875 74.21875 
Q 37.3125 74.21875 42.625 73.28125 
Q 47.953125 72.359375 53.515625 70.515625 
z
" id="DejaVuSans-83"/>
       <path d="M 9.8125 72.90625 
L 19.671875 72.90625 
L 19.671875 0 
L 9.8125 0 
z
" id="DejaVuSans-73"/>
      </defs>
      <use xlink:href="#DejaVuSans-77"/>
      <use x="86.279297" xlink:href="#DejaVuSans-83"/>
      <use x="149.755859" xlink:href="#DejaVuSans-73"/>
     </g>
    </g>
    <g id="line2d_27">
     <path d="M 115.714063 50.09625 
L 135.714063 50.09625 
" style="fill:none;stroke:#ff0000;stroke-linecap:square;stroke-width:1.5;"/>
    </g>
    <g id="line2d_28"/>
    <g id="text_19">
     <!-- $\it{A priori}$ model -->
     <g transform="translate(143.714063 53.59625)scale(0.1 -0.1)">
      <defs>
       <path d="M 36.8125 72.90625 
L 48 72.90625 
L 61.53125 0 
L 51.21875 0 
L 48.1875 18.703125 
L 15.375 18.703125 
L 5.078125 0 
L -5.328125 0 
z
M 40.375 63.1875 
L 19.921875 26.90625 
L 46.6875 26.90625 
z
" id="DejaVuSans-Oblique-65"/>
       <path d="M 49.609375 33.6875 
Q 49.609375 40.875 46.484375 44.671875 
Q 43.359375 48.484375 37.5 48.484375 
Q 33.5 48.484375 29.859375 46.4375 
Q 26.21875 44.390625 23.390625 40.484375 
Q 20.609375 36.625 18.9375 31.15625 
Q 17.28125 25.6875 17.28125 20.3125 
Q 17.28125 13.484375 20.40625 9.796875 
Q 23.53125 6.109375 29.296875 6.109375 
Q 33.546875 6.109375 37.1875 8.109375 
Q 40.828125 10.109375 43.40625 13.921875 
Q 46.1875 17.921875 47.890625 23.34375 
Q 49.609375 28.765625 49.609375 33.6875 
z
M 21.78125 46.390625 
Q 25.390625 51.125 30.296875 53.5625 
Q 35.203125 56 41.21875 56 
Q 49.609375 56 54.25 50.5 
Q 58.890625 45.015625 58.890625 35.109375 
Q 58.890625 27 56 19.65625 
Q 53.125 12.3125 47.703125 6.5 
Q 44.09375 2.640625 39.546875 0.609375 
Q 35.015625 -1.421875 29.984375 -1.421875 
Q 24.171875 -1.421875 20.21875 1 
Q 16.265625 3.421875 14.3125 8.203125 
L 8.6875 -20.796875 
L -0.296875 -20.796875 
L 14.40625 54.6875 
L 23.390625 54.6875 
z
" id="DejaVuSans-Oblique-112"/>
       <path d="M 44.578125 46.390625 
Q 43.21875 47.125 41.453125 47.515625 
Q 39.703125 47.90625 37.703125 47.90625 
Q 30.515625 47.90625 25.140625 42.453125 
Q 19.78125 37.015625 18.015625 27.875 
L 12.5 0 
L 3.515625 0 
L 14.203125 54.6875 
L 23.1875 54.6875 
L 21.484375 46.1875 
Q 25.046875 50.921875 30 53.453125 
Q 34.96875 56 40.578125 56 
Q 42.046875 56 43.453125 55.828125 
Q 44.875 55.671875 46.296875 55.28125 
z
" id="DejaVuSans-Oblique-114"/>
       <path d="M 18.3125 75.984375 
L 27.296875 75.984375 
L 25.09375 64.59375 
L 16.109375 64.59375 
z
M 14.203125 54.6875 
L 23.1875 54.6875 
L 12.5 0 
L 3.515625 0 
z
" id="DejaVuSans-Oblique-105"/>
       <path d="M 25.390625 -1.421875 
Q 15.765625 -1.421875 10.171875 4.515625 
Q 4.59375 10.453125 4.59375 20.703125 
Q 4.59375 26.65625 6.515625 32.828125 
Q 8.453125 39.015625 11.53125 43.21875 
Q 16.359375 49.75 22.3125 52.875 
Q 28.265625 56 35.796875 56 
Q 45.125 56 50.859375 50.1875 
Q 56.59375 44.390625 56.59375 35.015625 
Q 56.59375 28.515625 54.6875 22.0625 
Q 52.78125 15.625 49.703125 11.375 
Q 44.921875 4.828125 38.96875 1.703125 
Q 33.015625 -1.421875 25.390625 -1.421875 
z
M 13.921875 21 
Q 13.921875 13.578125 17.015625 9.890625 
Q 20.125 6.203125 26.421875 6.203125 
Q 35.453125 6.203125 41.375 14.078125 
Q 47.3125 21.96875 47.3125 34.078125 
Q 47.3125 41.15625 44.140625 44.765625 
Q 40.96875 48.390625 34.8125 48.390625 
Q 29.734375 48.390625 25.78125 46.015625 
Q 21.828125 43.65625 18.703125 38.8125 
Q 16.40625 35.203125 15.15625 30.5625 
Q 13.921875 25.921875 13.921875 21 
z
" id="DejaVuSans-Oblique-111"/>
       <path d="M 30.609375 48.390625 
Q 23.390625 48.390625 19.1875 42.75 
Q 14.984375 37.109375 14.984375 27.296875 
Q 14.984375 17.484375 19.15625 11.84375 
Q 23.34375 6.203125 30.609375 6.203125 
Q 37.796875 6.203125 41.984375 11.859375 
Q 46.1875 17.53125 46.1875 27.296875 
Q 46.1875 37.015625 41.984375 42.703125 
Q 37.796875 48.390625 30.609375 48.390625 
z
M 30.609375 56 
Q 42.328125 56 49.015625 48.375 
Q 55.71875 40.765625 55.71875 27.296875 
Q 55.71875 13.875 49.015625 6.21875 
Q 42.328125 -1.421875 30.609375 -1.421875 
Q 18.84375 -1.421875 12.171875 6.21875 
Q 5.515625 13.875 5.515625 27.296875 
Q 5.515625 40.765625 12.171875 48.375 
Q 18.84375 56 30.609375 56 
z
" id="DejaVuSans-111"/>
       <path d="M 45.40625 46.390625 
L 45.40625 75.984375 
L 54.390625 75.984375 
L 54.390625 0 
L 45.40625 0 
L 45.40625 8.203125 
Q 42.578125 3.328125 38.25 0.953125 
Q 33.9375 -1.421875 27.875 -1.421875 
Q 17.96875 -1.421875 11.734375 6.484375 
Q 5.515625 14.40625 5.515625 27.296875 
Q 5.515625 40.1875 11.734375 48.09375 
Q 17.96875 56 27.875 56 
Q 33.9375 56 38.25 53.625 
Q 42.578125 51.265625 45.40625 46.390625 
z
M 14.796875 27.296875 
Q 14.796875 17.390625 18.875 11.75 
Q 22.953125 6.109375 30.078125 6.109375 
Q 37.203125 6.109375 41.296875 11.75 
Q 45.40625 17.390625 45.40625 27.296875 
Q 45.40625 37.203125 41.296875 42.84375 
Q 37.203125 48.484375 30.078125 48.484375 
Q 22.953125 48.484375 18.875 42.84375 
Q 14.796875 37.203125 14.796875 27.296875 
z
" id="DejaVuSans-100"/>
       <path d="M 9.421875 75.984375 
L 18.40625 75.984375 
L 18.40625 0 
L 9.421875 0 
z
" id="DejaVuSans-108"/>
      </defs>
      <use transform="translate(0 0.015625)" xlink:href="#DejaVuSans-Oblique-65"/>
      <use transform="translate(68.408203 0.015625)" xlink:href="#DejaVuSans-Oblique-112"/>
      <use transform="translate(131.884766 0.015625)" xlink:href="#DejaVuSans-Oblique-114"/>
      <use transform="translate(172.998047 0.015625)" xlink:href="#DejaVuSans-Oblique-105"/>
      <use transform="translate(200.78125 0.015625)" xlink:href="#DejaVuSans-Oblique-111"/>
      <use transform="translate(261.962891 0.015625)" xlink:href="#DejaVuSans-Oblique-114"/>
      <use transform="translate(303.076172 0.015625)" xlink:href="#DejaVuSans-Oblique-105"/>
      <use transform="translate(330.859375 0.015625)" xlink:href="#DejaVuSans-32"/>
      <use transform="translate(362.646484 0.015625)" xlink:href="#DejaVuSans-109"/>
      <use transform="translate(460.058594 0.015625)" xlink:href="#DejaVuSans-111"/>
      <use transform="translate(521.240234 0.015625)" xlink:href="#DejaVuSans-100"/>
      <use transform="translate(584.716797 0.015625)" xlink:href="#DejaVuSans-101"/>
      <use transform="translate(646.240234 0.015625)" xlink:href="#DejaVuSans-108"/>
     </g>
    </g>
    <g id="line2d_29"/>
    <g id="line2d_30">
     <g>
      <use style="stroke:#000000;" x="125.714063" xlink:href="#mbf311f64c9" y="64.794687"/>
     </g>
    </g>
    <g id="text_20">
     <!-- Experimental Data -->
     <g transform="translate(143.714063 68.294687)scale(0.1 -0.1)">
      <defs>
       <path d="M 34.28125 27.484375 
Q 23.390625 27.484375 19.1875 25 
Q 14.984375 22.515625 14.984375 16.5 
Q 14.984375 11.71875 18.140625 8.90625 
Q 21.296875 6.109375 26.703125 6.109375 
Q 34.1875 6.109375 38.703125 11.40625 
Q 43.21875 16.703125 43.21875 25.484375 
L 43.21875 27.484375 
z
M 52.203125 31.203125 
L 52.203125 0 
L 43.21875 0 
L 43.21875 8.296875 
Q 40.140625 3.328125 35.546875 0.953125 
Q 30.953125 -1.421875 24.3125 -1.421875 
Q 15.921875 -1.421875 10.953125 3.296875 
Q 6 8.015625 6 15.921875 
Q 6 25.140625 12.171875 29.828125 
Q 18.359375 34.515625 30.609375 34.515625 
L 43.21875 34.515625 
L 43.21875 35.40625 
Q 43.21875 41.609375 39.140625 45 
Q 35.0625 48.390625 27.6875 48.390625 
Q 23 48.390625 18.546875 47.265625 
Q 14.109375 46.140625 10.015625 43.890625 
L 10.015625 52.203125 
Q 14.9375 54.109375 19.578125 55.046875 
Q 24.21875 56 28.609375 56 
Q 40.484375 56 46.34375 49.84375 
Q 52.203125 43.703125 52.203125 31.203125 
z
" id="DejaVuSans-97"/>
       <path d="M 19.671875 64.796875 
L 19.671875 8.109375 
L 31.59375 8.109375 
Q 46.6875 8.109375 53.6875 14.9375 
Q 60.6875 21.78125 60.6875 36.53125 
Q 60.6875 51.171875 53.6875 57.984375 
Q 46.6875 64.796875 31.59375 64.796875 
z
M 9.8125 72.90625 
L 30.078125 72.90625 
Q 51.265625 72.90625 61.171875 64.09375 
Q 71.09375 55.28125 71.09375 36.53125 
Q 71.09375 17.671875 61.125 8.828125 
Q 51.171875 0 30.078125 0 
L 9.8125 0 
z
" id="DejaVuSans-68"/>
      </defs>
      <use xlink:href="#DejaVuSans-69"/>
      <use x="63.183594" xlink:href="#DejaVuSans-120"/>
      <use x="122.363281" xlink:href="#DejaVuSans-112"/>
      <use x="185.839844" xlink:href="#DejaVuSans-101"/>
      <use x="247.363281" xlink:href="#DejaVuSans-114"/>
      <use x="288.476562" xlink:href="#DejaVuSans-105"/>
      <use x="316.259766" xlink:href="#DejaVuSans-109"/>
      <use x="413.671875" xlink:href="#DejaVuSans-101"/>
      <use x="475.195312" xlink:href="#DejaVuSans-110"/>
      <use x="538.574219" xlink:href="#DejaVuSans-116"/>
      <use x="577.783203" xlink:href="#DejaVuSans-97"/>
      <use x="639.0625" xlink:href="#DejaVuSans-108"/>
      <use x="666.845703" xlink:href="#DejaVuSans-32"/>
      <use x="698.632812" xlink:href="#DejaVuSans-68"/>
      <use x="775.634766" xlink:href="#DejaVuSans-97"/>
      <use x="836.914062" xlink:href="#DejaVuSans-116"/>
      <use x="876.123047" xlink:href="#DejaVuSans-97"/>
     </g>
    </g>
    <g id="line2d_31">
     <path d="M 115.714063 79.472812 
L 135.714063 79.472812 
" style="fill:none;stroke:#ffffff;stroke-linecap:square;stroke-width:1.5;"/>
    </g>
    <g id="line2d_32"/>
    <g id="text_21">
     <!-- T:1772.0 -->
     <g transform="translate(143.714063 82.972812)scale(0.1 -0.1)">
      <defs>
       <path d="M 11.71875 12.40625 
L 22.015625 12.40625 
L 22.015625 0 
L 11.71875 0 
z
M 11.71875 51.703125 
L 22.015625 51.703125 
L 22.015625 39.3125 
L 11.71875 39.3125 
z
" id="DejaVuSans-58"/>
      </defs>
      <use xlink:href="#DejaVuSans-84"/>
      <use x="50.083984" xlink:href="#DejaVuSans-58"/>
      <use x="83.775391" xlink:href="#DejaVuSans-49"/>
      <use x="147.398438" xlink:href="#DejaVuSans-55"/>
      <use x="211.021484" xlink:href="#DejaVuSans-55"/>
      <use x="274.644531" xlink:href="#DejaVuSans-50"/>
      <use x="338.267578" xlink:href="#DejaVuSans-46"/>
      <use x="370.054688" xlink:href="#DejaVuSans-48"/>
     </g>
    </g>
    <g id="line2d_33">
     <path d="M 257.454688 35.416562 
L 277.454688 35.416562 
" style="fill:none;stroke:#ffffff;stroke-linecap:square;stroke-width:1.5;"/>
    </g>
    <g id="line2d_34"/>
    <g id="text_22">
     <!-- P:0.725 -->
     <g transform="translate(285.454688 38.916562)scale(0.1 -0.1)">
      <defs>
       <path d="M 19.671875 64.796875 
L 19.671875 37.40625 
L 32.078125 37.40625 
Q 38.96875 37.40625 42.71875 40.96875 
Q 46.484375 44.53125 46.484375 51.125 
Q 46.484375 57.671875 42.71875 61.234375 
Q 38.96875 64.796875 32.078125 64.796875 
z
M 9.8125 72.90625 
L 32.078125 72.90625 
Q 44.34375 72.90625 50.609375 67.359375 
Q 56.890625 61.8125 56.890625 51.125 
Q 56.890625 40.328125 50.609375 34.8125 
Q 44.34375 29.296875 32.078125 29.296875 
L 19.671875 29.296875 
L 19.671875 0 
L 9.8125 0 
z
" id="DejaVuSans-80"/>
      </defs>
      <use xlink:href="#DejaVuSans-80"/>
      <use x="60.302734" xlink:href="#DejaVuSans-58"/>
      <use x="93.994141" xlink:href="#DejaVuSans-48"/>
      <use x="157.617188" xlink:href="#DejaVuSans-46"/>
      <use x="189.404297" xlink:href="#DejaVuSans-55"/>
      <use x="253.027344" xlink:href="#DejaVuSans-50"/>
      <use x="316.650391" xlink:href="#DejaVuSans-53"/>
     </g>
    </g>
    <g id="line2d_35">
     <path d="M 257.454688 50.094687 
L 277.454688 50.094687 
" style="fill:none;stroke:#ffffff;stroke-linecap:square;stroke-width:1.5;"/>
    </g>
    <g id="line2d_36"/>
    <g id="text_23">
     <!-- H: 6.51e-07 -->
     <g transform="translate(285.454688 53.594687)scale(0.1 -0.1)">
      <defs>
       <path d="M 4.890625 31.390625 
L 31.203125 31.390625 
L 31.203125 23.390625 
L 4.890625 23.390625 
z
" id="DejaVuSans-45"/>
      </defs>
      <use xlink:href="#DejaVuSans-72"/>
      <use x="75.195312" xlink:href="#DejaVuSans-58"/>
      <use x="108.886719" xlink:href="#DejaVuSans-32"/>
      <use x="140.673828" xlink:href="#DejaVuSans-54"/>
      <use x="204.296875" xlink:href="#DejaVuSans-46"/>
      <use x="236.083984" xlink:href="#DejaVuSans-53"/>
      <use x="299.707031" xlink:href="#DejaVuSans-49"/>
      <use x="363.330078" xlink:href="#DejaVuSans-101"/>
      <use x="424.853516" xlink:href="#DejaVuSans-45"/>
      <use x="460.9375" xlink:href="#DejaVuSans-48"/>
      <use x="524.560547" xlink:href="#DejaVuSans-55"/>
     </g>
    </g>
    <g id="line2d_37">
     <path d="M 257.454688 64.772812 
L 277.454688 64.772812 
" style="fill:none;stroke:#ffffff;stroke-linecap:square;stroke-width:1.5;"/>
    </g>
    <g id="line2d_38"/>
    <g id="text_24">
     <!-- H2O: 0.00125 -->
     <g transform="translate(285.454688 68.272812)scale(0.1 -0.1)">
      <defs>
       <path d="M 39.40625 66.21875 
Q 28.65625 66.21875 22.328125 58.203125 
Q 16.015625 50.203125 16.015625 36.375 
Q 16.015625 22.609375 22.328125 14.59375 
Q 28.65625 6.59375 39.40625 6.59375 
Q 50.140625 6.59375 56.421875 14.59375 
Q 62.703125 22.609375 62.703125 36.375 
Q 62.703125 50.203125 56.421875 58.203125 
Q 50.140625 66.21875 39.40625 66.21875 
z
M 39.40625 74.21875 
Q 54.734375 74.21875 63.90625 63.9375 
Q 73.09375 53.65625 73.09375 36.375 
Q 73.09375 19.140625 63.90625 8.859375 
Q 54.734375 -1.421875 39.40625 -1.421875 
Q 24.03125 -1.421875 14.8125 8.828125 
Q 5.609375 19.09375 5.609375 36.375 
Q 5.609375 53.65625 14.8125 63.9375 
Q 24.03125 74.21875 39.40625 74.21875 
z
" id="DejaVuSans-79"/>
      </defs>
      <use xlink:href="#DejaVuSans-72"/>
      <use x="75.195312" xlink:href="#DejaVuSans-50"/>
      <use x="138.818359" xlink:href="#DejaVuSans-79"/>
      <use x="215.779297" xlink:href="#DejaVuSans-58"/>
      <use x="249.470703" xlink:href="#DejaVuSans-32"/>
      <use x="281.257812" xlink:href="#DejaVuSans-48"/>
      <use x="344.880859" xlink:href="#DejaVuSans-46"/>
      <use x="376.667969" xlink:href="#DejaVuSans-48"/>
      <use x="440.291016" xlink:href="#DejaVuSans-48"/>
      <use x="503.914062" xlink:href="#DejaVuSans-49"/>
      <use x="567.537109" xlink:href="#DejaVuSans-50"/>
      <use x="631.160156" xlink:href="#DejaVuSans-53"/>
     </g>
    </g>
    <g id="line2d_39">
     <path d="M 257.454688 79.450937 
L 277.454688 79.450937 
" style="fill:none;stroke:#ffffff;stroke-linecap:square;stroke-width:1.5;"/>
    </g>
    <g id="line2d_40"/>
    <g id="text_25">
     <!-- Ar: 0.998749349 -->
     <g transform="translate(285.454688 82.950937)scale(0.1 -0.1)">
      <defs>
       <path d="M 34.1875 63.1875 
L 20.796875 26.90625 
L 47.609375 26.90625 
z
M 28.609375 72.90625 
L 39.796875 72.90625 
L 67.578125 0 
L 57.328125 0 
L 50.6875 18.703125 
L 17.828125 18.703125 
L 11.1875 0 
L 0.78125 0 
z
" id="DejaVuSans-65"/>
       <path d="M 10.984375 1.515625 
L 10.984375 10.5 
Q 14.703125 8.734375 18.5 7.8125 
Q 22.3125 6.890625 25.984375 6.890625 
Q 35.75 6.890625 40.890625 13.453125 
Q 46.046875 20.015625 46.78125 33.40625 
Q 43.953125 29.203125 39.59375 26.953125 
Q 35.25 24.703125 29.984375 24.703125 
Q 19.046875 24.703125 12.671875 31.3125 
Q 6.296875 37.9375 6.296875 49.421875 
Q 6.296875 60.640625 12.9375 67.421875 
Q 19.578125 74.21875 30.609375 74.21875 
Q 43.265625 74.21875 49.921875 64.515625 
Q 56.59375 54.828125 56.59375 36.375 
Q 56.59375 19.140625 48.40625 8.859375 
Q 40.234375 -1.421875 26.421875 -1.421875 
Q 22.703125 -1.421875 18.890625 -0.6875 
Q 15.09375 0.046875 10.984375 1.515625 
z
M 30.609375 32.421875 
Q 37.25 32.421875 41.125 36.953125 
Q 45.015625 41.5 45.015625 49.421875 
Q 45.015625 57.28125 41.125 61.84375 
Q 37.25 66.40625 30.609375 66.40625 
Q 23.96875 66.40625 20.09375 61.84375 
Q 16.21875 57.28125 16.21875 49.421875 
Q 16.21875 41.5 20.09375 36.953125 
Q 23.96875 32.421875 30.609375 32.421875 
z
" id="DejaVuSans-57"/>
       <path d="M 31.78125 34.625 
Q 24.75 34.625 20.71875 30.859375 
Q 16.703125 27.09375 16.703125 20.515625 
Q 16.703125 13.921875 20.71875 10.15625 
Q 24.75 6.390625 31.78125 6.390625 
Q 38.8125 6.390625 42.859375 10.171875 
Q 46.921875 13.96875 46.921875 20.515625 
Q 46.921875 27.09375 42.890625 30.859375 
Q 38.875 34.625 31.78125 34.625 
z
M 21.921875 38.8125 
Q 15.578125 40.375 12.03125 44.71875 
Q 8.5 49.078125 8.5 55.328125 
Q 8.5 64.0625 14.71875 69.140625 
Q 20.953125 74.21875 31.78125 74.21875 
Q 42.671875 74.21875 48.875 69.140625 
Q 55.078125 64.0625 55.078125 55.328125 
Q 55.078125 49.078125 51.53125 44.71875 
Q 48 40.375 41.703125 38.8125 
Q 48.828125 37.15625 52.796875 32.3125 
Q 56.78125 27.484375 56.78125 20.515625 
Q 56.78125 9.90625 50.3125 4.234375 
Q 43.84375 -1.421875 31.78125 -1.421875 
Q 19.734375 -1.421875 13.25 4.234375 
Q 6.78125 9.90625 6.78125 20.515625 
Q 6.78125 27.484375 10.78125 32.3125 
Q 14.796875 37.15625 21.921875 38.8125 
z
M 18.3125 54.390625 
Q 18.3125 48.734375 21.84375 45.5625 
Q 25.390625 42.390625 31.78125 42.390625 
Q 38.140625 42.390625 41.71875 45.5625 
Q 45.3125 48.734375 45.3125 54.390625 
Q 45.3125 60.0625 41.71875 63.234375 
Q 38.140625 66.40625 31.78125 66.40625 
Q 25.390625 66.40625 21.84375 63.234375 
Q 18.3125 60.0625 18.3125 54.390625 
z
" id="DejaVuSans-56"/>
      </defs>
      <use xlink:href="#DejaVuSans-65"/>
      <use x="68.408203" xlink:href="#DejaVuSans-114"/>
      <use x="107.771484" xlink:href="#DejaVuSans-58"/>
      <use x="141.462891" xlink:href="#DejaVuSans-32"/>
      <use x="173.25" xlink:href="#DejaVuSans-48"/>
      <use x="236.873047" xlink:href="#DejaVuSans-46"/>
      <use x="268.660156" xlink:href="#DejaVuSans-57"/>
      <use x="332.283203" xlink:href="#DejaVuSans-57"/>
      <use x="395.90625" xlink:href="#DejaVuSans-56"/>
      <use x="459.529297" xlink:href="#DejaVuSans-55"/>
      <use x="523.152344" xlink:href="#DejaVuSans-52"/>
      <use x="586.775391" xlink:href="#DejaVuSans-57"/>
      <use x="650.398438" xlink:href="#DejaVuSans-51"/>
      <use x="714.021484" xlink:href="#DejaVuSans-52"/>
      <use x="777.644531" xlink:href="#DejaVuSans-57"/>
     </g>
    </g>
   </g>
  </g>
 </g>
 <defs>
  <clipPath id="p04952926d4">
   <rect height="217.44" width="334.8" x="43.78125" y="22.318125"/>
  </clipPath>
 </defs>
</svg>
