<?xml version="1.0" encoding="utf-8" standalone="no"?>
<!DOCTYPE svg PUBLIC "-//W3C//DTD SVG 1.1//EN"
  "http://www.w3.org/Graphics/SVG/1.1/DTD/svg11.dtd">
<!-- Created with matplotlib (https://matplotlib.org/) -->
<svg height="277.314375pt" version="1.1" viewBox="0 0 395.328125 277.314375" width="395.328125pt" xmlns="http://www.w3.org/2000/svg" xmlns:xlink="http://www.w3.org/1999/xlink">
 <metadata>
  <rdf:RDF xmlns:cc="http://creativecommons.org/ns#" xmlns:dc="http://purl.org/dc/elements/1.1/" xmlns:rdf="http://www.w3.org/1999/02/22-rdf-syntax-ns#">
   <cc:Work>
    <dc:type rdf:resource="http://purl.org/dc/dcmitype/StillImage"/>
    <dc:date>2023-01-07T00:02:11.215183</dc:date>
    <dc:format>image/svg+xml</dc:format>
    <dc:creator>
     <cc:Agent>
      <dc:title>Matplotlib v3.3.1, https://matplotlib.org/</dc:title>
     </cc:Agent>
    </dc:creator>
   </cc:Work>
  </rdf:RDF>
 </metadata>
 <defs>
  <style type="text/css">*{stroke-linecap:butt;stroke-linejoin:round;}</style>
 </defs>
 <g id="figure_1">
  <g id="patch_1">
   <path d="M 0 277.314375 
L 395.328125 277.314375 
L 395.328125 0 
L 0 0 
z
" style="fill:none;"/>
  </g>
  <g id="axes_1">
   <g id="patch_2">
    <path d="M 53.328125 239.758125 
L 388.128125 239.758125 
L 388.128125 22.318125 
L 53.328125 22.318125 
z
" style="fill:none;"/>
   </g>
   <g id="matplotlib.axis_1">
    <g id="xtick_1">
     <g id="line2d_1">
      <defs>
       <path d="M 0 0 
L 0 3.5 
" id="m654df4ee39" style="stroke:#000000;stroke-width:0.8;"/>
      </defs>
      <g>
       <use style="stroke:#000000;stroke-width:0.8;" x="68.891589" xlink:href="#m654df4ee39" y="239.758125"/>
      </g>
     </g>
     <g id="text_1">
      <!-- 0 -->
      <g transform="translate(65.710339 254.356562)scale(0.1 -0.1)">
       <defs>
        <path d="M 31.78125 66.40625 
Q 24.171875 66.40625 20.328125 58.90625 
Q 16.5 51.421875 16.5 36.375 
Q 16.5 21.390625 20.328125 13.890625 
Q 24.171875 6.390625 31.78125 6.390625 
Q 39.453125 6.390625 43.28125 13.890625 
Q 47.125 21.390625 47.125 36.375 
Q 47.125 51.421875 43.28125 58.90625 
Q 39.453125 66.40625 31.78125 66.40625 
z
M 31.78125 74.21875 
Q 44.046875 74.21875 50.515625 64.515625 
Q 56.984375 54.828125 56.984375 36.375 
Q 56.984375 17.96875 50.515625 8.265625 
Q 44.046875 -1.421875 31.78125 -1.421875 
Q 19.53125 -1.421875 13.0625 8.265625 
Q 6.59375 17.96875 6.59375 36.375 
Q 6.59375 54.828125 13.0625 64.515625 
Q 19.53125 74.21875 31.78125 74.21875 
z
" id="DejaVuSans-48"/>
       </defs>
       <use xlink:href="#DejaVuSans-48"/>
      </g>
     </g>
    </g>
    <g id="xtick_2">
     <g id="line2d_2">
      <g>
       <use style="stroke:#000000;stroke-width:0.8;" x="109.339369" xlink:href="#m654df4ee39" y="239.758125"/>
      </g>
     </g>
     <g id="text_2">
      <!-- 2 -->
      <g transform="translate(106.158119 254.356562)scale(0.1 -0.1)">
       <defs>
        <path d="M 19.1875 8.296875 
L 53.609375 8.296875 
L 53.609375 0 
L 7.328125 0 
L 7.328125 8.296875 
Q 12.9375 14.109375 22.625 23.890625 
Q 32.328125 33.6875 34.8125 36.53125 
Q 39.546875 41.84375 41.421875 45.53125 
Q 43.3125 49.21875 43.3125 52.78125 
Q 43.3125 58.59375 39.234375 62.25 
Q 35.15625 65.921875 28.609375 65.921875 
Q 23.96875 65.921875 18.8125 64.3125 
Q 13.671875 62.703125 7.8125 59.421875 
L 7.8125 69.390625 
Q 13.765625 71.78125 18.9375 73 
Q 24.125 74.21875 28.421875 74.21875 
Q 39.75 74.21875 46.484375 68.546875 
Q 53.21875 62.890625 53.21875 53.421875 
Q 53.21875 48.921875 51.53125 44.890625 
Q 49.859375 40.875 45.40625 35.40625 
Q 44.1875 33.984375 37.640625 27.21875 
Q 31.109375 20.453125 19.1875 8.296875 
z
" id="DejaVuSans-50"/>
       </defs>
       <use xlink:href="#DejaVuSans-50"/>
      </g>
     </g>
    </g>
    <g id="xtick_3">
     <g id="line2d_3">
      <g>
       <use style="stroke:#000000;stroke-width:0.8;" x="149.78715" xlink:href="#m654df4ee39" y="239.758125"/>
      </g>
     </g>
     <g id="text_3">
      <!-- 4 -->
      <g transform="translate(146.6059 254.356562)scale(0.1 -0.1)">
       <defs>
        <path d="M 37.796875 64.3125 
L 12.890625 25.390625 
L 37.796875 25.390625 
z
M 35.203125 72.90625 
L 47.609375 72.90625 
L 47.609375 25.390625 
L 58.015625 25.390625 
L 58.015625 17.1875 
L 47.609375 17.1875 
L 47.609375 0 
L 37.796875 0 
L 37.796875 17.1875 
L 4.890625 17.1875 
L 4.890625 26.703125 
z
" id="DejaVuSans-52"/>
       </defs>
       <use xlink:href="#DejaVuSans-52"/>
      </g>
     </g>
    </g>
    <g id="xtick_4">
     <g id="line2d_4">
      <g>
       <use style="stroke:#000000;stroke-width:0.8;" x="190.23493" xlink:href="#m654df4ee39" y="239.758125"/>
      </g>
     </g>
     <g id="text_4">
      <!-- 6 -->
      <g transform="translate(187.05368 254.356562)scale(0.1 -0.1)">
       <defs>
        <path d="M 33.015625 40.375 
Q 26.375 40.375 22.484375 35.828125 
Q 18.609375 31.296875 18.609375 23.390625 
Q 18.609375 15.53125 22.484375 10.953125 
Q 26.375 6.390625 33.015625 6.390625 
Q 39.65625 6.390625 43.53125 10.953125 
Q 47.40625 15.53125 47.40625 23.390625 
Q 47.40625 31.296875 43.53125 35.828125 
Q 39.65625 40.375 33.015625 40.375 
z
M 52.59375 71.296875 
L 52.59375 62.3125 
Q 48.875 64.0625 45.09375 64.984375 
Q 41.3125 65.921875 37.59375 65.921875 
Q 27.828125 65.921875 22.671875 59.328125 
Q 17.53125 52.734375 16.796875 39.40625 
Q 19.671875 43.65625 24.015625 45.921875 
Q 28.375 48.1875 33.59375 48.1875 
Q 44.578125 48.1875 50.953125 41.515625 
Q 57.328125 34.859375 57.328125 23.390625 
Q 57.328125 12.15625 50.6875 5.359375 
Q 44.046875 -1.421875 33.015625 -1.421875 
Q 20.359375 -1.421875 13.671875 8.265625 
Q 6.984375 17.96875 6.984375 36.375 
Q 6.984375 53.65625 15.1875 63.9375 
Q 23.390625 74.21875 37.203125 74.21875 
Q 40.921875 74.21875 44.703125 73.484375 
Q 48.484375 72.75 52.59375 71.296875 
z
" id="DejaVuSans-54"/>
       </defs>
       <use xlink:href="#DejaVuSans-54"/>
      </g>
     </g>
    </g>
    <g id="xtick_5">
     <g id="line2d_5">
      <g>
       <use style="stroke:#000000;stroke-width:0.8;" x="230.68271" xlink:href="#m654df4ee39" y="239.758125"/>
      </g>
     </g>
     <g id="text_5">
      <!-- 8 -->
      <g transform="translate(227.50146 254.356562)scale(0.1 -0.1)">
       <defs>
        <path d="M 31.78125 34.625 
Q 24.75 34.625 20.71875 30.859375 
Q 16.703125 27.09375 16.703125 20.515625 
Q 16.703125 13.921875 20.71875 10.15625 
Q 24.75 6.390625 31.78125 6.390625 
Q 38.8125 6.390625 42.859375 10.171875 
Q 46.921875 13.96875 46.921875 20.515625 
Q 46.921875 27.09375 42.890625 30.859375 
Q 38.875 34.625 31.78125 34.625 
z
M 21.921875 38.8125 
Q 15.578125 40.375 12.03125 44.71875 
Q 8.5 49.078125 8.5 55.328125 
Q 8.5 64.0625 14.71875 69.140625 
Q 20.953125 74.21875 31.78125 74.21875 
Q 42.671875 74.21875 48.875 69.140625 
Q 55.078125 64.0625 55.078125 55.328125 
Q 55.078125 49.078125 51.53125 44.71875 
Q 48 40.375 41.703125 38.8125 
Q 48.828125 37.15625 52.796875 32.3125 
Q 56.78125 27.484375 56.78125 20.515625 
Q 56.78125 9.90625 50.3125 4.234375 
Q 43.84375 -1.421875 31.78125 -1.421875 
Q 19.734375 -1.421875 13.25 4.234375 
Q 6.78125 9.90625 6.78125 20.515625 
Q 6.78125 27.484375 10.78125 32.3125 
Q 14.796875 37.15625 21.921875 38.8125 
z
M 18.3125 54.390625 
Q 18.3125 48.734375 21.84375 45.5625 
Q 25.390625 42.390625 31.78125 42.390625 
Q 38.140625 42.390625 41.71875 45.5625 
Q 45.3125 48.734375 45.3125 54.390625 
Q 45.3125 60.0625 41.71875 63.234375 
Q 38.140625 66.40625 31.78125 66.40625 
Q 25.390625 66.40625 21.84375 63.234375 
Q 18.3125 60.0625 18.3125 54.390625 
z
" id="DejaVuSans-56"/>
       </defs>
       <use xlink:href="#DejaVuSans-56"/>
      </g>
     </g>
    </g>
    <g id="xtick_6">
     <g id="line2d_6">
      <g>
       <use style="stroke:#000000;stroke-width:0.8;" x="271.130491" xlink:href="#m654df4ee39" y="239.758125"/>
      </g>
     </g>
     <g id="text_6">
      <!-- 10 -->
      <g transform="translate(264.767991 254.356562)scale(0.1 -0.1)">
       <defs>
        <path d="M 12.40625 8.296875 
L 28.515625 8.296875 
L 28.515625 63.921875 
L 10.984375 60.40625 
L 10.984375 69.390625 
L 28.421875 72.90625 
L 38.28125 72.90625 
L 38.28125 8.296875 
L 54.390625 8.296875 
L 54.390625 0 
L 12.40625 0 
z
" id="DejaVuSans-49"/>
       </defs>
       <use xlink:href="#DejaVuSans-49"/>
       <use x="63.623047" xlink:href="#DejaVuSans-48"/>
      </g>
     </g>
    </g>
    <g id="xtick_7">
     <g id="line2d_7">
      <g>
       <use style="stroke:#000000;stroke-width:0.8;" x="311.578271" xlink:href="#m654df4ee39" y="239.758125"/>
      </g>
     </g>
     <g id="text_7">
      <!-- 12 -->
      <g transform="translate(305.215771 254.356562)scale(0.1 -0.1)">
       <use xlink:href="#DejaVuSans-49"/>
       <use x="63.623047" xlink:href="#DejaVuSans-50"/>
      </g>
     </g>
    </g>
    <g id="xtick_8">
     <g id="line2d_8">
      <g>
       <use style="stroke:#000000;stroke-width:0.8;" x="352.026051" xlink:href="#m654df4ee39" y="239.758125"/>
      </g>
     </g>
     <g id="text_8">
      <!-- 14 -->
      <g transform="translate(345.663551 254.356562)scale(0.1 -0.1)">
       <use xlink:href="#DejaVuSans-49"/>
       <use x="63.623047" xlink:href="#DejaVuSans-52"/>
      </g>
     </g>
    </g>
    <g id="text_9">
     <!-- Time (ms) -->
     <g transform="translate(195.528906 268.034687)scale(0.1 -0.1)">
      <defs>
       <path d="M -0.296875 72.90625 
L 61.375 72.90625 
L 61.375 64.59375 
L 35.5 64.59375 
L 35.5 0 
L 25.59375 0 
L 25.59375 64.59375 
L -0.296875 64.59375 
z
" id="DejaVuSans-84"/>
       <path d="M 9.421875 54.6875 
L 18.40625 54.6875 
L 18.40625 0 
L 9.421875 0 
z
M 9.421875 75.984375 
L 18.40625 75.984375 
L 18.40625 64.59375 
L 9.421875 64.59375 
z
" id="DejaVuSans-105"/>
       <path d="M 52 44.1875 
Q 55.375 50.25 60.0625 53.125 
Q 64.75 56 71.09375 56 
Q 79.640625 56 84.28125 50.015625 
Q 88.921875 44.046875 88.921875 33.015625 
L 88.921875 0 
L 79.890625 0 
L 79.890625 32.71875 
Q 79.890625 40.578125 77.09375 44.375 
Q 74.3125 48.1875 68.609375 48.1875 
Q 61.625 48.1875 57.5625 43.546875 
Q 53.515625 38.921875 53.515625 30.90625 
L 53.515625 0 
L 44.484375 0 
L 44.484375 32.71875 
Q 44.484375 40.625 41.703125 44.40625 
Q 38.921875 48.1875 33.109375 48.1875 
Q 26.21875 48.1875 22.15625 43.53125 
Q 18.109375 38.875 18.109375 30.90625 
L 18.109375 0 
L 9.078125 0 
L 9.078125 54.6875 
L 18.109375 54.6875 
L 18.109375 46.1875 
Q 21.1875 51.21875 25.484375 53.609375 
Q 29.78125 56 35.6875 56 
Q 41.65625 56 45.828125 52.96875 
Q 50 49.953125 52 44.1875 
z
" id="DejaVuSans-109"/>
       <path d="M 56.203125 29.59375 
L 56.203125 25.203125 
L 14.890625 25.203125 
Q 15.484375 15.921875 20.484375 11.0625 
Q 25.484375 6.203125 34.421875 6.203125 
Q 39.59375 6.203125 44.453125 7.46875 
Q 49.3125 8.734375 54.109375 11.28125 
L 54.109375 2.78125 
Q 49.265625 0.734375 44.1875 -0.34375 
Q 39.109375 -1.421875 33.890625 -1.421875 
Q 20.796875 -1.421875 13.15625 6.1875 
Q 5.515625 13.8125 5.515625 26.8125 
Q 5.515625 40.234375 12.765625 48.109375 
Q 20.015625 56 32.328125 56 
Q 43.359375 56 49.78125 48.890625 
Q 56.203125 41.796875 56.203125 29.59375 
z
M 47.21875 32.234375 
Q 47.125 39.59375 43.09375 43.984375 
Q 39.0625 48.390625 32.421875 48.390625 
Q 24.90625 48.390625 20.390625 44.140625 
Q 15.875 39.890625 15.1875 32.171875 
z
" id="DejaVuSans-101"/>
       <path id="DejaVuSans-32"/>
       <path d="M 31 75.875 
Q 24.46875 64.65625 21.28125 53.65625 
Q 18.109375 42.671875 18.109375 31.390625 
Q 18.109375 20.125 21.3125 9.0625 
Q 24.515625 -2 31 -13.1875 
L 23.1875 -13.1875 
Q 15.875 -1.703125 12.234375 9.375 
Q 8.59375 20.453125 8.59375 31.390625 
Q 8.59375 42.28125 12.203125 53.3125 
Q 15.828125 64.359375 23.1875 75.875 
z
" id="DejaVuSans-40"/>
       <path d="M 44.28125 53.078125 
L 44.28125 44.578125 
Q 40.484375 46.53125 36.375 47.5 
Q 32.28125 48.484375 27.875 48.484375 
Q 21.1875 48.484375 17.84375 46.4375 
Q 14.5 44.390625 14.5 40.28125 
Q 14.5 37.15625 16.890625 35.375 
Q 19.28125 33.59375 26.515625 31.984375 
L 29.59375 31.296875 
Q 39.15625 29.25 43.1875 25.515625 
Q 47.21875 21.78125 47.21875 15.09375 
Q 47.21875 7.46875 41.1875 3.015625 
Q 35.15625 -1.421875 24.609375 -1.421875 
Q 20.21875 -1.421875 15.453125 -0.5625 
Q 10.6875 0.296875 5.421875 2 
L 5.421875 11.28125 
Q 10.40625 8.6875 15.234375 7.390625 
Q 20.0625 6.109375 24.8125 6.109375 
Q 31.15625 6.109375 34.5625 8.28125 
Q 37.984375 10.453125 37.984375 14.40625 
Q 37.984375 18.0625 35.515625 20.015625 
Q 33.0625 21.96875 24.703125 23.78125 
L 21.578125 24.515625 
Q 13.234375 26.265625 9.515625 29.90625 
Q 5.8125 33.546875 5.8125 39.890625 
Q 5.8125 47.609375 11.28125 51.796875 
Q 16.75 56 26.8125 56 
Q 31.78125 56 36.171875 55.265625 
Q 40.578125 54.546875 44.28125 53.078125 
z
" id="DejaVuSans-115"/>
       <path d="M 8.015625 75.875 
L 15.828125 75.875 
Q 23.140625 64.359375 26.78125 53.3125 
Q 30.421875 42.28125 30.421875 31.390625 
Q 30.421875 20.453125 26.78125 9.375 
Q 23.140625 -1.703125 15.828125 -13.1875 
L 8.015625 -13.1875 
Q 14.5 -2 17.703125 9.0625 
Q 20.90625 20.125 20.90625 31.390625 
Q 20.90625 42.671875 17.703125 53.65625 
Q 14.5 64.65625 8.015625 75.875 
z
" id="DejaVuSans-41"/>
      </defs>
      <use xlink:href="#DejaVuSans-84"/>
      <use x="57.958984" xlink:href="#DejaVuSans-105"/>
      <use x="85.742188" xlink:href="#DejaVuSans-109"/>
      <use x="183.154297" xlink:href="#DejaVuSans-101"/>
      <use x="244.677734" xlink:href="#DejaVuSans-32"/>
      <use x="276.464844" xlink:href="#DejaVuSans-40"/>
      <use x="315.478516" xlink:href="#DejaVuSans-109"/>
      <use x="412.890625" xlink:href="#DejaVuSans-115"/>
      <use x="464.990234" xlink:href="#DejaVuSans-41"/>
     </g>
    </g>
   </g>
   <g id="matplotlib.axis_2">
    <g id="ytick_1">
     <g id="line2d_9">
      <defs>
       <path d="M 0 0 
L -3.5 0 
" id="md4511b632e" style="stroke:#000000;stroke-width:0.8;"/>
      </defs>
      <g>
       <use style="stroke:#000000;stroke-width:0.8;" x="53.328125" xlink:href="#md4511b632e" y="229.874489"/>
      </g>
     </g>
     <g id="text_10">
      <!-- 0 -->
      <g transform="translate(39.965625 233.673707)scale(0.1 -0.1)">
       <use xlink:href="#DejaVuSans-48"/>
      </g>
     </g>
    </g>
    <g id="ytick_2">
     <g id="line2d_10">
      <g>
       <use style="stroke:#000000;stroke-width:0.8;" x="53.328125" xlink:href="#md4511b632e" y="183.57657"/>
      </g>
     </g>
     <g id="text_11">
      <!-- 500 -->
      <g transform="translate(27.240625 187.375789)scale(0.1 -0.1)">
       <defs>
        <path d="M 10.796875 72.90625 
L 49.515625 72.90625 
L 49.515625 64.59375 
L 19.828125 64.59375 
L 19.828125 46.734375 
Q 21.96875 47.46875 24.109375 47.828125 
Q 26.265625 48.1875 28.421875 48.1875 
Q 40.625 48.1875 47.75 41.5 
Q 54.890625 34.8125 54.890625 23.390625 
Q 54.890625 11.625 47.5625 5.09375 
Q 40.234375 -1.421875 26.90625 -1.421875 
Q 22.3125 -1.421875 17.546875 -0.640625 
Q 12.796875 0.140625 7.71875 1.703125 
L 7.71875 11.625 
Q 12.109375 9.234375 16.796875 8.0625 
Q 21.484375 6.890625 26.703125 6.890625 
Q 35.15625 6.890625 40.078125 11.328125 
Q 45.015625 15.765625 45.015625 23.390625 
Q 45.015625 31 40.078125 35.4375 
Q 35.15625 39.890625 26.703125 39.890625 
Q 22.75 39.890625 18.8125 39.015625 
Q 14.890625 38.140625 10.796875 36.28125 
z
" id="DejaVuSans-53"/>
       </defs>
       <use xlink:href="#DejaVuSans-53"/>
       <use x="63.623047" xlink:href="#DejaVuSans-48"/>
       <use x="127.246094" xlink:href="#DejaVuSans-48"/>
      </g>
     </g>
    </g>
    <g id="ytick_3">
     <g id="line2d_11">
      <g>
       <use style="stroke:#000000;stroke-width:0.8;" x="53.328125" xlink:href="#md4511b632e" y="137.278651"/>
      </g>
     </g>
     <g id="text_12">
      <!-- 1000 -->
      <g transform="translate(20.878125 141.07787)scale(0.1 -0.1)">
       <use xlink:href="#DejaVuSans-49"/>
       <use x="63.623047" xlink:href="#DejaVuSans-48"/>
       <use x="127.246094" xlink:href="#DejaVuSans-48"/>
       <use x="190.869141" xlink:href="#DejaVuSans-48"/>
      </g>
     </g>
    </g>
    <g id="ytick_4">
     <g id="line2d_12">
      <g>
       <use style="stroke:#000000;stroke-width:0.8;" x="53.328125" xlink:href="#md4511b632e" y="90.980733"/>
      </g>
     </g>
     <g id="text_13">
      <!-- 1500 -->
      <g transform="translate(20.878125 94.779952)scale(0.1 -0.1)">
       <use xlink:href="#DejaVuSans-49"/>
       <use x="63.623047" xlink:href="#DejaVuSans-53"/>
       <use x="127.246094" xlink:href="#DejaVuSans-48"/>
       <use x="190.869141" xlink:href="#DejaVuSans-48"/>
      </g>
     </g>
    </g>
    <g id="ytick_5">
     <g id="line2d_13">
      <g>
       <use style="stroke:#000000;stroke-width:0.8;" x="53.328125" xlink:href="#md4511b632e" y="44.682814"/>
      </g>
     </g>
     <g id="text_14">
      <!-- 2000 -->
      <g transform="translate(20.878125 48.482033)scale(0.1 -0.1)">
       <use xlink:href="#DejaVuSans-50"/>
       <use x="63.623047" xlink:href="#DejaVuSans-48"/>
       <use x="127.246094" xlink:href="#DejaVuSans-48"/>
       <use x="190.869141" xlink:href="#DejaVuSans-48"/>
      </g>
     </g>
    </g>
    <g id="text_15">
     <!-- H2O ppm -->
     <g transform="translate(14.798438 154.723281)rotate(-90)scale(0.1 -0.1)">
      <defs>
       <path d="M 9.8125 72.90625 
L 19.671875 72.90625 
L 19.671875 43.015625 
L 55.515625 43.015625 
L 55.515625 72.90625 
L 65.375 72.90625 
L 65.375 0 
L 55.515625 0 
L 55.515625 34.71875 
L 19.671875 34.71875 
L 19.671875 0 
L 9.8125 0 
z
" id="DejaVuSans-72"/>
       <path d="M 39.40625 66.21875 
Q 28.65625 66.21875 22.328125 58.203125 
Q 16.015625 50.203125 16.015625 36.375 
Q 16.015625 22.609375 22.328125 14.59375 
Q 28.65625 6.59375 39.40625 6.59375 
Q 50.140625 6.59375 56.421875 14.59375 
Q 62.703125 22.609375 62.703125 36.375 
Q 62.703125 50.203125 56.421875 58.203125 
Q 50.140625 66.21875 39.40625 66.21875 
z
M 39.40625 74.21875 
Q 54.734375 74.21875 63.90625 63.9375 
Q 73.09375 53.65625 73.09375 36.375 
Q 73.09375 19.140625 63.90625 8.859375 
Q 54.734375 -1.421875 39.40625 -1.421875 
Q 24.03125 -1.421875 14.8125 8.828125 
Q 5.609375 19.09375 5.609375 36.375 
Q 5.609375 53.65625 14.8125 63.9375 
Q 24.03125 74.21875 39.40625 74.21875 
z
" id="DejaVuSans-79"/>
       <path d="M 18.109375 8.203125 
L 18.109375 -20.796875 
L 9.078125 -20.796875 
L 9.078125 54.6875 
L 18.109375 54.6875 
L 18.109375 46.390625 
Q 20.953125 51.265625 25.265625 53.625 
Q 29.59375 56 35.59375 56 
Q 45.5625 56 51.78125 48.09375 
Q 58.015625 40.1875 58.015625 27.296875 
Q 58.015625 14.40625 51.78125 6.484375 
Q 45.5625 -1.421875 35.59375 -1.421875 
Q 29.59375 -1.421875 25.265625 0.953125 
Q 20.953125 3.328125 18.109375 8.203125 
z
M 48.6875 27.296875 
Q 48.6875 37.203125 44.609375 42.84375 
Q 40.53125 48.484375 33.40625 48.484375 
Q 26.265625 48.484375 22.1875 42.84375 
Q 18.109375 37.203125 18.109375 27.296875 
Q 18.109375 17.390625 22.1875 11.75 
Q 26.265625 6.109375 33.40625 6.109375 
Q 40.53125 6.109375 44.609375 11.75 
Q 48.6875 17.390625 48.6875 27.296875 
z
" id="DejaVuSans-112"/>
      </defs>
      <use xlink:href="#DejaVuSans-72"/>
      <use x="75.195312" xlink:href="#DejaVuSans-50"/>
      <use x="138.818359" xlink:href="#DejaVuSans-79"/>
      <use x="217.529297" xlink:href="#DejaVuSans-32"/>
      <use x="249.316406" xlink:href="#DejaVuSans-112"/>
      <use x="312.792969" xlink:href="#DejaVuSans-112"/>
      <use x="376.269531" xlink:href="#DejaVuSans-109"/>
     </g>
    </g>
   </g>
   <g id="line2d_14">
    <path clip-path="url(#pd4dbadf63d)" d="M 68.546307 229.874489 
L 101.700392 229.767597 
L 107.502728 229.542117 
L 110.915866 229.218135 
L 113.646377 228.743961 
L 115.69426 228.180309 
L 117.400829 227.507526 
L 119.107398 226.576062 
L 120.472654 225.581886 
L 121.837909 224.299636 
L 123.203165 222.652253 
L 124.388251 220.854279 
L 125.551704 218.684189 
L 126.806573 215.805416 
L 127.957367 212.587186 
L 129.197501 208.400254 
L 130.362501 203.698265 
L 131.676458 197.407026 
L 132.990415 189.998949 
L 134.417895 180.667062 
L 136.080475 168.228702 
L 138.200058 150.480385 
L 143.708977 103.281357 
L 145.384869 91.093648 
L 146.873771 81.635531 
L 148.471001 72.956658 
L 150.022523 65.90248 
L 151.384722 60.716057 
L 152.705549 56.474965 
L 154.118946 52.675938 
L 155.532343 49.523115 
L 156.94574 46.908316 
L 158.359137 44.738049 
L 159.772533 42.93338 
L 161.48891 41.139843 
L 163.205286 39.694649 
L 164.921662 38.523733 
L 167.067133 37.359244 
L 169.212603 36.44901 
L 171.891732 35.576267 
L 174.975245 34.832828 
L 178.619849 34.201787 
L 182.918115 33.685302 
L 188.789796 33.225703 
L 196.492162 32.866473 
L 207.896444 32.58482 
L 226.221809 32.386688 
L 261.934293 32.263425 
L 364.406925 32.203097 
L 372.157025 32.201761 
L 372.157025 32.201761 
" style="fill:none;stroke:#0000ff;stroke-linecap:square;stroke-width:1.5;"/>
   </g>
   <g id="line2d_15">
    <path clip-path="url(#pd4dbadf63d)" d="M 68.891589 229.874489 
L 100.279389 229.770459 
L 105.507239 229.539535 
L 108.632521 229.188469 
L 110.905453 228.716262 
L 112.610152 228.162553 
L 114.09116 227.476619 
L 115.558029 226.535527 
L 116.815346 225.450313 
L 118.072662 224.02727 
L 119.120426 222.514584 
L 120.16819 220.634176 
L 121.215954 218.309076 
L 122.263718 215.452986 
L 123.356453 211.808053 
L 124.495738 207.1689 
L 125.667134 201.388764 
L 126.87529 194.255584 
L 128.130377 185.538884 
L 129.541789 174.214598 
L 131.387082 157.442348 
L 136.946492 105.405281 
L 138.508765 93.579982 
L 139.898874 84.650712 
L 141.175717 77.744753 
L 142.45256 71.977491 
L 143.729402 67.213034 
L 145.006245 63.304985 
L 146.283088 60.112508 
L 147.651191 57.342427 
L 149.019523 55.115032 
L 150.387855 53.320785 
L 151.756186 51.870807 
L 153.398185 50.486623 
L 155.040183 49.402217 
L 156.875822 48.457996 
L 159.065832 47.605137 
L 161.465249 46.915827 
L 164.380379 46.315801 
L 167.860157 45.824742 
L 172.499862 45.404156 
L 178.997959 45.064283 
L 188.14415 44.822189 
L 204.143224 44.650625 
L 238.544525 44.553605 
L 368.493735 44.512779 
L 372.909943 44.512443 
L 372.909943 44.512443 
" style="fill:none;stroke:#ff0000;stroke-linecap:square;stroke-width:1.5;"/>
   </g>
   <g id="line2d_16">
    <defs>
     <path d="M 0 3 
C 0.795609 3 1.55874 2.683901 2.12132 2.12132 
C 2.683901 1.55874 3 0.795609 3 0 
C 3 -0.795609 2.683901 -1.55874 2.12132 -2.12132 
C 1.55874 -2.683901 0.795609 -3 0 -3 
C -0.795609 -3 -1.55874 -2.683901 -2.12132 -2.12132 
C -2.683901 -1.55874 -3 -0.795609 -3 0 
C -3 0.795609 -2.683901 1.55874 -2.12132 2.12132 
C -1.55874 2.683901 -0.795609 3 0 3 
z
" id="m46080cfdea" style="stroke:#000000;"/>
    </defs>
    <g clip-path="url(#pd4dbadf63d)">
     <use style="stroke:#000000;" x="119.289523" xlink:href="#m46080cfdea" y="225.061315"/>
     <use style="stroke:#000000;" x="119.370419" xlink:href="#m46080cfdea" y="226.438728"/>
     <use style="stroke:#000000;" x="119.451314" xlink:href="#m46080cfdea" y="223.682552"/>
     <use style="stroke:#000000;" x="119.53221" xlink:href="#m46080cfdea" y="228.27368"/>
     <use style="stroke:#000000;" x="119.613105" xlink:href="#m46080cfdea" y="225.97999"/>
     <use style="stroke:#000000;" x="119.694001" xlink:href="#m46080cfdea" y="226.438728"/>
     <use style="stroke:#000000;" x="119.774897" xlink:href="#m46080cfdea" y="226.438728"/>
     <use style="stroke:#000000;" x="119.855792" xlink:href="#m46080cfdea" y="227.356503"/>
     <use style="stroke:#000000;" x="119.936688" xlink:href="#m46080cfdea" y="225.97999"/>
     <use style="stroke:#000000;" x="120.017583" xlink:href="#m46080cfdea" y="225.521104"/>
     <use style="stroke:#000000;" x="120.098479" xlink:href="#m46080cfdea" y="227.356503"/>
     <use style="stroke:#000000;" x="120.179374" xlink:href="#m46080cfdea" y="225.521104"/>
     <use style="stroke:#000000;" x="120.26027" xlink:href="#m46080cfdea" y="226.438728"/>
     <use style="stroke:#000000;" x="120.341165" xlink:href="#m46080cfdea" y="224.602129"/>
     <use style="stroke:#000000;" x="120.422061" xlink:href="#m46080cfdea" y="227.814791"/>
     <use style="stroke:#000000;" x="120.502957" xlink:href="#m46080cfdea" y="225.061315"/>
     <use style="stroke:#000000;" x="120.583852" xlink:href="#m46080cfdea" y="225.97999"/>
     <use style="stroke:#000000;" x="120.664748" xlink:href="#m46080cfdea" y="224.142791"/>
     <use style="stroke:#000000;" x="120.745643" xlink:href="#m46080cfdea" y="225.521104"/>
     <use style="stroke:#000000;" x="120.826539" xlink:href="#m46080cfdea" y="226.898066"/>
     <use style="stroke:#000000;" x="120.907434" xlink:href="#m46080cfdea" y="225.521104"/>
     <use style="stroke:#000000;" x="120.98833" xlink:href="#m46080cfdea" y="225.061315"/>
     <use style="stroke:#000000;" x="121.069226" xlink:href="#m46080cfdea" y="225.521104"/>
     <use style="stroke:#000000;" x="121.150121" xlink:href="#m46080cfdea" y="226.438728"/>
     <use style="stroke:#000000;" x="121.231017" xlink:href="#m46080cfdea" y="224.602129"/>
     <use style="stroke:#000000;" x="121.311912" xlink:href="#m46080cfdea" y="224.602129"/>
     <use style="stroke:#000000;" x="121.392808" xlink:href="#m46080cfdea" y="225.521104"/>
     <use style="stroke:#000000;" x="121.473703" xlink:href="#m46080cfdea" y="226.438728"/>
     <use style="stroke:#000000;" x="121.554599" xlink:href="#m46080cfdea" y="225.521104"/>
     <use style="stroke:#000000;" x="121.635494" xlink:href="#m46080cfdea" y="226.438728"/>
     <use style="stroke:#000000;" x="121.71639" xlink:href="#m46080cfdea" y="223.222915"/>
     <use style="stroke:#000000;" x="121.797286" xlink:href="#m46080cfdea" y="225.97999"/>
     <use style="stroke:#000000;" x="121.878181" xlink:href="#m46080cfdea" y="223.682552"/>
     <use style="stroke:#000000;" x="121.959077" xlink:href="#m46080cfdea" y="225.061315"/>
     <use style="stroke:#000000;" x="122.039972" xlink:href="#m46080cfdea" y="227.356503"/>
     <use style="stroke:#000000;" x="122.120868" xlink:href="#m46080cfdea" y="224.142791"/>
     <use style="stroke:#000000;" x="122.201763" xlink:href="#m46080cfdea" y="225.061315"/>
     <use style="stroke:#000000;" x="122.282659" xlink:href="#m46080cfdea" y="223.682552"/>
     <use style="stroke:#000000;" x="122.363555" xlink:href="#m46080cfdea" y="224.142791"/>
     <use style="stroke:#000000;" x="122.44445" xlink:href="#m46080cfdea" y="225.521104"/>
     <use style="stroke:#000000;" x="122.525346" xlink:href="#m46080cfdea" y="223.682552"/>
     <use style="stroke:#000000;" x="122.606241" xlink:href="#m46080cfdea" y="219.538129"/>
     <use style="stroke:#000000;" x="122.687137" xlink:href="#m46080cfdea" y="224.142791"/>
     <use style="stroke:#000000;" x="122.768032" xlink:href="#m46080cfdea" y="225.521104"/>
     <use style="stroke:#000000;" x="122.848928" xlink:href="#m46080cfdea" y="223.222915"/>
     <use style="stroke:#000000;" x="122.929823" xlink:href="#m46080cfdea" y="222.302434"/>
     <use style="stroke:#000000;" x="123.010719" xlink:href="#m46080cfdea" y="223.222915"/>
     <use style="stroke:#000000;" x="123.091615" xlink:href="#m46080cfdea" y="222.302434"/>
     <use style="stroke:#000000;" x="123.17251" xlink:href="#m46080cfdea" y="221.842346"/>
     <use style="stroke:#000000;" x="123.253406" xlink:href="#m46080cfdea" y="220.920962"/>
     <use style="stroke:#000000;" x="123.334301" xlink:href="#m46080cfdea" y="219.538129"/>
     <use style="stroke:#000000;" x="123.415197" xlink:href="#m46080cfdea" y="220.920962"/>
     <use style="stroke:#000000;" x="123.496092" xlink:href="#m46080cfdea" y="218.615232"/>
     <use style="stroke:#000000;" x="123.576988" xlink:href="#m46080cfdea" y="220.920962"/>
     <use style="stroke:#000000;" x="123.657883" xlink:href="#m46080cfdea" y="219.538129"/>
     <use style="stroke:#000000;" x="123.738779" xlink:href="#m46080cfdea" y="221.382107"/>
     <use style="stroke:#000000;" x="123.819675" xlink:href="#m46080cfdea" y="219.999728"/>
     <use style="stroke:#000000;" x="123.90057" xlink:href="#m46080cfdea" y="220.46042"/>
     <use style="stroke:#000000;" x="123.981466" xlink:href="#m46080cfdea" y="218.615232"/>
     <use style="stroke:#000000;" x="124.062361" xlink:href="#m46080cfdea" y="219.077134"/>
     <use style="stroke:#000000;" x="124.143257" xlink:href="#m46080cfdea" y="216.768377"/>
     <use style="stroke:#000000;" x="124.224152" xlink:href="#m46080cfdea" y="220.46042"/>
     <use style="stroke:#000000;" x="124.305048" xlink:href="#m46080cfdea" y="220.46042"/>
     <use style="stroke:#000000;" x="124.385944" xlink:href="#m46080cfdea" y="218.615232"/>
     <use style="stroke:#000000;" x="124.466839" xlink:href="#m46080cfdea" y="218.615232"/>
     <use style="stroke:#000000;" x="124.547735" xlink:href="#m46080cfdea" y="219.077134"/>
     <use style="stroke:#000000;" x="124.62863" xlink:href="#m46080cfdea" y="217.230129"/>
     <use style="stroke:#000000;" x="124.709526" xlink:href="#m46080cfdea" y="219.077134"/>
     <use style="stroke:#000000;" x="124.790421" xlink:href="#m46080cfdea" y="218.615232"/>
     <use style="stroke:#000000;" x="124.871317" xlink:href="#m46080cfdea" y="216.306472"/>
     <use style="stroke:#000000;" x="124.952212" xlink:href="#m46080cfdea" y="218.153935"/>
     <use style="stroke:#000000;" x="125.033108" xlink:href="#m46080cfdea" y="217.230129"/>
     <use style="stroke:#000000;" x="125.114004" xlink:href="#m46080cfdea" y="217.230129"/>
     <use style="stroke:#000000;" x="125.194899" xlink:href="#m46080cfdea" y="218.153935"/>
     <use style="stroke:#000000;" x="125.275795" xlink:href="#m46080cfdea" y="219.999728"/>
     <use style="stroke:#000000;" x="125.35669" xlink:href="#m46080cfdea" y="216.306472"/>
     <use style="stroke:#000000;" x="125.437586" xlink:href="#m46080cfdea" y="217.692486"/>
     <use style="stroke:#000000;" x="125.518481" xlink:href="#m46080cfdea" y="217.230129"/>
     <use style="stroke:#000000;" x="125.599377" xlink:href="#m46080cfdea" y="215.843659"/>
     <use style="stroke:#000000;" x="125.680273" xlink:href="#m46080cfdea" y="215.843659"/>
     <use style="stroke:#000000;" x="125.761168" xlink:href="#m46080cfdea" y="215.38145"/>
     <use style="stroke:#000000;" x="125.842064" xlink:href="#m46080cfdea" y="215.843659"/>
     <use style="stroke:#000000;" x="125.922959" xlink:href="#m46080cfdea" y="216.768377"/>
     <use style="stroke:#000000;" x="126.003855" xlink:href="#m46080cfdea" y="218.615232"/>
     <use style="stroke:#000000;" x="126.08475" xlink:href="#m46080cfdea" y="216.306472"/>
     <use style="stroke:#000000;" x="126.165646" xlink:href="#m46080cfdea" y="214.919091"/>
     <use style="stroke:#000000;" x="126.246541" xlink:href="#m46080cfdea" y="216.306472"/>
     <use style="stroke:#000000;" x="126.327437" xlink:href="#m46080cfdea" y="213.066609"/>
     <use style="stroke:#000000;" x="126.408333" xlink:href="#m46080cfdea" y="215.843659"/>
     <use style="stroke:#000000;" x="126.489228" xlink:href="#m46080cfdea" y="213.993155"/>
     <use style="stroke:#000000;" x="126.570124" xlink:href="#m46080cfdea" y="213.530338"/>
     <use style="stroke:#000000;" x="126.651019" xlink:href="#m46080cfdea" y="213.993155"/>
     <use style="stroke:#000000;" x="126.731915" xlink:href="#m46080cfdea" y="212.603487"/>
     <use style="stroke:#000000;" x="126.81281" xlink:href="#m46080cfdea" y="212.140212"/>
     <use style="stroke:#000000;" x="126.893706" xlink:href="#m46080cfdea" y="214.45582"/>
     <use style="stroke:#000000;" x="126.974601" xlink:href="#m46080cfdea" y="213.066609"/>
     <use style="stroke:#000000;" x="127.055497" xlink:href="#m46080cfdea" y="213.066609"/>
     <use style="stroke:#000000;" x="127.136393" xlink:href="#m46080cfdea" y="212.603487"/>
     <use style="stroke:#000000;" x="127.217288" xlink:href="#m46080cfdea" y="211.676024"/>
     <use style="stroke:#000000;" x="127.298184" xlink:href="#m46080cfdea" y="209.355068"/>
     <use style="stroke:#000000;" x="127.379079" xlink:href="#m46080cfdea" y="210.74795"/>
     <use style="stroke:#000000;" x="127.459975" xlink:href="#m46080cfdea" y="211.676024"/>
     <use style="stroke:#000000;" x="127.54087" xlink:href="#m46080cfdea" y="211.212444"/>
     <use style="stroke:#000000;" x="127.621766" xlink:href="#m46080cfdea" y="211.212444"/>
     <use style="stroke:#000000;" x="127.702662" xlink:href="#m46080cfdea" y="208.890721"/>
     <use style="stroke:#000000;" x="127.783557" xlink:href="#m46080cfdea" y="209.820022"/>
     <use style="stroke:#000000;" x="127.864453" xlink:href="#m46080cfdea" y="210.74795"/>
     <use style="stroke:#000000;" x="127.945348" xlink:href="#m46080cfdea" y="208.42622"/>
     <use style="stroke:#000000;" x="128.026244" xlink:href="#m46080cfdea" y="206.565157"/>
     <use style="stroke:#000000;" x="128.107139" xlink:href="#m46080cfdea" y="207.960804"/>
     <use style="stroke:#000000;" x="128.188035" xlink:href="#m46080cfdea" y="208.890721"/>
     <use style="stroke:#000000;" x="128.26893" xlink:href="#m46080cfdea" y="207.960804"/>
     <use style="stroke:#000000;" x="128.349826" xlink:href="#m46080cfdea" y="207.031034"/>
     <use style="stroke:#000000;" x="128.430722" xlink:href="#m46080cfdea" y="206.565157"/>
     <use style="stroke:#000000;" x="128.511617" xlink:href="#m46080cfdea" y="205.634463"/>
     <use style="stroke:#000000;" x="128.592513" xlink:href="#m46080cfdea" y="207.031034"/>
     <use style="stroke:#000000;" x="128.673408" xlink:href="#m46080cfdea" y="206.099887"/>
     <use style="stroke:#000000;" x="128.754304" xlink:href="#m46080cfdea" y="206.099887"/>
     <use style="stroke:#000000;" x="128.835199" xlink:href="#m46080cfdea" y="204.236502"/>
     <use style="stroke:#000000;" x="128.916095" xlink:href="#m46080cfdea" y="205.168122"/>
     <use style="stroke:#000000;" x="128.99699" xlink:href="#m46080cfdea" y="207.495996"/>
     <use style="stroke:#000000;" x="129.077886" xlink:href="#m46080cfdea" y="202.369879"/>
     <use style="stroke:#000000;" x="129.158782" xlink:href="#m46080cfdea" y="204.70239"/>
     <use style="stroke:#000000;" x="129.239677" xlink:href="#m46080cfdea" y="201.435638"/>
     <use style="stroke:#000000;" x="129.320573" xlink:href="#m46080cfdea" y="204.236502"/>
     <use style="stroke:#000000;" x="129.401468" xlink:href="#m46080cfdea" y="203.303501"/>
     <use style="stroke:#000000;" x="129.482364" xlink:href="#m46080cfdea" y="202.836386"/>
     <use style="stroke:#000000;" x="129.563259" xlink:href="#m46080cfdea" y="203.769697"/>
     <use style="stroke:#000000;" x="129.644155" xlink:href="#m46080cfdea" y="200.501541"/>
     <use style="stroke:#000000;" x="129.725051" xlink:href="#m46080cfdea" y="201.435638"/>
     <use style="stroke:#000000;" x="129.805946" xlink:href="#m46080cfdea" y="199.566056"/>
     <use style="stroke:#000000;" x="129.886842" xlink:href="#m46080cfdea" y="200.033493"/>
     <use style="stroke:#000000;" x="129.967737" xlink:href="#m46080cfdea" y="200.033493"/>
     <use style="stroke:#000000;" x="130.048633" xlink:href="#m46080cfdea" y="198.629948"/>
     <use style="stroke:#000000;" x="130.129528" xlink:href="#m46080cfdea" y="199.098464"/>
     <use style="stroke:#000000;" x="130.210424" xlink:href="#m46080cfdea" y="196.756628"/>
     <use style="stroke:#000000;" x="130.291319" xlink:href="#m46080cfdea" y="200.501541"/>
     <use style="stroke:#000000;" x="130.372215" xlink:href="#m46080cfdea" y="198.162044"/>
     <use style="stroke:#000000;" x="130.453111" xlink:href="#m46080cfdea" y="201.435638"/>
     <use style="stroke:#000000;" x="130.534006" xlink:href="#m46080cfdea" y="195.349806"/>
     <use style="stroke:#000000;" x="130.614902" xlink:href="#m46080cfdea" y="195.818647"/>
     <use style="stroke:#000000;" x="130.695797" xlink:href="#m46080cfdea" y="194.880809"/>
     <use style="stroke:#000000;" x="130.776693" xlink:href="#m46080cfdea" y="193.941574"/>
     <use style="stroke:#000000;" x="130.857588" xlink:href="#m46080cfdea" y="195.818647"/>
     <use style="stroke:#000000;" x="130.938484" xlink:href="#m46080cfdea" y="194.880809"/>
     <use style="stroke:#000000;" x="131.01938" xlink:href="#m46080cfdea" y="192.061221"/>
     <use style="stroke:#000000;" x="131.100275" xlink:href="#m46080cfdea" y="194.410885"/>
     <use style="stroke:#000000;" x="131.181171" xlink:href="#m46080cfdea" y="193.471337"/>
     <use style="stroke:#000000;" x="131.262066" xlink:href="#m46080cfdea" y="193.471337"/>
     <use style="stroke:#000000;" x="131.342962" xlink:href="#m46080cfdea" y="191.591125"/>
     <use style="stroke:#000000;" x="131.423857" xlink:href="#m46080cfdea" y="190.17912"/>
     <use style="stroke:#000000;" x="131.504753" xlink:href="#m46080cfdea" y="189.236738"/>
     <use style="stroke:#000000;" x="131.585648" xlink:href="#m46080cfdea" y="191.120871"/>
     <use style="stroke:#000000;" x="131.666544" xlink:href="#m46080cfdea" y="191.120871"/>
     <use style="stroke:#000000;" x="131.74744" xlink:href="#m46080cfdea" y="190.17912"/>
     <use style="stroke:#000000;" x="131.828335" xlink:href="#m46080cfdea" y="187.35085"/>
     <use style="stroke:#000000;" x="131.909231" xlink:href="#m46080cfdea" y="189.708394"/>
     <use style="stroke:#000000;" x="131.990126" xlink:href="#m46080cfdea" y="187.822365"/>
     <use style="stroke:#000000;" x="132.071022" xlink:href="#m46080cfdea" y="188.765696"/>
     <use style="stroke:#000000;" x="132.151917" xlink:href="#m46080cfdea" y="184.516876"/>
     <use style="stroke:#000000;" x="132.232813" xlink:href="#m46080cfdea" y="184.989344"/>
     <use style="stroke:#000000;" x="132.313708" xlink:href="#m46080cfdea" y="186.406568"/>
     <use style="stroke:#000000;" x="132.394604" xlink:href="#m46080cfdea" y="184.043474"/>
     <use style="stroke:#000000;" x="132.4755" xlink:href="#m46080cfdea" y="183.570688"/>
     <use style="stroke:#000000;" x="132.556395" xlink:href="#m46080cfdea" y="183.570688"/>
     <use style="stroke:#000000;" x="132.637291" xlink:href="#m46080cfdea" y="184.043474"/>
     <use style="stroke:#000000;" x="132.718186" xlink:href="#m46080cfdea" y="182.150601"/>
     <use style="stroke:#000000;" x="132.799082" xlink:href="#m46080cfdea" y="180.729076"/>
     <use style="stroke:#000000;" x="132.879977" xlink:href="#m46080cfdea" y="182.150601"/>
     <use style="stroke:#000000;" x="132.960873" xlink:href="#m46080cfdea" y="181.202818"/>
     <use style="stroke:#000000;" x="133.041769" xlink:href="#m46080cfdea" y="182.623864"/>
     <use style="stroke:#000000;" x="133.122664" xlink:href="#m46080cfdea" y="178.356409"/>
     <use style="stroke:#000000;" x="133.20356" xlink:href="#m46080cfdea" y="178.83173"/>
     <use style="stroke:#000000;" x="133.284455" xlink:href="#m46080cfdea" y="177.406844"/>
     <use style="stroke:#000000;" x="133.365351" xlink:href="#m46080cfdea" y="177.881707"/>
     <use style="stroke:#000000;" x="133.446246" xlink:href="#m46080cfdea" y="178.83173"/>
     <use style="stroke:#000000;" x="133.527142" xlink:href="#m46080cfdea" y="173.599809"/>
     <use style="stroke:#000000;" x="133.608037" xlink:href="#m46080cfdea" y="174.55195"/>
     <use style="stroke:#000000;" x="133.688933" xlink:href="#m46080cfdea" y="174.07596"/>
     <use style="stroke:#000000;" x="133.769829" xlink:href="#m46080cfdea" y="176.455857"/>
     <use style="stroke:#000000;" x="133.850724" xlink:href="#m46080cfdea" y="172.646243"/>
     <use style="stroke:#000000;" x="133.93162" xlink:href="#m46080cfdea" y="172.169606"/>
     <use style="stroke:#000000;" x="134.012515" xlink:href="#m46080cfdea" y="173.599809"/>
     <use style="stroke:#000000;" x="134.093411" xlink:href="#m46080cfdea" y="172.646243"/>
     <use style="stroke:#000000;" x="134.174306" xlink:href="#m46080cfdea" y="171.692028"/>
     <use style="stroke:#000000;" x="134.255202" xlink:href="#m46080cfdea" y="171.215068"/>
     <use style="stroke:#000000;" x="134.336098" xlink:href="#m46080cfdea" y="169.304828"/>
     <use style="stroke:#000000;" x="134.416993" xlink:href="#m46080cfdea" y="171.215068"/>
     <use style="stroke:#000000;" x="134.497889" xlink:href="#m46080cfdea" y="168.826274"/>
     <use style="stroke:#000000;" x="134.578784" xlink:href="#m46080cfdea" y="169.782436"/>
     <use style="stroke:#000000;" x="134.65968" xlink:href="#m46080cfdea" y="166.912783"/>
     <use style="stroke:#000000;" x="134.740575" xlink:href="#m46080cfdea" y="166.912783"/>
     <use style="stroke:#000000;" x="134.821471" xlink:href="#m46080cfdea" y="164.995898"/>
     <use style="stroke:#000000;" x="134.902366" xlink:href="#m46080cfdea" y="165.475757"/>
     <use style="stroke:#000000;" x="134.983262" xlink:href="#m46080cfdea" y="165.954667"/>
     <use style="stroke:#000000;" x="135.064158" xlink:href="#m46080cfdea" y="164.995898"/>
     <use style="stroke:#000000;" x="135.145053" xlink:href="#m46080cfdea" y="162.116447"/>
     <use style="stroke:#000000;" x="135.225949" xlink:href="#m46080cfdea" y="162.116447"/>
     <use style="stroke:#000000;" x="135.306844" xlink:href="#m46080cfdea" y="162.59729"/>
     <use style="stroke:#000000;" x="135.38774" xlink:href="#m46080cfdea" y="161.636226"/>
     <use style="stroke:#000000;" x="135.468635" xlink:href="#m46080cfdea" y="160.674506"/>
     <use style="stroke:#000000;" x="135.549531" xlink:href="#m46080cfdea" y="161.155842"/>
     <use style="stroke:#000000;" x="135.630426" xlink:href="#m46080cfdea" y="162.116447"/>
     <use style="stroke:#000000;" x="135.711322" xlink:href="#m46080cfdea" y="160.193792"/>
     <use style="stroke:#000000;" x="135.792218" xlink:href="#m46080cfdea" y="156.339787"/>
     <use style="stroke:#000000;" x="135.873113" xlink:href="#m46080cfdea" y="157.786179"/>
     <use style="stroke:#000000;" x="135.954009" xlink:href="#m46080cfdea" y="156.82182"/>
     <use style="stroke:#000000;" x="136.034904" xlink:href="#m46080cfdea" y="154.40921"/>
     <use style="stroke:#000000;" x="136.1158" xlink:href="#m46080cfdea" y="154.891906"/>
     <use style="stroke:#000000;" x="136.196695" xlink:href="#m46080cfdea" y="156.339787"/>
     <use style="stroke:#000000;" x="136.277591" xlink:href="#m46080cfdea" y="152.959338"/>
     <use style="stroke:#000000;" x="136.358487" xlink:href="#m46080cfdea" y="151.99166"/>
     <use style="stroke:#000000;" x="136.439382" xlink:href="#m46080cfdea" y="152.959338"/>
     <use style="stroke:#000000;" x="136.520278" xlink:href="#m46080cfdea" y="150.054304"/>
     <use style="stroke:#000000;" x="136.601173" xlink:href="#m46080cfdea" y="146.173155"/>
     <use style="stroke:#000000;" x="136.682069" xlink:href="#m46080cfdea" y="150.53929"/>
     <use style="stroke:#000000;" x="136.762964" xlink:href="#m46080cfdea" y="150.53929"/>
     <use style="stroke:#000000;" x="136.84386" xlink:href="#m46080cfdea" y="147.63004"/>
     <use style="stroke:#000000;" x="136.924755" xlink:href="#m46080cfdea" y="151.507968"/>
     <use style="stroke:#000000;" x="137.005651" xlink:href="#m46080cfdea" y="145.686659"/>
     <use style="stroke:#000000;" x="137.086547" xlink:href="#m46080cfdea" y="147.63004"/>
     <use style="stroke:#000000;" x="137.167442" xlink:href="#m46080cfdea" y="143.254845"/>
     <use style="stroke:#000000;" x="137.248338" xlink:href="#m46080cfdea" y="144.714757"/>
     <use style="stroke:#000000;" x="137.329233" xlink:href="#m46080cfdea" y="143.741385"/>
     <use style="stroke:#000000;" x="137.410129" xlink:href="#m46080cfdea" y="142.767338"/>
     <use style="stroke:#000000;" x="137.491024" xlink:href="#m46080cfdea" y="140.329664"/>
     <use style="stroke:#000000;" x="137.57192" xlink:href="#m46080cfdea" y="140.818017"/>
     <use style="stroke:#000000;" x="137.652815" xlink:href="#m46080cfdea" y="140.818017"/>
     <use style="stroke:#000000;" x="137.733711" xlink:href="#m46080cfdea" y="138.376958"/>
     <use style="stroke:#000000;" x="137.814607" xlink:href="#m46080cfdea" y="139.35405"/>
     <use style="stroke:#000000;" x="137.895502" xlink:href="#m46080cfdea" y="138.865189"/>
     <use style="stroke:#000000;" x="137.976398" xlink:href="#m46080cfdea" y="138.865189"/>
     <use style="stroke:#000000;" x="138.057293" xlink:href="#m46080cfdea" y="137.399184"/>
     <use style="stroke:#000000;" x="138.138189" xlink:href="#m46080cfdea" y="135.442399"/>
     <use style="stroke:#000000;" x="138.219084" xlink:href="#m46080cfdea" y="135.442399"/>
     <use style="stroke:#000000;" x="138.29998" xlink:href="#m46080cfdea" y="135.442399"/>
     <use style="stroke:#000000;" x="138.380876" xlink:href="#m46080cfdea" y="132.501703"/>
     <use style="stroke:#000000;" x="138.461771" xlink:href="#m46080cfdea" y="132.501703"/>
     <use style="stroke:#000000;" x="138.542667" xlink:href="#m46080cfdea" y="133.97282"/>
     <use style="stroke:#000000;" x="138.623562" xlink:href="#m46080cfdea" y="133.482886"/>
     <use style="stroke:#000000;" x="138.704458" xlink:href="#m46080cfdea" y="132.501703"/>
     <use style="stroke:#000000;" x="138.785353" xlink:href="#m46080cfdea" y="130.046144"/>
     <use style="stroke:#000000;" x="138.866249" xlink:href="#m46080cfdea" y="129.55484"/>
     <use style="stroke:#000000;" x="138.947144" xlink:href="#m46080cfdea" y="130.046144"/>
     <use style="stroke:#000000;" x="139.02804" xlink:href="#m46080cfdea" y="128.570909"/>
     <use style="stroke:#000000;" x="139.108936" xlink:href="#m46080cfdea" y="126.108469"/>
     <use style="stroke:#000000;" x="139.189831" xlink:href="#m46080cfdea" y="126.108469"/>
     <use style="stroke:#000000;" x="139.270727" xlink:href="#m46080cfdea" y="124.135892"/>
     <use style="stroke:#000000;" x="139.351622" xlink:href="#m46080cfdea" y="122.654437"/>
     <use style="stroke:#000000;" x="139.432518" xlink:href="#m46080cfdea" y="124.629093"/>
     <use style="stroke:#000000;" x="139.513413" xlink:href="#m46080cfdea" y="122.654437"/>
     <use style="stroke:#000000;" x="139.594309" xlink:href="#m46080cfdea" y="122.159732"/>
     <use style="stroke:#000000;" x="139.675205" xlink:href="#m46080cfdea" y="120.676193"/>
     <use style="stroke:#000000;" x="139.7561" xlink:href="#m46080cfdea" y="119.191085"/>
     <use style="stroke:#000000;" x="139.836996" xlink:href="#m46080cfdea" y="118.200683"/>
     <use style="stroke:#000000;" x="139.917891" xlink:href="#m46080cfdea" y="118.695972"/>
     <use style="stroke:#000000;" x="139.998787" xlink:href="#m46080cfdea" y="117.704407"/>
     <use style="stroke:#000000;" x="140.079682" xlink:href="#m46080cfdea" y="117.208769"/>
     <use style="stroke:#000000;" x="140.160578" xlink:href="#m46080cfdea" y="117.208769"/>
     <use style="stroke:#000000;" x="140.241473" xlink:href="#m46080cfdea" y="114.726326"/>
     <use style="stroke:#000000;" x="140.322369" xlink:href="#m46080cfdea" y="116.216156"/>
     <use style="stroke:#000000;" x="140.403265" xlink:href="#m46080cfdea" y="116.216156"/>
     <use style="stroke:#000000;" x="140.48416" xlink:href="#m46080cfdea" y="117.704407"/>
     <use style="stroke:#000000;" x="140.565056" xlink:href="#m46080cfdea" y="115.223655"/>
     <use style="stroke:#000000;" x="140.645951" xlink:href="#m46080cfdea" y="114.229637"/>
     <use style="stroke:#000000;" x="140.726847" xlink:href="#m46080cfdea" y="113.234916"/>
     <use style="stroke:#000000;" x="140.807742" xlink:href="#m46080cfdea" y="112.7377"/>
     <use style="stroke:#000000;" x="140.888638" xlink:href="#m46080cfdea" y="108.252362"/>
     <use style="stroke:#000000;" x="140.969533" xlink:href="#m46080cfdea" y="109.249797"/>
     <use style="stroke:#000000;" x="141.050429" xlink:href="#m46080cfdea" y="110.24734"/>
     <use style="stroke:#000000;" x="141.131325" xlink:href="#m46080cfdea" y="110.24734"/>
     <use style="stroke:#000000;" x="141.21222" xlink:href="#m46080cfdea" y="108.252362"/>
     <use style="stroke:#000000;" x="141.293116" xlink:href="#m46080cfdea" y="106.25373"/>
     <use style="stroke:#000000;" x="141.374011" xlink:href="#m46080cfdea" y="106.754063"/>
     <use style="stroke:#000000;" x="141.454907" xlink:href="#m46080cfdea" y="108.252362"/>
     <use style="stroke:#000000;" x="141.535802" xlink:href="#m46080cfdea" y="105.253347"/>
     <use style="stroke:#000000;" x="141.616698" xlink:href="#m46080cfdea" y="106.754063"/>
     <use style="stroke:#000000;" x="141.697594" xlink:href="#m46080cfdea" y="104.753298"/>
     <use style="stroke:#000000;" x="141.778489" xlink:href="#m46080cfdea" y="104.253071"/>
     <use style="stroke:#000000;" x="141.859385" xlink:href="#m46080cfdea" y="104.253071"/>
     <use style="stroke:#000000;" x="141.94028" xlink:href="#m46080cfdea" y="106.25373"/>
     <use style="stroke:#000000;" x="142.021176" xlink:href="#m46080cfdea" y="100.744025"/>
     <use style="stroke:#000000;" x="142.102071" xlink:href="#m46080cfdea" y="102.750502"/>
     <use style="stroke:#000000;" x="142.182967" xlink:href="#m46080cfdea" y="103.751846"/>
     <use style="stroke:#000000;" x="142.263862" xlink:href="#m46080cfdea" y="103.251263"/>
     <use style="stroke:#000000;" x="142.344758" xlink:href="#m46080cfdea" y="102.24874"/>
     <use style="stroke:#000000;" x="142.425654" xlink:href="#m46080cfdea" y="102.24874"/>
     <use style="stroke:#000000;" x="142.506549" xlink:href="#m46080cfdea" y="100.242369"/>
     <use style="stroke:#000000;" x="142.587445" xlink:href="#m46080cfdea" y="100.242369"/>
     <use style="stroke:#000000;" x="142.66834" xlink:href="#m46080cfdea" y="99.740534"/>
     <use style="stroke:#000000;" x="142.749236" xlink:href="#m46080cfdea" y="97.227021"/>
     <use style="stroke:#000000;" x="142.830131" xlink:href="#m46080cfdea" y="96.220191"/>
     <use style="stroke:#000000;" x="142.911027" xlink:href="#m46080cfdea" y="97.729754"/>
     <use style="stroke:#000000;" x="142.991923" xlink:href="#m46080cfdea" y="98.735504"/>
     <use style="stroke:#000000;" x="143.072818" xlink:href="#m46080cfdea" y="96.724108"/>
     <use style="stroke:#000000;" x="143.153714" xlink:href="#m46080cfdea" y="94.709004"/>
     <use style="stroke:#000000;" x="143.234609" xlink:href="#m46080cfdea" y="94.20519"/>
     <use style="stroke:#000000;" x="143.315505" xlink:href="#m46080cfdea" y="92.691835"/>
     <use style="stroke:#000000;" x="143.3964" xlink:href="#m46080cfdea" y="95.212639"/>
     <use style="stroke:#000000;" x="143.477296" xlink:href="#m46080cfdea" y="90.165674"/>
     <use style="stroke:#000000;" x="143.558191" xlink:href="#m46080cfdea" y="90.670939"/>
     <use style="stroke:#000000;" x="143.639087" xlink:href="#m46080cfdea" y="90.670939"/>
     <use style="stroke:#000000;" x="143.719983" xlink:href="#m46080cfdea" y="91.176849"/>
     <use style="stroke:#000000;" x="143.800878" xlink:href="#m46080cfdea" y="90.670939"/>
     <use style="stroke:#000000;" x="143.881774" xlink:href="#m46080cfdea" y="91.176849"/>
     <use style="stroke:#000000;" x="143.962669" xlink:href="#m46080cfdea" y="91.176849"/>
     <use style="stroke:#000000;" x="144.043565" xlink:href="#m46080cfdea" y="89.660228"/>
     <use style="stroke:#000000;" x="144.12446" xlink:href="#m46080cfdea" y="87.128608"/>
     <use style="stroke:#000000;" x="144.205356" xlink:href="#m46080cfdea" y="86.114516"/>
     <use style="stroke:#000000;" x="144.286251" xlink:href="#m46080cfdea" y="87.634965"/>
     <use style="stroke:#000000;" x="144.367147" xlink:href="#m46080cfdea" y="88.14197"/>
     <use style="stroke:#000000;" x="144.448043" xlink:href="#m46080cfdea" y="87.128608"/>
     <use style="stroke:#000000;" x="144.528938" xlink:href="#m46080cfdea" y="87.634965"/>
     <use style="stroke:#000000;" x="144.609834" xlink:href="#m46080cfdea" y="87.634965"/>
     <use style="stroke:#000000;" x="144.690729" xlink:href="#m46080cfdea" y="84.59242"/>
     <use style="stroke:#000000;" x="144.771625" xlink:href="#m46080cfdea" y="84.084966"/>
     <use style="stroke:#000000;" x="144.85252" xlink:href="#m46080cfdea" y="84.59242"/>
     <use style="stroke:#000000;" x="144.933416" xlink:href="#m46080cfdea" y="85.099692"/>
     <use style="stroke:#000000;" x="145.014312" xlink:href="#m46080cfdea" y="84.084966"/>
     <use style="stroke:#000000;" x="145.095207" xlink:href="#m46080cfdea" y="82.051648"/>
     <use style="stroke:#000000;" x="145.176103" xlink:href="#m46080cfdea" y="78.996981"/>
     <use style="stroke:#000000;" x="145.256998" xlink:href="#m46080cfdea" y="80.016219"/>
     <use style="stroke:#000000;" x="145.337894" xlink:href="#m46080cfdea" y="78.996981"/>
     <use style="stroke:#000000;" x="145.418789" xlink:href="#m46080cfdea" y="80.016219"/>
     <use style="stroke:#000000;" x="145.499685" xlink:href="#m46080cfdea" y="76.95712"/>
     <use style="stroke:#000000;" x="145.58058" xlink:href="#m46080cfdea" y="79.50711"/>
     <use style="stroke:#000000;" x="145.661476" xlink:href="#m46080cfdea" y="81.543275"/>
     <use style="stroke:#000000;" x="145.742372" xlink:href="#m46080cfdea" y="81.034719"/>
     <use style="stroke:#000000;" x="145.823267" xlink:href="#m46080cfdea" y="77.467154"/>
     <use style="stroke:#000000;" x="145.904163" xlink:href="#m46080cfdea" y="77.467154"/>
     <use style="stroke:#000000;" x="145.985058" xlink:href="#m46080cfdea" y="78.487502"/>
     <use style="stroke:#000000;" x="146.065954" xlink:href="#m46080cfdea" y="77.977002"/>
     <use style="stroke:#000000;" x="146.146849" xlink:href="#m46080cfdea" y="78.487502"/>
     <use style="stroke:#000000;" x="146.227745" xlink:href="#m46080cfdea" y="75.93566"/>
     <use style="stroke:#000000;" x="146.30864" xlink:href="#m46080cfdea" y="75.93566"/>
     <use style="stroke:#000000;" x="146.389536" xlink:href="#m46080cfdea" y="76.95712"/>
     <use style="stroke:#000000;" x="146.470432" xlink:href="#m46080cfdea" y="75.93566"/>
     <use style="stroke:#000000;" x="146.551327" xlink:href="#m46080cfdea" y="73.379178"/>
     <use style="stroke:#000000;" x="146.632223" xlink:href="#m46080cfdea" y="73.89135"/>
     <use style="stroke:#000000;" x="146.713118" xlink:href="#m46080cfdea" y="69.792946"/>
     <use style="stroke:#000000;" x="146.794014" xlink:href="#m46080cfdea" y="73.379178"/>
     <use style="stroke:#000000;" x="146.874909" xlink:href="#m46080cfdea" y="73.89135"/>
     <use style="stroke:#000000;" x="146.955805" xlink:href="#m46080cfdea" y="75.42507"/>
     <use style="stroke:#000000;" x="147.036701" xlink:href="#m46080cfdea" y="72.867658"/>
     <use style="stroke:#000000;" x="147.117596" xlink:href="#m46080cfdea" y="72.355952"/>
     <use style="stroke:#000000;" x="147.198492" xlink:href="#m46080cfdea" y="71.331142"/>
     <use style="stroke:#000000;" x="147.279387" xlink:href="#m46080cfdea" y="69.280119"/>
     <use style="stroke:#000000;" x="147.360283" xlink:href="#m46080cfdea" y="70.305585"/>
     <use style="stroke:#000000;" x="147.441178" xlink:href="#m46080cfdea" y="72.355952"/>
     <use style="stroke:#000000;" x="147.522074" xlink:href="#m46080cfdea" y="72.355952"/>
     <use style="stroke:#000000;" x="147.602969" xlink:href="#m46080cfdea" y="68.253063"/>
     <use style="stroke:#000000;" x="147.683865" xlink:href="#m46080cfdea" y="70.305585"/>
     <use style="stroke:#000000;" x="147.764761" xlink:href="#m46080cfdea" y="67.738833"/>
     <use style="stroke:#000000;" x="147.845656" xlink:href="#m46080cfdea" y="68.253063"/>
     <use style="stroke:#000000;" x="147.926552" xlink:href="#m46080cfdea" y="67.225256"/>
     <use style="stroke:#000000;" x="148.007447" xlink:href="#m46080cfdea" y="68.253063"/>
     <use style="stroke:#000000;" x="148.088343" xlink:href="#m46080cfdea" y="65.682557"/>
     <use style="stroke:#000000;" x="148.169238" xlink:href="#m46080cfdea" y="66.196698"/>
     <use style="stroke:#000000;" x="148.250134" xlink:href="#m46080cfdea" y="64.652868"/>
     <use style="stroke:#000000;" x="148.33103" xlink:href="#m46080cfdea" y="67.225256"/>
     <use style="stroke:#000000;" x="148.411925" xlink:href="#m46080cfdea" y="63.623269"/>
     <use style="stroke:#000000;" x="148.492821" xlink:href="#m46080cfdea" y="64.652868"/>
     <use style="stroke:#000000;" x="148.573716" xlink:href="#m46080cfdea" y="64.138163"/>
     <use style="stroke:#000000;" x="148.654612" xlink:href="#m46080cfdea" y="64.138163"/>
     <use style="stroke:#000000;" x="148.735507" xlink:href="#m46080cfdea" y="64.138163"/>
     <use style="stroke:#000000;" x="148.816403" xlink:href="#m46080cfdea" y="65.168228"/>
     <use style="stroke:#000000;" x="148.897298" xlink:href="#m46080cfdea" y="63.623269"/>
     <use style="stroke:#000000;" x="148.978194" xlink:href="#m46080cfdea" y="61.560113"/>
     <use style="stroke:#000000;" x="149.05909" xlink:href="#m46080cfdea" y="63.623269"/>
     <use style="stroke:#000000;" x="149.139985" xlink:href="#m46080cfdea" y="61.044274"/>
     <use style="stroke:#000000;" x="149.220881" xlink:href="#m46080cfdea" y="63.623269"/>
     <use style="stroke:#000000;" x="149.301776" xlink:href="#m46080cfdea" y="60.528245"/>
     <use style="stroke:#000000;" x="149.382672" xlink:href="#m46080cfdea" y="60.528245"/>
     <use style="stroke:#000000;" x="149.463567" xlink:href="#m46080cfdea" y="63.623269"/>
     <use style="stroke:#000000;" x="149.544463" xlink:href="#m46080cfdea" y="62.59207"/>
     <use style="stroke:#000000;" x="149.625358" xlink:href="#m46080cfdea" y="60.528245"/>
     <use style="stroke:#000000;" x="149.706254" xlink:href="#m46080cfdea" y="60.528245"/>
     <use style="stroke:#000000;" x="149.78715" xlink:href="#m46080cfdea" y="61.560113"/>
     <use style="stroke:#000000;" x="149.868045" xlink:href="#m46080cfdea" y="61.560113"/>
     <use style="stroke:#000000;" x="149.948941" xlink:href="#m46080cfdea" y="58.977327"/>
     <use style="stroke:#000000;" x="150.029836" xlink:href="#m46080cfdea" y="60.528245"/>
     <use style="stroke:#000000;" x="150.110732" xlink:href="#m46080cfdea" y="60.528245"/>
     <use style="stroke:#000000;" x="150.191627" xlink:href="#m46080cfdea" y="58.460539"/>
     <use style="stroke:#000000;" x="150.272523" xlink:href="#m46080cfdea" y="60.528245"/>
     <use style="stroke:#000000;" x="150.353419" xlink:href="#m46080cfdea" y="58.460539"/>
     <use style="stroke:#000000;" x="150.434314" xlink:href="#m46080cfdea" y="57.425544"/>
     <use style="stroke:#000000;" x="150.51521" xlink:href="#m46080cfdea" y="58.460539"/>
     <use style="stroke:#000000;" x="150.596105" xlink:href="#m46080cfdea" y="59.494772"/>
     <use style="stroke:#000000;" x="150.677001" xlink:href="#m46080cfdea" y="56.390635"/>
     <use style="stroke:#000000;" x="150.757896" xlink:href="#m46080cfdea" y="60.01118"/>
     <use style="stroke:#000000;" x="150.838792" xlink:href="#m46080cfdea" y="58.460539"/>
     <use style="stroke:#000000;" x="150.919687" xlink:href="#m46080cfdea" y="57.425544"/>
     <use style="stroke:#000000;" x="151.000583" xlink:href="#m46080cfdea" y="58.460539"/>
     <use style="stroke:#000000;" x="151.081479" xlink:href="#m46080cfdea" y="54.835992"/>
     <use style="stroke:#000000;" x="151.162374" xlink:href="#m46080cfdea" y="55.872046"/>
     <use style="stroke:#000000;" x="151.24327" xlink:href="#m46080cfdea" y="59.494772"/>
     <use style="stroke:#000000;" x="151.324165" xlink:href="#m46080cfdea" y="60.01118"/>
     <use style="stroke:#000000;" x="151.405061" xlink:href="#m46080cfdea" y="60.528245"/>
     <use style="stroke:#000000;" x="151.485956" xlink:href="#m46080cfdea" y="59.494772"/>
     <use style="stroke:#000000;" x="151.566852" xlink:href="#m46080cfdea" y="59.494772"/>
     <use style="stroke:#000000;" x="151.647748" xlink:href="#m46080cfdea" y="56.908184"/>
     <use style="stroke:#000000;" x="151.728643" xlink:href="#m46080cfdea" y="60.01118"/>
     <use style="stroke:#000000;" x="151.809539" xlink:href="#m46080cfdea" y="57.94356"/>
     <use style="stroke:#000000;" x="151.890434" xlink:href="#m46080cfdea" y="56.390635"/>
     <use style="stroke:#000000;" x="151.97133" xlink:href="#m46080cfdea" y="59.494772"/>
     <use style="stroke:#000000;" x="152.052225" xlink:href="#m46080cfdea" y="56.908184"/>
     <use style="stroke:#000000;" x="152.133121" xlink:href="#m46080cfdea" y="58.460539"/>
     <use style="stroke:#000000;" x="152.214016" xlink:href="#m46080cfdea" y="57.425544"/>
     <use style="stroke:#000000;" x="152.294912" xlink:href="#m46080cfdea" y="57.94356"/>
     <use style="stroke:#000000;" x="152.375808" xlink:href="#m46080cfdea" y="55.872046"/>
     <use style="stroke:#000000;" x="152.456703" xlink:href="#m46080cfdea" y="58.977327"/>
     <use style="stroke:#000000;" x="152.537599" xlink:href="#m46080cfdea" y="55.872046"/>
     <use style="stroke:#000000;" x="152.618494" xlink:href="#m46080cfdea" y="57.425544"/>
     <use style="stroke:#000000;" x="152.69939" xlink:href="#m46080cfdea" y="56.390635"/>
     <use style="stroke:#000000;" x="152.780285" xlink:href="#m46080cfdea" y="57.94356"/>
     <use style="stroke:#000000;" x="152.861181" xlink:href="#m46080cfdea" y="56.390635"/>
     <use style="stroke:#000000;" x="152.942076" xlink:href="#m46080cfdea" y="55.354114"/>
     <use style="stroke:#000000;" x="153.022972" xlink:href="#m46080cfdea" y="54.316829"/>
     <use style="stroke:#000000;" x="153.103868" xlink:href="#m46080cfdea" y="55.872046"/>
     <use style="stroke:#000000;" x="153.184763" xlink:href="#m46080cfdea" y="56.908184"/>
     <use style="stroke:#000000;" x="153.265659" xlink:href="#m46080cfdea" y="51.201223"/>
     <use style="stroke:#000000;" x="153.346554" xlink:href="#m46080cfdea" y="55.872046"/>
     <use style="stroke:#000000;" x="153.42745" xlink:href="#m46080cfdea" y="51.201223"/>
     <use style="stroke:#000000;" x="153.508345" xlink:href="#m46080cfdea" y="53.279628"/>
     <use style="stroke:#000000;" x="153.589241" xlink:href="#m46080cfdea" y="54.316829"/>
     <use style="stroke:#000000;" x="153.670137" xlink:href="#m46080cfdea" y="55.354114"/>
     <use style="stroke:#000000;" x="153.751032" xlink:href="#m46080cfdea" y="53.798324"/>
     <use style="stroke:#000000;" x="153.831928" xlink:href="#m46080cfdea" y="53.279628"/>
    </g>
   </g>
   <g id="line2d_17">
    <path clip-path="url(#pd4dbadf63d)" d="M 119.289523 226.004091 
L 120.502957 225.018983 
L 121.069226 224.523431 
L 123.17251 221.979937 
L 124.952212 219.014155 
L 127.055497 213.964195 
L 128.430722 209.505131 
L 130.129528 202.646845 
L 131.01938 198.258185 
L 131.990126 192.918326 
L 133.284455 184.854942 
L 134.821471 173.884917 
L 136.1158 163.410762 
L 137.733711 149.110666 
L 144.367147 89.218045 
L 146.30864 74.719797 
L 148.088343 63.134621 
L 149.544463 54.91112 
L 151.081479 47.450093 
L 152.537599 41.451742 
L 153.831928 36.90164 
L 153.831928 36.90164 
" style="fill:none;stroke:#0000ff;stroke-dasharray:5.55,2.4;stroke-dashoffset:0;stroke-width:1.5;"/>
   </g>
   <g id="line2d_18">
    <path clip-path="url(#pd4dbadf63d)" d="M 119.289523 226.854978 
L 120.098479 226.377258 
L 121.878181 224.843325 
L 123.738779 222.57646 
L 125.194899 220.206153 
L 127.136393 216.073834 
L 128.26893 213.015921 
L 129.401468 209.322038 
L 130.048633 206.966235 
L 132.799082 194.050908 
L 134.093411 186.282186 
L 135.954009 173.349455 
L 137.410129 162.158392 
L 140.807742 134.150933 
L 143.315505 114.320768 
L 145.095207 102.005745 
L 146.632223 92.959341 
L 148.007447 86.203281 
L 149.382672 80.590521 
L 150.677001 76.218229 
L 151.97133 72.60208 
L 153.265659 69.612201 
L 153.831928 68.472384 
L 153.831928 68.472384 
" style="fill:none;stroke:#0000ff;stroke-dasharray:5.55,2.4;stroke-dashoffset:0;stroke-width:1.5;"/>
   </g>
   <g id="line2d_19"/>
   <g id="line2d_20"/>
   <g id="line2d_21"/>
   <g id="line2d_22"/>
   <g id="line2d_23"/>
   <g id="line2d_24"/>
   <g id="patch_3">
    <path d="M 53.328125 239.758125 
L 53.328125 22.318125 
" style="fill:none;stroke:#000000;stroke-linecap:square;stroke-linejoin:miter;stroke-width:0.8;"/>
   </g>
   <g id="patch_4">
    <path d="M 388.128125 239.758125 
L 388.128125 22.318125 
" style="fill:none;stroke:#000000;stroke-linecap:square;stroke-linejoin:miter;stroke-width:0.8;"/>
   </g>
   <g id="patch_5">
    <path d="M 53.328125 239.758125 
L 388.128125 239.758125 
" style="fill:none;stroke:#000000;stroke-linecap:square;stroke-linejoin:miter;stroke-width:0.8;"/>
   </g>
   <g id="patch_6">
    <path d="M 53.328125 22.318125 
L 388.128125 22.318125 
" style="fill:none;stroke:#000000;stroke-linecap:square;stroke-linejoin:miter;stroke-width:0.8;"/>
   </g>
   <g id="text_16">
    <!-- Experiment_3 -->
    <g transform="translate(179.242813 16.318125)scale(0.12 -0.12)">
     <defs>
      <path d="M 9.8125 72.90625 
L 55.90625 72.90625 
L 55.90625 64.59375 
L 19.671875 64.59375 
L 19.671875 43.015625 
L 54.390625 43.015625 
L 54.390625 34.71875 
L 19.671875 34.71875 
L 19.671875 8.296875 
L 56.78125 8.296875 
L 56.78125 0 
L 9.8125 0 
z
" id="DejaVuSans-69"/>
      <path d="M 54.890625 54.6875 
L 35.109375 28.078125 
L 55.90625 0 
L 45.3125 0 
L 29.390625 21.484375 
L 13.484375 0 
L 2.875 0 
L 24.125 28.609375 
L 4.6875 54.6875 
L 15.28125 54.6875 
L 29.78125 35.203125 
L 44.28125 54.6875 
z
" id="DejaVuSans-120"/>
      <path d="M 41.109375 46.296875 
Q 39.59375 47.171875 37.8125 47.578125 
Q 36.03125 48 33.890625 48 
Q 26.265625 48 22.1875 43.046875 
Q 18.109375 38.09375 18.109375 28.8125 
L 18.109375 0 
L 9.078125 0 
L 9.078125 54.6875 
L 18.109375 54.6875 
L 18.109375 46.1875 
Q 20.953125 51.171875 25.484375 53.578125 
Q 30.03125 56 36.53125 56 
Q 37.453125 56 38.578125 55.875 
Q 39.703125 55.765625 41.0625 55.515625 
z
" id="DejaVuSans-114"/>
      <path d="M 54.890625 33.015625 
L 54.890625 0 
L 45.90625 0 
L 45.90625 32.71875 
Q 45.90625 40.484375 42.875 44.328125 
Q 39.84375 48.1875 33.796875 48.1875 
Q 26.515625 48.1875 22.3125 43.546875 
Q 18.109375 38.921875 18.109375 30.90625 
L 18.109375 0 
L 9.078125 0 
L 9.078125 54.6875 
L 18.109375 54.6875 
L 18.109375 46.1875 
Q 21.34375 51.125 25.703125 53.5625 
Q 30.078125 56 35.796875 56 
Q 45.21875 56 50.046875 50.171875 
Q 54.890625 44.34375 54.890625 33.015625 
z
" id="DejaVuSans-110"/>
      <path d="M 18.3125 70.21875 
L 18.3125 54.6875 
L 36.8125 54.6875 
L 36.8125 47.703125 
L 18.3125 47.703125 
L 18.3125 18.015625 
Q 18.3125 11.328125 20.140625 9.421875 
Q 21.96875 7.515625 27.59375 7.515625 
L 36.8125 7.515625 
L 36.8125 0 
L 27.59375 0 
Q 17.1875 0 13.234375 3.875 
Q 9.28125 7.765625 9.28125 18.015625 
L 9.28125 47.703125 
L 2.6875 47.703125 
L 2.6875 54.6875 
L 9.28125 54.6875 
L 9.28125 70.21875 
z
" id="DejaVuSans-116"/>
      <path d="M 50.984375 -16.609375 
L 50.984375 -23.578125 
L -0.984375 -23.578125 
L -0.984375 -16.609375 
z
" id="DejaVuSans-95"/>
      <path d="M 40.578125 39.3125 
Q 47.65625 37.796875 51.625 33 
Q 55.609375 28.21875 55.609375 21.1875 
Q 55.609375 10.40625 48.1875 4.484375 
Q 40.765625 -1.421875 27.09375 -1.421875 
Q 22.515625 -1.421875 17.65625 -0.515625 
Q 12.796875 0.390625 7.625 2.203125 
L 7.625 11.71875 
Q 11.71875 9.328125 16.59375 8.109375 
Q 21.484375 6.890625 26.8125 6.890625 
Q 36.078125 6.890625 40.9375 10.546875 
Q 45.796875 14.203125 45.796875 21.1875 
Q 45.796875 27.640625 41.28125 31.265625 
Q 36.765625 34.90625 28.71875 34.90625 
L 20.21875 34.90625 
L 20.21875 43.015625 
L 29.109375 43.015625 
Q 36.375 43.015625 40.234375 45.921875 
Q 44.09375 48.828125 44.09375 54.296875 
Q 44.09375 59.90625 40.109375 62.90625 
Q 36.140625 65.921875 28.71875 65.921875 
Q 24.65625 65.921875 20.015625 65.03125 
Q 15.375 64.15625 9.8125 62.3125 
L 9.8125 71.09375 
Q 15.4375 72.65625 20.34375 73.4375 
Q 25.25 74.21875 29.59375 74.21875 
Q 40.828125 74.21875 47.359375 69.109375 
Q 53.90625 64.015625 53.90625 55.328125 
Q 53.90625 49.265625 50.4375 45.09375 
Q 46.96875 40.921875 40.578125 39.3125 
z
" id="DejaVuSans-51"/>
     </defs>
     <use xlink:href="#DejaVuSans-69"/>
     <use x="63.183594" xlink:href="#DejaVuSans-120"/>
     <use x="122.363281" xlink:href="#DejaVuSans-112"/>
     <use x="185.839844" xlink:href="#DejaVuSans-101"/>
     <use x="247.363281" xlink:href="#DejaVuSans-114"/>
     <use x="288.476562" xlink:href="#DejaVuSans-105"/>
     <use x="316.259766" xlink:href="#DejaVuSans-109"/>
     <use x="413.671875" xlink:href="#DejaVuSans-101"/>
     <use x="475.195312" xlink:href="#DejaVuSans-110"/>
     <use x="538.574219" xlink:href="#DejaVuSans-116"/>
     <use x="577.783203" xlink:href="#DejaVuSans-95"/>
     <use x="627.783203" xlink:href="#DejaVuSans-51"/>
    </g>
   </g>
   <g id="legend_1">
    <g id="patch_7">
     <path d="M 116.898438 169.244375 
L 381.128125 169.244375 
Q 383.128125 169.244375 383.128125 167.244375 
L 383.128125 94.831875 
Q 383.128125 92.831875 381.128125 92.831875 
L 116.898438 92.831875 
Q 114.898438 92.831875 114.898438 94.831875 
L 114.898438 167.244375 
Q 114.898438 169.244375 116.898438 169.244375 
z
" style="fill:#ffffff;opacity:0.8;stroke:#cccccc;stroke-linejoin:miter;"/>
    </g>
    <g id="line2d_25">
     <path d="M 118.898438 100.930312 
L 138.898438 100.930312 
" style="fill:none;stroke:#0000ff;stroke-linecap:square;stroke-width:1.5;"/>
    </g>
    <g id="line2d_26"/>
    <g id="text_17">
     <!-- MSI -->
     <g transform="translate(146.898438 104.430312)scale(0.1 -0.1)">
      <defs>
       <path d="M 9.8125 72.90625 
L 24.515625 72.90625 
L 43.109375 23.296875 
L 61.8125 72.90625 
L 76.515625 72.90625 
L 76.515625 0 
L 66.890625 0 
L 66.890625 64.015625 
L 48.09375 14.015625 
L 38.1875 14.015625 
L 19.390625 64.015625 
L 19.390625 0 
L 9.8125 0 
z
" id="DejaVuSans-77"/>
       <path d="M 53.515625 70.515625 
L 53.515625 60.890625 
Q 47.90625 63.578125 42.921875 64.890625 
Q 37.9375 66.21875 33.296875 66.21875 
Q 25.25 66.21875 20.875 63.09375 
Q 16.5 59.96875 16.5 54.203125 
Q 16.5 49.359375 19.40625 46.890625 
Q 22.3125 44.4375 30.421875 42.921875 
L 36.375 41.703125 
Q 47.40625 39.59375 52.65625 34.296875 
Q 57.90625 29 57.90625 20.125 
Q 57.90625 9.515625 50.796875 4.046875 
Q 43.703125 -1.421875 29.984375 -1.421875 
Q 24.8125 -1.421875 18.96875 -0.25 
Q 13.140625 0.921875 6.890625 3.21875 
L 6.890625 13.375 
Q 12.890625 10.015625 18.65625 8.296875 
Q 24.421875 6.59375 29.984375 6.59375 
Q 38.421875 6.59375 43.015625 9.90625 
Q 47.609375 13.234375 47.609375 19.390625 
Q 47.609375 24.75 44.3125 27.78125 
Q 41.015625 30.8125 33.5 32.328125 
L 27.484375 33.5 
Q 16.453125 35.6875 11.515625 40.375 
Q 6.59375 45.0625 6.59375 53.421875 
Q 6.59375 63.09375 13.40625 68.65625 
Q 20.21875 74.21875 32.171875 74.21875 
Q 37.3125 74.21875 42.625 73.28125 
Q 47.953125 72.359375 53.515625 70.515625 
z
" id="DejaVuSans-83"/>
       <path d="M 9.8125 72.90625 
L 19.671875 72.90625 
L 19.671875 0 
L 9.8125 0 
z
" id="DejaVuSans-73"/>
      </defs>
      <use xlink:href="#DejaVuSans-77"/>
      <use x="86.279297" xlink:href="#DejaVuSans-83"/>
      <use x="149.755859" xlink:href="#DejaVuSans-73"/>
     </g>
    </g>
    <g id="line2d_27">
     <path d="M 118.898438 115.61 
L 138.898438 115.61 
" style="fill:none;stroke:#ff0000;stroke-linecap:square;stroke-width:1.5;"/>
    </g>
    <g id="line2d_28"/>
    <g id="text_18">
     <!-- $\it{A priori}$ model -->
     <g transform="translate(146.898438 119.11)scale(0.1 -0.1)">
      <defs>
       <path d="M 36.8125 72.90625 
L 48 72.90625 
L 61.53125 0 
L 51.21875 0 
L 48.1875 18.703125 
L 15.375 18.703125 
L 5.078125 0 
L -5.328125 0 
z
M 40.375 63.1875 
L 19.921875 26.90625 
L 46.6875 26.90625 
z
" id="DejaVuSans-Oblique-65"/>
       <path d="M 49.609375 33.6875 
Q 49.609375 40.875 46.484375 44.671875 
Q 43.359375 48.484375 37.5 48.484375 
Q 33.5 48.484375 29.859375 46.4375 
Q 26.21875 44.390625 23.390625 40.484375 
Q 20.609375 36.625 18.9375 31.15625 
Q 17.28125 25.6875 17.28125 20.3125 
Q 17.28125 13.484375 20.40625 9.796875 
Q 23.53125 6.109375 29.296875 6.109375 
Q 33.546875 6.109375 37.1875 8.109375 
Q 40.828125 10.109375 43.40625 13.921875 
Q 46.1875 17.921875 47.890625 23.34375 
Q 49.609375 28.765625 49.609375 33.6875 
z
M 21.78125 46.390625 
Q 25.390625 51.125 30.296875 53.5625 
Q 35.203125 56 41.21875 56 
Q 49.609375 56 54.25 50.5 
Q 58.890625 45.015625 58.890625 35.109375 
Q 58.890625 27 56 19.65625 
Q 53.125 12.3125 47.703125 6.5 
Q 44.09375 2.640625 39.546875 0.609375 
Q 35.015625 -1.421875 29.984375 -1.421875 
Q 24.171875 -1.421875 20.21875 1 
Q 16.265625 3.421875 14.3125 8.203125 
L 8.6875 -20.796875 
L -0.296875 -20.796875 
L 14.40625 54.6875 
L 23.390625 54.6875 
z
" id="DejaVuSans-Oblique-112"/>
       <path d="M 44.578125 46.390625 
Q 43.21875 47.125 41.453125 47.515625 
Q 39.703125 47.90625 37.703125 47.90625 
Q 30.515625 47.90625 25.140625 42.453125 
Q 19.78125 37.015625 18.015625 27.875 
L 12.5 0 
L 3.515625 0 
L 14.203125 54.6875 
L 23.1875 54.6875 
L 21.484375 46.1875 
Q 25.046875 50.921875 30 53.453125 
Q 34.96875 56 40.578125 56 
Q 42.046875 56 43.453125 55.828125 
Q 44.875 55.671875 46.296875 55.28125 
z
" id="DejaVuSans-Oblique-114"/>
       <path d="M 18.3125 75.984375 
L 27.296875 75.984375 
L 25.09375 64.59375 
L 16.109375 64.59375 
z
M 14.203125 54.6875 
L 23.1875 54.6875 
L 12.5 0 
L 3.515625 0 
z
" id="DejaVuSans-Oblique-105"/>
       <path d="M 25.390625 -1.421875 
Q 15.765625 -1.421875 10.171875 4.515625 
Q 4.59375 10.453125 4.59375 20.703125 
Q 4.59375 26.65625 6.515625 32.828125 
Q 8.453125 39.015625 11.53125 43.21875 
Q 16.359375 49.75 22.3125 52.875 
Q 28.265625 56 35.796875 56 
Q 45.125 56 50.859375 50.1875 
Q 56.59375 44.390625 56.59375 35.015625 
Q 56.59375 28.515625 54.6875 22.0625 
Q 52.78125 15.625 49.703125 11.375 
Q 44.921875 4.828125 38.96875 1.703125 
Q 33.015625 -1.421875 25.390625 -1.421875 
z
M 13.921875 21 
Q 13.921875 13.578125 17.015625 9.890625 
Q 20.125 6.203125 26.421875 6.203125 
Q 35.453125 6.203125 41.375 14.078125 
Q 47.3125 21.96875 47.3125 34.078125 
Q 47.3125 41.15625 44.140625 44.765625 
Q 40.96875 48.390625 34.8125 48.390625 
Q 29.734375 48.390625 25.78125 46.015625 
Q 21.828125 43.65625 18.703125 38.8125 
Q 16.40625 35.203125 15.15625 30.5625 
Q 13.921875 25.921875 13.921875 21 
z
" id="DejaVuSans-Oblique-111"/>
       <path d="M 30.609375 48.390625 
Q 23.390625 48.390625 19.1875 42.75 
Q 14.984375 37.109375 14.984375 27.296875 
Q 14.984375 17.484375 19.15625 11.84375 
Q 23.34375 6.203125 30.609375 6.203125 
Q 37.796875 6.203125 41.984375 11.859375 
Q 46.1875 17.53125 46.1875 27.296875 
Q 46.1875 37.015625 41.984375 42.703125 
Q 37.796875 48.390625 30.609375 48.390625 
z
M 30.609375 56 
Q 42.328125 56 49.015625 48.375 
Q 55.71875 40.765625 55.71875 27.296875 
Q 55.71875 13.875 49.015625 6.21875 
Q 42.328125 -1.421875 30.609375 -1.421875 
Q 18.84375 -1.421875 12.171875 6.21875 
Q 5.515625 13.875 5.515625 27.296875 
Q 5.515625 40.765625 12.171875 48.375 
Q 18.84375 56 30.609375 56 
z
" id="DejaVuSans-111"/>
       <path d="M 45.40625 46.390625 
L 45.40625 75.984375 
L 54.390625 75.984375 
L 54.390625 0 
L 45.40625 0 
L 45.40625 8.203125 
Q 42.578125 3.328125 38.25 0.953125 
Q 33.9375 -1.421875 27.875 -1.421875 
Q 17.96875 -1.421875 11.734375 6.484375 
Q 5.515625 14.40625 5.515625 27.296875 
Q 5.515625 40.1875 11.734375 48.09375 
Q 17.96875 56 27.875 56 
Q 33.9375 56 38.25 53.625 
Q 42.578125 51.265625 45.40625 46.390625 
z
M 14.796875 27.296875 
Q 14.796875 17.390625 18.875 11.75 
Q 22.953125 6.109375 30.078125 6.109375 
Q 37.203125 6.109375 41.296875 11.75 
Q 45.40625 17.390625 45.40625 27.296875 
Q 45.40625 37.203125 41.296875 42.84375 
Q 37.203125 48.484375 30.078125 48.484375 
Q 22.953125 48.484375 18.875 42.84375 
Q 14.796875 37.203125 14.796875 27.296875 
z
" id="DejaVuSans-100"/>
       <path d="M 9.421875 75.984375 
L 18.40625 75.984375 
L 18.40625 0 
L 9.421875 0 
z
" id="DejaVuSans-108"/>
      </defs>
      <use transform="translate(0 0.015625)" xlink:href="#DejaVuSans-Oblique-65"/>
      <use transform="translate(68.408203 0.015625)" xlink:href="#DejaVuSans-Oblique-112"/>
      <use transform="translate(131.884766 0.015625)" xlink:href="#DejaVuSans-Oblique-114"/>
      <use transform="translate(172.998047 0.015625)" xlink:href="#DejaVuSans-Oblique-105"/>
      <use transform="translate(200.78125 0.015625)" xlink:href="#DejaVuSans-Oblique-111"/>
      <use transform="translate(261.962891 0.015625)" xlink:href="#DejaVuSans-Oblique-114"/>
      <use transform="translate(303.076172 0.015625)" xlink:href="#DejaVuSans-Oblique-105"/>
      <use transform="translate(330.859375 0.015625)" xlink:href="#DejaVuSans-32"/>
      <use transform="translate(362.646484 0.015625)" xlink:href="#DejaVuSans-109"/>
      <use transform="translate(460.058594 0.015625)" xlink:href="#DejaVuSans-111"/>
      <use transform="translate(521.240234 0.015625)" xlink:href="#DejaVuSans-100"/>
      <use transform="translate(584.716797 0.015625)" xlink:href="#DejaVuSans-101"/>
      <use transform="translate(646.240234 0.015625)" xlink:href="#DejaVuSans-108"/>
     </g>
    </g>
    <g id="line2d_29"/>
    <g id="line2d_30">
     <g>
      <use style="stroke:#000000;" x="128.898438" xlink:href="#m46080cfdea" y="130.308437"/>
     </g>
    </g>
    <g id="text_19">
     <!-- Experimental Data -->
     <g transform="translate(146.898438 133.808437)scale(0.1 -0.1)">
      <defs>
       <path d="M 34.28125 27.484375 
Q 23.390625 27.484375 19.1875 25 
Q 14.984375 22.515625 14.984375 16.5 
Q 14.984375 11.71875 18.140625 8.90625 
Q 21.296875 6.109375 26.703125 6.109375 
Q 34.1875 6.109375 38.703125 11.40625 
Q 43.21875 16.703125 43.21875 25.484375 
L 43.21875 27.484375 
z
M 52.203125 31.203125 
L 52.203125 0 
L 43.21875 0 
L 43.21875 8.296875 
Q 40.140625 3.328125 35.546875 0.953125 
Q 30.953125 -1.421875 24.3125 -1.421875 
Q 15.921875 -1.421875 10.953125 3.296875 
Q 6 8.015625 6 15.921875 
Q 6 25.140625 12.171875 29.828125 
Q 18.359375 34.515625 30.609375 34.515625 
L 43.21875 34.515625 
L 43.21875 35.40625 
Q 43.21875 41.609375 39.140625 45 
Q 35.0625 48.390625 27.6875 48.390625 
Q 23 48.390625 18.546875 47.265625 
Q 14.109375 46.140625 10.015625 43.890625 
L 10.015625 52.203125 
Q 14.9375 54.109375 19.578125 55.046875 
Q 24.21875 56 28.609375 56 
Q 40.484375 56 46.34375 49.84375 
Q 52.203125 43.703125 52.203125 31.203125 
z
" id="DejaVuSans-97"/>
       <path d="M 19.671875 64.796875 
L 19.671875 8.109375 
L 31.59375 8.109375 
Q 46.6875 8.109375 53.6875 14.9375 
Q 60.6875 21.78125 60.6875 36.53125 
Q 60.6875 51.171875 53.6875 57.984375 
Q 46.6875 64.796875 31.59375 64.796875 
z
M 9.8125 72.90625 
L 30.078125 72.90625 
Q 51.265625 72.90625 61.171875 64.09375 
Q 71.09375 55.28125 71.09375 36.53125 
Q 71.09375 17.671875 61.125 8.828125 
Q 51.171875 0 30.078125 0 
L 9.8125 0 
z
" id="DejaVuSans-68"/>
      </defs>
      <use xlink:href="#DejaVuSans-69"/>
      <use x="63.183594" xlink:href="#DejaVuSans-120"/>
      <use x="122.363281" xlink:href="#DejaVuSans-112"/>
      <use x="185.839844" xlink:href="#DejaVuSans-101"/>
      <use x="247.363281" xlink:href="#DejaVuSans-114"/>
      <use x="288.476562" xlink:href="#DejaVuSans-105"/>
      <use x="316.259766" xlink:href="#DejaVuSans-109"/>
      <use x="413.671875" xlink:href="#DejaVuSans-101"/>
      <use x="475.195312" xlink:href="#DejaVuSans-110"/>
      <use x="538.574219" xlink:href="#DejaVuSans-116"/>
      <use x="577.783203" xlink:href="#DejaVuSans-97"/>
      <use x="639.0625" xlink:href="#DejaVuSans-108"/>
      <use x="666.845703" xlink:href="#DejaVuSans-32"/>
      <use x="698.632812" xlink:href="#DejaVuSans-68"/>
      <use x="775.634766" xlink:href="#DejaVuSans-97"/>
      <use x="836.914062" xlink:href="#DejaVuSans-116"/>
      <use x="876.123047" xlink:href="#DejaVuSans-97"/>
     </g>
    </g>
    <g id="line2d_31">
     <path d="M 118.898438 144.986562 
L 138.898438 144.986562 
" style="fill:none;stroke:#ffffff;stroke-linecap:square;stroke-width:1.5;"/>
    </g>
    <g id="line2d_32"/>
    <g id="text_20">
     <!-- T:1126 -->
     <g transform="translate(146.898438 148.486562)scale(0.1 -0.1)">
      <defs>
       <path d="M 11.71875 12.40625 
L 22.015625 12.40625 
L 22.015625 0 
L 11.71875 0 
z
M 11.71875 51.703125 
L 22.015625 51.703125 
L 22.015625 39.3125 
L 11.71875 39.3125 
z
" id="DejaVuSans-58"/>
      </defs>
      <use xlink:href="#DejaVuSans-84"/>
      <use x="50.083984" xlink:href="#DejaVuSans-58"/>
      <use x="83.775391" xlink:href="#DejaVuSans-49"/>
      <use x="147.398438" xlink:href="#DejaVuSans-49"/>
      <use x="211.021484" xlink:href="#DejaVuSans-50"/>
      <use x="274.644531" xlink:href="#DejaVuSans-54"/>
     </g>
    </g>
    <g id="line2d_33">
     <path d="M 118.898438 159.664687 
L 138.898438 159.664687 
" style="fill:none;stroke:#ffffff;stroke-linecap:square;stroke-width:1.5;"/>
    </g>
    <g id="line2d_34"/>
    <g id="text_21">
     <!-- P:1.93 -->
     <g transform="translate(146.898438 163.164687)scale(0.1 -0.1)">
      <defs>
       <path d="M 19.671875 64.796875 
L 19.671875 37.40625 
L 32.078125 37.40625 
Q 38.96875 37.40625 42.71875 40.96875 
Q 46.484375 44.53125 46.484375 51.125 
Q 46.484375 57.671875 42.71875 61.234375 
Q 38.96875 64.796875 32.078125 64.796875 
z
M 9.8125 72.90625 
L 32.078125 72.90625 
Q 44.34375 72.90625 50.609375 67.359375 
Q 56.890625 61.8125 56.890625 51.125 
Q 56.890625 40.328125 50.609375 34.8125 
Q 44.34375 29.296875 32.078125 29.296875 
L 19.671875 29.296875 
L 19.671875 0 
L 9.8125 0 
z
" id="DejaVuSans-80"/>
       <path d="M 10.6875 12.40625 
L 21 12.40625 
L 21 0 
L 10.6875 0 
z
" id="DejaVuSans-46"/>
       <path d="M 10.984375 1.515625 
L 10.984375 10.5 
Q 14.703125 8.734375 18.5 7.8125 
Q 22.3125 6.890625 25.984375 6.890625 
Q 35.75 6.890625 40.890625 13.453125 
Q 46.046875 20.015625 46.78125 33.40625 
Q 43.953125 29.203125 39.59375 26.953125 
Q 35.25 24.703125 29.984375 24.703125 
Q 19.046875 24.703125 12.671875 31.3125 
Q 6.296875 37.9375 6.296875 49.421875 
Q 6.296875 60.640625 12.9375 67.421875 
Q 19.578125 74.21875 30.609375 74.21875 
Q 43.265625 74.21875 49.921875 64.515625 
Q 56.59375 54.828125 56.59375 36.375 
Q 56.59375 19.140625 48.40625 8.859375 
Q 40.234375 -1.421875 26.421875 -1.421875 
Q 22.703125 -1.421875 18.890625 -0.6875 
Q 15.09375 0.046875 10.984375 1.515625 
z
M 30.609375 32.421875 
Q 37.25 32.421875 41.125 36.953125 
Q 45.015625 41.5 45.015625 49.421875 
Q 45.015625 57.28125 41.125 61.84375 
Q 37.25 66.40625 30.609375 66.40625 
Q 23.96875 66.40625 20.09375 61.84375 
Q 16.21875 57.28125 16.21875 49.421875 
Q 16.21875 41.5 20.09375 36.953125 
Q 23.96875 32.421875 30.609375 32.421875 
z
" id="DejaVuSans-57"/>
      </defs>
      <use xlink:href="#DejaVuSans-80"/>
      <use x="60.302734" xlink:href="#DejaVuSans-58"/>
      <use x="93.994141" xlink:href="#DejaVuSans-49"/>
      <use x="157.617188" xlink:href="#DejaVuSans-46"/>
      <use x="189.404297" xlink:href="#DejaVuSans-57"/>
      <use x="253.027344" xlink:href="#DejaVuSans-51"/>
     </g>
    </g>
    <g id="line2d_35">
     <path d="M 260.639063 100.930312 
L 280.639063 100.930312 
" style="fill:none;stroke:#ffffff;stroke-linecap:square;stroke-width:1.5;"/>
    </g>
    <g id="line2d_36"/>
    <g id="text_22">
     <!-- O2: 0.001 -->
     <g transform="translate(288.639063 104.430312)scale(0.1 -0.1)">
      <use xlink:href="#DejaVuSans-79"/>
      <use x="78.710938" xlink:href="#DejaVuSans-50"/>
      <use x="142.333984" xlink:href="#DejaVuSans-58"/>
      <use x="176.025391" xlink:href="#DejaVuSans-32"/>
      <use x="207.8125" xlink:href="#DejaVuSans-48"/>
      <use x="271.435547" xlink:href="#DejaVuSans-46"/>
      <use x="303.222656" xlink:href="#DejaVuSans-48"/>
      <use x="366.845703" xlink:href="#DejaVuSans-48"/>
      <use x="430.46875" xlink:href="#DejaVuSans-49"/>
     </g>
    </g>
    <g id="line2d_37">
     <path d="M 260.639063 115.608437 
L 280.639063 115.608437 
" style="fill:none;stroke:#ffffff;stroke-linecap:square;stroke-width:1.5;"/>
    </g>
    <g id="line2d_38"/>
    <g id="text_23">
     <!-- H2: 0.029 -->
     <g transform="translate(288.639063 119.108437)scale(0.1 -0.1)">
      <use xlink:href="#DejaVuSans-72"/>
      <use x="75.195312" xlink:href="#DejaVuSans-50"/>
      <use x="138.818359" xlink:href="#DejaVuSans-58"/>
      <use x="172.509766" xlink:href="#DejaVuSans-32"/>
      <use x="204.296875" xlink:href="#DejaVuSans-48"/>
      <use x="267.919922" xlink:href="#DejaVuSans-46"/>
      <use x="299.707031" xlink:href="#DejaVuSans-48"/>
      <use x="363.330078" xlink:href="#DejaVuSans-50"/>
      <use x="426.953125" xlink:href="#DejaVuSans-57"/>
     </g>
    </g>
    <g id="line2d_39">
     <path d="M 260.639063 130.286563 
L 280.639063 130.286563 
" style="fill:none;stroke:#ffffff;stroke-linecap:square;stroke-width:1.5;"/>
    </g>
    <g id="line2d_40"/>
    <g id="text_24">
     <!-- H: 1.2e-09 -->
     <g transform="translate(288.639063 133.786563)scale(0.1 -0.1)">
      <defs>
       <path d="M 4.890625 31.390625 
L 31.203125 31.390625 
L 31.203125 23.390625 
L 4.890625 23.390625 
z
" id="DejaVuSans-45"/>
      </defs>
      <use xlink:href="#DejaVuSans-72"/>
      <use x="75.195312" xlink:href="#DejaVuSans-58"/>
      <use x="108.886719" xlink:href="#DejaVuSans-32"/>
      <use x="140.673828" xlink:href="#DejaVuSans-49"/>
      <use x="204.296875" xlink:href="#DejaVuSans-46"/>
      <use x="236.083984" xlink:href="#DejaVuSans-50"/>
      <use x="299.707031" xlink:href="#DejaVuSans-101"/>
      <use x="361.230469" xlink:href="#DejaVuSans-45"/>
      <use x="397.314453" xlink:href="#DejaVuSans-48"/>
      <use x="460.9375" xlink:href="#DejaVuSans-57"/>
     </g>
    </g>
    <g id="line2d_41">
     <path d="M 260.639063 144.964687 
L 280.639063 144.964687 
" style="fill:none;stroke:#ffffff;stroke-linecap:square;stroke-width:1.5;"/>
    </g>
    <g id="line2d_42"/>
    <g id="text_25">
     <!-- Ar: 0.9699999985 -->
     <g transform="translate(288.639063 148.464687)scale(0.1 -0.1)">
      <defs>
       <path d="M 34.1875 63.1875 
L 20.796875 26.90625 
L 47.609375 26.90625 
z
M 28.609375 72.90625 
L 39.796875 72.90625 
L 67.578125 0 
L 57.328125 0 
L 50.6875 18.703125 
L 17.828125 18.703125 
L 11.1875 0 
L 0.78125 0 
z
" id="DejaVuSans-65"/>
      </defs>
      <use xlink:href="#DejaVuSans-65"/>
      <use x="68.408203" xlink:href="#DejaVuSans-114"/>
      <use x="107.771484" xlink:href="#DejaVuSans-58"/>
      <use x="141.462891" xlink:href="#DejaVuSans-32"/>
      <use x="173.25" xlink:href="#DejaVuSans-48"/>
      <use x="236.873047" xlink:href="#DejaVuSans-46"/>
      <use x="268.660156" xlink:href="#DejaVuSans-57"/>
      <use x="332.283203" xlink:href="#DejaVuSans-54"/>
      <use x="395.90625" xlink:href="#DejaVuSans-57"/>
      <use x="459.529297" xlink:href="#DejaVuSans-57"/>
      <use x="523.152344" xlink:href="#DejaVuSans-57"/>
      <use x="586.775391" xlink:href="#DejaVuSans-57"/>
      <use x="650.398438" xlink:href="#DejaVuSans-57"/>
      <use x="714.021484" xlink:href="#DejaVuSans-57"/>
      <use x="777.644531" xlink:href="#DejaVuSans-56"/>
      <use x="841.267578" xlink:href="#DejaVuSans-53"/>
     </g>
    </g>
   </g>
  </g>
 </g>
 <defs>
  <clipPath id="pd4dbadf63d">
   <rect height="217.44" width="334.8" x="53.328125" y="22.318125"/>
  </clipPath>
 </defs>
</svg>
