<?xml version="1.0" encoding="utf-8" standalone="no"?>
<!DOCTYPE svg PUBLIC "-//W3C//DTD SVG 1.1//EN"
  "http://www.w3.org/Graphics/SVG/1.1/DTD/svg11.dtd">
<!-- Created with matplotlib (https://matplotlib.org/) -->
<svg height="325.986375pt" version="1.1" viewBox="0 0 417.648125 325.986375" width="417.648125pt" xmlns="http://www.w3.org/2000/svg" xmlns:xlink="http://www.w3.org/1999/xlink">
 <metadata>
  <rdf:RDF xmlns:cc="http://creativecommons.org/ns#" xmlns:dc="http://purl.org/dc/elements/1.1/" xmlns:rdf="http://www.w3.org/1999/02/22-rdf-syntax-ns#">
   <cc:Work>
    <dc:type rdf:resource="http://purl.org/dc/dcmitype/StillImage"/>
    <dc:date>2023-08-04T12:51:44.222339</dc:date>
    <dc:format>image/svg+xml</dc:format>
    <dc:creator>
     <cc:Agent>
      <dc:title>Matplotlib v3.3.1, https://matplotlib.org/</dc:title>
     </cc:Agent>
    </dc:creator>
   </cc:Work>
  </rdf:RDF>
 </metadata>
 <defs>
  <style type="text/css">*{stroke-linecap:butt;stroke-linejoin:round;}</style>
 </defs>
 <g id="figure_1">
  <g id="patch_1">
   <path d="M 0 325.986375 
L 417.648125 325.986375 
L 417.648125 0 
L 0 0 
z
" style="fill:none;"/>
  </g>
  <g id="axes_1">
   <g id="patch_2">
    <path d="M 53.328125 288.430125 
L 410.448125 288.430125 
L 410.448125 22.318125 
L 53.328125 22.318125 
z
" style="fill:none;"/>
   </g>
   <g id="matplotlib.axis_1">
    <g id="xtick_1">
     <g id="line2d_1">
      <defs>
       <path d="M 0 0 
L 0 3.5 
" id="m2d8b93f188" style="stroke:#000000;stroke-width:0.8;"/>
      </defs>
      <g>
       <use style="stroke:#000000;stroke-width:0.8;" x="69.568601" xlink:href="#m2d8b93f188" y="288.430125"/>
      </g>
     </g>
     <g id="text_1">
      <!-- 0.00 -->
      <g transform="translate(58.435789 303.028562)scale(0.1 -0.1)">
       <defs>
        <path d="M 31.78125 66.40625 
Q 24.171875 66.40625 20.328125 58.90625 
Q 16.5 51.421875 16.5 36.375 
Q 16.5 21.390625 20.328125 13.890625 
Q 24.171875 6.390625 31.78125 6.390625 
Q 39.453125 6.390625 43.28125 13.890625 
Q 47.125 21.390625 47.125 36.375 
Q 47.125 51.421875 43.28125 58.90625 
Q 39.453125 66.40625 31.78125 66.40625 
z
M 31.78125 74.21875 
Q 44.046875 74.21875 50.515625 64.515625 
Q 56.984375 54.828125 56.984375 36.375 
Q 56.984375 17.96875 50.515625 8.265625 
Q 44.046875 -1.421875 31.78125 -1.421875 
Q 19.53125 -1.421875 13.0625 8.265625 
Q 6.59375 17.96875 6.59375 36.375 
Q 6.59375 54.828125 13.0625 64.515625 
Q 19.53125 74.21875 31.78125 74.21875 
z
" id="DejaVuSans-48"/>
        <path d="M 10.6875 12.40625 
L 21 12.40625 
L 21 0 
L 10.6875 0 
z
" id="DejaVuSans-46"/>
       </defs>
       <use xlink:href="#DejaVuSans-48"/>
       <use x="63.623047" xlink:href="#DejaVuSans-46"/>
       <use x="95.410156" xlink:href="#DejaVuSans-48"/>
       <use x="159.033203" xlink:href="#DejaVuSans-48"/>
      </g>
     </g>
    </g>
    <g id="xtick_2">
     <g id="line2d_2">
      <g>
       <use style="stroke:#000000;stroke-width:0.8;" x="109.92686" xlink:href="#m2d8b93f188" y="288.430125"/>
      </g>
     </g>
     <g id="text_2">
      <!-- 0.25 -->
      <g transform="translate(98.794048 303.028562)scale(0.1 -0.1)">
       <defs>
        <path d="M 19.1875 8.296875 
L 53.609375 8.296875 
L 53.609375 0 
L 7.328125 0 
L 7.328125 8.296875 
Q 12.9375 14.109375 22.625 23.890625 
Q 32.328125 33.6875 34.8125 36.53125 
Q 39.546875 41.84375 41.421875 45.53125 
Q 43.3125 49.21875 43.3125 52.78125 
Q 43.3125 58.59375 39.234375 62.25 
Q 35.15625 65.921875 28.609375 65.921875 
Q 23.96875 65.921875 18.8125 64.3125 
Q 13.671875 62.703125 7.8125 59.421875 
L 7.8125 69.390625 
Q 13.765625 71.78125 18.9375 73 
Q 24.125 74.21875 28.421875 74.21875 
Q 39.75 74.21875 46.484375 68.546875 
Q 53.21875 62.890625 53.21875 53.421875 
Q 53.21875 48.921875 51.53125 44.890625 
Q 49.859375 40.875 45.40625 35.40625 
Q 44.1875 33.984375 37.640625 27.21875 
Q 31.109375 20.453125 19.1875 8.296875 
z
" id="DejaVuSans-50"/>
        <path d="M 10.796875 72.90625 
L 49.515625 72.90625 
L 49.515625 64.59375 
L 19.828125 64.59375 
L 19.828125 46.734375 
Q 21.96875 47.46875 24.109375 47.828125 
Q 26.265625 48.1875 28.421875 48.1875 
Q 40.625 48.1875 47.75 41.5 
Q 54.890625 34.8125 54.890625 23.390625 
Q 54.890625 11.625 47.5625 5.09375 
Q 40.234375 -1.421875 26.90625 -1.421875 
Q 22.3125 -1.421875 17.546875 -0.640625 
Q 12.796875 0.140625 7.71875 1.703125 
L 7.71875 11.625 
Q 12.109375 9.234375 16.796875 8.0625 
Q 21.484375 6.890625 26.703125 6.890625 
Q 35.15625 6.890625 40.078125 11.328125 
Q 45.015625 15.765625 45.015625 23.390625 
Q 45.015625 31 40.078125 35.4375 
Q 35.15625 39.890625 26.703125 39.890625 
Q 22.75 39.890625 18.8125 39.015625 
Q 14.890625 38.140625 10.796875 36.28125 
z
" id="DejaVuSans-53"/>
       </defs>
       <use xlink:href="#DejaVuSans-48"/>
       <use x="63.623047" xlink:href="#DejaVuSans-46"/>
       <use x="95.410156" xlink:href="#DejaVuSans-50"/>
       <use x="159.033203" xlink:href="#DejaVuSans-53"/>
      </g>
     </g>
    </g>
    <g id="xtick_3">
     <g id="line2d_3">
      <g>
       <use style="stroke:#000000;stroke-width:0.8;" x="150.28512" xlink:href="#m2d8b93f188" y="288.430125"/>
      </g>
     </g>
     <g id="text_3">
      <!-- 0.50 -->
      <g transform="translate(139.152307 303.028562)scale(0.1 -0.1)">
       <use xlink:href="#DejaVuSans-48"/>
       <use x="63.623047" xlink:href="#DejaVuSans-46"/>
       <use x="95.410156" xlink:href="#DejaVuSans-53"/>
       <use x="159.033203" xlink:href="#DejaVuSans-48"/>
      </g>
     </g>
    </g>
    <g id="xtick_4">
     <g id="line2d_4">
      <g>
       <use style="stroke:#000000;stroke-width:0.8;" x="190.643379" xlink:href="#m2d8b93f188" y="288.430125"/>
      </g>
     </g>
     <g id="text_4">
      <!-- 0.75 -->
      <g transform="translate(179.510567 303.028562)scale(0.1 -0.1)">
       <defs>
        <path d="M 8.203125 72.90625 
L 55.078125 72.90625 
L 55.078125 68.703125 
L 28.609375 0 
L 18.3125 0 
L 43.21875 64.59375 
L 8.203125 64.59375 
z
" id="DejaVuSans-55"/>
       </defs>
       <use xlink:href="#DejaVuSans-48"/>
       <use x="63.623047" xlink:href="#DejaVuSans-46"/>
       <use x="95.410156" xlink:href="#DejaVuSans-55"/>
       <use x="159.033203" xlink:href="#DejaVuSans-53"/>
      </g>
     </g>
    </g>
    <g id="xtick_5">
     <g id="line2d_5">
      <g>
       <use style="stroke:#000000;stroke-width:0.8;" x="231.001639" xlink:href="#m2d8b93f188" y="288.430125"/>
      </g>
     </g>
     <g id="text_5">
      <!-- 1.00 -->
      <g transform="translate(219.868826 303.028562)scale(0.1 -0.1)">
       <defs>
        <path d="M 12.40625 8.296875 
L 28.515625 8.296875 
L 28.515625 63.921875 
L 10.984375 60.40625 
L 10.984375 69.390625 
L 28.421875 72.90625 
L 38.28125 72.90625 
L 38.28125 8.296875 
L 54.390625 8.296875 
L 54.390625 0 
L 12.40625 0 
z
" id="DejaVuSans-49"/>
       </defs>
       <use xlink:href="#DejaVuSans-49"/>
       <use x="63.623047" xlink:href="#DejaVuSans-46"/>
       <use x="95.410156" xlink:href="#DejaVuSans-48"/>
       <use x="159.033203" xlink:href="#DejaVuSans-48"/>
      </g>
     </g>
    </g>
    <g id="xtick_6">
     <g id="line2d_6">
      <g>
       <use style="stroke:#000000;stroke-width:0.8;" x="271.359898" xlink:href="#m2d8b93f188" y="288.430125"/>
      </g>
     </g>
     <g id="text_6">
      <!-- 1.25 -->
      <g transform="translate(260.227086 303.028562)scale(0.1 -0.1)">
       <use xlink:href="#DejaVuSans-49"/>
       <use x="63.623047" xlink:href="#DejaVuSans-46"/>
       <use x="95.410156" xlink:href="#DejaVuSans-50"/>
       <use x="159.033203" xlink:href="#DejaVuSans-53"/>
      </g>
     </g>
    </g>
    <g id="xtick_7">
     <g id="line2d_7">
      <g>
       <use style="stroke:#000000;stroke-width:0.8;" x="311.718158" xlink:href="#m2d8b93f188" y="288.430125"/>
      </g>
     </g>
     <g id="text_7">
      <!-- 1.50 -->
      <g transform="translate(300.585345 303.028562)scale(0.1 -0.1)">
       <use xlink:href="#DejaVuSans-49"/>
       <use x="63.623047" xlink:href="#DejaVuSans-46"/>
       <use x="95.410156" xlink:href="#DejaVuSans-53"/>
       <use x="159.033203" xlink:href="#DejaVuSans-48"/>
      </g>
     </g>
    </g>
    <g id="xtick_8">
     <g id="line2d_8">
      <g>
       <use style="stroke:#000000;stroke-width:0.8;" x="352.076417" xlink:href="#m2d8b93f188" y="288.430125"/>
      </g>
     </g>
     <g id="text_8">
      <!-- 1.75 -->
      <g transform="translate(340.943605 303.028562)scale(0.1 -0.1)">
       <use xlink:href="#DejaVuSans-49"/>
       <use x="63.623047" xlink:href="#DejaVuSans-46"/>
       <use x="95.410156" xlink:href="#DejaVuSans-55"/>
       <use x="159.033203" xlink:href="#DejaVuSans-53"/>
      </g>
     </g>
    </g>
    <g id="xtick_9">
     <g id="line2d_9">
      <g>
       <use style="stroke:#000000;stroke-width:0.8;" x="392.434677" xlink:href="#m2d8b93f188" y="288.430125"/>
      </g>
     </g>
     <g id="text_9">
      <!-- 2.00 -->
      <g transform="translate(381.301864 303.028562)scale(0.1 -0.1)">
       <use xlink:href="#DejaVuSans-50"/>
       <use x="63.623047" xlink:href="#DejaVuSans-46"/>
       <use x="95.410156" xlink:href="#DejaVuSans-48"/>
       <use x="159.033203" xlink:href="#DejaVuSans-48"/>
      </g>
     </g>
    </g>
    <g id="text_10">
     <!-- Time (ms) -->
     <g transform="translate(206.688906 316.706687)scale(0.1 -0.1)">
      <defs>
       <path d="M -0.296875 72.90625 
L 61.375 72.90625 
L 61.375 64.59375 
L 35.5 64.59375 
L 35.5 0 
L 25.59375 0 
L 25.59375 64.59375 
L -0.296875 64.59375 
z
" id="DejaVuSans-84"/>
       <path d="M 9.421875 54.6875 
L 18.40625 54.6875 
L 18.40625 0 
L 9.421875 0 
z
M 9.421875 75.984375 
L 18.40625 75.984375 
L 18.40625 64.59375 
L 9.421875 64.59375 
z
" id="DejaVuSans-105"/>
       <path d="M 52 44.1875 
Q 55.375 50.25 60.0625 53.125 
Q 64.75 56 71.09375 56 
Q 79.640625 56 84.28125 50.015625 
Q 88.921875 44.046875 88.921875 33.015625 
L 88.921875 0 
L 79.890625 0 
L 79.890625 32.71875 
Q 79.890625 40.578125 77.09375 44.375 
Q 74.3125 48.1875 68.609375 48.1875 
Q 61.625 48.1875 57.5625 43.546875 
Q 53.515625 38.921875 53.515625 30.90625 
L 53.515625 0 
L 44.484375 0 
L 44.484375 32.71875 
Q 44.484375 40.625 41.703125 44.40625 
Q 38.921875 48.1875 33.109375 48.1875 
Q 26.21875 48.1875 22.15625 43.53125 
Q 18.109375 38.875 18.109375 30.90625 
L 18.109375 0 
L 9.078125 0 
L 9.078125 54.6875 
L 18.109375 54.6875 
L 18.109375 46.1875 
Q 21.1875 51.21875 25.484375 53.609375 
Q 29.78125 56 35.6875 56 
Q 41.65625 56 45.828125 52.96875 
Q 50 49.953125 52 44.1875 
z
" id="DejaVuSans-109"/>
       <path d="M 56.203125 29.59375 
L 56.203125 25.203125 
L 14.890625 25.203125 
Q 15.484375 15.921875 20.484375 11.0625 
Q 25.484375 6.203125 34.421875 6.203125 
Q 39.59375 6.203125 44.453125 7.46875 
Q 49.3125 8.734375 54.109375 11.28125 
L 54.109375 2.78125 
Q 49.265625 0.734375 44.1875 -0.34375 
Q 39.109375 -1.421875 33.890625 -1.421875 
Q 20.796875 -1.421875 13.15625 6.1875 
Q 5.515625 13.8125 5.515625 26.8125 
Q 5.515625 40.234375 12.765625 48.109375 
Q 20.015625 56 32.328125 56 
Q 43.359375 56 49.78125 48.890625 
Q 56.203125 41.796875 56.203125 29.59375 
z
M 47.21875 32.234375 
Q 47.125 39.59375 43.09375 43.984375 
Q 39.0625 48.390625 32.421875 48.390625 
Q 24.90625 48.390625 20.390625 44.140625 
Q 15.875 39.890625 15.1875 32.171875 
z
" id="DejaVuSans-101"/>
       <path id="DejaVuSans-32"/>
       <path d="M 31 75.875 
Q 24.46875 64.65625 21.28125 53.65625 
Q 18.109375 42.671875 18.109375 31.390625 
Q 18.109375 20.125 21.3125 9.0625 
Q 24.515625 -2 31 -13.1875 
L 23.1875 -13.1875 
Q 15.875 -1.703125 12.234375 9.375 
Q 8.59375 20.453125 8.59375 31.390625 
Q 8.59375 42.28125 12.203125 53.3125 
Q 15.828125 64.359375 23.1875 75.875 
z
" id="DejaVuSans-40"/>
       <path d="M 44.28125 53.078125 
L 44.28125 44.578125 
Q 40.484375 46.53125 36.375 47.5 
Q 32.28125 48.484375 27.875 48.484375 
Q 21.1875 48.484375 17.84375 46.4375 
Q 14.5 44.390625 14.5 40.28125 
Q 14.5 37.15625 16.890625 35.375 
Q 19.28125 33.59375 26.515625 31.984375 
L 29.59375 31.296875 
Q 39.15625 29.25 43.1875 25.515625 
Q 47.21875 21.78125 47.21875 15.09375 
Q 47.21875 7.46875 41.1875 3.015625 
Q 35.15625 -1.421875 24.609375 -1.421875 
Q 20.21875 -1.421875 15.453125 -0.5625 
Q 10.6875 0.296875 5.421875 2 
L 5.421875 11.28125 
Q 10.40625 8.6875 15.234375 7.390625 
Q 20.0625 6.109375 24.8125 6.109375 
Q 31.15625 6.109375 34.5625 8.28125 
Q 37.984375 10.453125 37.984375 14.40625 
Q 37.984375 18.0625 35.515625 20.015625 
Q 33.0625 21.96875 24.703125 23.78125 
L 21.578125 24.515625 
Q 13.234375 26.265625 9.515625 29.90625 
Q 5.8125 33.546875 5.8125 39.890625 
Q 5.8125 47.609375 11.28125 51.796875 
Q 16.75 56 26.8125 56 
Q 31.78125 56 36.171875 55.265625 
Q 40.578125 54.546875 44.28125 53.078125 
z
" id="DejaVuSans-115"/>
       <path d="M 8.015625 75.875 
L 15.828125 75.875 
Q 23.140625 64.359375 26.78125 53.3125 
Q 30.421875 42.28125 30.421875 31.390625 
Q 30.421875 20.453125 26.78125 9.375 
Q 23.140625 -1.703125 15.828125 -13.1875 
L 8.015625 -13.1875 
Q 14.5 -2 17.703125 9.0625 
Q 20.90625 20.125 20.90625 31.390625 
Q 20.90625 42.671875 17.703125 53.65625 
Q 14.5 64.65625 8.015625 75.875 
z
" id="DejaVuSans-41"/>
      </defs>
      <use xlink:href="#DejaVuSans-84"/>
      <use x="57.958984" xlink:href="#DejaVuSans-105"/>
      <use x="85.742188" xlink:href="#DejaVuSans-109"/>
      <use x="183.154297" xlink:href="#DejaVuSans-101"/>
      <use x="244.677734" xlink:href="#DejaVuSans-32"/>
      <use x="276.464844" xlink:href="#DejaVuSans-40"/>
      <use x="315.478516" xlink:href="#DejaVuSans-109"/>
      <use x="412.890625" xlink:href="#DejaVuSans-115"/>
      <use x="464.990234" xlink:href="#DejaVuSans-41"/>
     </g>
    </g>
   </g>
   <g id="matplotlib.axis_2">
    <g id="ytick_1">
     <g id="line2d_10">
      <defs>
       <path d="M 0 0 
L -3.5 0 
" id="ma7c3581209" style="stroke:#000000;stroke-width:0.8;"/>
      </defs>
      <g>
       <use style="stroke:#000000;stroke-width:0.8;" x="53.328125" xlink:href="#ma7c3581209" y="276.334125"/>
      </g>
     </g>
     <g id="text_11">
      <!-- 0 -->
      <g transform="translate(39.965625 280.133344)scale(0.1 -0.1)">
       <use xlink:href="#DejaVuSans-48"/>
      </g>
     </g>
    </g>
    <g id="ytick_2">
     <g id="line2d_11">
      <g>
       <use style="stroke:#000000;stroke-width:0.8;" x="53.328125" xlink:href="#ma7c3581209" y="246.069303"/>
      </g>
     </g>
     <g id="text_12">
      <!-- 250 -->
      <g transform="translate(27.240625 249.868522)scale(0.1 -0.1)">
       <use xlink:href="#DejaVuSans-50"/>
       <use x="63.623047" xlink:href="#DejaVuSans-53"/>
       <use x="127.246094" xlink:href="#DejaVuSans-48"/>
      </g>
     </g>
    </g>
    <g id="ytick_3">
     <g id="line2d_12">
      <g>
       <use style="stroke:#000000;stroke-width:0.8;" x="53.328125" xlink:href="#ma7c3581209" y="215.804481"/>
      </g>
     </g>
     <g id="text_13">
      <!-- 500 -->
      <g transform="translate(27.240625 219.6037)scale(0.1 -0.1)">
       <use xlink:href="#DejaVuSans-53"/>
       <use x="63.623047" xlink:href="#DejaVuSans-48"/>
       <use x="127.246094" xlink:href="#DejaVuSans-48"/>
      </g>
     </g>
    </g>
    <g id="ytick_4">
     <g id="line2d_13">
      <g>
       <use style="stroke:#000000;stroke-width:0.8;" x="53.328125" xlink:href="#ma7c3581209" y="185.53966"/>
      </g>
     </g>
     <g id="text_14">
      <!-- 750 -->
      <g transform="translate(27.240625 189.338878)scale(0.1 -0.1)">
       <use xlink:href="#DejaVuSans-55"/>
       <use x="63.623047" xlink:href="#DejaVuSans-53"/>
       <use x="127.246094" xlink:href="#DejaVuSans-48"/>
      </g>
     </g>
    </g>
    <g id="ytick_5">
     <g id="line2d_14">
      <g>
       <use style="stroke:#000000;stroke-width:0.8;" x="53.328125" xlink:href="#ma7c3581209" y="155.274838"/>
      </g>
     </g>
     <g id="text_15">
      <!-- 1000 -->
      <g transform="translate(20.878125 159.074057)scale(0.1 -0.1)">
       <use xlink:href="#DejaVuSans-49"/>
       <use x="63.623047" xlink:href="#DejaVuSans-48"/>
       <use x="127.246094" xlink:href="#DejaVuSans-48"/>
       <use x="190.869141" xlink:href="#DejaVuSans-48"/>
      </g>
     </g>
    </g>
    <g id="ytick_6">
     <g id="line2d_15">
      <g>
       <use style="stroke:#000000;stroke-width:0.8;" x="53.328125" xlink:href="#ma7c3581209" y="125.010016"/>
      </g>
     </g>
     <g id="text_16">
      <!-- 1250 -->
      <g transform="translate(20.878125 128.809235)scale(0.1 -0.1)">
       <use xlink:href="#DejaVuSans-49"/>
       <use x="63.623047" xlink:href="#DejaVuSans-50"/>
       <use x="127.246094" xlink:href="#DejaVuSans-53"/>
       <use x="190.869141" xlink:href="#DejaVuSans-48"/>
      </g>
     </g>
    </g>
    <g id="ytick_7">
     <g id="line2d_16">
      <g>
       <use style="stroke:#000000;stroke-width:0.8;" x="53.328125" xlink:href="#ma7c3581209" y="94.745194"/>
      </g>
     </g>
     <g id="text_17">
      <!-- 1500 -->
      <g transform="translate(20.878125 98.544413)scale(0.1 -0.1)">
       <use xlink:href="#DejaVuSans-49"/>
       <use x="63.623047" xlink:href="#DejaVuSans-53"/>
       <use x="127.246094" xlink:href="#DejaVuSans-48"/>
       <use x="190.869141" xlink:href="#DejaVuSans-48"/>
      </g>
     </g>
    </g>
    <g id="ytick_8">
     <g id="line2d_17">
      <g>
       <use style="stroke:#000000;stroke-width:0.8;" x="53.328125" xlink:href="#ma7c3581209" y="64.480373"/>
      </g>
     </g>
     <g id="text_18">
      <!-- 1750 -->
      <g transform="translate(20.878125 68.279591)scale(0.1 -0.1)">
       <use xlink:href="#DejaVuSans-49"/>
       <use x="63.623047" xlink:href="#DejaVuSans-55"/>
       <use x="127.246094" xlink:href="#DejaVuSans-53"/>
       <use x="190.869141" xlink:href="#DejaVuSans-48"/>
      </g>
     </g>
    </g>
    <g id="ytick_9">
     <g id="line2d_18">
      <g>
       <use style="stroke:#000000;stroke-width:0.8;" x="53.328125" xlink:href="#ma7c3581209" y="34.215551"/>
      </g>
     </g>
     <g id="text_19">
      <!-- 2000 -->
      <g transform="translate(20.878125 38.01477)scale(0.1 -0.1)">
       <use xlink:href="#DejaVuSans-50"/>
       <use x="63.623047" xlink:href="#DejaVuSans-48"/>
       <use x="127.246094" xlink:href="#DejaVuSans-48"/>
       <use x="190.869141" xlink:href="#DejaVuSans-48"/>
      </g>
     </g>
    </g>
    <g id="text_20">
     <!-- H2O ppm -->
     <g transform="translate(14.798438 179.059281)rotate(-90)scale(0.1 -0.1)">
      <defs>
       <path d="M 9.8125 72.90625 
L 19.671875 72.90625 
L 19.671875 43.015625 
L 55.515625 43.015625 
L 55.515625 72.90625 
L 65.375 72.90625 
L 65.375 0 
L 55.515625 0 
L 55.515625 34.71875 
L 19.671875 34.71875 
L 19.671875 0 
L 9.8125 0 
z
" id="DejaVuSans-72"/>
       <path d="M 39.40625 66.21875 
Q 28.65625 66.21875 22.328125 58.203125 
Q 16.015625 50.203125 16.015625 36.375 
Q 16.015625 22.609375 22.328125 14.59375 
Q 28.65625 6.59375 39.40625 6.59375 
Q 50.140625 6.59375 56.421875 14.59375 
Q 62.703125 22.609375 62.703125 36.375 
Q 62.703125 50.203125 56.421875 58.203125 
Q 50.140625 66.21875 39.40625 66.21875 
z
M 39.40625 74.21875 
Q 54.734375 74.21875 63.90625 63.9375 
Q 73.09375 53.65625 73.09375 36.375 
Q 73.09375 19.140625 63.90625 8.859375 
Q 54.734375 -1.421875 39.40625 -1.421875 
Q 24.03125 -1.421875 14.8125 8.828125 
Q 5.609375 19.09375 5.609375 36.375 
Q 5.609375 53.65625 14.8125 63.9375 
Q 24.03125 74.21875 39.40625 74.21875 
z
" id="DejaVuSans-79"/>
       <path d="M 18.109375 8.203125 
L 18.109375 -20.796875 
L 9.078125 -20.796875 
L 9.078125 54.6875 
L 18.109375 54.6875 
L 18.109375 46.390625 
Q 20.953125 51.265625 25.265625 53.625 
Q 29.59375 56 35.59375 56 
Q 45.5625 56 51.78125 48.09375 
Q 58.015625 40.1875 58.015625 27.296875 
Q 58.015625 14.40625 51.78125 6.484375 
Q 45.5625 -1.421875 35.59375 -1.421875 
Q 29.59375 -1.421875 25.265625 0.953125 
Q 20.953125 3.328125 18.109375 8.203125 
z
M 48.6875 27.296875 
Q 48.6875 37.203125 44.609375 42.84375 
Q 40.53125 48.484375 33.40625 48.484375 
Q 26.265625 48.484375 22.1875 42.84375 
Q 18.109375 37.203125 18.109375 27.296875 
Q 18.109375 17.390625 22.1875 11.75 
Q 26.265625 6.109375 33.40625 6.109375 
Q 40.53125 6.109375 44.609375 11.75 
Q 48.6875 17.390625 48.6875 27.296875 
z
" id="DejaVuSans-112"/>
      </defs>
      <use xlink:href="#DejaVuSans-72"/>
      <use x="75.195312" xlink:href="#DejaVuSans-50"/>
      <use x="138.818359" xlink:href="#DejaVuSans-79"/>
      <use x="217.529297" xlink:href="#DejaVuSans-32"/>
      <use x="249.316406" xlink:href="#DejaVuSans-112"/>
      <use x="312.792969" xlink:href="#DejaVuSans-112"/>
      <use x="376.269531" xlink:href="#DejaVuSans-109"/>
     </g>
    </g>
   </g>
   <g id="line2d_19">
    <path clip-path="url(#pfa28f87ab3)" d="M 69.560852 276.334125 
L 83.58599 276.227157 
L 94.42892 275.961072 
L 101.476825 275.567669 
L 106.356144 275.093668 
L 110.693317 274.444491 
L 113.946196 273.751741 
L 117.199075 272.814161 
L 119.909808 271.786694 
L 122.078394 270.760486 
L 124.24698 269.512034 
L 126.415566 267.996637 
L 128.584153 266.162153 
L 130.752739 263.948525 
L 132.379178 261.998839 
L 134.005618 259.766226 
L 135.632058 257.21706 
L 137.258497 254.31611 
L 138.884937 251.027287 
L 140.511376 247.314662 
L 142.137816 243.143821 
L 143.764256 238.483542 
L 145.932842 231.464517 
L 148.101428 223.489924 
L 150.270014 214.553309 
L 152.4386 204.691178 
L 155.279154 190.524034 
L 158.574832 172.731407 
L 168.467002 118.277617 
L 170.9517 106.167511 
L 173.436397 95.186669 
L 175.610507 86.589229 
L 177.784617 78.956359 
L 179.648139 73.166446 
L 181.667986 67.637641 
L 183.535631 63.170456 
L 185.403276 59.271124 
L 187.270921 55.885619 
L 189.138566 52.959383 
L 191.006211 50.439427 
L 192.873856 48.275769 
L 194.741501 46.422325 
L 196.609146 44.837354 
L 198.943702 43.177333 
L 201.278258 41.815674 
L 203.612814 40.699042 
L 206.209428 39.690931 
L 209.049032 38.813742 
L 212.598537 37.972199 
L 216.857943 37.236799 
L 221.82725 36.640072 
L 228.216359 36.137251 
L 236.02527 35.758948 
L 247.383686 35.44292 
L 266.551013 35.159125 
L 305.461188 34.841142 
L 381.381462 34.462314 
L 394.215398 34.414125 
L 394.215398 34.414125 
" style="fill:none;stroke:#0000ff;stroke-linecap:square;stroke-width:1.5;"/>
   </g>
   <g id="line2d_20">
    <path clip-path="url(#pfa28f87ab3)" d="M 69.568601 276.334125 
L 82.690992 276.228955 
L 92.94669 275.968081 
L 99.783822 275.572126 
L 104.569814 275.084462 
L 108.672093 274.438261 
L 112.090659 273.661191 
L 114.825512 272.823733 
L 117.560365 271.733211 
L 119.611504 270.706293 
L 121.662644 269.459457 
L 123.713783 267.94904 
L 125.764923 266.124237 
L 127.628262 264.145066 
L 129.611912 261.64475 
L 131.595561 258.674472 
L 133.579211 255.16343 
L 135.562861 251.037507 
L 137.546511 246.222366 
L 139.530161 240.647872 
L 141.513811 234.25392 
L 143.49746 226.997518 
L 145.48111 218.860666 
L 147.806953 208.220962 
L 150.183506 196.219423 
L 153.121797 180.088707 
L 157.376978 155.264224 
L 162.142747 127.713541 
L 164.866043 113.133941 
L 167.450084 100.539101 
L 169.604969 91.108534 
L 171.692 82.958205 
L 173.36579 77.122087 
L 175.371455 70.924247 
L 177.377119 65.544843 
L 179.382783 60.917603 
L 181.268337 57.186631 
L 183.049641 54.153743 
L 184.877577 51.480884 
L 186.798773 49.09145 
L 188.74382 47.050982 
L 190.730249 45.302781 
L 192.733543 43.830446 
L 195.149158 42.377505 
L 197.564772 41.212177 
L 199.980387 40.277467 
L 202.879125 39.395664 
L 206.260985 38.619346 
L 210.125969 37.974625 
L 214.957198 37.418427 
L 220.754673 36.985113 
L 228.967763 36.619078 
L 241.067653 36.330195 
L 263.6005 36.058479 
L 314.868729 35.708925 
L 393.089202 35.365838 
L 393.089202 35.365838 
" style="fill:none;stroke:#ff0000;stroke-linecap:square;stroke-width:1.5;"/>
   </g>
   <g id="line2d_21">
    <defs>
     <path d="M 0 3 
C 0.795609 3 1.55874 2.683901 2.12132 2.12132 
C 2.683901 1.55874 3 0.795609 3 0 
C 3 -0.795609 2.683901 -1.55874 2.12132 -2.12132 
C 1.55874 -2.683901 0.795609 -3 0 -3 
C -0.795609 -3 -1.55874 -2.683901 -2.12132 -2.12132 
C -2.683901 -1.55874 -3 -0.795609 -3 0 
C -3 0.795609 -2.683901 1.55874 -2.12132 2.12132 
C -1.55874 2.683901 -0.795609 3 0 3 
z
" id="m2756e0eb5f" style="stroke:#000000;"/>
    </defs>
    <g clip-path="url(#pfa28f87ab3)">
     <use style="stroke:#000000;" x="134.141816" xlink:href="#m2756e0eb5f" y="257.0117"/>
     <use style="stroke:#000000;" x="134.303249" xlink:href="#m2756e0eb5f" y="267.699897"/>
     <use style="stroke:#000000;" x="134.464682" xlink:href="#m2756e0eb5f" y="258.958236"/>
     <use style="stroke:#000000;" x="134.626115" xlink:href="#m2756e0eb5f" y="257.0117"/>
     <use style="stroke:#000000;" x="134.787548" xlink:href="#m2756e0eb5f" y="257.984326"/>
     <use style="stroke:#000000;" x="134.948981" xlink:href="#m2756e0eb5f" y="262.845987"/>
     <use style="stroke:#000000;" x="135.110414" xlink:href="#m2756e0eb5f" y="257.0117"/>
     <use style="stroke:#000000;" x="135.271847" xlink:href="#m2756e0eb5f" y="256.038762"/>
     <use style="stroke:#000000;" x="135.43328" xlink:href="#m2756e0eb5f" y="256.038762"/>
     <use style="stroke:#000000;" x="135.594714" xlink:href="#m2756e0eb5f" y="259.930242"/>
     <use style="stroke:#000000;" x="135.756147" xlink:href="#m2756e0eb5f" y="261.874913"/>
     <use style="stroke:#000000;" x="135.91758" xlink:href="#m2756e0eb5f" y="262.845987"/>
     <use style="stroke:#000000;" x="136.079013" xlink:href="#m2756e0eb5f" y="257.984326"/>
     <use style="stroke:#000000;" x="136.240446" xlink:href="#m2756e0eb5f" y="253.116485"/>
     <use style="stroke:#000000;" x="136.401879" xlink:href="#m2756e0eb5f" y="256.038762"/>
     <use style="stroke:#000000;" x="136.563312" xlink:href="#m2756e0eb5f" y="252.140705"/>
     <use style="stroke:#000000;" x="136.724745" xlink:href="#m2756e0eb5f" y="253.116485"/>
     <use style="stroke:#000000;" x="136.886178" xlink:href="#m2756e0eb5f" y="255.063917"/>
     <use style="stroke:#000000;" x="137.047611" xlink:href="#m2756e0eb5f" y="255.063917"/>
     <use style="stroke:#000000;" x="137.209044" xlink:href="#m2756e0eb5f" y="253.116485"/>
     <use style="stroke:#000000;" x="137.370477" xlink:href="#m2756e0eb5f" y="252.140705"/>
     <use style="stroke:#000000;" x="137.53191" xlink:href="#m2756e0eb5f" y="260.903529"/>
     <use style="stroke:#000000;" x="137.693343" xlink:href="#m2756e0eb5f" y="254.090357"/>
     <use style="stroke:#000000;" x="137.854776" xlink:href="#m2756e0eb5f" y="256.038762"/>
     <use style="stroke:#000000;" x="138.016209" xlink:href="#m2756e0eb5f" y="254.090357"/>
     <use style="stroke:#000000;" x="138.177642" xlink:href="#m2756e0eb5f" y="254.090357"/>
     <use style="stroke:#000000;" x="138.339075" xlink:href="#m2756e0eb5f" y="253.116485"/>
     <use style="stroke:#000000;" x="138.500508" xlink:href="#m2756e0eb5f" y="255.063917"/>
     <use style="stroke:#000000;" x="138.661941" xlink:href="#m2756e0eb5f" y="256.038762"/>
     <use style="stroke:#000000;" x="138.823374" xlink:href="#m2756e0eb5f" y="255.063917"/>
     <use style="stroke:#000000;" x="138.984807" xlink:href="#m2756e0eb5f" y="250.191401"/>
     <use style="stroke:#000000;" x="139.14624" xlink:href="#m2756e0eb5f" y="252.140705"/>
     <use style="stroke:#000000;" x="139.307673" xlink:href="#m2756e0eb5f" y="248.239249"/>
     <use style="stroke:#000000;" x="139.469106" xlink:href="#m2756e0eb5f" y="251.166209"/>
     <use style="stroke:#000000;" x="139.630539" xlink:href="#m2756e0eb5f" y="247.263502"/>
     <use style="stroke:#000000;" x="139.791972" xlink:href="#m2756e0eb5f" y="247.263502"/>
     <use style="stroke:#000000;" x="139.953406" xlink:href="#m2756e0eb5f" y="249.214681"/>
     <use style="stroke:#000000;" x="140.114839" xlink:href="#m2756e0eb5f" y="245.309471"/>
     <use style="stroke:#000000;" x="140.276272" xlink:href="#m2756e0eb5f" y="248.239249"/>
     <use style="stroke:#000000;" x="140.437705" xlink:href="#m2756e0eb5f" y="246.285843"/>
     <use style="stroke:#000000;" x="140.599138" xlink:href="#m2756e0eb5f" y="246.285843"/>
     <use style="stroke:#000000;" x="140.760571" xlink:href="#m2756e0eb5f" y="245.309471"/>
     <use style="stroke:#000000;" x="140.922004" xlink:href="#m2756e0eb5f" y="243.354184"/>
     <use style="stroke:#000000;" x="141.083437" xlink:href="#m2756e0eb5f" y="241.397641"/>
     <use style="stroke:#000000;" x="141.24487" xlink:href="#m2756e0eb5f" y="249.214681"/>
     <use style="stroke:#000000;" x="141.406303" xlink:href="#m2756e0eb5f" y="244.332785"/>
     <use style="stroke:#000000;" x="141.567736" xlink:href="#m2756e0eb5f" y="241.397641"/>
     <use style="stroke:#000000;" x="141.729169" xlink:href="#m2756e0eb5f" y="242.376871"/>
     <use style="stroke:#000000;" x="141.890602" xlink:href="#m2756e0eb5f" y="241.397641"/>
     <use style="stroke:#000000;" x="142.052035" xlink:href="#m2756e0eb5f" y="238.461268"/>
     <use style="stroke:#000000;" x="142.213468" xlink:href="#m2756e0eb5f" y="238.461268"/>
     <use style="stroke:#000000;" x="142.374901" xlink:href="#m2756e0eb5f" y="245.309471"/>
     <use style="stroke:#000000;" x="142.536334" xlink:href="#m2756e0eb5f" y="240.4197"/>
     <use style="stroke:#000000;" x="142.697767" xlink:href="#m2756e0eb5f" y="240.4197"/>
     <use style="stroke:#000000;" x="142.8592" xlink:href="#m2756e0eb5f" y="239.441444"/>
     <use style="stroke:#000000;" x="143.020633" xlink:href="#m2756e0eb5f" y="238.461268"/>
     <use style="stroke:#000000;" x="143.182066" xlink:href="#m2756e0eb5f" y="241.397641"/>
     <use style="stroke:#000000;" x="143.343499" xlink:href="#m2756e0eb5f" y="242.376871"/>
     <use style="stroke:#000000;" x="143.504932" xlink:href="#m2756e0eb5f" y="237.482383"/>
     <use style="stroke:#000000;" x="143.666365" xlink:href="#m2756e0eb5f" y="236.503183"/>
     <use style="stroke:#000000;" x="143.827798" xlink:href="#m2756e0eb5f" y="239.441444"/>
     <use style="stroke:#000000;" x="143.989231" xlink:href="#m2756e0eb5f" y="237.482383"/>
     <use style="stroke:#000000;" x="144.150665" xlink:href="#m2756e0eb5f" y="241.397641"/>
     <use style="stroke:#000000;" x="144.312098" xlink:href="#m2756e0eb5f" y="239.441444"/>
     <use style="stroke:#000000;" x="144.473531" xlink:href="#m2756e0eb5f" y="237.482383"/>
     <use style="stroke:#000000;" x="144.634964" xlink:href="#m2756e0eb5f" y="233.562082"/>
     <use style="stroke:#000000;" x="144.796397" xlink:href="#m2756e0eb5f" y="234.542229"/>
     <use style="stroke:#000000;" x="144.95783" xlink:href="#m2756e0eb5f" y="230.618138"/>
     <use style="stroke:#000000;" x="145.119263" xlink:href="#m2756e0eb5f" y="232.580012"/>
     <use style="stroke:#000000;" x="145.280696" xlink:href="#m2756e0eb5f" y="231.599233"/>
     <use style="stroke:#000000;" x="145.442129" xlink:href="#m2756e0eb5f" y="229.635118"/>
     <use style="stroke:#000000;" x="145.603562" xlink:href="#m2756e0eb5f" y="233.562082"/>
     <use style="stroke:#000000;" x="145.764995" xlink:href="#m2756e0eb5f" y="229.635118"/>
     <use style="stroke:#000000;" x="145.926428" xlink:href="#m2756e0eb5f" y="229.635118"/>
     <use style="stroke:#000000;" x="146.087861" xlink:href="#m2756e0eb5f" y="225.704692"/>
     <use style="stroke:#000000;" x="146.249294" xlink:href="#m2756e0eb5f" y="232.580012"/>
     <use style="stroke:#000000;" x="146.410727" xlink:href="#m2756e0eb5f" y="229.635118"/>
     <use style="stroke:#000000;" x="146.57216" xlink:href="#m2756e0eb5f" y="223.736768"/>
     <use style="stroke:#000000;" x="146.733593" xlink:href="#m2756e0eb5f" y="226.687371"/>
     <use style="stroke:#000000;" x="146.895026" xlink:href="#m2756e0eb5f" y="225.704692"/>
     <use style="stroke:#000000;" x="147.056459" xlink:href="#m2756e0eb5f" y="227.671343"/>
     <use style="stroke:#000000;" x="147.217892" xlink:href="#m2756e0eb5f" y="224.721694"/>
     <use style="stroke:#000000;" x="147.379325" xlink:href="#m2756e0eb5f" y="227.671343"/>
     <use style="stroke:#000000;" x="147.540758" xlink:href="#m2756e0eb5f" y="223.736768"/>
     <use style="stroke:#000000;" x="147.702191" xlink:href="#m2756e0eb5f" y="224.721694"/>
     <use style="stroke:#000000;" x="147.863624" xlink:href="#m2756e0eb5f" y="222.753134"/>
     <use style="stroke:#000000;" x="148.025057" xlink:href="#m2756e0eb5f" y="222.753134"/>
     <use style="stroke:#000000;" x="148.18649" xlink:href="#m2756e0eb5f" y="218.812192"/>
     <use style="stroke:#000000;" x="148.347923" xlink:href="#m2756e0eb5f" y="222.753134"/>
     <use style="stroke:#000000;" x="148.509357" xlink:href="#m2756e0eb5f" y="220.783301"/>
     <use style="stroke:#000000;" x="148.67079" xlink:href="#m2756e0eb5f" y="221.76757"/>
     <use style="stroke:#000000;" x="148.832223" xlink:href="#m2756e0eb5f" y="219.798713"/>
     <use style="stroke:#000000;" x="148.993656" xlink:href="#m2756e0eb5f" y="215.853941"/>
     <use style="stroke:#000000;" x="149.155089" xlink:href="#m2756e0eb5f" y="215.853941"/>
     <use style="stroke:#000000;" x="149.316522" xlink:href="#m2756e0eb5f" y="214.867757"/>
     <use style="stroke:#000000;" x="149.477955" xlink:href="#m2756e0eb5f" y="215.853941"/>
     <use style="stroke:#000000;" x="149.639388" xlink:href="#m2756e0eb5f" y="219.798713"/>
     <use style="stroke:#000000;" x="149.800821" xlink:href="#m2756e0eb5f" y="212.892813"/>
     <use style="stroke:#000000;" x="149.962254" xlink:href="#m2756e0eb5f" y="214.867757"/>
     <use style="stroke:#000000;" x="150.123687" xlink:href="#m2756e0eb5f" y="212.892813"/>
     <use style="stroke:#000000;" x="150.28512" xlink:href="#m2756e0eb5f" y="211.905669"/>
     <use style="stroke:#000000;" x="150.446553" xlink:href="#m2756e0eb5f" y="213.881254"/>
     <use style="stroke:#000000;" x="150.607986" xlink:href="#m2756e0eb5f" y="212.892813"/>
     <use style="stroke:#000000;" x="150.769419" xlink:href="#m2756e0eb5f" y="211.905669"/>
     <use style="stroke:#000000;" x="150.930852" xlink:href="#m2756e0eb5f" y="208.940696"/>
     <use style="stroke:#000000;" x="151.092285" xlink:href="#m2756e0eb5f" y="205.972832"/>
     <use style="stroke:#000000;" x="151.253718" xlink:href="#m2756e0eb5f" y="206.961901"/>
     <use style="stroke:#000000;" x="151.415151" xlink:href="#m2756e0eb5f" y="206.961901"/>
     <use style="stroke:#000000;" x="151.576584" xlink:href="#m2756e0eb5f" y="209.928801"/>
     <use style="stroke:#000000;" x="151.738017" xlink:href="#m2756e0eb5f" y="207.95227"/>
     <use style="stroke:#000000;" x="151.89945" xlink:href="#m2756e0eb5f" y="208.940696"/>
     <use style="stroke:#000000;" x="152.060883" xlink:href="#m2756e0eb5f" y="203.002072"/>
     <use style="stroke:#000000;" x="152.222316" xlink:href="#m2756e0eb5f" y="202.01009"/>
     <use style="stroke:#000000;" x="152.383749" xlink:href="#m2756e0eb5f" y="206.961901"/>
     <use style="stroke:#000000;" x="152.545182" xlink:href="#m2756e0eb5f" y="199.035459"/>
     <use style="stroke:#000000;" x="152.706616" xlink:href="#m2756e0eb5f" y="200.028409"/>
     <use style="stroke:#000000;" x="152.868049" xlink:href="#m2756e0eb5f" y="201.019411"/>
     <use style="stroke:#000000;" x="153.029482" xlink:href="#m2756e0eb5f" y="199.035459"/>
     <use style="stroke:#000000;" x="153.190915" xlink:href="#m2756e0eb5f" y="196.057918"/>
     <use style="stroke:#000000;" x="153.352348" xlink:href="#m2756e0eb5f" y="198.04381"/>
     <use style="stroke:#000000;" x="153.513781" xlink:href="#m2756e0eb5f" y="199.035459"/>
     <use style="stroke:#000000;" x="153.675214" xlink:href="#m2756e0eb5f" y="192.083868"/>
     <use style="stroke:#000000;" x="153.836647" xlink:href="#m2756e0eb5f" y="194.072355"/>
     <use style="stroke:#000000;" x="153.99808" xlink:href="#m2756e0eb5f" y="194.072355"/>
     <use style="stroke:#000000;" x="154.159513" xlink:href="#m2756e0eb5f" y="197.051839"/>
     <use style="stroke:#000000;" x="154.320946" xlink:href="#m2756e0eb5f" y="192.083868"/>
     <use style="stroke:#000000;" x="154.482379" xlink:href="#m2756e0eb5f" y="192.083868"/>
     <use style="stroke:#000000;" x="154.643812" xlink:href="#m2756e0eb5f" y="192.083868"/>
     <use style="stroke:#000000;" x="154.805245" xlink:href="#m2756e0eb5f" y="192.083868"/>
     <use style="stroke:#000000;" x="154.966678" xlink:href="#m2756e0eb5f" y="191.089953"/>
     <use style="stroke:#000000;" x="155.128111" xlink:href="#m2756e0eb5f" y="195.065298"/>
     <use style="stroke:#000000;" x="155.289544" xlink:href="#m2756e0eb5f" y="191.089953"/>
     <use style="stroke:#000000;" x="155.450977" xlink:href="#m2756e0eb5f" y="189.099516"/>
     <use style="stroke:#000000;" x="155.61241" xlink:href="#m2756e0eb5f" y="188.104625"/>
     <use style="stroke:#000000;" x="155.773843" xlink:href="#m2756e0eb5f" y="186.112235"/>
     <use style="stroke:#000000;" x="155.935276" xlink:href="#m2756e0eb5f" y="182.123538"/>
     <use style="stroke:#000000;" x="156.096709" xlink:href="#m2756e0eb5f" y="184.11854"/>
     <use style="stroke:#000000;" x="156.258142" xlink:href="#m2756e0eb5f" y="186.112235"/>
     <use style="stroke:#000000;" x="156.419575" xlink:href="#m2756e0eb5f" y="187.107777"/>
     <use style="stroke:#000000;" x="156.581008" xlink:href="#m2756e0eb5f" y="183.12202"/>
     <use style="stroke:#000000;" x="156.742441" xlink:href="#m2756e0eb5f" y="177.132762"/>
     <use style="stroke:#000000;" x="156.903874" xlink:href="#m2756e0eb5f" y="184.11854"/>
     <use style="stroke:#000000;" x="157.065308" xlink:href="#m2756e0eb5f" y="182.123538"/>
     <use style="stroke:#000000;" x="157.226741" xlink:href="#m2756e0eb5f" y="183.12202"/>
     <use style="stroke:#000000;" x="157.388174" xlink:href="#m2756e0eb5f" y="180.128864"/>
     <use style="stroke:#000000;" x="157.549607" xlink:href="#m2756e0eb5f" y="175.133176"/>
     <use style="stroke:#000000;" x="157.71104" xlink:href="#m2756e0eb5f" y="173.132274"/>
     <use style="stroke:#000000;" x="157.872473" xlink:href="#m2756e0eb5f" y="177.132762"/>
     <use style="stroke:#000000;" x="158.033906" xlink:href="#m2756e0eb5f" y="175.133176"/>
     <use style="stroke:#000000;" x="158.195339" xlink:href="#m2756e0eb5f" y="177.132762"/>
     <use style="stroke:#000000;" x="158.356772" xlink:href="#m2756e0eb5f" y="176.132314"/>
     <use style="stroke:#000000;" x="158.518205" xlink:href="#m2756e0eb5f" y="169.128164"/>
     <use style="stroke:#000000;" x="158.679638" xlink:href="#m2756e0eb5f" y="173.132274"/>
     <use style="stroke:#000000;" x="158.841071" xlink:href="#m2756e0eb5f" y="172.13215"/>
     <use style="stroke:#000000;" x="159.002504" xlink:href="#m2756e0eb5f" y="169.128164"/>
     <use style="stroke:#000000;" x="159.163937" xlink:href="#m2756e0eb5f" y="170.129275"/>
     <use style="stroke:#000000;" x="159.32537" xlink:href="#m2756e0eb5f" y="170.129275"/>
     <use style="stroke:#000000;" x="159.486803" xlink:href="#m2756e0eb5f" y="166.12121"/>
     <use style="stroke:#000000;" x="159.648236" xlink:href="#m2756e0eb5f" y="166.12121"/>
     <use style="stroke:#000000;" x="159.809669" xlink:href="#m2756e0eb5f" y="169.128164"/>
     <use style="stroke:#000000;" x="159.971102" xlink:href="#m2756e0eb5f" y="165.117136"/>
     <use style="stroke:#000000;" x="160.132535" xlink:href="#m2756e0eb5f" y="165.117136"/>
     <use style="stroke:#000000;" x="160.293968" xlink:href="#m2756e0eb5f" y="162.106215"/>
     <use style="stroke:#000000;" x="160.455401" xlink:href="#m2756e0eb5f" y="164.114374"/>
     <use style="stroke:#000000;" x="160.616834" xlink:href="#m2756e0eb5f" y="164.114374"/>
     <use style="stroke:#000000;" x="160.778267" xlink:href="#m2756e0eb5f" y="156.075425"/>
     <use style="stroke:#000000;" x="160.9397" xlink:href="#m2756e0eb5f" y="159.092313"/>
     <use style="stroke:#000000;" x="161.101133" xlink:href="#m2756e0eb5f" y="159.092313"/>
     <use style="stroke:#000000;" x="161.262567" xlink:href="#m2756e0eb5f" y="158.087564"/>
     <use style="stroke:#000000;" x="161.424" xlink:href="#m2756e0eb5f" y="153.055543"/>
     <use style="stroke:#000000;" x="161.585433" xlink:href="#m2756e0eb5f" y="157.082485"/>
     <use style="stroke:#000000;" x="161.746866" xlink:href="#m2756e0eb5f" y="156.075425"/>
     <use style="stroke:#000000;" x="161.908299" xlink:href="#m2756e0eb5f" y="151.040073"/>
     <use style="stroke:#000000;" x="162.069732" xlink:href="#m2756e0eb5f" y="152.0488"/>
     <use style="stroke:#000000;" x="162.231165" xlink:href="#m2756e0eb5f" y="150.032662"/>
     <use style="stroke:#000000;" x="162.392598" xlink:href="#m2756e0eb5f" y="154.063602"/>
     <use style="stroke:#000000;" x="162.554031" xlink:href="#m2756e0eb5f" y="153.055543"/>
     <use style="stroke:#000000;" x="162.715464" xlink:href="#m2756e0eb5f" y="145.998031"/>
     <use style="stroke:#000000;" x="162.876897" xlink:href="#m2756e0eb5f" y="156.075425"/>
     <use style="stroke:#000000;" x="163.03833" xlink:href="#m2756e0eb5f" y="151.040073"/>
     <use style="stroke:#000000;" x="163.199763" xlink:href="#m2756e0eb5f" y="145.998031"/>
     <use style="stroke:#000000;" x="163.361196" xlink:href="#m2756e0eb5f" y="147.006777"/>
     <use style="stroke:#000000;" x="163.522629" xlink:href="#m2756e0eb5f" y="145.998031"/>
     <use style="stroke:#000000;" x="163.684062" xlink:href="#m2756e0eb5f" y="139.935212"/>
     <use style="stroke:#000000;" x="163.845495" xlink:href="#m2756e0eb5f" y="145.998031"/>
     <use style="stroke:#000000;" x="164.006928" xlink:href="#m2756e0eb5f" y="140.945968"/>
     <use style="stroke:#000000;" x="164.168361" xlink:href="#m2756e0eb5f" y="143.977881"/>
     <use style="stroke:#000000;" x="164.329794" xlink:href="#m2756e0eb5f" y="141.956389"/>
     <use style="stroke:#000000;" x="164.491227" xlink:href="#m2756e0eb5f" y="140.945968"/>
     <use style="stroke:#000000;" x="164.65266" xlink:href="#m2756e0eb5f" y="135.885507"/>
     <use style="stroke:#000000;" x="164.814093" xlink:href="#m2756e0eb5f" y="139.935212"/>
     <use style="stroke:#000000;" x="164.975526" xlink:href="#m2756e0eb5f" y="132.845519"/>
     <use style="stroke:#000000;" x="165.136959" xlink:href="#m2756e0eb5f" y="135.885507"/>
     <use style="stroke:#000000;" x="165.298392" xlink:href="#m2756e0eb5f" y="133.860293"/>
     <use style="stroke:#000000;" x="165.459826" xlink:href="#m2756e0eb5f" y="129.802493"/>
     <use style="stroke:#000000;" x="165.621259" xlink:href="#m2756e0eb5f" y="133.860293"/>
     <use style="stroke:#000000;" x="165.782692" xlink:href="#m2756e0eb5f" y="136.899268"/>
     <use style="stroke:#000000;" x="165.944125" xlink:href="#m2756e0eb5f" y="129.802493"/>
     <use style="stroke:#000000;" x="166.105558" xlink:href="#m2756e0eb5f" y="125.740941"/>
     <use style="stroke:#000000;" x="166.266991" xlink:href="#m2756e0eb5f" y="126.756421"/>
     <use style="stroke:#000000;" x="166.428424" xlink:href="#m2756e0eb5f" y="128.788028"/>
     <use style="stroke:#000000;" x="166.589857" xlink:href="#m2756e0eb5f" y="127.771562"/>
     <use style="stroke:#000000;" x="166.75129" xlink:href="#m2756e0eb5f" y="128.788028"/>
     <use style="stroke:#000000;" x="166.912723" xlink:href="#m2756e0eb5f" y="128.788028"/>
     <use style="stroke:#000000;" x="167.074156" xlink:href="#m2756e0eb5f" y="127.771562"/>
     <use style="stroke:#000000;" x="167.235589" xlink:href="#m2756e0eb5f" y="121.672297"/>
     <use style="stroke:#000000;" x="167.397022" xlink:href="#m2756e0eb5f" y="121.672297"/>
     <use style="stroke:#000000;" x="167.558455" xlink:href="#m2756e0eb5f" y="127.771562"/>
     <use style="stroke:#000000;" x="167.719888" xlink:href="#m2756e0eb5f" y="120.655119"/>
     <use style="stroke:#000000;" x="167.881321" xlink:href="#m2756e0eb5f" y="124.723457"/>
     <use style="stroke:#000000;" x="168.042754" xlink:href="#m2756e0eb5f" y="123.707298"/>
     <use style="stroke:#000000;" x="168.204187" xlink:href="#m2756e0eb5f" y="112.500421"/>
     <use style="stroke:#000000;" x="168.36562" xlink:href="#m2756e0eb5f" y="120.655119"/>
     <use style="stroke:#000000;" x="168.527053" xlink:href="#m2756e0eb5f" y="118.618074"/>
     <use style="stroke:#000000;" x="168.688486" xlink:href="#m2756e0eb5f" y="113.520328"/>
     <use style="stroke:#000000;" x="168.849919" xlink:href="#m2756e0eb5f" y="113.520328"/>
     <use style="stroke:#000000;" x="169.011352" xlink:href="#m2756e0eb5f" y="111.480174"/>
     <use style="stroke:#000000;" x="169.172785" xlink:href="#m2756e0eb5f" y="108.415703"/>
     <use style="stroke:#000000;" x="169.334218" xlink:href="#m2756e0eb5f" y="107.392411"/>
     <use style="stroke:#000000;" x="169.495651" xlink:href="#m2756e0eb5f" y="112.500421"/>
     <use style="stroke:#000000;" x="169.657084" xlink:href="#m2756e0eb5f" y="111.480174"/>
     <use style="stroke:#000000;" x="169.818518" xlink:href="#m2756e0eb5f" y="106.37045"/>
     <use style="stroke:#000000;" x="169.979951" xlink:href="#m2756e0eb5f" y="112.500421"/>
     <use style="stroke:#000000;" x="170.141384" xlink:href="#m2756e0eb5f" y="107.392411"/>
     <use style="stroke:#000000;" x="170.302817" xlink:href="#m2756e0eb5f" y="106.37045"/>
     <use style="stroke:#000000;" x="170.46425" xlink:href="#m2756e0eb5f" y="103.300828"/>
     <use style="stroke:#000000;" x="170.625683" xlink:href="#m2756e0eb5f" y="105.348145"/>
     <use style="stroke:#000000;" x="170.787116" xlink:href="#m2756e0eb5f" y="105.348145"/>
     <use style="stroke:#000000;" x="170.948549" xlink:href="#m2756e0eb5f" y="105.348145"/>
     <use style="stroke:#000000;" x="171.109982" xlink:href="#m2756e0eb5f" y="108.415703"/>
     <use style="stroke:#000000;" x="171.271415" xlink:href="#m2756e0eb5f" y="104.32382"/>
     <use style="stroke:#000000;" x="171.432848" xlink:href="#m2756e0eb5f" y="104.32382"/>
     <use style="stroke:#000000;" x="171.594281" xlink:href="#m2756e0eb5f" y="103.300828"/>
     <use style="stroke:#000000;" x="171.755714" xlink:href="#m2756e0eb5f" y="101.252133"/>
     <use style="stroke:#000000;" x="171.917147" xlink:href="#m2756e0eb5f" y="101.252133"/>
     <use style="stroke:#000000;" x="172.07858" xlink:href="#m2756e0eb5f" y="100.228109"/>
     <use style="stroke:#000000;" x="172.240013" xlink:href="#m2756e0eb5f" y="98.177344"/>
     <use style="stroke:#000000;" x="172.401446" xlink:href="#m2756e0eb5f" y="96.126879"/>
     <use style="stroke:#000000;" x="172.562879" xlink:href="#m2756e0eb5f" y="93.045222"/>
     <use style="stroke:#000000;" x="172.724312" xlink:href="#m2756e0eb5f" y="95.099445"/>
     <use style="stroke:#000000;" x="172.885745" xlink:href="#m2756e0eb5f" y="93.045222"/>
     <use style="stroke:#000000;" x="173.047178" xlink:href="#m2756e0eb5f" y="93.045222"/>
     <use style="stroke:#000000;" x="173.208611" xlink:href="#m2756e0eb5f" y="97.152284"/>
     <use style="stroke:#000000;" x="173.370044" xlink:href="#m2756e0eb5f" y="90.991296"/>
     <use style="stroke:#000000;" x="173.531477" xlink:href="#m2756e0eb5f" y="97.152284"/>
     <use style="stroke:#000000;" x="173.69291" xlink:href="#m2756e0eb5f" y="92.018432"/>
     <use style="stroke:#000000;" x="173.854343" xlink:href="#m2756e0eb5f" y="88.934297"/>
     <use style="stroke:#000000;" x="174.015777" xlink:href="#m2756e0eb5f" y="90.991296"/>
     <use style="stroke:#000000;" x="174.17721" xlink:href="#m2756e0eb5f" y="88.934297"/>
     <use style="stroke:#000000;" x="174.338643" xlink:href="#m2756e0eb5f" y="94.073348"/>
     <use style="stroke:#000000;" x="174.500076" xlink:href="#m2756e0eb5f" y="86.875907"/>
     <use style="stroke:#000000;" x="174.661509" xlink:href="#m2756e0eb5f" y="87.906119"/>
     <use style="stroke:#000000;" x="174.822942" xlink:href="#m2756e0eb5f" y="83.786555"/>
     <use style="stroke:#000000;" x="174.984375" xlink:href="#m2756e0eb5f" y="83.786555"/>
     <use style="stroke:#000000;" x="175.145808" xlink:href="#m2756e0eb5f" y="83.786555"/>
     <use style="stroke:#000000;" x="175.307241" xlink:href="#m2756e0eb5f" y="83.786555"/>
     <use style="stroke:#000000;" x="175.468674" xlink:href="#m2756e0eb5f" y="79.663098"/>
     <use style="stroke:#000000;" x="175.630107" xlink:href="#m2756e0eb5f" y="85.847034"/>
     <use style="stroke:#000000;" x="175.79154" xlink:href="#m2756e0eb5f" y="77.598428"/>
     <use style="stroke:#000000;" x="175.952973" xlink:href="#m2756e0eb5f" y="82.756636"/>
     <use style="stroke:#000000;" x="176.114406" xlink:href="#m2756e0eb5f" y="80.694064"/>
     <use style="stroke:#000000;" x="176.275839" xlink:href="#m2756e0eb5f" y="84.817812"/>
     <use style="stroke:#000000;" x="176.437272" xlink:href="#m2756e0eb5f" y="78.631784"/>
     <use style="stroke:#000000;" x="176.598705" xlink:href="#m2756e0eb5f" y="79.663098"/>
     <use style="stroke:#000000;" x="176.760138" xlink:href="#m2756e0eb5f" y="79.663098"/>
     <use style="stroke:#000000;" x="176.921571" xlink:href="#m2756e0eb5f" y="78.631784"/>
     <use style="stroke:#000000;" x="177.083004" xlink:href="#m2756e0eb5f" y="79.663098"/>
     <use style="stroke:#000000;" x="177.244437" xlink:href="#m2756e0eb5f" y="79.663098"/>
     <use style="stroke:#000000;" x="177.40587" xlink:href="#m2756e0eb5f" y="79.663098"/>
     <use style="stroke:#000000;" x="177.567303" xlink:href="#m2756e0eb5f" y="78.631784"/>
     <use style="stroke:#000000;" x="177.728736" xlink:href="#m2756e0eb5f" y="78.631784"/>
     <use style="stroke:#000000;" x="177.890169" xlink:href="#m2756e0eb5f" y="73.466576"/>
     <use style="stroke:#000000;" x="178.051602" xlink:href="#m2756e0eb5f" y="72.431464"/>
     <use style="stroke:#000000;" x="178.213035" xlink:href="#m2756e0eb5f" y="76.566414"/>
     <use style="stroke:#000000;" x="178.374469" xlink:href="#m2756e0eb5f" y="72.431464"/>
     <use style="stroke:#000000;" x="178.535902" xlink:href="#m2756e0eb5f" y="78.631784"/>
     <use style="stroke:#000000;" x="178.697335" xlink:href="#m2756e0eb5f" y="74.499641"/>
     <use style="stroke:#000000;" x="178.858768" xlink:href="#m2756e0eb5f" y="73.466576"/>
     <use style="stroke:#000000;" x="179.020201" xlink:href="#m2756e0eb5f" y="73.466576"/>
     <use style="stroke:#000000;" x="179.181634" xlink:href="#m2756e0eb5f" y="72.431464"/>
     <use style="stroke:#000000;" x="179.343067" xlink:href="#m2756e0eb5f" y="73.466576"/>
     <use style="stroke:#000000;" x="179.5045" xlink:href="#m2756e0eb5f" y="71.397697"/>
     <use style="stroke:#000000;" x="179.665933" xlink:href="#m2756e0eb5f" y="69.327411"/>
     <use style="stroke:#000000;" x="179.827366" xlink:href="#m2756e0eb5f" y="71.397697"/>
     <use style="stroke:#000000;" x="179.988799" xlink:href="#m2756e0eb5f" y="68.292588"/>
     <use style="stroke:#000000;" x="180.150232" xlink:href="#m2756e0eb5f" y="73.466576"/>
     <use style="stroke:#000000;" x="180.311665" xlink:href="#m2756e0eb5f" y="74.499641"/>
     <use style="stroke:#000000;" x="180.473098" xlink:href="#m2756e0eb5f" y="67.257412"/>
     <use style="stroke:#000000;" x="180.634531" xlink:href="#m2756e0eb5f" y="70.363577"/>
     <use style="stroke:#000000;" x="180.795964" xlink:href="#m2756e0eb5f" y="65.184308"/>
     <use style="stroke:#000000;" x="180.957397" xlink:href="#m2756e0eb5f" y="69.327411"/>
     <use style="stroke:#000000;" x="181.11883" xlink:href="#m2756e0eb5f" y="66.220188"/>
     <use style="stroke:#000000;" x="181.280263" xlink:href="#m2756e0eb5f" y="71.397697"/>
     <use style="stroke:#000000;" x="181.441696" xlink:href="#m2756e0eb5f" y="63.10979"/>
     <use style="stroke:#000000;" x="181.603129" xlink:href="#m2756e0eb5f" y="65.184308"/>
     <use style="stroke:#000000;" x="181.764562" xlink:href="#m2756e0eb5f" y="69.327411"/>
     <use style="stroke:#000000;" x="181.925995" xlink:href="#m2756e0eb5f" y="71.397697"/>
     <use style="stroke:#000000;" x="182.087428" xlink:href="#m2756e0eb5f" y="65.184308"/>
     <use style="stroke:#000000;" x="182.248861" xlink:href="#m2756e0eb5f" y="68.292588"/>
     <use style="stroke:#000000;" x="182.410294" xlink:href="#m2756e0eb5f" y="63.10979"/>
     <use style="stroke:#000000;" x="182.571728" xlink:href="#m2756e0eb5f" y="63.10979"/>
     <use style="stroke:#000000;" x="182.733161" xlink:href="#m2756e0eb5f" y="67.257412"/>
     <use style="stroke:#000000;" x="182.894594" xlink:href="#m2756e0eb5f" y="63.10979"/>
     <use style="stroke:#000000;" x="183.056027" xlink:href="#m2756e0eb5f" y="57.919857"/>
     <use style="stroke:#000000;" x="183.21746" xlink:href="#m2756e0eb5f" y="64.148076"/>
     <use style="stroke:#000000;" x="183.378893" xlink:href="#m2756e0eb5f" y="61.035559"/>
     <use style="stroke:#000000;" x="183.540326" xlink:href="#m2756e0eb5f" y="62.072852"/>
     <use style="stroke:#000000;" x="183.701759" xlink:href="#m2756e0eb5f" y="67.257412"/>
    </g>
   </g>
   <g id="line2d_22">
    <path clip-path="url(#pfa28f87ab3)" d="M 134.141816 256.752361 
L 136.079013 253.45625 
L 137.854776 249.982287 
L 139.791972 245.622813 
L 141.406303 241.48523 
L 143.020633 236.83634 
L 144.634964 231.612325 
L 146.410727 225.180993 
L 148.509357 216.678925 
L 150.446553 207.970056 
L 152.706616 196.811918 
L 155.128111 183.741412 
L 159.971102 155.548141 
L 165.782692 121.569503 
L 168.688486 105.957306 
L 171.432848 92.529902 
L 174.015777 81.2906 
L 177.244437 69.301219 
L 178.213035 66.100588 
L 182.571728 54.038791 
L 183.701759 51.4685 
L 183.701759 51.4685 
" style="fill:none;stroke:#0000ff;stroke-dasharray:5.55,2.4;stroke-dashoffset:0;stroke-width:1.5;"/>
   </g>
   <g id="line2d_23">
    <path clip-path="url(#pfa28f87ab3)" d="M 134.141816 261.968548 
L 135.91758 259.317527 
L 137.53191 256.542651 
L 139.14624 253.389043 
L 140.922004 249.453808 
L 142.697767 245.004192 
L 144.796397 239.065802 
L 146.733593 232.897183 
L 148.67079 226.024378 
L 150.930852 217.10358 
L 153.513781 205.848424 
L 156.742441 190.306319 
L 161.424 165.804004 
L 167.881321 131.662756 
L 170.787116 117.592026 
L 173.531477 105.674504 
L 175.79154 96.744394 
L 179.343067 84.860712 
L 180.957397 80.282438 
L 182.571728 76.186067 
L 183.701759 73.570749 
L 183.701759 73.570749 
" style="fill:none;stroke:#0000ff;stroke-dasharray:5.55,2.4;stroke-dashoffset:0;stroke-width:1.5;"/>
   </g>
   <g id="line2d_24"/>
   <g id="line2d_25"/>
   <g id="line2d_26"/>
   <g id="line2d_27"/>
   <g id="line2d_28"/>
   <g id="line2d_29"/>
   <g id="patch_3">
    <path d="M 53.328125 288.430125 
L 53.328125 22.318125 
" style="fill:none;stroke:#000000;stroke-linecap:square;stroke-linejoin:miter;stroke-width:0.8;"/>
   </g>
   <g id="patch_4">
    <path d="M 410.448125 288.430125 
L 410.448125 22.318125 
" style="fill:none;stroke:#000000;stroke-linecap:square;stroke-linejoin:miter;stroke-width:0.8;"/>
   </g>
   <g id="patch_5">
    <path d="M 53.328125 288.430125 
L 410.448125 288.430125 
" style="fill:none;stroke:#000000;stroke-linecap:square;stroke-linejoin:miter;stroke-width:0.8;"/>
   </g>
   <g id="patch_6">
    <path d="M 53.328125 22.318125 
L 410.448125 22.318125 
" style="fill:none;stroke:#000000;stroke-linecap:square;stroke-linejoin:miter;stroke-width:0.8;"/>
   </g>
   <g id="text_21">
    <!-- Experiment_1 -->
    <g transform="translate(190.402813 16.318125)scale(0.12 -0.12)">
     <defs>
      <path d="M 9.8125 72.90625 
L 55.90625 72.90625 
L 55.90625 64.59375 
L 19.671875 64.59375 
L 19.671875 43.015625 
L 54.390625 43.015625 
L 54.390625 34.71875 
L 19.671875 34.71875 
L 19.671875 8.296875 
L 56.78125 8.296875 
L 56.78125 0 
L 9.8125 0 
z
" id="DejaVuSans-69"/>
      <path d="M 54.890625 54.6875 
L 35.109375 28.078125 
L 55.90625 0 
L 45.3125 0 
L 29.390625 21.484375 
L 13.484375 0 
L 2.875 0 
L 24.125 28.609375 
L 4.6875 54.6875 
L 15.28125 54.6875 
L 29.78125 35.203125 
L 44.28125 54.6875 
z
" id="DejaVuSans-120"/>
      <path d="M 41.109375 46.296875 
Q 39.59375 47.171875 37.8125 47.578125 
Q 36.03125 48 33.890625 48 
Q 26.265625 48 22.1875 43.046875 
Q 18.109375 38.09375 18.109375 28.8125 
L 18.109375 0 
L 9.078125 0 
L 9.078125 54.6875 
L 18.109375 54.6875 
L 18.109375 46.1875 
Q 20.953125 51.171875 25.484375 53.578125 
Q 30.03125 56 36.53125 56 
Q 37.453125 56 38.578125 55.875 
Q 39.703125 55.765625 41.0625 55.515625 
z
" id="DejaVuSans-114"/>
      <path d="M 54.890625 33.015625 
L 54.890625 0 
L 45.90625 0 
L 45.90625 32.71875 
Q 45.90625 40.484375 42.875 44.328125 
Q 39.84375 48.1875 33.796875 48.1875 
Q 26.515625 48.1875 22.3125 43.546875 
Q 18.109375 38.921875 18.109375 30.90625 
L 18.109375 0 
L 9.078125 0 
L 9.078125 54.6875 
L 18.109375 54.6875 
L 18.109375 46.1875 
Q 21.34375 51.125 25.703125 53.5625 
Q 30.078125 56 35.796875 56 
Q 45.21875 56 50.046875 50.171875 
Q 54.890625 44.34375 54.890625 33.015625 
z
" id="DejaVuSans-110"/>
      <path d="M 18.3125 70.21875 
L 18.3125 54.6875 
L 36.8125 54.6875 
L 36.8125 47.703125 
L 18.3125 47.703125 
L 18.3125 18.015625 
Q 18.3125 11.328125 20.140625 9.421875 
Q 21.96875 7.515625 27.59375 7.515625 
L 36.8125 7.515625 
L 36.8125 0 
L 27.59375 0 
Q 17.1875 0 13.234375 3.875 
Q 9.28125 7.765625 9.28125 18.015625 
L 9.28125 47.703125 
L 2.6875 47.703125 
L 2.6875 54.6875 
L 9.28125 54.6875 
L 9.28125 70.21875 
z
" id="DejaVuSans-116"/>
      <path d="M 50.984375 -16.609375 
L 50.984375 -23.578125 
L -0.984375 -23.578125 
L -0.984375 -16.609375 
z
" id="DejaVuSans-95"/>
     </defs>
     <use xlink:href="#DejaVuSans-69"/>
     <use x="63.183594" xlink:href="#DejaVuSans-120"/>
     <use x="122.363281" xlink:href="#DejaVuSans-112"/>
     <use x="185.839844" xlink:href="#DejaVuSans-101"/>
     <use x="247.363281" xlink:href="#DejaVuSans-114"/>
     <use x="288.476562" xlink:href="#DejaVuSans-105"/>
     <use x="316.259766" xlink:href="#DejaVuSans-109"/>
     <use x="413.671875" xlink:href="#DejaVuSans-101"/>
     <use x="475.195312" xlink:href="#DejaVuSans-110"/>
     <use x="538.574219" xlink:href="#DejaVuSans-116"/>
     <use x="577.783203" xlink:href="#DejaVuSans-95"/>
     <use x="627.783203" xlink:href="#DejaVuSans-49"/>
    </g>
   </g>
   <g id="legend_1">
    <g id="patch_7">
     <path d="M 151.943438 283.430125 
L 403.448125 283.430125 
Q 405.448125 283.430125 405.448125 281.430125 
L 405.448125 209.017625 
Q 405.448125 207.017625 403.448125 207.017625 
L 151.943438 207.017625 
Q 149.943438 207.017625 149.943438 209.017625 
L 149.943438 281.430125 
Q 149.943438 283.430125 151.943438 283.430125 
z
" style="fill:#ffffff;opacity:0.8;stroke:#cccccc;stroke-linejoin:miter;"/>
    </g>
    <g id="line2d_30">
     <path d="M 153.943438 215.116062 
L 173.943438 215.116062 
" style="fill:none;stroke:#0000ff;stroke-linecap:square;stroke-width:1.5;"/>
    </g>
    <g id="line2d_31"/>
    <g id="text_22">
     <!-- MSI -->
     <g transform="translate(181.943438 218.616062)scale(0.1 -0.1)">
      <defs>
       <path d="M 9.8125 72.90625 
L 24.515625 72.90625 
L 43.109375 23.296875 
L 61.8125 72.90625 
L 76.515625 72.90625 
L 76.515625 0 
L 66.890625 0 
L 66.890625 64.015625 
L 48.09375 14.015625 
L 38.1875 14.015625 
L 19.390625 64.015625 
L 19.390625 0 
L 9.8125 0 
z
" id="DejaVuSans-77"/>
       <path d="M 53.515625 70.515625 
L 53.515625 60.890625 
Q 47.90625 63.578125 42.921875 64.890625 
Q 37.9375 66.21875 33.296875 66.21875 
Q 25.25 66.21875 20.875 63.09375 
Q 16.5 59.96875 16.5 54.203125 
Q 16.5 49.359375 19.40625 46.890625 
Q 22.3125 44.4375 30.421875 42.921875 
L 36.375 41.703125 
Q 47.40625 39.59375 52.65625 34.296875 
Q 57.90625 29 57.90625 20.125 
Q 57.90625 9.515625 50.796875 4.046875 
Q 43.703125 -1.421875 29.984375 -1.421875 
Q 24.8125 -1.421875 18.96875 -0.25 
Q 13.140625 0.921875 6.890625 3.21875 
L 6.890625 13.375 
Q 12.890625 10.015625 18.65625 8.296875 
Q 24.421875 6.59375 29.984375 6.59375 
Q 38.421875 6.59375 43.015625 9.90625 
Q 47.609375 13.234375 47.609375 19.390625 
Q 47.609375 24.75 44.3125 27.78125 
Q 41.015625 30.8125 33.5 32.328125 
L 27.484375 33.5 
Q 16.453125 35.6875 11.515625 40.375 
Q 6.59375 45.0625 6.59375 53.421875 
Q 6.59375 63.09375 13.40625 68.65625 
Q 20.21875 74.21875 32.171875 74.21875 
Q 37.3125 74.21875 42.625 73.28125 
Q 47.953125 72.359375 53.515625 70.515625 
z
" id="DejaVuSans-83"/>
       <path d="M 9.8125 72.90625 
L 19.671875 72.90625 
L 19.671875 0 
L 9.8125 0 
z
" id="DejaVuSans-73"/>
      </defs>
      <use xlink:href="#DejaVuSans-77"/>
      <use x="86.279297" xlink:href="#DejaVuSans-83"/>
      <use x="149.755859" xlink:href="#DejaVuSans-73"/>
     </g>
    </g>
    <g id="line2d_32">
     <path d="M 153.943438 229.79575 
L 173.943438 229.79575 
" style="fill:none;stroke:#ff0000;stroke-linecap:square;stroke-width:1.5;"/>
    </g>
    <g id="line2d_33"/>
    <g id="text_23">
     <!-- $\it{A priori}$ model -->
     <g transform="translate(181.943438 233.29575)scale(0.1 -0.1)">
      <defs>
       <path d="M 36.8125 72.90625 
L 48 72.90625 
L 61.53125 0 
L 51.21875 0 
L 48.1875 18.703125 
L 15.375 18.703125 
L 5.078125 0 
L -5.328125 0 
z
M 40.375 63.1875 
L 19.921875 26.90625 
L 46.6875 26.90625 
z
" id="DejaVuSans-Oblique-65"/>
       <path d="M 49.609375 33.6875 
Q 49.609375 40.875 46.484375 44.671875 
Q 43.359375 48.484375 37.5 48.484375 
Q 33.5 48.484375 29.859375 46.4375 
Q 26.21875 44.390625 23.390625 40.484375 
Q 20.609375 36.625 18.9375 31.15625 
Q 17.28125 25.6875 17.28125 20.3125 
Q 17.28125 13.484375 20.40625 9.796875 
Q 23.53125 6.109375 29.296875 6.109375 
Q 33.546875 6.109375 37.1875 8.109375 
Q 40.828125 10.109375 43.40625 13.921875 
Q 46.1875 17.921875 47.890625 23.34375 
Q 49.609375 28.765625 49.609375 33.6875 
z
M 21.78125 46.390625 
Q 25.390625 51.125 30.296875 53.5625 
Q 35.203125 56 41.21875 56 
Q 49.609375 56 54.25 50.5 
Q 58.890625 45.015625 58.890625 35.109375 
Q 58.890625 27 56 19.65625 
Q 53.125 12.3125 47.703125 6.5 
Q 44.09375 2.640625 39.546875 0.609375 
Q 35.015625 -1.421875 29.984375 -1.421875 
Q 24.171875 -1.421875 20.21875 1 
Q 16.265625 3.421875 14.3125 8.203125 
L 8.6875 -20.796875 
L -0.296875 -20.796875 
L 14.40625 54.6875 
L 23.390625 54.6875 
z
" id="DejaVuSans-Oblique-112"/>
       <path d="M 44.578125 46.390625 
Q 43.21875 47.125 41.453125 47.515625 
Q 39.703125 47.90625 37.703125 47.90625 
Q 30.515625 47.90625 25.140625 42.453125 
Q 19.78125 37.015625 18.015625 27.875 
L 12.5 0 
L 3.515625 0 
L 14.203125 54.6875 
L 23.1875 54.6875 
L 21.484375 46.1875 
Q 25.046875 50.921875 30 53.453125 
Q 34.96875 56 40.578125 56 
Q 42.046875 56 43.453125 55.828125 
Q 44.875 55.671875 46.296875 55.28125 
z
" id="DejaVuSans-Oblique-114"/>
       <path d="M 18.3125 75.984375 
L 27.296875 75.984375 
L 25.09375 64.59375 
L 16.109375 64.59375 
z
M 14.203125 54.6875 
L 23.1875 54.6875 
L 12.5 0 
L 3.515625 0 
z
" id="DejaVuSans-Oblique-105"/>
       <path d="M 25.390625 -1.421875 
Q 15.765625 -1.421875 10.171875 4.515625 
Q 4.59375 10.453125 4.59375 20.703125 
Q 4.59375 26.65625 6.515625 32.828125 
Q 8.453125 39.015625 11.53125 43.21875 
Q 16.359375 49.75 22.3125 52.875 
Q 28.265625 56 35.796875 56 
Q 45.125 56 50.859375 50.1875 
Q 56.59375 44.390625 56.59375 35.015625 
Q 56.59375 28.515625 54.6875 22.0625 
Q 52.78125 15.625 49.703125 11.375 
Q 44.921875 4.828125 38.96875 1.703125 
Q 33.015625 -1.421875 25.390625 -1.421875 
z
M 13.921875 21 
Q 13.921875 13.578125 17.015625 9.890625 
Q 20.125 6.203125 26.421875 6.203125 
Q 35.453125 6.203125 41.375 14.078125 
Q 47.3125 21.96875 47.3125 34.078125 
Q 47.3125 41.15625 44.140625 44.765625 
Q 40.96875 48.390625 34.8125 48.390625 
Q 29.734375 48.390625 25.78125 46.015625 
Q 21.828125 43.65625 18.703125 38.8125 
Q 16.40625 35.203125 15.15625 30.5625 
Q 13.921875 25.921875 13.921875 21 
z
" id="DejaVuSans-Oblique-111"/>
       <path d="M 30.609375 48.390625 
Q 23.390625 48.390625 19.1875 42.75 
Q 14.984375 37.109375 14.984375 27.296875 
Q 14.984375 17.484375 19.15625 11.84375 
Q 23.34375 6.203125 30.609375 6.203125 
Q 37.796875 6.203125 41.984375 11.859375 
Q 46.1875 17.53125 46.1875 27.296875 
Q 46.1875 37.015625 41.984375 42.703125 
Q 37.796875 48.390625 30.609375 48.390625 
z
M 30.609375 56 
Q 42.328125 56 49.015625 48.375 
Q 55.71875 40.765625 55.71875 27.296875 
Q 55.71875 13.875 49.015625 6.21875 
Q 42.328125 -1.421875 30.609375 -1.421875 
Q 18.84375 -1.421875 12.171875 6.21875 
Q 5.515625 13.875 5.515625 27.296875 
Q 5.515625 40.765625 12.171875 48.375 
Q 18.84375 56 30.609375 56 
z
" id="DejaVuSans-111"/>
       <path d="M 45.40625 46.390625 
L 45.40625 75.984375 
L 54.390625 75.984375 
L 54.390625 0 
L 45.40625 0 
L 45.40625 8.203125 
Q 42.578125 3.328125 38.25 0.953125 
Q 33.9375 -1.421875 27.875 -1.421875 
Q 17.96875 -1.421875 11.734375 6.484375 
Q 5.515625 14.40625 5.515625 27.296875 
Q 5.515625 40.1875 11.734375 48.09375 
Q 17.96875 56 27.875 56 
Q 33.9375 56 38.25 53.625 
Q 42.578125 51.265625 45.40625 46.390625 
z
M 14.796875 27.296875 
Q 14.796875 17.390625 18.875 11.75 
Q 22.953125 6.109375 30.078125 6.109375 
Q 37.203125 6.109375 41.296875 11.75 
Q 45.40625 17.390625 45.40625 27.296875 
Q 45.40625 37.203125 41.296875 42.84375 
Q 37.203125 48.484375 30.078125 48.484375 
Q 22.953125 48.484375 18.875 42.84375 
Q 14.796875 37.203125 14.796875 27.296875 
z
" id="DejaVuSans-100"/>
       <path d="M 9.421875 75.984375 
L 18.40625 75.984375 
L 18.40625 0 
L 9.421875 0 
z
" id="DejaVuSans-108"/>
      </defs>
      <use transform="translate(0 0.015625)" xlink:href="#DejaVuSans-Oblique-65"/>
      <use transform="translate(68.408203 0.015625)" xlink:href="#DejaVuSans-Oblique-112"/>
      <use transform="translate(131.884766 0.015625)" xlink:href="#DejaVuSans-Oblique-114"/>
      <use transform="translate(172.998047 0.015625)" xlink:href="#DejaVuSans-Oblique-105"/>
      <use transform="translate(200.78125 0.015625)" xlink:href="#DejaVuSans-Oblique-111"/>
      <use transform="translate(261.962891 0.015625)" xlink:href="#DejaVuSans-Oblique-114"/>
      <use transform="translate(303.076172 0.015625)" xlink:href="#DejaVuSans-Oblique-105"/>
      <use transform="translate(330.859375 0.015625)" xlink:href="#DejaVuSans-32"/>
      <use transform="translate(362.646484 0.015625)" xlink:href="#DejaVuSans-109"/>
      <use transform="translate(460.058594 0.015625)" xlink:href="#DejaVuSans-111"/>
      <use transform="translate(521.240234 0.015625)" xlink:href="#DejaVuSans-100"/>
      <use transform="translate(584.716797 0.015625)" xlink:href="#DejaVuSans-101"/>
      <use transform="translate(646.240234 0.015625)" xlink:href="#DejaVuSans-108"/>
     </g>
    </g>
    <g id="line2d_34"/>
    <g id="line2d_35">
     <g>
      <use style="stroke:#000000;" x="163.943438" xlink:href="#m2756e0eb5f" y="244.494187"/>
     </g>
    </g>
    <g id="text_24">
     <!-- Experimental Data -->
     <g transform="translate(181.943438 247.994187)scale(0.1 -0.1)">
      <defs>
       <path d="M 34.28125 27.484375 
Q 23.390625 27.484375 19.1875 25 
Q 14.984375 22.515625 14.984375 16.5 
Q 14.984375 11.71875 18.140625 8.90625 
Q 21.296875 6.109375 26.703125 6.109375 
Q 34.1875 6.109375 38.703125 11.40625 
Q 43.21875 16.703125 43.21875 25.484375 
L 43.21875 27.484375 
z
M 52.203125 31.203125 
L 52.203125 0 
L 43.21875 0 
L 43.21875 8.296875 
Q 40.140625 3.328125 35.546875 0.953125 
Q 30.953125 -1.421875 24.3125 -1.421875 
Q 15.921875 -1.421875 10.953125 3.296875 
Q 6 8.015625 6 15.921875 
Q 6 25.140625 12.171875 29.828125 
Q 18.359375 34.515625 30.609375 34.515625 
L 43.21875 34.515625 
L 43.21875 35.40625 
Q 43.21875 41.609375 39.140625 45 
Q 35.0625 48.390625 27.6875 48.390625 
Q 23 48.390625 18.546875 47.265625 
Q 14.109375 46.140625 10.015625 43.890625 
L 10.015625 52.203125 
Q 14.9375 54.109375 19.578125 55.046875 
Q 24.21875 56 28.609375 56 
Q 40.484375 56 46.34375 49.84375 
Q 52.203125 43.703125 52.203125 31.203125 
z
" id="DejaVuSans-97"/>
       <path d="M 19.671875 64.796875 
L 19.671875 8.109375 
L 31.59375 8.109375 
Q 46.6875 8.109375 53.6875 14.9375 
Q 60.6875 21.78125 60.6875 36.53125 
Q 60.6875 51.171875 53.6875 57.984375 
Q 46.6875 64.796875 31.59375 64.796875 
z
M 9.8125 72.90625 
L 30.078125 72.90625 
Q 51.265625 72.90625 61.171875 64.09375 
Q 71.09375 55.28125 71.09375 36.53125 
Q 71.09375 17.671875 61.125 8.828125 
Q 51.171875 0 30.078125 0 
L 9.8125 0 
z
" id="DejaVuSans-68"/>
      </defs>
      <use xlink:href="#DejaVuSans-69"/>
      <use x="63.183594" xlink:href="#DejaVuSans-120"/>
      <use x="122.363281" xlink:href="#DejaVuSans-112"/>
      <use x="185.839844" xlink:href="#DejaVuSans-101"/>
      <use x="247.363281" xlink:href="#DejaVuSans-114"/>
      <use x="288.476562" xlink:href="#DejaVuSans-105"/>
      <use x="316.259766" xlink:href="#DejaVuSans-109"/>
      <use x="413.671875" xlink:href="#DejaVuSans-101"/>
      <use x="475.195312" xlink:href="#DejaVuSans-110"/>
      <use x="538.574219" xlink:href="#DejaVuSans-116"/>
      <use x="577.783203" xlink:href="#DejaVuSans-97"/>
      <use x="639.0625" xlink:href="#DejaVuSans-108"/>
      <use x="666.845703" xlink:href="#DejaVuSans-32"/>
      <use x="698.632812" xlink:href="#DejaVuSans-68"/>
      <use x="775.634766" xlink:href="#DejaVuSans-97"/>
      <use x="836.914062" xlink:href="#DejaVuSans-116"/>
      <use x="876.123047" xlink:href="#DejaVuSans-97"/>
     </g>
    </g>
    <g id="line2d_36">
     <path d="M 153.943438 259.172312 
L 173.943438 259.172312 
" style="fill:none;stroke:#ffffff;stroke-linecap:square;stroke-width:1.5;"/>
    </g>
    <g id="line2d_37"/>
    <g id="text_25">
     <!-- T:1472 -->
     <g transform="translate(181.943438 262.672312)scale(0.1 -0.1)">
      <defs>
       <path d="M 11.71875 12.40625 
L 22.015625 12.40625 
L 22.015625 0 
L 11.71875 0 
z
M 11.71875 51.703125 
L 22.015625 51.703125 
L 22.015625 39.3125 
L 11.71875 39.3125 
z
" id="DejaVuSans-58"/>
       <path d="M 37.796875 64.3125 
L 12.890625 25.390625 
L 37.796875 25.390625 
z
M 35.203125 72.90625 
L 47.609375 72.90625 
L 47.609375 25.390625 
L 58.015625 25.390625 
L 58.015625 17.1875 
L 47.609375 17.1875 
L 47.609375 0 
L 37.796875 0 
L 37.796875 17.1875 
L 4.890625 17.1875 
L 4.890625 26.703125 
z
" id="DejaVuSans-52"/>
      </defs>
      <use xlink:href="#DejaVuSans-84"/>
      <use x="50.083984" xlink:href="#DejaVuSans-58"/>
      <use x="83.775391" xlink:href="#DejaVuSans-49"/>
      <use x="147.398438" xlink:href="#DejaVuSans-52"/>
      <use x="211.021484" xlink:href="#DejaVuSans-55"/>
      <use x="274.644531" xlink:href="#DejaVuSans-50"/>
     </g>
    </g>
    <g id="line2d_38">
     <path d="M 153.943438 273.850437 
L 173.943438 273.850437 
" style="fill:none;stroke:#ffffff;stroke-linecap:square;stroke-width:1.5;"/>
    </g>
    <g id="line2d_39"/>
    <g id="text_26">
     <!-- P:1.83 -->
     <g transform="translate(181.943438 277.350437)scale(0.1 -0.1)">
      <defs>
       <path d="M 19.671875 64.796875 
L 19.671875 37.40625 
L 32.078125 37.40625 
Q 38.96875 37.40625 42.71875 40.96875 
Q 46.484375 44.53125 46.484375 51.125 
Q 46.484375 57.671875 42.71875 61.234375 
Q 38.96875 64.796875 32.078125 64.796875 
z
M 9.8125 72.90625 
L 32.078125 72.90625 
Q 44.34375 72.90625 50.609375 67.359375 
Q 56.890625 61.8125 56.890625 51.125 
Q 56.890625 40.328125 50.609375 34.8125 
Q 44.34375 29.296875 32.078125 29.296875 
L 19.671875 29.296875 
L 19.671875 0 
L 9.8125 0 
z
" id="DejaVuSans-80"/>
       <path d="M 31.78125 34.625 
Q 24.75 34.625 20.71875 30.859375 
Q 16.703125 27.09375 16.703125 20.515625 
Q 16.703125 13.921875 20.71875 10.15625 
Q 24.75 6.390625 31.78125 6.390625 
Q 38.8125 6.390625 42.859375 10.171875 
Q 46.921875 13.96875 46.921875 20.515625 
Q 46.921875 27.09375 42.890625 30.859375 
Q 38.875 34.625 31.78125 34.625 
z
M 21.921875 38.8125 
Q 15.578125 40.375 12.03125 44.71875 
Q 8.5 49.078125 8.5 55.328125 
Q 8.5 64.0625 14.71875 69.140625 
Q 20.953125 74.21875 31.78125 74.21875 
Q 42.671875 74.21875 48.875 69.140625 
Q 55.078125 64.0625 55.078125 55.328125 
Q 55.078125 49.078125 51.53125 44.71875 
Q 48 40.375 41.703125 38.8125 
Q 48.828125 37.15625 52.796875 32.3125 
Q 56.78125 27.484375 56.78125 20.515625 
Q 56.78125 9.90625 50.3125 4.234375 
Q 43.84375 -1.421875 31.78125 -1.421875 
Q 19.734375 -1.421875 13.25 4.234375 
Q 6.78125 9.90625 6.78125 20.515625 
Q 6.78125 27.484375 10.78125 32.3125 
Q 14.796875 37.15625 21.921875 38.8125 
z
M 18.3125 54.390625 
Q 18.3125 48.734375 21.84375 45.5625 
Q 25.390625 42.390625 31.78125 42.390625 
Q 38.140625 42.390625 41.71875 45.5625 
Q 45.3125 48.734375 45.3125 54.390625 
Q 45.3125 60.0625 41.71875 63.234375 
Q 38.140625 66.40625 31.78125 66.40625 
Q 25.390625 66.40625 21.84375 63.234375 
Q 18.3125 60.0625 18.3125 54.390625 
z
" id="DejaVuSans-56"/>
       <path d="M 40.578125 39.3125 
Q 47.65625 37.796875 51.625 33 
Q 55.609375 28.21875 55.609375 21.1875 
Q 55.609375 10.40625 48.1875 4.484375 
Q 40.765625 -1.421875 27.09375 -1.421875 
Q 22.515625 -1.421875 17.65625 -0.515625 
Q 12.796875 0.390625 7.625 2.203125 
L 7.625 11.71875 
Q 11.71875 9.328125 16.59375 8.109375 
Q 21.484375 6.890625 26.8125 6.890625 
Q 36.078125 6.890625 40.9375 10.546875 
Q 45.796875 14.203125 45.796875 21.1875 
Q 45.796875 27.640625 41.28125 31.265625 
Q 36.765625 34.90625 28.71875 34.90625 
L 20.21875 34.90625 
L 20.21875 43.015625 
L 29.109375 43.015625 
Q 36.375 43.015625 40.234375 45.921875 
Q 44.09375 48.828125 44.09375 54.296875 
Q 44.09375 59.90625 40.109375 62.90625 
Q 36.140625 65.921875 28.71875 65.921875 
Q 24.65625 65.921875 20.015625 65.03125 
Q 15.375 64.15625 9.8125 62.3125 
L 9.8125 71.09375 
Q 15.4375 72.65625 20.34375 73.4375 
Q 25.25 74.21875 29.59375 74.21875 
Q 40.828125 74.21875 47.359375 69.109375 
Q 53.90625 64.015625 53.90625 55.328125 
Q 53.90625 49.265625 50.4375 45.09375 
Q 46.96875 40.921875 40.578125 39.3125 
z
" id="DejaVuSans-51"/>
      </defs>
      <use xlink:href="#DejaVuSans-80"/>
      <use x="60.302734" xlink:href="#DejaVuSans-58"/>
      <use x="93.994141" xlink:href="#DejaVuSans-49"/>
      <use x="157.617188" xlink:href="#DejaVuSans-46"/>
      <use x="189.404297" xlink:href="#DejaVuSans-56"/>
      <use x="253.027344" xlink:href="#DejaVuSans-51"/>
     </g>
    </g>
    <g id="line2d_40">
     <path d="M 295.684063 215.116062 
L 315.684063 215.116062 
" style="fill:none;stroke:#ffffff;stroke-linecap:square;stroke-width:1.5;"/>
    </g>
    <g id="line2d_41"/>
    <g id="text_27">
     <!-- O2: 0.001 -->
     <g transform="translate(323.684063 218.616062)scale(0.1 -0.1)">
      <use xlink:href="#DejaVuSans-79"/>
      <use x="78.710938" xlink:href="#DejaVuSans-50"/>
      <use x="142.333984" xlink:href="#DejaVuSans-58"/>
      <use x="176.025391" xlink:href="#DejaVuSans-32"/>
      <use x="207.8125" xlink:href="#DejaVuSans-48"/>
      <use x="271.435547" xlink:href="#DejaVuSans-46"/>
      <use x="303.222656" xlink:href="#DejaVuSans-48"/>
      <use x="366.845703" xlink:href="#DejaVuSans-48"/>
      <use x="430.46875" xlink:href="#DejaVuSans-49"/>
     </g>
    </g>
    <g id="line2d_42">
     <path d="M 295.684063 229.794187 
L 315.684063 229.794187 
" style="fill:none;stroke:#ffffff;stroke-linecap:square;stroke-width:1.5;"/>
    </g>
    <g id="line2d_43"/>
    <g id="text_28">
     <!-- H2: 0.009 -->
     <g transform="translate(323.684063 233.294187)scale(0.1 -0.1)">
      <defs>
       <path d="M 10.984375 1.515625 
L 10.984375 10.5 
Q 14.703125 8.734375 18.5 7.8125 
Q 22.3125 6.890625 25.984375 6.890625 
Q 35.75 6.890625 40.890625 13.453125 
Q 46.046875 20.015625 46.78125 33.40625 
Q 43.953125 29.203125 39.59375 26.953125 
Q 35.25 24.703125 29.984375 24.703125 
Q 19.046875 24.703125 12.671875 31.3125 
Q 6.296875 37.9375 6.296875 49.421875 
Q 6.296875 60.640625 12.9375 67.421875 
Q 19.578125 74.21875 30.609375 74.21875 
Q 43.265625 74.21875 49.921875 64.515625 
Q 56.59375 54.828125 56.59375 36.375 
Q 56.59375 19.140625 48.40625 8.859375 
Q 40.234375 -1.421875 26.421875 -1.421875 
Q 22.703125 -1.421875 18.890625 -0.6875 
Q 15.09375 0.046875 10.984375 1.515625 
z
M 30.609375 32.421875 
Q 37.25 32.421875 41.125 36.953125 
Q 45.015625 41.5 45.015625 49.421875 
Q 45.015625 57.28125 41.125 61.84375 
Q 37.25 66.40625 30.609375 66.40625 
Q 23.96875 66.40625 20.09375 61.84375 
Q 16.21875 57.28125 16.21875 49.421875 
Q 16.21875 41.5 20.09375 36.953125 
Q 23.96875 32.421875 30.609375 32.421875 
z
" id="DejaVuSans-57"/>
      </defs>
      <use xlink:href="#DejaVuSans-72"/>
      <use x="75.195312" xlink:href="#DejaVuSans-50"/>
      <use x="138.818359" xlink:href="#DejaVuSans-58"/>
      <use x="172.509766" xlink:href="#DejaVuSans-32"/>
      <use x="204.296875" xlink:href="#DejaVuSans-48"/>
      <use x="267.919922" xlink:href="#DejaVuSans-46"/>
      <use x="299.707031" xlink:href="#DejaVuSans-48"/>
      <use x="363.330078" xlink:href="#DejaVuSans-48"/>
      <use x="426.953125" xlink:href="#DejaVuSans-57"/>
     </g>
    </g>
    <g id="line2d_44">
     <path d="M 295.684063 244.472312 
L 315.684063 244.472312 
" style="fill:none;stroke:#ffffff;stroke-linecap:square;stroke-width:1.5;"/>
    </g>
    <g id="line2d_45"/>
    <g id="text_29">
     <!-- H: 3.5e-07 -->
     <g transform="translate(323.684063 247.972312)scale(0.1 -0.1)">
      <defs>
       <path d="M 4.890625 31.390625 
L 31.203125 31.390625 
L 31.203125 23.390625 
L 4.890625 23.390625 
z
" id="DejaVuSans-45"/>
      </defs>
      <use xlink:href="#DejaVuSans-72"/>
      <use x="75.195312" xlink:href="#DejaVuSans-58"/>
      <use x="108.886719" xlink:href="#DejaVuSans-32"/>
      <use x="140.673828" xlink:href="#DejaVuSans-51"/>
      <use x="204.296875" xlink:href="#DejaVuSans-46"/>
      <use x="236.083984" xlink:href="#DejaVuSans-53"/>
      <use x="299.707031" xlink:href="#DejaVuSans-101"/>
      <use x="361.230469" xlink:href="#DejaVuSans-45"/>
      <use x="397.314453" xlink:href="#DejaVuSans-48"/>
      <use x="460.9375" xlink:href="#DejaVuSans-55"/>
     </g>
    </g>
    <g id="line2d_46">
     <path d="M 295.684063 259.150437 
L 315.684063 259.150437 
" style="fill:none;stroke:#ffffff;stroke-linecap:square;stroke-width:1.5;"/>
    </g>
    <g id="line2d_47"/>
    <g id="text_30">
     <!-- Ar: 0.98999965 -->
     <g transform="translate(323.684063 262.650437)scale(0.1 -0.1)">
      <defs>
       <path d="M 34.1875 63.1875 
L 20.796875 26.90625 
L 47.609375 26.90625 
z
M 28.609375 72.90625 
L 39.796875 72.90625 
L 67.578125 0 
L 57.328125 0 
L 50.6875 18.703125 
L 17.828125 18.703125 
L 11.1875 0 
L 0.78125 0 
z
" id="DejaVuSans-65"/>
       <path d="M 33.015625 40.375 
Q 26.375 40.375 22.484375 35.828125 
Q 18.609375 31.296875 18.609375 23.390625 
Q 18.609375 15.53125 22.484375 10.953125 
Q 26.375 6.390625 33.015625 6.390625 
Q 39.65625 6.390625 43.53125 10.953125 
Q 47.40625 15.53125 47.40625 23.390625 
Q 47.40625 31.296875 43.53125 35.828125 
Q 39.65625 40.375 33.015625 40.375 
z
M 52.59375 71.296875 
L 52.59375 62.3125 
Q 48.875 64.0625 45.09375 64.984375 
Q 41.3125 65.921875 37.59375 65.921875 
Q 27.828125 65.921875 22.671875 59.328125 
Q 17.53125 52.734375 16.796875 39.40625 
Q 19.671875 43.65625 24.015625 45.921875 
Q 28.375 48.1875 33.59375 48.1875 
Q 44.578125 48.1875 50.953125 41.515625 
Q 57.328125 34.859375 57.328125 23.390625 
Q 57.328125 12.15625 50.6875 5.359375 
Q 44.046875 -1.421875 33.015625 -1.421875 
Q 20.359375 -1.421875 13.671875 8.265625 
Q 6.984375 17.96875 6.984375 36.375 
Q 6.984375 53.65625 15.1875 63.9375 
Q 23.390625 74.21875 37.203125 74.21875 
Q 40.921875 74.21875 44.703125 73.484375 
Q 48.484375 72.75 52.59375 71.296875 
z
" id="DejaVuSans-54"/>
      </defs>
      <use xlink:href="#DejaVuSans-65"/>
      <use x="68.408203" xlink:href="#DejaVuSans-114"/>
      <use x="107.771484" xlink:href="#DejaVuSans-58"/>
      <use x="141.462891" xlink:href="#DejaVuSans-32"/>
      <use x="173.25" xlink:href="#DejaVuSans-48"/>
      <use x="236.873047" xlink:href="#DejaVuSans-46"/>
      <use x="268.660156" xlink:href="#DejaVuSans-57"/>
      <use x="332.283203" xlink:href="#DejaVuSans-56"/>
      <use x="395.90625" xlink:href="#DejaVuSans-57"/>
      <use x="459.529297" xlink:href="#DejaVuSans-57"/>
      <use x="523.152344" xlink:href="#DejaVuSans-57"/>
      <use x="586.775391" xlink:href="#DejaVuSans-57"/>
      <use x="650.398438" xlink:href="#DejaVuSans-54"/>
      <use x="714.021484" xlink:href="#DejaVuSans-53"/>
     </g>
    </g>
   </g>
  </g>
 </g>
 <defs>
  <clipPath id="pfa28f87ab3">
   <rect height="266.112" width="357.12" x="53.328125" y="22.318125"/>
  </clipPath>
 </defs>
</svg>
