<?xml version="1.0" encoding="utf-8" standalone="no"?>
<!DOCTYPE svg PUBLIC "-//W3C//DTD SVG 1.1//EN"
  "http://www.w3.org/Graphics/SVG/1.1/DTD/svg11.dtd">
<!-- Created with matplotlib (https://matplotlib.org/) -->
<svg height="325.986375pt" version="1.1" viewBox="0 0 404.923125 325.986375" width="404.923125pt" xmlns="http://www.w3.org/2000/svg" xmlns:xlink="http://www.w3.org/1999/xlink">
 <metadata>
  <rdf:RDF xmlns:cc="http://creativecommons.org/ns#" xmlns:dc="http://purl.org/dc/elements/1.1/" xmlns:rdf="http://www.w3.org/1999/02/22-rdf-syntax-ns#">
   <cc:Work>
    <dc:type rdf:resource="http://purl.org/dc/dcmitype/StillImage"/>
    <dc:date>2023-01-09T21:02:37.702448</dc:date>
    <dc:format>image/svg+xml</dc:format>
    <dc:creator>
     <cc:Agent>
      <dc:title>Matplotlib v3.3.1, https://matplotlib.org/</dc:title>
     </cc:Agent>
    </dc:creator>
   </cc:Work>
  </rdf:RDF>
 </metadata>
 <defs>
  <style type="text/css">*{stroke-linecap:butt;stroke-linejoin:round;}</style>
 </defs>
 <g id="figure_1">
  <g id="patch_1">
   <path d="M 0 325.986375 
L 404.923125 325.986375 
L 404.923125 0 
L 0 0 
z
" style="fill:none;"/>
  </g>
  <g id="axes_1">
   <g id="patch_2">
    <path d="M 40.603125 288.430125 
L 397.723125 288.430125 
L 397.723125 22.318125 
L 40.603125 22.318125 
z
" style="fill:none;"/>
   </g>
   <g id="matplotlib.axis_1">
    <g id="xtick_1">
     <g id="line2d_1">
      <defs>
       <path d="M 0 0 
L 0 3.5 
" id="m45ba1f6506" style="stroke:#000000;stroke-width:0.8;"/>
      </defs>
      <g>
       <use style="stroke:#000000;stroke-width:0.8;" x="56.835852" xlink:href="#m45ba1f6506" y="288.430125"/>
      </g>
     </g>
     <g id="text_1">
      <!-- 0.0 -->
      <g transform="translate(48.88429 303.028562)scale(0.1 -0.1)">
       <defs>
        <path d="M 31.78125 66.40625 
Q 24.171875 66.40625 20.328125 58.90625 
Q 16.5 51.421875 16.5 36.375 
Q 16.5 21.390625 20.328125 13.890625 
Q 24.171875 6.390625 31.78125 6.390625 
Q 39.453125 6.390625 43.28125 13.890625 
Q 47.125 21.390625 47.125 36.375 
Q 47.125 51.421875 43.28125 58.90625 
Q 39.453125 66.40625 31.78125 66.40625 
z
M 31.78125 74.21875 
Q 44.046875 74.21875 50.515625 64.515625 
Q 56.984375 54.828125 56.984375 36.375 
Q 56.984375 17.96875 50.515625 8.265625 
Q 44.046875 -1.421875 31.78125 -1.421875 
Q 19.53125 -1.421875 13.0625 8.265625 
Q 6.59375 17.96875 6.59375 36.375 
Q 6.59375 54.828125 13.0625 64.515625 
Q 19.53125 74.21875 31.78125 74.21875 
z
" id="DejaVuSans-48"/>
        <path d="M 10.6875 12.40625 
L 21 12.40625 
L 21 0 
L 10.6875 0 
z
" id="DejaVuSans-46"/>
       </defs>
       <use xlink:href="#DejaVuSans-48"/>
       <use x="63.623047" xlink:href="#DejaVuSans-46"/>
       <use x="95.410156" xlink:href="#DejaVuSans-48"/>
      </g>
     </g>
    </g>
    <g id="xtick_2">
     <g id="line2d_2">
      <g>
       <use style="stroke:#000000;stroke-width:0.8;" x="110.582664" xlink:href="#m45ba1f6506" y="288.430125"/>
      </g>
     </g>
     <g id="text_2">
      <!-- 0.5 -->
      <g transform="translate(102.631101 303.028562)scale(0.1 -0.1)">
       <defs>
        <path d="M 10.796875 72.90625 
L 49.515625 72.90625 
L 49.515625 64.59375 
L 19.828125 64.59375 
L 19.828125 46.734375 
Q 21.96875 47.46875 24.109375 47.828125 
Q 26.265625 48.1875 28.421875 48.1875 
Q 40.625 48.1875 47.75 41.5 
Q 54.890625 34.8125 54.890625 23.390625 
Q 54.890625 11.625 47.5625 5.09375 
Q 40.234375 -1.421875 26.90625 -1.421875 
Q 22.3125 -1.421875 17.546875 -0.640625 
Q 12.796875 0.140625 7.71875 1.703125 
L 7.71875 11.625 
Q 12.109375 9.234375 16.796875 8.0625 
Q 21.484375 6.890625 26.703125 6.890625 
Q 35.15625 6.890625 40.078125 11.328125 
Q 45.015625 15.765625 45.015625 23.390625 
Q 45.015625 31 40.078125 35.4375 
Q 35.15625 39.890625 26.703125 39.890625 
Q 22.75 39.890625 18.8125 39.015625 
Q 14.890625 38.140625 10.796875 36.28125 
z
" id="DejaVuSans-53"/>
       </defs>
       <use xlink:href="#DejaVuSans-48"/>
       <use x="63.623047" xlink:href="#DejaVuSans-46"/>
       <use x="95.410156" xlink:href="#DejaVuSans-53"/>
      </g>
     </g>
    </g>
    <g id="xtick_3">
     <g id="line2d_3">
      <g>
       <use style="stroke:#000000;stroke-width:0.8;" x="164.329475" xlink:href="#m45ba1f6506" y="288.430125"/>
      </g>
     </g>
     <g id="text_3">
      <!-- 1.0 -->
      <g transform="translate(156.377913 303.028562)scale(0.1 -0.1)">
       <defs>
        <path d="M 12.40625 8.296875 
L 28.515625 8.296875 
L 28.515625 63.921875 
L 10.984375 60.40625 
L 10.984375 69.390625 
L 28.421875 72.90625 
L 38.28125 72.90625 
L 38.28125 8.296875 
L 54.390625 8.296875 
L 54.390625 0 
L 12.40625 0 
z
" id="DejaVuSans-49"/>
       </defs>
       <use xlink:href="#DejaVuSans-49"/>
       <use x="63.623047" xlink:href="#DejaVuSans-46"/>
       <use x="95.410156" xlink:href="#DejaVuSans-48"/>
      </g>
     </g>
    </g>
    <g id="xtick_4">
     <g id="line2d_4">
      <g>
       <use style="stroke:#000000;stroke-width:0.8;" x="218.076287" xlink:href="#m45ba1f6506" y="288.430125"/>
      </g>
     </g>
     <g id="text_4">
      <!-- 1.5 -->
      <g transform="translate(210.124724 303.028562)scale(0.1 -0.1)">
       <use xlink:href="#DejaVuSans-49"/>
       <use x="63.623047" xlink:href="#DejaVuSans-46"/>
       <use x="95.410156" xlink:href="#DejaVuSans-53"/>
      </g>
     </g>
    </g>
    <g id="xtick_5">
     <g id="line2d_5">
      <g>
       <use style="stroke:#000000;stroke-width:0.8;" x="271.823098" xlink:href="#m45ba1f6506" y="288.430125"/>
      </g>
     </g>
     <g id="text_5">
      <!-- 2.0 -->
      <g transform="translate(263.871536 303.028562)scale(0.1 -0.1)">
       <defs>
        <path d="M 19.1875 8.296875 
L 53.609375 8.296875 
L 53.609375 0 
L 7.328125 0 
L 7.328125 8.296875 
Q 12.9375 14.109375 22.625 23.890625 
Q 32.328125 33.6875 34.8125 36.53125 
Q 39.546875 41.84375 41.421875 45.53125 
Q 43.3125 49.21875 43.3125 52.78125 
Q 43.3125 58.59375 39.234375 62.25 
Q 35.15625 65.921875 28.609375 65.921875 
Q 23.96875 65.921875 18.8125 64.3125 
Q 13.671875 62.703125 7.8125 59.421875 
L 7.8125 69.390625 
Q 13.765625 71.78125 18.9375 73 
Q 24.125 74.21875 28.421875 74.21875 
Q 39.75 74.21875 46.484375 68.546875 
Q 53.21875 62.890625 53.21875 53.421875 
Q 53.21875 48.921875 51.53125 44.890625 
Q 49.859375 40.875 45.40625 35.40625 
Q 44.1875 33.984375 37.640625 27.21875 
Q 31.109375 20.453125 19.1875 8.296875 
z
" id="DejaVuSans-50"/>
       </defs>
       <use xlink:href="#DejaVuSans-50"/>
       <use x="63.623047" xlink:href="#DejaVuSans-46"/>
       <use x="95.410156" xlink:href="#DejaVuSans-48"/>
      </g>
     </g>
    </g>
    <g id="xtick_6">
     <g id="line2d_6">
      <g>
       <use style="stroke:#000000;stroke-width:0.8;" x="325.56991" xlink:href="#m45ba1f6506" y="288.430125"/>
      </g>
     </g>
     <g id="text_6">
      <!-- 2.5 -->
      <g transform="translate(317.618347 303.028562)scale(0.1 -0.1)">
       <use xlink:href="#DejaVuSans-50"/>
       <use x="63.623047" xlink:href="#DejaVuSans-46"/>
       <use x="95.410156" xlink:href="#DejaVuSans-53"/>
      </g>
     </g>
    </g>
    <g id="xtick_7">
     <g id="line2d_7">
      <g>
       <use style="stroke:#000000;stroke-width:0.8;" x="379.316721" xlink:href="#m45ba1f6506" y="288.430125"/>
      </g>
     </g>
     <g id="text_7">
      <!-- 3.0 -->
      <g transform="translate(371.365159 303.028562)scale(0.1 -0.1)">
       <defs>
        <path d="M 40.578125 39.3125 
Q 47.65625 37.796875 51.625 33 
Q 55.609375 28.21875 55.609375 21.1875 
Q 55.609375 10.40625 48.1875 4.484375 
Q 40.765625 -1.421875 27.09375 -1.421875 
Q 22.515625 -1.421875 17.65625 -0.515625 
Q 12.796875 0.390625 7.625 2.203125 
L 7.625 11.71875 
Q 11.71875 9.328125 16.59375 8.109375 
Q 21.484375 6.890625 26.8125 6.890625 
Q 36.078125 6.890625 40.9375 10.546875 
Q 45.796875 14.203125 45.796875 21.1875 
Q 45.796875 27.640625 41.28125 31.265625 
Q 36.765625 34.90625 28.71875 34.90625 
L 20.21875 34.90625 
L 20.21875 43.015625 
L 29.109375 43.015625 
Q 36.375 43.015625 40.234375 45.921875 
Q 44.09375 48.828125 44.09375 54.296875 
Q 44.09375 59.90625 40.109375 62.90625 
Q 36.140625 65.921875 28.71875 65.921875 
Q 24.65625 65.921875 20.015625 65.03125 
Q 15.375 64.15625 9.8125 62.3125 
L 9.8125 71.09375 
Q 15.4375 72.65625 20.34375 73.4375 
Q 25.25 74.21875 29.59375 74.21875 
Q 40.828125 74.21875 47.359375 69.109375 
Q 53.90625 64.015625 53.90625 55.328125 
Q 53.90625 49.265625 50.4375 45.09375 
Q 46.96875 40.921875 40.578125 39.3125 
z
" id="DejaVuSans-51"/>
       </defs>
       <use xlink:href="#DejaVuSans-51"/>
       <use x="63.623047" xlink:href="#DejaVuSans-46"/>
       <use x="95.410156" xlink:href="#DejaVuSans-48"/>
      </g>
     </g>
    </g>
    <g id="text_8">
     <!-- Time (ms) -->
     <g transform="translate(193.963906 316.706687)scale(0.1 -0.1)">
      <defs>
       <path d="M -0.296875 72.90625 
L 61.375 72.90625 
L 61.375 64.59375 
L 35.5 64.59375 
L 35.5 0 
L 25.59375 0 
L 25.59375 64.59375 
L -0.296875 64.59375 
z
" id="DejaVuSans-84"/>
       <path d="M 9.421875 54.6875 
L 18.40625 54.6875 
L 18.40625 0 
L 9.421875 0 
z
M 9.421875 75.984375 
L 18.40625 75.984375 
L 18.40625 64.59375 
L 9.421875 64.59375 
z
" id="DejaVuSans-105"/>
       <path d="M 52 44.1875 
Q 55.375 50.25 60.0625 53.125 
Q 64.75 56 71.09375 56 
Q 79.640625 56 84.28125 50.015625 
Q 88.921875 44.046875 88.921875 33.015625 
L 88.921875 0 
L 79.890625 0 
L 79.890625 32.71875 
Q 79.890625 40.578125 77.09375 44.375 
Q 74.3125 48.1875 68.609375 48.1875 
Q 61.625 48.1875 57.5625 43.546875 
Q 53.515625 38.921875 53.515625 30.90625 
L 53.515625 0 
L 44.484375 0 
L 44.484375 32.71875 
Q 44.484375 40.625 41.703125 44.40625 
Q 38.921875 48.1875 33.109375 48.1875 
Q 26.21875 48.1875 22.15625 43.53125 
Q 18.109375 38.875 18.109375 30.90625 
L 18.109375 0 
L 9.078125 0 
L 9.078125 54.6875 
L 18.109375 54.6875 
L 18.109375 46.1875 
Q 21.1875 51.21875 25.484375 53.609375 
Q 29.78125 56 35.6875 56 
Q 41.65625 56 45.828125 52.96875 
Q 50 49.953125 52 44.1875 
z
" id="DejaVuSans-109"/>
       <path d="M 56.203125 29.59375 
L 56.203125 25.203125 
L 14.890625 25.203125 
Q 15.484375 15.921875 20.484375 11.0625 
Q 25.484375 6.203125 34.421875 6.203125 
Q 39.59375 6.203125 44.453125 7.46875 
Q 49.3125 8.734375 54.109375 11.28125 
L 54.109375 2.78125 
Q 49.265625 0.734375 44.1875 -0.34375 
Q 39.109375 -1.421875 33.890625 -1.421875 
Q 20.796875 -1.421875 13.15625 6.1875 
Q 5.515625 13.8125 5.515625 26.8125 
Q 5.515625 40.234375 12.765625 48.109375 
Q 20.015625 56 32.328125 56 
Q 43.359375 56 49.78125 48.890625 
Q 56.203125 41.796875 56.203125 29.59375 
z
M 47.21875 32.234375 
Q 47.125 39.59375 43.09375 43.984375 
Q 39.0625 48.390625 32.421875 48.390625 
Q 24.90625 48.390625 20.390625 44.140625 
Q 15.875 39.890625 15.1875 32.171875 
z
" id="DejaVuSans-101"/>
       <path id="DejaVuSans-32"/>
       <path d="M 31 75.875 
Q 24.46875 64.65625 21.28125 53.65625 
Q 18.109375 42.671875 18.109375 31.390625 
Q 18.109375 20.125 21.3125 9.0625 
Q 24.515625 -2 31 -13.1875 
L 23.1875 -13.1875 
Q 15.875 -1.703125 12.234375 9.375 
Q 8.59375 20.453125 8.59375 31.390625 
Q 8.59375 42.28125 12.203125 53.3125 
Q 15.828125 64.359375 23.1875 75.875 
z
" id="DejaVuSans-40"/>
       <path d="M 44.28125 53.078125 
L 44.28125 44.578125 
Q 40.484375 46.53125 36.375 47.5 
Q 32.28125 48.484375 27.875 48.484375 
Q 21.1875 48.484375 17.84375 46.4375 
Q 14.5 44.390625 14.5 40.28125 
Q 14.5 37.15625 16.890625 35.375 
Q 19.28125 33.59375 26.515625 31.984375 
L 29.59375 31.296875 
Q 39.15625 29.25 43.1875 25.515625 
Q 47.21875 21.78125 47.21875 15.09375 
Q 47.21875 7.46875 41.1875 3.015625 
Q 35.15625 -1.421875 24.609375 -1.421875 
Q 20.21875 -1.421875 15.453125 -0.5625 
Q 10.6875 0.296875 5.421875 2 
L 5.421875 11.28125 
Q 10.40625 8.6875 15.234375 7.390625 
Q 20.0625 6.109375 24.8125 6.109375 
Q 31.15625 6.109375 34.5625 8.28125 
Q 37.984375 10.453125 37.984375 14.40625 
Q 37.984375 18.0625 35.515625 20.015625 
Q 33.0625 21.96875 24.703125 23.78125 
L 21.578125 24.515625 
Q 13.234375 26.265625 9.515625 29.90625 
Q 5.8125 33.546875 5.8125 39.890625 
Q 5.8125 47.609375 11.28125 51.796875 
Q 16.75 56 26.8125 56 
Q 31.78125 56 36.171875 55.265625 
Q 40.578125 54.546875 44.28125 53.078125 
z
" id="DejaVuSans-115"/>
       <path d="M 8.015625 75.875 
L 15.828125 75.875 
Q 23.140625 64.359375 26.78125 53.3125 
Q 30.421875 42.28125 30.421875 31.390625 
Q 30.421875 20.453125 26.78125 9.375 
Q 23.140625 -1.703125 15.828125 -13.1875 
L 8.015625 -13.1875 
Q 14.5 -2 17.703125 9.0625 
Q 20.90625 20.125 20.90625 31.390625 
Q 20.90625 42.671875 17.703125 53.65625 
Q 14.5 64.65625 8.015625 75.875 
z
" id="DejaVuSans-41"/>
      </defs>
      <use xlink:href="#DejaVuSans-84"/>
      <use x="57.958984" xlink:href="#DejaVuSans-105"/>
      <use x="85.742188" xlink:href="#DejaVuSans-109"/>
      <use x="183.154297" xlink:href="#DejaVuSans-101"/>
      <use x="244.677734" xlink:href="#DejaVuSans-32"/>
      <use x="276.464844" xlink:href="#DejaVuSans-40"/>
      <use x="315.478516" xlink:href="#DejaVuSans-109"/>
      <use x="412.890625" xlink:href="#DejaVuSans-115"/>
      <use x="464.990234" xlink:href="#DejaVuSans-41"/>
     </g>
    </g>
   </g>
   <g id="matplotlib.axis_2">
    <g id="ytick_1">
     <g id="line2d_8">
      <defs>
       <path d="M 0 0 
L -3.5 0 
" id="m1237706508" style="stroke:#000000;stroke-width:0.8;"/>
      </defs>
      <g>
       <use style="stroke:#000000;stroke-width:0.8;" x="40.603125" xlink:href="#m1237706508" y="276.334125"/>
      </g>
     </g>
     <g id="text_9">
      <!-- 0 -->
      <g transform="translate(27.240625 280.133344)scale(0.1 -0.1)">
       <use xlink:href="#DejaVuSans-48"/>
      </g>
     </g>
    </g>
    <g id="ytick_2">
     <g id="line2d_9">
      <g>
       <use style="stroke:#000000;stroke-width:0.8;" x="40.603125" xlink:href="#m1237706508" y="229.902456"/>
      </g>
     </g>
     <g id="text_10">
      <!-- 10 -->
      <g transform="translate(20.878125 233.701675)scale(0.1 -0.1)">
       <use xlink:href="#DejaVuSans-49"/>
       <use x="63.623047" xlink:href="#DejaVuSans-48"/>
      </g>
     </g>
    </g>
    <g id="ytick_3">
     <g id="line2d_10">
      <g>
       <use style="stroke:#000000;stroke-width:0.8;" x="40.603125" xlink:href="#m1237706508" y="183.470787"/>
      </g>
     </g>
     <g id="text_11">
      <!-- 20 -->
      <g transform="translate(20.878125 187.270006)scale(0.1 -0.1)">
       <use xlink:href="#DejaVuSans-50"/>
       <use x="63.623047" xlink:href="#DejaVuSans-48"/>
      </g>
     </g>
    </g>
    <g id="ytick_4">
     <g id="line2d_11">
      <g>
       <use style="stroke:#000000;stroke-width:0.8;" x="40.603125" xlink:href="#m1237706508" y="137.039118"/>
      </g>
     </g>
     <g id="text_12">
      <!-- 30 -->
      <g transform="translate(20.878125 140.838337)scale(0.1 -0.1)">
       <use xlink:href="#DejaVuSans-51"/>
       <use x="63.623047" xlink:href="#DejaVuSans-48"/>
      </g>
     </g>
    </g>
    <g id="ytick_5">
     <g id="line2d_12">
      <g>
       <use style="stroke:#000000;stroke-width:0.8;" x="40.603125" xlink:href="#m1237706508" y="90.607449"/>
      </g>
     </g>
     <g id="text_13">
      <!-- 40 -->
      <g transform="translate(20.878125 94.406668)scale(0.1 -0.1)">
       <defs>
        <path d="M 37.796875 64.3125 
L 12.890625 25.390625 
L 37.796875 25.390625 
z
M 35.203125 72.90625 
L 47.609375 72.90625 
L 47.609375 25.390625 
L 58.015625 25.390625 
L 58.015625 17.1875 
L 47.609375 17.1875 
L 47.609375 0 
L 37.796875 0 
L 37.796875 17.1875 
L 4.890625 17.1875 
L 4.890625 26.703125 
z
" id="DejaVuSans-52"/>
       </defs>
       <use xlink:href="#DejaVuSans-52"/>
       <use x="63.623047" xlink:href="#DejaVuSans-48"/>
      </g>
     </g>
    </g>
    <g id="ytick_6">
     <g id="line2d_13">
      <g>
       <use style="stroke:#000000;stroke-width:0.8;" x="40.603125" xlink:href="#m1237706508" y="44.17578"/>
      </g>
     </g>
     <g id="text_14">
      <!-- 50 -->
      <g transform="translate(20.878125 47.974999)scale(0.1 -0.1)">
       <use xlink:href="#DejaVuSans-53"/>
       <use x="63.623047" xlink:href="#DejaVuSans-48"/>
      </g>
     </g>
    </g>
    <g id="text_15">
     <!-- OH ppm -->
     <g transform="translate(14.798438 175.878031)rotate(-90)scale(0.1 -0.1)">
      <defs>
       <path d="M 39.40625 66.21875 
Q 28.65625 66.21875 22.328125 58.203125 
Q 16.015625 50.203125 16.015625 36.375 
Q 16.015625 22.609375 22.328125 14.59375 
Q 28.65625 6.59375 39.40625 6.59375 
Q 50.140625 6.59375 56.421875 14.59375 
Q 62.703125 22.609375 62.703125 36.375 
Q 62.703125 50.203125 56.421875 58.203125 
Q 50.140625 66.21875 39.40625 66.21875 
z
M 39.40625 74.21875 
Q 54.734375 74.21875 63.90625 63.9375 
Q 73.09375 53.65625 73.09375 36.375 
Q 73.09375 19.140625 63.90625 8.859375 
Q 54.734375 -1.421875 39.40625 -1.421875 
Q 24.03125 -1.421875 14.8125 8.828125 
Q 5.609375 19.09375 5.609375 36.375 
Q 5.609375 53.65625 14.8125 63.9375 
Q 24.03125 74.21875 39.40625 74.21875 
z
" id="DejaVuSans-79"/>
       <path d="M 9.8125 72.90625 
L 19.671875 72.90625 
L 19.671875 43.015625 
L 55.515625 43.015625 
L 55.515625 72.90625 
L 65.375 72.90625 
L 65.375 0 
L 55.515625 0 
L 55.515625 34.71875 
L 19.671875 34.71875 
L 19.671875 0 
L 9.8125 0 
z
" id="DejaVuSans-72"/>
       <path d="M 18.109375 8.203125 
L 18.109375 -20.796875 
L 9.078125 -20.796875 
L 9.078125 54.6875 
L 18.109375 54.6875 
L 18.109375 46.390625 
Q 20.953125 51.265625 25.265625 53.625 
Q 29.59375 56 35.59375 56 
Q 45.5625 56 51.78125 48.09375 
Q 58.015625 40.1875 58.015625 27.296875 
Q 58.015625 14.40625 51.78125 6.484375 
Q 45.5625 -1.421875 35.59375 -1.421875 
Q 29.59375 -1.421875 25.265625 0.953125 
Q 20.953125 3.328125 18.109375 8.203125 
z
M 48.6875 27.296875 
Q 48.6875 37.203125 44.609375 42.84375 
Q 40.53125 48.484375 33.40625 48.484375 
Q 26.265625 48.484375 22.1875 42.84375 
Q 18.109375 37.203125 18.109375 27.296875 
Q 18.109375 17.390625 22.1875 11.75 
Q 26.265625 6.109375 33.40625 6.109375 
Q 40.53125 6.109375 44.609375 11.75 
Q 48.6875 17.390625 48.6875 27.296875 
z
" id="DejaVuSans-112"/>
      </defs>
      <use xlink:href="#DejaVuSans-79"/>
      <use x="78.710938" xlink:href="#DejaVuSans-72"/>
      <use x="153.90625" xlink:href="#DejaVuSans-32"/>
      <use x="185.693359" xlink:href="#DejaVuSans-112"/>
      <use x="249.169922" xlink:href="#DejaVuSans-112"/>
      <use x="312.646484" xlink:href="#DejaVuSans-109"/>
     </g>
    </g>
   </g>
   <g id="line2d_14">
    <path clip-path="url(#pf29d51271d)" d="M 56.835852 276.334125 
L 57.52253 275.599416 
L 58.380563 275.005366 
L 59.545546 274.494848 
L 61.595628 273.884051 
L 65.758346 272.653402 
L 68.373013 271.664602 
L 70.793887 270.539997 
L 73.267962 269.136064 
L 75.396197 267.680463 
L 77.524433 265.951811 
L 79.652669 263.902745 
L 81.780904 261.481636 
L 83.90914 258.635407 
L 86.037376 255.314082 
L 88.165611 251.476902 
L 90.293847 247.099239 
L 92.538853 241.893402 
L 94.846935 235.941644 
L 97.449494 228.580692 
L 100.630398 218.824075 
L 104.407575 206.453144 
L 108.923092 190.916698 
L 114.849629 169.677141 
L 128.884861 118.867299 
L 132.442064 107.104116 
L 135.554617 97.584239 
L 138.222519 90.100811 
L 140.687536 83.792838 
L 143.433196 77.482947 
L 145.492441 73.251327 
L 147.551686 69.443519 
L 149.649209 65.987892 
L 151.746732 62.940222 
L 153.844255 60.276771 
L 155.941778 57.970372 
L 158.039301 55.991685 
L 160.617033 53.964012 
L 162.910489 52.491731 
L 165.203945 51.291721 
L 167.497402 50.32757 
L 169.790858 49.565561 
L 172.481528 48.888108 
L 175.966624 48.290783 
L 179.451721 47.936307 
L 184.098516 47.731986 
L 189.907011 47.752453 
L 198.102066 48.046981 
L 249.093899 50.339413 
L 365.234959 54.732771 
L 381.490398 55.403869 
L 381.490398 55.403869 
" style="fill:none;stroke:#0000ff;stroke-linecap:square;stroke-width:1.5;"/>
   </g>
   <g id="line2d_15">
    <path clip-path="url(#pf29d51271d)" d="M 56.835852 276.334125 
L 57.838945 276.07938 
L 59.796414 275.838574 
L 68.938248 274.933018 
L 72.934791 274.255161 
L 76.431766 273.415509 
L 79.429173 272.439442 
L 81.927012 271.384526 
L 83.925284 270.339516 
L 85.923555 269.074741 
L 87.921827 267.544975 
L 89.920098 265.697795 
L 91.91837 263.474119 
L 93.916641 260.809975 
L 95.415345 258.483394 
L 97.413616 254.893329 
L 99.411888 250.69724 
L 101.410159 245.85921 
L 103.408431 240.368468 
L 105.406702 234.244137 
L 107.904541 225.774272 
L 110.402381 216.535178 
L 113.746888 203.243241 
L 117.65868 186.757928 
L 122.637324 164.767698 
L 130.10529 130.576414 
L 135.439551 106.592935 
L 138.995725 91.64846 
L 141.858363 80.59343 
L 144.569738 71.120804 
L 146.738838 64.328192 
L 148.907939 58.277939 
L 151.077039 52.987833 
L 152.703864 49.518037 
L 154.330689 46.466241 
L 155.957515 43.818898 
L 157.58434 41.558 
L 159.352731 39.513405 
L 161.121122 37.868462 
L 162.889513 36.589236 
L 164.657904 35.640424 
L 166.426295 34.986397 
L 168.194686 34.592085 
L 169.963077 34.423686 
L 171.731469 34.449212 
L 174.384055 34.78662 
L 177.036642 35.40385 
L 180.573424 36.530887 
L 184.994402 38.227968 
L 200.025726 44.255197 
L 205.330899 46.072743 
L 210.838933 47.717718 
L 216.346968 49.123809 
L 221.855002 50.313296 
L 228.740045 51.538382 
L 235.625087 52.524545 
L 242.523901 53.323741 
L 250.813493 54.093967 
L 261.175483 54.848332 
L 275.682269 55.658614 
L 296.438838 56.562598 
L 346.437096 58.421482 
L 380.939511 59.721325 
L 380.939511 59.721325 
" style="fill:none;stroke:#ff0000;stroke-linecap:square;stroke-width:1.5;"/>
   </g>
   <g id="line2d_16">
    <defs>
     <path d="M 0 3 
C 0.795609 3 1.55874 2.683901 2.12132 2.12132 
C 2.683901 1.55874 3 0.795609 3 0 
C 3 -0.795609 2.683901 -1.55874 2.12132 -2.12132 
C 1.55874 -2.683901 0.795609 -3 0 -3 
C -0.795609 -3 -1.55874 -2.683901 -2.12132 -2.12132 
C -2.683901 -1.55874 -3 -0.795609 -3 0 
C -3 0.795609 -2.683901 1.55874 -2.12132 2.12132 
C -1.55874 2.683901 -0.795609 3 0 3 
z
" id="me7247b1f02" style="stroke:#000000;"/>
    </defs>
    <g clip-path="url(#pf29d51271d)">
     <use style="stroke:#000000;" x="57.308824" xlink:href="#me7247b1f02" y="275.405492"/>
     <use style="stroke:#000000;" x="57.480814" xlink:href="#me7247b1f02" y="274.476858"/>
     <use style="stroke:#000000;" x="57.781796" xlink:href="#me7247b1f02" y="275.405492"/>
     <use style="stroke:#000000;" x="58.082778" xlink:href="#me7247b1f02" y="275.405492"/>
     <use style="stroke:#000000;" x="58.254768" xlink:href="#me7247b1f02" y="274.476858"/>
     <use style="stroke:#000000;" x="58.426758" xlink:href="#me7247b1f02" y="274.941175"/>
     <use style="stroke:#000000;" x="58.641745" xlink:href="#me7247b1f02" y="275.405492"/>
     <use style="stroke:#000000;" x="59.028722" xlink:href="#me7247b1f02" y="275.869808"/>
     <use style="stroke:#000000;" x="59.243709" xlink:href="#me7247b1f02" y="274.476858"/>
     <use style="stroke:#000000;" x="59.415699" xlink:href="#me7247b1f02" y="275.405492"/>
     <use style="stroke:#000000;" x="59.630686" xlink:href="#me7247b1f02" y="274.941175"/>
     <use style="stroke:#000000;" x="59.802676" xlink:href="#me7247b1f02" y="271.690958"/>
     <use style="stroke:#000000;" x="59.974666" xlink:href="#me7247b1f02" y="275.405492"/>
     <use style="stroke:#000000;" x="60.533633" xlink:href="#me7247b1f02" y="275.869808"/>
     <use style="stroke:#000000;" x="60.92061" xlink:href="#me7247b1f02" y="275.869808"/>
     <use style="stroke:#000000;" x="61.436579" xlink:href="#me7247b1f02" y="274.476858"/>
     <use style="stroke:#000000;" x="61.651567" xlink:href="#me7247b1f02" y="274.476858"/>
     <use style="stroke:#000000;" x="61.823556" xlink:href="#me7247b1f02" y="275.869808"/>
     <use style="stroke:#000000;" x="62.038544" xlink:href="#me7247b1f02" y="274.941175"/>
     <use style="stroke:#000000;" x="62.296528" xlink:href="#me7247b1f02" y="274.941175"/>
     <use style="stroke:#000000;" x="63.156477" xlink:href="#me7247b1f02" y="274.941175"/>
     <use style="stroke:#000000;" x="63.414462" xlink:href="#me7247b1f02" y="274.941175"/>
     <use style="stroke:#000000;" x="63.629449" xlink:href="#me7247b1f02" y="275.405492"/>
     <use style="stroke:#000000;" x="64.059424" xlink:href="#me7247b1f02" y="274.476858"/>
     <use style="stroke:#000000;" x="64.274411" xlink:href="#me7247b1f02" y="275.869808"/>
     <use style="stroke:#000000;" x="64.532396" xlink:href="#me7247b1f02" y="274.012542"/>
     <use style="stroke:#000000;" x="64.704385" xlink:href="#me7247b1f02" y="274.476858"/>
     <use style="stroke:#000000;" x="64.876375" xlink:href="#me7247b1f02" y="275.869808"/>
     <use style="stroke:#000000;" x="65.048365" xlink:href="#me7247b1f02" y="275.405492"/>
     <use style="stroke:#000000;" x="65.349347" xlink:href="#me7247b1f02" y="275.405492"/>
     <use style="stroke:#000000;" x="65.521337" xlink:href="#me7247b1f02" y="275.869808"/>
     <use style="stroke:#000000;" x="65.994309" xlink:href="#me7247b1f02" y="274.941175"/>
     <use style="stroke:#000000;" x="66.209296" xlink:href="#me7247b1f02" y="274.012542"/>
     <use style="stroke:#000000;" x="66.381286" xlink:href="#me7247b1f02" y="275.869808"/>
     <use style="stroke:#000000;" x="66.682268" xlink:href="#me7247b1f02" y="273.548225"/>
     <use style="stroke:#000000;" x="66.854258" xlink:href="#me7247b1f02" y="271.690958"/>
     <use style="stroke:#000000;" x="67.026248" xlink:href="#me7247b1f02" y="272.619591"/>
     <use style="stroke:#000000;" x="67.198238" xlink:href="#me7247b1f02" y="274.476858"/>
     <use style="stroke:#000000;" x="67.370227" xlink:href="#me7247b1f02" y="273.083908"/>
     <use style="stroke:#000000;" x="67.542217" xlink:href="#me7247b1f02" y="274.941175"/>
     <use style="stroke:#000000;" x="67.757204" xlink:href="#me7247b1f02" y="274.941175"/>
     <use style="stroke:#000000;" x="68.058187" xlink:href="#me7247b1f02" y="275.405492"/>
     <use style="stroke:#000000;" x="68.402166" xlink:href="#me7247b1f02" y="274.941175"/>
     <use style="stroke:#000000;" x="68.789143" xlink:href="#me7247b1f02" y="274.941175"/>
     <use style="stroke:#000000;" x="68.961133" xlink:href="#me7247b1f02" y="274.476858"/>
     <use style="stroke:#000000;" x="69.133123" xlink:href="#me7247b1f02" y="275.405492"/>
     <use style="stroke:#000000;" x="69.305113" xlink:href="#me7247b1f02" y="273.083908"/>
     <use style="stroke:#000000;" x="69.477102" xlink:href="#me7247b1f02" y="272.155275"/>
     <use style="stroke:#000000;" x="69.649092" xlink:href="#me7247b1f02" y="270.762325"/>
     <use style="stroke:#000000;" x="69.821082" xlink:href="#me7247b1f02" y="273.083908"/>
     <use style="stroke:#000000;" x="69.993072" xlink:href="#me7247b1f02" y="270.762325"/>
     <use style="stroke:#000000;" x="70.165062" xlink:href="#me7247b1f02" y="271.226641"/>
     <use style="stroke:#000000;" x="70.337051" xlink:href="#me7247b1f02" y="270.762325"/>
     <use style="stroke:#000000;" x="70.509041" xlink:href="#me7247b1f02" y="273.083908"/>
     <use style="stroke:#000000;" x="70.681031" xlink:href="#me7247b1f02" y="272.155275"/>
     <use style="stroke:#000000;" x="70.853021" xlink:href="#me7247b1f02" y="272.155275"/>
     <use style="stroke:#000000;" x="71.025011" xlink:href="#me7247b1f02" y="272.155275"/>
     <use style="stroke:#000000;" x="71.197" xlink:href="#me7247b1f02" y="271.690958"/>
     <use style="stroke:#000000;" x="71.36899" xlink:href="#me7247b1f02" y="272.155275"/>
     <use style="stroke:#000000;" x="71.54098" xlink:href="#me7247b1f02" y="271.226641"/>
     <use style="stroke:#000000;" x="71.71297" xlink:href="#me7247b1f02" y="269.833691"/>
     <use style="stroke:#000000;" x="71.884959" xlink:href="#me7247b1f02" y="271.690958"/>
     <use style="stroke:#000000;" x="72.056949" xlink:href="#me7247b1f02" y="273.548225"/>
     <use style="stroke:#000000;" x="72.228939" xlink:href="#me7247b1f02" y="272.155275"/>
     <use style="stroke:#000000;" x="72.400929" xlink:href="#me7247b1f02" y="271.690958"/>
     <use style="stroke:#000000;" x="72.572919" xlink:href="#me7247b1f02" y="272.155275"/>
     <use style="stroke:#000000;" x="72.744908" xlink:href="#me7247b1f02" y="272.619591"/>
     <use style="stroke:#000000;" x="72.916898" xlink:href="#me7247b1f02" y="273.083908"/>
     <use style="stroke:#000000;" x="73.088888" xlink:href="#me7247b1f02" y="270.762325"/>
     <use style="stroke:#000000;" x="73.260878" xlink:href="#me7247b1f02" y="271.226641"/>
     <use style="stroke:#000000;" x="73.432868" xlink:href="#me7247b1f02" y="271.226641"/>
     <use style="stroke:#000000;" x="73.604857" xlink:href="#me7247b1f02" y="270.298008"/>
     <use style="stroke:#000000;" x="73.776847" xlink:href="#me7247b1f02" y="271.226641"/>
     <use style="stroke:#000000;" x="73.948837" xlink:href="#me7247b1f02" y="271.226641"/>
     <use style="stroke:#000000;" x="74.120827" xlink:href="#me7247b1f02" y="271.226641"/>
     <use style="stroke:#000000;" x="74.292817" xlink:href="#me7247b1f02" y="270.298008"/>
     <use style="stroke:#000000;" x="74.464806" xlink:href="#me7247b1f02" y="271.226641"/>
     <use style="stroke:#000000;" x="74.636796" xlink:href="#me7247b1f02" y="271.226641"/>
     <use style="stroke:#000000;" x="74.808786" xlink:href="#me7247b1f02" y="271.690958"/>
     <use style="stroke:#000000;" x="74.980776" xlink:href="#me7247b1f02" y="271.226641"/>
     <use style="stroke:#000000;" x="75.152766" xlink:href="#me7247b1f02" y="269.833691"/>
     <use style="stroke:#000000;" x="75.324755" xlink:href="#me7247b1f02" y="269.369375"/>
     <use style="stroke:#000000;" x="75.496745" xlink:href="#me7247b1f02" y="268.440741"/>
     <use style="stroke:#000000;" x="75.668735" xlink:href="#me7247b1f02" y="269.369375"/>
     <use style="stroke:#000000;" x="75.840725" xlink:href="#me7247b1f02" y="268.440741"/>
     <use style="stroke:#000000;" x="76.012715" xlink:href="#me7247b1f02" y="269.369375"/>
     <use style="stroke:#000000;" x="76.184704" xlink:href="#me7247b1f02" y="268.440741"/>
     <use style="stroke:#000000;" x="76.356694" xlink:href="#me7247b1f02" y="267.976425"/>
     <use style="stroke:#000000;" x="76.528684" xlink:href="#me7247b1f02" y="267.512108"/>
     <use style="stroke:#000000;" x="76.700674" xlink:href="#me7247b1f02" y="268.905058"/>
     <use style="stroke:#000000;" x="76.872664" xlink:href="#me7247b1f02" y="267.512108"/>
     <use style="stroke:#000000;" x="77.044653" xlink:href="#me7247b1f02" y="268.905058"/>
     <use style="stroke:#000000;" x="77.216643" xlink:href="#me7247b1f02" y="268.905058"/>
     <use style="stroke:#000000;" x="77.388633" xlink:href="#me7247b1f02" y="267.976425"/>
     <use style="stroke:#000000;" x="77.560623" xlink:href="#me7247b1f02" y="268.440741"/>
     <use style="stroke:#000000;" x="77.732613" xlink:href="#me7247b1f02" y="267.512108"/>
     <use style="stroke:#000000;" x="77.904602" xlink:href="#me7247b1f02" y="267.512108"/>
     <use style="stroke:#000000;" x="78.076592" xlink:href="#me7247b1f02" y="269.833691"/>
     <use style="stroke:#000000;" x="78.248582" xlink:href="#me7247b1f02" y="268.440741"/>
     <use style="stroke:#000000;" x="78.420572" xlink:href="#me7247b1f02" y="267.976425"/>
     <use style="stroke:#000000;" x="78.592562" xlink:href="#me7247b1f02" y="267.047791"/>
     <use style="stroke:#000000;" x="78.764551" xlink:href="#me7247b1f02" y="265.654841"/>
     <use style="stroke:#000000;" x="78.936541" xlink:href="#me7247b1f02" y="265.190524"/>
     <use style="stroke:#000000;" x="79.108531" xlink:href="#me7247b1f02" y="265.654841"/>
     <use style="stroke:#000000;" x="79.280521" xlink:href="#me7247b1f02" y="267.047791"/>
     <use style="stroke:#000000;" x="79.452511" xlink:href="#me7247b1f02" y="265.654841"/>
     <use style="stroke:#000000;" x="79.6245" xlink:href="#me7247b1f02" y="264.726208"/>
     <use style="stroke:#000000;" x="79.79649" xlink:href="#me7247b1f02" y="266.583475"/>
     <use style="stroke:#000000;" x="79.96848" xlink:href="#me7247b1f02" y="265.190524"/>
     <use style="stroke:#000000;" x="80.14047" xlink:href="#me7247b1f02" y="266.119158"/>
     <use style="stroke:#000000;" x="80.31246" xlink:href="#me7247b1f02" y="264.726208"/>
     <use style="stroke:#000000;" x="80.484449" xlink:href="#me7247b1f02" y="265.190524"/>
     <use style="stroke:#000000;" x="80.656439" xlink:href="#me7247b1f02" y="264.261891"/>
     <use style="stroke:#000000;" x="80.828429" xlink:href="#me7247b1f02" y="266.119158"/>
     <use style="stroke:#000000;" x="81.000419" xlink:href="#me7247b1f02" y="265.654841"/>
     <use style="stroke:#000000;" x="81.172409" xlink:href="#me7247b1f02" y="264.261891"/>
     <use style="stroke:#000000;" x="81.344398" xlink:href="#me7247b1f02" y="265.654841"/>
     <use style="stroke:#000000;" x="81.516388" xlink:href="#me7247b1f02" y="266.119158"/>
     <use style="stroke:#000000;" x="81.688378" xlink:href="#me7247b1f02" y="267.047791"/>
     <use style="stroke:#000000;" x="81.860368" xlink:href="#me7247b1f02" y="266.119158"/>
     <use style="stroke:#000000;" x="82.032358" xlink:href="#me7247b1f02" y="264.726208"/>
     <use style="stroke:#000000;" x="82.204347" xlink:href="#me7247b1f02" y="265.190524"/>
     <use style="stroke:#000000;" x="82.376337" xlink:href="#me7247b1f02" y="262.868941"/>
     <use style="stroke:#000000;" x="82.548327" xlink:href="#me7247b1f02" y="262.868941"/>
     <use style="stroke:#000000;" x="82.720317" xlink:href="#me7247b1f02" y="262.404624"/>
     <use style="stroke:#000000;" x="82.892306" xlink:href="#me7247b1f02" y="264.726208"/>
     <use style="stroke:#000000;" x="83.064296" xlink:href="#me7247b1f02" y="262.404624"/>
     <use style="stroke:#000000;" x="83.236286" xlink:href="#me7247b1f02" y="262.868941"/>
     <use style="stroke:#000000;" x="83.408276" xlink:href="#me7247b1f02" y="262.404624"/>
     <use style="stroke:#000000;" x="83.580266" xlink:href="#me7247b1f02" y="264.261891"/>
     <use style="stroke:#000000;" x="83.752255" xlink:href="#me7247b1f02" y="261.940308"/>
     <use style="stroke:#000000;" x="83.924245" xlink:href="#me7247b1f02" y="261.940308"/>
     <use style="stroke:#000000;" x="84.096235" xlink:href="#me7247b1f02" y="260.083041"/>
     <use style="stroke:#000000;" x="84.268225" xlink:href="#me7247b1f02" y="259.618724"/>
     <use style="stroke:#000000;" x="84.440215" xlink:href="#me7247b1f02" y="262.404624"/>
     <use style="stroke:#000000;" x="84.612204" xlink:href="#me7247b1f02" y="262.868941"/>
     <use style="stroke:#000000;" x="84.784194" xlink:href="#me7247b1f02" y="262.404624"/>
     <use style="stroke:#000000;" x="84.956184" xlink:href="#me7247b1f02" y="261.011674"/>
     <use style="stroke:#000000;" x="85.128174" xlink:href="#me7247b1f02" y="261.011674"/>
     <use style="stroke:#000000;" x="85.300164" xlink:href="#me7247b1f02" y="261.475991"/>
     <use style="stroke:#000000;" x="85.472153" xlink:href="#me7247b1f02" y="261.011674"/>
     <use style="stroke:#000000;" x="85.644143" xlink:href="#me7247b1f02" y="261.011674"/>
     <use style="stroke:#000000;" x="85.816133" xlink:href="#me7247b1f02" y="257.761457"/>
     <use style="stroke:#000000;" x="85.988123" xlink:href="#me7247b1f02" y="259.154407"/>
     <use style="stroke:#000000;" x="86.160113" xlink:href="#me7247b1f02" y="259.618724"/>
     <use style="stroke:#000000;" x="86.332102" xlink:href="#me7247b1f02" y="259.618724"/>
     <use style="stroke:#000000;" x="86.504092" xlink:href="#me7247b1f02" y="257.761457"/>
     <use style="stroke:#000000;" x="86.676082" xlink:href="#me7247b1f02" y="259.154407"/>
     <use style="stroke:#000000;" x="86.848072" xlink:href="#me7247b1f02" y="258.225774"/>
     <use style="stroke:#000000;" x="87.020062" xlink:href="#me7247b1f02" y="256.832824"/>
     <use style="stroke:#000000;" x="87.192051" xlink:href="#me7247b1f02" y="258.225774"/>
     <use style="stroke:#000000;" x="87.364041" xlink:href="#me7247b1f02" y="256.368507"/>
     <use style="stroke:#000000;" x="87.536031" xlink:href="#me7247b1f02" y="256.832824"/>
     <use style="stroke:#000000;" x="87.708021" xlink:href="#me7247b1f02" y="257.297141"/>
     <use style="stroke:#000000;" x="87.880011" xlink:href="#me7247b1f02" y="256.368507"/>
     <use style="stroke:#000000;" x="88.052" xlink:href="#me7247b1f02" y="256.368507"/>
     <use style="stroke:#000000;" x="88.22399" xlink:href="#me7247b1f02" y="255.904191"/>
     <use style="stroke:#000000;" x="88.39598" xlink:href="#me7247b1f02" y="254.046924"/>
     <use style="stroke:#000000;" x="88.56797" xlink:href="#me7247b1f02" y="254.511241"/>
     <use style="stroke:#000000;" x="88.73996" xlink:href="#me7247b1f02" y="253.582607"/>
     <use style="stroke:#000000;" x="88.911949" xlink:href="#me7247b1f02" y="253.582607"/>
     <use style="stroke:#000000;" x="89.083939" xlink:href="#me7247b1f02" y="251.261024"/>
     <use style="stroke:#000000;" x="89.255929" xlink:href="#me7247b1f02" y="253.118291"/>
     <use style="stroke:#000000;" x="89.427919" xlink:href="#me7247b1f02" y="251.261024"/>
     <use style="stroke:#000000;" x="89.599909" xlink:href="#me7247b1f02" y="251.261024"/>
     <use style="stroke:#000000;" x="89.771898" xlink:href="#me7247b1f02" y="251.261024"/>
     <use style="stroke:#000000;" x="89.943888" xlink:href="#me7247b1f02" y="252.653974"/>
     <use style="stroke:#000000;" x="90.115878" xlink:href="#me7247b1f02" y="249.403757"/>
     <use style="stroke:#000000;" x="90.287868" xlink:href="#me7247b1f02" y="250.33239"/>
     <use style="stroke:#000000;" x="90.459858" xlink:href="#me7247b1f02" y="249.868074"/>
     <use style="stroke:#000000;" x="90.631847" xlink:href="#me7247b1f02" y="248.93944"/>
     <use style="stroke:#000000;" x="90.803837" xlink:href="#me7247b1f02" y="247.54649"/>
     <use style="stroke:#000000;" x="90.975827" xlink:href="#me7247b1f02" y="248.010807"/>
     <use style="stroke:#000000;" x="91.147817" xlink:href="#me7247b1f02" y="245.224907"/>
     <use style="stroke:#000000;" x="91.319807" xlink:href="#me7247b1f02" y="246.617857"/>
     <use style="stroke:#000000;" x="91.491796" xlink:href="#me7247b1f02" y="247.082174"/>
     <use style="stroke:#000000;" x="91.663786" xlink:href="#me7247b1f02" y="245.689223"/>
     <use style="stroke:#000000;" x="91.835776" xlink:href="#me7247b1f02" y="245.224907"/>
     <use style="stroke:#000000;" x="92.007766" xlink:href="#me7247b1f02" y="245.224907"/>
     <use style="stroke:#000000;" x="92.179756" xlink:href="#me7247b1f02" y="244.76059"/>
     <use style="stroke:#000000;" x="92.351745" xlink:href="#me7247b1f02" y="243.36764"/>
     <use style="stroke:#000000;" x="92.523735" xlink:href="#me7247b1f02" y="242.439007"/>
     <use style="stroke:#000000;" x="92.695725" xlink:href="#me7247b1f02" y="241.97469"/>
     <use style="stroke:#000000;" x="92.867715" xlink:href="#me7247b1f02" y="242.439007"/>
     <use style="stroke:#000000;" x="93.039704" xlink:href="#me7247b1f02" y="240.58174"/>
     <use style="stroke:#000000;" x="93.211694" xlink:href="#me7247b1f02" y="242.439007"/>
     <use style="stroke:#000000;" x="93.383684" xlink:href="#me7247b1f02" y="240.117423"/>
     <use style="stroke:#000000;" x="93.555674" xlink:href="#me7247b1f02" y="240.58174"/>
     <use style="stroke:#000000;" x="93.727664" xlink:href="#me7247b1f02" y="239.653107"/>
     <use style="stroke:#000000;" x="93.899653" xlink:href="#me7247b1f02" y="241.046057"/>
     <use style="stroke:#000000;" x="94.071643" xlink:href="#me7247b1f02" y="240.117423"/>
     <use style="stroke:#000000;" x="94.243633" xlink:href="#me7247b1f02" y="237.331523"/>
     <use style="stroke:#000000;" x="94.415623" xlink:href="#me7247b1f02" y="236.40289"/>
     <use style="stroke:#000000;" x="94.587613" xlink:href="#me7247b1f02" y="236.867206"/>
     <use style="stroke:#000000;" x="94.759602" xlink:href="#me7247b1f02" y="236.40289"/>
     <use style="stroke:#000000;" x="94.931592" xlink:href="#me7247b1f02" y="234.545623"/>
     <use style="stroke:#000000;" x="95.103582" xlink:href="#me7247b1f02" y="234.545623"/>
     <use style="stroke:#000000;" x="95.275572" xlink:href="#me7247b1f02" y="234.081306"/>
     <use style="stroke:#000000;" x="95.447562" xlink:href="#me7247b1f02" y="233.152673"/>
     <use style="stroke:#000000;" x="95.619551" xlink:href="#me7247b1f02" y="230.831089"/>
     <use style="stroke:#000000;" x="95.791541" xlink:href="#me7247b1f02" y="231.759723"/>
     <use style="stroke:#000000;" x="95.963531" xlink:href="#me7247b1f02" y="232.224039"/>
     <use style="stroke:#000000;" x="96.135521" xlink:href="#me7247b1f02" y="231.759723"/>
     <use style="stroke:#000000;" x="96.307511" xlink:href="#me7247b1f02" y="230.366773"/>
     <use style="stroke:#000000;" x="96.4795" xlink:href="#me7247b1f02" y="230.831089"/>
     <use style="stroke:#000000;" x="96.65149" xlink:href="#me7247b1f02" y="231.295406"/>
     <use style="stroke:#000000;" x="96.82348" xlink:href="#me7247b1f02" y="229.438139"/>
     <use style="stroke:#000000;" x="96.99547" xlink:href="#me7247b1f02" y="229.902456"/>
     <use style="stroke:#000000;" x="97.16746" xlink:href="#me7247b1f02" y="228.973823"/>
     <use style="stroke:#000000;" x="97.339449" xlink:href="#me7247b1f02" y="228.509506"/>
     <use style="stroke:#000000;" x="97.511439" xlink:href="#me7247b1f02" y="228.509506"/>
     <use style="stroke:#000000;" x="97.683429" xlink:href="#me7247b1f02" y="227.116556"/>
     <use style="stroke:#000000;" x="97.855419" xlink:href="#me7247b1f02" y="227.580873"/>
     <use style="stroke:#000000;" x="98.027409" xlink:href="#me7247b1f02" y="226.652239"/>
     <use style="stroke:#000000;" x="98.199398" xlink:href="#me7247b1f02" y="227.116556"/>
     <use style="stroke:#000000;" x="98.371388" xlink:href="#me7247b1f02" y="225.259289"/>
     <use style="stroke:#000000;" x="98.543378" xlink:href="#me7247b1f02" y="226.187923"/>
     <use style="stroke:#000000;" x="98.715368" xlink:href="#me7247b1f02" y="225.259289"/>
     <use style="stroke:#000000;" x="98.887358" xlink:href="#me7247b1f02" y="224.794972"/>
     <use style="stroke:#000000;" x="99.059347" xlink:href="#me7247b1f02" y="223.402022"/>
     <use style="stroke:#000000;" x="99.231337" xlink:href="#me7247b1f02" y="221.544756"/>
     <use style="stroke:#000000;" x="99.403327" xlink:href="#me7247b1f02" y="222.937706"/>
     <use style="stroke:#000000;" x="99.575317" xlink:href="#me7247b1f02" y="222.937706"/>
     <use style="stroke:#000000;" x="99.747307" xlink:href="#me7247b1f02" y="222.009072"/>
     <use style="stroke:#000000;" x="99.919296" xlink:href="#me7247b1f02" y="221.544756"/>
     <use style="stroke:#000000;" x="100.091286" xlink:href="#me7247b1f02" y="220.616122"/>
     <use style="stroke:#000000;" x="100.263276" xlink:href="#me7247b1f02" y="219.223172"/>
     <use style="stroke:#000000;" x="100.435266" xlink:href="#me7247b1f02" y="218.758855"/>
     <use style="stroke:#000000;" x="100.607256" xlink:href="#me7247b1f02" y="218.758855"/>
     <use style="stroke:#000000;" x="100.779245" xlink:href="#me7247b1f02" y="215.972955"/>
     <use style="stroke:#000000;" x="100.951235" xlink:href="#me7247b1f02" y="216.901589"/>
     <use style="stroke:#000000;" x="101.123225" xlink:href="#me7247b1f02" y="217.365905"/>
     <use style="stroke:#000000;" x="101.295215" xlink:href="#me7247b1f02" y="215.508639"/>
     <use style="stroke:#000000;" x="101.467205" xlink:href="#me7247b1f02" y="214.580005"/>
     <use style="stroke:#000000;" x="101.639194" xlink:href="#me7247b1f02" y="214.580005"/>
     <use style="stroke:#000000;" x="101.811184" xlink:href="#me7247b1f02" y="214.115689"/>
     <use style="stroke:#000000;" x="101.983174" xlink:href="#me7247b1f02" y="213.187055"/>
     <use style="stroke:#000000;" x="102.155164" xlink:href="#me7247b1f02" y="210.865472"/>
     <use style="stroke:#000000;" x="102.327154" xlink:href="#me7247b1f02" y="210.865472"/>
     <use style="stroke:#000000;" x="102.499143" xlink:href="#me7247b1f02" y="210.401155"/>
     <use style="stroke:#000000;" x="102.671133" xlink:href="#me7247b1f02" y="209.936838"/>
     <use style="stroke:#000000;" x="102.843123" xlink:href="#me7247b1f02" y="209.472522"/>
     <use style="stroke:#000000;" x="103.015113" xlink:href="#me7247b1f02" y="208.079572"/>
     <use style="stroke:#000000;" x="103.187103" xlink:href="#me7247b1f02" y="207.150938"/>
     <use style="stroke:#000000;" x="103.359092" xlink:href="#me7247b1f02" y="206.222305"/>
     <use style="stroke:#000000;" x="103.531082" xlink:href="#me7247b1f02" y="206.686622"/>
     <use style="stroke:#000000;" x="103.703072" xlink:href="#me7247b1f02" y="205.293671"/>
     <use style="stroke:#000000;" x="103.875062" xlink:href="#me7247b1f02" y="206.222305"/>
     <use style="stroke:#000000;" x="104.047051" xlink:href="#me7247b1f02" y="205.293671"/>
     <use style="stroke:#000000;" x="104.219041" xlink:href="#me7247b1f02" y="205.757988"/>
     <use style="stroke:#000000;" x="104.391031" xlink:href="#me7247b1f02" y="205.757988"/>
     <use style="stroke:#000000;" x="104.563021" xlink:href="#me7247b1f02" y="202.972088"/>
     <use style="stroke:#000000;" x="104.735011" xlink:href="#me7247b1f02" y="200.650505"/>
     <use style="stroke:#000000;" x="104.907" xlink:href="#me7247b1f02" y="202.043455"/>
     <use style="stroke:#000000;" x="105.07899" xlink:href="#me7247b1f02" y="199.721871"/>
     <use style="stroke:#000000;" x="105.25098" xlink:href="#me7247b1f02" y="198.328921"/>
     <use style="stroke:#000000;" x="105.42297" xlink:href="#me7247b1f02" y="197.864604"/>
     <use style="stroke:#000000;" x="105.59496" xlink:href="#me7247b1f02" y="197.864604"/>
     <use style="stroke:#000000;" x="105.766949" xlink:href="#me7247b1f02" y="198.328921"/>
     <use style="stroke:#000000;" x="105.938939" xlink:href="#me7247b1f02" y="196.471654"/>
     <use style="stroke:#000000;" x="106.110929" xlink:href="#me7247b1f02" y="195.078704"/>
     <use style="stroke:#000000;" x="106.282919" xlink:href="#me7247b1f02" y="194.614388"/>
     <use style="stroke:#000000;" x="106.454909" xlink:href="#me7247b1f02" y="195.078704"/>
     <use style="stroke:#000000;" x="106.626898" xlink:href="#me7247b1f02" y="194.150071"/>
     <use style="stroke:#000000;" x="106.798888" xlink:href="#me7247b1f02" y="193.685754"/>
     <use style="stroke:#000000;" x="106.970878" xlink:href="#me7247b1f02" y="191.828487"/>
     <use style="stroke:#000000;" x="107.142868" xlink:href="#me7247b1f02" y="193.685754"/>
     <use style="stroke:#000000;" x="107.314858" xlink:href="#me7247b1f02" y="191.828487"/>
     <use style="stroke:#000000;" x="107.486847" xlink:href="#me7247b1f02" y="191.364171"/>
     <use style="stroke:#000000;" x="107.658837" xlink:href="#me7247b1f02" y="189.506904"/>
     <use style="stroke:#000000;" x="107.830827" xlink:href="#me7247b1f02" y="189.042587"/>
     <use style="stroke:#000000;" x="108.002817" xlink:href="#me7247b1f02" y="188.578271"/>
     <use style="stroke:#000000;" x="108.174807" xlink:href="#me7247b1f02" y="188.578271"/>
     <use style="stroke:#000000;" x="108.346796" xlink:href="#me7247b1f02" y="189.506904"/>
     <use style="stroke:#000000;" x="108.518786" xlink:href="#me7247b1f02" y="186.721004"/>
     <use style="stroke:#000000;" x="108.690776" xlink:href="#me7247b1f02" y="188.113954"/>
     <use style="stroke:#000000;" x="108.862766" xlink:href="#me7247b1f02" y="183.935104"/>
     <use style="stroke:#000000;" x="109.034756" xlink:href="#me7247b1f02" y="185.328054"/>
     <use style="stroke:#000000;" x="109.206745" xlink:href="#me7247b1f02" y="184.39942"/>
     <use style="stroke:#000000;" x="109.378735" xlink:href="#me7247b1f02" y="183.00647"/>
     <use style="stroke:#000000;" x="109.550725" xlink:href="#me7247b1f02" y="183.00647"/>
     <use style="stroke:#000000;" x="109.722715" xlink:href="#me7247b1f02" y="182.077837"/>
     <use style="stroke:#000000;" x="109.894705" xlink:href="#me7247b1f02" y="182.077837"/>
     <use style="stroke:#000000;" x="110.066694" xlink:href="#me7247b1f02" y="179.756254"/>
     <use style="stroke:#000000;" x="110.238684" xlink:href="#me7247b1f02" y="178.82762"/>
     <use style="stroke:#000000;" x="110.410674" xlink:href="#me7247b1f02" y="179.291937"/>
     <use style="stroke:#000000;" x="110.582664" xlink:href="#me7247b1f02" y="179.291937"/>
     <use style="stroke:#000000;" x="110.754654" xlink:href="#me7247b1f02" y="175.113087"/>
     <use style="stroke:#000000;" x="110.926643" xlink:href="#me7247b1f02" y="175.113087"/>
     <use style="stroke:#000000;" x="111.098633" xlink:href="#me7247b1f02" y="176.970353"/>
     <use style="stroke:#000000;" x="111.270623" xlink:href="#me7247b1f02" y="175.577403"/>
     <use style="stroke:#000000;" x="111.442613" xlink:href="#me7247b1f02" y="175.113087"/>
     <use style="stroke:#000000;" x="111.614603" xlink:href="#me7247b1f02" y="175.113087"/>
     <use style="stroke:#000000;" x="111.786592" xlink:href="#me7247b1f02" y="172.791503"/>
     <use style="stroke:#000000;" x="111.958582" xlink:href="#me7247b1f02" y="173.25582"/>
     <use style="stroke:#000000;" x="112.130572" xlink:href="#me7247b1f02" y="170.934236"/>
     <use style="stroke:#000000;" x="112.302562" xlink:href="#me7247b1f02" y="169.541286"/>
     <use style="stroke:#000000;" x="112.474552" xlink:href="#me7247b1f02" y="169.541286"/>
     <use style="stroke:#000000;" x="112.646541" xlink:href="#me7247b1f02" y="167.68402"/>
     <use style="stroke:#000000;" x="112.818531" xlink:href="#me7247b1f02" y="167.219703"/>
     <use style="stroke:#000000;" x="112.990521" xlink:href="#me7247b1f02" y="166.755386"/>
     <use style="stroke:#000000;" x="113.162511" xlink:href="#me7247b1f02" y="167.219703"/>
     <use style="stroke:#000000;" x="113.334501" xlink:href="#me7247b1f02" y="166.29107"/>
     <use style="stroke:#000000;" x="113.50649" xlink:href="#me7247b1f02" y="165.362436"/>
     <use style="stroke:#000000;" x="113.67848" xlink:href="#me7247b1f02" y="166.29107"/>
     <use style="stroke:#000000;" x="113.85047" xlink:href="#me7247b1f02" y="161.183586"/>
     <use style="stroke:#000000;" x="114.02246" xlink:href="#me7247b1f02" y="161.183586"/>
     <use style="stroke:#000000;" x="114.19445" xlink:href="#me7247b1f02" y="161.183586"/>
     <use style="stroke:#000000;" x="114.366439" xlink:href="#me7247b1f02" y="158.862003"/>
     <use style="stroke:#000000;" x="114.538429" xlink:href="#me7247b1f02" y="158.862003"/>
     <use style="stroke:#000000;" x="114.710419" xlink:href="#me7247b1f02" y="157.933369"/>
     <use style="stroke:#000000;" x="114.882409" xlink:href="#me7247b1f02" y="156.076102"/>
     <use style="stroke:#000000;" x="115.054398" xlink:href="#me7247b1f02" y="153.290202"/>
     <use style="stroke:#000000;" x="115.226388" xlink:href="#me7247b1f02" y="156.540419"/>
     <use style="stroke:#000000;" x="115.398378" xlink:href="#me7247b1f02" y="155.147469"/>
     <use style="stroke:#000000;" x="115.570368" xlink:href="#me7247b1f02" y="155.147469"/>
     <use style="stroke:#000000;" x="115.742358" xlink:href="#me7247b1f02" y="153.290202"/>
     <use style="stroke:#000000;" x="115.914347" xlink:href="#me7247b1f02" y="153.290202"/>
     <use style="stroke:#000000;" x="116.086337" xlink:href="#me7247b1f02" y="152.361569"/>
     <use style="stroke:#000000;" x="116.258327" xlink:href="#me7247b1f02" y="152.825886"/>
     <use style="stroke:#000000;" x="116.430317" xlink:href="#me7247b1f02" y="151.432935"/>
     <use style="stroke:#000000;" x="116.602307" xlink:href="#me7247b1f02" y="150.968619"/>
     <use style="stroke:#000000;" x="116.774296" xlink:href="#me7247b1f02" y="150.968619"/>
     <use style="stroke:#000000;" x="116.946286" xlink:href="#me7247b1f02" y="148.647035"/>
     <use style="stroke:#000000;" x="117.118276" xlink:href="#me7247b1f02" y="150.504302"/>
     <use style="stroke:#000000;" x="117.290266" xlink:href="#me7247b1f02" y="148.182719"/>
     <use style="stroke:#000000;" x="117.462256" xlink:href="#me7247b1f02" y="148.182719"/>
     <use style="stroke:#000000;" x="117.634245" xlink:href="#me7247b1f02" y="147.718402"/>
     <use style="stroke:#000000;" x="117.806235" xlink:href="#me7247b1f02" y="146.789769"/>
     <use style="stroke:#000000;" x="117.978225" xlink:href="#me7247b1f02" y="147.254085"/>
     <use style="stroke:#000000;" x="118.150215" xlink:href="#me7247b1f02" y="146.789769"/>
     <use style="stroke:#000000;" x="118.322205" xlink:href="#me7247b1f02" y="143.539552"/>
     <use style="stroke:#000000;" x="118.494194" xlink:href="#me7247b1f02" y="145.396819"/>
     <use style="stroke:#000000;" x="118.666184" xlink:href="#me7247b1f02" y="143.075235"/>
     <use style="stroke:#000000;" x="118.838174" xlink:href="#me7247b1f02" y="142.610918"/>
     <use style="stroke:#000000;" x="119.010164" xlink:href="#me7247b1f02" y="141.682285"/>
     <use style="stroke:#000000;" x="119.182154" xlink:href="#me7247b1f02" y="142.610918"/>
     <use style="stroke:#000000;" x="119.354143" xlink:href="#me7247b1f02" y="140.289335"/>
     <use style="stroke:#000000;" x="119.526133" xlink:href="#me7247b1f02" y="137.503435"/>
     <use style="stroke:#000000;" x="119.698123" xlink:href="#me7247b1f02" y="139.360702"/>
     <use style="stroke:#000000;" x="119.870113" xlink:href="#me7247b1f02" y="137.503435"/>
     <use style="stroke:#000000;" x="120.042103" xlink:href="#me7247b1f02" y="136.574801"/>
     <use style="stroke:#000000;" x="120.214092" xlink:href="#me7247b1f02" y="136.110485"/>
     <use style="stroke:#000000;" x="120.386082" xlink:href="#me7247b1f02" y="137.039118"/>
     <use style="stroke:#000000;" x="120.558072" xlink:href="#me7247b1f02" y="134.253218"/>
     <use style="stroke:#000000;" x="120.730062" xlink:href="#me7247b1f02" y="135.646168"/>
     <use style="stroke:#000000;" x="120.902052" xlink:href="#me7247b1f02" y="134.717535"/>
     <use style="stroke:#000000;" x="121.074041" xlink:href="#me7247b1f02" y="132.395951"/>
     <use style="stroke:#000000;" x="121.246031" xlink:href="#me7247b1f02" y="132.395951"/>
     <use style="stroke:#000000;" x="121.418021" xlink:href="#me7247b1f02" y="132.395951"/>
     <use style="stroke:#000000;" x="121.590011" xlink:href="#me7247b1f02" y="131.931635"/>
     <use style="stroke:#000000;" x="121.762001" xlink:href="#me7247b1f02" y="130.538684"/>
     <use style="stroke:#000000;" x="121.93399" xlink:href="#me7247b1f02" y="128.217101"/>
     <use style="stroke:#000000;" x="122.10598" xlink:href="#me7247b1f02" y="129.610051"/>
     <use style="stroke:#000000;" x="122.27797" xlink:href="#me7247b1f02" y="127.752784"/>
     <use style="stroke:#000000;" x="122.44996" xlink:href="#me7247b1f02" y="127.752784"/>
     <use style="stroke:#000000;" x="122.62195" xlink:href="#me7247b1f02" y="124.966884"/>
     <use style="stroke:#000000;" x="122.793939" xlink:href="#me7247b1f02" y="126.359834"/>
     <use style="stroke:#000000;" x="122.965929" xlink:href="#me7247b1f02" y="126.359834"/>
     <use style="stroke:#000000;" x="123.137919" xlink:href="#me7247b1f02" y="123.573934"/>
     <use style="stroke:#000000;" x="123.309909" xlink:href="#me7247b1f02" y="124.966884"/>
     <use style="stroke:#000000;" x="123.481899" xlink:href="#me7247b1f02" y="123.109617"/>
     <use style="stroke:#000000;" x="123.653888" xlink:href="#me7247b1f02" y="123.573934"/>
     <use style="stroke:#000000;" x="123.825878" xlink:href="#me7247b1f02" y="121.716667"/>
     <use style="stroke:#000000;" x="123.997868" xlink:href="#me7247b1f02" y="118.466451"/>
     <use style="stroke:#000000;" x="124.169858" xlink:href="#me7247b1f02" y="121.252351"/>
     <use style="stroke:#000000;" x="124.341848" xlink:href="#me7247b1f02" y="118.930767"/>
     <use style="stroke:#000000;" x="124.513837" xlink:href="#me7247b1f02" y="118.930767"/>
     <use style="stroke:#000000;" x="124.685827" xlink:href="#me7247b1f02" y="115.216234"/>
     <use style="stroke:#000000;" x="124.857817" xlink:href="#me7247b1f02" y="116.609184"/>
     <use style="stroke:#000000;" x="125.029807" xlink:href="#me7247b1f02" y="115.68055"/>
     <use style="stroke:#000000;" x="125.201796" xlink:href="#me7247b1f02" y="114.751917"/>
     <use style="stroke:#000000;" x="125.373786" xlink:href="#me7247b1f02" y="115.216234"/>
     <use style="stroke:#000000;" x="125.545776" xlink:href="#me7247b1f02" y="116.144867"/>
     <use style="stroke:#000000;" x="125.717766" xlink:href="#me7247b1f02" y="113.358967"/>
     <use style="stroke:#000000;" x="125.889756" xlink:href="#me7247b1f02" y="112.430334"/>
     <use style="stroke:#000000;" x="126.061745" xlink:href="#me7247b1f02" y="111.966017"/>
     <use style="stroke:#000000;" x="126.233735" xlink:href="#me7247b1f02" y="111.966017"/>
     <use style="stroke:#000000;" x="126.405725" xlink:href="#me7247b1f02" y="109.644433"/>
     <use style="stroke:#000000;" x="126.577715" xlink:href="#me7247b1f02" y="109.180117"/>
     <use style="stroke:#000000;" x="126.749705" xlink:href="#me7247b1f02" y="106.394217"/>
     <use style="stroke:#000000;" x="126.921694" xlink:href="#me7247b1f02" y="109.180117"/>
     <use style="stroke:#000000;" x="127.093684" xlink:href="#me7247b1f02" y="105.9299"/>
     <use style="stroke:#000000;" x="127.265674" xlink:href="#me7247b1f02" y="105.9299"/>
     <use style="stroke:#000000;" x="127.437664" xlink:href="#me7247b1f02" y="105.001267"/>
     <use style="stroke:#000000;" x="127.609654" xlink:href="#me7247b1f02" y="102.215366"/>
     <use style="stroke:#000000;" x="127.781643" xlink:href="#me7247b1f02" y="105.001267"/>
     <use style="stroke:#000000;" x="127.953633" xlink:href="#me7247b1f02" y="102.679683"/>
     <use style="stroke:#000000;" x="128.125623" xlink:href="#me7247b1f02" y="103.608316"/>
     <use style="stroke:#000000;" x="128.297613" xlink:href="#me7247b1f02" y="103.144"/>
     <use style="stroke:#000000;" x="128.469603" xlink:href="#me7247b1f02" y="102.215366"/>
     <use style="stroke:#000000;" x="128.641592" xlink:href="#me7247b1f02" y="100.3581"/>
     <use style="stroke:#000000;" x="128.813582" xlink:href="#me7247b1f02" y="98.96515"/>
     <use style="stroke:#000000;" x="128.985572" xlink:href="#me7247b1f02" y="96.643566"/>
     <use style="stroke:#000000;" x="129.157562" xlink:href="#me7247b1f02" y="98.036516"/>
     <use style="stroke:#000000;" x="129.329552" xlink:href="#me7247b1f02" y="95.250616"/>
     <use style="stroke:#000000;" x="129.501541" xlink:href="#me7247b1f02" y="94.786299"/>
     <use style="stroke:#000000;" x="129.673531" xlink:href="#me7247b1f02" y="94.321983"/>
     <use style="stroke:#000000;" x="129.845521" xlink:href="#me7247b1f02" y="93.393349"/>
     <use style="stroke:#000000;" x="130.017511" xlink:href="#me7247b1f02" y="92.929033"/>
     <use style="stroke:#000000;" x="130.189501" xlink:href="#me7247b1f02" y="92.000399"/>
     <use style="stroke:#000000;" x="130.36149" xlink:href="#me7247b1f02" y="92.000399"/>
     <use style="stroke:#000000;" x="130.53348" xlink:href="#me7247b1f02" y="90.607449"/>
     <use style="stroke:#000000;" x="130.70547" xlink:href="#me7247b1f02" y="90.607449"/>
     <use style="stroke:#000000;" x="130.87746" xlink:href="#me7247b1f02" y="89.678816"/>
     <use style="stroke:#000000;" x="131.04945" xlink:href="#me7247b1f02" y="89.214499"/>
     <use style="stroke:#000000;" x="131.221439" xlink:href="#me7247b1f02" y="88.285866"/>
     <use style="stroke:#000000;" x="131.393429" xlink:href="#me7247b1f02" y="89.678816"/>
     <use style="stroke:#000000;" x="131.565419" xlink:href="#me7247b1f02" y="86.428599"/>
     <use style="stroke:#000000;" x="131.737409" xlink:href="#me7247b1f02" y="85.964282"/>
     <use style="stroke:#000000;" x="131.909399" xlink:href="#me7247b1f02" y="87.821549"/>
     <use style="stroke:#000000;" x="132.081388" xlink:href="#me7247b1f02" y="85.035649"/>
     <use style="stroke:#000000;" x="132.253378" xlink:href="#me7247b1f02" y="86.428599"/>
     <use style="stroke:#000000;" x="132.425368" xlink:href="#me7247b1f02" y="83.178382"/>
     <use style="stroke:#000000;" x="132.597358" xlink:href="#me7247b1f02" y="84.571332"/>
     <use style="stroke:#000000;" x="132.769348" xlink:href="#me7247b1f02" y="84.107016"/>
     <use style="stroke:#000000;" x="132.941337" xlink:href="#me7247b1f02" y="82.714065"/>
     <use style="stroke:#000000;" x="133.113327" xlink:href="#me7247b1f02" y="82.714065"/>
     <use style="stroke:#000000;" x="133.285317" xlink:href="#me7247b1f02" y="82.714065"/>
     <use style="stroke:#000000;" x="133.457307" xlink:href="#me7247b1f02" y="82.714065"/>
     <use style="stroke:#000000;" x="133.629297" xlink:href="#me7247b1f02" y="78.999532"/>
     <use style="stroke:#000000;" x="133.801286" xlink:href="#me7247b1f02" y="82.249749"/>
     <use style="stroke:#000000;" x="133.973276" xlink:href="#me7247b1f02" y="78.999532"/>
     <use style="stroke:#000000;" x="134.145266" xlink:href="#me7247b1f02" y="79.463849"/>
     <use style="stroke:#000000;" x="134.317256" xlink:href="#me7247b1f02" y="77.606582"/>
     <use style="stroke:#000000;" x="134.489246" xlink:href="#me7247b1f02" y="76.213632"/>
     <use style="stroke:#000000;" x="134.661235" xlink:href="#me7247b1f02" y="76.677948"/>
     <use style="stroke:#000000;" x="134.833225" xlink:href="#me7247b1f02" y="78.070899"/>
     <use style="stroke:#000000;" x="135.005215" xlink:href="#me7247b1f02" y="75.749315"/>
     <use style="stroke:#000000;" x="135.177205" xlink:href="#me7247b1f02" y="76.677948"/>
     <use style="stroke:#000000;" x="135.349195" xlink:href="#me7247b1f02" y="76.677948"/>
     <use style="stroke:#000000;" x="135.521184" xlink:href="#me7247b1f02" y="74.356365"/>
     <use style="stroke:#000000;" x="135.693174" xlink:href="#me7247b1f02" y="75.749315"/>
     <use style="stroke:#000000;" x="135.865164" xlink:href="#me7247b1f02" y="75.284998"/>
     <use style="stroke:#000000;" x="136.037154" xlink:href="#me7247b1f02" y="74.356365"/>
     <use style="stroke:#000000;" x="136.209143" xlink:href="#me7247b1f02" y="72.034782"/>
     <use style="stroke:#000000;" x="136.381133" xlink:href="#me7247b1f02" y="73.427732"/>
     <use style="stroke:#000000;" x="136.553123" xlink:href="#me7247b1f02" y="72.034782"/>
     <use style="stroke:#000000;" x="136.725113" xlink:href="#me7247b1f02" y="71.570465"/>
     <use style="stroke:#000000;" x="136.897103" xlink:href="#me7247b1f02" y="71.570465"/>
     <use style="stroke:#000000;" x="137.069092" xlink:href="#me7247b1f02" y="69.713198"/>
     <use style="stroke:#000000;" x="137.241082" xlink:href="#me7247b1f02" y="71.570465"/>
     <use style="stroke:#000000;" x="137.413072" xlink:href="#me7247b1f02" y="69.713198"/>
     <use style="stroke:#000000;" x="137.585062" xlink:href="#me7247b1f02" y="71.106148"/>
     <use style="stroke:#000000;" x="137.757052" xlink:href="#me7247b1f02" y="71.570465"/>
     <use style="stroke:#000000;" x="137.929041" xlink:href="#me7247b1f02" y="69.248881"/>
     <use style="stroke:#000000;" x="138.101031" xlink:href="#me7247b1f02" y="70.641832"/>
     <use style="stroke:#000000;" x="138.273021" xlink:href="#me7247b1f02" y="70.177515"/>
     <use style="stroke:#000000;" x="138.445011" xlink:href="#me7247b1f02" y="67.391615"/>
     <use style="stroke:#000000;" x="138.617001" xlink:href="#me7247b1f02" y="66.462981"/>
     <use style="stroke:#000000;" x="138.78899" xlink:href="#me7247b1f02" y="66.927298"/>
     <use style="stroke:#000000;" x="138.96098" xlink:href="#me7247b1f02" y="65.998665"/>
     <use style="stroke:#000000;" x="139.13297" xlink:href="#me7247b1f02" y="65.070031"/>
     <use style="stroke:#000000;" x="139.30496" xlink:href="#me7247b1f02" y="64.605715"/>
     <use style="stroke:#000000;" x="139.47695" xlink:href="#me7247b1f02" y="65.070031"/>
     <use style="stroke:#000000;" x="139.648939" xlink:href="#me7247b1f02" y="64.141398"/>
     <use style="stroke:#000000;" x="139.820929" xlink:href="#me7247b1f02" y="65.534348"/>
     <use style="stroke:#000000;" x="139.992919" xlink:href="#me7247b1f02" y="62.284131"/>
     <use style="stroke:#000000;" x="140.164909" xlink:href="#me7247b1f02" y="63.677081"/>
     <use style="stroke:#000000;" x="140.336899" xlink:href="#me7247b1f02" y="62.284131"/>
     <use style="stroke:#000000;" x="140.508888" xlink:href="#me7247b1f02" y="63.212764"/>
     <use style="stroke:#000000;" x="140.680878" xlink:href="#me7247b1f02" y="61.355498"/>
     <use style="stroke:#000000;" x="140.852868" xlink:href="#me7247b1f02" y="60.426864"/>
     <use style="stroke:#000000;" x="141.024858" xlink:href="#me7247b1f02" y="58.569598"/>
     <use style="stroke:#000000;" x="141.196848" xlink:href="#me7247b1f02" y="59.033914"/>
     <use style="stroke:#000000;" x="141.368837" xlink:href="#me7247b1f02" y="58.569598"/>
     <use style="stroke:#000000;" x="141.540827" xlink:href="#me7247b1f02" y="60.426864"/>
     <use style="stroke:#000000;" x="141.712817" xlink:href="#me7247b1f02" y="59.498231"/>
     <use style="stroke:#000000;" x="141.884807" xlink:href="#me7247b1f02" y="60.426864"/>
     <use style="stroke:#000000;" x="142.056797" xlink:href="#me7247b1f02" y="59.962548"/>
     <use style="stroke:#000000;" x="142.228786" xlink:href="#me7247b1f02" y="56.712331"/>
     <use style="stroke:#000000;" x="142.400776" xlink:href="#me7247b1f02" y="59.033914"/>
     <use style="stroke:#000000;" x="142.572766" xlink:href="#me7247b1f02" y="59.033914"/>
     <use style="stroke:#000000;" x="142.744756" xlink:href="#me7247b1f02" y="56.712331"/>
     <use style="stroke:#000000;" x="142.916746" xlink:href="#me7247b1f02" y="55.783697"/>
     <use style="stroke:#000000;" x="143.088735" xlink:href="#me7247b1f02" y="56.248014"/>
     <use style="stroke:#000000;" x="143.260725" xlink:href="#me7247b1f02" y="53.926431"/>
     <use style="stroke:#000000;" x="143.432715" xlink:href="#me7247b1f02" y="54.390747"/>
     <use style="stroke:#000000;" x="143.604705" xlink:href="#me7247b1f02" y="52.533481"/>
     <use style="stroke:#000000;" x="143.776695" xlink:href="#me7247b1f02" y="52.069164"/>
     <use style="stroke:#000000;" x="143.948684" xlink:href="#me7247b1f02" y="53.462114"/>
     <use style="stroke:#000000;" x="144.120674" xlink:href="#me7247b1f02" y="52.533481"/>
     <use style="stroke:#000000;" x="144.292664" xlink:href="#me7247b1f02" y="52.533481"/>
     <use style="stroke:#000000;" x="144.464654" xlink:href="#me7247b1f02" y="53.462114"/>
     <use style="stroke:#000000;" x="144.636644" xlink:href="#me7247b1f02" y="52.533481"/>
     <use style="stroke:#000000;" x="144.808633" xlink:href="#me7247b1f02" y="52.069164"/>
     <use style="stroke:#000000;" x="144.980623" xlink:href="#me7247b1f02" y="53.462114"/>
     <use style="stroke:#000000;" x="145.152613" xlink:href="#me7247b1f02" y="52.069164"/>
     <use style="stroke:#000000;" x="145.324603" xlink:href="#me7247b1f02" y="50.211897"/>
     <use style="stroke:#000000;" x="145.496593" xlink:href="#me7247b1f02" y="52.069164"/>
     <use style="stroke:#000000;" x="145.668582" xlink:href="#me7247b1f02" y="50.211897"/>
     <use style="stroke:#000000;" x="145.840572" xlink:href="#me7247b1f02" y="49.283264"/>
     <use style="stroke:#000000;" x="146.012562" xlink:href="#me7247b1f02" y="49.74758"/>
     <use style="stroke:#000000;" x="146.184552" xlink:href="#me7247b1f02" y="49.74758"/>
     <use style="stroke:#000000;" x="146.356542" xlink:href="#me7247b1f02" y="48.818947"/>
     <use style="stroke:#000000;" x="146.528531" xlink:href="#me7247b1f02" y="47.890314"/>
     <use style="stroke:#000000;" x="146.700521" xlink:href="#me7247b1f02" y="49.74758"/>
     <use style="stroke:#000000;" x="146.872511" xlink:href="#me7247b1f02" y="48.35463"/>
     <use style="stroke:#000000;" x="147.044501" xlink:href="#me7247b1f02" y="48.818947"/>
     <use style="stroke:#000000;" x="147.21649" xlink:href="#me7247b1f02" y="48.35463"/>
     <use style="stroke:#000000;" x="147.38848" xlink:href="#me7247b1f02" y="48.35463"/>
     <use style="stroke:#000000;" x="147.56047" xlink:href="#me7247b1f02" y="46.497364"/>
     <use style="stroke:#000000;" x="147.73246" xlink:href="#me7247b1f02" y="48.35463"/>
     <use style="stroke:#000000;" x="147.90445" xlink:href="#me7247b1f02" y="44.640097"/>
     <use style="stroke:#000000;" x="148.076439" xlink:href="#me7247b1f02" y="44.640097"/>
     <use style="stroke:#000000;" x="148.248429" xlink:href="#me7247b1f02" y="45.56873"/>
     <use style="stroke:#000000;" x="148.420419" xlink:href="#me7247b1f02" y="44.640097"/>
     <use style="stroke:#000000;" x="148.592409" xlink:href="#me7247b1f02" y="44.640097"/>
     <use style="stroke:#000000;" x="148.764399" xlink:href="#me7247b1f02" y="46.033047"/>
     <use style="stroke:#000000;" x="148.936388" xlink:href="#me7247b1f02" y="45.104414"/>
     <use style="stroke:#000000;" x="149.108378" xlink:href="#me7247b1f02" y="44.17578"/>
     <use style="stroke:#000000;" x="149.280368" xlink:href="#me7247b1f02" y="44.640097"/>
     <use style="stroke:#000000;" x="149.452358" xlink:href="#me7247b1f02" y="42.318513"/>
     <use style="stroke:#000000;" x="149.624348" xlink:href="#me7247b1f02" y="43.247147"/>
     <use style="stroke:#000000;" x="149.796337" xlink:href="#me7247b1f02" y="44.17578"/>
     <use style="stroke:#000000;" x="149.968327" xlink:href="#me7247b1f02" y="43.711464"/>
    </g>
   </g>
   <g id="line2d_17">
    <path clip-path="url(#pf29d51271d)" d="M 57.308824 275.562457 
L 58.082778 274.695198 
L 59.243709 273.869113 
L 60.533633 273.241393 
L 67.757204 270.181058 
L 70.509041 268.529717 
L 72.744908 266.945916 
L 75.840725 264.1887 
L 77.388633 262.531485 
L 78.764551 260.895981 
L 80.828429 258.108649 
L 82.376337 255.735975 
L 84.440215 252.146929 
L 86.160113 248.784155 
L 88.22399 244.284046 
L 89.943888 240.153979 
L 92.007766 234.76726 
L 94.759602 226.962429 
L 99.231337 212.867771 
L 101.123225 206.483466 
L 104.219041 195.580826 
L 106.970878 185.482065 
L 112.130572 165.830526 
L 127.781643 105.563141 
L 131.04945 94.204649 
L 133.973276 84.824464 
L 136.553123 77.257931 
L 139.13297 70.420808 
L 141.712817 64.361172 
L 143.432715 60.756184 
L 145.668582 56.536972 
L 147.90445 52.869406 
L 149.968327 49.984288 
L 149.968327 49.984288 
" style="fill:none;stroke:#0000ff;stroke-dasharray:5.55,2.4;stroke-dashoffset:0;stroke-width:1.5;"/>
   </g>
   <g id="line2d_18">
    <path clip-path="url(#pf29d51271d)" d="M 57.308824 275.959654 
L 58.254768 275.447248 
L 59.243709 275.124202 
L 62.296528 274.487236 
L 66.381286 273.556915 
L 69.821082 272.488947 
L 72.056949 271.60971 
L 74.808786 270.269463 
L 76.872664 269.043808 
L 78.592562 267.84347 
L 80.656439 266.158605 
L 82.720317 264.153994 
L 84.612204 261.994411 
L 86.676082 259.233538 
L 89.427919 254.824388 
L 90.803837 252.253372 
L 92.523735 248.774461 
L 94.071643 245.320681 
L 96.135521 240.25915 
L 99.059347 232.350306 
L 102.843123 221.177828 
L 105.938939 211.56921 
L 110.926643 195.490527 
L 116.774296 175.856165 
L 130.53348 129.009412 
L 134.145266 117.70114 
L 137.241082 108.682426 
L 140.164909 100.83969 
L 142.916746 94.118594 
L 145.152613 89.155579 
L 147.38848 84.653099 
L 149.796337 80.245066 
L 149.968327 79.969143 
L 149.968327 79.969143 
" style="fill:none;stroke:#0000ff;stroke-dasharray:5.55,2.4;stroke-dashoffset:0;stroke-width:1.5;"/>
   </g>
   <g id="line2d_19"/>
   <g id="line2d_20"/>
   <g id="line2d_21"/>
   <g id="line2d_22"/>
   <g id="line2d_23"/>
   <g id="line2d_24"/>
   <g id="patch_3">
    <path d="M 40.603125 288.430125 
L 40.603125 22.318125 
" style="fill:none;stroke:#000000;stroke-linecap:square;stroke-linejoin:miter;stroke-width:0.8;"/>
   </g>
   <g id="patch_4">
    <path d="M 397.723125 288.430125 
L 397.723125 22.318125 
" style="fill:none;stroke:#000000;stroke-linecap:square;stroke-linejoin:miter;stroke-width:0.8;"/>
   </g>
   <g id="patch_5">
    <path d="M 40.603125 288.430125 
L 397.723125 288.430125 
" style="fill:none;stroke:#000000;stroke-linecap:square;stroke-linejoin:miter;stroke-width:0.8;"/>
   </g>
   <g id="patch_6">
    <path d="M 40.603125 22.318125 
L 397.723125 22.318125 
" style="fill:none;stroke:#000000;stroke-linecap:square;stroke-linejoin:miter;stroke-width:0.8;"/>
   </g>
   <g id="text_16">
    <!-- Experiment_14 -->
    <g transform="translate(173.860313 16.318125)scale(0.12 -0.12)">
     <defs>
      <path d="M 9.8125 72.90625 
L 55.90625 72.90625 
L 55.90625 64.59375 
L 19.671875 64.59375 
L 19.671875 43.015625 
L 54.390625 43.015625 
L 54.390625 34.71875 
L 19.671875 34.71875 
L 19.671875 8.296875 
L 56.78125 8.296875 
L 56.78125 0 
L 9.8125 0 
z
" id="DejaVuSans-69"/>
      <path d="M 54.890625 54.6875 
L 35.109375 28.078125 
L 55.90625 0 
L 45.3125 0 
L 29.390625 21.484375 
L 13.484375 0 
L 2.875 0 
L 24.125 28.609375 
L 4.6875 54.6875 
L 15.28125 54.6875 
L 29.78125 35.203125 
L 44.28125 54.6875 
z
" id="DejaVuSans-120"/>
      <path d="M 41.109375 46.296875 
Q 39.59375 47.171875 37.8125 47.578125 
Q 36.03125 48 33.890625 48 
Q 26.265625 48 22.1875 43.046875 
Q 18.109375 38.09375 18.109375 28.8125 
L 18.109375 0 
L 9.078125 0 
L 9.078125 54.6875 
L 18.109375 54.6875 
L 18.109375 46.1875 
Q 20.953125 51.171875 25.484375 53.578125 
Q 30.03125 56 36.53125 56 
Q 37.453125 56 38.578125 55.875 
Q 39.703125 55.765625 41.0625 55.515625 
z
" id="DejaVuSans-114"/>
      <path d="M 54.890625 33.015625 
L 54.890625 0 
L 45.90625 0 
L 45.90625 32.71875 
Q 45.90625 40.484375 42.875 44.328125 
Q 39.84375 48.1875 33.796875 48.1875 
Q 26.515625 48.1875 22.3125 43.546875 
Q 18.109375 38.921875 18.109375 30.90625 
L 18.109375 0 
L 9.078125 0 
L 9.078125 54.6875 
L 18.109375 54.6875 
L 18.109375 46.1875 
Q 21.34375 51.125 25.703125 53.5625 
Q 30.078125 56 35.796875 56 
Q 45.21875 56 50.046875 50.171875 
Q 54.890625 44.34375 54.890625 33.015625 
z
" id="DejaVuSans-110"/>
      <path d="M 18.3125 70.21875 
L 18.3125 54.6875 
L 36.8125 54.6875 
L 36.8125 47.703125 
L 18.3125 47.703125 
L 18.3125 18.015625 
Q 18.3125 11.328125 20.140625 9.421875 
Q 21.96875 7.515625 27.59375 7.515625 
L 36.8125 7.515625 
L 36.8125 0 
L 27.59375 0 
Q 17.1875 0 13.234375 3.875 
Q 9.28125 7.765625 9.28125 18.015625 
L 9.28125 47.703125 
L 2.6875 47.703125 
L 2.6875 54.6875 
L 9.28125 54.6875 
L 9.28125 70.21875 
z
" id="DejaVuSans-116"/>
      <path d="M 50.984375 -16.609375 
L 50.984375 -23.578125 
L -0.984375 -23.578125 
L -0.984375 -16.609375 
z
" id="DejaVuSans-95"/>
     </defs>
     <use xlink:href="#DejaVuSans-69"/>
     <use x="63.183594" xlink:href="#DejaVuSans-120"/>
     <use x="122.363281" xlink:href="#DejaVuSans-112"/>
     <use x="185.839844" xlink:href="#DejaVuSans-101"/>
     <use x="247.363281" xlink:href="#DejaVuSans-114"/>
     <use x="288.476562" xlink:href="#DejaVuSans-105"/>
     <use x="316.259766" xlink:href="#DejaVuSans-109"/>
     <use x="413.671875" xlink:href="#DejaVuSans-101"/>
     <use x="475.195312" xlink:href="#DejaVuSans-110"/>
     <use x="538.574219" xlink:href="#DejaVuSans-116"/>
     <use x="577.783203" xlink:href="#DejaVuSans-95"/>
     <use x="627.783203" xlink:href="#DejaVuSans-49"/>
     <use x="691.40625" xlink:href="#DejaVuSans-52"/>
    </g>
   </g>
   <g id="legend_1">
    <g id="patch_7">
     <path d="M 145.580937 283.430125 
L 390.723125 283.430125 
Q 392.723125 283.430125 392.723125 281.430125 
L 392.723125 209.017625 
Q 392.723125 207.017625 390.723125 207.017625 
L 145.580937 207.017625 
Q 143.580937 207.017625 143.580937 209.017625 
L 143.580937 281.430125 
Q 143.580937 283.430125 145.580937 283.430125 
z
" style="fill:#ffffff;opacity:0.8;stroke:#cccccc;stroke-linejoin:miter;"/>
    </g>
    <g id="line2d_25">
     <path d="M 147.580937 215.116062 
L 167.580937 215.116062 
" style="fill:none;stroke:#0000ff;stroke-linecap:square;stroke-width:1.5;"/>
    </g>
    <g id="line2d_26"/>
    <g id="text_17">
     <!-- MSI -->
     <g transform="translate(175.580937 218.616062)scale(0.1 -0.1)">
      <defs>
       <path d="M 9.8125 72.90625 
L 24.515625 72.90625 
L 43.109375 23.296875 
L 61.8125 72.90625 
L 76.515625 72.90625 
L 76.515625 0 
L 66.890625 0 
L 66.890625 64.015625 
L 48.09375 14.015625 
L 38.1875 14.015625 
L 19.390625 64.015625 
L 19.390625 0 
L 9.8125 0 
z
" id="DejaVuSans-77"/>
       <path d="M 53.515625 70.515625 
L 53.515625 60.890625 
Q 47.90625 63.578125 42.921875 64.890625 
Q 37.9375 66.21875 33.296875 66.21875 
Q 25.25 66.21875 20.875 63.09375 
Q 16.5 59.96875 16.5 54.203125 
Q 16.5 49.359375 19.40625 46.890625 
Q 22.3125 44.4375 30.421875 42.921875 
L 36.375 41.703125 
Q 47.40625 39.59375 52.65625 34.296875 
Q 57.90625 29 57.90625 20.125 
Q 57.90625 9.515625 50.796875 4.046875 
Q 43.703125 -1.421875 29.984375 -1.421875 
Q 24.8125 -1.421875 18.96875 -0.25 
Q 13.140625 0.921875 6.890625 3.21875 
L 6.890625 13.375 
Q 12.890625 10.015625 18.65625 8.296875 
Q 24.421875 6.59375 29.984375 6.59375 
Q 38.421875 6.59375 43.015625 9.90625 
Q 47.609375 13.234375 47.609375 19.390625 
Q 47.609375 24.75 44.3125 27.78125 
Q 41.015625 30.8125 33.5 32.328125 
L 27.484375 33.5 
Q 16.453125 35.6875 11.515625 40.375 
Q 6.59375 45.0625 6.59375 53.421875 
Q 6.59375 63.09375 13.40625 68.65625 
Q 20.21875 74.21875 32.171875 74.21875 
Q 37.3125 74.21875 42.625 73.28125 
Q 47.953125 72.359375 53.515625 70.515625 
z
" id="DejaVuSans-83"/>
       <path d="M 9.8125 72.90625 
L 19.671875 72.90625 
L 19.671875 0 
L 9.8125 0 
z
" id="DejaVuSans-73"/>
      </defs>
      <use xlink:href="#DejaVuSans-77"/>
      <use x="86.279297" xlink:href="#DejaVuSans-83"/>
      <use x="149.755859" xlink:href="#DejaVuSans-73"/>
     </g>
    </g>
    <g id="line2d_27">
     <path d="M 147.580937 229.79575 
L 167.580937 229.79575 
" style="fill:none;stroke:#ff0000;stroke-linecap:square;stroke-width:1.5;"/>
    </g>
    <g id="line2d_28"/>
    <g id="text_18">
     <!-- $\it{A priori}$ model -->
     <g transform="translate(175.580937 233.29575)scale(0.1 -0.1)">
      <defs>
       <path d="M 36.8125 72.90625 
L 48 72.90625 
L 61.53125 0 
L 51.21875 0 
L 48.1875 18.703125 
L 15.375 18.703125 
L 5.078125 0 
L -5.328125 0 
z
M 40.375 63.1875 
L 19.921875 26.90625 
L 46.6875 26.90625 
z
" id="DejaVuSans-Oblique-65"/>
       <path d="M 49.609375 33.6875 
Q 49.609375 40.875 46.484375 44.671875 
Q 43.359375 48.484375 37.5 48.484375 
Q 33.5 48.484375 29.859375 46.4375 
Q 26.21875 44.390625 23.390625 40.484375 
Q 20.609375 36.625 18.9375 31.15625 
Q 17.28125 25.6875 17.28125 20.3125 
Q 17.28125 13.484375 20.40625 9.796875 
Q 23.53125 6.109375 29.296875 6.109375 
Q 33.546875 6.109375 37.1875 8.109375 
Q 40.828125 10.109375 43.40625 13.921875 
Q 46.1875 17.921875 47.890625 23.34375 
Q 49.609375 28.765625 49.609375 33.6875 
z
M 21.78125 46.390625 
Q 25.390625 51.125 30.296875 53.5625 
Q 35.203125 56 41.21875 56 
Q 49.609375 56 54.25 50.5 
Q 58.890625 45.015625 58.890625 35.109375 
Q 58.890625 27 56 19.65625 
Q 53.125 12.3125 47.703125 6.5 
Q 44.09375 2.640625 39.546875 0.609375 
Q 35.015625 -1.421875 29.984375 -1.421875 
Q 24.171875 -1.421875 20.21875 1 
Q 16.265625 3.421875 14.3125 8.203125 
L 8.6875 -20.796875 
L -0.296875 -20.796875 
L 14.40625 54.6875 
L 23.390625 54.6875 
z
" id="DejaVuSans-Oblique-112"/>
       <path d="M 44.578125 46.390625 
Q 43.21875 47.125 41.453125 47.515625 
Q 39.703125 47.90625 37.703125 47.90625 
Q 30.515625 47.90625 25.140625 42.453125 
Q 19.78125 37.015625 18.015625 27.875 
L 12.5 0 
L 3.515625 0 
L 14.203125 54.6875 
L 23.1875 54.6875 
L 21.484375 46.1875 
Q 25.046875 50.921875 30 53.453125 
Q 34.96875 56 40.578125 56 
Q 42.046875 56 43.453125 55.828125 
Q 44.875 55.671875 46.296875 55.28125 
z
" id="DejaVuSans-Oblique-114"/>
       <path d="M 18.3125 75.984375 
L 27.296875 75.984375 
L 25.09375 64.59375 
L 16.109375 64.59375 
z
M 14.203125 54.6875 
L 23.1875 54.6875 
L 12.5 0 
L 3.515625 0 
z
" id="DejaVuSans-Oblique-105"/>
       <path d="M 25.390625 -1.421875 
Q 15.765625 -1.421875 10.171875 4.515625 
Q 4.59375 10.453125 4.59375 20.703125 
Q 4.59375 26.65625 6.515625 32.828125 
Q 8.453125 39.015625 11.53125 43.21875 
Q 16.359375 49.75 22.3125 52.875 
Q 28.265625 56 35.796875 56 
Q 45.125 56 50.859375 50.1875 
Q 56.59375 44.390625 56.59375 35.015625 
Q 56.59375 28.515625 54.6875 22.0625 
Q 52.78125 15.625 49.703125 11.375 
Q 44.921875 4.828125 38.96875 1.703125 
Q 33.015625 -1.421875 25.390625 -1.421875 
z
M 13.921875 21 
Q 13.921875 13.578125 17.015625 9.890625 
Q 20.125 6.203125 26.421875 6.203125 
Q 35.453125 6.203125 41.375 14.078125 
Q 47.3125 21.96875 47.3125 34.078125 
Q 47.3125 41.15625 44.140625 44.765625 
Q 40.96875 48.390625 34.8125 48.390625 
Q 29.734375 48.390625 25.78125 46.015625 
Q 21.828125 43.65625 18.703125 38.8125 
Q 16.40625 35.203125 15.15625 30.5625 
Q 13.921875 25.921875 13.921875 21 
z
" id="DejaVuSans-Oblique-111"/>
       <path d="M 30.609375 48.390625 
Q 23.390625 48.390625 19.1875 42.75 
Q 14.984375 37.109375 14.984375 27.296875 
Q 14.984375 17.484375 19.15625 11.84375 
Q 23.34375 6.203125 30.609375 6.203125 
Q 37.796875 6.203125 41.984375 11.859375 
Q 46.1875 17.53125 46.1875 27.296875 
Q 46.1875 37.015625 41.984375 42.703125 
Q 37.796875 48.390625 30.609375 48.390625 
z
M 30.609375 56 
Q 42.328125 56 49.015625 48.375 
Q 55.71875 40.765625 55.71875 27.296875 
Q 55.71875 13.875 49.015625 6.21875 
Q 42.328125 -1.421875 30.609375 -1.421875 
Q 18.84375 -1.421875 12.171875 6.21875 
Q 5.515625 13.875 5.515625 27.296875 
Q 5.515625 40.765625 12.171875 48.375 
Q 18.84375 56 30.609375 56 
z
" id="DejaVuSans-111"/>
       <path d="M 45.40625 46.390625 
L 45.40625 75.984375 
L 54.390625 75.984375 
L 54.390625 0 
L 45.40625 0 
L 45.40625 8.203125 
Q 42.578125 3.328125 38.25 0.953125 
Q 33.9375 -1.421875 27.875 -1.421875 
Q 17.96875 -1.421875 11.734375 6.484375 
Q 5.515625 14.40625 5.515625 27.296875 
Q 5.515625 40.1875 11.734375 48.09375 
Q 17.96875 56 27.875 56 
Q 33.9375 56 38.25 53.625 
Q 42.578125 51.265625 45.40625 46.390625 
z
M 14.796875 27.296875 
Q 14.796875 17.390625 18.875 11.75 
Q 22.953125 6.109375 30.078125 6.109375 
Q 37.203125 6.109375 41.296875 11.75 
Q 45.40625 17.390625 45.40625 27.296875 
Q 45.40625 37.203125 41.296875 42.84375 
Q 37.203125 48.484375 30.078125 48.484375 
Q 22.953125 48.484375 18.875 42.84375 
Q 14.796875 37.203125 14.796875 27.296875 
z
" id="DejaVuSans-100"/>
       <path d="M 9.421875 75.984375 
L 18.40625 75.984375 
L 18.40625 0 
L 9.421875 0 
z
" id="DejaVuSans-108"/>
      </defs>
      <use transform="translate(0 0.015625)" xlink:href="#DejaVuSans-Oblique-65"/>
      <use transform="translate(68.408203 0.015625)" xlink:href="#DejaVuSans-Oblique-112"/>
      <use transform="translate(131.884766 0.015625)" xlink:href="#DejaVuSans-Oblique-114"/>
      <use transform="translate(172.998047 0.015625)" xlink:href="#DejaVuSans-Oblique-105"/>
      <use transform="translate(200.78125 0.015625)" xlink:href="#DejaVuSans-Oblique-111"/>
      <use transform="translate(261.962891 0.015625)" xlink:href="#DejaVuSans-Oblique-114"/>
      <use transform="translate(303.076172 0.015625)" xlink:href="#DejaVuSans-Oblique-105"/>
      <use transform="translate(330.859375 0.015625)" xlink:href="#DejaVuSans-32"/>
      <use transform="translate(362.646484 0.015625)" xlink:href="#DejaVuSans-109"/>
      <use transform="translate(460.058594 0.015625)" xlink:href="#DejaVuSans-111"/>
      <use transform="translate(521.240234 0.015625)" xlink:href="#DejaVuSans-100"/>
      <use transform="translate(584.716797 0.015625)" xlink:href="#DejaVuSans-101"/>
      <use transform="translate(646.240234 0.015625)" xlink:href="#DejaVuSans-108"/>
     </g>
    </g>
    <g id="line2d_29"/>
    <g id="line2d_30">
     <g>
      <use style="stroke:#000000;" x="157.580937" xlink:href="#me7247b1f02" y="244.494187"/>
     </g>
    </g>
    <g id="text_19">
     <!-- Experimental Data -->
     <g transform="translate(175.580937 247.994187)scale(0.1 -0.1)">
      <defs>
       <path d="M 34.28125 27.484375 
Q 23.390625 27.484375 19.1875 25 
Q 14.984375 22.515625 14.984375 16.5 
Q 14.984375 11.71875 18.140625 8.90625 
Q 21.296875 6.109375 26.703125 6.109375 
Q 34.1875 6.109375 38.703125 11.40625 
Q 43.21875 16.703125 43.21875 25.484375 
L 43.21875 27.484375 
z
M 52.203125 31.203125 
L 52.203125 0 
L 43.21875 0 
L 43.21875 8.296875 
Q 40.140625 3.328125 35.546875 0.953125 
Q 30.953125 -1.421875 24.3125 -1.421875 
Q 15.921875 -1.421875 10.953125 3.296875 
Q 6 8.015625 6 15.921875 
Q 6 25.140625 12.171875 29.828125 
Q 18.359375 34.515625 30.609375 34.515625 
L 43.21875 34.515625 
L 43.21875 35.40625 
Q 43.21875 41.609375 39.140625 45 
Q 35.0625 48.390625 27.6875 48.390625 
Q 23 48.390625 18.546875 47.265625 
Q 14.109375 46.140625 10.015625 43.890625 
L 10.015625 52.203125 
Q 14.9375 54.109375 19.578125 55.046875 
Q 24.21875 56 28.609375 56 
Q 40.484375 56 46.34375 49.84375 
Q 52.203125 43.703125 52.203125 31.203125 
z
" id="DejaVuSans-97"/>
       <path d="M 19.671875 64.796875 
L 19.671875 8.109375 
L 31.59375 8.109375 
Q 46.6875 8.109375 53.6875 14.9375 
Q 60.6875 21.78125 60.6875 36.53125 
Q 60.6875 51.171875 53.6875 57.984375 
Q 46.6875 64.796875 31.59375 64.796875 
z
M 9.8125 72.90625 
L 30.078125 72.90625 
Q 51.265625 72.90625 61.171875 64.09375 
Q 71.09375 55.28125 71.09375 36.53125 
Q 71.09375 17.671875 61.125 8.828125 
Q 51.171875 0 30.078125 0 
L 9.8125 0 
z
" id="DejaVuSans-68"/>
      </defs>
      <use xlink:href="#DejaVuSans-69"/>
      <use x="63.183594" xlink:href="#DejaVuSans-120"/>
      <use x="122.363281" xlink:href="#DejaVuSans-112"/>
      <use x="185.839844" xlink:href="#DejaVuSans-101"/>
      <use x="247.363281" xlink:href="#DejaVuSans-114"/>
      <use x="288.476562" xlink:href="#DejaVuSans-105"/>
      <use x="316.259766" xlink:href="#DejaVuSans-109"/>
      <use x="413.671875" xlink:href="#DejaVuSans-101"/>
      <use x="475.195312" xlink:href="#DejaVuSans-110"/>
      <use x="538.574219" xlink:href="#DejaVuSans-116"/>
      <use x="577.783203" xlink:href="#DejaVuSans-97"/>
      <use x="639.0625" xlink:href="#DejaVuSans-108"/>
      <use x="666.845703" xlink:href="#DejaVuSans-32"/>
      <use x="698.632812" xlink:href="#DejaVuSans-68"/>
      <use x="775.634766" xlink:href="#DejaVuSans-97"/>
      <use x="836.914062" xlink:href="#DejaVuSans-116"/>
      <use x="876.123047" xlink:href="#DejaVuSans-97"/>
     </g>
    </g>
    <g id="line2d_31">
     <path d="M 147.580937 259.172312 
L 167.580937 259.172312 
" style="fill:none;stroke:#ffffff;stroke-linecap:square;stroke-width:1.5;"/>
    </g>
    <g id="line2d_32"/>
    <g id="text_20">
     <!-- T:1658 -->
     <g transform="translate(175.580937 262.672312)scale(0.1 -0.1)">
      <defs>
       <path d="M 11.71875 12.40625 
L 22.015625 12.40625 
L 22.015625 0 
L 11.71875 0 
z
M 11.71875 51.703125 
L 22.015625 51.703125 
L 22.015625 39.3125 
L 11.71875 39.3125 
z
" id="DejaVuSans-58"/>
       <path d="M 33.015625 40.375 
Q 26.375 40.375 22.484375 35.828125 
Q 18.609375 31.296875 18.609375 23.390625 
Q 18.609375 15.53125 22.484375 10.953125 
Q 26.375 6.390625 33.015625 6.390625 
Q 39.65625 6.390625 43.53125 10.953125 
Q 47.40625 15.53125 47.40625 23.390625 
Q 47.40625 31.296875 43.53125 35.828125 
Q 39.65625 40.375 33.015625 40.375 
z
M 52.59375 71.296875 
L 52.59375 62.3125 
Q 48.875 64.0625 45.09375 64.984375 
Q 41.3125 65.921875 37.59375 65.921875 
Q 27.828125 65.921875 22.671875 59.328125 
Q 17.53125 52.734375 16.796875 39.40625 
Q 19.671875 43.65625 24.015625 45.921875 
Q 28.375 48.1875 33.59375 48.1875 
Q 44.578125 48.1875 50.953125 41.515625 
Q 57.328125 34.859375 57.328125 23.390625 
Q 57.328125 12.15625 50.6875 5.359375 
Q 44.046875 -1.421875 33.015625 -1.421875 
Q 20.359375 -1.421875 13.671875 8.265625 
Q 6.984375 17.96875 6.984375 36.375 
Q 6.984375 53.65625 15.1875 63.9375 
Q 23.390625 74.21875 37.203125 74.21875 
Q 40.921875 74.21875 44.703125 73.484375 
Q 48.484375 72.75 52.59375 71.296875 
z
" id="DejaVuSans-54"/>
       <path d="M 31.78125 34.625 
Q 24.75 34.625 20.71875 30.859375 
Q 16.703125 27.09375 16.703125 20.515625 
Q 16.703125 13.921875 20.71875 10.15625 
Q 24.75 6.390625 31.78125 6.390625 
Q 38.8125 6.390625 42.859375 10.171875 
Q 46.921875 13.96875 46.921875 20.515625 
Q 46.921875 27.09375 42.890625 30.859375 
Q 38.875 34.625 31.78125 34.625 
z
M 21.921875 38.8125 
Q 15.578125 40.375 12.03125 44.71875 
Q 8.5 49.078125 8.5 55.328125 
Q 8.5 64.0625 14.71875 69.140625 
Q 20.953125 74.21875 31.78125 74.21875 
Q 42.671875 74.21875 48.875 69.140625 
Q 55.078125 64.0625 55.078125 55.328125 
Q 55.078125 49.078125 51.53125 44.71875 
Q 48 40.375 41.703125 38.8125 
Q 48.828125 37.15625 52.796875 32.3125 
Q 56.78125 27.484375 56.78125 20.515625 
Q 56.78125 9.90625 50.3125 4.234375 
Q 43.84375 -1.421875 31.78125 -1.421875 
Q 19.734375 -1.421875 13.25 4.234375 
Q 6.78125 9.90625 6.78125 20.515625 
Q 6.78125 27.484375 10.78125 32.3125 
Q 14.796875 37.15625 21.921875 38.8125 
z
M 18.3125 54.390625 
Q 18.3125 48.734375 21.84375 45.5625 
Q 25.390625 42.390625 31.78125 42.390625 
Q 38.140625 42.390625 41.71875 45.5625 
Q 45.3125 48.734375 45.3125 54.390625 
Q 45.3125 60.0625 41.71875 63.234375 
Q 38.140625 66.40625 31.78125 66.40625 
Q 25.390625 66.40625 21.84375 63.234375 
Q 18.3125 60.0625 18.3125 54.390625 
z
" id="DejaVuSans-56"/>
      </defs>
      <use xlink:href="#DejaVuSans-84"/>
      <use x="50.083984" xlink:href="#DejaVuSans-58"/>
      <use x="83.775391" xlink:href="#DejaVuSans-49"/>
      <use x="147.398438" xlink:href="#DejaVuSans-54"/>
      <use x="211.021484" xlink:href="#DejaVuSans-53"/>
      <use x="274.644531" xlink:href="#DejaVuSans-56"/>
     </g>
    </g>
    <g id="line2d_33">
     <path d="M 147.580937 273.850437 
L 167.580937 273.850437 
" style="fill:none;stroke:#ffffff;stroke-linecap:square;stroke-width:1.5;"/>
    </g>
    <g id="line2d_34"/>
    <g id="text_21">
     <!-- P:1.46 -->
     <g transform="translate(175.580937 277.350437)scale(0.1 -0.1)">
      <defs>
       <path d="M 19.671875 64.796875 
L 19.671875 37.40625 
L 32.078125 37.40625 
Q 38.96875 37.40625 42.71875 40.96875 
Q 46.484375 44.53125 46.484375 51.125 
Q 46.484375 57.671875 42.71875 61.234375 
Q 38.96875 64.796875 32.078125 64.796875 
z
M 9.8125 72.90625 
L 32.078125 72.90625 
Q 44.34375 72.90625 50.609375 67.359375 
Q 56.890625 61.8125 56.890625 51.125 
Q 56.890625 40.328125 50.609375 34.8125 
Q 44.34375 29.296875 32.078125 29.296875 
L 19.671875 29.296875 
L 19.671875 0 
L 9.8125 0 
z
" id="DejaVuSans-80"/>
      </defs>
      <use xlink:href="#DejaVuSans-80"/>
      <use x="60.302734" xlink:href="#DejaVuSans-58"/>
      <use x="93.994141" xlink:href="#DejaVuSans-49"/>
      <use x="157.617188" xlink:href="#DejaVuSans-46"/>
      <use x="189.404297" xlink:href="#DejaVuSans-52"/>
      <use x="253.027344" xlink:href="#DejaVuSans-54"/>
     </g>
    </g>
    <g id="line2d_35">
     <path d="M 289.321563 215.116062 
L 309.321563 215.116062 
" style="fill:none;stroke:#ffffff;stroke-linecap:square;stroke-width:1.5;"/>
    </g>
    <g id="line2d_36"/>
    <g id="text_22">
     <!-- CH2O: 0.0005 -->
     <g transform="translate(317.321563 218.616062)scale(0.1 -0.1)">
      <defs>
       <path d="M 64.40625 67.28125 
L 64.40625 56.890625 
Q 59.421875 61.53125 53.78125 63.8125 
Q 48.140625 66.109375 41.796875 66.109375 
Q 29.296875 66.109375 22.65625 58.46875 
Q 16.015625 50.828125 16.015625 36.375 
Q 16.015625 21.96875 22.65625 14.328125 
Q 29.296875 6.6875 41.796875 6.6875 
Q 48.140625 6.6875 53.78125 8.984375 
Q 59.421875 11.28125 64.40625 15.921875 
L 64.40625 5.609375 
Q 59.234375 2.09375 53.4375 0.328125 
Q 47.65625 -1.421875 41.21875 -1.421875 
Q 24.65625 -1.421875 15.125 8.703125 
Q 5.609375 18.84375 5.609375 36.375 
Q 5.609375 53.953125 15.125 64.078125 
Q 24.65625 74.21875 41.21875 74.21875 
Q 47.75 74.21875 53.53125 72.484375 
Q 59.328125 70.75 64.40625 67.28125 
z
" id="DejaVuSans-67"/>
      </defs>
      <use xlink:href="#DejaVuSans-67"/>
      <use x="69.824219" xlink:href="#DejaVuSans-72"/>
      <use x="145.019531" xlink:href="#DejaVuSans-50"/>
      <use x="208.642578" xlink:href="#DejaVuSans-79"/>
      <use x="285.603516" xlink:href="#DejaVuSans-58"/>
      <use x="319.294922" xlink:href="#DejaVuSans-32"/>
      <use x="351.082031" xlink:href="#DejaVuSans-48"/>
      <use x="414.705078" xlink:href="#DejaVuSans-46"/>
      <use x="446.492188" xlink:href="#DejaVuSans-48"/>
      <use x="510.115234" xlink:href="#DejaVuSans-48"/>
      <use x="573.738281" xlink:href="#DejaVuSans-48"/>
      <use x="637.361328" xlink:href="#DejaVuSans-53"/>
     </g>
    </g>
    <g id="line2d_37">
     <path d="M 289.321563 229.794187 
L 309.321563 229.794187 
" style="fill:none;stroke:#ffffff;stroke-linecap:square;stroke-width:1.5;"/>
    </g>
    <g id="line2d_38"/>
    <g id="text_23">
     <!-- O2: 0.0005 -->
     <g transform="translate(317.321563 233.294187)scale(0.1 -0.1)">
      <use xlink:href="#DejaVuSans-79"/>
      <use x="78.710938" xlink:href="#DejaVuSans-50"/>
      <use x="142.333984" xlink:href="#DejaVuSans-58"/>
      <use x="176.025391" xlink:href="#DejaVuSans-32"/>
      <use x="207.8125" xlink:href="#DejaVuSans-48"/>
      <use x="271.435547" xlink:href="#DejaVuSans-46"/>
      <use x="303.222656" xlink:href="#DejaVuSans-48"/>
      <use x="366.845703" xlink:href="#DejaVuSans-48"/>
      <use x="430.46875" xlink:href="#DejaVuSans-48"/>
      <use x="494.091797" xlink:href="#DejaVuSans-53"/>
     </g>
    </g>
    <g id="line2d_39">
     <path d="M 289.321563 244.472312 
L 309.321563 244.472312 
" style="fill:none;stroke:#ffffff;stroke-linecap:square;stroke-width:1.5;"/>
    </g>
    <g id="line2d_40"/>
    <g id="text_24">
     <!-- H: 1.5e-06 -->
     <g transform="translate(317.321563 247.972312)scale(0.1 -0.1)">
      <defs>
       <path d="M 4.890625 31.390625 
L 31.203125 31.390625 
L 31.203125 23.390625 
L 4.890625 23.390625 
z
" id="DejaVuSans-45"/>
      </defs>
      <use xlink:href="#DejaVuSans-72"/>
      <use x="75.195312" xlink:href="#DejaVuSans-58"/>
      <use x="108.886719" xlink:href="#DejaVuSans-32"/>
      <use x="140.673828" xlink:href="#DejaVuSans-49"/>
      <use x="204.296875" xlink:href="#DejaVuSans-46"/>
      <use x="236.083984" xlink:href="#DejaVuSans-53"/>
      <use x="299.707031" xlink:href="#DejaVuSans-101"/>
      <use x="361.230469" xlink:href="#DejaVuSans-45"/>
      <use x="397.314453" xlink:href="#DejaVuSans-48"/>
      <use x="460.9375" xlink:href="#DejaVuSans-54"/>
     </g>
    </g>
    <g id="line2d_41">
     <path d="M 289.321563 259.150437 
L 309.321563 259.150437 
" style="fill:none;stroke:#ffffff;stroke-linecap:square;stroke-width:1.5;"/>
    </g>
    <g id="line2d_42"/>
    <g id="text_25">
     <!-- Ar: 0.9989985 -->
     <g transform="translate(317.321563 262.650437)scale(0.1 -0.1)">
      <defs>
       <path d="M 34.1875 63.1875 
L 20.796875 26.90625 
L 47.609375 26.90625 
z
M 28.609375 72.90625 
L 39.796875 72.90625 
L 67.578125 0 
L 57.328125 0 
L 50.6875 18.703125 
L 17.828125 18.703125 
L 11.1875 0 
L 0.78125 0 
z
" id="DejaVuSans-65"/>
       <path d="M 10.984375 1.515625 
L 10.984375 10.5 
Q 14.703125 8.734375 18.5 7.8125 
Q 22.3125 6.890625 25.984375 6.890625 
Q 35.75 6.890625 40.890625 13.453125 
Q 46.046875 20.015625 46.78125 33.40625 
Q 43.953125 29.203125 39.59375 26.953125 
Q 35.25 24.703125 29.984375 24.703125 
Q 19.046875 24.703125 12.671875 31.3125 
Q 6.296875 37.9375 6.296875 49.421875 
Q 6.296875 60.640625 12.9375 67.421875 
Q 19.578125 74.21875 30.609375 74.21875 
Q 43.265625 74.21875 49.921875 64.515625 
Q 56.59375 54.828125 56.59375 36.375 
Q 56.59375 19.140625 48.40625 8.859375 
Q 40.234375 -1.421875 26.421875 -1.421875 
Q 22.703125 -1.421875 18.890625 -0.6875 
Q 15.09375 0.046875 10.984375 1.515625 
z
M 30.609375 32.421875 
Q 37.25 32.421875 41.125 36.953125 
Q 45.015625 41.5 45.015625 49.421875 
Q 45.015625 57.28125 41.125 61.84375 
Q 37.25 66.40625 30.609375 66.40625 
Q 23.96875 66.40625 20.09375 61.84375 
Q 16.21875 57.28125 16.21875 49.421875 
Q 16.21875 41.5 20.09375 36.953125 
Q 23.96875 32.421875 30.609375 32.421875 
z
" id="DejaVuSans-57"/>
      </defs>
      <use xlink:href="#DejaVuSans-65"/>
      <use x="68.408203" xlink:href="#DejaVuSans-114"/>
      <use x="107.771484" xlink:href="#DejaVuSans-58"/>
      <use x="141.462891" xlink:href="#DejaVuSans-32"/>
      <use x="173.25" xlink:href="#DejaVuSans-48"/>
      <use x="236.873047" xlink:href="#DejaVuSans-46"/>
      <use x="268.660156" xlink:href="#DejaVuSans-57"/>
      <use x="332.283203" xlink:href="#DejaVuSans-57"/>
      <use x="395.90625" xlink:href="#DejaVuSans-56"/>
      <use x="459.529297" xlink:href="#DejaVuSans-57"/>
      <use x="523.152344" xlink:href="#DejaVuSans-57"/>
      <use x="586.775391" xlink:href="#DejaVuSans-56"/>
      <use x="650.398438" xlink:href="#DejaVuSans-53"/>
     </g>
    </g>
   </g>
  </g>
 </g>
 <defs>
  <clipPath id="pf29d51271d">
   <rect height="266.112" width="357.12" x="40.603125" y="22.318125"/>
  </clipPath>
 </defs>
</svg>
