<?xml version="1.0" encoding="utf-8" standalone="no"?>
<!DOCTYPE svg PUBLIC "-//W3C//DTD SVG 1.1//EN"
  "http://www.w3.org/Graphics/SVG/1.1/DTD/svg11.dtd">
<!-- Created with matplotlib (https://matplotlib.org/) -->
<svg height="325.986375pt" version="1.1" viewBox="0 0 418.897375 325.986375" width="418.897375pt" xmlns="http://www.w3.org/2000/svg" xmlns:xlink="http://www.w3.org/1999/xlink">
 <metadata>
  <rdf:RDF xmlns:cc="http://creativecommons.org/ns#" xmlns:dc="http://purl.org/dc/elements/1.1/" xmlns:rdf="http://www.w3.org/1999/02/22-rdf-syntax-ns#">
   <cc:Work>
    <dc:type rdf:resource="http://purl.org/dc/dcmitype/StillImage"/>
    <dc:date>2023-08-04T12:52:35.280759</dc:date>
    <dc:format>image/svg+xml</dc:format>
    <dc:creator>
     <cc:Agent>
      <dc:title>Matplotlib v3.3.1, https://matplotlib.org/</dc:title>
     </cc:Agent>
    </dc:creator>
   </cc:Work>
  </rdf:RDF>
 </metadata>
 <defs>
  <style type="text/css">*{stroke-linecap:butt;stroke-linejoin:round;}</style>
 </defs>
 <g id="figure_1">
  <g id="patch_1">
   <path d="M 0 325.986375 
L 418.897375 325.986375 
L 418.897375 0 
L 0 0 
z
" style="fill:none;"/>
  </g>
  <g id="axes_1">
   <g id="patch_2">
    <path d="M 50.14375 288.430125 
L 407.26375 288.430125 
L 407.26375 22.318125 
L 50.14375 22.318125 
z
" style="fill:none;"/>
   </g>
   <g id="matplotlib.axis_1">
    <g id="xtick_1">
     <g id="line2d_1">
      <defs>
       <path d="M 0 0 
L 0 3.5 
" id="m31553523c9" style="stroke:#000000;stroke-width:0.8;"/>
      </defs>
      <g>
       <use style="stroke:#000000;stroke-width:0.8;" x="66.376477" xlink:href="#m31553523c9" y="288.430125"/>
      </g>
     </g>
     <g id="text_1">
      <!-- 0.0 -->
      <g transform="translate(58.424915 303.028562)scale(0.1 -0.1)">
       <defs>
        <path d="M 31.78125 66.40625 
Q 24.171875 66.40625 20.328125 58.90625 
Q 16.5 51.421875 16.5 36.375 
Q 16.5 21.390625 20.328125 13.890625 
Q 24.171875 6.390625 31.78125 6.390625 
Q 39.453125 6.390625 43.28125 13.890625 
Q 47.125 21.390625 47.125 36.375 
Q 47.125 51.421875 43.28125 58.90625 
Q 39.453125 66.40625 31.78125 66.40625 
z
M 31.78125 74.21875 
Q 44.046875 74.21875 50.515625 64.515625 
Q 56.984375 54.828125 56.984375 36.375 
Q 56.984375 17.96875 50.515625 8.265625 
Q 44.046875 -1.421875 31.78125 -1.421875 
Q 19.53125 -1.421875 13.0625 8.265625 
Q 6.59375 17.96875 6.59375 36.375 
Q 6.59375 54.828125 13.0625 64.515625 
Q 19.53125 74.21875 31.78125 74.21875 
z
" id="DejaVuSans-48"/>
        <path d="M 10.6875 12.40625 
L 21 12.40625 
L 21 0 
L 10.6875 0 
z
" id="DejaVuSans-46"/>
       </defs>
       <use xlink:href="#DejaVuSans-48"/>
       <use x="63.623047" xlink:href="#DejaVuSans-46"/>
       <use x="95.410156" xlink:href="#DejaVuSans-48"/>
      </g>
     </g>
    </g>
    <g id="xtick_2">
     <g id="line2d_2">
      <g>
       <use style="stroke:#000000;stroke-width:0.8;" x="108.547644" xlink:href="#m31553523c9" y="288.430125"/>
      </g>
     </g>
     <g id="text_2">
      <!-- 0.2 -->
      <g transform="translate(100.596082 303.028562)scale(0.1 -0.1)">
       <defs>
        <path d="M 19.1875 8.296875 
L 53.609375 8.296875 
L 53.609375 0 
L 7.328125 0 
L 7.328125 8.296875 
Q 12.9375 14.109375 22.625 23.890625 
Q 32.328125 33.6875 34.8125 36.53125 
Q 39.546875 41.84375 41.421875 45.53125 
Q 43.3125 49.21875 43.3125 52.78125 
Q 43.3125 58.59375 39.234375 62.25 
Q 35.15625 65.921875 28.609375 65.921875 
Q 23.96875 65.921875 18.8125 64.3125 
Q 13.671875 62.703125 7.8125 59.421875 
L 7.8125 69.390625 
Q 13.765625 71.78125 18.9375 73 
Q 24.125 74.21875 28.421875 74.21875 
Q 39.75 74.21875 46.484375 68.546875 
Q 53.21875 62.890625 53.21875 53.421875 
Q 53.21875 48.921875 51.53125 44.890625 
Q 49.859375 40.875 45.40625 35.40625 
Q 44.1875 33.984375 37.640625 27.21875 
Q 31.109375 20.453125 19.1875 8.296875 
z
" id="DejaVuSans-50"/>
       </defs>
       <use xlink:href="#DejaVuSans-48"/>
       <use x="63.623047" xlink:href="#DejaVuSans-46"/>
       <use x="95.410156" xlink:href="#DejaVuSans-50"/>
      </g>
     </g>
    </g>
    <g id="xtick_3">
     <g id="line2d_3">
      <g>
       <use style="stroke:#000000;stroke-width:0.8;" x="150.718811" xlink:href="#m31553523c9" y="288.430125"/>
      </g>
     </g>
     <g id="text_3">
      <!-- 0.4 -->
      <g transform="translate(142.767249 303.028562)scale(0.1 -0.1)">
       <defs>
        <path d="M 37.796875 64.3125 
L 12.890625 25.390625 
L 37.796875 25.390625 
z
M 35.203125 72.90625 
L 47.609375 72.90625 
L 47.609375 25.390625 
L 58.015625 25.390625 
L 58.015625 17.1875 
L 47.609375 17.1875 
L 47.609375 0 
L 37.796875 0 
L 37.796875 17.1875 
L 4.890625 17.1875 
L 4.890625 26.703125 
z
" id="DejaVuSans-52"/>
       </defs>
       <use xlink:href="#DejaVuSans-48"/>
       <use x="63.623047" xlink:href="#DejaVuSans-46"/>
       <use x="95.410156" xlink:href="#DejaVuSans-52"/>
      </g>
     </g>
    </g>
    <g id="xtick_4">
     <g id="line2d_4">
      <g>
       <use style="stroke:#000000;stroke-width:0.8;" x="192.889978" xlink:href="#m31553523c9" y="288.430125"/>
      </g>
     </g>
     <g id="text_4">
      <!-- 0.6 -->
      <g transform="translate(184.938416 303.028562)scale(0.1 -0.1)">
       <defs>
        <path d="M 33.015625 40.375 
Q 26.375 40.375 22.484375 35.828125 
Q 18.609375 31.296875 18.609375 23.390625 
Q 18.609375 15.53125 22.484375 10.953125 
Q 26.375 6.390625 33.015625 6.390625 
Q 39.65625 6.390625 43.53125 10.953125 
Q 47.40625 15.53125 47.40625 23.390625 
Q 47.40625 31.296875 43.53125 35.828125 
Q 39.65625 40.375 33.015625 40.375 
z
M 52.59375 71.296875 
L 52.59375 62.3125 
Q 48.875 64.0625 45.09375 64.984375 
Q 41.3125 65.921875 37.59375 65.921875 
Q 27.828125 65.921875 22.671875 59.328125 
Q 17.53125 52.734375 16.796875 39.40625 
Q 19.671875 43.65625 24.015625 45.921875 
Q 28.375 48.1875 33.59375 48.1875 
Q 44.578125 48.1875 50.953125 41.515625 
Q 57.328125 34.859375 57.328125 23.390625 
Q 57.328125 12.15625 50.6875 5.359375 
Q 44.046875 -1.421875 33.015625 -1.421875 
Q 20.359375 -1.421875 13.671875 8.265625 
Q 6.984375 17.96875 6.984375 36.375 
Q 6.984375 53.65625 15.1875 63.9375 
Q 23.390625 74.21875 37.203125 74.21875 
Q 40.921875 74.21875 44.703125 73.484375 
Q 48.484375 72.75 52.59375 71.296875 
z
" id="DejaVuSans-54"/>
       </defs>
       <use xlink:href="#DejaVuSans-48"/>
       <use x="63.623047" xlink:href="#DejaVuSans-46"/>
       <use x="95.410156" xlink:href="#DejaVuSans-54"/>
      </g>
     </g>
    </g>
    <g id="xtick_5">
     <g id="line2d_5">
      <g>
       <use style="stroke:#000000;stroke-width:0.8;" x="235.061145" xlink:href="#m31553523c9" y="288.430125"/>
      </g>
     </g>
     <g id="text_5">
      <!-- 0.8 -->
      <g transform="translate(227.109583 303.028562)scale(0.1 -0.1)">
       <defs>
        <path d="M 31.78125 34.625 
Q 24.75 34.625 20.71875 30.859375 
Q 16.703125 27.09375 16.703125 20.515625 
Q 16.703125 13.921875 20.71875 10.15625 
Q 24.75 6.390625 31.78125 6.390625 
Q 38.8125 6.390625 42.859375 10.171875 
Q 46.921875 13.96875 46.921875 20.515625 
Q 46.921875 27.09375 42.890625 30.859375 
Q 38.875 34.625 31.78125 34.625 
z
M 21.921875 38.8125 
Q 15.578125 40.375 12.03125 44.71875 
Q 8.5 49.078125 8.5 55.328125 
Q 8.5 64.0625 14.71875 69.140625 
Q 20.953125 74.21875 31.78125 74.21875 
Q 42.671875 74.21875 48.875 69.140625 
Q 55.078125 64.0625 55.078125 55.328125 
Q 55.078125 49.078125 51.53125 44.71875 
Q 48 40.375 41.703125 38.8125 
Q 48.828125 37.15625 52.796875 32.3125 
Q 56.78125 27.484375 56.78125 20.515625 
Q 56.78125 9.90625 50.3125 4.234375 
Q 43.84375 -1.421875 31.78125 -1.421875 
Q 19.734375 -1.421875 13.25 4.234375 
Q 6.78125 9.90625 6.78125 20.515625 
Q 6.78125 27.484375 10.78125 32.3125 
Q 14.796875 37.15625 21.921875 38.8125 
z
M 18.3125 54.390625 
Q 18.3125 48.734375 21.84375 45.5625 
Q 25.390625 42.390625 31.78125 42.390625 
Q 38.140625 42.390625 41.71875 45.5625 
Q 45.3125 48.734375 45.3125 54.390625 
Q 45.3125 60.0625 41.71875 63.234375 
Q 38.140625 66.40625 31.78125 66.40625 
Q 25.390625 66.40625 21.84375 63.234375 
Q 18.3125 60.0625 18.3125 54.390625 
z
" id="DejaVuSans-56"/>
       </defs>
       <use xlink:href="#DejaVuSans-48"/>
       <use x="63.623047" xlink:href="#DejaVuSans-46"/>
       <use x="95.410156" xlink:href="#DejaVuSans-56"/>
      </g>
     </g>
    </g>
    <g id="xtick_6">
     <g id="line2d_6">
      <g>
       <use style="stroke:#000000;stroke-width:0.8;" x="277.232312" xlink:href="#m31553523c9" y="288.430125"/>
      </g>
     </g>
     <g id="text_6">
      <!-- 1.0 -->
      <g transform="translate(269.28075 303.028562)scale(0.1 -0.1)">
       <defs>
        <path d="M 12.40625 8.296875 
L 28.515625 8.296875 
L 28.515625 63.921875 
L 10.984375 60.40625 
L 10.984375 69.390625 
L 28.421875 72.90625 
L 38.28125 72.90625 
L 38.28125 8.296875 
L 54.390625 8.296875 
L 54.390625 0 
L 12.40625 0 
z
" id="DejaVuSans-49"/>
       </defs>
       <use xlink:href="#DejaVuSans-49"/>
       <use x="63.623047" xlink:href="#DejaVuSans-46"/>
       <use x="95.410156" xlink:href="#DejaVuSans-48"/>
      </g>
     </g>
    </g>
    <g id="xtick_7">
     <g id="line2d_7">
      <g>
       <use style="stroke:#000000;stroke-width:0.8;" x="319.403479" xlink:href="#m31553523c9" y="288.430125"/>
      </g>
     </g>
     <g id="text_7">
      <!-- 1.2 -->
      <g transform="translate(311.451916 303.028562)scale(0.1 -0.1)">
       <use xlink:href="#DejaVuSans-49"/>
       <use x="63.623047" xlink:href="#DejaVuSans-46"/>
       <use x="95.410156" xlink:href="#DejaVuSans-50"/>
      </g>
     </g>
    </g>
    <g id="xtick_8">
     <g id="line2d_8">
      <g>
       <use style="stroke:#000000;stroke-width:0.8;" x="361.574646" xlink:href="#m31553523c9" y="288.430125"/>
      </g>
     </g>
     <g id="text_8">
      <!-- 1.4 -->
      <g transform="translate(353.623083 303.028562)scale(0.1 -0.1)">
       <use xlink:href="#DejaVuSans-49"/>
       <use x="63.623047" xlink:href="#DejaVuSans-46"/>
       <use x="95.410156" xlink:href="#DejaVuSans-52"/>
      </g>
     </g>
    </g>
    <g id="xtick_9">
     <g id="line2d_9">
      <g>
       <use style="stroke:#000000;stroke-width:0.8;" x="403.745813" xlink:href="#m31553523c9" y="288.430125"/>
      </g>
     </g>
     <g id="text_9">
      <!-- 1.6 -->
      <g transform="translate(395.79425 303.028562)scale(0.1 -0.1)">
       <use xlink:href="#DejaVuSans-49"/>
       <use x="63.623047" xlink:href="#DejaVuSans-46"/>
       <use x="95.410156" xlink:href="#DejaVuSans-54"/>
      </g>
     </g>
    </g>
    <g id="text_10">
     <!-- Time (ms) -->
     <g transform="translate(203.504531 316.706687)scale(0.1 -0.1)">
      <defs>
       <path d="M -0.296875 72.90625 
L 61.375 72.90625 
L 61.375 64.59375 
L 35.5 64.59375 
L 35.5 0 
L 25.59375 0 
L 25.59375 64.59375 
L -0.296875 64.59375 
z
" id="DejaVuSans-84"/>
       <path d="M 9.421875 54.6875 
L 18.40625 54.6875 
L 18.40625 0 
L 9.421875 0 
z
M 9.421875 75.984375 
L 18.40625 75.984375 
L 18.40625 64.59375 
L 9.421875 64.59375 
z
" id="DejaVuSans-105"/>
       <path d="M 52 44.1875 
Q 55.375 50.25 60.0625 53.125 
Q 64.75 56 71.09375 56 
Q 79.640625 56 84.28125 50.015625 
Q 88.921875 44.046875 88.921875 33.015625 
L 88.921875 0 
L 79.890625 0 
L 79.890625 32.71875 
Q 79.890625 40.578125 77.09375 44.375 
Q 74.3125 48.1875 68.609375 48.1875 
Q 61.625 48.1875 57.5625 43.546875 
Q 53.515625 38.921875 53.515625 30.90625 
L 53.515625 0 
L 44.484375 0 
L 44.484375 32.71875 
Q 44.484375 40.625 41.703125 44.40625 
Q 38.921875 48.1875 33.109375 48.1875 
Q 26.21875 48.1875 22.15625 43.53125 
Q 18.109375 38.875 18.109375 30.90625 
L 18.109375 0 
L 9.078125 0 
L 9.078125 54.6875 
L 18.109375 54.6875 
L 18.109375 46.1875 
Q 21.1875 51.21875 25.484375 53.609375 
Q 29.78125 56 35.6875 56 
Q 41.65625 56 45.828125 52.96875 
Q 50 49.953125 52 44.1875 
z
" id="DejaVuSans-109"/>
       <path d="M 56.203125 29.59375 
L 56.203125 25.203125 
L 14.890625 25.203125 
Q 15.484375 15.921875 20.484375 11.0625 
Q 25.484375 6.203125 34.421875 6.203125 
Q 39.59375 6.203125 44.453125 7.46875 
Q 49.3125 8.734375 54.109375 11.28125 
L 54.109375 2.78125 
Q 49.265625 0.734375 44.1875 -0.34375 
Q 39.109375 -1.421875 33.890625 -1.421875 
Q 20.796875 -1.421875 13.15625 6.1875 
Q 5.515625 13.8125 5.515625 26.8125 
Q 5.515625 40.234375 12.765625 48.109375 
Q 20.015625 56 32.328125 56 
Q 43.359375 56 49.78125 48.890625 
Q 56.203125 41.796875 56.203125 29.59375 
z
M 47.21875 32.234375 
Q 47.125 39.59375 43.09375 43.984375 
Q 39.0625 48.390625 32.421875 48.390625 
Q 24.90625 48.390625 20.390625 44.140625 
Q 15.875 39.890625 15.1875 32.171875 
z
" id="DejaVuSans-101"/>
       <path id="DejaVuSans-32"/>
       <path d="M 31 75.875 
Q 24.46875 64.65625 21.28125 53.65625 
Q 18.109375 42.671875 18.109375 31.390625 
Q 18.109375 20.125 21.3125 9.0625 
Q 24.515625 -2 31 -13.1875 
L 23.1875 -13.1875 
Q 15.875 -1.703125 12.234375 9.375 
Q 8.59375 20.453125 8.59375 31.390625 
Q 8.59375 42.28125 12.203125 53.3125 
Q 15.828125 64.359375 23.1875 75.875 
z
" id="DejaVuSans-40"/>
       <path d="M 44.28125 53.078125 
L 44.28125 44.578125 
Q 40.484375 46.53125 36.375 47.5 
Q 32.28125 48.484375 27.875 48.484375 
Q 21.1875 48.484375 17.84375 46.4375 
Q 14.5 44.390625 14.5 40.28125 
Q 14.5 37.15625 16.890625 35.375 
Q 19.28125 33.59375 26.515625 31.984375 
L 29.59375 31.296875 
Q 39.15625 29.25 43.1875 25.515625 
Q 47.21875 21.78125 47.21875 15.09375 
Q 47.21875 7.46875 41.1875 3.015625 
Q 35.15625 -1.421875 24.609375 -1.421875 
Q 20.21875 -1.421875 15.453125 -0.5625 
Q 10.6875 0.296875 5.421875 2 
L 5.421875 11.28125 
Q 10.40625 8.6875 15.234375 7.390625 
Q 20.0625 6.109375 24.8125 6.109375 
Q 31.15625 6.109375 34.5625 8.28125 
Q 37.984375 10.453125 37.984375 14.40625 
Q 37.984375 18.0625 35.515625 20.015625 
Q 33.0625 21.96875 24.703125 23.78125 
L 21.578125 24.515625 
Q 13.234375 26.265625 9.515625 29.90625 
Q 5.8125 33.546875 5.8125 39.890625 
Q 5.8125 47.609375 11.28125 51.796875 
Q 16.75 56 26.8125 56 
Q 31.78125 56 36.171875 55.265625 
Q 40.578125 54.546875 44.28125 53.078125 
z
" id="DejaVuSans-115"/>
       <path d="M 8.015625 75.875 
L 15.828125 75.875 
Q 23.140625 64.359375 26.78125 53.3125 
Q 30.421875 42.28125 30.421875 31.390625 
Q 30.421875 20.453125 26.78125 9.375 
Q 23.140625 -1.703125 15.828125 -13.1875 
L 8.015625 -13.1875 
Q 14.5 -2 17.703125 9.0625 
Q 20.90625 20.125 20.90625 31.390625 
Q 20.90625 42.671875 17.703125 53.65625 
Q 14.5 64.65625 8.015625 75.875 
z
" id="DejaVuSans-41"/>
      </defs>
      <use xlink:href="#DejaVuSans-84"/>
      <use x="57.958984" xlink:href="#DejaVuSans-105"/>
      <use x="85.742188" xlink:href="#DejaVuSans-109"/>
      <use x="183.154297" xlink:href="#DejaVuSans-101"/>
      <use x="244.677734" xlink:href="#DejaVuSans-32"/>
      <use x="276.464844" xlink:href="#DejaVuSans-40"/>
      <use x="315.478516" xlink:href="#DejaVuSans-109"/>
      <use x="412.890625" xlink:href="#DejaVuSans-115"/>
      <use x="464.990234" xlink:href="#DejaVuSans-41"/>
     </g>
    </g>
   </g>
   <g id="matplotlib.axis_2">
    <g id="ytick_1">
     <g id="line2d_10">
      <defs>
       <path d="M 0 0 
L -3.5 0 
" id="m1d7830a714" style="stroke:#000000;stroke-width:0.8;"/>
      </defs>
      <g>
       <use style="stroke:#000000;stroke-width:0.8;" x="50.14375" xlink:href="#m1d7830a714" y="282.021106"/>
      </g>
     </g>
     <g id="text_11">
      <!-- 0.00 -->
      <g transform="translate(20.878125 285.820325)scale(0.1 -0.1)">
       <use xlink:href="#DejaVuSans-48"/>
       <use x="63.623047" xlink:href="#DejaVuSans-46"/>
       <use x="95.410156" xlink:href="#DejaVuSans-48"/>
       <use x="159.033203" xlink:href="#DejaVuSans-48"/>
      </g>
     </g>
    </g>
    <g id="ytick_2">
     <g id="line2d_11">
      <g>
       <use style="stroke:#000000;stroke-width:0.8;" x="50.14375" xlink:href="#m1d7830a714" y="252.437557"/>
      </g>
     </g>
     <g id="text_12">
      <!-- 0.01 -->
      <g transform="translate(20.878125 256.236776)scale(0.1 -0.1)">
       <use xlink:href="#DejaVuSans-48"/>
       <use x="63.623047" xlink:href="#DejaVuSans-46"/>
       <use x="95.410156" xlink:href="#DejaVuSans-48"/>
       <use x="159.033203" xlink:href="#DejaVuSans-49"/>
      </g>
     </g>
    </g>
    <g id="ytick_3">
     <g id="line2d_12">
      <g>
       <use style="stroke:#000000;stroke-width:0.8;" x="50.14375" xlink:href="#m1d7830a714" y="222.854008"/>
      </g>
     </g>
     <g id="text_13">
      <!-- 0.02 -->
      <g transform="translate(20.878125 226.653227)scale(0.1 -0.1)">
       <use xlink:href="#DejaVuSans-48"/>
       <use x="63.623047" xlink:href="#DejaVuSans-46"/>
       <use x="95.410156" xlink:href="#DejaVuSans-48"/>
       <use x="159.033203" xlink:href="#DejaVuSans-50"/>
      </g>
     </g>
    </g>
    <g id="ytick_4">
     <g id="line2d_13">
      <g>
       <use style="stroke:#000000;stroke-width:0.8;" x="50.14375" xlink:href="#m1d7830a714" y="193.270459"/>
      </g>
     </g>
     <g id="text_14">
      <!-- 0.03 -->
      <g transform="translate(20.878125 197.069678)scale(0.1 -0.1)">
       <defs>
        <path d="M 40.578125 39.3125 
Q 47.65625 37.796875 51.625 33 
Q 55.609375 28.21875 55.609375 21.1875 
Q 55.609375 10.40625 48.1875 4.484375 
Q 40.765625 -1.421875 27.09375 -1.421875 
Q 22.515625 -1.421875 17.65625 -0.515625 
Q 12.796875 0.390625 7.625 2.203125 
L 7.625 11.71875 
Q 11.71875 9.328125 16.59375 8.109375 
Q 21.484375 6.890625 26.8125 6.890625 
Q 36.078125 6.890625 40.9375 10.546875 
Q 45.796875 14.203125 45.796875 21.1875 
Q 45.796875 27.640625 41.28125 31.265625 
Q 36.765625 34.90625 28.71875 34.90625 
L 20.21875 34.90625 
L 20.21875 43.015625 
L 29.109375 43.015625 
Q 36.375 43.015625 40.234375 45.921875 
Q 44.09375 48.828125 44.09375 54.296875 
Q 44.09375 59.90625 40.109375 62.90625 
Q 36.140625 65.921875 28.71875 65.921875 
Q 24.65625 65.921875 20.015625 65.03125 
Q 15.375 64.15625 9.8125 62.3125 
L 9.8125 71.09375 
Q 15.4375 72.65625 20.34375 73.4375 
Q 25.25 74.21875 29.59375 74.21875 
Q 40.828125 74.21875 47.359375 69.109375 
Q 53.90625 64.015625 53.90625 55.328125 
Q 53.90625 49.265625 50.4375 45.09375 
Q 46.96875 40.921875 40.578125 39.3125 
z
" id="DejaVuSans-51"/>
       </defs>
       <use xlink:href="#DejaVuSans-48"/>
       <use x="63.623047" xlink:href="#DejaVuSans-46"/>
       <use x="95.410156" xlink:href="#DejaVuSans-48"/>
       <use x="159.033203" xlink:href="#DejaVuSans-51"/>
      </g>
     </g>
    </g>
    <g id="ytick_5">
     <g id="line2d_14">
      <g>
       <use style="stroke:#000000;stroke-width:0.8;" x="50.14375" xlink:href="#m1d7830a714" y="163.68691"/>
      </g>
     </g>
     <g id="text_15">
      <!-- 0.04 -->
      <g transform="translate(20.878125 167.486129)scale(0.1 -0.1)">
       <use xlink:href="#DejaVuSans-48"/>
       <use x="63.623047" xlink:href="#DejaVuSans-46"/>
       <use x="95.410156" xlink:href="#DejaVuSans-48"/>
       <use x="159.033203" xlink:href="#DejaVuSans-52"/>
      </g>
     </g>
    </g>
    <g id="ytick_6">
     <g id="line2d_15">
      <g>
       <use style="stroke:#000000;stroke-width:0.8;" x="50.14375" xlink:href="#m1d7830a714" y="134.103361"/>
      </g>
     </g>
     <g id="text_16">
      <!-- 0.05 -->
      <g transform="translate(20.878125 137.90258)scale(0.1 -0.1)">
       <defs>
        <path d="M 10.796875 72.90625 
L 49.515625 72.90625 
L 49.515625 64.59375 
L 19.828125 64.59375 
L 19.828125 46.734375 
Q 21.96875 47.46875 24.109375 47.828125 
Q 26.265625 48.1875 28.421875 48.1875 
Q 40.625 48.1875 47.75 41.5 
Q 54.890625 34.8125 54.890625 23.390625 
Q 54.890625 11.625 47.5625 5.09375 
Q 40.234375 -1.421875 26.90625 -1.421875 
Q 22.3125 -1.421875 17.546875 -0.640625 
Q 12.796875 0.140625 7.71875 1.703125 
L 7.71875 11.625 
Q 12.109375 9.234375 16.796875 8.0625 
Q 21.484375 6.890625 26.703125 6.890625 
Q 35.15625 6.890625 40.078125 11.328125 
Q 45.015625 15.765625 45.015625 23.390625 
Q 45.015625 31 40.078125 35.4375 
Q 35.15625 39.890625 26.703125 39.890625 
Q 22.75 39.890625 18.8125 39.015625 
Q 14.890625 38.140625 10.796875 36.28125 
z
" id="DejaVuSans-53"/>
       </defs>
       <use xlink:href="#DejaVuSans-48"/>
       <use x="63.623047" xlink:href="#DejaVuSans-46"/>
       <use x="95.410156" xlink:href="#DejaVuSans-48"/>
       <use x="159.033203" xlink:href="#DejaVuSans-53"/>
      </g>
     </g>
    </g>
    <g id="ytick_7">
     <g id="line2d_16">
      <g>
       <use style="stroke:#000000;stroke-width:0.8;" x="50.14375" xlink:href="#m1d7830a714" y="104.519812"/>
      </g>
     </g>
     <g id="text_17">
      <!-- 0.06 -->
      <g transform="translate(20.878125 108.319031)scale(0.1 -0.1)">
       <use xlink:href="#DejaVuSans-48"/>
       <use x="63.623047" xlink:href="#DejaVuSans-46"/>
       <use x="95.410156" xlink:href="#DejaVuSans-48"/>
       <use x="159.033203" xlink:href="#DejaVuSans-54"/>
      </g>
     </g>
    </g>
    <g id="ytick_8">
     <g id="line2d_17">
      <g>
       <use style="stroke:#000000;stroke-width:0.8;" x="50.14375" xlink:href="#m1d7830a714" y="74.936263"/>
      </g>
     </g>
     <g id="text_18">
      <!-- 0.07 -->
      <g transform="translate(20.878125 78.735482)scale(0.1 -0.1)">
       <defs>
        <path d="M 8.203125 72.90625 
L 55.078125 72.90625 
L 55.078125 68.703125 
L 28.609375 0 
L 18.3125 0 
L 43.21875 64.59375 
L 8.203125 64.59375 
z
" id="DejaVuSans-55"/>
       </defs>
       <use xlink:href="#DejaVuSans-48"/>
       <use x="63.623047" xlink:href="#DejaVuSans-46"/>
       <use x="95.410156" xlink:href="#DejaVuSans-48"/>
       <use x="159.033203" xlink:href="#DejaVuSans-55"/>
      </g>
     </g>
    </g>
    <g id="ytick_9">
     <g id="line2d_18">
      <g>
       <use style="stroke:#000000;stroke-width:0.8;" x="50.14375" xlink:href="#m1d7830a714" y="45.352714"/>
      </g>
     </g>
     <g id="text_19">
      <!-- 0.08 -->
      <g transform="translate(20.878125 49.151932)scale(0.1 -0.1)">
       <use xlink:href="#DejaVuSans-48"/>
       <use x="63.623047" xlink:href="#DejaVuSans-46"/>
       <use x="95.410156" xlink:href="#DejaVuSans-48"/>
       <use x="159.033203" xlink:href="#DejaVuSans-56"/>
      </g>
     </g>
    </g>
    <g id="text_20">
     <!-- Absorbance216 -->
     <g transform="translate(14.798438 194.46475)rotate(-90)scale(0.1 -0.1)">
      <defs>
       <path d="M 34.1875 63.1875 
L 20.796875 26.90625 
L 47.609375 26.90625 
z
M 28.609375 72.90625 
L 39.796875 72.90625 
L 67.578125 0 
L 57.328125 0 
L 50.6875 18.703125 
L 17.828125 18.703125 
L 11.1875 0 
L 0.78125 0 
z
" id="DejaVuSans-65"/>
       <path d="M 48.6875 27.296875 
Q 48.6875 37.203125 44.609375 42.84375 
Q 40.53125 48.484375 33.40625 48.484375 
Q 26.265625 48.484375 22.1875 42.84375 
Q 18.109375 37.203125 18.109375 27.296875 
Q 18.109375 17.390625 22.1875 11.75 
Q 26.265625 6.109375 33.40625 6.109375 
Q 40.53125 6.109375 44.609375 11.75 
Q 48.6875 17.390625 48.6875 27.296875 
z
M 18.109375 46.390625 
Q 20.953125 51.265625 25.265625 53.625 
Q 29.59375 56 35.59375 56 
Q 45.5625 56 51.78125 48.09375 
Q 58.015625 40.1875 58.015625 27.296875 
Q 58.015625 14.40625 51.78125 6.484375 
Q 45.5625 -1.421875 35.59375 -1.421875 
Q 29.59375 -1.421875 25.265625 0.953125 
Q 20.953125 3.328125 18.109375 8.203125 
L 18.109375 0 
L 9.078125 0 
L 9.078125 75.984375 
L 18.109375 75.984375 
z
" id="DejaVuSans-98"/>
       <path d="M 30.609375 48.390625 
Q 23.390625 48.390625 19.1875 42.75 
Q 14.984375 37.109375 14.984375 27.296875 
Q 14.984375 17.484375 19.15625 11.84375 
Q 23.34375 6.203125 30.609375 6.203125 
Q 37.796875 6.203125 41.984375 11.859375 
Q 46.1875 17.53125 46.1875 27.296875 
Q 46.1875 37.015625 41.984375 42.703125 
Q 37.796875 48.390625 30.609375 48.390625 
z
M 30.609375 56 
Q 42.328125 56 49.015625 48.375 
Q 55.71875 40.765625 55.71875 27.296875 
Q 55.71875 13.875 49.015625 6.21875 
Q 42.328125 -1.421875 30.609375 -1.421875 
Q 18.84375 -1.421875 12.171875 6.21875 
Q 5.515625 13.875 5.515625 27.296875 
Q 5.515625 40.765625 12.171875 48.375 
Q 18.84375 56 30.609375 56 
z
" id="DejaVuSans-111"/>
       <path d="M 41.109375 46.296875 
Q 39.59375 47.171875 37.8125 47.578125 
Q 36.03125 48 33.890625 48 
Q 26.265625 48 22.1875 43.046875 
Q 18.109375 38.09375 18.109375 28.8125 
L 18.109375 0 
L 9.078125 0 
L 9.078125 54.6875 
L 18.109375 54.6875 
L 18.109375 46.1875 
Q 20.953125 51.171875 25.484375 53.578125 
Q 30.03125 56 36.53125 56 
Q 37.453125 56 38.578125 55.875 
Q 39.703125 55.765625 41.0625 55.515625 
z
" id="DejaVuSans-114"/>
       <path d="M 34.28125 27.484375 
Q 23.390625 27.484375 19.1875 25 
Q 14.984375 22.515625 14.984375 16.5 
Q 14.984375 11.71875 18.140625 8.90625 
Q 21.296875 6.109375 26.703125 6.109375 
Q 34.1875 6.109375 38.703125 11.40625 
Q 43.21875 16.703125 43.21875 25.484375 
L 43.21875 27.484375 
z
M 52.203125 31.203125 
L 52.203125 0 
L 43.21875 0 
L 43.21875 8.296875 
Q 40.140625 3.328125 35.546875 0.953125 
Q 30.953125 -1.421875 24.3125 -1.421875 
Q 15.921875 -1.421875 10.953125 3.296875 
Q 6 8.015625 6 15.921875 
Q 6 25.140625 12.171875 29.828125 
Q 18.359375 34.515625 30.609375 34.515625 
L 43.21875 34.515625 
L 43.21875 35.40625 
Q 43.21875 41.609375 39.140625 45 
Q 35.0625 48.390625 27.6875 48.390625 
Q 23 48.390625 18.546875 47.265625 
Q 14.109375 46.140625 10.015625 43.890625 
L 10.015625 52.203125 
Q 14.9375 54.109375 19.578125 55.046875 
Q 24.21875 56 28.609375 56 
Q 40.484375 56 46.34375 49.84375 
Q 52.203125 43.703125 52.203125 31.203125 
z
" id="DejaVuSans-97"/>
       <path d="M 54.890625 33.015625 
L 54.890625 0 
L 45.90625 0 
L 45.90625 32.71875 
Q 45.90625 40.484375 42.875 44.328125 
Q 39.84375 48.1875 33.796875 48.1875 
Q 26.515625 48.1875 22.3125 43.546875 
Q 18.109375 38.921875 18.109375 30.90625 
L 18.109375 0 
L 9.078125 0 
L 9.078125 54.6875 
L 18.109375 54.6875 
L 18.109375 46.1875 
Q 21.34375 51.125 25.703125 53.5625 
Q 30.078125 56 35.796875 56 
Q 45.21875 56 50.046875 50.171875 
Q 54.890625 44.34375 54.890625 33.015625 
z
" id="DejaVuSans-110"/>
       <path d="M 48.78125 52.59375 
L 48.78125 44.1875 
Q 44.96875 46.296875 41.140625 47.34375 
Q 37.3125 48.390625 33.40625 48.390625 
Q 24.65625 48.390625 19.8125 42.84375 
Q 14.984375 37.3125 14.984375 27.296875 
Q 14.984375 17.28125 19.8125 11.734375 
Q 24.65625 6.203125 33.40625 6.203125 
Q 37.3125 6.203125 41.140625 7.25 
Q 44.96875 8.296875 48.78125 10.40625 
L 48.78125 2.09375 
Q 45.015625 0.34375 40.984375 -0.53125 
Q 36.96875 -1.421875 32.421875 -1.421875 
Q 20.0625 -1.421875 12.78125 6.34375 
Q 5.515625 14.109375 5.515625 27.296875 
Q 5.515625 40.671875 12.859375 48.328125 
Q 20.21875 56 33.015625 56 
Q 37.15625 56 41.109375 55.140625 
Q 45.0625 54.296875 48.78125 52.59375 
z
" id="DejaVuSans-99"/>
      </defs>
      <use xlink:href="#DejaVuSans-65"/>
      <use x="68.408203" xlink:href="#DejaVuSans-98"/>
      <use x="131.884766" xlink:href="#DejaVuSans-115"/>
      <use x="183.984375" xlink:href="#DejaVuSans-111"/>
      <use x="245.166016" xlink:href="#DejaVuSans-114"/>
      <use x="286.279297" xlink:href="#DejaVuSans-98"/>
      <use x="349.755859" xlink:href="#DejaVuSans-97"/>
      <use x="411.035156" xlink:href="#DejaVuSans-110"/>
      <use x="474.414062" xlink:href="#DejaVuSans-99"/>
      <use x="529.394531" xlink:href="#DejaVuSans-101"/>
      <use x="590.917969" xlink:href="#DejaVuSans-50"/>
      <use x="654.541016" xlink:href="#DejaVuSans-49"/>
      <use x="718.164062" xlink:href="#DejaVuSans-54"/>
     </g>
    </g>
   </g>
   <g id="line2d_19">
    <defs>
     <path d="M 0 3 
C 0.795609 3 1.55874 2.683901 2.12132 2.12132 
C 2.683901 1.55874 3 0.795609 3 0 
C 3 -0.795609 2.683901 -1.55874 2.12132 -2.12132 
C 1.55874 -2.683901 0.795609 -3 0 -3 
C -0.795609 -3 -1.55874 -2.683901 -2.12132 -2.12132 
C -2.683901 -1.55874 -3 -0.795609 -3 0 
C -3 0.795609 -2.683901 1.55874 -2.12132 2.12132 
C -1.55874 2.683901 -0.795609 3 0 3 
z
" id="m38bfdbd029" style="stroke:#000000;"/>
    </defs>
    <g clip-path="url(#p5517fa45d5)">
     <use style="stroke:#000000;" x="66.376477" xlink:href="#m38bfdbd029" y="93.716835"/>
     <use style="stroke:#000000;" x="66.376524" xlink:href="#m38bfdbd029" y="93.717656"/>
     <use style="stroke:#000000;" x="66.376992" xlink:href="#m38bfdbd029" y="93.725866"/>
     <use style="stroke:#000000;" x="66.37746" xlink:href="#m38bfdbd029" y="93.734075"/>
     <use style="stroke:#000000;" x="66.37828" xlink:href="#m38bfdbd029" y="93.748447"/>
     <use style="stroke:#000000;" x="66.379687" xlink:href="#m38bfdbd029" y="93.773101"/>
     <use style="stroke:#000000;" x="66.382123" xlink:href="#m38bfdbd029" y="93.81579"/>
     <use style="stroke:#000000;" x="66.386406" xlink:href="#m38bfdbd029" y="93.890787"/>
     <use style="stroke:#000000;" x="66.394574" xlink:href="#m38bfdbd029" y="94.033652"/>
     <use style="stroke:#000000;" x="66.410587" xlink:href="#m38bfdbd029" y="94.313108"/>
     <use style="stroke:#000000;" x="66.426601" xlink:href="#m38bfdbd029" y="94.591734"/>
     <use style="stroke:#000000;" x="66.442614" xlink:href="#m38bfdbd029" y="94.869535"/>
     <use style="stroke:#000000;" x="66.458627" xlink:href="#m38bfdbd029" y="95.146514"/>
     <use style="stroke:#000000;" x="66.474754" xlink:href="#m38bfdbd029" y="95.424622"/>
     <use style="stroke:#000000;" x="66.49088" xlink:href="#m38bfdbd029" y="95.701904"/>
     <use style="stroke:#000000;" x="66.507007" xlink:href="#m38bfdbd029" y="95.978363"/>
     <use style="stroke:#000000;" x="66.551144" xlink:href="#m38bfdbd029" y="96.730823"/>
     <use style="stroke:#000000;" x="66.59528" xlink:href="#m38bfdbd029" y="97.47722"/>
     <use style="stroke:#000000;" x="66.639417" xlink:href="#m38bfdbd029" y="98.217629"/>
     <use style="stroke:#000000;" x="66.683554" xlink:href="#m38bfdbd029" y="98.95212"/>
     <use style="stroke:#000000;" x="66.72769" xlink:href="#m38bfdbd029" y="99.680765"/>
     <use style="stroke:#000000;" x="66.771827" xlink:href="#m38bfdbd029" y="100.403632"/>
     <use style="stroke:#000000;" x="66.815964" xlink:href="#m38bfdbd029" y="101.12079"/>
     <use style="stroke:#000000;" x="66.89528" xlink:href="#m38bfdbd029" y="102.39543"/>
     <use style="stroke:#000000;" x="66.974596" xlink:href="#m38bfdbd029" y="103.652232"/>
     <use style="stroke:#000000;" x="67.053912" xlink:href="#m38bfdbd029" y="104.891569"/>
     <use style="stroke:#000000;" x="67.133228" xlink:href="#m38bfdbd029" y="106.113804"/>
     <use style="stroke:#000000;" x="67.212544" xlink:href="#m38bfdbd029" y="107.319288"/>
     <use style="stroke:#000000;" x="67.29186" xlink:href="#m38bfdbd029" y="108.508361"/>
     <use style="stroke:#000000;" x="67.371176" xlink:href="#m38bfdbd029" y="109.681357"/>
     <use style="stroke:#000000;" x="67.450492" xlink:href="#m38bfdbd029" y="110.838601"/>
     <use style="stroke:#000000;" x="67.579206" xlink:href="#m38bfdbd029" y="112.683848"/>
     <use style="stroke:#000000;" x="67.707919" xlink:href="#m38bfdbd029" y="114.489737"/>
     <use style="stroke:#000000;" x="67.836632" xlink:href="#m38bfdbd029" y="116.257516"/>
     <use style="stroke:#000000;" x="67.965346" xlink:href="#m38bfdbd029" y="117.988378"/>
     <use style="stroke:#000000;" x="68.094059" xlink:href="#m38bfdbd029" y="119.683466"/>
     <use style="stroke:#000000;" x="68.222773" xlink:href="#m38bfdbd029" y="121.343879"/>
     <use style="stroke:#000000;" x="68.351486" xlink:href="#m38bfdbd029" y="122.97067"/>
     <use style="stroke:#000000;" x="68.480199" xlink:href="#m38bfdbd029" y="124.56485"/>
     <use style="stroke:#000000;" x="68.608913" xlink:href="#m38bfdbd029" y="126.12739"/>
     <use style="stroke:#000000;" x="68.817753" xlink:href="#m38bfdbd029" y="128.597708"/>
     <use style="stroke:#000000;" x="69.026593" xlink:href="#m38bfdbd029" y="130.990959"/>
     <use style="stroke:#000000;" x="69.235433" xlink:href="#m38bfdbd029" y="133.310691"/>
     <use style="stroke:#000000;" x="69.444273" xlink:href="#m38bfdbd029" y="135.56024"/>
     <use style="stroke:#000000;" x="69.653113" xlink:href="#m38bfdbd029" y="137.742744"/>
     <use style="stroke:#000000;" x="69.861953" xlink:href="#m38bfdbd029" y="139.861157"/>
     <use style="stroke:#000000;" x="70.070793" xlink:href="#m38bfdbd029" y="141.918263"/>
     <use style="stroke:#000000;" x="70.279633" xlink:href="#m38bfdbd029" y="143.916684"/>
     <use style="stroke:#000000;" x="70.488473" xlink:href="#m38bfdbd029" y="145.858895"/>
     <use style="stroke:#000000;" x="70.697313" xlink:href="#m38bfdbd029" y="147.747237"/>
     <use style="stroke:#000000;" x="70.906153" xlink:href="#m38bfdbd029" y="149.583918"/>
     <use style="stroke:#000000;" x="71.114993" xlink:href="#m38bfdbd029" y="151.371031"/>
     <use style="stroke:#000000;" x="71.323833" xlink:href="#m38bfdbd029" y="153.110555"/>
     <use style="stroke:#000000;" x="71.532673" xlink:href="#m38bfdbd029" y="154.804367"/>
     <use style="stroke:#000000;" x="71.741513" xlink:href="#m38bfdbd029" y="156.454244"/>
     <use style="stroke:#000000;" x="71.950353" xlink:href="#m38bfdbd029" y="158.061875"/>
     <use style="stroke:#000000;" x="72.159193" xlink:href="#m38bfdbd029" y="159.628861"/>
     <use style="stroke:#000000;" x="72.368033" xlink:href="#m38bfdbd029" y="161.156725"/>
     <use style="stroke:#000000;" x="72.576873" xlink:href="#m38bfdbd029" y="162.646913"/>
     <use style="stroke:#000000;" x="72.785713" xlink:href="#m38bfdbd029" y="164.100803"/>
     <use style="stroke:#000000;" x="72.994553" xlink:href="#m38bfdbd029" y="165.519704"/>
     <use style="stroke:#000000;" x="73.203393" xlink:href="#m38bfdbd029" y="166.904864"/>
     <use style="stroke:#000000;" x="73.412233" xlink:href="#m38bfdbd029" y="168.257474"/>
     <use style="stroke:#000000;" x="73.725536" xlink:href="#m38bfdbd029" y="170.228089"/>
     <use style="stroke:#000000;" x="74.03884" xlink:href="#m38bfdbd029" y="172.131597"/>
     <use style="stroke:#000000;" x="74.352143" xlink:href="#m38bfdbd029" y="173.971367"/>
     <use style="stroke:#000000;" x="74.665446" xlink:href="#m38bfdbd029" y="175.750549"/>
     <use style="stroke:#000000;" x="74.97875" xlink:href="#m38bfdbd029" y="177.472087"/>
     <use style="stroke:#000000;" x="75.292053" xlink:href="#m38bfdbd029" y="179.138738"/>
     <use style="stroke:#000000;" x="75.605357" xlink:href="#m38bfdbd029" y="180.753086"/>
     <use style="stroke:#000000;" x="75.91866" xlink:href="#m38bfdbd029" y="182.317554"/>
     <use style="stroke:#000000;" x="76.231963" xlink:href="#m38bfdbd029" y="183.834419"/>
     <use style="stroke:#000000;" x="76.545267" xlink:href="#m38bfdbd029" y="185.305821"/>
     <use style="stroke:#000000;" x="76.85857" xlink:href="#m38bfdbd029" y="186.733775"/>
     <use style="stroke:#000000;" x="77.171874" xlink:href="#m38bfdbd029" y="188.120176"/>
     <use style="stroke:#000000;" x="77.485177" xlink:href="#m38bfdbd029" y="189.466812"/>
     <use style="stroke:#000000;" x="77.79848" xlink:href="#m38bfdbd029" y="190.77537"/>
     <use style="stroke:#000000;" x="78.111784" xlink:href="#m38bfdbd029" y="192.047442"/>
     <use style="stroke:#000000;" x="78.425087" xlink:href="#m38bfdbd029" y="193.284533"/>
     <use style="stroke:#000000;" x="78.73839" xlink:href="#m38bfdbd029" y="194.488068"/>
     <use style="stroke:#000000;" x="79.051694" xlink:href="#m38bfdbd029" y="195.659392"/>
     <use style="stroke:#000000;" x="79.364997" xlink:href="#m38bfdbd029" y="196.799781"/>
     <use style="stroke:#000000;" x="79.678301" xlink:href="#m38bfdbd029" y="197.910446"/>
     <use style="stroke:#000000;" x="79.991604" xlink:href="#m38bfdbd029" y="198.992534"/>
     <use style="stroke:#000000;" x="80.304907" xlink:href="#m38bfdbd029" y="200.047133"/>
     <use style="stroke:#000000;" x="80.618211" xlink:href="#m38bfdbd029" y="201.075278"/>
     <use style="stroke:#000000;" x="80.931514" xlink:href="#m38bfdbd029" y="202.077951"/>
     <use style="stroke:#000000;" x="81.244818" xlink:href="#m38bfdbd029" y="203.056088"/>
     <use style="stroke:#000000;" x="81.722076" xlink:href="#m38bfdbd029" y="204.500936"/>
     <use style="stroke:#000000;" x="82.199335" xlink:href="#m38bfdbd029" y="205.893859"/>
     <use style="stroke:#000000;" x="82.676594" xlink:href="#m38bfdbd029" y="207.237609"/>
     <use style="stroke:#000000;" x="83.153853" xlink:href="#m38bfdbd029" y="208.534743"/>
     <use style="stroke:#000000;" x="83.631111" xlink:href="#m38bfdbd029" y="209.787647"/>
     <use style="stroke:#000000;" x="84.10837" xlink:href="#m38bfdbd029" y="210.998544"/>
     <use style="stroke:#000000;" x="84.585629" xlink:href="#m38bfdbd029" y="212.169513"/>
     <use style="stroke:#000000;" x="85.062888" xlink:href="#m38bfdbd029" y="213.302495"/>
     <use style="stroke:#000000;" x="85.540146" xlink:href="#m38bfdbd029" y="214.399311"/>
     <use style="stroke:#000000;" x="86.017405" xlink:href="#m38bfdbd029" y="215.461664"/>
     <use style="stroke:#000000;" x="86.494664" xlink:href="#m38bfdbd029" y="216.491154"/>
     <use style="stroke:#000000;" x="86.971923" xlink:href="#m38bfdbd029" y="217.489282"/>
     <use style="stroke:#000000;" x="87.449181" xlink:href="#m38bfdbd029" y="218.45746"/>
     <use style="stroke:#000000;" x="87.92644" xlink:href="#m38bfdbd029" y="219.397017"/>
     <use style="stroke:#000000;" x="88.403699" xlink:href="#m38bfdbd029" y="220.309202"/>
     <use style="stroke:#000000;" x="88.880958" xlink:href="#m38bfdbd029" y="221.195194"/>
     <use style="stroke:#000000;" x="89.358216" xlink:href="#m38bfdbd029" y="222.056107"/>
     <use style="stroke:#000000;" x="89.835475" xlink:href="#m38bfdbd029" y="222.892989"/>
     <use style="stroke:#000000;" x="90.312734" xlink:href="#m38bfdbd029" y="223.706834"/>
     <use style="stroke:#000000;" x="90.789992" xlink:href="#m38bfdbd029" y="224.498579"/>
     <use style="stroke:#000000;" x="91.267251" xlink:href="#m38bfdbd029" y="225.269113"/>
     <use style="stroke:#000000;" x="91.74451" xlink:href="#m38bfdbd029" y="226.019276"/>
     <use style="stroke:#000000;" x="92.221769" xlink:href="#m38bfdbd029" y="226.749867"/>
     <use style="stroke:#000000;" x="92.939049" xlink:href="#m38bfdbd029" y="227.81272"/>
     <use style="stroke:#000000;" x="93.656329" xlink:href="#m38bfdbd029" y="228.835467"/>
     <use style="stroke:#000000;" x="94.37361" xlink:href="#m38bfdbd029" y="229.820337"/>
     <use style="stroke:#000000;" x="95.09089" xlink:href="#m38bfdbd029" y="230.769395"/>
     <use style="stroke:#000000;" x="95.808171" xlink:href="#m38bfdbd029" y="231.68456"/>
     <use style="stroke:#000000;" x="96.525451" xlink:href="#m38bfdbd029" y="232.567615"/>
     <use style="stroke:#000000;" x="97.242731" xlink:href="#m38bfdbd029" y="233.420221"/>
     <use style="stroke:#000000;" x="97.960012" xlink:href="#m38bfdbd029" y="234.243927"/>
     <use style="stroke:#000000;" x="98.677292" xlink:href="#m38bfdbd029" y="235.040178"/>
     <use style="stroke:#000000;" x="99.394572" xlink:href="#m38bfdbd029" y="235.810323"/>
     <use style="stroke:#000000;" x="100.111853" xlink:href="#m38bfdbd029" y="236.555626"/>
     <use style="stroke:#000000;" x="100.829133" xlink:href="#m38bfdbd029" y="237.277269"/>
     <use style="stroke:#000000;" x="101.546413" xlink:href="#m38bfdbd029" y="237.976362"/>
     <use style="stroke:#000000;" x="102.263694" xlink:href="#m38bfdbd029" y="238.653945"/>
     <use style="stroke:#000000;" x="102.980974" xlink:href="#m38bfdbd029" y="239.310996"/>
     <use style="stroke:#000000;" x="103.698255" xlink:href="#m38bfdbd029" y="239.948435"/>
     <use style="stroke:#000000;" x="104.415535" xlink:href="#m38bfdbd029" y="240.567126"/>
     <use style="stroke:#000000;" x="105.132815" xlink:href="#m38bfdbd029" y="241.167885"/>
     <use style="stroke:#000000;" x="105.850096" xlink:href="#m38bfdbd029" y="241.75148"/>
     <use style="stroke:#000000;" x="106.567376" xlink:href="#m38bfdbd029" y="242.318636"/>
     <use style="stroke:#000000;" x="107.284656" xlink:href="#m38bfdbd029" y="242.870039"/>
     <use style="stroke:#000000;" x="108.001937" xlink:href="#m38bfdbd029" y="243.406335"/>
     <use style="stroke:#000000;" x="109.085207" xlink:href="#m38bfdbd029" y="244.188988"/>
     <use style="stroke:#000000;" x="110.168476" xlink:href="#m38bfdbd029" y="244.940545"/>
     <use style="stroke:#000000;" x="111.251746" xlink:href="#m38bfdbd029" y="245.662824"/>
     <use style="stroke:#000000;" x="112.335016" xlink:href="#m38bfdbd029" y="246.357502"/>
     <use style="stroke:#000000;" x="113.418286" xlink:href="#m38bfdbd029" y="247.026132"/>
     <use style="stroke:#000000;" x="114.501555" xlink:href="#m38bfdbd029" y="247.670153"/>
     <use style="stroke:#000000;" x="115.584825" xlink:href="#m38bfdbd029" y="248.290898"/>
     <use style="stroke:#000000;" x="116.668095" xlink:href="#m38bfdbd029" y="248.889606"/>
     <use style="stroke:#000000;" x="117.751365" xlink:href="#m38bfdbd029" y="249.467431"/>
     <use style="stroke:#000000;" x="118.834634" xlink:href="#m38bfdbd029" y="250.025447"/>
     <use style="stroke:#000000;" x="119.917904" xlink:href="#m38bfdbd029" y="250.564654"/>
     <use style="stroke:#000000;" x="121.001174" xlink:href="#m38bfdbd029" y="251.085989"/>
     <use style="stroke:#000000;" x="122.084444" xlink:href="#m38bfdbd029" y="251.590325"/>
     <use style="stroke:#000000;" x="123.167713" xlink:href="#m38bfdbd029" y="252.078481"/>
     <use style="stroke:#000000;" x="124.250983" xlink:href="#m38bfdbd029" y="252.551222"/>
     <use style="stroke:#000000;" x="125.334253" xlink:href="#m38bfdbd029" y="253.009268"/>
     <use style="stroke:#000000;" x="126.417523" xlink:href="#m38bfdbd029" y="253.453293"/>
     <use style="stroke:#000000;" x="127.500792" xlink:href="#m38bfdbd029" y="253.883932"/>
     <use style="stroke:#000000;" x="128.584062" xlink:href="#m38bfdbd029" y="254.30178"/>
     <use style="stroke:#000000;" x="129.667332" xlink:href="#m38bfdbd029" y="254.707399"/>
     <use style="stroke:#000000;" x="130.750602" xlink:href="#m38bfdbd029" y="255.101319"/>
     <use style="stroke:#000000;" x="132.391548" xlink:href="#m38bfdbd029" y="255.676852"/>
     <use style="stroke:#000000;" x="134.032495" xlink:href="#m38bfdbd029" y="256.228291"/>
     <use style="stroke:#000000;" x="135.673442" xlink:href="#m38bfdbd029" y="256.757118"/>
     <use style="stroke:#000000;" x="137.314388" xlink:href="#m38bfdbd029" y="257.264696"/>
     <use style="stroke:#000000;" x="138.955335" xlink:href="#m38bfdbd029" y="257.75228"/>
     <use style="stroke:#000000;" x="140.596282" xlink:href="#m38bfdbd029" y="258.221029"/>
     <use style="stroke:#000000;" x="142.237229" xlink:href="#m38bfdbd029" y="258.672013"/>
     <use style="stroke:#000000;" x="143.878175" xlink:href="#m38bfdbd029" y="259.106224"/>
     <use style="stroke:#000000;" x="145.519122" xlink:href="#m38bfdbd029" y="259.52458"/>
     <use style="stroke:#000000;" x="147.160069" xlink:href="#m38bfdbd029" y="259.927934"/>
     <use style="stroke:#000000;" x="148.801015" xlink:href="#m38bfdbd029" y="260.317079"/>
     <use style="stroke:#000000;" x="150.441962" xlink:href="#m38bfdbd029" y="260.692753"/>
     <use style="stroke:#000000;" x="152.082909" xlink:href="#m38bfdbd029" y="261.055643"/>
     <use style="stroke:#000000;" x="153.723855" xlink:href="#m38bfdbd029" y="261.406391"/>
     <use style="stroke:#000000;" x="155.364802" xlink:href="#m38bfdbd029" y="261.745596"/>
     <use style="stroke:#000000;" x="157.005749" xlink:href="#m38bfdbd029" y="262.073818"/>
     <use style="stroke:#000000;" x="158.646695" xlink:href="#m38bfdbd029" y="262.391584"/>
     <use style="stroke:#000000;" x="160.287642" xlink:href="#m38bfdbd029" y="262.699384"/>
     <use style="stroke:#000000;" x="161.928589" xlink:href="#m38bfdbd029" y="262.99768"/>
     <use style="stroke:#000000;" x="163.569535" xlink:href="#m38bfdbd029" y="263.286906"/>
     <use style="stroke:#000000;" x="166.069197" xlink:href="#m38bfdbd029" y="263.710965"/>
     <use style="stroke:#000000;" x="168.56886" xlink:href="#m38bfdbd029" y="264.116252"/>
     <use style="stroke:#000000;" x="171.068522" xlink:href="#m38bfdbd029" y="264.503985"/>
     <use style="stroke:#000000;" x="173.568184" xlink:href="#m38bfdbd029" y="264.875281"/>
     <use style="stroke:#000000;" x="176.067846" xlink:href="#m38bfdbd029" y="265.231164"/>
     <use style="stroke:#000000;" x="178.567508" xlink:href="#m38bfdbd029" y="265.572574"/>
     <use style="stroke:#000000;" x="181.06717" xlink:href="#m38bfdbd029" y="265.900376"/>
     <use style="stroke:#000000;" x="183.566832" xlink:href="#m38bfdbd029" y="266.215368"/>
     <use style="stroke:#000000;" x="186.066494" xlink:href="#m38bfdbd029" y="266.518286"/>
     <use style="stroke:#000000;" x="188.566156" xlink:href="#m38bfdbd029" y="266.809812"/>
     <use style="stroke:#000000;" x="191.065818" xlink:href="#m38bfdbd029" y="267.090576"/>
     <use style="stroke:#000000;" x="193.56548" xlink:href="#m38bfdbd029" y="267.361163"/>
     <use style="stroke:#000000;" x="196.065142" xlink:href="#m38bfdbd029" y="267.622117"/>
     <use style="stroke:#000000;" x="198.564804" xlink:href="#m38bfdbd029" y="267.873943"/>
     <use style="stroke:#000000;" x="201.064466" xlink:href="#m38bfdbd029" y="268.117113"/>
     <use style="stroke:#000000;" x="203.564128" xlink:href="#m38bfdbd029" y="268.352064"/>
     <use style="stroke:#000000;" x="206.06379" xlink:href="#m38bfdbd029" y="268.579207"/>
     <use style="stroke:#000000;" x="208.563452" xlink:href="#m38bfdbd029" y="268.798924"/>
     <use style="stroke:#000000;" x="211.063114" xlink:href="#m38bfdbd029" y="269.011573"/>
     <use style="stroke:#000000;" x="214.82661" xlink:href="#m38bfdbd029" y="269.319142"/>
     <use style="stroke:#000000;" x="218.590106" xlink:href="#m38bfdbd029" y="269.612504"/>
     <use style="stroke:#000000;" x="222.353602" xlink:href="#m38bfdbd029" y="269.892621"/>
     <use style="stroke:#000000;" x="226.117098" xlink:href="#m38bfdbd029" y="270.16037"/>
     <use style="stroke:#000000;" x="229.880594" xlink:href="#m38bfdbd029" y="270.416552"/>
     <use style="stroke:#000000;" x="233.64409" xlink:href="#m38bfdbd029" y="270.661903"/>
     <use style="stroke:#000000;" x="237.407586" xlink:href="#m38bfdbd029" y="270.897093"/>
     <use style="stroke:#000000;" x="241.171081" xlink:href="#m38bfdbd029" y="271.122741"/>
     <use style="stroke:#000000;" x="244.934577" xlink:href="#m38bfdbd029" y="271.339418"/>
     <use style="stroke:#000000;" x="248.698073" xlink:href="#m38bfdbd029" y="271.547646"/>
     <use style="stroke:#000000;" x="252.461569" xlink:href="#m38bfdbd029" y="271.747911"/>
     <use style="stroke:#000000;" x="256.225065" xlink:href="#m38bfdbd029" y="271.940662"/>
     <use style="stroke:#000000;" x="259.988561" xlink:href="#m38bfdbd029" y="272.126312"/>
     <use style="stroke:#000000;" x="263.752057" xlink:href="#m38bfdbd029" y="272.305248"/>
     <use style="stroke:#000000;" x="267.515553" xlink:href="#m38bfdbd029" y="272.477828"/>
     <use style="stroke:#000000;" x="271.279049" xlink:href="#m38bfdbd029" y="272.644383"/>
     <use style="stroke:#000000;" x="275.042544" xlink:href="#m38bfdbd029" y="272.805225"/>
     <use style="stroke:#000000;" x="278.80604" xlink:href="#m38bfdbd029" y="272.960641"/>
     <use style="stroke:#000000;" x="284.49112" xlink:href="#m38bfdbd029" y="273.185718"/>
     <use style="stroke:#000000;" x="290.176199" xlink:href="#m38bfdbd029" y="273.399883"/>
     <use style="stroke:#000000;" x="295.861279" xlink:href="#m38bfdbd029" y="273.603912"/>
     <use style="stroke:#000000;" x="301.546358" xlink:href="#m38bfdbd029" y="273.798507"/>
    </g>
   </g>
   <g id="line2d_20">
    <path clip-path="url(#p5517fa45d5)" d="M 66.376477 85.321648 
L 67.40271 104.146633 
L 68.490165 120.523361 
L 69.746953 136.053884 
L 71.003742 148.858656 
L 72.26053 159.597494 
L 73.517966 168.737481 
L 75.09057 178.411241 
L 76.663174 186.562503 
L 78.235778 193.524512 
L 79.808382 199.539866 
L 81.702453 205.781248 
L 83.596525 211.144365 
L 85.490596 215.802429 
L 87.384667 219.885907 
L 89.278739 223.494948 
L 91.182754 226.723636 
L 93.328499 229.960233 
L 95.474245 232.838861 
L 97.61999 235.415798 
L 100.480984 238.459041 
L 103.341978 241.129176 
L 106.226779 243.509363 
L 109.481107 245.882308 
L 112.735435 247.979782 
L 115.989763 249.847123 
L 120.328867 252.039929 
L 124.667971 253.95289 
L 129.076786 255.661763 
L 134.062843 257.359784 
L 139.048901 258.852268 
L 145.696978 260.582209 
L 152.345055 262.07175 
L 159.882968 263.528547 
L 167.538535 264.805337 
L 177.745958 266.256579 
L 187.953381 267.482164 
L 200.712659 268.769896 
L 214.912787 269.958898 
L 230.443817 271.036859 
L 249.857604 272.140591 
L 271.357019 273.129975 
L 295.23056 274.019668 
L 325.072487 274.909231 
L 363.943566 275.808845 
L 391.031023 276.312082 
L 391.031023 276.312082 
" style="fill:none;stroke:#0000ff;stroke-linecap:square;stroke-width:1.5;"/>
   </g>
   <g id="line2d_21">
    <path clip-path="url(#p5517fa45d5)" d="M 66.376477 85.7289 
L 67.977487 97.629332 
L 69.688513 108.848987 
L 71.251063 117.964692 
L 73.394803 129.014201 
L 75.538543 138.668822 
L 77.682283 147.177058 
L 79.826023 154.731679 
L 81.969763 161.484524 
L 83.846396 166.833804 
L 86.260684 173.054908 
L 88.674973 178.63833 
L 91.089262 183.677347 
L 93.50355 188.24789 
L 95.917839 192.412394 
L 98.332128 196.222671 
L 100.746417 199.722078 
L 103.169577 202.958556 
L 106.804318 207.362503 
L 110.439059 211.301655 
L 114.0738 214.84591 
L 117.708541 218.051822 
L 121.343282 220.965635 
L 124.978023 223.625533 
L 128.019688 225.679545 
L 131.679857 227.967428 
L 137.170111 231.07083 
L 142.660365 233.837195 
L 148.150618 236.318604 
L 153.640872 238.55693 
L 159.131126 240.586227 
L 165.566883 242.736249 
L 173.893648 245.207714 
L 182.220412 247.3866 
L 190.547177 249.321958 
L 198.873942 251.052457 
L 209.976295 253.093635 
L 218.303059 254.456248 
L 231.060819 256.311696 
L 243.818578 257.933099 
L 256.576338 259.362114 
L 273.586684 261.023044 
L 290.59703 262.457098 
L 312.161106 264.015928 
L 331.749462 265.231148 
L 357.867269 266.617333 
L 383.985077 267.79208 
L 383.985077 267.79208 
" style="fill:none;stroke:#ff0000;stroke-linecap:square;stroke-width:1.5;"/>
   </g>
   <g id="line2d_22">
    <path clip-path="url(#p5517fa45d5)" d="M 66.376477 34.414125 
L 67.29186 59.151694 
L 68.222773 79.067753 
L 69.235433 96.501894 
L 70.279633 111.161425 
L 71.532673 125.544651 
L 72.785713 137.404107 
L 74.03884 147.388795 
L 75.605357 157.918814 
L 77.171874 166.807617 
L 78.73839 174.429572 
L 80.304907 181.061798 
L 82.199335 188.022919 
L 84.10837 194.098366 
L 86.017405 199.41901 
L 87.92644 204.120003 
L 89.835475 208.304176 
L 92.221769 212.931772 
L 94.37361 216.631473 
L 96.525451 219.951529 
L 98.677292 222.94811 
L 101.546413 226.517897 
L 104.415535 229.675403 
L 107.284656 232.49803 
L 110.168476 235.035598 
L 113.418286 237.603998 
L 116.668095 239.904693 
L 119.917904 241.978412 
L 124.250983 244.444715 
L 128.584062 246.622466 
L 132.391548 248.342 
L 137.314388 250.328158 
L 142.237229 252.092746 
L 148.801015 254.16069 
L 155.364802 255.961329 
L 161.928589 257.542151 
L 168.56886 258.957488 
L 176.067846 260.372564 
L 186.066494 262.009335 
L 196.065142 263.415886 
L 208.563452 264.91644 
L 218.590106 265.958657 
L 233.64409 267.302386 
L 248.698073 268.438718 
L 267.515553 269.63314 
L 284.49112 270.545149 
L 301.546358 271.33579 
L 301.546358 271.33579 
" style="fill:none;stroke:#0000ff;stroke-dasharray:5.55,2.4;stroke-dashoffset:0;stroke-width:1.5;"/>
   </g>
   <g id="line2d_23">
    <path clip-path="url(#p5517fa45d5)" d="M 66.376477 125.762682 
L 67.836632 143.288113 
L 69.235433 157.609614 
L 70.697313 170.283027 
L 72.159193 180.970251 
L 73.412233 188.798715 
L 74.97875 197.173173 
L 76.545267 204.265105 
L 78.111784 210.322278 
L 79.678301 215.54304 
L 81.244818 220.083598 
L 83.153853 224.863234 
L 85.062888 228.976358 
L 86.971923 232.546533 
L 88.880958 235.676076 
L 90.789992 238.434337 
L 92.939049 241.180569 
L 95.09089 243.607447 
L 97.242731 245.764989 
L 100.111853 248.293513 
L 102.980974 250.495001 
L 105.850096 252.426232 
L 109.085207 254.341937 
L 112.335016 256.032694 
L 116.668095 257.991311 
L 121.001174 259.676226 
L 125.334253 261.141001 
L 130.750602 262.724053 
L 137.314388 264.346769 
L 143.878175 265.718351 
L 152.082909 267.160402 
L 160.287642 268.367844 
L 168.56886 269.402835 
L 178.567508 270.461715 
L 191.065818 271.55954 
L 206.06379 272.628821 
L 222.353602 273.568873 
L 241.171081 274.443808 
L 263.752057 275.281437 
L 290.176199 276.053512 
L 301.546358 276.334125 
L 301.546358 276.334125 
" style="fill:none;stroke:#0000ff;stroke-dasharray:5.55,2.4;stroke-dashoffset:0;stroke-width:1.5;"/>
   </g>
   <g id="line2d_24"/>
   <g id="line2d_25"/>
   <g id="line2d_26"/>
   <g id="line2d_27"/>
   <g id="patch_3">
    <path d="M 50.14375 288.430125 
L 50.14375 22.318125 
" style="fill:none;stroke:#000000;stroke-linecap:square;stroke-linejoin:miter;stroke-width:0.8;"/>
   </g>
   <g id="patch_4">
    <path d="M 407.26375 288.430125 
L 407.26375 22.318125 
" style="fill:none;stroke:#000000;stroke-linecap:square;stroke-linejoin:miter;stroke-width:0.8;"/>
   </g>
   <g id="patch_5">
    <path d="M 50.14375 288.430125 
L 407.26375 288.430125 
" style="fill:none;stroke:#000000;stroke-linecap:square;stroke-linejoin:miter;stroke-width:0.8;"/>
   </g>
   <g id="patch_6">
    <path d="M 50.14375 22.318125 
L 407.26375 22.318125 
" style="fill:none;stroke:#000000;stroke-linecap:square;stroke-linejoin:miter;stroke-width:0.8;"/>
   </g>
   <g id="text_21">
    <!-- Experiment_111 -->
    <g transform="translate(179.583438 16.318125)scale(0.12 -0.12)">
     <defs>
      <path d="M 9.8125 72.90625 
L 55.90625 72.90625 
L 55.90625 64.59375 
L 19.671875 64.59375 
L 19.671875 43.015625 
L 54.390625 43.015625 
L 54.390625 34.71875 
L 19.671875 34.71875 
L 19.671875 8.296875 
L 56.78125 8.296875 
L 56.78125 0 
L 9.8125 0 
z
" id="DejaVuSans-69"/>
      <path d="M 54.890625 54.6875 
L 35.109375 28.078125 
L 55.90625 0 
L 45.3125 0 
L 29.390625 21.484375 
L 13.484375 0 
L 2.875 0 
L 24.125 28.609375 
L 4.6875 54.6875 
L 15.28125 54.6875 
L 29.78125 35.203125 
L 44.28125 54.6875 
z
" id="DejaVuSans-120"/>
      <path d="M 18.109375 8.203125 
L 18.109375 -20.796875 
L 9.078125 -20.796875 
L 9.078125 54.6875 
L 18.109375 54.6875 
L 18.109375 46.390625 
Q 20.953125 51.265625 25.265625 53.625 
Q 29.59375 56 35.59375 56 
Q 45.5625 56 51.78125 48.09375 
Q 58.015625 40.1875 58.015625 27.296875 
Q 58.015625 14.40625 51.78125 6.484375 
Q 45.5625 -1.421875 35.59375 -1.421875 
Q 29.59375 -1.421875 25.265625 0.953125 
Q 20.953125 3.328125 18.109375 8.203125 
z
M 48.6875 27.296875 
Q 48.6875 37.203125 44.609375 42.84375 
Q 40.53125 48.484375 33.40625 48.484375 
Q 26.265625 48.484375 22.1875 42.84375 
Q 18.109375 37.203125 18.109375 27.296875 
Q 18.109375 17.390625 22.1875 11.75 
Q 26.265625 6.109375 33.40625 6.109375 
Q 40.53125 6.109375 44.609375 11.75 
Q 48.6875 17.390625 48.6875 27.296875 
z
" id="DejaVuSans-112"/>
      <path d="M 18.3125 70.21875 
L 18.3125 54.6875 
L 36.8125 54.6875 
L 36.8125 47.703125 
L 18.3125 47.703125 
L 18.3125 18.015625 
Q 18.3125 11.328125 20.140625 9.421875 
Q 21.96875 7.515625 27.59375 7.515625 
L 36.8125 7.515625 
L 36.8125 0 
L 27.59375 0 
Q 17.1875 0 13.234375 3.875 
Q 9.28125 7.765625 9.28125 18.015625 
L 9.28125 47.703125 
L 2.6875 47.703125 
L 2.6875 54.6875 
L 9.28125 54.6875 
L 9.28125 70.21875 
z
" id="DejaVuSans-116"/>
      <path d="M 50.984375 -16.609375 
L 50.984375 -23.578125 
L -0.984375 -23.578125 
L -0.984375 -16.609375 
z
" id="DejaVuSans-95"/>
     </defs>
     <use xlink:href="#DejaVuSans-69"/>
     <use x="63.183594" xlink:href="#DejaVuSans-120"/>
     <use x="122.363281" xlink:href="#DejaVuSans-112"/>
     <use x="185.839844" xlink:href="#DejaVuSans-101"/>
     <use x="247.363281" xlink:href="#DejaVuSans-114"/>
     <use x="288.476562" xlink:href="#DejaVuSans-105"/>
     <use x="316.259766" xlink:href="#DejaVuSans-109"/>
     <use x="413.671875" xlink:href="#DejaVuSans-101"/>
     <use x="475.195312" xlink:href="#DejaVuSans-110"/>
     <use x="538.574219" xlink:href="#DejaVuSans-116"/>
     <use x="577.783203" xlink:href="#DejaVuSans-95"/>
     <use x="627.783203" xlink:href="#DejaVuSans-49"/>
     <use x="691.40625" xlink:href="#DejaVuSans-49"/>
     <use x="755.029297" xlink:href="#DejaVuSans-49"/>
    </g>
   </g>
   <g id="legend_1">
    <g id="patch_7">
     <path d="M 65.284062 89.0525 
L 400.26375 89.0525 
Q 402.26375 89.0525 402.26375 87.0525 
L 402.26375 29.318125 
Q 402.26375 27.318125 400.26375 27.318125 
L 65.284062 27.318125 
Q 63.284062 27.318125 63.284062 29.318125 
L 63.284062 87.0525 
Q 63.284062 89.0525 65.284062 89.0525 
z
" style="fill:#ffffff;opacity:0.8;stroke:#cccccc;stroke-linejoin:miter;"/>
    </g>
    <g id="line2d_28"/>
    <g id="line2d_29">
     <g>
      <use style="stroke:#000000;" x="77.284062" xlink:href="#m38bfdbd029" y="35.416562"/>
     </g>
    </g>
    <g id="text_22">
     <!-- Experimental Data -->
     <g transform="translate(95.284062 38.916562)scale(0.1 -0.1)">
      <defs>
       <path d="M 9.421875 75.984375 
L 18.40625 75.984375 
L 18.40625 0 
L 9.421875 0 
z
" id="DejaVuSans-108"/>
       <path d="M 19.671875 64.796875 
L 19.671875 8.109375 
L 31.59375 8.109375 
Q 46.6875 8.109375 53.6875 14.9375 
Q 60.6875 21.78125 60.6875 36.53125 
Q 60.6875 51.171875 53.6875 57.984375 
Q 46.6875 64.796875 31.59375 64.796875 
z
M 9.8125 72.90625 
L 30.078125 72.90625 
Q 51.265625 72.90625 61.171875 64.09375 
Q 71.09375 55.28125 71.09375 36.53125 
Q 71.09375 17.671875 61.125 8.828125 
Q 51.171875 0 30.078125 0 
L 9.8125 0 
z
" id="DejaVuSans-68"/>
      </defs>
      <use xlink:href="#DejaVuSans-69"/>
      <use x="63.183594" xlink:href="#DejaVuSans-120"/>
      <use x="122.363281" xlink:href="#DejaVuSans-112"/>
      <use x="185.839844" xlink:href="#DejaVuSans-101"/>
      <use x="247.363281" xlink:href="#DejaVuSans-114"/>
      <use x="288.476562" xlink:href="#DejaVuSans-105"/>
      <use x="316.259766" xlink:href="#DejaVuSans-109"/>
      <use x="413.671875" xlink:href="#DejaVuSans-101"/>
      <use x="475.195312" xlink:href="#DejaVuSans-110"/>
      <use x="538.574219" xlink:href="#DejaVuSans-116"/>
      <use x="577.783203" xlink:href="#DejaVuSans-97"/>
      <use x="639.0625" xlink:href="#DejaVuSans-108"/>
      <use x="666.845703" xlink:href="#DejaVuSans-32"/>
      <use x="698.632812" xlink:href="#DejaVuSans-68"/>
      <use x="775.634766" xlink:href="#DejaVuSans-97"/>
      <use x="836.914062" xlink:href="#DejaVuSans-116"/>
      <use x="876.123047" xlink:href="#DejaVuSans-97"/>
     </g>
    </g>
    <g id="line2d_30">
     <path d="M 67.284062 50.094688 
L 87.284062 50.094688 
" style="fill:none;stroke:#0000ff;stroke-linecap:square;stroke-width:1.5;"/>
    </g>
    <g id="line2d_31"/>
    <g id="text_23">
     <!-- MSI -->
     <g transform="translate(95.284062 53.594688)scale(0.1 -0.1)">
      <defs>
       <path d="M 9.8125 72.90625 
L 24.515625 72.90625 
L 43.109375 23.296875 
L 61.8125 72.90625 
L 76.515625 72.90625 
L 76.515625 0 
L 66.890625 0 
L 66.890625 64.015625 
L 48.09375 14.015625 
L 38.1875 14.015625 
L 19.390625 64.015625 
L 19.390625 0 
L 9.8125 0 
z
" id="DejaVuSans-77"/>
       <path d="M 53.515625 70.515625 
L 53.515625 60.890625 
Q 47.90625 63.578125 42.921875 64.890625 
Q 37.9375 66.21875 33.296875 66.21875 
Q 25.25 66.21875 20.875 63.09375 
Q 16.5 59.96875 16.5 54.203125 
Q 16.5 49.359375 19.40625 46.890625 
Q 22.3125 44.4375 30.421875 42.921875 
L 36.375 41.703125 
Q 47.40625 39.59375 52.65625 34.296875 
Q 57.90625 29 57.90625 20.125 
Q 57.90625 9.515625 50.796875 4.046875 
Q 43.703125 -1.421875 29.984375 -1.421875 
Q 24.8125 -1.421875 18.96875 -0.25 
Q 13.140625 0.921875 6.890625 3.21875 
L 6.890625 13.375 
Q 12.890625 10.015625 18.65625 8.296875 
Q 24.421875 6.59375 29.984375 6.59375 
Q 38.421875 6.59375 43.015625 9.90625 
Q 47.609375 13.234375 47.609375 19.390625 
Q 47.609375 24.75 44.3125 27.78125 
Q 41.015625 30.8125 33.5 32.328125 
L 27.484375 33.5 
Q 16.453125 35.6875 11.515625 40.375 
Q 6.59375 45.0625 6.59375 53.421875 
Q 6.59375 63.09375 13.40625 68.65625 
Q 20.21875 74.21875 32.171875 74.21875 
Q 37.3125 74.21875 42.625 73.28125 
Q 47.953125 72.359375 53.515625 70.515625 
z
" id="DejaVuSans-83"/>
       <path d="M 9.8125 72.90625 
L 19.671875 72.90625 
L 19.671875 0 
L 9.8125 0 
z
" id="DejaVuSans-73"/>
      </defs>
      <use xlink:href="#DejaVuSans-77"/>
      <use x="86.279297" xlink:href="#DejaVuSans-83"/>
      <use x="149.755859" xlink:href="#DejaVuSans-73"/>
     </g>
    </g>
    <g id="line2d_32">
     <path d="M 67.284062 64.774375 
L 87.284062 64.774375 
" style="fill:none;stroke:#ff0000;stroke-linecap:square;stroke-width:1.5;"/>
    </g>
    <g id="line2d_33"/>
    <g id="text_24">
     <!-- $\it{A priori}$ model -->
     <g transform="translate(95.284062 68.274375)scale(0.1 -0.1)">
      <defs>
       <path d="M 36.8125 72.90625 
L 48 72.90625 
L 61.53125 0 
L 51.21875 0 
L 48.1875 18.703125 
L 15.375 18.703125 
L 5.078125 0 
L -5.328125 0 
z
M 40.375 63.1875 
L 19.921875 26.90625 
L 46.6875 26.90625 
z
" id="DejaVuSans-Oblique-65"/>
       <path d="M 49.609375 33.6875 
Q 49.609375 40.875 46.484375 44.671875 
Q 43.359375 48.484375 37.5 48.484375 
Q 33.5 48.484375 29.859375 46.4375 
Q 26.21875 44.390625 23.390625 40.484375 
Q 20.609375 36.625 18.9375 31.15625 
Q 17.28125 25.6875 17.28125 20.3125 
Q 17.28125 13.484375 20.40625 9.796875 
Q 23.53125 6.109375 29.296875 6.109375 
Q 33.546875 6.109375 37.1875 8.109375 
Q 40.828125 10.109375 43.40625 13.921875 
Q 46.1875 17.921875 47.890625 23.34375 
Q 49.609375 28.765625 49.609375 33.6875 
z
M 21.78125 46.390625 
Q 25.390625 51.125 30.296875 53.5625 
Q 35.203125 56 41.21875 56 
Q 49.609375 56 54.25 50.5 
Q 58.890625 45.015625 58.890625 35.109375 
Q 58.890625 27 56 19.65625 
Q 53.125 12.3125 47.703125 6.5 
Q 44.09375 2.640625 39.546875 0.609375 
Q 35.015625 -1.421875 29.984375 -1.421875 
Q 24.171875 -1.421875 20.21875 1 
Q 16.265625 3.421875 14.3125 8.203125 
L 8.6875 -20.796875 
L -0.296875 -20.796875 
L 14.40625 54.6875 
L 23.390625 54.6875 
z
" id="DejaVuSans-Oblique-112"/>
       <path d="M 44.578125 46.390625 
Q 43.21875 47.125 41.453125 47.515625 
Q 39.703125 47.90625 37.703125 47.90625 
Q 30.515625 47.90625 25.140625 42.453125 
Q 19.78125 37.015625 18.015625 27.875 
L 12.5 0 
L 3.515625 0 
L 14.203125 54.6875 
L 23.1875 54.6875 
L 21.484375 46.1875 
Q 25.046875 50.921875 30 53.453125 
Q 34.96875 56 40.578125 56 
Q 42.046875 56 43.453125 55.828125 
Q 44.875 55.671875 46.296875 55.28125 
z
" id="DejaVuSans-Oblique-114"/>
       <path d="M 18.3125 75.984375 
L 27.296875 75.984375 
L 25.09375 64.59375 
L 16.109375 64.59375 
z
M 14.203125 54.6875 
L 23.1875 54.6875 
L 12.5 0 
L 3.515625 0 
z
" id="DejaVuSans-Oblique-105"/>
       <path d="M 25.390625 -1.421875 
Q 15.765625 -1.421875 10.171875 4.515625 
Q 4.59375 10.453125 4.59375 20.703125 
Q 4.59375 26.65625 6.515625 32.828125 
Q 8.453125 39.015625 11.53125 43.21875 
Q 16.359375 49.75 22.3125 52.875 
Q 28.265625 56 35.796875 56 
Q 45.125 56 50.859375 50.1875 
Q 56.59375 44.390625 56.59375 35.015625 
Q 56.59375 28.515625 54.6875 22.0625 
Q 52.78125 15.625 49.703125 11.375 
Q 44.921875 4.828125 38.96875 1.703125 
Q 33.015625 -1.421875 25.390625 -1.421875 
z
M 13.921875 21 
Q 13.921875 13.578125 17.015625 9.890625 
Q 20.125 6.203125 26.421875 6.203125 
Q 35.453125 6.203125 41.375 14.078125 
Q 47.3125 21.96875 47.3125 34.078125 
Q 47.3125 41.15625 44.140625 44.765625 
Q 40.96875 48.390625 34.8125 48.390625 
Q 29.734375 48.390625 25.78125 46.015625 
Q 21.828125 43.65625 18.703125 38.8125 
Q 16.40625 35.203125 15.15625 30.5625 
Q 13.921875 25.921875 13.921875 21 
z
" id="DejaVuSans-Oblique-111"/>
       <path d="M 45.40625 46.390625 
L 45.40625 75.984375 
L 54.390625 75.984375 
L 54.390625 0 
L 45.40625 0 
L 45.40625 8.203125 
Q 42.578125 3.328125 38.25 0.953125 
Q 33.9375 -1.421875 27.875 -1.421875 
Q 17.96875 -1.421875 11.734375 6.484375 
Q 5.515625 14.40625 5.515625 27.296875 
Q 5.515625 40.1875 11.734375 48.09375 
Q 17.96875 56 27.875 56 
Q 33.9375 56 38.25 53.625 
Q 42.578125 51.265625 45.40625 46.390625 
z
M 14.796875 27.296875 
Q 14.796875 17.390625 18.875 11.75 
Q 22.953125 6.109375 30.078125 6.109375 
Q 37.203125 6.109375 41.296875 11.75 
Q 45.40625 17.390625 45.40625 27.296875 
Q 45.40625 37.203125 41.296875 42.84375 
Q 37.203125 48.484375 30.078125 48.484375 
Q 22.953125 48.484375 18.875 42.84375 
Q 14.796875 37.203125 14.796875 27.296875 
z
" id="DejaVuSans-100"/>
      </defs>
      <use transform="translate(0 0.015625)" xlink:href="#DejaVuSans-Oblique-65"/>
      <use transform="translate(68.408203 0.015625)" xlink:href="#DejaVuSans-Oblique-112"/>
      <use transform="translate(131.884766 0.015625)" xlink:href="#DejaVuSans-Oblique-114"/>
      <use transform="translate(172.998047 0.015625)" xlink:href="#DejaVuSans-Oblique-105"/>
      <use transform="translate(200.78125 0.015625)" xlink:href="#DejaVuSans-Oblique-111"/>
      <use transform="translate(261.962891 0.015625)" xlink:href="#DejaVuSans-Oblique-114"/>
      <use transform="translate(303.076172 0.015625)" xlink:href="#DejaVuSans-Oblique-105"/>
      <use transform="translate(330.859375 0.015625)" xlink:href="#DejaVuSans-32"/>
      <use transform="translate(362.646484 0.015625)" xlink:href="#DejaVuSans-109"/>
      <use transform="translate(460.058594 0.015625)" xlink:href="#DejaVuSans-111"/>
      <use transform="translate(521.240234 0.015625)" xlink:href="#DejaVuSans-100"/>
      <use transform="translate(584.716797 0.015625)" xlink:href="#DejaVuSans-101"/>
      <use transform="translate(646.240234 0.015625)" xlink:href="#DejaVuSans-108"/>
     </g>
    </g>
    <g id="line2d_34">
     <path d="M 67.284062 79.472813 
L 87.284062 79.472813 
" style="fill:none;stroke:#ffffff;stroke-linecap:square;stroke-width:1.5;"/>
    </g>
    <g id="line2d_35"/>
    <g id="text_25">
     <!-- T:294.0 -->
     <g transform="translate(95.284062 82.972813)scale(0.1 -0.1)">
      <defs>
       <path d="M 11.71875 12.40625 
L 22.015625 12.40625 
L 22.015625 0 
L 11.71875 0 
z
M 11.71875 51.703125 
L 22.015625 51.703125 
L 22.015625 39.3125 
L 11.71875 39.3125 
z
" id="DejaVuSans-58"/>
       <path d="M 10.984375 1.515625 
L 10.984375 10.5 
Q 14.703125 8.734375 18.5 7.8125 
Q 22.3125 6.890625 25.984375 6.890625 
Q 35.75 6.890625 40.890625 13.453125 
Q 46.046875 20.015625 46.78125 33.40625 
Q 43.953125 29.203125 39.59375 26.953125 
Q 35.25 24.703125 29.984375 24.703125 
Q 19.046875 24.703125 12.671875 31.3125 
Q 6.296875 37.9375 6.296875 49.421875 
Q 6.296875 60.640625 12.9375 67.421875 
Q 19.578125 74.21875 30.609375 74.21875 
Q 43.265625 74.21875 49.921875 64.515625 
Q 56.59375 54.828125 56.59375 36.375 
Q 56.59375 19.140625 48.40625 8.859375 
Q 40.234375 -1.421875 26.421875 -1.421875 
Q 22.703125 -1.421875 18.890625 -0.6875 
Q 15.09375 0.046875 10.984375 1.515625 
z
M 30.609375 32.421875 
Q 37.25 32.421875 41.125 36.953125 
Q 45.015625 41.5 45.015625 49.421875 
Q 45.015625 57.28125 41.125 61.84375 
Q 37.25 66.40625 30.609375 66.40625 
Q 23.96875 66.40625 20.09375 61.84375 
Q 16.21875 57.28125 16.21875 49.421875 
Q 16.21875 41.5 20.09375 36.953125 
Q 23.96875 32.421875 30.609375 32.421875 
z
" id="DejaVuSans-57"/>
      </defs>
      <use xlink:href="#DejaVuSans-84"/>
      <use x="50.083984" xlink:href="#DejaVuSans-58"/>
      <use x="83.775391" xlink:href="#DejaVuSans-50"/>
      <use x="147.398438" xlink:href="#DejaVuSans-57"/>
      <use x="211.021484" xlink:href="#DejaVuSans-52"/>
      <use x="274.644531" xlink:href="#DejaVuSans-46"/>
      <use x="306.431641" xlink:href="#DejaVuSans-48"/>
     </g>
    </g>
    <g id="line2d_36">
     <path d="M 209.024687 35.416562 
L 229.024687 35.416562 
" style="fill:none;stroke:#ffffff;stroke-linecap:square;stroke-width:1.5;"/>
    </g>
    <g id="line2d_37"/>
    <g id="text_26">
     <!-- P:2.82 -->
     <g transform="translate(237.024687 38.916562)scale(0.1 -0.1)">
      <defs>
       <path d="M 19.671875 64.796875 
L 19.671875 37.40625 
L 32.078125 37.40625 
Q 38.96875 37.40625 42.71875 40.96875 
Q 46.484375 44.53125 46.484375 51.125 
Q 46.484375 57.671875 42.71875 61.234375 
Q 38.96875 64.796875 32.078125 64.796875 
z
M 9.8125 72.90625 
L 32.078125 72.90625 
Q 44.34375 72.90625 50.609375 67.359375 
Q 56.890625 61.8125 56.890625 51.125 
Q 56.890625 40.328125 50.609375 34.8125 
Q 44.34375 29.296875 32.078125 29.296875 
L 19.671875 29.296875 
L 19.671875 0 
L 9.8125 0 
z
" id="DejaVuSans-80"/>
      </defs>
      <use xlink:href="#DejaVuSans-80"/>
      <use x="60.302734" xlink:href="#DejaVuSans-58"/>
      <use x="93.994141" xlink:href="#DejaVuSans-50"/>
      <use x="157.617188" xlink:href="#DejaVuSans-46"/>
      <use x="189.404297" xlink:href="#DejaVuSans-56"/>
      <use x="253.027344" xlink:href="#DejaVuSans-50"/>
     </g>
    </g>
    <g id="line2d_38">
     <path d="M 209.024687 50.094688 
L 229.024687 50.094688 
" style="fill:none;stroke:#ffffff;stroke-linecap:square;stroke-width:1.5;"/>
    </g>
    <g id="line2d_39"/>
    <g id="text_27">
     <!-- CH3: 2.7629733520336606e-06 -->
     <g transform="translate(237.024687 53.594688)scale(0.1 -0.1)">
      <defs>
       <path d="M 64.40625 67.28125 
L 64.40625 56.890625 
Q 59.421875 61.53125 53.78125 63.8125 
Q 48.140625 66.109375 41.796875 66.109375 
Q 29.296875 66.109375 22.65625 58.46875 
Q 16.015625 50.828125 16.015625 36.375 
Q 16.015625 21.96875 22.65625 14.328125 
Q 29.296875 6.6875 41.796875 6.6875 
Q 48.140625 6.6875 53.78125 8.984375 
Q 59.421875 11.28125 64.40625 15.921875 
L 64.40625 5.609375 
Q 59.234375 2.09375 53.4375 0.328125 
Q 47.65625 -1.421875 41.21875 -1.421875 
Q 24.65625 -1.421875 15.125 8.703125 
Q 5.609375 18.84375 5.609375 36.375 
Q 5.609375 53.953125 15.125 64.078125 
Q 24.65625 74.21875 41.21875 74.21875 
Q 47.75 74.21875 53.53125 72.484375 
Q 59.328125 70.75 64.40625 67.28125 
z
" id="DejaVuSans-67"/>
       <path d="M 9.8125 72.90625 
L 19.671875 72.90625 
L 19.671875 43.015625 
L 55.515625 43.015625 
L 55.515625 72.90625 
L 65.375 72.90625 
L 65.375 0 
L 55.515625 0 
L 55.515625 34.71875 
L 19.671875 34.71875 
L 19.671875 0 
L 9.8125 0 
z
" id="DejaVuSans-72"/>
       <path d="M 4.890625 31.390625 
L 31.203125 31.390625 
L 31.203125 23.390625 
L 4.890625 23.390625 
z
" id="DejaVuSans-45"/>
      </defs>
      <use xlink:href="#DejaVuSans-67"/>
      <use x="69.824219" xlink:href="#DejaVuSans-72"/>
      <use x="145.019531" xlink:href="#DejaVuSans-51"/>
      <use x="208.642578" xlink:href="#DejaVuSans-58"/>
      <use x="242.333984" xlink:href="#DejaVuSans-32"/>
      <use x="274.121094" xlink:href="#DejaVuSans-50"/>
      <use x="337.744141" xlink:href="#DejaVuSans-46"/>
      <use x="369.53125" xlink:href="#DejaVuSans-55"/>
      <use x="433.154297" xlink:href="#DejaVuSans-54"/>
      <use x="496.777344" xlink:href="#DejaVuSans-50"/>
      <use x="560.400391" xlink:href="#DejaVuSans-57"/>
      <use x="624.023438" xlink:href="#DejaVuSans-55"/>
      <use x="687.646484" xlink:href="#DejaVuSans-51"/>
      <use x="751.269531" xlink:href="#DejaVuSans-51"/>
      <use x="814.892578" xlink:href="#DejaVuSans-53"/>
      <use x="878.515625" xlink:href="#DejaVuSans-50"/>
      <use x="942.138672" xlink:href="#DejaVuSans-48"/>
      <use x="1005.761719" xlink:href="#DejaVuSans-51"/>
      <use x="1069.384766" xlink:href="#DejaVuSans-51"/>
      <use x="1133.007812" xlink:href="#DejaVuSans-54"/>
      <use x="1196.630859" xlink:href="#DejaVuSans-54"/>
      <use x="1260.253906" xlink:href="#DejaVuSans-48"/>
      <use x="1323.876953" xlink:href="#DejaVuSans-54"/>
      <use x="1387.5" xlink:href="#DejaVuSans-101"/>
      <use x="1449.023438" xlink:href="#DejaVuSans-45"/>
      <use x="1485.107422" xlink:href="#DejaVuSans-48"/>
      <use x="1548.730469" xlink:href="#DejaVuSans-54"/>
     </g>
    </g>
    <g id="line2d_40">
     <path d="M 209.024687 64.772812 
L 229.024687 64.772812 
" style="fill:none;stroke:#ffffff;stroke-linecap:square;stroke-width:1.5;"/>
    </g>
    <g id="line2d_41"/>
    <g id="text_28">
     <!-- Ar: 0.999997237026648 -->
     <g transform="translate(237.024687 68.272812)scale(0.1 -0.1)">
      <use xlink:href="#DejaVuSans-65"/>
      <use x="68.408203" xlink:href="#DejaVuSans-114"/>
      <use x="107.771484" xlink:href="#DejaVuSans-58"/>
      <use x="141.462891" xlink:href="#DejaVuSans-32"/>
      <use x="173.25" xlink:href="#DejaVuSans-48"/>
      <use x="236.873047" xlink:href="#DejaVuSans-46"/>
      <use x="268.660156" xlink:href="#DejaVuSans-57"/>
      <use x="332.283203" xlink:href="#DejaVuSans-57"/>
      <use x="395.90625" xlink:href="#DejaVuSans-57"/>
      <use x="459.529297" xlink:href="#DejaVuSans-57"/>
      <use x="523.152344" xlink:href="#DejaVuSans-57"/>
      <use x="586.775391" xlink:href="#DejaVuSans-55"/>
      <use x="650.398438" xlink:href="#DejaVuSans-50"/>
      <use x="714.021484" xlink:href="#DejaVuSans-51"/>
      <use x="777.644531" xlink:href="#DejaVuSans-55"/>
      <use x="841.267578" xlink:href="#DejaVuSans-48"/>
      <use x="904.890625" xlink:href="#DejaVuSans-50"/>
      <use x="968.513672" xlink:href="#DejaVuSans-54"/>
      <use x="1032.136719" xlink:href="#DejaVuSans-54"/>
      <use x="1095.759766" xlink:href="#DejaVuSans-52"/>
      <use x="1159.382812" xlink:href="#DejaVuSans-56"/>
     </g>
    </g>
   </g>
  </g>
 </g>
 <defs>
  <clipPath id="p5517fa45d5">
   <rect height="266.112" width="357.12" x="50.14375" y="22.318125"/>
  </clipPath>
 </defs>
</svg>
