<?xml version="1.0" encoding="utf-8" standalone="no"?>
<!DOCTYPE svg PUBLIC "-//W3C//DTD SVG 1.1//EN"
  "http://www.w3.org/Graphics/SVG/1.1/DTD/svg11.dtd">
<!-- Created with matplotlib (https://matplotlib.org/) -->
<svg height="325.986375pt" version="1.1" viewBox="0 0 411.285625 325.986375" width="411.285625pt" xmlns="http://www.w3.org/2000/svg" xmlns:xlink="http://www.w3.org/1999/xlink">
 <metadata>
  <rdf:RDF xmlns:cc="http://creativecommons.org/ns#" xmlns:dc="http://purl.org/dc/elements/1.1/" xmlns:rdf="http://www.w3.org/1999/02/22-rdf-syntax-ns#">
   <cc:Work>
    <dc:type rdf:resource="http://purl.org/dc/dcmitype/StillImage"/>
    <dc:date>2023-01-06T05:10:45.786723</dc:date>
    <dc:format>image/svg+xml</dc:format>
    <dc:creator>
     <cc:Agent>
      <dc:title>Matplotlib v3.3.1, https://matplotlib.org/</dc:title>
     </cc:Agent>
    </dc:creator>
   </cc:Work>
  </rdf:RDF>
 </metadata>
 <defs>
  <style type="text/css">*{stroke-linecap:butt;stroke-linejoin:round;}</style>
 </defs>
 <g id="figure_1">
  <g id="patch_1">
   <path d="M 0 325.986375 
L 411.285625 325.986375 
L 411.285625 0 
L 0 0 
z
" style="fill:none;"/>
  </g>
  <g id="axes_1">
   <g id="patch_2">
    <path d="M 46.965625 288.430125 
L 404.085625 288.430125 
L 404.085625 22.318125 
L 46.965625 22.318125 
z
" style="fill:none;"/>
   </g>
   <g id="matplotlib.axis_1">
    <g id="xtick_1">
     <g id="line2d_1">
      <defs>
       <path d="M 0 0 
L 0 3.5 
" id="m52f8a04a0b" style="stroke:#000000;stroke-width:0.8;"/>
      </defs>
      <g>
       <use style="stroke:#000000;stroke-width:0.8;" x="63.198352" xlink:href="#m52f8a04a0b" y="288.430125"/>
      </g>
     </g>
     <g id="text_1">
      <!-- 0.0 -->
      <g transform="translate(55.24679 303.028562)scale(0.1 -0.1)">
       <defs>
        <path d="M 31.78125 66.40625 
Q 24.171875 66.40625 20.328125 58.90625 
Q 16.5 51.421875 16.5 36.375 
Q 16.5 21.390625 20.328125 13.890625 
Q 24.171875 6.390625 31.78125 6.390625 
Q 39.453125 6.390625 43.28125 13.890625 
Q 47.125 21.390625 47.125 36.375 
Q 47.125 51.421875 43.28125 58.90625 
Q 39.453125 66.40625 31.78125 66.40625 
z
M 31.78125 74.21875 
Q 44.046875 74.21875 50.515625 64.515625 
Q 56.984375 54.828125 56.984375 36.375 
Q 56.984375 17.96875 50.515625 8.265625 
Q 44.046875 -1.421875 31.78125 -1.421875 
Q 19.53125 -1.421875 13.0625 8.265625 
Q 6.59375 17.96875 6.59375 36.375 
Q 6.59375 54.828125 13.0625 64.515625 
Q 19.53125 74.21875 31.78125 74.21875 
z
" id="DejaVuSans-48"/>
        <path d="M 10.6875 12.40625 
L 21 12.40625 
L 21 0 
L 10.6875 0 
z
" id="DejaVuSans-46"/>
       </defs>
       <use xlink:href="#DejaVuSans-48"/>
       <use x="63.623047" xlink:href="#DejaVuSans-46"/>
       <use x="95.410156" xlink:href="#DejaVuSans-48"/>
      </g>
     </g>
    </g>
    <g id="xtick_2">
     <g id="line2d_2">
      <g>
       <use style="stroke:#000000;stroke-width:0.8;" x="103.587001" xlink:href="#m52f8a04a0b" y="288.430125"/>
      </g>
     </g>
     <g id="text_2">
      <!-- 0.5 -->
      <g transform="translate(95.635439 303.028562)scale(0.1 -0.1)">
       <defs>
        <path d="M 10.796875 72.90625 
L 49.515625 72.90625 
L 49.515625 64.59375 
L 19.828125 64.59375 
L 19.828125 46.734375 
Q 21.96875 47.46875 24.109375 47.828125 
Q 26.265625 48.1875 28.421875 48.1875 
Q 40.625 48.1875 47.75 41.5 
Q 54.890625 34.8125 54.890625 23.390625 
Q 54.890625 11.625 47.5625 5.09375 
Q 40.234375 -1.421875 26.90625 -1.421875 
Q 22.3125 -1.421875 17.546875 -0.640625 
Q 12.796875 0.140625 7.71875 1.703125 
L 7.71875 11.625 
Q 12.109375 9.234375 16.796875 8.0625 
Q 21.484375 6.890625 26.703125 6.890625 
Q 35.15625 6.890625 40.078125 11.328125 
Q 45.015625 15.765625 45.015625 23.390625 
Q 45.015625 31 40.078125 35.4375 
Q 35.15625 39.890625 26.703125 39.890625 
Q 22.75 39.890625 18.8125 39.015625 
Q 14.890625 38.140625 10.796875 36.28125 
z
" id="DejaVuSans-53"/>
       </defs>
       <use xlink:href="#DejaVuSans-48"/>
       <use x="63.623047" xlink:href="#DejaVuSans-46"/>
       <use x="95.410156" xlink:href="#DejaVuSans-53"/>
      </g>
     </g>
    </g>
    <g id="xtick_3">
     <g id="line2d_3">
      <g>
       <use style="stroke:#000000;stroke-width:0.8;" x="143.97565" xlink:href="#m52f8a04a0b" y="288.430125"/>
      </g>
     </g>
     <g id="text_3">
      <!-- 1.0 -->
      <g transform="translate(136.024088 303.028562)scale(0.1 -0.1)">
       <defs>
        <path d="M 12.40625 8.296875 
L 28.515625 8.296875 
L 28.515625 63.921875 
L 10.984375 60.40625 
L 10.984375 69.390625 
L 28.421875 72.90625 
L 38.28125 72.90625 
L 38.28125 8.296875 
L 54.390625 8.296875 
L 54.390625 0 
L 12.40625 0 
z
" id="DejaVuSans-49"/>
       </defs>
       <use xlink:href="#DejaVuSans-49"/>
       <use x="63.623047" xlink:href="#DejaVuSans-46"/>
       <use x="95.410156" xlink:href="#DejaVuSans-48"/>
      </g>
     </g>
    </g>
    <g id="xtick_4">
     <g id="line2d_4">
      <g>
       <use style="stroke:#000000;stroke-width:0.8;" x="184.364299" xlink:href="#m52f8a04a0b" y="288.430125"/>
      </g>
     </g>
     <g id="text_4">
      <!-- 1.5 -->
      <g transform="translate(176.412737 303.028562)scale(0.1 -0.1)">
       <use xlink:href="#DejaVuSans-49"/>
       <use x="63.623047" xlink:href="#DejaVuSans-46"/>
       <use x="95.410156" xlink:href="#DejaVuSans-53"/>
      </g>
     </g>
    </g>
    <g id="xtick_5">
     <g id="line2d_5">
      <g>
       <use style="stroke:#000000;stroke-width:0.8;" x="224.752948" xlink:href="#m52f8a04a0b" y="288.430125"/>
      </g>
     </g>
     <g id="text_5">
      <!-- 2.0 -->
      <g transform="translate(216.801386 303.028562)scale(0.1 -0.1)">
       <defs>
        <path d="M 19.1875 8.296875 
L 53.609375 8.296875 
L 53.609375 0 
L 7.328125 0 
L 7.328125 8.296875 
Q 12.9375 14.109375 22.625 23.890625 
Q 32.328125 33.6875 34.8125 36.53125 
Q 39.546875 41.84375 41.421875 45.53125 
Q 43.3125 49.21875 43.3125 52.78125 
Q 43.3125 58.59375 39.234375 62.25 
Q 35.15625 65.921875 28.609375 65.921875 
Q 23.96875 65.921875 18.8125 64.3125 
Q 13.671875 62.703125 7.8125 59.421875 
L 7.8125 69.390625 
Q 13.765625 71.78125 18.9375 73 
Q 24.125 74.21875 28.421875 74.21875 
Q 39.75 74.21875 46.484375 68.546875 
Q 53.21875 62.890625 53.21875 53.421875 
Q 53.21875 48.921875 51.53125 44.890625 
Q 49.859375 40.875 45.40625 35.40625 
Q 44.1875 33.984375 37.640625 27.21875 
Q 31.109375 20.453125 19.1875 8.296875 
z
" id="DejaVuSans-50"/>
       </defs>
       <use xlink:href="#DejaVuSans-50"/>
       <use x="63.623047" xlink:href="#DejaVuSans-46"/>
       <use x="95.410156" xlink:href="#DejaVuSans-48"/>
      </g>
     </g>
    </g>
    <g id="xtick_6">
     <g id="line2d_6">
      <g>
       <use style="stroke:#000000;stroke-width:0.8;" x="265.141597" xlink:href="#m52f8a04a0b" y="288.430125"/>
      </g>
     </g>
     <g id="text_6">
      <!-- 2.5 -->
      <g transform="translate(257.190035 303.028562)scale(0.1 -0.1)">
       <use xlink:href="#DejaVuSans-50"/>
       <use x="63.623047" xlink:href="#DejaVuSans-46"/>
       <use x="95.410156" xlink:href="#DejaVuSans-53"/>
      </g>
     </g>
    </g>
    <g id="xtick_7">
     <g id="line2d_7">
      <g>
       <use style="stroke:#000000;stroke-width:0.8;" x="305.530246" xlink:href="#m52f8a04a0b" y="288.430125"/>
      </g>
     </g>
     <g id="text_7">
      <!-- 3.0 -->
      <g transform="translate(297.578684 303.028562)scale(0.1 -0.1)">
       <defs>
        <path d="M 40.578125 39.3125 
Q 47.65625 37.796875 51.625 33 
Q 55.609375 28.21875 55.609375 21.1875 
Q 55.609375 10.40625 48.1875 4.484375 
Q 40.765625 -1.421875 27.09375 -1.421875 
Q 22.515625 -1.421875 17.65625 -0.515625 
Q 12.796875 0.390625 7.625 2.203125 
L 7.625 11.71875 
Q 11.71875 9.328125 16.59375 8.109375 
Q 21.484375 6.890625 26.8125 6.890625 
Q 36.078125 6.890625 40.9375 10.546875 
Q 45.796875 14.203125 45.796875 21.1875 
Q 45.796875 27.640625 41.28125 31.265625 
Q 36.765625 34.90625 28.71875 34.90625 
L 20.21875 34.90625 
L 20.21875 43.015625 
L 29.109375 43.015625 
Q 36.375 43.015625 40.234375 45.921875 
Q 44.09375 48.828125 44.09375 54.296875 
Q 44.09375 59.90625 40.109375 62.90625 
Q 36.140625 65.921875 28.71875 65.921875 
Q 24.65625 65.921875 20.015625 65.03125 
Q 15.375 64.15625 9.8125 62.3125 
L 9.8125 71.09375 
Q 15.4375 72.65625 20.34375 73.4375 
Q 25.25 74.21875 29.59375 74.21875 
Q 40.828125 74.21875 47.359375 69.109375 
Q 53.90625 64.015625 53.90625 55.328125 
Q 53.90625 49.265625 50.4375 45.09375 
Q 46.96875 40.921875 40.578125 39.3125 
z
" id="DejaVuSans-51"/>
       </defs>
       <use xlink:href="#DejaVuSans-51"/>
       <use x="63.623047" xlink:href="#DejaVuSans-46"/>
       <use x="95.410156" xlink:href="#DejaVuSans-48"/>
      </g>
     </g>
    </g>
    <g id="xtick_8">
     <g id="line2d_8">
      <g>
       <use style="stroke:#000000;stroke-width:0.8;" x="345.918895" xlink:href="#m52f8a04a0b" y="288.430125"/>
      </g>
     </g>
     <g id="text_8">
      <!-- 3.5 -->
      <g transform="translate(337.967333 303.028562)scale(0.1 -0.1)">
       <use xlink:href="#DejaVuSans-51"/>
       <use x="63.623047" xlink:href="#DejaVuSans-46"/>
       <use x="95.410156" xlink:href="#DejaVuSans-53"/>
      </g>
     </g>
    </g>
    <g id="xtick_9">
     <g id="line2d_9">
      <g>
       <use style="stroke:#000000;stroke-width:0.8;" x="386.307544" xlink:href="#m52f8a04a0b" y="288.430125"/>
      </g>
     </g>
     <g id="text_9">
      <!-- 4.0 -->
      <g transform="translate(378.355982 303.028562)scale(0.1 -0.1)">
       <defs>
        <path d="M 37.796875 64.3125 
L 12.890625 25.390625 
L 37.796875 25.390625 
z
M 35.203125 72.90625 
L 47.609375 72.90625 
L 47.609375 25.390625 
L 58.015625 25.390625 
L 58.015625 17.1875 
L 47.609375 17.1875 
L 47.609375 0 
L 37.796875 0 
L 37.796875 17.1875 
L 4.890625 17.1875 
L 4.890625 26.703125 
z
" id="DejaVuSans-52"/>
       </defs>
       <use xlink:href="#DejaVuSans-52"/>
       <use x="63.623047" xlink:href="#DejaVuSans-46"/>
       <use x="95.410156" xlink:href="#DejaVuSans-48"/>
      </g>
     </g>
    </g>
    <g id="text_10">
     <!-- Time (ms) -->
     <g transform="translate(200.326406 316.706687)scale(0.1 -0.1)">
      <defs>
       <path d="M -0.296875 72.90625 
L 61.375 72.90625 
L 61.375 64.59375 
L 35.5 64.59375 
L 35.5 0 
L 25.59375 0 
L 25.59375 64.59375 
L -0.296875 64.59375 
z
" id="DejaVuSans-84"/>
       <path d="M 9.421875 54.6875 
L 18.40625 54.6875 
L 18.40625 0 
L 9.421875 0 
z
M 9.421875 75.984375 
L 18.40625 75.984375 
L 18.40625 64.59375 
L 9.421875 64.59375 
z
" id="DejaVuSans-105"/>
       <path d="M 52 44.1875 
Q 55.375 50.25 60.0625 53.125 
Q 64.75 56 71.09375 56 
Q 79.640625 56 84.28125 50.015625 
Q 88.921875 44.046875 88.921875 33.015625 
L 88.921875 0 
L 79.890625 0 
L 79.890625 32.71875 
Q 79.890625 40.578125 77.09375 44.375 
Q 74.3125 48.1875 68.609375 48.1875 
Q 61.625 48.1875 57.5625 43.546875 
Q 53.515625 38.921875 53.515625 30.90625 
L 53.515625 0 
L 44.484375 0 
L 44.484375 32.71875 
Q 44.484375 40.625 41.703125 44.40625 
Q 38.921875 48.1875 33.109375 48.1875 
Q 26.21875 48.1875 22.15625 43.53125 
Q 18.109375 38.875 18.109375 30.90625 
L 18.109375 0 
L 9.078125 0 
L 9.078125 54.6875 
L 18.109375 54.6875 
L 18.109375 46.1875 
Q 21.1875 51.21875 25.484375 53.609375 
Q 29.78125 56 35.6875 56 
Q 41.65625 56 45.828125 52.96875 
Q 50 49.953125 52 44.1875 
z
" id="DejaVuSans-109"/>
       <path d="M 56.203125 29.59375 
L 56.203125 25.203125 
L 14.890625 25.203125 
Q 15.484375 15.921875 20.484375 11.0625 
Q 25.484375 6.203125 34.421875 6.203125 
Q 39.59375 6.203125 44.453125 7.46875 
Q 49.3125 8.734375 54.109375 11.28125 
L 54.109375 2.78125 
Q 49.265625 0.734375 44.1875 -0.34375 
Q 39.109375 -1.421875 33.890625 -1.421875 
Q 20.796875 -1.421875 13.15625 6.1875 
Q 5.515625 13.8125 5.515625 26.8125 
Q 5.515625 40.234375 12.765625 48.109375 
Q 20.015625 56 32.328125 56 
Q 43.359375 56 49.78125 48.890625 
Q 56.203125 41.796875 56.203125 29.59375 
z
M 47.21875 32.234375 
Q 47.125 39.59375 43.09375 43.984375 
Q 39.0625 48.390625 32.421875 48.390625 
Q 24.90625 48.390625 20.390625 44.140625 
Q 15.875 39.890625 15.1875 32.171875 
z
" id="DejaVuSans-101"/>
       <path id="DejaVuSans-32"/>
       <path d="M 31 75.875 
Q 24.46875 64.65625 21.28125 53.65625 
Q 18.109375 42.671875 18.109375 31.390625 
Q 18.109375 20.125 21.3125 9.0625 
Q 24.515625 -2 31 -13.1875 
L 23.1875 -13.1875 
Q 15.875 -1.703125 12.234375 9.375 
Q 8.59375 20.453125 8.59375 31.390625 
Q 8.59375 42.28125 12.203125 53.3125 
Q 15.828125 64.359375 23.1875 75.875 
z
" id="DejaVuSans-40"/>
       <path d="M 44.28125 53.078125 
L 44.28125 44.578125 
Q 40.484375 46.53125 36.375 47.5 
Q 32.28125 48.484375 27.875 48.484375 
Q 21.1875 48.484375 17.84375 46.4375 
Q 14.5 44.390625 14.5 40.28125 
Q 14.5 37.15625 16.890625 35.375 
Q 19.28125 33.59375 26.515625 31.984375 
L 29.59375 31.296875 
Q 39.15625 29.25 43.1875 25.515625 
Q 47.21875 21.78125 47.21875 15.09375 
Q 47.21875 7.46875 41.1875 3.015625 
Q 35.15625 -1.421875 24.609375 -1.421875 
Q 20.21875 -1.421875 15.453125 -0.5625 
Q 10.6875 0.296875 5.421875 2 
L 5.421875 11.28125 
Q 10.40625 8.6875 15.234375 7.390625 
Q 20.0625 6.109375 24.8125 6.109375 
Q 31.15625 6.109375 34.5625 8.28125 
Q 37.984375 10.453125 37.984375 14.40625 
Q 37.984375 18.0625 35.515625 20.015625 
Q 33.0625 21.96875 24.703125 23.78125 
L 21.578125 24.515625 
Q 13.234375 26.265625 9.515625 29.90625 
Q 5.8125 33.546875 5.8125 39.890625 
Q 5.8125 47.609375 11.28125 51.796875 
Q 16.75 56 26.8125 56 
Q 31.78125 56 36.171875 55.265625 
Q 40.578125 54.546875 44.28125 53.078125 
z
" id="DejaVuSans-115"/>
       <path d="M 8.015625 75.875 
L 15.828125 75.875 
Q 23.140625 64.359375 26.78125 53.3125 
Q 30.421875 42.28125 30.421875 31.390625 
Q 30.421875 20.453125 26.78125 9.375 
Q 23.140625 -1.703125 15.828125 -13.1875 
L 8.015625 -13.1875 
Q 14.5 -2 17.703125 9.0625 
Q 20.90625 20.125 20.90625 31.390625 
Q 20.90625 42.671875 17.703125 53.65625 
Q 14.5 64.65625 8.015625 75.875 
z
" id="DejaVuSans-41"/>
      </defs>
      <use xlink:href="#DejaVuSans-84"/>
      <use x="57.958984" xlink:href="#DejaVuSans-105"/>
      <use x="85.742188" xlink:href="#DejaVuSans-109"/>
      <use x="183.154297" xlink:href="#DejaVuSans-101"/>
      <use x="244.677734" xlink:href="#DejaVuSans-32"/>
      <use x="276.464844" xlink:href="#DejaVuSans-40"/>
      <use x="315.478516" xlink:href="#DejaVuSans-109"/>
      <use x="412.890625" xlink:href="#DejaVuSans-115"/>
      <use x="464.990234" xlink:href="#DejaVuSans-41"/>
     </g>
    </g>
   </g>
   <g id="matplotlib.axis_2">
    <g id="ytick_1">
     <g id="line2d_10">
      <defs>
       <path d="M 0 0 
L -3.5 0 
" id="m5796d173d7" style="stroke:#000000;stroke-width:0.8;"/>
      </defs>
      <g>
       <use style="stroke:#000000;stroke-width:0.8;" x="46.965625" xlink:href="#m5796d173d7" y="276.334125"/>
      </g>
     </g>
     <g id="text_11">
      <!-- 0 -->
      <g transform="translate(33.603125 280.133344)scale(0.1 -0.1)">
       <use xlink:href="#DejaVuSans-48"/>
      </g>
     </g>
    </g>
    <g id="ytick_2">
     <g id="line2d_11">
      <g>
       <use style="stroke:#000000;stroke-width:0.8;" x="46.965625" xlink:href="#m5796d173d7" y="227.918919"/>
      </g>
     </g>
     <g id="text_12">
      <!-- 20 -->
      <g transform="translate(27.240625 231.718137)scale(0.1 -0.1)">
       <use xlink:href="#DejaVuSans-50"/>
       <use x="63.623047" xlink:href="#DejaVuSans-48"/>
      </g>
     </g>
    </g>
    <g id="ytick_3">
     <g id="line2d_12">
      <g>
       <use style="stroke:#000000;stroke-width:0.8;" x="46.965625" xlink:href="#m5796d173d7" y="179.503712"/>
      </g>
     </g>
     <g id="text_13">
      <!-- 40 -->
      <g transform="translate(27.240625 183.302931)scale(0.1 -0.1)">
       <use xlink:href="#DejaVuSans-52"/>
       <use x="63.623047" xlink:href="#DejaVuSans-48"/>
      </g>
     </g>
    </g>
    <g id="ytick_4">
     <g id="line2d_13">
      <g>
       <use style="stroke:#000000;stroke-width:0.8;" x="46.965625" xlink:href="#m5796d173d7" y="131.088506"/>
      </g>
     </g>
     <g id="text_14">
      <!-- 60 -->
      <g transform="translate(27.240625 134.887725)scale(0.1 -0.1)">
       <defs>
        <path d="M 33.015625 40.375 
Q 26.375 40.375 22.484375 35.828125 
Q 18.609375 31.296875 18.609375 23.390625 
Q 18.609375 15.53125 22.484375 10.953125 
Q 26.375 6.390625 33.015625 6.390625 
Q 39.65625 6.390625 43.53125 10.953125 
Q 47.40625 15.53125 47.40625 23.390625 
Q 47.40625 31.296875 43.53125 35.828125 
Q 39.65625 40.375 33.015625 40.375 
z
M 52.59375 71.296875 
L 52.59375 62.3125 
Q 48.875 64.0625 45.09375 64.984375 
Q 41.3125 65.921875 37.59375 65.921875 
Q 27.828125 65.921875 22.671875 59.328125 
Q 17.53125 52.734375 16.796875 39.40625 
Q 19.671875 43.65625 24.015625 45.921875 
Q 28.375 48.1875 33.59375 48.1875 
Q 44.578125 48.1875 50.953125 41.515625 
Q 57.328125 34.859375 57.328125 23.390625 
Q 57.328125 12.15625 50.6875 5.359375 
Q 44.046875 -1.421875 33.015625 -1.421875 
Q 20.359375 -1.421875 13.671875 8.265625 
Q 6.984375 17.96875 6.984375 36.375 
Q 6.984375 53.65625 15.1875 63.9375 
Q 23.390625 74.21875 37.203125 74.21875 
Q 40.921875 74.21875 44.703125 73.484375 
Q 48.484375 72.75 52.59375 71.296875 
z
" id="DejaVuSans-54"/>
       </defs>
       <use xlink:href="#DejaVuSans-54"/>
       <use x="63.623047" xlink:href="#DejaVuSans-48"/>
      </g>
     </g>
    </g>
    <g id="ytick_5">
     <g id="line2d_14">
      <g>
       <use style="stroke:#000000;stroke-width:0.8;" x="46.965625" xlink:href="#m5796d173d7" y="82.6733"/>
      </g>
     </g>
     <g id="text_15">
      <!-- 80 -->
      <g transform="translate(27.240625 86.472518)scale(0.1 -0.1)">
       <defs>
        <path d="M 31.78125 34.625 
Q 24.75 34.625 20.71875 30.859375 
Q 16.703125 27.09375 16.703125 20.515625 
Q 16.703125 13.921875 20.71875 10.15625 
Q 24.75 6.390625 31.78125 6.390625 
Q 38.8125 6.390625 42.859375 10.171875 
Q 46.921875 13.96875 46.921875 20.515625 
Q 46.921875 27.09375 42.890625 30.859375 
Q 38.875 34.625 31.78125 34.625 
z
M 21.921875 38.8125 
Q 15.578125 40.375 12.03125 44.71875 
Q 8.5 49.078125 8.5 55.328125 
Q 8.5 64.0625 14.71875 69.140625 
Q 20.953125 74.21875 31.78125 74.21875 
Q 42.671875 74.21875 48.875 69.140625 
Q 55.078125 64.0625 55.078125 55.328125 
Q 55.078125 49.078125 51.53125 44.71875 
Q 48 40.375 41.703125 38.8125 
Q 48.828125 37.15625 52.796875 32.3125 
Q 56.78125 27.484375 56.78125 20.515625 
Q 56.78125 9.90625 50.3125 4.234375 
Q 43.84375 -1.421875 31.78125 -1.421875 
Q 19.734375 -1.421875 13.25 4.234375 
Q 6.78125 9.90625 6.78125 20.515625 
Q 6.78125 27.484375 10.78125 32.3125 
Q 14.796875 37.15625 21.921875 38.8125 
z
M 18.3125 54.390625 
Q 18.3125 48.734375 21.84375 45.5625 
Q 25.390625 42.390625 31.78125 42.390625 
Q 38.140625 42.390625 41.71875 45.5625 
Q 45.3125 48.734375 45.3125 54.390625 
Q 45.3125 60.0625 41.71875 63.234375 
Q 38.140625 66.40625 31.78125 66.40625 
Q 25.390625 66.40625 21.84375 63.234375 
Q 18.3125 60.0625 18.3125 54.390625 
z
" id="DejaVuSans-56"/>
       </defs>
       <use xlink:href="#DejaVuSans-56"/>
       <use x="63.623047" xlink:href="#DejaVuSans-48"/>
      </g>
     </g>
    </g>
    <g id="ytick_6">
     <g id="line2d_15">
      <g>
       <use style="stroke:#000000;stroke-width:0.8;" x="46.965625" xlink:href="#m5796d173d7" y="34.258093"/>
      </g>
     </g>
     <g id="text_16">
      <!-- 100 -->
      <g transform="translate(20.878125 38.057312)scale(0.1 -0.1)">
       <use xlink:href="#DejaVuSans-49"/>
       <use x="63.623047" xlink:href="#DejaVuSans-48"/>
       <use x="127.246094" xlink:href="#DejaVuSans-48"/>
      </g>
     </g>
    </g>
    <g id="text_17">
     <!-- OH ppm -->
     <g transform="translate(14.798438 175.878031)rotate(-90)scale(0.1 -0.1)">
      <defs>
       <path d="M 39.40625 66.21875 
Q 28.65625 66.21875 22.328125 58.203125 
Q 16.015625 50.203125 16.015625 36.375 
Q 16.015625 22.609375 22.328125 14.59375 
Q 28.65625 6.59375 39.40625 6.59375 
Q 50.140625 6.59375 56.421875 14.59375 
Q 62.703125 22.609375 62.703125 36.375 
Q 62.703125 50.203125 56.421875 58.203125 
Q 50.140625 66.21875 39.40625 66.21875 
z
M 39.40625 74.21875 
Q 54.734375 74.21875 63.90625 63.9375 
Q 73.09375 53.65625 73.09375 36.375 
Q 73.09375 19.140625 63.90625 8.859375 
Q 54.734375 -1.421875 39.40625 -1.421875 
Q 24.03125 -1.421875 14.8125 8.828125 
Q 5.609375 19.09375 5.609375 36.375 
Q 5.609375 53.65625 14.8125 63.9375 
Q 24.03125 74.21875 39.40625 74.21875 
z
" id="DejaVuSans-79"/>
       <path d="M 9.8125 72.90625 
L 19.671875 72.90625 
L 19.671875 43.015625 
L 55.515625 43.015625 
L 55.515625 72.90625 
L 65.375 72.90625 
L 65.375 0 
L 55.515625 0 
L 55.515625 34.71875 
L 19.671875 34.71875 
L 19.671875 0 
L 9.8125 0 
z
" id="DejaVuSans-72"/>
       <path d="M 18.109375 8.203125 
L 18.109375 -20.796875 
L 9.078125 -20.796875 
L 9.078125 54.6875 
L 18.109375 54.6875 
L 18.109375 46.390625 
Q 20.953125 51.265625 25.265625 53.625 
Q 29.59375 56 35.59375 56 
Q 45.5625 56 51.78125 48.09375 
Q 58.015625 40.1875 58.015625 27.296875 
Q 58.015625 14.40625 51.78125 6.484375 
Q 45.5625 -1.421875 35.59375 -1.421875 
Q 29.59375 -1.421875 25.265625 0.953125 
Q 20.953125 3.328125 18.109375 8.203125 
z
M 48.6875 27.296875 
Q 48.6875 37.203125 44.609375 42.84375 
Q 40.53125 48.484375 33.40625 48.484375 
Q 26.265625 48.484375 22.1875 42.84375 
Q 18.109375 37.203125 18.109375 27.296875 
Q 18.109375 17.390625 22.1875 11.75 
Q 26.265625 6.109375 33.40625 6.109375 
Q 40.53125 6.109375 44.609375 11.75 
Q 48.6875 17.390625 48.6875 27.296875 
z
" id="DejaVuSans-112"/>
      </defs>
      <use xlink:href="#DejaVuSans-79"/>
      <use x="78.710938" xlink:href="#DejaVuSans-72"/>
      <use x="153.90625" xlink:href="#DejaVuSans-32"/>
      <use x="185.693359" xlink:href="#DejaVuSans-112"/>
      <use x="249.169922" xlink:href="#DejaVuSans-112"/>
      <use x="312.646484" xlink:href="#DejaVuSans-109"/>
     </g>
    </g>
   </g>
   <g id="line2d_16">
    <path clip-path="url(#p103089a85e)" d="M 63.198352 276.334125 
L 63.543024 183.027477 
L 63.874506 145.876706 
L 64.172725 133.775313 
L 64.409719 131.205959 
L 64.488717 131.126961 
L 64.515049 131.16127 
L 64.646712 131.687649 
L 64.936371 134.12062 
L 66.259786 146.542031 
L 66.919623 150.365326 
L 67.609848 153.158631 
L 68.420361 155.474745 
L 69.234625 157.174771 
L 70.322811 158.887301 
L 71.683043 160.548836 
L 73.599937 162.494548 
L 90.391646 178.68081 
L 96.470144 184.449242 
L 101.654508 189.046379 
L 106.276009 192.854493 
L 111.174106 196.594207 
L 116.350543 200.243356 
L 121.526979 203.626267 
L 127.278575 207.134501 
L 134.18049 211.08019 
L 141.657565 215.105868 
L 149.13464 218.898911 
L 156.036555 222.172311 
L 162.363311 224.948297 
L 168.402778 227.373868 
L 174.443994 229.569069 
L 180.48521 231.533274 
L 186.526426 233.276471 
L 193.430672 235.019739 
L 200.334919 236.526811 
L 208.102197 237.979717 
L 215.893628 239.220834 
L 224.997722 240.447786 
L 235.402401 241.617377 
L 247.107665 242.707412 
L 260.886027 243.765789 
L 278.601063 244.876681 
L 300.490339 245.991294 
L 327.597415 247.119913 
L 360.7353 248.260899 
L 387.852898 249.062761 
L 387.852898 249.062761 
" style="fill:none;stroke:#0000ff;stroke-linecap:square;stroke-width:1.5;"/>
   </g>
   <g id="line2d_17">
    <path clip-path="url(#p103089a85e)" d="M 63.198352 276.334125 
L 63.622178 141.957116 
L 64.034822 75.108578 
L 64.402105 47.185685 
L 64.713784 37.187085 
L 64.956201 34.604407 
L 65.060094 34.414125 
L 65.094725 34.444557 
L 65.233249 34.951271 
L 65.510297 37.28392 
L 66.17195 45.599155 
L 67.113582 56.445349 
L 67.824196 62.344729 
L 68.536063 66.674966 
L 69.389537 70.473057 
L 70.243011 73.320965 
L 71.340335 76.173487 
L 72.681508 78.997585 
L 74.679779 82.618541 
L 82.56909 96.018853 
L 91.954309 111.951739 
L 96.743901 119.583137 
L 101.340711 126.444067 
L 105.603487 132.401272 
L 110.333431 138.608284 
L 115.807673 145.378361 
L 122.311915 153.044716 
L 131.417853 163.421183 
L 139.873368 172.768881 
L 146.37761 179.635674 
L 151.581004 184.816143 
L 156.133973 189.06586 
L 160.686942 193.022912 
L 165.239912 196.675966 
L 169.792881 200.026662 
L 174.34585 203.086234 
L 178.89882 205.872129 
L 183.451789 208.405181 
L 188.360874 210.878521 
L 193.26996 213.111185 
L 198.179045 215.129321 
L 204.069947 217.301681 
L 209.96085 219.236946 
L 215.851752 220.967542 
L 223.246199 222.892639 
L 230.640645 224.585359 
L 239.513981 226.362878 
L 248.387317 227.912861 
L 258.064798 229.392411 
L 269.264301 230.883105 
L 282.703704 232.424018 
L 297.325859 233.862378 
L 314.439115 235.305952 
L 334.975023 236.782848 
L 358.933582 238.247617 
L 386.456515 239.681668 
L 386.456515 239.681668 
" style="fill:none;stroke:#ff0000;stroke-linecap:square;stroke-width:1.5;"/>
   </g>
   <g id="line2d_18">
    <defs>
     <path d="M 0 3 
C 0.795609 3 1.55874 2.683901 2.12132 2.12132 
C 2.683901 1.55874 3 0.795609 3 0 
C 3 -0.795609 2.683901 -1.55874 2.12132 -2.12132 
C 1.55874 -2.683901 0.795609 -3 0 -3 
C -0.795609 -3 -1.55874 -2.683901 -2.12132 -2.12132 
C -2.683901 -1.55874 -3 -0.795609 -3 0 
C -3 0.795609 -2.683901 1.55874 -2.12132 2.12132 
C -1.55874 2.683901 -0.795609 3 0 3 
z
" id="m60435293d8" style="stroke:#000000;"/>
    </defs>
    <g clip-path="url(#p103089a85e)">
     <use style="stroke:#000000;" x="64.490789" xlink:href="#m60435293d8" y="137.694761"/>
     <use style="stroke:#000000;" x="64.813898" xlink:href="#m60435293d8" y="140.698924"/>
     <use style="stroke:#000000;" x="65.137007" xlink:href="#m60435293d8" y="142.967177"/>
     <use style="stroke:#000000;" x="65.460117" xlink:href="#m60435293d8" y="148.29527"/>
     <use style="stroke:#000000;" x="65.783226" xlink:href="#m60435293d8" y="150.524791"/>
     <use style="stroke:#000000;" x="66.106335" xlink:href="#m60435293d8" y="153.192468"/>
     <use style="stroke:#000000;" x="66.429444" xlink:href="#m60435293d8" y="155.579338"/>
     <use style="stroke:#000000;" x="66.752553" xlink:href="#m60435293d8" y="157.428799"/>
     <use style="stroke:#000000;" x="67.075663" xlink:href="#m60435293d8" y="157.600673"/>
     <use style="stroke:#000000;" x="67.398772" xlink:href="#m60435293d8" y="158.539928"/>
     <use style="stroke:#000000;" x="67.721881" xlink:href="#m60435293d8" y="159.249211"/>
     <use style="stroke:#000000;" x="68.04499" xlink:href="#m60435293d8" y="159.169326"/>
     <use style="stroke:#000000;" x="68.368099" xlink:href="#m60435293d8" y="158.949036"/>
     <use style="stroke:#000000;" x="68.691209" xlink:href="#m60435293d8" y="159.421085"/>
     <use style="stroke:#000000;" x="69.014318" xlink:href="#m60435293d8" y="160.464432"/>
     <use style="stroke:#000000;" x="69.337427" xlink:href="#m60435293d8" y="160.912273"/>
     <use style="stroke:#000000;" x="69.660536" xlink:href="#m60435293d8" y="161.394004"/>
     <use style="stroke:#000000;" x="69.983645" xlink:href="#m60435293d8" y="161.853949"/>
     <use style="stroke:#000000;" x="70.306755" xlink:href="#m60435293d8" y="162.393778"/>
     <use style="stroke:#000000;" x="70.629864" xlink:href="#m60435293d8" y="162.657641"/>
     <use style="stroke:#000000;" x="70.952973" xlink:href="#m60435293d8" y="163.604159"/>
     <use style="stroke:#000000;" x="71.276082" xlink:href="#m60435293d8" y="163.589634"/>
     <use style="stroke:#000000;" x="71.599191" xlink:href="#m60435293d8" y="163.582372"/>
     <use style="stroke:#000000;" x="71.9223" xlink:href="#m60435293d8" y="163.301563"/>
     <use style="stroke:#000000;" x="72.24541" xlink:href="#m60435293d8" y="163.090957"/>
     <use style="stroke:#000000;" x="72.568519" xlink:href="#m60435293d8" y="165.07356"/>
     <use style="stroke:#000000;" x="72.891628" xlink:href="#m60435293d8" y="165.284166"/>
     <use style="stroke:#000000;" x="73.214737" xlink:href="#m60435293d8" y="164.632982"/>
     <use style="stroke:#000000;" x="73.537846" xlink:href="#m60435293d8" y="165.797367"/>
     <use style="stroke:#000000;" x="73.860956" xlink:href="#m60435293d8" y="165.908722"/>
     <use style="stroke:#000000;" x="74.184065" xlink:href="#m60435293d8" y="166.918179"/>
     <use style="stroke:#000000;" x="74.507174" xlink:href="#m60435293d8" y="167.625041"/>
     <use style="stroke:#000000;" x="74.830283" xlink:href="#m60435293d8" y="168.941935"/>
     <use style="stroke:#000000;" x="75.153392" xlink:href="#m60435293d8" y="169.711737"/>
     <use style="stroke:#000000;" x="75.476502" xlink:href="#m60435293d8" y="169.72142"/>
     <use style="stroke:#000000;" x="75.799611" xlink:href="#m60435293d8" y="169.559229"/>
     <use style="stroke:#000000;" x="76.12272" xlink:href="#m60435293d8" y="169.505972"/>
     <use style="stroke:#000000;" x="76.445829" xlink:href="#m60435293d8" y="168.70228"/>
     <use style="stroke:#000000;" x="76.768938" xlink:href="#m60435293d8" y="169.280841"/>
     <use style="stroke:#000000;" x="77.092048" xlink:href="#m60435293d8" y="170.145053"/>
     <use style="stroke:#000000;" x="77.415157" xlink:href="#m60435293d8" y="170.588052"/>
     <use style="stroke:#000000;" x="77.738266" xlink:href="#m60435293d8" y="171.004423"/>
     <use style="stroke:#000000;" x="78.061375" xlink:href="#m60435293d8" y="171.546673"/>
     <use style="stroke:#000000;" x="78.384484" xlink:href="#m60435293d8" y="171.883159"/>
     <use style="stroke:#000000;" x="78.707593" xlink:href="#m60435293d8" y="172.539185"/>
     <use style="stroke:#000000;" x="79.030703" xlink:href="#m60435293d8" y="172.033246"/>
     <use style="stroke:#000000;" x="79.353812" xlink:href="#m60435293d8" y="172.49319"/>
     <use style="stroke:#000000;" x="79.676921" xlink:href="#m60435293d8" y="172.899878"/>
     <use style="stroke:#000000;" x="80.00003" xlink:href="#m60435293d8" y="173.451811"/>
     <use style="stroke:#000000;" x="80.323139" xlink:href="#m60435293d8" y="174.301498"/>
     <use style="stroke:#000000;" x="80.646249" xlink:href="#m60435293d8" y="173.616423"/>
     <use style="stroke:#000000;" x="80.969358" xlink:href="#m60435293d8" y="174.504842"/>
     <use style="stroke:#000000;" x="81.292467" xlink:href="#m60435293d8" y="174.608935"/>
     <use style="stroke:#000000;" x="81.615576" xlink:href="#m60435293d8" y="174.236138"/>
     <use style="stroke:#000000;" x="81.938685" xlink:href="#m60435293d8" y="175.473146"/>
     <use style="stroke:#000000;" x="82.261795" xlink:href="#m60435293d8" y="174.451586"/>
     <use style="stroke:#000000;" x="82.584904" xlink:href="#m60435293d8" y="175.463463"/>
     <use style="stroke:#000000;" x="82.908013" xlink:href="#m60435293d8" y="174.257925"/>
     <use style="stroke:#000000;" x="83.231122" xlink:href="#m60435293d8" y="174.821962"/>
     <use style="stroke:#000000;" x="83.554231" xlink:href="#m60435293d8" y="175.1996"/>
     <use style="stroke:#000000;" x="83.877341" xlink:href="#m60435293d8" y="175.560294"/>
     <use style="stroke:#000000;" x="84.20045" xlink:href="#m60435293d8" y="175.385999"/>
     <use style="stroke:#000000;" x="84.523559" xlink:href="#m60435293d8" y="175.492512"/>
     <use style="stroke:#000000;" x="84.846668" xlink:href="#m60435293d8" y="176.552805"/>
     <use style="stroke:#000000;" x="85.169777" xlink:href="#m60435293d8" y="177.007908"/>
     <use style="stroke:#000000;" x="85.492887" xlink:href="#m60435293d8" y="176.940127"/>
     <use style="stroke:#000000;" x="85.815996" xlink:href="#m60435293d8" y="177.087793"/>
     <use style="stroke:#000000;" x="86.139105" xlink:href="#m60435293d8" y="177.784972"/>
     <use style="stroke:#000000;" x="86.462214" xlink:href="#m60435293d8" y="177.646989"/>
     <use style="stroke:#000000;" x="86.785323" xlink:href="#m60435293d8" y="178.79443"/>
     <use style="stroke:#000000;" x="87.108432" xlink:href="#m60435293d8" y="178.421632"/>
     <use style="stroke:#000000;" x="87.431542" xlink:href="#m60435293d8" y="178.784746"/>
     <use style="stroke:#000000;" x="87.754651" xlink:href="#m60435293d8" y="179.334259"/>
     <use style="stroke:#000000;" x="88.07776" xlink:href="#m60435293d8" y="179.481925"/>
     <use style="stroke:#000000;" x="88.400869" xlink:href="#m60435293d8" y="179.75063"/>
     <use style="stroke:#000000;" x="88.723978" xlink:href="#m60435293d8" y="179.542444"/>
     <use style="stroke:#000000;" x="89.047088" xlink:href="#m60435293d8" y="178.576561"/>
     <use style="stroke:#000000;" x="89.370197" xlink:href="#m60435293d8" y="179.377833"/>
     <use style="stroke:#000000;" x="89.693306" xlink:href="#m60435293d8" y="179.140598"/>
     <use style="stroke:#000000;" x="90.016415" xlink:href="#m60435293d8" y="179.498871"/>
     <use style="stroke:#000000;" x="90.339524" xlink:href="#m60435293d8" y="180.544639"/>
     <use style="stroke:#000000;" x="90.662634" xlink:href="#m60435293d8" y="179.871668"/>
     <use style="stroke:#000000;" x="90.985743" xlink:href="#m60435293d8" y="182.055194"/>
     <use style="stroke:#000000;" x="91.308852" xlink:href="#m60435293d8" y="180.430863"/>
     <use style="stroke:#000000;" x="91.631961" xlink:href="#m60435293d8" y="181.198245"/>
     <use style="stroke:#000000;" x="91.95507" xlink:href="#m60435293d8" y="182.340843"/>
     <use style="stroke:#000000;" x="92.27818" xlink:href="#m60435293d8" y="182.135079"/>
     <use style="stroke:#000000;" x="92.601289" xlink:href="#m60435293d8" y="182.432832"/>
     <use style="stroke:#000000;" x="92.924398" xlink:href="#m60435293d8" y="183.258312"/>
     <use style="stroke:#000000;" x="93.247507" xlink:href="#m60435293d8" y="184.107998"/>
     <use style="stroke:#000000;" x="93.570616" xlink:href="#m60435293d8" y="184.33555"/>
     <use style="stroke:#000000;" x="93.893726" xlink:href="#m60435293d8" y="185.328062"/>
     <use style="stroke:#000000;" x="94.216835" xlink:href="#m60435293d8" y="185.214286"/>
     <use style="stroke:#000000;" x="94.539944" xlink:href="#m60435293d8" y="185.347428"/>
     <use style="stroke:#000000;" x="94.863053" xlink:href="#m60435293d8" y="185.630657"/>
     <use style="stroke:#000000;" x="95.186162" xlink:href="#m60435293d8" y="185.591924"/>
     <use style="stroke:#000000;" x="95.509271" xlink:href="#m60435293d8" y="185.485411"/>
     <use style="stroke:#000000;" x="95.832381" xlink:href="#m60435293d8" y="185.67423"/>
     <use style="stroke:#000000;" x="96.15549" xlink:href="#m60435293d8" y="186.620748"/>
     <use style="stroke:#000000;" x="96.478599" xlink:href="#m60435293d8" y="185.761378"/>
     <use style="stroke:#000000;" x="96.801708" xlink:href="#m60435293d8" y="187.42444"/>
     <use style="stroke:#000000;" x="97.124817" xlink:href="#m60435293d8" y="186.344781"/>
     <use style="stroke:#000000;" x="97.447927" xlink:href="#m60435293d8" y="186.649797"/>
     <use style="stroke:#000000;" x="97.771036" xlink:href="#m60435293d8" y="186.46824"/>
     <use style="stroke:#000000;" x="98.094145" xlink:href="#m60435293d8" y="187.99816"/>
     <use style="stroke:#000000;" x="98.417254" xlink:href="#m60435293d8" y="187.586631"/>
     <use style="stroke:#000000;" x="98.740363" xlink:href="#m60435293d8" y="188.293493"/>
     <use style="stroke:#000000;" x="99.063473" xlink:href="#m60435293d8" y="188.138564"/>
     <use style="stroke:#000000;" x="99.386582" xlink:href="#m60435293d8" y="188.259602"/>
     <use style="stroke:#000000;" x="99.709691" xlink:href="#m60435293d8" y="188.28381"/>
     <use style="stroke:#000000;" x="100.0328" xlink:href="#m60435293d8" y="188.867213"/>
     <use style="stroke:#000000;" x="100.355909" xlink:href="#m60435293d8" y="189.515977"/>
     <use style="stroke:#000000;" x="100.679019" xlink:href="#m60435293d8" y="189.983184"/>
     <use style="stroke:#000000;" x="101.002128" xlink:href="#m60435293d8" y="189.419147"/>
     <use style="stroke:#000000;" x="101.325237" xlink:href="#m60435293d8" y="189.81373"/>
     <use style="stroke:#000000;" x="101.648346" xlink:href="#m60435293d8" y="189.177071"/>
     <use style="stroke:#000000;" x="101.971455" xlink:href="#m60435293d8" y="189.774998"/>
     <use style="stroke:#000000;" x="102.294565" xlink:href="#m60435293d8" y="189.189174"/>
     <use style="stroke:#000000;" x="102.617674" xlink:href="#m60435293d8" y="189.750791"/>
     <use style="stroke:#000000;" x="102.940783" xlink:href="#m60435293d8" y="190.569008"/>
     <use style="stroke:#000000;" x="103.263892" xlink:href="#m60435293d8" y="190.619844"/>
     <use style="stroke:#000000;" x="103.587001" xlink:href="#m60435293d8" y="190.341456"/>
     <use style="stroke:#000000;" x="103.91011" xlink:href="#m60435293d8" y="191.53247"/>
     <use style="stroke:#000000;" x="104.23322" xlink:href="#m60435293d8" y="191.268607"/>
     <use style="stroke:#000000;" x="104.556329" xlink:href="#m60435293d8" y="191.730973"/>
     <use style="stroke:#000000;" x="104.879438" xlink:href="#m60435293d8" y="191.486476"/>
     <use style="stroke:#000000;" x="105.202547" xlink:href="#m60435293d8" y="191.902847"/>
     <use style="stroke:#000000;" x="105.525656" xlink:href="#m60435293d8" y="192.019043"/>
     <use style="stroke:#000000;" x="105.848766" xlink:href="#m60435293d8" y="192.365212"/>
     <use style="stroke:#000000;" x="106.171875" xlink:href="#m60435293d8" y="193.023659"/>
     <use style="stroke:#000000;" x="106.494984" xlink:href="#m60435293d8" y="193.406139"/>
     <use style="stroke:#000000;" x="106.818093" xlink:href="#m60435293d8" y="193.636111"/>
     <use style="stroke:#000000;" x="107.141202" xlink:href="#m60435293d8" y="193.916919"/>
     <use style="stroke:#000000;" x="107.464312" xlink:href="#m60435293d8" y="194.546317"/>
     <use style="stroke:#000000;" x="107.787421" xlink:href="#m60435293d8" y="194.139629"/>
     <use style="stroke:#000000;" x="108.11053" xlink:href="#m60435293d8" y="193.517494"/>
     <use style="stroke:#000000;" x="108.433639" xlink:href="#m60435293d8" y="194.611677"/>
     <use style="stroke:#000000;" x="108.756748" xlink:href="#m60435293d8" y="195.071622"/>
     <use style="stroke:#000000;" x="109.079858" xlink:href="#m60435293d8" y="195.48073"/>
     <use style="stroke:#000000;" x="109.402967" xlink:href="#m60435293d8" y="195.739752"/>
     <use style="stroke:#000000;" x="109.726076" xlink:href="#m60435293d8" y="196.301368"/>
     <use style="stroke:#000000;" x="110.049185" xlink:href="#m60435293d8" y="196.763733"/>
     <use style="stroke:#000000;" x="110.372294" xlink:href="#m60435293d8" y="196.354625"/>
     <use style="stroke:#000000;" x="110.695404" xlink:href="#m60435293d8" y="197.468175"/>
     <use style="stroke:#000000;" x="111.018513" xlink:href="#m60435293d8" y="198.165354"/>
     <use style="stroke:#000000;" x="111.341622" xlink:href="#m60435293d8" y="198.451003"/>
     <use style="stroke:#000000;" x="111.664731" xlink:href="#m60435293d8" y="198.453424"/>
     <use style="stroke:#000000;" x="111.98784" xlink:href="#m60435293d8" y="198.501839"/>
     <use style="stroke:#000000;" x="112.310949" xlink:href="#m60435293d8" y="198.748757"/>
     <use style="stroke:#000000;" x="112.634059" xlink:href="#m60435293d8" y="199.867148"/>
     <use style="stroke:#000000;" x="112.957168" xlink:href="#m60435293d8" y="200.264153"/>
     <use style="stroke:#000000;" x="113.280277" xlink:href="#m60435293d8" y="199.721902"/>
     <use style="stroke:#000000;" x="113.603386" xlink:href="#m60435293d8" y="200.419081"/>
     <use style="stroke:#000000;" x="113.926495" xlink:href="#m60435293d8" y="200.695048"/>
     <use style="stroke:#000000;" x="114.249605" xlink:href="#m60435293d8" y="200.971015"/>
     <use style="stroke:#000000;" x="114.572714" xlink:href="#m60435293d8" y="200.704731"/>
     <use style="stroke:#000000;" x="114.895823" xlink:href="#m60435293d8" y="201.40191"/>
     <use style="stroke:#000000;" x="115.218932" xlink:href="#m60435293d8" y="201.266348"/>
     <use style="stroke:#000000;" x="115.542041" xlink:href="#m60435293d8" y="200.266574"/>
     <use style="stroke:#000000;" x="115.865151" xlink:href="#m60435293d8" y="201.961106"/>
     <use style="stroke:#000000;" x="116.18826" xlink:href="#m60435293d8" y="201.547156"/>
     <use style="stroke:#000000;" x="116.511369" xlink:href="#m60435293d8" y="202.517881"/>
     <use style="stroke:#000000;" x="116.834478" xlink:href="#m60435293d8" y="202.529984"/>
     <use style="stroke:#000000;" x="117.157587" xlink:href="#m60435293d8" y="203.081918"/>
     <use style="stroke:#000000;" x="117.480697" xlink:href="#m60435293d8" y="203.219901"/>
     <use style="stroke:#000000;" x="117.803806" xlink:href="#m60435293d8" y="203.498289"/>
     <use style="stroke:#000000;" x="118.126915" xlink:href="#m60435293d8" y="204.055063"/>
     <use style="stroke:#000000;" x="118.450024" xlink:href="#m60435293d8" y="203.776676"/>
     <use style="stroke:#000000;" x="118.773133" xlink:href="#m60435293d8" y="205.299334"/>
     <use style="stroke:#000000;" x="119.096243" xlink:href="#m60435293d8" y="204.333451"/>
     <use style="stroke:#000000;" x="119.419352" xlink:href="#m60435293d8" y="205.15893"/>
     <use style="stroke:#000000;" x="119.742461" xlink:href="#m60435293d8" y="205.449421"/>
     <use style="stroke:#000000;" x="120.06557" xlink:href="#m60435293d8" y="205.856109"/>
     <use style="stroke:#000000;" x="120.388679" xlink:href="#m60435293d8" y="206.541184"/>
     <use style="stroke:#000000;" x="120.711788" xlink:href="#m60435293d8" y="206.548447"/>
     <use style="stroke:#000000;" x="121.034898" xlink:href="#m60435293d8" y="206.688851"/>
     <use style="stroke:#000000;" x="121.358007" xlink:href="#m60435293d8" y="207.122167"/>
     <use style="stroke:#000000;" x="121.681116" xlink:href="#m60435293d8" y="207.507068"/>
     <use style="stroke:#000000;" x="122.004225" xlink:href="#m60435293d8" y="207.92828"/>
     <use style="stroke:#000000;" x="122.327334" xlink:href="#m60435293d8" y="207.511909"/>
     <use style="stroke:#000000;" x="122.650444" xlink:href="#m60435293d8" y="207.657155"/>
     <use style="stroke:#000000;" x="122.973553" xlink:href="#m60435293d8" y="208.908688"/>
     <use style="stroke:#000000;" x="123.296662" xlink:href="#m60435293d8" y="208.618197"/>
     <use style="stroke:#000000;" x="123.619771" xlink:href="#m60435293d8" y="209.729326"/>
     <use style="stroke:#000000;" x="123.94288" xlink:href="#m60435293d8" y="209.148343"/>
     <use style="stroke:#000000;" x="124.26599" xlink:href="#m60435293d8" y="209.976243"/>
     <use style="stroke:#000000;" x="124.589099" xlink:href="#m60435293d8" y="210.150538"/>
     <use style="stroke:#000000;" x="124.912208" xlink:href="#m60435293d8" y="209.574397"/>
     <use style="stroke:#000000;" x="125.235317" xlink:href="#m60435293d8" y="211.329448"/>
     <use style="stroke:#000000;" x="125.558426" xlink:href="#m60435293d8" y="210.671001"/>
     <use style="stroke:#000000;" x="125.881536" xlink:href="#m60435293d8" y="211.215672"/>
     <use style="stroke:#000000;" x="126.204645" xlink:href="#m60435293d8" y="211.351235"/>
     <use style="stroke:#000000;" x="126.527754" xlink:href="#m60435293d8" y="210.796881"/>
     <use style="stroke:#000000;" x="126.850863" xlink:href="#m60435293d8" y="210.671001"/>
     <use style="stroke:#000000;" x="127.173972" xlink:href="#m60435293d8" y="208.6303"/>
     <use style="stroke:#000000;" x="127.497082" xlink:href="#m60435293d8" y="205.301755"/>
     <use style="stroke:#000000;" x="127.820191" xlink:href="#m60435293d8" y="201.965947"/>
     <use style="stroke:#000000;" x="128.1433" xlink:href="#m60435293d8" y="200.583693"/>
     <use style="stroke:#000000;" x="128.466409" xlink:href="#m60435293d8" y="200.985539"/>
     <use style="stroke:#000000;" x="128.789518" xlink:href="#m60435293d8" y="204.195468"/>
     <use style="stroke:#000000;" x="129.112627" xlink:href="#m60435293d8" y="208.896584"/>
     <use style="stroke:#000000;" x="129.435737" xlink:href="#m60435293d8" y="211.847491"/>
     <use style="stroke:#000000;" x="129.758846" xlink:href="#m60435293d8" y="213.27574"/>
     <use style="stroke:#000000;" x="130.081955" xlink:href="#m60435293d8" y="214.90007"/>
     <use style="stroke:#000000;" x="130.405064" xlink:href="#m60435293d8" y="214.919436"/>
     <use style="stroke:#000000;" x="130.728173" xlink:href="#m60435293d8" y="215.418112"/>
     <use style="stroke:#000000;" x="131.051283" xlink:href="#m60435293d8" y="215.551254"/>
     <use style="stroke:#000000;" x="131.374392" xlink:href="#m60435293d8" y="216.388837"/>
     <use style="stroke:#000000;" x="131.697501" xlink:href="#m60435293d8" y="215.769123"/>
     <use style="stroke:#000000;" x="132.02061" xlink:href="#m60435293d8" y="216.611547"/>
     <use style="stroke:#000000;" x="132.343719" xlink:href="#m60435293d8" y="216.185493"/>
     <use style="stroke:#000000;" x="132.666829" xlink:href="#m60435293d8" y="216.657542"/>
     <use style="stroke:#000000;" x="132.989938" xlink:href="#m60435293d8" y="217.391032"/>
     <use style="stroke:#000000;" x="133.313047" xlink:href="#m60435293d8" y="217.570168"/>
     <use style="stroke:#000000;" x="133.636156" xlink:href="#m60435293d8" y="217.269994"/>
     <use style="stroke:#000000;" x="133.959265" xlink:href="#m60435293d8" y="217.613742"/>
     <use style="stroke:#000000;" x="134.282375" xlink:href="#m60435293d8" y="217.67184"/>
     <use style="stroke:#000000;" x="134.605484" xlink:href="#m60435293d8" y="218.187462"/>
     <use style="stroke:#000000;" x="134.928593" xlink:href="#m60435293d8" y="218.477953"/>
     <use style="stroke:#000000;" x="135.251702" xlink:href="#m60435293d8" y="218.741816"/>
     <use style="stroke:#000000;" x="135.574811" xlink:href="#m60435293d8" y="219.10251"/>
     <use style="stroke:#000000;" x="135.897921" xlink:href="#m60435293d8" y="219.460782"/>
     <use style="stroke:#000000;" x="136.22103" xlink:href="#m60435293d8" y="219.305853"/>
     <use style="stroke:#000000;" x="136.544139" xlink:href="#m60435293d8" y="218.787811"/>
     <use style="stroke:#000000;" x="136.867248" xlink:href="#m60435293d8" y="220.332256"/>
     <use style="stroke:#000000;" x="137.190357" xlink:href="#m60435293d8" y="220.133753"/>
     <use style="stroke:#000000;" x="137.513466" xlink:href="#m60435293d8" y="220.615485"/>
     <use style="stroke:#000000;" x="137.836576" xlink:href="#m60435293d8" y="220.850299"/>
     <use style="stroke:#000000;" x="138.159685" xlink:href="#m60435293d8" y="221.220675"/>
     <use style="stroke:#000000;" x="138.482794" xlink:href="#m60435293d8" y="221.39497"/>
     <use style="stroke:#000000;" x="138.805903" xlink:href="#m60435293d8" y="222.278547"/>
     <use style="stroke:#000000;" x="139.129012" xlink:href="#m60435293d8" y="221.063325"/>
     <use style="stroke:#000000;" x="139.452122" xlink:href="#m60435293d8" y="221.867018"/>
     <use style="stroke:#000000;" x="139.775231" xlink:href="#m60435293d8" y="222.196241"/>
     <use style="stroke:#000000;" x="140.09834" xlink:href="#m60435293d8" y="221.980794"/>
     <use style="stroke:#000000;" x="140.421449" xlink:href="#m60435293d8" y="222.610191"/>
     <use style="stroke:#000000;" x="140.744558" xlink:href="#m60435293d8" y="222.835322"/>
     <use style="stroke:#000000;" x="141.067668" xlink:href="#m60435293d8" y="223.24201"/>
     <use style="stroke:#000000;" x="141.390777" xlink:href="#m60435293d8" y="223.309791"/>
     <use style="stroke:#000000;" x="141.713886" xlink:href="#m60435293d8" y="223.578495"/>
     <use style="stroke:#000000;" x="142.036995" xlink:href="#m60435293d8" y="223.820571"/>
     <use style="stroke:#000000;" x="142.360104" xlink:href="#m60435293d8" y="224.031178"/>
     <use style="stroke:#000000;" x="142.683214" xlink:href="#m60435293d8" y="224.314407"/>
     <use style="stroke:#000000;" x="143.006323" xlink:href="#m60435293d8" y="224.481439"/>
     <use style="stroke:#000000;" x="143.329432" xlink:href="#m60435293d8" y="224.742881"/>
     <use style="stroke:#000000;" x="143.652541" xlink:href="#m60435293d8" y="225.045476"/>
     <use style="stroke:#000000;" x="143.97565" xlink:href="#m60435293d8" y="225.222192"/>
    </g>
   </g>
   <g id="line2d_19">
    <path clip-path="url(#p103089a85e)" d="M 64.490789 109.194587 
L 64.813898 112.129193 
L 65.783226 124.583151 
L 66.429444 130.403634 
L 67.075663 134.375339 
L 67.721881 137.170863 
L 68.691209 140.101077 
L 69.660536 142.20148 
L 70.952973 144.375929 
L 72.891628 147.082507 
L 89.693306 168.956194 
L 93.893726 174.054128 
L 98.094145 178.791921 
L 101.971455 182.83114 
L 105.848766 186.560807 
L 110.049185 190.284908 
L 114.572714 193.979983 
L 119.419352 197.642054 
L 124.912208 201.498377 
L 130.728173 205.305304 
L 136.867248 209.055034 
L 143.006323 212.552631 
L 143.97565 213.08345 
L 143.97565 213.08345 
" style="fill:none;stroke:#0000ff;stroke-dasharray:5.55,2.4;stroke-dashoffset:0;stroke-width:1.5;"/>
   </g>
   <g id="line2d_20">
    <path clip-path="url(#p103089a85e)" d="M 64.490789 150.186017 
L 64.813898 151.134185 
L 66.429444 162.87917 
L 67.075663 165.826707 
L 67.721881 167.963469 
L 68.691209 170.210319 
L 69.660536 171.76627 
L 70.629864 172.922608 
L 71.9223 174.110948 
L 73.860956 175.521682 
L 78.707593 178.592557 
L 83.231122 181.608278 
L 88.723978 185.561299 
L 105.525656 197.849705 
L 111.341622 201.72556 
L 116.834478 205.125189 
L 122.650444 208.464529 
L 129.758846 212.262461 
L 139.129012 216.994032 
L 143.97565 219.366354 
L 143.97565 219.366354 
" style="fill:none;stroke:#0000ff;stroke-dasharray:5.55,2.4;stroke-dashoffset:0;stroke-width:1.5;"/>
   </g>
   <g id="line2d_21"/>
   <g id="line2d_22"/>
   <g id="line2d_23"/>
   <g id="line2d_24"/>
   <g id="line2d_25"/>
   <g id="line2d_26"/>
   <g id="patch_3">
    <path d="M 46.965625 288.430125 
L 46.965625 22.318125 
" style="fill:none;stroke:#000000;stroke-linecap:square;stroke-linejoin:miter;stroke-width:0.8;"/>
   </g>
   <g id="patch_4">
    <path d="M 404.085625 288.430125 
L 404.085625 22.318125 
" style="fill:none;stroke:#000000;stroke-linecap:square;stroke-linejoin:miter;stroke-width:0.8;"/>
   </g>
   <g id="patch_5">
    <path d="M 46.965625 288.430125 
L 404.085625 288.430125 
" style="fill:none;stroke:#000000;stroke-linecap:square;stroke-linejoin:miter;stroke-width:0.8;"/>
   </g>
   <g id="patch_6">
    <path d="M 46.965625 22.318125 
L 404.085625 22.318125 
" style="fill:none;stroke:#000000;stroke-linecap:square;stroke-linejoin:miter;stroke-width:0.8;"/>
   </g>
   <g id="text_18">
    <!-- Experiment_47 -->
    <g transform="translate(180.222813 16.318125)scale(0.12 -0.12)">
     <defs>
      <path d="M 9.8125 72.90625 
L 55.90625 72.90625 
L 55.90625 64.59375 
L 19.671875 64.59375 
L 19.671875 43.015625 
L 54.390625 43.015625 
L 54.390625 34.71875 
L 19.671875 34.71875 
L 19.671875 8.296875 
L 56.78125 8.296875 
L 56.78125 0 
L 9.8125 0 
z
" id="DejaVuSans-69"/>
      <path d="M 54.890625 54.6875 
L 35.109375 28.078125 
L 55.90625 0 
L 45.3125 0 
L 29.390625 21.484375 
L 13.484375 0 
L 2.875 0 
L 24.125 28.609375 
L 4.6875 54.6875 
L 15.28125 54.6875 
L 29.78125 35.203125 
L 44.28125 54.6875 
z
" id="DejaVuSans-120"/>
      <path d="M 41.109375 46.296875 
Q 39.59375 47.171875 37.8125 47.578125 
Q 36.03125 48 33.890625 48 
Q 26.265625 48 22.1875 43.046875 
Q 18.109375 38.09375 18.109375 28.8125 
L 18.109375 0 
L 9.078125 0 
L 9.078125 54.6875 
L 18.109375 54.6875 
L 18.109375 46.1875 
Q 20.953125 51.171875 25.484375 53.578125 
Q 30.03125 56 36.53125 56 
Q 37.453125 56 38.578125 55.875 
Q 39.703125 55.765625 41.0625 55.515625 
z
" id="DejaVuSans-114"/>
      <path d="M 54.890625 33.015625 
L 54.890625 0 
L 45.90625 0 
L 45.90625 32.71875 
Q 45.90625 40.484375 42.875 44.328125 
Q 39.84375 48.1875 33.796875 48.1875 
Q 26.515625 48.1875 22.3125 43.546875 
Q 18.109375 38.921875 18.109375 30.90625 
L 18.109375 0 
L 9.078125 0 
L 9.078125 54.6875 
L 18.109375 54.6875 
L 18.109375 46.1875 
Q 21.34375 51.125 25.703125 53.5625 
Q 30.078125 56 35.796875 56 
Q 45.21875 56 50.046875 50.171875 
Q 54.890625 44.34375 54.890625 33.015625 
z
" id="DejaVuSans-110"/>
      <path d="M 18.3125 70.21875 
L 18.3125 54.6875 
L 36.8125 54.6875 
L 36.8125 47.703125 
L 18.3125 47.703125 
L 18.3125 18.015625 
Q 18.3125 11.328125 20.140625 9.421875 
Q 21.96875 7.515625 27.59375 7.515625 
L 36.8125 7.515625 
L 36.8125 0 
L 27.59375 0 
Q 17.1875 0 13.234375 3.875 
Q 9.28125 7.765625 9.28125 18.015625 
L 9.28125 47.703125 
L 2.6875 47.703125 
L 2.6875 54.6875 
L 9.28125 54.6875 
L 9.28125 70.21875 
z
" id="DejaVuSans-116"/>
      <path d="M 50.984375 -16.609375 
L 50.984375 -23.578125 
L -0.984375 -23.578125 
L -0.984375 -16.609375 
z
" id="DejaVuSans-95"/>
      <path d="M 8.203125 72.90625 
L 55.078125 72.90625 
L 55.078125 68.703125 
L 28.609375 0 
L 18.3125 0 
L 43.21875 64.59375 
L 8.203125 64.59375 
z
" id="DejaVuSans-55"/>
     </defs>
     <use xlink:href="#DejaVuSans-69"/>
     <use x="63.183594" xlink:href="#DejaVuSans-120"/>
     <use x="122.363281" xlink:href="#DejaVuSans-112"/>
     <use x="185.839844" xlink:href="#DejaVuSans-101"/>
     <use x="247.363281" xlink:href="#DejaVuSans-114"/>
     <use x="288.476562" xlink:href="#DejaVuSans-105"/>
     <use x="316.259766" xlink:href="#DejaVuSans-109"/>
     <use x="413.671875" xlink:href="#DejaVuSans-101"/>
     <use x="475.195312" xlink:href="#DejaVuSans-110"/>
     <use x="538.574219" xlink:href="#DejaVuSans-116"/>
     <use x="577.783203" xlink:href="#DejaVuSans-95"/>
     <use x="627.783203" xlink:href="#DejaVuSans-52"/>
     <use x="691.40625" xlink:href="#DejaVuSans-55"/>
    </g>
   </g>
   <g id="legend_1">
    <g id="patch_7">
     <path d="M 140.965313 103.730625 
L 397.085625 103.730625 
Q 399.085625 103.730625 399.085625 101.730625 
L 399.085625 29.318125 
Q 399.085625 27.318125 397.085625 27.318125 
L 140.965313 27.318125 
Q 138.965313 27.318125 138.965313 29.318125 
L 138.965313 101.730625 
Q 138.965313 103.730625 140.965313 103.730625 
z
" style="fill:#ffffff;opacity:0.8;stroke:#cccccc;stroke-linejoin:miter;"/>
    </g>
    <g id="line2d_27">
     <path d="M 142.965313 35.416562 
L 162.965313 35.416562 
" style="fill:none;stroke:#0000ff;stroke-linecap:square;stroke-width:1.5;"/>
    </g>
    <g id="line2d_28"/>
    <g id="text_19">
     <!-- MSI -->
     <g transform="translate(170.965313 38.916562)scale(0.1 -0.1)">
      <defs>
       <path d="M 9.8125 72.90625 
L 24.515625 72.90625 
L 43.109375 23.296875 
L 61.8125 72.90625 
L 76.515625 72.90625 
L 76.515625 0 
L 66.890625 0 
L 66.890625 64.015625 
L 48.09375 14.015625 
L 38.1875 14.015625 
L 19.390625 64.015625 
L 19.390625 0 
L 9.8125 0 
z
" id="DejaVuSans-77"/>
       <path d="M 53.515625 70.515625 
L 53.515625 60.890625 
Q 47.90625 63.578125 42.921875 64.890625 
Q 37.9375 66.21875 33.296875 66.21875 
Q 25.25 66.21875 20.875 63.09375 
Q 16.5 59.96875 16.5 54.203125 
Q 16.5 49.359375 19.40625 46.890625 
Q 22.3125 44.4375 30.421875 42.921875 
L 36.375 41.703125 
Q 47.40625 39.59375 52.65625 34.296875 
Q 57.90625 29 57.90625 20.125 
Q 57.90625 9.515625 50.796875 4.046875 
Q 43.703125 -1.421875 29.984375 -1.421875 
Q 24.8125 -1.421875 18.96875 -0.25 
Q 13.140625 0.921875 6.890625 3.21875 
L 6.890625 13.375 
Q 12.890625 10.015625 18.65625 8.296875 
Q 24.421875 6.59375 29.984375 6.59375 
Q 38.421875 6.59375 43.015625 9.90625 
Q 47.609375 13.234375 47.609375 19.390625 
Q 47.609375 24.75 44.3125 27.78125 
Q 41.015625 30.8125 33.5 32.328125 
L 27.484375 33.5 
Q 16.453125 35.6875 11.515625 40.375 
Q 6.59375 45.0625 6.59375 53.421875 
Q 6.59375 63.09375 13.40625 68.65625 
Q 20.21875 74.21875 32.171875 74.21875 
Q 37.3125 74.21875 42.625 73.28125 
Q 47.953125 72.359375 53.515625 70.515625 
z
" id="DejaVuSans-83"/>
       <path d="M 9.8125 72.90625 
L 19.671875 72.90625 
L 19.671875 0 
L 9.8125 0 
z
" id="DejaVuSans-73"/>
      </defs>
      <use xlink:href="#DejaVuSans-77"/>
      <use x="86.279297" xlink:href="#DejaVuSans-83"/>
      <use x="149.755859" xlink:href="#DejaVuSans-73"/>
     </g>
    </g>
    <g id="line2d_29">
     <path d="M 142.965313 50.09625 
L 162.965313 50.09625 
" style="fill:none;stroke:#ff0000;stroke-linecap:square;stroke-width:1.5;"/>
    </g>
    <g id="line2d_30"/>
    <g id="text_20">
     <!-- $\it{A priori}$ model -->
     <g transform="translate(170.965313 53.59625)scale(0.1 -0.1)">
      <defs>
       <path d="M 36.8125 72.90625 
L 48 72.90625 
L 61.53125 0 
L 51.21875 0 
L 48.1875 18.703125 
L 15.375 18.703125 
L 5.078125 0 
L -5.328125 0 
z
M 40.375 63.1875 
L 19.921875 26.90625 
L 46.6875 26.90625 
z
" id="DejaVuSans-Oblique-65"/>
       <path d="M 49.609375 33.6875 
Q 49.609375 40.875 46.484375 44.671875 
Q 43.359375 48.484375 37.5 48.484375 
Q 33.5 48.484375 29.859375 46.4375 
Q 26.21875 44.390625 23.390625 40.484375 
Q 20.609375 36.625 18.9375 31.15625 
Q 17.28125 25.6875 17.28125 20.3125 
Q 17.28125 13.484375 20.40625 9.796875 
Q 23.53125 6.109375 29.296875 6.109375 
Q 33.546875 6.109375 37.1875 8.109375 
Q 40.828125 10.109375 43.40625 13.921875 
Q 46.1875 17.921875 47.890625 23.34375 
Q 49.609375 28.765625 49.609375 33.6875 
z
M 21.78125 46.390625 
Q 25.390625 51.125 30.296875 53.5625 
Q 35.203125 56 41.21875 56 
Q 49.609375 56 54.25 50.5 
Q 58.890625 45.015625 58.890625 35.109375 
Q 58.890625 27 56 19.65625 
Q 53.125 12.3125 47.703125 6.5 
Q 44.09375 2.640625 39.546875 0.609375 
Q 35.015625 -1.421875 29.984375 -1.421875 
Q 24.171875 -1.421875 20.21875 1 
Q 16.265625 3.421875 14.3125 8.203125 
L 8.6875 -20.796875 
L -0.296875 -20.796875 
L 14.40625 54.6875 
L 23.390625 54.6875 
z
" id="DejaVuSans-Oblique-112"/>
       <path d="M 44.578125 46.390625 
Q 43.21875 47.125 41.453125 47.515625 
Q 39.703125 47.90625 37.703125 47.90625 
Q 30.515625 47.90625 25.140625 42.453125 
Q 19.78125 37.015625 18.015625 27.875 
L 12.5 0 
L 3.515625 0 
L 14.203125 54.6875 
L 23.1875 54.6875 
L 21.484375 46.1875 
Q 25.046875 50.921875 30 53.453125 
Q 34.96875 56 40.578125 56 
Q 42.046875 56 43.453125 55.828125 
Q 44.875 55.671875 46.296875 55.28125 
z
" id="DejaVuSans-Oblique-114"/>
       <path d="M 18.3125 75.984375 
L 27.296875 75.984375 
L 25.09375 64.59375 
L 16.109375 64.59375 
z
M 14.203125 54.6875 
L 23.1875 54.6875 
L 12.5 0 
L 3.515625 0 
z
" id="DejaVuSans-Oblique-105"/>
       <path d="M 25.390625 -1.421875 
Q 15.765625 -1.421875 10.171875 4.515625 
Q 4.59375 10.453125 4.59375 20.703125 
Q 4.59375 26.65625 6.515625 32.828125 
Q 8.453125 39.015625 11.53125 43.21875 
Q 16.359375 49.75 22.3125 52.875 
Q 28.265625 56 35.796875 56 
Q 45.125 56 50.859375 50.1875 
Q 56.59375 44.390625 56.59375 35.015625 
Q 56.59375 28.515625 54.6875 22.0625 
Q 52.78125 15.625 49.703125 11.375 
Q 44.921875 4.828125 38.96875 1.703125 
Q 33.015625 -1.421875 25.390625 -1.421875 
z
M 13.921875 21 
Q 13.921875 13.578125 17.015625 9.890625 
Q 20.125 6.203125 26.421875 6.203125 
Q 35.453125 6.203125 41.375 14.078125 
Q 47.3125 21.96875 47.3125 34.078125 
Q 47.3125 41.15625 44.140625 44.765625 
Q 40.96875 48.390625 34.8125 48.390625 
Q 29.734375 48.390625 25.78125 46.015625 
Q 21.828125 43.65625 18.703125 38.8125 
Q 16.40625 35.203125 15.15625 30.5625 
Q 13.921875 25.921875 13.921875 21 
z
" id="DejaVuSans-Oblique-111"/>
       <path d="M 30.609375 48.390625 
Q 23.390625 48.390625 19.1875 42.75 
Q 14.984375 37.109375 14.984375 27.296875 
Q 14.984375 17.484375 19.15625 11.84375 
Q 23.34375 6.203125 30.609375 6.203125 
Q 37.796875 6.203125 41.984375 11.859375 
Q 46.1875 17.53125 46.1875 27.296875 
Q 46.1875 37.015625 41.984375 42.703125 
Q 37.796875 48.390625 30.609375 48.390625 
z
M 30.609375 56 
Q 42.328125 56 49.015625 48.375 
Q 55.71875 40.765625 55.71875 27.296875 
Q 55.71875 13.875 49.015625 6.21875 
Q 42.328125 -1.421875 30.609375 -1.421875 
Q 18.84375 -1.421875 12.171875 6.21875 
Q 5.515625 13.875 5.515625 27.296875 
Q 5.515625 40.765625 12.171875 48.375 
Q 18.84375 56 30.609375 56 
z
" id="DejaVuSans-111"/>
       <path d="M 45.40625 46.390625 
L 45.40625 75.984375 
L 54.390625 75.984375 
L 54.390625 0 
L 45.40625 0 
L 45.40625 8.203125 
Q 42.578125 3.328125 38.25 0.953125 
Q 33.9375 -1.421875 27.875 -1.421875 
Q 17.96875 -1.421875 11.734375 6.484375 
Q 5.515625 14.40625 5.515625 27.296875 
Q 5.515625 40.1875 11.734375 48.09375 
Q 17.96875 56 27.875 56 
Q 33.9375 56 38.25 53.625 
Q 42.578125 51.265625 45.40625 46.390625 
z
M 14.796875 27.296875 
Q 14.796875 17.390625 18.875 11.75 
Q 22.953125 6.109375 30.078125 6.109375 
Q 37.203125 6.109375 41.296875 11.75 
Q 45.40625 17.390625 45.40625 27.296875 
Q 45.40625 37.203125 41.296875 42.84375 
Q 37.203125 48.484375 30.078125 48.484375 
Q 22.953125 48.484375 18.875 42.84375 
Q 14.796875 37.203125 14.796875 27.296875 
z
" id="DejaVuSans-100"/>
       <path d="M 9.421875 75.984375 
L 18.40625 75.984375 
L 18.40625 0 
L 9.421875 0 
z
" id="DejaVuSans-108"/>
      </defs>
      <use transform="translate(0 0.015625)" xlink:href="#DejaVuSans-Oblique-65"/>
      <use transform="translate(68.408203 0.015625)" xlink:href="#DejaVuSans-Oblique-112"/>
      <use transform="translate(131.884766 0.015625)" xlink:href="#DejaVuSans-Oblique-114"/>
      <use transform="translate(172.998047 0.015625)" xlink:href="#DejaVuSans-Oblique-105"/>
      <use transform="translate(200.78125 0.015625)" xlink:href="#DejaVuSans-Oblique-111"/>
      <use transform="translate(261.962891 0.015625)" xlink:href="#DejaVuSans-Oblique-114"/>
      <use transform="translate(303.076172 0.015625)" xlink:href="#DejaVuSans-Oblique-105"/>
      <use transform="translate(330.859375 0.015625)" xlink:href="#DejaVuSans-32"/>
      <use transform="translate(362.646484 0.015625)" xlink:href="#DejaVuSans-109"/>
      <use transform="translate(460.058594 0.015625)" xlink:href="#DejaVuSans-111"/>
      <use transform="translate(521.240234 0.015625)" xlink:href="#DejaVuSans-100"/>
      <use transform="translate(584.716797 0.015625)" xlink:href="#DejaVuSans-101"/>
      <use transform="translate(646.240234 0.015625)" xlink:href="#DejaVuSans-108"/>
     </g>
    </g>
    <g id="line2d_31"/>
    <g id="line2d_32">
     <g>
      <use style="stroke:#000000;" x="152.965313" xlink:href="#m60435293d8" y="64.794688"/>
     </g>
    </g>
    <g id="text_21">
     <!-- Experimental Data -->
     <g transform="translate(170.965313 68.294688)scale(0.1 -0.1)">
      <defs>
       <path d="M 34.28125 27.484375 
Q 23.390625 27.484375 19.1875 25 
Q 14.984375 22.515625 14.984375 16.5 
Q 14.984375 11.71875 18.140625 8.90625 
Q 21.296875 6.109375 26.703125 6.109375 
Q 34.1875 6.109375 38.703125 11.40625 
Q 43.21875 16.703125 43.21875 25.484375 
L 43.21875 27.484375 
z
M 52.203125 31.203125 
L 52.203125 0 
L 43.21875 0 
L 43.21875 8.296875 
Q 40.140625 3.328125 35.546875 0.953125 
Q 30.953125 -1.421875 24.3125 -1.421875 
Q 15.921875 -1.421875 10.953125 3.296875 
Q 6 8.015625 6 15.921875 
Q 6 25.140625 12.171875 29.828125 
Q 18.359375 34.515625 30.609375 34.515625 
L 43.21875 34.515625 
L 43.21875 35.40625 
Q 43.21875 41.609375 39.140625 45 
Q 35.0625 48.390625 27.6875 48.390625 
Q 23 48.390625 18.546875 47.265625 
Q 14.109375 46.140625 10.015625 43.890625 
L 10.015625 52.203125 
Q 14.9375 54.109375 19.578125 55.046875 
Q 24.21875 56 28.609375 56 
Q 40.484375 56 46.34375 49.84375 
Q 52.203125 43.703125 52.203125 31.203125 
z
" id="DejaVuSans-97"/>
       <path d="M 19.671875 64.796875 
L 19.671875 8.109375 
L 31.59375 8.109375 
Q 46.6875 8.109375 53.6875 14.9375 
Q 60.6875 21.78125 60.6875 36.53125 
Q 60.6875 51.171875 53.6875 57.984375 
Q 46.6875 64.796875 31.59375 64.796875 
z
M 9.8125 72.90625 
L 30.078125 72.90625 
Q 51.265625 72.90625 61.171875 64.09375 
Q 71.09375 55.28125 71.09375 36.53125 
Q 71.09375 17.671875 61.125 8.828125 
Q 51.171875 0 30.078125 0 
L 9.8125 0 
z
" id="DejaVuSans-68"/>
      </defs>
      <use xlink:href="#DejaVuSans-69"/>
      <use x="63.183594" xlink:href="#DejaVuSans-120"/>
      <use x="122.363281" xlink:href="#DejaVuSans-112"/>
      <use x="185.839844" xlink:href="#DejaVuSans-101"/>
      <use x="247.363281" xlink:href="#DejaVuSans-114"/>
      <use x="288.476562" xlink:href="#DejaVuSans-105"/>
      <use x="316.259766" xlink:href="#DejaVuSans-109"/>
      <use x="413.671875" xlink:href="#DejaVuSans-101"/>
      <use x="475.195312" xlink:href="#DejaVuSans-110"/>
      <use x="538.574219" xlink:href="#DejaVuSans-116"/>
      <use x="577.783203" xlink:href="#DejaVuSans-97"/>
      <use x="639.0625" xlink:href="#DejaVuSans-108"/>
      <use x="666.845703" xlink:href="#DejaVuSans-32"/>
      <use x="698.632812" xlink:href="#DejaVuSans-68"/>
      <use x="775.634766" xlink:href="#DejaVuSans-97"/>
      <use x="836.914062" xlink:href="#DejaVuSans-116"/>
      <use x="876.123047" xlink:href="#DejaVuSans-97"/>
     </g>
    </g>
    <g id="line2d_33">
     <path d="M 142.965313 79.472813 
L 162.965313 79.472813 
" style="fill:none;stroke:#ffffff;stroke-linecap:square;stroke-width:1.5;"/>
    </g>
    <g id="line2d_34"/>
    <g id="text_22">
     <!-- T:1200 -->
     <g transform="translate(170.965313 82.972813)scale(0.1 -0.1)">
      <defs>
       <path d="M 11.71875 12.40625 
L 22.015625 12.40625 
L 22.015625 0 
L 11.71875 0 
z
M 11.71875 51.703125 
L 22.015625 51.703125 
L 22.015625 39.3125 
L 11.71875 39.3125 
z
" id="DejaVuSans-58"/>
      </defs>
      <use xlink:href="#DejaVuSans-84"/>
      <use x="50.083984" xlink:href="#DejaVuSans-58"/>
      <use x="83.775391" xlink:href="#DejaVuSans-49"/>
      <use x="147.398438" xlink:href="#DejaVuSans-50"/>
      <use x="211.021484" xlink:href="#DejaVuSans-48"/>
      <use x="274.644531" xlink:href="#DejaVuSans-48"/>
     </g>
    </g>
    <g id="line2d_35">
     <path d="M 142.965313 94.150937 
L 162.965313 94.150937 
" style="fill:none;stroke:#ffffff;stroke-linecap:square;stroke-width:1.5;"/>
    </g>
    <g id="line2d_36"/>
    <g id="text_23">
     <!-- P:1.641 -->
     <g transform="translate(170.965313 97.650937)scale(0.1 -0.1)">
      <defs>
       <path d="M 19.671875 64.796875 
L 19.671875 37.40625 
L 32.078125 37.40625 
Q 38.96875 37.40625 42.71875 40.96875 
Q 46.484375 44.53125 46.484375 51.125 
Q 46.484375 57.671875 42.71875 61.234375 
Q 38.96875 64.796875 32.078125 64.796875 
z
M 9.8125 72.90625 
L 32.078125 72.90625 
Q 44.34375 72.90625 50.609375 67.359375 
Q 56.890625 61.8125 56.890625 51.125 
Q 56.890625 40.328125 50.609375 34.8125 
Q 44.34375 29.296875 32.078125 29.296875 
L 19.671875 29.296875 
L 19.671875 0 
L 9.8125 0 
z
" id="DejaVuSans-80"/>
      </defs>
      <use xlink:href="#DejaVuSans-80"/>
      <use x="60.302734" xlink:href="#DejaVuSans-58"/>
      <use x="93.994141" xlink:href="#DejaVuSans-49"/>
      <use x="157.617188" xlink:href="#DejaVuSans-46"/>
      <use x="189.404297" xlink:href="#DejaVuSans-54"/>
      <use x="253.027344" xlink:href="#DejaVuSans-52"/>
      <use x="316.650391" xlink:href="#DejaVuSans-49"/>
     </g>
    </g>
    <g id="line2d_37">
     <path d="M 284.705938 35.416562 
L 304.705938 35.416562 
" style="fill:none;stroke:#ffffff;stroke-linecap:square;stroke-width:1.5;"/>
    </g>
    <g id="line2d_38"/>
    <g id="text_24">
     <!-- H2O2: 0.002323 -->
     <g transform="translate(312.705938 38.916562)scale(0.1 -0.1)">
      <use xlink:href="#DejaVuSans-72"/>
      <use x="75.195312" xlink:href="#DejaVuSans-50"/>
      <use x="138.818359" xlink:href="#DejaVuSans-79"/>
      <use x="217.529297" xlink:href="#DejaVuSans-50"/>
      <use x="281.152344" xlink:href="#DejaVuSans-58"/>
      <use x="314.84375" xlink:href="#DejaVuSans-32"/>
      <use x="346.630859" xlink:href="#DejaVuSans-48"/>
      <use x="410.253906" xlink:href="#DejaVuSans-46"/>
      <use x="442.041016" xlink:href="#DejaVuSans-48"/>
      <use x="505.664062" xlink:href="#DejaVuSans-48"/>
      <use x="569.287109" xlink:href="#DejaVuSans-50"/>
      <use x="632.910156" xlink:href="#DejaVuSans-51"/>
      <use x="696.533203" xlink:href="#DejaVuSans-50"/>
      <use x="760.15625" xlink:href="#DejaVuSans-51"/>
     </g>
    </g>
    <g id="line2d_39">
     <path d="M 284.705938 50.094688 
L 304.705938 50.094688 
" style="fill:none;stroke:#ffffff;stroke-linecap:square;stroke-width:1.5;"/>
    </g>
    <g id="line2d_40"/>
    <g id="text_25">
     <!-- H2O: 0.001062 -->
     <g transform="translate(312.705938 53.594688)scale(0.1 -0.1)">
      <use xlink:href="#DejaVuSans-72"/>
      <use x="75.195312" xlink:href="#DejaVuSans-50"/>
      <use x="138.818359" xlink:href="#DejaVuSans-79"/>
      <use x="215.779297" xlink:href="#DejaVuSans-58"/>
      <use x="249.470703" xlink:href="#DejaVuSans-32"/>
      <use x="281.257812" xlink:href="#DejaVuSans-48"/>
      <use x="344.880859" xlink:href="#DejaVuSans-46"/>
      <use x="376.667969" xlink:href="#DejaVuSans-48"/>
      <use x="440.291016" xlink:href="#DejaVuSans-48"/>
      <use x="503.914062" xlink:href="#DejaVuSans-49"/>
      <use x="567.537109" xlink:href="#DejaVuSans-48"/>
      <use x="631.160156" xlink:href="#DejaVuSans-54"/>
      <use x="694.783203" xlink:href="#DejaVuSans-50"/>
     </g>
    </g>
    <g id="line2d_41">
     <path d="M 284.705938 64.772812 
L 304.705938 64.772812 
" style="fill:none;stroke:#ffffff;stroke-linecap:square;stroke-width:1.5;"/>
    </g>
    <g id="line2d_42"/>
    <g id="text_26">
     <!-- O2: 0.000556 -->
     <g transform="translate(312.705938 68.272812)scale(0.1 -0.1)">
      <use xlink:href="#DejaVuSans-79"/>
      <use x="78.710938" xlink:href="#DejaVuSans-50"/>
      <use x="142.333984" xlink:href="#DejaVuSans-58"/>
      <use x="176.025391" xlink:href="#DejaVuSans-32"/>
      <use x="207.8125" xlink:href="#DejaVuSans-48"/>
      <use x="271.435547" xlink:href="#DejaVuSans-46"/>
      <use x="303.222656" xlink:href="#DejaVuSans-48"/>
      <use x="366.845703" xlink:href="#DejaVuSans-48"/>
      <use x="430.46875" xlink:href="#DejaVuSans-48"/>
      <use x="494.091797" xlink:href="#DejaVuSans-53"/>
      <use x="557.714844" xlink:href="#DejaVuSans-53"/>
      <use x="621.337891" xlink:href="#DejaVuSans-54"/>
     </g>
    </g>
    <g id="line2d_43">
     <path d="M 284.705938 79.450938 
L 304.705938 79.450938 
" style="fill:none;stroke:#ffffff;stroke-linecap:square;stroke-width:1.5;"/>
    </g>
    <g id="line2d_44"/>
    <g id="text_27">
     <!-- Ar: 0.996059 -->
     <g transform="translate(312.705938 82.950938)scale(0.1 -0.1)">
      <defs>
       <path d="M 34.1875 63.1875 
L 20.796875 26.90625 
L 47.609375 26.90625 
z
M 28.609375 72.90625 
L 39.796875 72.90625 
L 67.578125 0 
L 57.328125 0 
L 50.6875 18.703125 
L 17.828125 18.703125 
L 11.1875 0 
L 0.78125 0 
z
" id="DejaVuSans-65"/>
       <path d="M 10.984375 1.515625 
L 10.984375 10.5 
Q 14.703125 8.734375 18.5 7.8125 
Q 22.3125 6.890625 25.984375 6.890625 
Q 35.75 6.890625 40.890625 13.453125 
Q 46.046875 20.015625 46.78125 33.40625 
Q 43.953125 29.203125 39.59375 26.953125 
Q 35.25 24.703125 29.984375 24.703125 
Q 19.046875 24.703125 12.671875 31.3125 
Q 6.296875 37.9375 6.296875 49.421875 
Q 6.296875 60.640625 12.9375 67.421875 
Q 19.578125 74.21875 30.609375 74.21875 
Q 43.265625 74.21875 49.921875 64.515625 
Q 56.59375 54.828125 56.59375 36.375 
Q 56.59375 19.140625 48.40625 8.859375 
Q 40.234375 -1.421875 26.421875 -1.421875 
Q 22.703125 -1.421875 18.890625 -0.6875 
Q 15.09375 0.046875 10.984375 1.515625 
z
M 30.609375 32.421875 
Q 37.25 32.421875 41.125 36.953125 
Q 45.015625 41.5 45.015625 49.421875 
Q 45.015625 57.28125 41.125 61.84375 
Q 37.25 66.40625 30.609375 66.40625 
Q 23.96875 66.40625 20.09375 61.84375 
Q 16.21875 57.28125 16.21875 49.421875 
Q 16.21875 41.5 20.09375 36.953125 
Q 23.96875 32.421875 30.609375 32.421875 
z
" id="DejaVuSans-57"/>
      </defs>
      <use xlink:href="#DejaVuSans-65"/>
      <use x="68.408203" xlink:href="#DejaVuSans-114"/>
      <use x="107.771484" xlink:href="#DejaVuSans-58"/>
      <use x="141.462891" xlink:href="#DejaVuSans-32"/>
      <use x="173.25" xlink:href="#DejaVuSans-48"/>
      <use x="236.873047" xlink:href="#DejaVuSans-46"/>
      <use x="268.660156" xlink:href="#DejaVuSans-57"/>
      <use x="332.283203" xlink:href="#DejaVuSans-57"/>
      <use x="395.90625" xlink:href="#DejaVuSans-54"/>
      <use x="459.529297" xlink:href="#DejaVuSans-48"/>
      <use x="523.152344" xlink:href="#DejaVuSans-53"/>
      <use x="586.775391" xlink:href="#DejaVuSans-57"/>
     </g>
    </g>
   </g>
  </g>
 </g>
 <defs>
  <clipPath id="p103089a85e">
   <rect height="266.112" width="357.12" x="46.965625" y="22.318125"/>
  </clipPath>
 </defs>
</svg>
