<?xml version="1.0" encoding="utf-8" standalone="no"?>
<!DOCTYPE svg PUBLIC "-//W3C//DTD SVG 1.1//EN"
  "http://www.w3.org/Graphics/SVG/1.1/DTD/svg11.dtd">
<!-- Created with matplotlib (https://matplotlib.org/) -->
<svg height="325.986375pt" version="1.1" viewBox="0 0 417.648125 325.986375" width="417.648125pt" xmlns="http://www.w3.org/2000/svg" xmlns:xlink="http://www.w3.org/1999/xlink">
 <metadata>
  <rdf:RDF xmlns:cc="http://creativecommons.org/ns#" xmlns:dc="http://purl.org/dc/elements/1.1/" xmlns:rdf="http://www.w3.org/1999/02/22-rdf-syntax-ns#">
   <cc:Work>
    <dc:type rdf:resource="http://purl.org/dc/dcmitype/StillImage"/>
    <dc:date>2023-01-07T18:51:31.579049</dc:date>
    <dc:format>image/svg+xml</dc:format>
    <dc:creator>
     <cc:Agent>
      <dc:title>Matplotlib v3.3.1, https://matplotlib.org/</dc:title>
     </cc:Agent>
    </dc:creator>
   </cc:Work>
  </rdf:RDF>
 </metadata>
 <defs>
  <style type="text/css">*{stroke-linecap:butt;stroke-linejoin:round;}</style>
 </defs>
 <g id="figure_1">
  <g id="patch_1">
   <path d="M 0 325.986375 
L 417.648125 325.986375 
L 417.648125 0 
L 0 0 
z
" style="fill:none;"/>
  </g>
  <g id="axes_1">
   <g id="patch_2">
    <path d="M 53.328125 288.430125 
L 410.448125 288.430125 
L 410.448125 22.318125 
L 53.328125 22.318125 
z
" style="fill:none;"/>
   </g>
   <g id="matplotlib.axis_1">
    <g id="xtick_1">
     <g id="line2d_1">
      <defs>
       <path d="M 0 0 
L 0 3.5 
" id="m7477ed751a" style="stroke:#000000;stroke-width:0.8;"/>
      </defs>
      <g>
       <use style="stroke:#000000;stroke-width:0.8;" x="69.560851" xlink:href="#m7477ed751a" y="288.430125"/>
      </g>
     </g>
     <g id="text_1">
      <!-- 0 -->
      <g transform="translate(66.379601 303.028562)scale(0.1 -0.1)">
       <defs>
        <path d="M 31.78125 66.40625 
Q 24.171875 66.40625 20.328125 58.90625 
Q 16.5 51.421875 16.5 36.375 
Q 16.5 21.390625 20.328125 13.890625 
Q 24.171875 6.390625 31.78125 6.390625 
Q 39.453125 6.390625 43.28125 13.890625 
Q 47.125 21.390625 47.125 36.375 
Q 47.125 51.421875 43.28125 58.90625 
Q 39.453125 66.40625 31.78125 66.40625 
z
M 31.78125 74.21875 
Q 44.046875 74.21875 50.515625 64.515625 
Q 56.984375 54.828125 56.984375 36.375 
Q 56.984375 17.96875 50.515625 8.265625 
Q 44.046875 -1.421875 31.78125 -1.421875 
Q 19.53125 -1.421875 13.0625 8.265625 
Q 6.59375 17.96875 6.59375 36.375 
Q 6.59375 54.828125 13.0625 64.515625 
Q 19.53125 74.21875 31.78125 74.21875 
z
" id="DejaVuSans-48"/>
       </defs>
       <use xlink:href="#DejaVuSans-48"/>
      </g>
     </g>
    </g>
    <g id="xtick_2">
     <g id="line2d_2">
      <g>
       <use style="stroke:#000000;stroke-width:0.8;" x="110.073181" xlink:href="#m7477ed751a" y="288.430125"/>
      </g>
     </g>
     <g id="text_2">
      <!-- 1 -->
      <g transform="translate(106.891931 303.028562)scale(0.1 -0.1)">
       <defs>
        <path d="M 12.40625 8.296875 
L 28.515625 8.296875 
L 28.515625 63.921875 
L 10.984375 60.40625 
L 10.984375 69.390625 
L 28.421875 72.90625 
L 38.28125 72.90625 
L 38.28125 8.296875 
L 54.390625 8.296875 
L 54.390625 0 
L 12.40625 0 
z
" id="DejaVuSans-49"/>
       </defs>
       <use xlink:href="#DejaVuSans-49"/>
      </g>
     </g>
    </g>
    <g id="xtick_3">
     <g id="line2d_3">
      <g>
       <use style="stroke:#000000;stroke-width:0.8;" x="150.58551" xlink:href="#m7477ed751a" y="288.430125"/>
      </g>
     </g>
     <g id="text_3">
      <!-- 2 -->
      <g transform="translate(147.40426 303.028562)scale(0.1 -0.1)">
       <defs>
        <path d="M 19.1875 8.296875 
L 53.609375 8.296875 
L 53.609375 0 
L 7.328125 0 
L 7.328125 8.296875 
Q 12.9375 14.109375 22.625 23.890625 
Q 32.328125 33.6875 34.8125 36.53125 
Q 39.546875 41.84375 41.421875 45.53125 
Q 43.3125 49.21875 43.3125 52.78125 
Q 43.3125 58.59375 39.234375 62.25 
Q 35.15625 65.921875 28.609375 65.921875 
Q 23.96875 65.921875 18.8125 64.3125 
Q 13.671875 62.703125 7.8125 59.421875 
L 7.8125 69.390625 
Q 13.765625 71.78125 18.9375 73 
Q 24.125 74.21875 28.421875 74.21875 
Q 39.75 74.21875 46.484375 68.546875 
Q 53.21875 62.890625 53.21875 53.421875 
Q 53.21875 48.921875 51.53125 44.890625 
Q 49.859375 40.875 45.40625 35.40625 
Q 44.1875 33.984375 37.640625 27.21875 
Q 31.109375 20.453125 19.1875 8.296875 
z
" id="DejaVuSans-50"/>
       </defs>
       <use xlink:href="#DejaVuSans-50"/>
      </g>
     </g>
    </g>
    <g id="xtick_4">
     <g id="line2d_4">
      <g>
       <use style="stroke:#000000;stroke-width:0.8;" x="191.097839" xlink:href="#m7477ed751a" y="288.430125"/>
      </g>
     </g>
     <g id="text_4">
      <!-- 3 -->
      <g transform="translate(187.916589 303.028562)scale(0.1 -0.1)">
       <defs>
        <path d="M 40.578125 39.3125 
Q 47.65625 37.796875 51.625 33 
Q 55.609375 28.21875 55.609375 21.1875 
Q 55.609375 10.40625 48.1875 4.484375 
Q 40.765625 -1.421875 27.09375 -1.421875 
Q 22.515625 -1.421875 17.65625 -0.515625 
Q 12.796875 0.390625 7.625 2.203125 
L 7.625 11.71875 
Q 11.71875 9.328125 16.59375 8.109375 
Q 21.484375 6.890625 26.8125 6.890625 
Q 36.078125 6.890625 40.9375 10.546875 
Q 45.796875 14.203125 45.796875 21.1875 
Q 45.796875 27.640625 41.28125 31.265625 
Q 36.765625 34.90625 28.71875 34.90625 
L 20.21875 34.90625 
L 20.21875 43.015625 
L 29.109375 43.015625 
Q 36.375 43.015625 40.234375 45.921875 
Q 44.09375 48.828125 44.09375 54.296875 
Q 44.09375 59.90625 40.109375 62.90625 
Q 36.140625 65.921875 28.71875 65.921875 
Q 24.65625 65.921875 20.015625 65.03125 
Q 15.375 64.15625 9.8125 62.3125 
L 9.8125 71.09375 
Q 15.4375 72.65625 20.34375 73.4375 
Q 25.25 74.21875 29.59375 74.21875 
Q 40.828125 74.21875 47.359375 69.109375 
Q 53.90625 64.015625 53.90625 55.328125 
Q 53.90625 49.265625 50.4375 45.09375 
Q 46.96875 40.921875 40.578125 39.3125 
z
" id="DejaVuSans-51"/>
       </defs>
       <use xlink:href="#DejaVuSans-51"/>
      </g>
     </g>
    </g>
    <g id="xtick_5">
     <g id="line2d_5">
      <g>
       <use style="stroke:#000000;stroke-width:0.8;" x="231.610169" xlink:href="#m7477ed751a" y="288.430125"/>
      </g>
     </g>
     <g id="text_5">
      <!-- 4 -->
      <g transform="translate(228.428919 303.028562)scale(0.1 -0.1)">
       <defs>
        <path d="M 37.796875 64.3125 
L 12.890625 25.390625 
L 37.796875 25.390625 
z
M 35.203125 72.90625 
L 47.609375 72.90625 
L 47.609375 25.390625 
L 58.015625 25.390625 
L 58.015625 17.1875 
L 47.609375 17.1875 
L 47.609375 0 
L 37.796875 0 
L 37.796875 17.1875 
L 4.890625 17.1875 
L 4.890625 26.703125 
z
" id="DejaVuSans-52"/>
       </defs>
       <use xlink:href="#DejaVuSans-52"/>
      </g>
     </g>
    </g>
    <g id="xtick_6">
     <g id="line2d_6">
      <g>
       <use style="stroke:#000000;stroke-width:0.8;" x="272.122498" xlink:href="#m7477ed751a" y="288.430125"/>
      </g>
     </g>
     <g id="text_6">
      <!-- 5 -->
      <g transform="translate(268.941248 303.028562)scale(0.1 -0.1)">
       <defs>
        <path d="M 10.796875 72.90625 
L 49.515625 72.90625 
L 49.515625 64.59375 
L 19.828125 64.59375 
L 19.828125 46.734375 
Q 21.96875 47.46875 24.109375 47.828125 
Q 26.265625 48.1875 28.421875 48.1875 
Q 40.625 48.1875 47.75 41.5 
Q 54.890625 34.8125 54.890625 23.390625 
Q 54.890625 11.625 47.5625 5.09375 
Q 40.234375 -1.421875 26.90625 -1.421875 
Q 22.3125 -1.421875 17.546875 -0.640625 
Q 12.796875 0.140625 7.71875 1.703125 
L 7.71875 11.625 
Q 12.109375 9.234375 16.796875 8.0625 
Q 21.484375 6.890625 26.703125 6.890625 
Q 35.15625 6.890625 40.078125 11.328125 
Q 45.015625 15.765625 45.015625 23.390625 
Q 45.015625 31 40.078125 35.4375 
Q 35.15625 39.890625 26.703125 39.890625 
Q 22.75 39.890625 18.8125 39.015625 
Q 14.890625 38.140625 10.796875 36.28125 
z
" id="DejaVuSans-53"/>
       </defs>
       <use xlink:href="#DejaVuSans-53"/>
      </g>
     </g>
    </g>
    <g id="xtick_7">
     <g id="line2d_7">
      <g>
       <use style="stroke:#000000;stroke-width:0.8;" x="312.634827" xlink:href="#m7477ed751a" y="288.430125"/>
      </g>
     </g>
     <g id="text_7">
      <!-- 6 -->
      <g transform="translate(309.453577 303.028562)scale(0.1 -0.1)">
       <defs>
        <path d="M 33.015625 40.375 
Q 26.375 40.375 22.484375 35.828125 
Q 18.609375 31.296875 18.609375 23.390625 
Q 18.609375 15.53125 22.484375 10.953125 
Q 26.375 6.390625 33.015625 6.390625 
Q 39.65625 6.390625 43.53125 10.953125 
Q 47.40625 15.53125 47.40625 23.390625 
Q 47.40625 31.296875 43.53125 35.828125 
Q 39.65625 40.375 33.015625 40.375 
z
M 52.59375 71.296875 
L 52.59375 62.3125 
Q 48.875 64.0625 45.09375 64.984375 
Q 41.3125 65.921875 37.59375 65.921875 
Q 27.828125 65.921875 22.671875 59.328125 
Q 17.53125 52.734375 16.796875 39.40625 
Q 19.671875 43.65625 24.015625 45.921875 
Q 28.375 48.1875 33.59375 48.1875 
Q 44.578125 48.1875 50.953125 41.515625 
Q 57.328125 34.859375 57.328125 23.390625 
Q 57.328125 12.15625 50.6875 5.359375 
Q 44.046875 -1.421875 33.015625 -1.421875 
Q 20.359375 -1.421875 13.671875 8.265625 
Q 6.984375 17.96875 6.984375 36.375 
Q 6.984375 53.65625 15.1875 63.9375 
Q 23.390625 74.21875 37.203125 74.21875 
Q 40.921875 74.21875 44.703125 73.484375 
Q 48.484375 72.75 52.59375 71.296875 
z
" id="DejaVuSans-54"/>
       </defs>
       <use xlink:href="#DejaVuSans-54"/>
      </g>
     </g>
    </g>
    <g id="xtick_8">
     <g id="line2d_8">
      <g>
       <use style="stroke:#000000;stroke-width:0.8;" x="353.147157" xlink:href="#m7477ed751a" y="288.430125"/>
      </g>
     </g>
     <g id="text_8">
      <!-- 7 -->
      <g transform="translate(349.965907 303.028562)scale(0.1 -0.1)">
       <defs>
        <path d="M 8.203125 72.90625 
L 55.078125 72.90625 
L 55.078125 68.703125 
L 28.609375 0 
L 18.3125 0 
L 43.21875 64.59375 
L 8.203125 64.59375 
z
" id="DejaVuSans-55"/>
       </defs>
       <use xlink:href="#DejaVuSans-55"/>
      </g>
     </g>
    </g>
    <g id="xtick_9">
     <g id="line2d_9">
      <g>
       <use style="stroke:#000000;stroke-width:0.8;" x="393.659486" xlink:href="#m7477ed751a" y="288.430125"/>
      </g>
     </g>
     <g id="text_9">
      <!-- 8 -->
      <g transform="translate(390.478236 303.028562)scale(0.1 -0.1)">
       <defs>
        <path d="M 31.78125 34.625 
Q 24.75 34.625 20.71875 30.859375 
Q 16.703125 27.09375 16.703125 20.515625 
Q 16.703125 13.921875 20.71875 10.15625 
Q 24.75 6.390625 31.78125 6.390625 
Q 38.8125 6.390625 42.859375 10.171875 
Q 46.921875 13.96875 46.921875 20.515625 
Q 46.921875 27.09375 42.890625 30.859375 
Q 38.875 34.625 31.78125 34.625 
z
M 21.921875 38.8125 
Q 15.578125 40.375 12.03125 44.71875 
Q 8.5 49.078125 8.5 55.328125 
Q 8.5 64.0625 14.71875 69.140625 
Q 20.953125 74.21875 31.78125 74.21875 
Q 42.671875 74.21875 48.875 69.140625 
Q 55.078125 64.0625 55.078125 55.328125 
Q 55.078125 49.078125 51.53125 44.71875 
Q 48 40.375 41.703125 38.8125 
Q 48.828125 37.15625 52.796875 32.3125 
Q 56.78125 27.484375 56.78125 20.515625 
Q 56.78125 9.90625 50.3125 4.234375 
Q 43.84375 -1.421875 31.78125 -1.421875 
Q 19.734375 -1.421875 13.25 4.234375 
Q 6.78125 9.90625 6.78125 20.515625 
Q 6.78125 27.484375 10.78125 32.3125 
Q 14.796875 37.15625 21.921875 38.8125 
z
M 18.3125 54.390625 
Q 18.3125 48.734375 21.84375 45.5625 
Q 25.390625 42.390625 31.78125 42.390625 
Q 38.140625 42.390625 41.71875 45.5625 
Q 45.3125 48.734375 45.3125 54.390625 
Q 45.3125 60.0625 41.71875 63.234375 
Q 38.140625 66.40625 31.78125 66.40625 
Q 25.390625 66.40625 21.84375 63.234375 
Q 18.3125 60.0625 18.3125 54.390625 
z
" id="DejaVuSans-56"/>
       </defs>
       <use xlink:href="#DejaVuSans-56"/>
      </g>
     </g>
    </g>
    <g id="text_10">
     <!-- Time (ms) -->
     <g transform="translate(206.688906 316.706687)scale(0.1 -0.1)">
      <defs>
       <path d="M -0.296875 72.90625 
L 61.375 72.90625 
L 61.375 64.59375 
L 35.5 64.59375 
L 35.5 0 
L 25.59375 0 
L 25.59375 64.59375 
L -0.296875 64.59375 
z
" id="DejaVuSans-84"/>
       <path d="M 9.421875 54.6875 
L 18.40625 54.6875 
L 18.40625 0 
L 9.421875 0 
z
M 9.421875 75.984375 
L 18.40625 75.984375 
L 18.40625 64.59375 
L 9.421875 64.59375 
z
" id="DejaVuSans-105"/>
       <path d="M 52 44.1875 
Q 55.375 50.25 60.0625 53.125 
Q 64.75 56 71.09375 56 
Q 79.640625 56 84.28125 50.015625 
Q 88.921875 44.046875 88.921875 33.015625 
L 88.921875 0 
L 79.890625 0 
L 79.890625 32.71875 
Q 79.890625 40.578125 77.09375 44.375 
Q 74.3125 48.1875 68.609375 48.1875 
Q 61.625 48.1875 57.5625 43.546875 
Q 53.515625 38.921875 53.515625 30.90625 
L 53.515625 0 
L 44.484375 0 
L 44.484375 32.71875 
Q 44.484375 40.625 41.703125 44.40625 
Q 38.921875 48.1875 33.109375 48.1875 
Q 26.21875 48.1875 22.15625 43.53125 
Q 18.109375 38.875 18.109375 30.90625 
L 18.109375 0 
L 9.078125 0 
L 9.078125 54.6875 
L 18.109375 54.6875 
L 18.109375 46.1875 
Q 21.1875 51.21875 25.484375 53.609375 
Q 29.78125 56 35.6875 56 
Q 41.65625 56 45.828125 52.96875 
Q 50 49.953125 52 44.1875 
z
" id="DejaVuSans-109"/>
       <path d="M 56.203125 29.59375 
L 56.203125 25.203125 
L 14.890625 25.203125 
Q 15.484375 15.921875 20.484375 11.0625 
Q 25.484375 6.203125 34.421875 6.203125 
Q 39.59375 6.203125 44.453125 7.46875 
Q 49.3125 8.734375 54.109375 11.28125 
L 54.109375 2.78125 
Q 49.265625 0.734375 44.1875 -0.34375 
Q 39.109375 -1.421875 33.890625 -1.421875 
Q 20.796875 -1.421875 13.15625 6.1875 
Q 5.515625 13.8125 5.515625 26.8125 
Q 5.515625 40.234375 12.765625 48.109375 
Q 20.015625 56 32.328125 56 
Q 43.359375 56 49.78125 48.890625 
Q 56.203125 41.796875 56.203125 29.59375 
z
M 47.21875 32.234375 
Q 47.125 39.59375 43.09375 43.984375 
Q 39.0625 48.390625 32.421875 48.390625 
Q 24.90625 48.390625 20.390625 44.140625 
Q 15.875 39.890625 15.1875 32.171875 
z
" id="DejaVuSans-101"/>
       <path id="DejaVuSans-32"/>
       <path d="M 31 75.875 
Q 24.46875 64.65625 21.28125 53.65625 
Q 18.109375 42.671875 18.109375 31.390625 
Q 18.109375 20.125 21.3125 9.0625 
Q 24.515625 -2 31 -13.1875 
L 23.1875 -13.1875 
Q 15.875 -1.703125 12.234375 9.375 
Q 8.59375 20.453125 8.59375 31.390625 
Q 8.59375 42.28125 12.203125 53.3125 
Q 15.828125 64.359375 23.1875 75.875 
z
" id="DejaVuSans-40"/>
       <path d="M 44.28125 53.078125 
L 44.28125 44.578125 
Q 40.484375 46.53125 36.375 47.5 
Q 32.28125 48.484375 27.875 48.484375 
Q 21.1875 48.484375 17.84375 46.4375 
Q 14.5 44.390625 14.5 40.28125 
Q 14.5 37.15625 16.890625 35.375 
Q 19.28125 33.59375 26.515625 31.984375 
L 29.59375 31.296875 
Q 39.15625 29.25 43.1875 25.515625 
Q 47.21875 21.78125 47.21875 15.09375 
Q 47.21875 7.46875 41.1875 3.015625 
Q 35.15625 -1.421875 24.609375 -1.421875 
Q 20.21875 -1.421875 15.453125 -0.5625 
Q 10.6875 0.296875 5.421875 2 
L 5.421875 11.28125 
Q 10.40625 8.6875 15.234375 7.390625 
Q 20.0625 6.109375 24.8125 6.109375 
Q 31.15625 6.109375 34.5625 8.28125 
Q 37.984375 10.453125 37.984375 14.40625 
Q 37.984375 18.0625 35.515625 20.015625 
Q 33.0625 21.96875 24.703125 23.78125 
L 21.578125 24.515625 
Q 13.234375 26.265625 9.515625 29.90625 
Q 5.8125 33.546875 5.8125 39.890625 
Q 5.8125 47.609375 11.28125 51.796875 
Q 16.75 56 26.8125 56 
Q 31.78125 56 36.171875 55.265625 
Q 40.578125 54.546875 44.28125 53.078125 
z
" id="DejaVuSans-115"/>
       <path d="M 8.015625 75.875 
L 15.828125 75.875 
Q 23.140625 64.359375 26.78125 53.3125 
Q 30.421875 42.28125 30.421875 31.390625 
Q 30.421875 20.453125 26.78125 9.375 
Q 23.140625 -1.703125 15.828125 -13.1875 
L 8.015625 -13.1875 
Q 14.5 -2 17.703125 9.0625 
Q 20.90625 20.125 20.90625 31.390625 
Q 20.90625 42.671875 17.703125 53.65625 
Q 14.5 64.65625 8.015625 75.875 
z
" id="DejaVuSans-41"/>
      </defs>
      <use xlink:href="#DejaVuSans-84"/>
      <use x="57.958984" xlink:href="#DejaVuSans-105"/>
      <use x="85.742188" xlink:href="#DejaVuSans-109"/>
      <use x="183.154297" xlink:href="#DejaVuSans-101"/>
      <use x="244.677734" xlink:href="#DejaVuSans-32"/>
      <use x="276.464844" xlink:href="#DejaVuSans-40"/>
      <use x="315.478516" xlink:href="#DejaVuSans-109"/>
      <use x="412.890625" xlink:href="#DejaVuSans-115"/>
      <use x="464.990234" xlink:href="#DejaVuSans-41"/>
     </g>
    </g>
   </g>
   <g id="matplotlib.axis_2">
    <g id="ytick_1">
     <g id="line2d_10">
      <defs>
       <path d="M 0 0 
L -3.5 0 
" id="m3188c51304" style="stroke:#000000;stroke-width:0.8;"/>
      </defs>
      <g>
       <use style="stroke:#000000;stroke-width:0.8;" x="53.328125" xlink:href="#m3188c51304" y="276.334125"/>
      </g>
     </g>
     <g id="text_11">
      <!-- 0 -->
      <g transform="translate(39.965625 280.133344)scale(0.1 -0.1)">
       <use xlink:href="#DejaVuSans-48"/>
      </g>
     </g>
    </g>
    <g id="ytick_2">
     <g id="line2d_11">
      <g>
       <use style="stroke:#000000;stroke-width:0.8;" x="53.328125" xlink:href="#m3188c51304" y="218.453709"/>
      </g>
     </g>
     <g id="text_12">
      <!-- 500 -->
      <g transform="translate(27.240625 222.252927)scale(0.1 -0.1)">
       <use xlink:href="#DejaVuSans-53"/>
       <use x="63.623047" xlink:href="#DejaVuSans-48"/>
       <use x="127.246094" xlink:href="#DejaVuSans-48"/>
      </g>
     </g>
    </g>
    <g id="ytick_3">
     <g id="line2d_12">
      <g>
       <use style="stroke:#000000;stroke-width:0.8;" x="53.328125" xlink:href="#m3188c51304" y="160.573292"/>
      </g>
     </g>
     <g id="text_13">
      <!-- 1000 -->
      <g transform="translate(20.878125 164.372511)scale(0.1 -0.1)">
       <use xlink:href="#DejaVuSans-49"/>
       <use x="63.623047" xlink:href="#DejaVuSans-48"/>
       <use x="127.246094" xlink:href="#DejaVuSans-48"/>
       <use x="190.869141" xlink:href="#DejaVuSans-48"/>
      </g>
     </g>
    </g>
    <g id="ytick_4">
     <g id="line2d_13">
      <g>
       <use style="stroke:#000000;stroke-width:0.8;" x="53.328125" xlink:href="#m3188c51304" y="102.692876"/>
      </g>
     </g>
     <g id="text_14">
      <!-- 1500 -->
      <g transform="translate(20.878125 106.492095)scale(0.1 -0.1)">
       <use xlink:href="#DejaVuSans-49"/>
       <use x="63.623047" xlink:href="#DejaVuSans-53"/>
       <use x="127.246094" xlink:href="#DejaVuSans-48"/>
       <use x="190.869141" xlink:href="#DejaVuSans-48"/>
      </g>
     </g>
    </g>
    <g id="ytick_5">
     <g id="line2d_14">
      <g>
       <use style="stroke:#000000;stroke-width:0.8;" x="53.328125" xlink:href="#m3188c51304" y="44.81246"/>
      </g>
     </g>
     <g id="text_15">
      <!-- 2000 -->
      <g transform="translate(20.878125 48.611678)scale(0.1 -0.1)">
       <use xlink:href="#DejaVuSans-50"/>
       <use x="63.623047" xlink:href="#DejaVuSans-48"/>
       <use x="127.246094" xlink:href="#DejaVuSans-48"/>
       <use x="190.869141" xlink:href="#DejaVuSans-48"/>
      </g>
     </g>
    </g>
    <g id="text_16">
     <!-- H2O ppm -->
     <g transform="translate(14.798438 179.059281)rotate(-90)scale(0.1 -0.1)">
      <defs>
       <path d="M 9.8125 72.90625 
L 19.671875 72.90625 
L 19.671875 43.015625 
L 55.515625 43.015625 
L 55.515625 72.90625 
L 65.375 72.90625 
L 65.375 0 
L 55.515625 0 
L 55.515625 34.71875 
L 19.671875 34.71875 
L 19.671875 0 
L 9.8125 0 
z
" id="DejaVuSans-72"/>
       <path d="M 39.40625 66.21875 
Q 28.65625 66.21875 22.328125 58.203125 
Q 16.015625 50.203125 16.015625 36.375 
Q 16.015625 22.609375 22.328125 14.59375 
Q 28.65625 6.59375 39.40625 6.59375 
Q 50.140625 6.59375 56.421875 14.59375 
Q 62.703125 22.609375 62.703125 36.375 
Q 62.703125 50.203125 56.421875 58.203125 
Q 50.140625 66.21875 39.40625 66.21875 
z
M 39.40625 74.21875 
Q 54.734375 74.21875 63.90625 63.9375 
Q 73.09375 53.65625 73.09375 36.375 
Q 73.09375 19.140625 63.90625 8.859375 
Q 54.734375 -1.421875 39.40625 -1.421875 
Q 24.03125 -1.421875 14.8125 8.828125 
Q 5.609375 19.09375 5.609375 36.375 
Q 5.609375 53.65625 14.8125 63.9375 
Q 24.03125 74.21875 39.40625 74.21875 
z
" id="DejaVuSans-79"/>
       <path d="M 18.109375 8.203125 
L 18.109375 -20.796875 
L 9.078125 -20.796875 
L 9.078125 54.6875 
L 18.109375 54.6875 
L 18.109375 46.390625 
Q 20.953125 51.265625 25.265625 53.625 
Q 29.59375 56 35.59375 56 
Q 45.5625 56 51.78125 48.09375 
Q 58.015625 40.1875 58.015625 27.296875 
Q 58.015625 14.40625 51.78125 6.484375 
Q 45.5625 -1.421875 35.59375 -1.421875 
Q 29.59375 -1.421875 25.265625 0.953125 
Q 20.953125 3.328125 18.109375 8.203125 
z
M 48.6875 27.296875 
Q 48.6875 37.203125 44.609375 42.84375 
Q 40.53125 48.484375 33.40625 48.484375 
Q 26.265625 48.484375 22.1875 42.84375 
Q 18.109375 37.203125 18.109375 27.296875 
Q 18.109375 17.390625 22.1875 11.75 
Q 26.265625 6.109375 33.40625 6.109375 
Q 40.53125 6.109375 44.609375 11.75 
Q 48.6875 17.390625 48.6875 27.296875 
z
" id="DejaVuSans-112"/>
      </defs>
      <use xlink:href="#DejaVuSans-72"/>
      <use x="75.195312" xlink:href="#DejaVuSans-50"/>
      <use x="138.818359" xlink:href="#DejaVuSans-79"/>
      <use x="217.529297" xlink:href="#DejaVuSans-32"/>
      <use x="249.316406" xlink:href="#DejaVuSans-112"/>
      <use x="312.792969" xlink:href="#DejaVuSans-112"/>
      <use x="376.269531" xlink:href="#DejaVuSans-109"/>
     </g>
    </g>
   </g>
   <g id="line2d_15">
    <path clip-path="url(#p62b2668167)" d="M 69.695394 276.334125 
L 131.205607 276.229538 
L 139.830206 275.997635 
L 144.681543 275.677397 
L 148.454805 275.224826 
L 151.678562 274.598257 
L 153.979751 273.948087 
L 156.28094 273.060814 
L 158.198597 272.081621 
L 160.116255 270.81955 
L 161.650381 269.555242 
L 163.184507 268.013838 
L 164.718632 266.140171 
L 166.252758 263.870817 
L 167.786884 261.134201 
L 169.32101 257.851455 
L 170.751531 254.224233 
L 172.151161 250.07772 
L 173.624996 245.002092 
L 175.159486 238.87438 
L 176.686603 231.866111 
L 178.375233 223.025627 
L 180.106596 212.788793 
L 182.12369 199.493717 
L 184.685129 180.954767 
L 192.367494 123.970705 
L 194.451703 110.681934 
L 196.443052 99.457196 
L 198.263694 90.512545 
L 199.954732 83.306199 
L 201.567233 77.360832 
L 202.97851 72.837289 
L 204.599126 68.34628 
L 206.408723 64.113375 
L 208.21832 60.587878 
L 210.027917 57.65825 
L 211.837514 55.226 
L 213.647111 53.206326 
L 215.456708 51.527504 
L 217.266305 50.129631 
L 219.528302 48.702688 
L 221.790298 47.559925 
L 224.504694 46.479111 
L 227.21909 45.640708 
L 230.385885 44.890918 
L 234.005079 44.253624 
L 238.529072 43.686183 
L 244.412125 43.196304 
L 251.622486 42.825544 
L 262.192747 42.525011 
L 278.669883 42.312099 
L 308.776856 42.181231 
L 391.955098 42.110889 
L 393.984454 42.110251 
L 393.984454 42.110251 
" style="fill:none;stroke:#0000ff;stroke-linecap:square;stroke-width:1.5;"/>
   </g>
   <g id="line2d_16">
    <path clip-path="url(#p62b2668167)" d="M 69.560852 276.334125 
L 116.789014 276.228449 
L 125.227542 276.00589 
L 130.191382 275.687116 
L 134.162454 275.215429 
L 137.251964 274.621297 
L 139.827903 273.895088 
L 142.035851 273.038309 
L 143.875807 272.105253 
L 145.715764 270.916925 
L 147.187729 269.738841 
L 148.659694 268.315553 
L 150.13166 266.600563 
L 151.672348 264.435095 
L 153.013525 262.188918 
L 154.354702 259.554304 
L 155.695879 256.477839 
L 157.037056 252.904068 
L 158.378233 248.777576 
L 159.943953 243.191179 
L 161.35864 237.374825 
L 162.985573 229.733925 
L 164.788676 220.055119 
L 166.678961 208.593266 
L 168.808829 194.271474 
L 171.719257 173.040224 
L 177.197709 132.82062 
L 179.49298 117.770715 
L 181.441291 106.373723 
L 183.389602 96.36468 
L 185.094373 88.74898 
L 186.799145 82.149014 
L 188.498818 76.500406 
L 190.068586 72.027181 
L 191.576377 68.327011 
L 192.989277 65.327475 
L 194.513951 62.534654 
L 196.038625 60.141767 
L 197.563299 58.092635 
L 199.087973 56.337696 
L 201.120871 54.38165 
L 203.15377 52.786313 
L 205.186668 51.481665 
L 207.219567 50.411289 
L 209.76069 49.334739 
L 212.301814 48.485253 
L 215.500703 47.659505 
L 219.138103 46.962497 
L 223.502983 46.36333 
L 228.964791 45.854731 
L 235.799712 45.450898 
L 245.22866 45.129778 
L 258.811059 44.898913 
L 283.296578 44.738418 
L 338.826727 44.650814 
L 394.215398 44.628591 
L 394.215398 44.628591 
" style="fill:none;stroke:#ff0000;stroke-linecap:square;stroke-width:1.5;"/>
   </g>
   <g id="line2d_17">
    <defs>
     <path d="M 0 3 
C 0.795609 3 1.55874 2.683901 2.12132 2.12132 
C 2.683901 1.55874 3 0.795609 3 0 
C 3 -0.795609 2.683901 -1.55874 2.12132 -2.12132 
C 1.55874 -2.683901 0.795609 -3 0 -3 
C -0.795609 -3 -1.55874 -2.683901 -2.12132 -2.12132 
C -2.683901 -1.55874 -3 -0.795609 -3 0 
C -3 0.795609 -2.683901 1.55874 -2.12132 2.12132 
C -1.55874 2.683901 -0.795609 3 0 3 
z
" id="mcc954e2852" style="stroke:#000000;"/>
    </defs>
    <g clip-path="url(#p62b2668167)">
     <use style="stroke:#000000;" x="150.099362" xlink:href="#mcc954e2852" y="269.501832"/>
     <use style="stroke:#000000;" x="150.261411" xlink:href="#mcc954e2852" y="271.948261"/>
     <use style="stroke:#000000;" x="150.423461" xlink:href="#mcc954e2852" y="276.223203"/>
     <use style="stroke:#000000;" x="150.58551" xlink:href="#mcc954e2852" y="270.113484"/>
     <use style="stroke:#000000;" x="150.747559" xlink:href="#mcc954e2852" y="271.948261"/>
     <use style="stroke:#000000;" x="150.909609" xlink:href="#mcc954e2852" y="270.725941"/>
     <use style="stroke:#000000;" x="151.071658" xlink:href="#mcc954e2852" y="274.392547"/>
     <use style="stroke:#000000;" x="151.233707" xlink:href="#mcc954e2852" y="271.948261"/>
     <use style="stroke:#000000;" x="151.395757" xlink:href="#mcc954e2852" y="270.113484"/>
     <use style="stroke:#000000;" x="151.557806" xlink:href="#mcc954e2852" y="271.337199"/>
     <use style="stroke:#000000;" x="151.719855" xlink:href="#mcc954e2852" y="271.337199"/>
     <use style="stroke:#000000;" x="151.881905" xlink:href="#mcc954e2852" y="273.170797"/>
     <use style="stroke:#000000;" x="152.043954" xlink:href="#mcc954e2852" y="270.113484"/>
     <use style="stroke:#000000;" x="152.206003" xlink:href="#mcc954e2852" y="272.560127"/>
     <use style="stroke:#000000;" x="152.368053" xlink:href="#mcc954e2852" y="271.337199"/>
     <use style="stroke:#000000;" x="152.530102" xlink:href="#mcc954e2852" y="270.113484"/>
     <use style="stroke:#000000;" x="152.692151" xlink:href="#mcc954e2852" y="272.560127"/>
     <use style="stroke:#000000;" x="152.854201" xlink:href="#mcc954e2852" y="270.113484"/>
     <use style="stroke:#000000;" x="153.01625" xlink:href="#mcc954e2852" y="270.113484"/>
     <use style="stroke:#000000;" x="153.178299" xlink:href="#mcc954e2852" y="267.051248"/>
     <use style="stroke:#000000;" x="153.340348" xlink:href="#mcc954e2852" y="270.113484"/>
     <use style="stroke:#000000;" x="153.502398" xlink:href="#mcc954e2852" y="271.337199"/>
     <use style="stroke:#000000;" x="153.664447" xlink:href="#mcc954e2852" y="269.501832"/>
     <use style="stroke:#000000;" x="153.826496" xlink:href="#mcc954e2852" y="269.501832"/>
     <use style="stroke:#000000;" x="153.988546" xlink:href="#mcc954e2852" y="271.337199"/>
     <use style="stroke:#000000;" x="154.150595" xlink:href="#mcc954e2852" y="271.948261"/>
     <use style="stroke:#000000;" x="154.312644" xlink:href="#mcc954e2852" y="270.113484"/>
     <use style="stroke:#000000;" x="154.474694" xlink:href="#mcc954e2852" y="268.889983"/>
     <use style="stroke:#000000;" x="154.636743" xlink:href="#mcc954e2852" y="269.501832"/>
     <use style="stroke:#000000;" x="154.798792" xlink:href="#mcc954e2852" y="268.889983"/>
     <use style="stroke:#000000;" x="154.960842" xlink:href="#mcc954e2852" y="267.664691"/>
     <use style="stroke:#000000;" x="155.122891" xlink:href="#mcc954e2852" y="267.664691"/>
     <use style="stroke:#000000;" x="155.28494" xlink:href="#mcc954e2852" y="267.664691"/>
     <use style="stroke:#000000;" x="155.44699" xlink:href="#mcc954e2852" y="267.664691"/>
     <use style="stroke:#000000;" x="155.609039" xlink:href="#mcc954e2852" y="268.276935"/>
     <use style="stroke:#000000;" x="155.771088" xlink:href="#mcc954e2852" y="267.664691"/>
     <use style="stroke:#000000;" x="155.933138" xlink:href="#mcc954e2852" y="267.664691"/>
     <use style="stroke:#000000;" x="156.095187" xlink:href="#mcc954e2852" y="266.43861"/>
     <use style="stroke:#000000;" x="156.257236" xlink:href="#mcc954e2852" y="264.598506"/>
     <use style="stroke:#000000;" x="156.419285" xlink:href="#mcc954e2852" y="268.889983"/>
     <use style="stroke:#000000;" x="156.581335" xlink:href="#mcc954e2852" y="263.370444"/>
     <use style="stroke:#000000;" x="156.743384" xlink:href="#mcc954e2852" y="265.211736"/>
     <use style="stroke:#000000;" x="156.905433" xlink:href="#mcc954e2852" y="266.43861"/>
     <use style="stroke:#000000;" x="157.067483" xlink:href="#mcc954e2852" y="263.985078"/>
     <use style="stroke:#000000;" x="157.229532" xlink:href="#mcc954e2852" y="263.985078"/>
     <use style="stroke:#000000;" x="157.391581" xlink:href="#mcc954e2852" y="263.370444"/>
     <use style="stroke:#000000;" x="157.553631" xlink:href="#mcc954e2852" y="263.985078"/>
     <use style="stroke:#000000;" x="157.71568" xlink:href="#mcc954e2852" y="267.051248"/>
     <use style="stroke:#000000;" x="157.877729" xlink:href="#mcc954e2852" y="265.211736"/>
     <use style="stroke:#000000;" x="158.039779" xlink:href="#mcc954e2852" y="262.75662"/>
     <use style="stroke:#000000;" x="158.201828" xlink:href="#mcc954e2852" y="262.75662"/>
     <use style="stroke:#000000;" x="158.363877" xlink:href="#mcc954e2852" y="260.298329"/>
     <use style="stroke:#000000;" x="158.525927" xlink:href="#mcc954e2852" y="263.985078"/>
     <use style="stroke:#000000;" x="158.687976" xlink:href="#mcc954e2852" y="262.75662"/>
     <use style="stroke:#000000;" x="158.850025" xlink:href="#mcc954e2852" y="259.682503"/>
     <use style="stroke:#000000;" x="159.012075" xlink:href="#mcc954e2852" y="261.527369"/>
     <use style="stroke:#000000;" x="159.174124" xlink:href="#mcc954e2852" y="262.142597"/>
     <use style="stroke:#000000;" x="159.336173" xlink:href="#mcc954e2852" y="259.067487"/>
     <use style="stroke:#000000;" x="159.498223" xlink:href="#mcc954e2852" y="260.298329"/>
     <use style="stroke:#000000;" x="159.660272" xlink:href="#mcc954e2852" y="256.604421"/>
     <use style="stroke:#000000;" x="159.822321" xlink:href="#mcc954e2852" y="257.835848"/>
     <use style="stroke:#000000;" x="159.98437" xlink:href="#mcc954e2852" y="255.987397"/>
     <use style="stroke:#000000;" x="160.14642" xlink:href="#mcc954e2852" y="257.835848"/>
     <use style="stroke:#000000;" x="160.308469" xlink:href="#mcc954e2852" y="260.912948"/>
     <use style="stroke:#000000;" x="160.470518" xlink:href="#mcc954e2852" y="256.604421"/>
     <use style="stroke:#000000;" x="160.632568" xlink:href="#mcc954e2852" y="260.912948"/>
     <use style="stroke:#000000;" x="160.794617" xlink:href="#mcc954e2852" y="257.220233"/>
     <use style="stroke:#000000;" x="160.956666" xlink:href="#mcc954e2852" y="257.220233"/>
     <use style="stroke:#000000;" x="161.118716" xlink:href="#mcc954e2852" y="257.220233"/>
     <use style="stroke:#000000;" x="161.280765" xlink:href="#mcc954e2852" y="257.220233"/>
     <use style="stroke:#000000;" x="161.442814" xlink:href="#mcc954e2852" y="252.285096"/>
     <use style="stroke:#000000;" x="161.604864" xlink:href="#mcc954e2852" y="257.835848"/>
     <use style="stroke:#000000;" x="161.766913" xlink:href="#mcc954e2852" y="253.520334"/>
     <use style="stroke:#000000;" x="161.928962" xlink:href="#mcc954e2852" y="255.371183"/>
     <use style="stroke:#000000;" x="162.091012" xlink:href="#mcc954e2852" y="254.75376"/>
     <use style="stroke:#000000;" x="162.253061" xlink:href="#mcc954e2852" y="251.049055"/>
     <use style="stroke:#000000;" x="162.41511" xlink:href="#mcc954e2852" y="254.137147"/>
     <use style="stroke:#000000;" x="162.57716" xlink:href="#mcc954e2852" y="251.049055"/>
     <use style="stroke:#000000;" x="162.739209" xlink:href="#mcc954e2852" y="252.902309"/>
     <use style="stroke:#000000;" x="162.901258" xlink:href="#mcc954e2852" y="252.902309"/>
     <use style="stroke:#000000;" x="163.063307" xlink:href="#mcc954e2852" y="250.431238"/>
     <use style="stroke:#000000;" x="163.225357" xlink:href="#mcc954e2852" y="249.193991"/>
     <use style="stroke:#000000;" x="163.387406" xlink:href="#mcc954e2852" y="249.193991"/>
     <use style="stroke:#000000;" x="163.549455" xlink:href="#mcc954e2852" y="250.431238"/>
     <use style="stroke:#000000;" x="163.711505" xlink:href="#mcc954e2852" y="246.098869"/>
     <use style="stroke:#000000;" x="163.873554" xlink:href="#mcc954e2852" y="249.813222"/>
     <use style="stroke:#000000;" x="164.035603" xlink:href="#mcc954e2852" y="246.098869"/>
     <use style="stroke:#000000;" x="164.197653" xlink:href="#mcc954e2852" y="246.098869"/>
     <use style="stroke:#000000;" x="164.359702" xlink:href="#mcc954e2852" y="245.478427"/>
     <use style="stroke:#000000;" x="164.521751" xlink:href="#mcc954e2852" y="244.858799"/>
     <use style="stroke:#000000;" x="164.683801" xlink:href="#mcc954e2852" y="246.098869"/>
     <use style="stroke:#000000;" x="164.84585" xlink:href="#mcc954e2852" y="244.237952"/>
     <use style="stroke:#000000;" x="165.007899" xlink:href="#mcc954e2852" y="245.478427"/>
     <use style="stroke:#000000;" x="165.169949" xlink:href="#mcc954e2852" y="246.098869"/>
     <use style="stroke:#000000;" x="165.331998" xlink:href="#mcc954e2852" y="242.997684"/>
     <use style="stroke:#000000;" x="165.494047" xlink:href="#mcc954e2852" y="241.755589"/>
     <use style="stroke:#000000;" x="165.656097" xlink:href="#mcc954e2852" y="240.512682"/>
     <use style="stroke:#000000;" x="165.818146" xlink:href="#mcc954e2852" y="242.376229"/>
     <use style="stroke:#000000;" x="165.980195" xlink:href="#mcc954e2852" y="242.997684"/>
     <use style="stroke:#000000;" x="166.142245" xlink:href="#mcc954e2852" y="241.755589"/>
     <use style="stroke:#000000;" x="166.304294" xlink:href="#mcc954e2852" y="236.7801"/>
     <use style="stroke:#000000;" x="166.466343" xlink:href="#mcc954e2852" y="239.891433"/>
     <use style="stroke:#000000;" x="166.628392" xlink:href="#mcc954e2852" y="239.891433"/>
     <use style="stroke:#000000;" x="166.790442" xlink:href="#mcc954e2852" y="237.403387"/>
     <use style="stroke:#000000;" x="166.952491" xlink:href="#mcc954e2852" y="235.534957"/>
     <use style="stroke:#000000;" x="167.11454" xlink:href="#mcc954e2852" y="235.534957"/>
     <use style="stroke:#000000;" x="167.27659" xlink:href="#mcc954e2852" y="235.534957"/>
     <use style="stroke:#000000;" x="167.438639" xlink:href="#mcc954e2852" y="234.287977"/>
     <use style="stroke:#000000;" x="167.600688" xlink:href="#mcc954e2852" y="234.911058"/>
     <use style="stroke:#000000;" x="167.762738" xlink:href="#mcc954e2852" y="233.040178"/>
     <use style="stroke:#000000;" x="167.924787" xlink:href="#mcc954e2852" y="231.79156"/>
     <use style="stroke:#000000;" x="168.086836" xlink:href="#mcc954e2852" y="231.167455"/>
     <use style="stroke:#000000;" x="168.248886" xlink:href="#mcc954e2852" y="231.79156"/>
     <use style="stroke:#000000;" x="168.410935" xlink:href="#mcc954e2852" y="227.416466"/>
     <use style="stroke:#000000;" x="168.572984" xlink:href="#mcc954e2852" y="226.164149"/>
     <use style="stroke:#000000;" x="168.735034" xlink:href="#mcc954e2852" y="227.416466"/>
     <use style="stroke:#000000;" x="168.897083" xlink:href="#mcc954e2852" y="228.041803"/>
     <use style="stroke:#000000;" x="169.059132" xlink:href="#mcc954e2852" y="226.790923"/>
     <use style="stroke:#000000;" x="169.221182" xlink:href="#mcc954e2852" y="227.416466"/>
     <use style="stroke:#000000;" x="169.383231" xlink:href="#mcc954e2852" y="226.790923"/>
     <use style="stroke:#000000;" x="169.54528" xlink:href="#mcc954e2852" y="228.041803"/>
     <use style="stroke:#000000;" x="169.70733" xlink:href="#mcc954e2852" y="222.403268"/>
     <use style="stroke:#000000;" x="169.869379" xlink:href="#mcc954e2852" y="223.031283"/>
     <use style="stroke:#000000;" x="170.031428" xlink:href="#mcc954e2852" y="226.164149"/>
     <use style="stroke:#000000;" x="170.193477" xlink:href="#mcc954e2852" y="219.263166"/>
     <use style="stroke:#000000;" x="170.355527" xlink:href="#mcc954e2852" y="223.658063"/>
     <use style="stroke:#000000;" x="170.517576" xlink:href="#mcc954e2852" y="218.006496"/>
     <use style="stroke:#000000;" x="170.679625" xlink:href="#mcc954e2852" y="219.263166"/>
     <use style="stroke:#000000;" x="170.841675" xlink:href="#mcc954e2852" y="216.118902"/>
     <use style="stroke:#000000;" x="171.003724" xlink:href="#mcc954e2852" y="219.263166"/>
     <use style="stroke:#000000;" x="171.165773" xlink:href="#mcc954e2852" y="217.376819"/>
     <use style="stroke:#000000;" x="171.327823" xlink:href="#mcc954e2852" y="214.85912"/>
     <use style="stroke:#000000;" x="171.489872" xlink:href="#mcc954e2852" y="214.229432"/>
     <use style="stroke:#000000;" x="171.651921" xlink:href="#mcc954e2852" y="212.968397"/>
     <use style="stroke:#000000;" x="171.813971" xlink:href="#mcc954e2852" y="209.181302"/>
     <use style="stroke:#000000;" x="171.97602" xlink:href="#mcc954e2852" y="210.443815"/>
     <use style="stroke:#000000;" x="172.138069" xlink:href="#mcc954e2852" y="211.075792"/>
     <use style="stroke:#000000;" x="172.300119" xlink:href="#mcc954e2852" y="208.548694"/>
     <use style="stroke:#000000;" x="172.462168" xlink:href="#mcc954e2852" y="210.443815"/>
     <use style="stroke:#000000;" x="172.624217" xlink:href="#mcc954e2852" y="208.548694"/>
     <use style="stroke:#000000;" x="172.786267" xlink:href="#mcc954e2852" y="204.752779"/>
     <use style="stroke:#000000;" x="172.948316" xlink:href="#mcc954e2852" y="203.48648"/>
     <use style="stroke:#000000;" x="173.110365" xlink:href="#mcc954e2852" y="204.119735"/>
     <use style="stroke:#000000;" x="173.272414" xlink:href="#mcc954e2852" y="203.48648"/>
     <use style="stroke:#000000;" x="173.434464" xlink:href="#mcc954e2852" y="203.48648"/>
     <use style="stroke:#000000;" x="173.596513" xlink:href="#mcc954e2852" y="198.409712"/>
     <use style="stroke:#000000;" x="173.758562" xlink:href="#mcc954e2852" y="200.949271"/>
     <use style="stroke:#000000;" x="173.920612" xlink:href="#mcc954e2852" y="198.409712"/>
     <use style="stroke:#000000;" x="174.082661" xlink:href="#mcc954e2852" y="195.865716"/>
     <use style="stroke:#000000;" x="174.24471" xlink:href="#mcc954e2852" y="198.409712"/>
     <use style="stroke:#000000;" x="174.40676" xlink:href="#mcc954e2852" y="196.502555"/>
     <use style="stroke:#000000;" x="174.568809" xlink:href="#mcc954e2852" y="196.502555"/>
     <use style="stroke:#000000;" x="174.730858" xlink:href="#mcc954e2852" y="192.682493"/>
     <use style="stroke:#000000;" x="174.892908" xlink:href="#mcc954e2852" y="189.492887"/>
     <use style="stroke:#000000;" x="175.054957" xlink:href="#mcc954e2852" y="190.130818"/>
     <use style="stroke:#000000;" x="175.217006" xlink:href="#mcc954e2852" y="187.576762"/>
     <use style="stroke:#000000;" x="175.379056" xlink:href="#mcc954e2852" y="190.130818"/>
     <use style="stroke:#000000;" x="175.541105" xlink:href="#mcc954e2852" y="185.658703"/>
     <use style="stroke:#000000;" x="175.703154" xlink:href="#mcc954e2852" y="186.297922"/>
     <use style="stroke:#000000;" x="175.865204" xlink:href="#mcc954e2852" y="183.097579"/>
     <use style="stroke:#000000;" x="176.027253" xlink:href="#mcc954e2852" y="185.01822"/>
     <use style="stroke:#000000;" x="176.189302" xlink:href="#mcc954e2852" y="182.457284"/>
     <use style="stroke:#000000;" x="176.351352" xlink:href="#mcc954e2852" y="182.457284"/>
     <use style="stroke:#000000;" x="176.513401" xlink:href="#mcc954e2852" y="179.892892"/>
     <use style="stroke:#000000;" x="176.67545" xlink:href="#mcc954e2852" y="177.323987"/>
     <use style="stroke:#000000;" x="176.837499" xlink:href="#mcc954e2852" y="177.323987"/>
     <use style="stroke:#000000;" x="176.999549" xlink:href="#mcc954e2852" y="175.395554"/>
     <use style="stroke:#000000;" x="177.161598" xlink:href="#mcc954e2852" y="177.323987"/>
     <use style="stroke:#000000;" x="177.323647" xlink:href="#mcc954e2852" y="176.039283"/>
     <use style="stroke:#000000;" x="177.485697" xlink:href="#mcc954e2852" y="172.821615"/>
     <use style="stroke:#000000;" x="177.647746" xlink:href="#mcc954e2852" y="170.243132"/>
     <use style="stroke:#000000;" x="177.809795" xlink:href="#mcc954e2852" y="171.53281"/>
     <use style="stroke:#000000;" x="177.971845" xlink:href="#mcc954e2852" y="168.953636"/>
     <use style="stroke:#000000;" x="178.133894" xlink:href="#mcc954e2852" y="174.108492"/>
     <use style="stroke:#000000;" x="178.295943" xlink:href="#mcc954e2852" y="168.953636"/>
     <use style="stroke:#000000;" x="178.457993" xlink:href="#mcc954e2852" y="165.723944"/>
     <use style="stroke:#000000;" x="178.620042" xlink:href="#mcc954e2852" y="167.662206"/>
     <use style="stroke:#000000;" x="178.782091" xlink:href="#mcc954e2852" y="163.783706"/>
     <use style="stroke:#000000;" x="178.944141" xlink:href="#mcc954e2852" y="164.430319"/>
     <use style="stroke:#000000;" x="179.10619" xlink:href="#mcc954e2852" y="161.841486"/>
     <use style="stroke:#000000;" x="179.268239" xlink:href="#mcc954e2852" y="163.135812"/>
     <use style="stroke:#000000;" x="179.430289" xlink:href="#mcc954e2852" y="159.89728"/>
     <use style="stroke:#000000;" x="179.592338" xlink:href="#mcc954e2852" y="160.545216"/>
     <use style="stroke:#000000;" x="179.754387" xlink:href="#mcc954e2852" y="158.599684"/>
     <use style="stroke:#000000;" x="179.916436" xlink:href="#mcc954e2852" y="156.652158"/>
     <use style="stroke:#000000;" x="180.078486" xlink:href="#mcc954e2852" y="156.002895"/>
     <use style="stroke:#000000;" x="180.240535" xlink:href="#mcc954e2852" y="153.40149"/>
     <use style="stroke:#000000;" x="180.402584" xlink:href="#mcc954e2852" y="154.052707"/>
     <use style="stroke:#000000;" x="180.564634" xlink:href="#mcc954e2852" y="152.751115"/>
     <use style="stroke:#000000;" x="180.726683" xlink:href="#mcc954e2852" y="148.842053"/>
     <use style="stroke:#000000;" x="180.888732" xlink:href="#mcc954e2852" y="147.536887"/>
     <use style="stroke:#000000;" x="181.050782" xlink:href="#mcc954e2852" y="150.145254"/>
     <use style="stroke:#000000;" x="181.212831" xlink:href="#mcc954e2852" y="146.230825"/>
     <use style="stroke:#000000;" x="181.37488" xlink:href="#mcc954e2852" y="148.189047"/>
     <use style="stroke:#000000;" x="181.53693" xlink:href="#mcc954e2852" y="146.884503"/>
     <use style="stroke:#000000;" x="181.698979" xlink:href="#mcc954e2852" y="141.654142"/>
     <use style="stroke:#000000;" x="181.861028" xlink:href="#mcc954e2852" y="141.654142"/>
     <use style="stroke:#000000;" x="182.023078" xlink:href="#mcc954e2852" y="142.308322"/>
     <use style="stroke:#000000;" x="182.185127" xlink:href="#mcc954e2852" y="137.722177"/>
     <use style="stroke:#000000;" x="182.347176" xlink:href="#mcc954e2852" y="143.61708"/>
     <use style="stroke:#000000;" x="182.509226" xlink:href="#mcc954e2852" y="138.377712"/>
     <use style="stroke:#000000;" x="182.671275" xlink:href="#mcc954e2852" y="140.999737"/>
     <use style="stroke:#000000;" x="182.833324" xlink:href="#mcc954e2852" y="137.722177"/>
     <use style="stroke:#000000;" x="182.995374" xlink:href="#mcc954e2852" y="134.438959"/>
     <use style="stroke:#000000;" x="183.157423" xlink:href="#mcc954e2852" y="133.123868"/>
     <use style="stroke:#000000;" x="183.319472" xlink:href="#mcc954e2852" y="133.123868"/>
     <use style="stroke:#000000;" x="183.481521" xlink:href="#mcc954e2852" y="131.150063"/>
     <use style="stroke:#000000;" x="183.643571" xlink:href="#mcc954e2852" y="129.833773"/>
     <use style="stroke:#000000;" x="183.80562" xlink:href="#mcc954e2852" y="129.174207"/>
     <use style="stroke:#000000;" x="183.967669" xlink:href="#mcc954e2852" y="129.833773"/>
     <use style="stroke:#000000;" x="184.129719" xlink:href="#mcc954e2852" y="127.855468"/>
     <use style="stroke:#000000;" x="184.291768" xlink:href="#mcc954e2852" y="126.536895"/>
     <use style="stroke:#000000;" x="184.453817" xlink:href="#mcc954e2852" y="125.216326"/>
     <use style="stroke:#000000;" x="184.615867" xlink:href="#mcc954e2852" y="123.234292"/>
     <use style="stroke:#000000;" x="184.777916" xlink:href="#mcc954e2852" y="122.573515"/>
     <use style="stroke:#000000;" x="184.939965" xlink:href="#mcc954e2852" y="122.573515"/>
     <use style="stroke:#000000;" x="185.102015" xlink:href="#mcc954e2852" y="119.925942"/>
     <use style="stroke:#000000;" x="185.264064" xlink:href="#mcc954e2852" y="119.925942"/>
     <use style="stroke:#000000;" x="185.426113" xlink:href="#mcc954e2852" y="117.938384"/>
     <use style="stroke:#000000;" x="185.588163" xlink:href="#mcc954e2852" y="119.264016"/>
     <use style="stroke:#000000;" x="185.750212" xlink:href="#mcc954e2852" y="118.601858"/>
     <use style="stroke:#000000;" x="185.912261" xlink:href="#mcc954e2852" y="115.948746"/>
     <use style="stroke:#000000;" x="186.074311" xlink:href="#mcc954e2852" y="115.948746"/>
     <use style="stroke:#000000;" x="186.23636" xlink:href="#mcc954e2852" y="115.285432"/>
     <use style="stroke:#000000;" x="186.398409" xlink:href="#mcc954e2852" y="114.6208"/>
     <use style="stroke:#000000;" x="186.560458" xlink:href="#mcc954e2852" y="113.957023"/>
     <use style="stroke:#000000;" x="186.722508" xlink:href="#mcc954e2852" y="111.298509"/>
     <use style="stroke:#000000;" x="186.884557" xlink:href="#mcc954e2852" y="109.96731"/>
     <use style="stroke:#000000;" x="187.046606" xlink:href="#mcc954e2852" y="110.632481"/>
     <use style="stroke:#000000;" x="187.208656" xlink:href="#mcc954e2852" y="109.96731"/>
     <use style="stroke:#000000;" x="187.370705" xlink:href="#mcc954e2852" y="110.632481"/>
     <use style="stroke:#000000;" x="187.532754" xlink:href="#mcc954e2852" y="105.969209"/>
     <use style="stroke:#000000;" x="187.694804" xlink:href="#mcc954e2852" y="107.303207"/>
     <use style="stroke:#000000;" x="187.856853" xlink:href="#mcc954e2852" y="105.302404"/>
     <use style="stroke:#000000;" x="188.018902" xlink:href="#mcc954e2852" y="102.630658"/>
     <use style="stroke:#000000;" x="188.180952" xlink:href="#mcc954e2852" y="104.634273"/>
     <use style="stroke:#000000;" x="188.343001" xlink:href="#mcc954e2852" y="106.635778"/>
     <use style="stroke:#000000;" x="188.50505" xlink:href="#mcc954e2852" y="101.293376"/>
     <use style="stroke:#000000;" x="188.6671" xlink:href="#mcc954e2852" y="99.956249"/>
     <use style="stroke:#000000;" x="188.829149" xlink:href="#mcc954e2852" y="101.293376"/>
     <use style="stroke:#000000;" x="188.991198" xlink:href="#mcc954e2852" y="98.617085"/>
     <use style="stroke:#000000;" x="189.153248" xlink:href="#mcc954e2852" y="101.293376"/>
     <use style="stroke:#000000;" x="189.315297" xlink:href="#mcc954e2852" y="99.956249"/>
     <use style="stroke:#000000;" x="189.477346" xlink:href="#mcc954e2852" y="100.62493"/>
     <use style="stroke:#000000;" x="189.639396" xlink:href="#mcc954e2852" y="95.937022"/>
     <use style="stroke:#000000;" x="189.801445" xlink:href="#mcc954e2852" y="96.607117"/>
     <use style="stroke:#000000;" x="189.963494" xlink:href="#mcc954e2852" y="97.947698"/>
     <use style="stroke:#000000;" x="190.125543" xlink:href="#mcc954e2852" y="96.607117"/>
     <use style="stroke:#000000;" x="190.287593" xlink:href="#mcc954e2852" y="97.276977"/>
     <use style="stroke:#000000;" x="190.449642" xlink:href="#mcc954e2852" y="91.909282"/>
     <use style="stroke:#000000;" x="190.611691" xlink:href="#mcc954e2852" y="93.924219"/>
     <use style="stroke:#000000;" x="190.773741" xlink:href="#mcc954e2852" y="93.252077"/>
     <use style="stroke:#000000;" x="190.93579" xlink:href="#mcc954e2852" y="93.924219"/>
     <use style="stroke:#000000;" x="191.097839" xlink:href="#mcc954e2852" y="89.891105"/>
     <use style="stroke:#000000;" x="191.259889" xlink:href="#mcc954e2852" y="89.891105"/>
     <use style="stroke:#000000;" x="191.421938" xlink:href="#mcc954e2852" y="89.891105"/>
     <use style="stroke:#000000;" x="191.583987" xlink:href="#mcc954e2852" y="89.891105"/>
     <use style="stroke:#000000;" x="191.746037" xlink:href="#mcc954e2852" y="88.545935"/>
     <use style="stroke:#000000;" x="191.908086" xlink:href="#mcc954e2852" y="86.525288"/>
     <use style="stroke:#000000;" x="192.070135" xlink:href="#mcc954e2852" y="83.152397"/>
     <use style="stroke:#000000;" x="192.232185" xlink:href="#mcc954e2852" y="84.502492"/>
     <use style="stroke:#000000;" x="192.394234" xlink:href="#mcc954e2852" y="87.198708"/>
     <use style="stroke:#000000;" x="192.556283" xlink:href="#mcc954e2852" y="85.850525"/>
     <use style="stroke:#000000;" x="192.718333" xlink:href="#mcc954e2852" y="85.176627"/>
     <use style="stroke:#000000;" x="192.880382" xlink:href="#mcc954e2852" y="83.152397"/>
     <use style="stroke:#000000;" x="193.042431" xlink:href="#mcc954e2852" y="83.827011"/>
     <use style="stroke:#000000;" x="193.20448" xlink:href="#mcc954e2852" y="81.801341"/>
     <use style="stroke:#000000;" x="193.36653" xlink:href="#mcc954e2852" y="80.450433"/>
     <use style="stroke:#000000;" x="193.528579" xlink:href="#mcc954e2852" y="79.773511"/>
     <use style="stroke:#000000;" x="193.690628" xlink:href="#mcc954e2852" y="78.420052"/>
     <use style="stroke:#000000;" x="193.852678" xlink:href="#mcc954e2852" y="77.743517"/>
     <use style="stroke:#000000;" x="194.014727" xlink:href="#mcc954e2852" y="79.773511"/>
     <use style="stroke:#000000;" x="194.176776" xlink:href="#mcc954e2852" y="77.743517"/>
     <use style="stroke:#000000;" x="194.338826" xlink:href="#mcc954e2852" y="79.097457"/>
     <use style="stroke:#000000;" x="194.500875" xlink:href="#mcc954e2852" y="79.773511"/>
     <use style="stroke:#000000;" x="194.662924" xlink:href="#mcc954e2852" y="77.743517"/>
     <use style="stroke:#000000;" x="194.824974" xlink:href="#mcc954e2852" y="77.06674"/>
     <use style="stroke:#000000;" x="194.987023" xlink:href="#mcc954e2852" y="77.06674"/>
     <use style="stroke:#000000;" x="195.149072" xlink:href="#mcc954e2852" y="73.677015"/>
     <use style="stroke:#000000;" x="195.311122" xlink:href="#mcc954e2852" y="70.961545"/>
     <use style="stroke:#000000;" x="195.473171" xlink:href="#mcc954e2852" y="72.998788"/>
     <use style="stroke:#000000;" x="195.63522" xlink:href="#mcc954e2852" y="72.319208"/>
     <use style="stroke:#000000;" x="195.79727" xlink:href="#mcc954e2852" y="71.640498"/>
     <use style="stroke:#000000;" x="195.959319" xlink:href="#mcc954e2852" y="72.998788"/>
     <use style="stroke:#000000;" x="196.121368" xlink:href="#mcc954e2852" y="67.56091"/>
     <use style="stroke:#000000;" x="196.283418" xlink:href="#mcc954e2852" y="75.711353"/>
     <use style="stroke:#000000;" x="196.445467" xlink:href="#mcc954e2852" y="71.640498"/>
     <use style="stroke:#000000;" x="196.607516" xlink:href="#mcc954e2852" y="73.677015"/>
     <use style="stroke:#000000;" x="196.769565" xlink:href="#mcc954e2852" y="70.281237"/>
     <use style="stroke:#000000;" x="196.931615" xlink:href="#mcc954e2852" y="70.961545"/>
     <use style="stroke:#000000;" x="197.093664" xlink:href="#mcc954e2852" y="68.922116"/>
     <use style="stroke:#000000;" x="197.255713" xlink:href="#mcc954e2852" y="69.601798"/>
     <use style="stroke:#000000;" x="197.417763" xlink:href="#mcc954e2852" y="68.922116"/>
     <use style="stroke:#000000;" x="197.579812" xlink:href="#mcc954e2852" y="65.517829"/>
     <use style="stroke:#000000;" x="197.741861" xlink:href="#mcc954e2852" y="70.281237"/>
     <use style="stroke:#000000;" x="197.903911" xlink:href="#mcc954e2852" y="67.56091"/>
     <use style="stroke:#000000;" x="198.06596" xlink:href="#mcc954e2852" y="65.517829"/>
     <use style="stroke:#000000;" x="198.228009" xlink:href="#mcc954e2852" y="68.922116"/>
     <use style="stroke:#000000;" x="198.390059" xlink:href="#mcc954e2852" y="65.517829"/>
     <use style="stroke:#000000;" x="198.552108" xlink:href="#mcc954e2852" y="62.107436"/>
     <use style="stroke:#000000;" x="198.714157" xlink:href="#mcc954e2852" y="66.879383"/>
     <use style="stroke:#000000;" x="198.876207" xlink:href="#mcc954e2852" y="67.56091"/>
     <use style="stroke:#000000;" x="199.038256" xlink:href="#mcc954e2852" y="66.198728"/>
     <use style="stroke:#000000;" x="199.200305" xlink:href="#mcc954e2852" y="62.789557"/>
     <use style="stroke:#000000;" x="199.362355" xlink:href="#mcc954e2852" y="65.517829"/>
     <use style="stroke:#000000;" x="199.524404" xlink:href="#mcc954e2852" y="62.107436"/>
     <use style="stroke:#000000;" x="199.686453" xlink:href="#mcc954e2852" y="66.198728"/>
     <use style="stroke:#000000;" x="199.848502" xlink:href="#mcc954e2852" y="62.789557"/>
     <use style="stroke:#000000;" x="200.010552" xlink:href="#mcc954e2852" y="64.835569"/>
     <use style="stroke:#000000;" x="200.172601" xlink:href="#mcc954e2852" y="62.107436"/>
     <use style="stroke:#000000;" x="200.33465" xlink:href="#mcc954e2852" y="62.107436"/>
     <use style="stroke:#000000;" x="200.4967" xlink:href="#mcc954e2852" y="60.058484"/>
     <use style="stroke:#000000;" x="200.658749" xlink:href="#mcc954e2852" y="60.741341"/>
     <use style="stroke:#000000;" x="200.820798" xlink:href="#mcc954e2852" y="61.425071"/>
     <use style="stroke:#000000;" x="200.982848" xlink:href="#mcc954e2852" y="62.789557"/>
     <use style="stroke:#000000;" x="201.144897" xlink:href="#mcc954e2852" y="60.058484"/>
     <use style="stroke:#000000;" x="201.306946" xlink:href="#mcc954e2852" y="60.058484"/>
     <use style="stroke:#000000;" x="201.468996" xlink:href="#mcc954e2852" y="59.375383"/>
     <use style="stroke:#000000;" x="201.631045" xlink:href="#mcc954e2852" y="61.425071"/>
     <use style="stroke:#000000;" x="201.793094" xlink:href="#mcc954e2852" y="64.835569"/>
     <use style="stroke:#000000;" x="201.955144" xlink:href="#mcc954e2852" y="59.375383"/>
     <use style="stroke:#000000;" x="202.117193" xlink:href="#mcc954e2852" y="58.007323"/>
     <use style="stroke:#000000;" x="202.279242" xlink:href="#mcc954e2852" y="62.107436"/>
     <use style="stroke:#000000;" x="202.441292" xlink:href="#mcc954e2852" y="57.323484"/>
     <use style="stroke:#000000;" x="202.603341" xlink:href="#mcc954e2852" y="56.638278"/>
     <use style="stroke:#000000;" x="202.76539" xlink:href="#mcc954e2852" y="57.323484"/>
     <use style="stroke:#000000;" x="202.92744" xlink:href="#mcc954e2852" y="60.058484"/>
     <use style="stroke:#000000;" x="203.089489" xlink:href="#mcc954e2852" y="55.26937"/>
     <use style="stroke:#000000;" x="203.251538" xlink:href="#mcc954e2852" y="58.690916"/>
     <use style="stroke:#000000;" x="203.413587" xlink:href="#mcc954e2852" y="53.89835"/>
     <use style="stroke:#000000;" x="203.575637" xlink:href="#mcc954e2852" y="57.323484"/>
     <use style="stroke:#000000;" x="203.737686" xlink:href="#mcc954e2852" y="57.323484"/>
     <use style="stroke:#000000;" x="203.899735" xlink:href="#mcc954e2852" y="58.007323"/>
     <use style="stroke:#000000;" x="204.061785" xlink:href="#mcc954e2852" y="60.058484"/>
     <use style="stroke:#000000;" x="204.223834" xlink:href="#mcc954e2852" y="57.323484"/>
     <use style="stroke:#000000;" x="204.385883" xlink:href="#mcc954e2852" y="59.375383"/>
     <use style="stroke:#000000;" x="204.547933" xlink:href="#mcc954e2852" y="54.583422"/>
     <use style="stroke:#000000;" x="204.709982" xlink:href="#mcc954e2852" y="56.638278"/>
     <use style="stroke:#000000;" x="204.872031" xlink:href="#mcc954e2852" y="55.953947"/>
     <use style="stroke:#000000;" x="205.034081" xlink:href="#mcc954e2852" y="56.638278"/>
     <use style="stroke:#000000;" x="205.19613" xlink:href="#mcc954e2852" y="55.953947"/>
     <use style="stroke:#000000;" x="205.358179" xlink:href="#mcc954e2852" y="56.638278"/>
     <use style="stroke:#000000;" x="205.520229" xlink:href="#mcc954e2852" y="55.26937"/>
     <use style="stroke:#000000;" x="205.682278" xlink:href="#mcc954e2852" y="57.323484"/>
     <use style="stroke:#000000;" x="205.844327" xlink:href="#mcc954e2852" y="54.583422"/>
     <use style="stroke:#000000;" x="206.006377" xlink:href="#mcc954e2852" y="57.323484"/>
     <use style="stroke:#000000;" x="206.168426" xlink:href="#mcc954e2852" y="56.638278"/>
     <use style="stroke:#000000;" x="206.330475" xlink:href="#mcc954e2852" y="51.84053"/>
     <use style="stroke:#000000;" x="206.492525" xlink:href="#mcc954e2852" y="55.26937"/>
     <use style="stroke:#000000;" x="206.654574" xlink:href="#mcc954e2852" y="54.583422"/>
     <use style="stroke:#000000;" x="206.816623" xlink:href="#mcc954e2852" y="57.323484"/>
     <use style="stroke:#000000;" x="206.978672" xlink:href="#mcc954e2852" y="57.323484"/>
     <use style="stroke:#000000;" x="207.140722" xlink:href="#mcc954e2852" y="49.092551"/>
     <use style="stroke:#000000;" x="207.302771" xlink:href="#mcc954e2852" y="54.583422"/>
     <use style="stroke:#000000;" x="207.46482" xlink:href="#mcc954e2852" y="54.583422"/>
     <use style="stroke:#000000;" x="207.62687" xlink:href="#mcc954e2852" y="53.211909"/>
     <use style="stroke:#000000;" x="207.788919" xlink:href="#mcc954e2852" y="48.405498"/>
     <use style="stroke:#000000;" x="207.950968" xlink:href="#mcc954e2852" y="52.526344"/>
     <use style="stroke:#000000;" x="208.113018" xlink:href="#mcc954e2852" y="51.84053"/>
     <use style="stroke:#000000;" x="208.275067" xlink:href="#mcc954e2852" y="52.526344"/>
     <use style="stroke:#000000;" x="208.437116" xlink:href="#mcc954e2852" y="53.211909"/>
     <use style="stroke:#000000;" x="208.599166" xlink:href="#mcc954e2852" y="60.058484"/>
     <use style="stroke:#000000;" x="208.761215" xlink:href="#mcc954e2852" y="55.953947"/>
     <use style="stroke:#000000;" x="208.923264" xlink:href="#mcc954e2852" y="55.26937"/>
     <use style="stroke:#000000;" x="209.085314" xlink:href="#mcc954e2852" y="53.89835"/>
     <use style="stroke:#000000;" x="209.247363" xlink:href="#mcc954e2852" y="53.89835"/>
     <use style="stroke:#000000;" x="209.409412" xlink:href="#mcc954e2852" y="53.211909"/>
     <use style="stroke:#000000;" x="209.571462" xlink:href="#mcc954e2852" y="49.780481"/>
     <use style="stroke:#000000;" x="209.733511" xlink:href="#mcc954e2852" y="53.211909"/>
     <use style="stroke:#000000;" x="209.89556" xlink:href="#mcc954e2852" y="51.84053"/>
     <use style="stroke:#000000;" x="210.057609" xlink:href="#mcc954e2852" y="51.84053"/>
     <use style="stroke:#000000;" x="210.219659" xlink:href="#mcc954e2852" y="53.211909"/>
     <use style="stroke:#000000;" x="210.381708" xlink:href="#mcc954e2852" y="51.84053"/>
     <use style="stroke:#000000;" x="210.543757" xlink:href="#mcc954e2852" y="53.211909"/>
     <use style="stroke:#000000;" x="210.705807" xlink:href="#mcc954e2852" y="51.84053"/>
     <use style="stroke:#000000;" x="210.867856" xlink:href="#mcc954e2852" y="51.153345"/>
     <use style="stroke:#000000;" x="211.029905" xlink:href="#mcc954e2852" y="48.405498"/>
     <use style="stroke:#000000;" x="211.191955" xlink:href="#mcc954e2852" y="49.780481"/>
     <use style="stroke:#000000;" x="211.354004" xlink:href="#mcc954e2852" y="48.405498"/>
    </g>
   </g>
   <g id="line2d_18">
    <path clip-path="url(#p62b2668167)" d="M 150.099362 274.813009 
L 152.854201 274.111922 
L 155.122891 273.303304 
L 157.229532 272.29496 
L 158.850025 271.303207 
L 160.470518 270.079884 
L 162.091012 268.568414 
L 163.711505 266.706524 
L 165.169949 264.676044 
L 166.628392 262.249032 
L 168.086836 259.353259 
L 169.54528 255.92004 
L 170.841675 252.358026 
L 172.300119 247.69367 
L 173.758562 242.262658 
L 175.217006 235.982354 
L 176.837499 227.936253 
L 178.457993 218.722032 
L 180.240535 207.261268 
L 182.347176 192.119106 
L 185.102015 170.447288 
L 191.421938 120.062319 
L 193.852678 102.765274 
L 195.959319 89.269346 
L 198.06596 77.313156 
L 199.848502 68.422514 
L 201.631045 60.654361 
L 203.413587 53.944497 
L 205.034081 48.685637 
L 206.816623 43.751133 
L 208.437116 39.935381 
L 210.057609 36.671172 
L 211.354004 34.414125 
L 211.354004 34.414125 
" style="fill:none;stroke:#0000ff;stroke-dasharray:5.55,2.4;stroke-dashoffset:0;stroke-width:1.5;"/>
   </g>
   <g id="line2d_19">
    <path clip-path="url(#p62b2668167)" d="M 150.099362 275.055801 
L 152.854201 274.456199 
L 155.28494 273.701658 
L 157.391581 272.8169 
L 159.336173 271.747229 
L 161.118716 270.492114 
L 162.57716 269.223529 
L 164.035603 267.693958 
L 165.494047 265.856045 
L 167.11454 263.374423 
L 168.572984 260.687622 
L 170.031428 257.494752 
L 171.489872 253.733006 
L 172.948316 249.335597 
L 174.40676 244.244583 
L 176.027253 237.717366 
L 177.647746 230.242292 
L 179.430289 220.922786 
L 181.37488 209.510139 
L 183.643571 194.768039 
L 186.722508 173.118388 
L 191.259889 141.242391 
L 193.36653 127.992195 
L 195.149072 118.046938 
L 196.769565 110.117365 
L 198.390059 103.242578 
L 200.010552 97.362932 
L 201.468996 92.832103 
L 203.089489 88.554364 
L 204.385883 85.635361 
L 205.034081 84.316666 
L 206.654574 81.405654 
L 208.113018 79.188399 
L 209.733511 77.105788 
L 211.354004 75.355695 
L 211.354004 75.355695 
" style="fill:none;stroke:#0000ff;stroke-dasharray:5.55,2.4;stroke-dashoffset:0;stroke-width:1.5;"/>
   </g>
   <g id="line2d_20"/>
   <g id="line2d_21"/>
   <g id="line2d_22"/>
   <g id="line2d_23"/>
   <g id="line2d_24"/>
   <g id="line2d_25"/>
   <g id="patch_3">
    <path d="M 53.328125 288.430125 
L 53.328125 22.318125 
" style="fill:none;stroke:#000000;stroke-linecap:square;stroke-linejoin:miter;stroke-width:0.8;"/>
   </g>
   <g id="patch_4">
    <path d="M 410.448125 288.430125 
L 410.448125 22.318125 
" style="fill:none;stroke:#000000;stroke-linecap:square;stroke-linejoin:miter;stroke-width:0.8;"/>
   </g>
   <g id="patch_5">
    <path d="M 53.328125 288.430125 
L 410.448125 288.430125 
" style="fill:none;stroke:#000000;stroke-linecap:square;stroke-linejoin:miter;stroke-width:0.8;"/>
   </g>
   <g id="patch_6">
    <path d="M 53.328125 22.318125 
L 410.448125 22.318125 
" style="fill:none;stroke:#000000;stroke-linecap:square;stroke-linejoin:miter;stroke-width:0.8;"/>
   </g>
   <g id="text_17">
    <!-- Experiment_7 -->
    <g transform="translate(190.402813 16.318125)scale(0.12 -0.12)">
     <defs>
      <path d="M 9.8125 72.90625 
L 55.90625 72.90625 
L 55.90625 64.59375 
L 19.671875 64.59375 
L 19.671875 43.015625 
L 54.390625 43.015625 
L 54.390625 34.71875 
L 19.671875 34.71875 
L 19.671875 8.296875 
L 56.78125 8.296875 
L 56.78125 0 
L 9.8125 0 
z
" id="DejaVuSans-69"/>
      <path d="M 54.890625 54.6875 
L 35.109375 28.078125 
L 55.90625 0 
L 45.3125 0 
L 29.390625 21.484375 
L 13.484375 0 
L 2.875 0 
L 24.125 28.609375 
L 4.6875 54.6875 
L 15.28125 54.6875 
L 29.78125 35.203125 
L 44.28125 54.6875 
z
" id="DejaVuSans-120"/>
      <path d="M 41.109375 46.296875 
Q 39.59375 47.171875 37.8125 47.578125 
Q 36.03125 48 33.890625 48 
Q 26.265625 48 22.1875 43.046875 
Q 18.109375 38.09375 18.109375 28.8125 
L 18.109375 0 
L 9.078125 0 
L 9.078125 54.6875 
L 18.109375 54.6875 
L 18.109375 46.1875 
Q 20.953125 51.171875 25.484375 53.578125 
Q 30.03125 56 36.53125 56 
Q 37.453125 56 38.578125 55.875 
Q 39.703125 55.765625 41.0625 55.515625 
z
" id="DejaVuSans-114"/>
      <path d="M 54.890625 33.015625 
L 54.890625 0 
L 45.90625 0 
L 45.90625 32.71875 
Q 45.90625 40.484375 42.875 44.328125 
Q 39.84375 48.1875 33.796875 48.1875 
Q 26.515625 48.1875 22.3125 43.546875 
Q 18.109375 38.921875 18.109375 30.90625 
L 18.109375 0 
L 9.078125 0 
L 9.078125 54.6875 
L 18.109375 54.6875 
L 18.109375 46.1875 
Q 21.34375 51.125 25.703125 53.5625 
Q 30.078125 56 35.796875 56 
Q 45.21875 56 50.046875 50.171875 
Q 54.890625 44.34375 54.890625 33.015625 
z
" id="DejaVuSans-110"/>
      <path d="M 18.3125 70.21875 
L 18.3125 54.6875 
L 36.8125 54.6875 
L 36.8125 47.703125 
L 18.3125 47.703125 
L 18.3125 18.015625 
Q 18.3125 11.328125 20.140625 9.421875 
Q 21.96875 7.515625 27.59375 7.515625 
L 36.8125 7.515625 
L 36.8125 0 
L 27.59375 0 
Q 17.1875 0 13.234375 3.875 
Q 9.28125 7.765625 9.28125 18.015625 
L 9.28125 47.703125 
L 2.6875 47.703125 
L 2.6875 54.6875 
L 9.28125 54.6875 
L 9.28125 70.21875 
z
" id="DejaVuSans-116"/>
      <path d="M 50.984375 -16.609375 
L 50.984375 -23.578125 
L -0.984375 -23.578125 
L -0.984375 -16.609375 
z
" id="DejaVuSans-95"/>
     </defs>
     <use xlink:href="#DejaVuSans-69"/>
     <use x="63.183594" xlink:href="#DejaVuSans-120"/>
     <use x="122.363281" xlink:href="#DejaVuSans-112"/>
     <use x="185.839844" xlink:href="#DejaVuSans-101"/>
     <use x="247.363281" xlink:href="#DejaVuSans-114"/>
     <use x="288.476562" xlink:href="#DejaVuSans-105"/>
     <use x="316.259766" xlink:href="#DejaVuSans-109"/>
     <use x="413.671875" xlink:href="#DejaVuSans-101"/>
     <use x="475.195312" xlink:href="#DejaVuSans-110"/>
     <use x="538.574219" xlink:href="#DejaVuSans-116"/>
     <use x="577.783203" xlink:href="#DejaVuSans-95"/>
     <use x="627.783203" xlink:href="#DejaVuSans-55"/>
    </g>
   </g>
   <g id="legend_1">
    <g id="patch_7">
     <path d="M 139.218438 193.580375 
L 403.448125 193.580375 
Q 405.448125 193.580375 405.448125 191.580375 
L 405.448125 119.167875 
Q 405.448125 117.167875 403.448125 117.167875 
L 139.218438 117.167875 
Q 137.218438 117.167875 137.218438 119.167875 
L 137.218438 191.580375 
Q 137.218438 193.580375 139.218438 193.580375 
z
" style="fill:#ffffff;opacity:0.8;stroke:#cccccc;stroke-linejoin:miter;"/>
    </g>
    <g id="line2d_26">
     <path d="M 141.218438 125.266312 
L 161.218438 125.266312 
" style="fill:none;stroke:#0000ff;stroke-linecap:square;stroke-width:1.5;"/>
    </g>
    <g id="line2d_27"/>
    <g id="text_18">
     <!-- MSI -->
     <g transform="translate(169.218438 128.766312)scale(0.1 -0.1)">
      <defs>
       <path d="M 9.8125 72.90625 
L 24.515625 72.90625 
L 43.109375 23.296875 
L 61.8125 72.90625 
L 76.515625 72.90625 
L 76.515625 0 
L 66.890625 0 
L 66.890625 64.015625 
L 48.09375 14.015625 
L 38.1875 14.015625 
L 19.390625 64.015625 
L 19.390625 0 
L 9.8125 0 
z
" id="DejaVuSans-77"/>
       <path d="M 53.515625 70.515625 
L 53.515625 60.890625 
Q 47.90625 63.578125 42.921875 64.890625 
Q 37.9375 66.21875 33.296875 66.21875 
Q 25.25 66.21875 20.875 63.09375 
Q 16.5 59.96875 16.5 54.203125 
Q 16.5 49.359375 19.40625 46.890625 
Q 22.3125 44.4375 30.421875 42.921875 
L 36.375 41.703125 
Q 47.40625 39.59375 52.65625 34.296875 
Q 57.90625 29 57.90625 20.125 
Q 57.90625 9.515625 50.796875 4.046875 
Q 43.703125 -1.421875 29.984375 -1.421875 
Q 24.8125 -1.421875 18.96875 -0.25 
Q 13.140625 0.921875 6.890625 3.21875 
L 6.890625 13.375 
Q 12.890625 10.015625 18.65625 8.296875 
Q 24.421875 6.59375 29.984375 6.59375 
Q 38.421875 6.59375 43.015625 9.90625 
Q 47.609375 13.234375 47.609375 19.390625 
Q 47.609375 24.75 44.3125 27.78125 
Q 41.015625 30.8125 33.5 32.328125 
L 27.484375 33.5 
Q 16.453125 35.6875 11.515625 40.375 
Q 6.59375 45.0625 6.59375 53.421875 
Q 6.59375 63.09375 13.40625 68.65625 
Q 20.21875 74.21875 32.171875 74.21875 
Q 37.3125 74.21875 42.625 73.28125 
Q 47.953125 72.359375 53.515625 70.515625 
z
" id="DejaVuSans-83"/>
       <path d="M 9.8125 72.90625 
L 19.671875 72.90625 
L 19.671875 0 
L 9.8125 0 
z
" id="DejaVuSans-73"/>
      </defs>
      <use xlink:href="#DejaVuSans-77"/>
      <use x="86.279297" xlink:href="#DejaVuSans-83"/>
      <use x="149.755859" xlink:href="#DejaVuSans-73"/>
     </g>
    </g>
    <g id="line2d_28">
     <path d="M 141.218438 139.946 
L 161.218438 139.946 
" style="fill:none;stroke:#ff0000;stroke-linecap:square;stroke-width:1.5;"/>
    </g>
    <g id="line2d_29"/>
    <g id="text_19">
     <!-- $\it{A priori}$ model -->
     <g transform="translate(169.218438 143.446)scale(0.1 -0.1)">
      <defs>
       <path d="M 36.8125 72.90625 
L 48 72.90625 
L 61.53125 0 
L 51.21875 0 
L 48.1875 18.703125 
L 15.375 18.703125 
L 5.078125 0 
L -5.328125 0 
z
M 40.375 63.1875 
L 19.921875 26.90625 
L 46.6875 26.90625 
z
" id="DejaVuSans-Oblique-65"/>
       <path d="M 49.609375 33.6875 
Q 49.609375 40.875 46.484375 44.671875 
Q 43.359375 48.484375 37.5 48.484375 
Q 33.5 48.484375 29.859375 46.4375 
Q 26.21875 44.390625 23.390625 40.484375 
Q 20.609375 36.625 18.9375 31.15625 
Q 17.28125 25.6875 17.28125 20.3125 
Q 17.28125 13.484375 20.40625 9.796875 
Q 23.53125 6.109375 29.296875 6.109375 
Q 33.546875 6.109375 37.1875 8.109375 
Q 40.828125 10.109375 43.40625 13.921875 
Q 46.1875 17.921875 47.890625 23.34375 
Q 49.609375 28.765625 49.609375 33.6875 
z
M 21.78125 46.390625 
Q 25.390625 51.125 30.296875 53.5625 
Q 35.203125 56 41.21875 56 
Q 49.609375 56 54.25 50.5 
Q 58.890625 45.015625 58.890625 35.109375 
Q 58.890625 27 56 19.65625 
Q 53.125 12.3125 47.703125 6.5 
Q 44.09375 2.640625 39.546875 0.609375 
Q 35.015625 -1.421875 29.984375 -1.421875 
Q 24.171875 -1.421875 20.21875 1 
Q 16.265625 3.421875 14.3125 8.203125 
L 8.6875 -20.796875 
L -0.296875 -20.796875 
L 14.40625 54.6875 
L 23.390625 54.6875 
z
" id="DejaVuSans-Oblique-112"/>
       <path d="M 44.578125 46.390625 
Q 43.21875 47.125 41.453125 47.515625 
Q 39.703125 47.90625 37.703125 47.90625 
Q 30.515625 47.90625 25.140625 42.453125 
Q 19.78125 37.015625 18.015625 27.875 
L 12.5 0 
L 3.515625 0 
L 14.203125 54.6875 
L 23.1875 54.6875 
L 21.484375 46.1875 
Q 25.046875 50.921875 30 53.453125 
Q 34.96875 56 40.578125 56 
Q 42.046875 56 43.453125 55.828125 
Q 44.875 55.671875 46.296875 55.28125 
z
" id="DejaVuSans-Oblique-114"/>
       <path d="M 18.3125 75.984375 
L 27.296875 75.984375 
L 25.09375 64.59375 
L 16.109375 64.59375 
z
M 14.203125 54.6875 
L 23.1875 54.6875 
L 12.5 0 
L 3.515625 0 
z
" id="DejaVuSans-Oblique-105"/>
       <path d="M 25.390625 -1.421875 
Q 15.765625 -1.421875 10.171875 4.515625 
Q 4.59375 10.453125 4.59375 20.703125 
Q 4.59375 26.65625 6.515625 32.828125 
Q 8.453125 39.015625 11.53125 43.21875 
Q 16.359375 49.75 22.3125 52.875 
Q 28.265625 56 35.796875 56 
Q 45.125 56 50.859375 50.1875 
Q 56.59375 44.390625 56.59375 35.015625 
Q 56.59375 28.515625 54.6875 22.0625 
Q 52.78125 15.625 49.703125 11.375 
Q 44.921875 4.828125 38.96875 1.703125 
Q 33.015625 -1.421875 25.390625 -1.421875 
z
M 13.921875 21 
Q 13.921875 13.578125 17.015625 9.890625 
Q 20.125 6.203125 26.421875 6.203125 
Q 35.453125 6.203125 41.375 14.078125 
Q 47.3125 21.96875 47.3125 34.078125 
Q 47.3125 41.15625 44.140625 44.765625 
Q 40.96875 48.390625 34.8125 48.390625 
Q 29.734375 48.390625 25.78125 46.015625 
Q 21.828125 43.65625 18.703125 38.8125 
Q 16.40625 35.203125 15.15625 30.5625 
Q 13.921875 25.921875 13.921875 21 
z
" id="DejaVuSans-Oblique-111"/>
       <path d="M 30.609375 48.390625 
Q 23.390625 48.390625 19.1875 42.75 
Q 14.984375 37.109375 14.984375 27.296875 
Q 14.984375 17.484375 19.15625 11.84375 
Q 23.34375 6.203125 30.609375 6.203125 
Q 37.796875 6.203125 41.984375 11.859375 
Q 46.1875 17.53125 46.1875 27.296875 
Q 46.1875 37.015625 41.984375 42.703125 
Q 37.796875 48.390625 30.609375 48.390625 
z
M 30.609375 56 
Q 42.328125 56 49.015625 48.375 
Q 55.71875 40.765625 55.71875 27.296875 
Q 55.71875 13.875 49.015625 6.21875 
Q 42.328125 -1.421875 30.609375 -1.421875 
Q 18.84375 -1.421875 12.171875 6.21875 
Q 5.515625 13.875 5.515625 27.296875 
Q 5.515625 40.765625 12.171875 48.375 
Q 18.84375 56 30.609375 56 
z
" id="DejaVuSans-111"/>
       <path d="M 45.40625 46.390625 
L 45.40625 75.984375 
L 54.390625 75.984375 
L 54.390625 0 
L 45.40625 0 
L 45.40625 8.203125 
Q 42.578125 3.328125 38.25 0.953125 
Q 33.9375 -1.421875 27.875 -1.421875 
Q 17.96875 -1.421875 11.734375 6.484375 
Q 5.515625 14.40625 5.515625 27.296875 
Q 5.515625 40.1875 11.734375 48.09375 
Q 17.96875 56 27.875 56 
Q 33.9375 56 38.25 53.625 
Q 42.578125 51.265625 45.40625 46.390625 
z
M 14.796875 27.296875 
Q 14.796875 17.390625 18.875 11.75 
Q 22.953125 6.109375 30.078125 6.109375 
Q 37.203125 6.109375 41.296875 11.75 
Q 45.40625 17.390625 45.40625 27.296875 
Q 45.40625 37.203125 41.296875 42.84375 
Q 37.203125 48.484375 30.078125 48.484375 
Q 22.953125 48.484375 18.875 42.84375 
Q 14.796875 37.203125 14.796875 27.296875 
z
" id="DejaVuSans-100"/>
       <path d="M 9.421875 75.984375 
L 18.40625 75.984375 
L 18.40625 0 
L 9.421875 0 
z
" id="DejaVuSans-108"/>
      </defs>
      <use transform="translate(0 0.015625)" xlink:href="#DejaVuSans-Oblique-65"/>
      <use transform="translate(68.408203 0.015625)" xlink:href="#DejaVuSans-Oblique-112"/>
      <use transform="translate(131.884766 0.015625)" xlink:href="#DejaVuSans-Oblique-114"/>
      <use transform="translate(172.998047 0.015625)" xlink:href="#DejaVuSans-Oblique-105"/>
      <use transform="translate(200.78125 0.015625)" xlink:href="#DejaVuSans-Oblique-111"/>
      <use transform="translate(261.962891 0.015625)" xlink:href="#DejaVuSans-Oblique-114"/>
      <use transform="translate(303.076172 0.015625)" xlink:href="#DejaVuSans-Oblique-105"/>
      <use transform="translate(330.859375 0.015625)" xlink:href="#DejaVuSans-32"/>
      <use transform="translate(362.646484 0.015625)" xlink:href="#DejaVuSans-109"/>
      <use transform="translate(460.058594 0.015625)" xlink:href="#DejaVuSans-111"/>
      <use transform="translate(521.240234 0.015625)" xlink:href="#DejaVuSans-100"/>
      <use transform="translate(584.716797 0.015625)" xlink:href="#DejaVuSans-101"/>
      <use transform="translate(646.240234 0.015625)" xlink:href="#DejaVuSans-108"/>
     </g>
    </g>
    <g id="line2d_30"/>
    <g id="line2d_31">
     <g>
      <use style="stroke:#000000;" x="151.218438" xlink:href="#mcc954e2852" y="154.644437"/>
     </g>
    </g>
    <g id="text_20">
     <!-- Experimental Data -->
     <g transform="translate(169.218438 158.144437)scale(0.1 -0.1)">
      <defs>
       <path d="M 34.28125 27.484375 
Q 23.390625 27.484375 19.1875 25 
Q 14.984375 22.515625 14.984375 16.5 
Q 14.984375 11.71875 18.140625 8.90625 
Q 21.296875 6.109375 26.703125 6.109375 
Q 34.1875 6.109375 38.703125 11.40625 
Q 43.21875 16.703125 43.21875 25.484375 
L 43.21875 27.484375 
z
M 52.203125 31.203125 
L 52.203125 0 
L 43.21875 0 
L 43.21875 8.296875 
Q 40.140625 3.328125 35.546875 0.953125 
Q 30.953125 -1.421875 24.3125 -1.421875 
Q 15.921875 -1.421875 10.953125 3.296875 
Q 6 8.015625 6 15.921875 
Q 6 25.140625 12.171875 29.828125 
Q 18.359375 34.515625 30.609375 34.515625 
L 43.21875 34.515625 
L 43.21875 35.40625 
Q 43.21875 41.609375 39.140625 45 
Q 35.0625 48.390625 27.6875 48.390625 
Q 23 48.390625 18.546875 47.265625 
Q 14.109375 46.140625 10.015625 43.890625 
L 10.015625 52.203125 
Q 14.9375 54.109375 19.578125 55.046875 
Q 24.21875 56 28.609375 56 
Q 40.484375 56 46.34375 49.84375 
Q 52.203125 43.703125 52.203125 31.203125 
z
" id="DejaVuSans-97"/>
       <path d="M 19.671875 64.796875 
L 19.671875 8.109375 
L 31.59375 8.109375 
Q 46.6875 8.109375 53.6875 14.9375 
Q 60.6875 21.78125 60.6875 36.53125 
Q 60.6875 51.171875 53.6875 57.984375 
Q 46.6875 64.796875 31.59375 64.796875 
z
M 9.8125 72.90625 
L 30.078125 72.90625 
Q 51.265625 72.90625 61.171875 64.09375 
Q 71.09375 55.28125 71.09375 36.53125 
Q 71.09375 17.671875 61.125 8.828125 
Q 51.171875 0 30.078125 0 
L 9.8125 0 
z
" id="DejaVuSans-68"/>
      </defs>
      <use xlink:href="#DejaVuSans-69"/>
      <use x="63.183594" xlink:href="#DejaVuSans-120"/>
      <use x="122.363281" xlink:href="#DejaVuSans-112"/>
      <use x="185.839844" xlink:href="#DejaVuSans-101"/>
      <use x="247.363281" xlink:href="#DejaVuSans-114"/>
      <use x="288.476562" xlink:href="#DejaVuSans-105"/>
      <use x="316.259766" xlink:href="#DejaVuSans-109"/>
      <use x="413.671875" xlink:href="#DejaVuSans-101"/>
      <use x="475.195312" xlink:href="#DejaVuSans-110"/>
      <use x="538.574219" xlink:href="#DejaVuSans-116"/>
      <use x="577.783203" xlink:href="#DejaVuSans-97"/>
      <use x="639.0625" xlink:href="#DejaVuSans-108"/>
      <use x="666.845703" xlink:href="#DejaVuSans-32"/>
      <use x="698.632812" xlink:href="#DejaVuSans-68"/>
      <use x="775.634766" xlink:href="#DejaVuSans-97"/>
      <use x="836.914062" xlink:href="#DejaVuSans-116"/>
      <use x="876.123047" xlink:href="#DejaVuSans-97"/>
     </g>
    </g>
    <g id="line2d_32">
     <path d="M 141.218438 169.322562 
L 161.218438 169.322562 
" style="fill:none;stroke:#ffffff;stroke-linecap:square;stroke-width:1.5;"/>
    </g>
    <g id="line2d_33"/>
    <g id="text_21">
     <!-- T:1166 -->
     <g transform="translate(169.218438 172.822562)scale(0.1 -0.1)">
      <defs>
       <path d="M 11.71875 12.40625 
L 22.015625 12.40625 
L 22.015625 0 
L 11.71875 0 
z
M 11.71875 51.703125 
L 22.015625 51.703125 
L 22.015625 39.3125 
L 11.71875 39.3125 
z
" id="DejaVuSans-58"/>
      </defs>
      <use xlink:href="#DejaVuSans-84"/>
      <use x="50.083984" xlink:href="#DejaVuSans-58"/>
      <use x="83.775391" xlink:href="#DejaVuSans-49"/>
      <use x="147.398438" xlink:href="#DejaVuSans-49"/>
      <use x="211.021484" xlink:href="#DejaVuSans-54"/>
      <use x="274.644531" xlink:href="#DejaVuSans-54"/>
     </g>
    </g>
    <g id="line2d_34">
     <path d="M 141.218438 184.000687 
L 161.218438 184.000687 
" style="fill:none;stroke:#ffffff;stroke-linecap:square;stroke-width:1.5;"/>
    </g>
    <g id="line2d_35"/>
    <g id="text_22">
     <!-- P:1.88 -->
     <g transform="translate(169.218438 187.500687)scale(0.1 -0.1)">
      <defs>
       <path d="M 19.671875 64.796875 
L 19.671875 37.40625 
L 32.078125 37.40625 
Q 38.96875 37.40625 42.71875 40.96875 
Q 46.484375 44.53125 46.484375 51.125 
Q 46.484375 57.671875 42.71875 61.234375 
Q 38.96875 64.796875 32.078125 64.796875 
z
M 9.8125 72.90625 
L 32.078125 72.90625 
Q 44.34375 72.90625 50.609375 67.359375 
Q 56.890625 61.8125 56.890625 51.125 
Q 56.890625 40.328125 50.609375 34.8125 
Q 44.34375 29.296875 32.078125 29.296875 
L 19.671875 29.296875 
L 19.671875 0 
L 9.8125 0 
z
" id="DejaVuSans-80"/>
       <path d="M 10.6875 12.40625 
L 21 12.40625 
L 21 0 
L 10.6875 0 
z
" id="DejaVuSans-46"/>
      </defs>
      <use xlink:href="#DejaVuSans-80"/>
      <use x="60.302734" xlink:href="#DejaVuSans-58"/>
      <use x="93.994141" xlink:href="#DejaVuSans-49"/>
      <use x="157.617188" xlink:href="#DejaVuSans-46"/>
      <use x="189.404297" xlink:href="#DejaVuSans-56"/>
      <use x="253.027344" xlink:href="#DejaVuSans-56"/>
     </g>
    </g>
    <g id="line2d_36">
     <path d="M 282.959063 125.266312 
L 302.959063 125.266312 
" style="fill:none;stroke:#ffffff;stroke-linecap:square;stroke-width:1.5;"/>
    </g>
    <g id="line2d_37"/>
    <g id="text_23">
     <!-- O2: 0.001 -->
     <g transform="translate(310.959063 128.766312)scale(0.1 -0.1)">
      <use xlink:href="#DejaVuSans-79"/>
      <use x="78.710938" xlink:href="#DejaVuSans-50"/>
      <use x="142.333984" xlink:href="#DejaVuSans-58"/>
      <use x="176.025391" xlink:href="#DejaVuSans-32"/>
      <use x="207.8125" xlink:href="#DejaVuSans-48"/>
      <use x="271.435547" xlink:href="#DejaVuSans-46"/>
      <use x="303.222656" xlink:href="#DejaVuSans-48"/>
      <use x="366.845703" xlink:href="#DejaVuSans-48"/>
      <use x="430.46875" xlink:href="#DejaVuSans-49"/>
     </g>
    </g>
    <g id="line2d_38">
     <path d="M 282.959063 139.944437 
L 302.959063 139.944437 
" style="fill:none;stroke:#ffffff;stroke-linecap:square;stroke-width:1.5;"/>
    </g>
    <g id="line2d_39"/>
    <g id="text_24">
     <!-- H2: 0.029 -->
     <g transform="translate(310.959063 143.444437)scale(0.1 -0.1)">
      <defs>
       <path d="M 10.984375 1.515625 
L 10.984375 10.5 
Q 14.703125 8.734375 18.5 7.8125 
Q 22.3125 6.890625 25.984375 6.890625 
Q 35.75 6.890625 40.890625 13.453125 
Q 46.046875 20.015625 46.78125 33.40625 
Q 43.953125 29.203125 39.59375 26.953125 
Q 35.25 24.703125 29.984375 24.703125 
Q 19.046875 24.703125 12.671875 31.3125 
Q 6.296875 37.9375 6.296875 49.421875 
Q 6.296875 60.640625 12.9375 67.421875 
Q 19.578125 74.21875 30.609375 74.21875 
Q 43.265625 74.21875 49.921875 64.515625 
Q 56.59375 54.828125 56.59375 36.375 
Q 56.59375 19.140625 48.40625 8.859375 
Q 40.234375 -1.421875 26.421875 -1.421875 
Q 22.703125 -1.421875 18.890625 -0.6875 
Q 15.09375 0.046875 10.984375 1.515625 
z
M 30.609375 32.421875 
Q 37.25 32.421875 41.125 36.953125 
Q 45.015625 41.5 45.015625 49.421875 
Q 45.015625 57.28125 41.125 61.84375 
Q 37.25 66.40625 30.609375 66.40625 
Q 23.96875 66.40625 20.09375 61.84375 
Q 16.21875 57.28125 16.21875 49.421875 
Q 16.21875 41.5 20.09375 36.953125 
Q 23.96875 32.421875 30.609375 32.421875 
z
" id="DejaVuSans-57"/>
      </defs>
      <use xlink:href="#DejaVuSans-72"/>
      <use x="75.195312" xlink:href="#DejaVuSans-50"/>
      <use x="138.818359" xlink:href="#DejaVuSans-58"/>
      <use x="172.509766" xlink:href="#DejaVuSans-32"/>
      <use x="204.296875" xlink:href="#DejaVuSans-48"/>
      <use x="267.919922" xlink:href="#DejaVuSans-46"/>
      <use x="299.707031" xlink:href="#DejaVuSans-48"/>
      <use x="363.330078" xlink:href="#DejaVuSans-50"/>
      <use x="426.953125" xlink:href="#DejaVuSans-57"/>
     </g>
    </g>
    <g id="line2d_40">
     <path d="M 282.959063 154.622562 
L 302.959063 154.622562 
" style="fill:none;stroke:#ffffff;stroke-linecap:square;stroke-width:1.5;"/>
    </g>
    <g id="line2d_41"/>
    <g id="text_25">
     <!-- H: 1.65e-09 -->
     <g transform="translate(310.959063 158.122562)scale(0.1 -0.1)">
      <defs>
       <path d="M 4.890625 31.390625 
L 31.203125 31.390625 
L 31.203125 23.390625 
L 4.890625 23.390625 
z
" id="DejaVuSans-45"/>
      </defs>
      <use xlink:href="#DejaVuSans-72"/>
      <use x="75.195312" xlink:href="#DejaVuSans-58"/>
      <use x="108.886719" xlink:href="#DejaVuSans-32"/>
      <use x="140.673828" xlink:href="#DejaVuSans-49"/>
      <use x="204.296875" xlink:href="#DejaVuSans-46"/>
      <use x="236.083984" xlink:href="#DejaVuSans-54"/>
      <use x="299.707031" xlink:href="#DejaVuSans-53"/>
      <use x="363.330078" xlink:href="#DejaVuSans-101"/>
      <use x="424.853516" xlink:href="#DejaVuSans-45"/>
      <use x="460.9375" xlink:href="#DejaVuSans-48"/>
      <use x="524.560547" xlink:href="#DejaVuSans-57"/>
     </g>
    </g>
    <g id="line2d_42">
     <path d="M 282.959063 169.300687 
L 302.959063 169.300687 
" style="fill:none;stroke:#ffffff;stroke-linecap:square;stroke-width:1.5;"/>
    </g>
    <g id="line2d_43"/>
    <g id="text_26">
     <!-- Ar: 0.9699999985 -->
     <g transform="translate(310.959063 172.800687)scale(0.1 -0.1)">
      <defs>
       <path d="M 34.1875 63.1875 
L 20.796875 26.90625 
L 47.609375 26.90625 
z
M 28.609375 72.90625 
L 39.796875 72.90625 
L 67.578125 0 
L 57.328125 0 
L 50.6875 18.703125 
L 17.828125 18.703125 
L 11.1875 0 
L 0.78125 0 
z
" id="DejaVuSans-65"/>
      </defs>
      <use xlink:href="#DejaVuSans-65"/>
      <use x="68.408203" xlink:href="#DejaVuSans-114"/>
      <use x="107.771484" xlink:href="#DejaVuSans-58"/>
      <use x="141.462891" xlink:href="#DejaVuSans-32"/>
      <use x="173.25" xlink:href="#DejaVuSans-48"/>
      <use x="236.873047" xlink:href="#DejaVuSans-46"/>
      <use x="268.660156" xlink:href="#DejaVuSans-57"/>
      <use x="332.283203" xlink:href="#DejaVuSans-54"/>
      <use x="395.90625" xlink:href="#DejaVuSans-57"/>
      <use x="459.529297" xlink:href="#DejaVuSans-57"/>
      <use x="523.152344" xlink:href="#DejaVuSans-57"/>
      <use x="586.775391" xlink:href="#DejaVuSans-57"/>
      <use x="650.398438" xlink:href="#DejaVuSans-57"/>
      <use x="714.021484" xlink:href="#DejaVuSans-57"/>
      <use x="777.644531" xlink:href="#DejaVuSans-56"/>
      <use x="841.267578" xlink:href="#DejaVuSans-53"/>
     </g>
    </g>
   </g>
  </g>
 </g>
 <defs>
  <clipPath id="p62b2668167">
   <rect height="266.112" width="357.12" x="53.328125" y="22.318125"/>
  </clipPath>
 </defs>
</svg>
