<?xml version="1.0" encoding="utf-8" standalone="no"?>
<!DOCTYPE svg PUBLIC "-//W3C//DTD SVG 1.1//EN"
  "http://www.w3.org/Graphics/SVG/1.1/DTD/svg11.dtd">
<!-- Created with matplotlib (https://matplotlib.org/) -->
<svg height="325.986375pt" version="1.1" viewBox="0 0 411.285625 325.986375" width="411.285625pt" xmlns="http://www.w3.org/2000/svg" xmlns:xlink="http://www.w3.org/1999/xlink">
 <metadata>
  <rdf:RDF xmlns:cc="http://creativecommons.org/ns#" xmlns:dc="http://purl.org/dc/elements/1.1/" xmlns:rdf="http://www.w3.org/1999/02/22-rdf-syntax-ns#">
   <cc:Work>
    <dc:type rdf:resource="http://purl.org/dc/dcmitype/StillImage"/>
    <dc:date>2023-08-04T12:52:06.565811</dc:date>
    <dc:format>image/svg+xml</dc:format>
    <dc:creator>
     <cc:Agent>
      <dc:title>Matplotlib v3.3.1, https://matplotlib.org/</dc:title>
     </cc:Agent>
    </dc:creator>
   </cc:Work>
  </rdf:RDF>
 </metadata>
 <defs>
  <style type="text/css">*{stroke-linecap:butt;stroke-linejoin:round;}</style>
 </defs>
 <g id="figure_1">
  <g id="patch_1">
   <path d="M 0 325.986375 
L 411.285625 325.986375 
L 411.285625 0 
L 0 0 
z
" style="fill:none;"/>
  </g>
  <g id="axes_1">
   <g id="patch_2">
    <path d="M 46.965625 288.430125 
L 404.085625 288.430125 
L 404.085625 22.318125 
L 46.965625 22.318125 
z
" style="fill:none;"/>
   </g>
   <g id="matplotlib.axis_1">
    <g id="xtick_1">
     <g id="line2d_1">
      <defs>
       <path d="M 0 0 
L 0 3.5 
" id="m5bbe2b1396" style="stroke:#000000;stroke-width:0.8;"/>
      </defs>
      <g>
       <use style="stroke:#000000;stroke-width:0.8;" x="63.198352" xlink:href="#m5bbe2b1396" y="288.430125"/>
      </g>
     </g>
     <g id="text_1">
      <!-- 0.000 -->
      <g transform="translate(48.88429 303.028562)scale(0.1 -0.1)">
       <defs>
        <path d="M 31.78125 66.40625 
Q 24.171875 66.40625 20.328125 58.90625 
Q 16.5 51.421875 16.5 36.375 
Q 16.5 21.390625 20.328125 13.890625 
Q 24.171875 6.390625 31.78125 6.390625 
Q 39.453125 6.390625 43.28125 13.890625 
Q 47.125 21.390625 47.125 36.375 
Q 47.125 51.421875 43.28125 58.90625 
Q 39.453125 66.40625 31.78125 66.40625 
z
M 31.78125 74.21875 
Q 44.046875 74.21875 50.515625 64.515625 
Q 56.984375 54.828125 56.984375 36.375 
Q 56.984375 17.96875 50.515625 8.265625 
Q 44.046875 -1.421875 31.78125 -1.421875 
Q 19.53125 -1.421875 13.0625 8.265625 
Q 6.59375 17.96875 6.59375 36.375 
Q 6.59375 54.828125 13.0625 64.515625 
Q 19.53125 74.21875 31.78125 74.21875 
z
" id="DejaVuSans-48"/>
        <path d="M 10.6875 12.40625 
L 21 12.40625 
L 21 0 
L 10.6875 0 
z
" id="DejaVuSans-46"/>
       </defs>
       <use xlink:href="#DejaVuSans-48"/>
       <use x="63.623047" xlink:href="#DejaVuSans-46"/>
       <use x="95.410156" xlink:href="#DejaVuSans-48"/>
       <use x="159.033203" xlink:href="#DejaVuSans-48"/>
       <use x="222.65625" xlink:href="#DejaVuSans-48"/>
      </g>
     </g>
    </g>
    <g id="xtick_2">
     <g id="line2d_2">
      <g>
       <use style="stroke:#000000;stroke-width:0.8;" x="103.621406" xlink:href="#m5bbe2b1396" y="288.430125"/>
      </g>
     </g>
     <g id="text_2">
      <!-- 0.025 -->
      <g transform="translate(89.307343 303.028562)scale(0.1 -0.1)">
       <defs>
        <path d="M 19.1875 8.296875 
L 53.609375 8.296875 
L 53.609375 0 
L 7.328125 0 
L 7.328125 8.296875 
Q 12.9375 14.109375 22.625 23.890625 
Q 32.328125 33.6875 34.8125 36.53125 
Q 39.546875 41.84375 41.421875 45.53125 
Q 43.3125 49.21875 43.3125 52.78125 
Q 43.3125 58.59375 39.234375 62.25 
Q 35.15625 65.921875 28.609375 65.921875 
Q 23.96875 65.921875 18.8125 64.3125 
Q 13.671875 62.703125 7.8125 59.421875 
L 7.8125 69.390625 
Q 13.765625 71.78125 18.9375 73 
Q 24.125 74.21875 28.421875 74.21875 
Q 39.75 74.21875 46.484375 68.546875 
Q 53.21875 62.890625 53.21875 53.421875 
Q 53.21875 48.921875 51.53125 44.890625 
Q 49.859375 40.875 45.40625 35.40625 
Q 44.1875 33.984375 37.640625 27.21875 
Q 31.109375 20.453125 19.1875 8.296875 
z
" id="DejaVuSans-50"/>
        <path d="M 10.796875 72.90625 
L 49.515625 72.90625 
L 49.515625 64.59375 
L 19.828125 64.59375 
L 19.828125 46.734375 
Q 21.96875 47.46875 24.109375 47.828125 
Q 26.265625 48.1875 28.421875 48.1875 
Q 40.625 48.1875 47.75 41.5 
Q 54.890625 34.8125 54.890625 23.390625 
Q 54.890625 11.625 47.5625 5.09375 
Q 40.234375 -1.421875 26.90625 -1.421875 
Q 22.3125 -1.421875 17.546875 -0.640625 
Q 12.796875 0.140625 7.71875 1.703125 
L 7.71875 11.625 
Q 12.109375 9.234375 16.796875 8.0625 
Q 21.484375 6.890625 26.703125 6.890625 
Q 35.15625 6.890625 40.078125 11.328125 
Q 45.015625 15.765625 45.015625 23.390625 
Q 45.015625 31 40.078125 35.4375 
Q 35.15625 39.890625 26.703125 39.890625 
Q 22.75 39.890625 18.8125 39.015625 
Q 14.890625 38.140625 10.796875 36.28125 
z
" id="DejaVuSans-53"/>
       </defs>
       <use xlink:href="#DejaVuSans-48"/>
       <use x="63.623047" xlink:href="#DejaVuSans-46"/>
       <use x="95.410156" xlink:href="#DejaVuSans-48"/>
       <use x="159.033203" xlink:href="#DejaVuSans-50"/>
       <use x="222.65625" xlink:href="#DejaVuSans-53"/>
      </g>
     </g>
    </g>
    <g id="xtick_3">
     <g id="line2d_3">
      <g>
       <use style="stroke:#000000;stroke-width:0.8;" x="144.044459" xlink:href="#m5bbe2b1396" y="288.430125"/>
      </g>
     </g>
     <g id="text_3">
      <!-- 0.050 -->
      <g transform="translate(129.730396 303.028562)scale(0.1 -0.1)">
       <use xlink:href="#DejaVuSans-48"/>
       <use x="63.623047" xlink:href="#DejaVuSans-46"/>
       <use x="95.410156" xlink:href="#DejaVuSans-48"/>
       <use x="159.033203" xlink:href="#DejaVuSans-53"/>
       <use x="222.65625" xlink:href="#DejaVuSans-48"/>
      </g>
     </g>
    </g>
    <g id="xtick_4">
     <g id="line2d_4">
      <g>
       <use style="stroke:#000000;stroke-width:0.8;" x="184.467512" xlink:href="#m5bbe2b1396" y="288.430125"/>
      </g>
     </g>
     <g id="text_4">
      <!-- 0.075 -->
      <g transform="translate(170.15345 303.028562)scale(0.1 -0.1)">
       <defs>
        <path d="M 8.203125 72.90625 
L 55.078125 72.90625 
L 55.078125 68.703125 
L 28.609375 0 
L 18.3125 0 
L 43.21875 64.59375 
L 8.203125 64.59375 
z
" id="DejaVuSans-55"/>
       </defs>
       <use xlink:href="#DejaVuSans-48"/>
       <use x="63.623047" xlink:href="#DejaVuSans-46"/>
       <use x="95.410156" xlink:href="#DejaVuSans-48"/>
       <use x="159.033203" xlink:href="#DejaVuSans-55"/>
       <use x="222.65625" xlink:href="#DejaVuSans-53"/>
      </g>
     </g>
    </g>
    <g id="xtick_5">
     <g id="line2d_5">
      <g>
       <use style="stroke:#000000;stroke-width:0.8;" x="224.890565" xlink:href="#m5bbe2b1396" y="288.430125"/>
      </g>
     </g>
     <g id="text_5">
      <!-- 0.100 -->
      <g transform="translate(210.576503 303.028562)scale(0.1 -0.1)">
       <defs>
        <path d="M 12.40625 8.296875 
L 28.515625 8.296875 
L 28.515625 63.921875 
L 10.984375 60.40625 
L 10.984375 69.390625 
L 28.421875 72.90625 
L 38.28125 72.90625 
L 38.28125 8.296875 
L 54.390625 8.296875 
L 54.390625 0 
L 12.40625 0 
z
" id="DejaVuSans-49"/>
       </defs>
       <use xlink:href="#DejaVuSans-48"/>
       <use x="63.623047" xlink:href="#DejaVuSans-46"/>
       <use x="95.410156" xlink:href="#DejaVuSans-49"/>
       <use x="159.033203" xlink:href="#DejaVuSans-48"/>
       <use x="222.65625" xlink:href="#DejaVuSans-48"/>
      </g>
     </g>
    </g>
    <g id="xtick_6">
     <g id="line2d_6">
      <g>
       <use style="stroke:#000000;stroke-width:0.8;" x="265.313619" xlink:href="#m5bbe2b1396" y="288.430125"/>
      </g>
     </g>
     <g id="text_6">
      <!-- 0.125 -->
      <g transform="translate(250.999556 303.028562)scale(0.1 -0.1)">
       <use xlink:href="#DejaVuSans-48"/>
       <use x="63.623047" xlink:href="#DejaVuSans-46"/>
       <use x="95.410156" xlink:href="#DejaVuSans-49"/>
       <use x="159.033203" xlink:href="#DejaVuSans-50"/>
       <use x="222.65625" xlink:href="#DejaVuSans-53"/>
      </g>
     </g>
    </g>
    <g id="xtick_7">
     <g id="line2d_7">
      <g>
       <use style="stroke:#000000;stroke-width:0.8;" x="305.736672" xlink:href="#m5bbe2b1396" y="288.430125"/>
      </g>
     </g>
     <g id="text_7">
      <!-- 0.150 -->
      <g transform="translate(291.42261 303.028562)scale(0.1 -0.1)">
       <use xlink:href="#DejaVuSans-48"/>
       <use x="63.623047" xlink:href="#DejaVuSans-46"/>
       <use x="95.410156" xlink:href="#DejaVuSans-49"/>
       <use x="159.033203" xlink:href="#DejaVuSans-53"/>
       <use x="222.65625" xlink:href="#DejaVuSans-48"/>
      </g>
     </g>
    </g>
    <g id="xtick_8">
     <g id="line2d_8">
      <g>
       <use style="stroke:#000000;stroke-width:0.8;" x="346.159725" xlink:href="#m5bbe2b1396" y="288.430125"/>
      </g>
     </g>
     <g id="text_8">
      <!-- 0.175 -->
      <g transform="translate(331.845663 303.028562)scale(0.1 -0.1)">
       <use xlink:href="#DejaVuSans-48"/>
       <use x="63.623047" xlink:href="#DejaVuSans-46"/>
       <use x="95.410156" xlink:href="#DejaVuSans-49"/>
       <use x="159.033203" xlink:href="#DejaVuSans-55"/>
       <use x="222.65625" xlink:href="#DejaVuSans-53"/>
      </g>
     </g>
    </g>
    <g id="xtick_9">
     <g id="line2d_9">
      <g>
       <use style="stroke:#000000;stroke-width:0.8;" x="386.582779" xlink:href="#m5bbe2b1396" y="288.430125"/>
      </g>
     </g>
     <g id="text_9">
      <!-- 0.200 -->
      <g transform="translate(372.268716 303.028562)scale(0.1 -0.1)">
       <use xlink:href="#DejaVuSans-48"/>
       <use x="63.623047" xlink:href="#DejaVuSans-46"/>
       <use x="95.410156" xlink:href="#DejaVuSans-50"/>
       <use x="159.033203" xlink:href="#DejaVuSans-48"/>
       <use x="222.65625" xlink:href="#DejaVuSans-48"/>
      </g>
     </g>
    </g>
    <g id="text_10">
     <!-- Time (ms) -->
     <g transform="translate(200.326406 316.706687)scale(0.1 -0.1)">
      <defs>
       <path d="M -0.296875 72.90625 
L 61.375 72.90625 
L 61.375 64.59375 
L 35.5 64.59375 
L 35.5 0 
L 25.59375 0 
L 25.59375 64.59375 
L -0.296875 64.59375 
z
" id="DejaVuSans-84"/>
       <path d="M 9.421875 54.6875 
L 18.40625 54.6875 
L 18.40625 0 
L 9.421875 0 
z
M 9.421875 75.984375 
L 18.40625 75.984375 
L 18.40625 64.59375 
L 9.421875 64.59375 
z
" id="DejaVuSans-105"/>
       <path d="M 52 44.1875 
Q 55.375 50.25 60.0625 53.125 
Q 64.75 56 71.09375 56 
Q 79.640625 56 84.28125 50.015625 
Q 88.921875 44.046875 88.921875 33.015625 
L 88.921875 0 
L 79.890625 0 
L 79.890625 32.71875 
Q 79.890625 40.578125 77.09375 44.375 
Q 74.3125 48.1875 68.609375 48.1875 
Q 61.625 48.1875 57.5625 43.546875 
Q 53.515625 38.921875 53.515625 30.90625 
L 53.515625 0 
L 44.484375 0 
L 44.484375 32.71875 
Q 44.484375 40.625 41.703125 44.40625 
Q 38.921875 48.1875 33.109375 48.1875 
Q 26.21875 48.1875 22.15625 43.53125 
Q 18.109375 38.875 18.109375 30.90625 
L 18.109375 0 
L 9.078125 0 
L 9.078125 54.6875 
L 18.109375 54.6875 
L 18.109375 46.1875 
Q 21.1875 51.21875 25.484375 53.609375 
Q 29.78125 56 35.6875 56 
Q 41.65625 56 45.828125 52.96875 
Q 50 49.953125 52 44.1875 
z
" id="DejaVuSans-109"/>
       <path d="M 56.203125 29.59375 
L 56.203125 25.203125 
L 14.890625 25.203125 
Q 15.484375 15.921875 20.484375 11.0625 
Q 25.484375 6.203125 34.421875 6.203125 
Q 39.59375 6.203125 44.453125 7.46875 
Q 49.3125 8.734375 54.109375 11.28125 
L 54.109375 2.78125 
Q 49.265625 0.734375 44.1875 -0.34375 
Q 39.109375 -1.421875 33.890625 -1.421875 
Q 20.796875 -1.421875 13.15625 6.1875 
Q 5.515625 13.8125 5.515625 26.8125 
Q 5.515625 40.234375 12.765625 48.109375 
Q 20.015625 56 32.328125 56 
Q 43.359375 56 49.78125 48.890625 
Q 56.203125 41.796875 56.203125 29.59375 
z
M 47.21875 32.234375 
Q 47.125 39.59375 43.09375 43.984375 
Q 39.0625 48.390625 32.421875 48.390625 
Q 24.90625 48.390625 20.390625 44.140625 
Q 15.875 39.890625 15.1875 32.171875 
z
" id="DejaVuSans-101"/>
       <path id="DejaVuSans-32"/>
       <path d="M 31 75.875 
Q 24.46875 64.65625 21.28125 53.65625 
Q 18.109375 42.671875 18.109375 31.390625 
Q 18.109375 20.125 21.3125 9.0625 
Q 24.515625 -2 31 -13.1875 
L 23.1875 -13.1875 
Q 15.875 -1.703125 12.234375 9.375 
Q 8.59375 20.453125 8.59375 31.390625 
Q 8.59375 42.28125 12.203125 53.3125 
Q 15.828125 64.359375 23.1875 75.875 
z
" id="DejaVuSans-40"/>
       <path d="M 44.28125 53.078125 
L 44.28125 44.578125 
Q 40.484375 46.53125 36.375 47.5 
Q 32.28125 48.484375 27.875 48.484375 
Q 21.1875 48.484375 17.84375 46.4375 
Q 14.5 44.390625 14.5 40.28125 
Q 14.5 37.15625 16.890625 35.375 
Q 19.28125 33.59375 26.515625 31.984375 
L 29.59375 31.296875 
Q 39.15625 29.25 43.1875 25.515625 
Q 47.21875 21.78125 47.21875 15.09375 
Q 47.21875 7.46875 41.1875 3.015625 
Q 35.15625 -1.421875 24.609375 -1.421875 
Q 20.21875 -1.421875 15.453125 -0.5625 
Q 10.6875 0.296875 5.421875 2 
L 5.421875 11.28125 
Q 10.40625 8.6875 15.234375 7.390625 
Q 20.0625 6.109375 24.8125 6.109375 
Q 31.15625 6.109375 34.5625 8.28125 
Q 37.984375 10.453125 37.984375 14.40625 
Q 37.984375 18.0625 35.515625 20.015625 
Q 33.0625 21.96875 24.703125 23.78125 
L 21.578125 24.515625 
Q 13.234375 26.265625 9.515625 29.90625 
Q 5.8125 33.546875 5.8125 39.890625 
Q 5.8125 47.609375 11.28125 51.796875 
Q 16.75 56 26.8125 56 
Q 31.78125 56 36.171875 55.265625 
Q 40.578125 54.546875 44.28125 53.078125 
z
" id="DejaVuSans-115"/>
       <path d="M 8.015625 75.875 
L 15.828125 75.875 
Q 23.140625 64.359375 26.78125 53.3125 
Q 30.421875 42.28125 30.421875 31.390625 
Q 30.421875 20.453125 26.78125 9.375 
Q 23.140625 -1.703125 15.828125 -13.1875 
L 8.015625 -13.1875 
Q 14.5 -2 17.703125 9.0625 
Q 20.90625 20.125 20.90625 31.390625 
Q 20.90625 42.671875 17.703125 53.65625 
Q 14.5 64.65625 8.015625 75.875 
z
" id="DejaVuSans-41"/>
      </defs>
      <use xlink:href="#DejaVuSans-84"/>
      <use x="57.958984" xlink:href="#DejaVuSans-105"/>
      <use x="85.742188" xlink:href="#DejaVuSans-109"/>
      <use x="183.154297" xlink:href="#DejaVuSans-101"/>
      <use x="244.677734" xlink:href="#DejaVuSans-32"/>
      <use x="276.464844" xlink:href="#DejaVuSans-40"/>
      <use x="315.478516" xlink:href="#DejaVuSans-109"/>
      <use x="412.890625" xlink:href="#DejaVuSans-115"/>
      <use x="464.990234" xlink:href="#DejaVuSans-41"/>
     </g>
    </g>
   </g>
   <g id="matplotlib.axis_2">
    <g id="ytick_1">
     <g id="line2d_10">
      <defs>
       <path d="M 0 0 
L -3.5 0 
" id="mb87924c7d6" style="stroke:#000000;stroke-width:0.8;"/>
      </defs>
      <g>
       <use style="stroke:#000000;stroke-width:0.8;" x="46.965625" xlink:href="#mb87924c7d6" y="276.334125"/>
      </g>
     </g>
     <g id="text_11">
      <!-- 0 -->
      <g transform="translate(33.603125 280.133344)scale(0.1 -0.1)">
       <use xlink:href="#DejaVuSans-48"/>
      </g>
     </g>
    </g>
    <g id="ytick_2">
     <g id="line2d_11">
      <g>
       <use style="stroke:#000000;stroke-width:0.8;" x="46.965625" xlink:href="#mb87924c7d6" y="237.607051"/>
      </g>
     </g>
     <g id="text_12">
      <!-- 100 -->
      <g transform="translate(20.878125 241.40627)scale(0.1 -0.1)">
       <use xlink:href="#DejaVuSans-49"/>
       <use x="63.623047" xlink:href="#DejaVuSans-48"/>
       <use x="127.246094" xlink:href="#DejaVuSans-48"/>
      </g>
     </g>
    </g>
    <g id="ytick_3">
     <g id="line2d_12">
      <g>
       <use style="stroke:#000000;stroke-width:0.8;" x="46.965625" xlink:href="#mb87924c7d6" y="198.879978"/>
      </g>
     </g>
     <g id="text_13">
      <!-- 200 -->
      <g transform="translate(20.878125 202.679196)scale(0.1 -0.1)">
       <use xlink:href="#DejaVuSans-50"/>
       <use x="63.623047" xlink:href="#DejaVuSans-48"/>
       <use x="127.246094" xlink:href="#DejaVuSans-48"/>
      </g>
     </g>
    </g>
    <g id="ytick_4">
     <g id="line2d_13">
      <g>
       <use style="stroke:#000000;stroke-width:0.8;" x="46.965625" xlink:href="#mb87924c7d6" y="160.152904"/>
      </g>
     </g>
     <g id="text_14">
      <!-- 300 -->
      <g transform="translate(20.878125 163.952123)scale(0.1 -0.1)">
       <defs>
        <path d="M 40.578125 39.3125 
Q 47.65625 37.796875 51.625 33 
Q 55.609375 28.21875 55.609375 21.1875 
Q 55.609375 10.40625 48.1875 4.484375 
Q 40.765625 -1.421875 27.09375 -1.421875 
Q 22.515625 -1.421875 17.65625 -0.515625 
Q 12.796875 0.390625 7.625 2.203125 
L 7.625 11.71875 
Q 11.71875 9.328125 16.59375 8.109375 
Q 21.484375 6.890625 26.8125 6.890625 
Q 36.078125 6.890625 40.9375 10.546875 
Q 45.796875 14.203125 45.796875 21.1875 
Q 45.796875 27.640625 41.28125 31.265625 
Q 36.765625 34.90625 28.71875 34.90625 
L 20.21875 34.90625 
L 20.21875 43.015625 
L 29.109375 43.015625 
Q 36.375 43.015625 40.234375 45.921875 
Q 44.09375 48.828125 44.09375 54.296875 
Q 44.09375 59.90625 40.109375 62.90625 
Q 36.140625 65.921875 28.71875 65.921875 
Q 24.65625 65.921875 20.015625 65.03125 
Q 15.375 64.15625 9.8125 62.3125 
L 9.8125 71.09375 
Q 15.4375 72.65625 20.34375 73.4375 
Q 25.25 74.21875 29.59375 74.21875 
Q 40.828125 74.21875 47.359375 69.109375 
Q 53.90625 64.015625 53.90625 55.328125 
Q 53.90625 49.265625 50.4375 45.09375 
Q 46.96875 40.921875 40.578125 39.3125 
z
" id="DejaVuSans-51"/>
       </defs>
       <use xlink:href="#DejaVuSans-51"/>
       <use x="63.623047" xlink:href="#DejaVuSans-48"/>
       <use x="127.246094" xlink:href="#DejaVuSans-48"/>
      </g>
     </g>
    </g>
    <g id="ytick_5">
     <g id="line2d_14">
      <g>
       <use style="stroke:#000000;stroke-width:0.8;" x="46.965625" xlink:href="#mb87924c7d6" y="121.42583"/>
      </g>
     </g>
     <g id="text_15">
      <!-- 400 -->
      <g transform="translate(20.878125 125.225049)scale(0.1 -0.1)">
       <defs>
        <path d="M 37.796875 64.3125 
L 12.890625 25.390625 
L 37.796875 25.390625 
z
M 35.203125 72.90625 
L 47.609375 72.90625 
L 47.609375 25.390625 
L 58.015625 25.390625 
L 58.015625 17.1875 
L 47.609375 17.1875 
L 47.609375 0 
L 37.796875 0 
L 37.796875 17.1875 
L 4.890625 17.1875 
L 4.890625 26.703125 
z
" id="DejaVuSans-52"/>
       </defs>
       <use xlink:href="#DejaVuSans-52"/>
       <use x="63.623047" xlink:href="#DejaVuSans-48"/>
       <use x="127.246094" xlink:href="#DejaVuSans-48"/>
      </g>
     </g>
    </g>
    <g id="ytick_6">
     <g id="line2d_15">
      <g>
       <use style="stroke:#000000;stroke-width:0.8;" x="46.965625" xlink:href="#mb87924c7d6" y="82.698756"/>
      </g>
     </g>
     <g id="text_16">
      <!-- 500 -->
      <g transform="translate(20.878125 86.497975)scale(0.1 -0.1)">
       <use xlink:href="#DejaVuSans-53"/>
       <use x="63.623047" xlink:href="#DejaVuSans-48"/>
       <use x="127.246094" xlink:href="#DejaVuSans-48"/>
      </g>
     </g>
    </g>
    <g id="ytick_7">
     <g id="line2d_16">
      <g>
       <use style="stroke:#000000;stroke-width:0.8;" x="46.965625" xlink:href="#mb87924c7d6" y="43.971683"/>
      </g>
     </g>
     <g id="text_17">
      <!-- 600 -->
      <g transform="translate(20.878125 47.770901)scale(0.1 -0.1)">
       <defs>
        <path d="M 33.015625 40.375 
Q 26.375 40.375 22.484375 35.828125 
Q 18.609375 31.296875 18.609375 23.390625 
Q 18.609375 15.53125 22.484375 10.953125 
Q 26.375 6.390625 33.015625 6.390625 
Q 39.65625 6.390625 43.53125 10.953125 
Q 47.40625 15.53125 47.40625 23.390625 
Q 47.40625 31.296875 43.53125 35.828125 
Q 39.65625 40.375 33.015625 40.375 
z
M 52.59375 71.296875 
L 52.59375 62.3125 
Q 48.875 64.0625 45.09375 64.984375 
Q 41.3125 65.921875 37.59375 65.921875 
Q 27.828125 65.921875 22.671875 59.328125 
Q 17.53125 52.734375 16.796875 39.40625 
Q 19.671875 43.65625 24.015625 45.921875 
Q 28.375 48.1875 33.59375 48.1875 
Q 44.578125 48.1875 50.953125 41.515625 
Q 57.328125 34.859375 57.328125 23.390625 
Q 57.328125 12.15625 50.6875 5.359375 
Q 44.046875 -1.421875 33.015625 -1.421875 
Q 20.359375 -1.421875 13.671875 8.265625 
Q 6.984375 17.96875 6.984375 36.375 
Q 6.984375 53.65625 15.1875 63.9375 
Q 23.390625 74.21875 37.203125 74.21875 
Q 40.921875 74.21875 44.703125 73.484375 
Q 48.484375 72.75 52.59375 71.296875 
z
" id="DejaVuSans-54"/>
       </defs>
       <use xlink:href="#DejaVuSans-54"/>
       <use x="63.623047" xlink:href="#DejaVuSans-48"/>
       <use x="127.246094" xlink:href="#DejaVuSans-48"/>
      </g>
     </g>
    </g>
    <g id="text_18">
     <!-- OH ppm -->
     <g transform="translate(14.798438 175.878031)rotate(-90)scale(0.1 -0.1)">
      <defs>
       <path d="M 39.40625 66.21875 
Q 28.65625 66.21875 22.328125 58.203125 
Q 16.015625 50.203125 16.015625 36.375 
Q 16.015625 22.609375 22.328125 14.59375 
Q 28.65625 6.59375 39.40625 6.59375 
Q 50.140625 6.59375 56.421875 14.59375 
Q 62.703125 22.609375 62.703125 36.375 
Q 62.703125 50.203125 56.421875 58.203125 
Q 50.140625 66.21875 39.40625 66.21875 
z
M 39.40625 74.21875 
Q 54.734375 74.21875 63.90625 63.9375 
Q 73.09375 53.65625 73.09375 36.375 
Q 73.09375 19.140625 63.90625 8.859375 
Q 54.734375 -1.421875 39.40625 -1.421875 
Q 24.03125 -1.421875 14.8125 8.828125 
Q 5.609375 19.09375 5.609375 36.375 
Q 5.609375 53.65625 14.8125 63.9375 
Q 24.03125 74.21875 39.40625 74.21875 
z
" id="DejaVuSans-79"/>
       <path d="M 9.8125 72.90625 
L 19.671875 72.90625 
L 19.671875 43.015625 
L 55.515625 43.015625 
L 55.515625 72.90625 
L 65.375 72.90625 
L 65.375 0 
L 55.515625 0 
L 55.515625 34.71875 
L 19.671875 34.71875 
L 19.671875 0 
L 9.8125 0 
z
" id="DejaVuSans-72"/>
       <path d="M 18.109375 8.203125 
L 18.109375 -20.796875 
L 9.078125 -20.796875 
L 9.078125 54.6875 
L 18.109375 54.6875 
L 18.109375 46.390625 
Q 20.953125 51.265625 25.265625 53.625 
Q 29.59375 56 35.59375 56 
Q 45.5625 56 51.78125 48.09375 
Q 58.015625 40.1875 58.015625 27.296875 
Q 58.015625 14.40625 51.78125 6.484375 
Q 45.5625 -1.421875 35.59375 -1.421875 
Q 29.59375 -1.421875 25.265625 0.953125 
Q 20.953125 3.328125 18.109375 8.203125 
z
M 48.6875 27.296875 
Q 48.6875 37.203125 44.609375 42.84375 
Q 40.53125 48.484375 33.40625 48.484375 
Q 26.265625 48.484375 22.1875 42.84375 
Q 18.109375 37.203125 18.109375 27.296875 
Q 18.109375 17.390625 22.1875 11.75 
Q 26.265625 6.109375 33.40625 6.109375 
Q 40.53125 6.109375 44.609375 11.75 
Q 48.6875 17.390625 48.6875 27.296875 
z
" id="DejaVuSans-112"/>
      </defs>
      <use xlink:href="#DejaVuSans-79"/>
      <use x="78.710938" xlink:href="#DejaVuSans-72"/>
      <use x="153.90625" xlink:href="#DejaVuSans-32"/>
      <use x="185.693359" xlink:href="#DejaVuSans-112"/>
      <use x="249.169922" xlink:href="#DejaVuSans-112"/>
      <use x="312.646484" xlink:href="#DejaVuSans-109"/>
     </g>
    </g>
   </g>
   <g id="line2d_17">
    <path clip-path="url(#p8307d1c71b)" d="M 63.198352 276.334125 
L 64.193952 230.370234 
L 65.148538 195.597587 
L 66.103124 168.638219 
L 66.978161 149.775664 
L 67.774018 136.716921 
L 68.609712 126.498727 
L 69.326021 120.091337 
L 70.04233 115.455355 
L 70.639254 112.705156 
L 71.358586 110.484041 
L 71.898084 109.460767 
L 72.437582 108.887543 
L 72.977081 108.68718 
L 73.516579 108.793607 
L 74.056077 109.150622 
L 74.775408 109.935357 
L 75.674572 111.286166 
L 76.933402 113.629684 
L 79.027181 118.094748 
L 83.700305 128.175038 
L 86.449201 133.518367 
L 89.214309 138.372894 
L 92.119563 142.969432 
L 95.024817 147.130156 
L 98.139929 151.193622 
L 101.264398 154.931286 
L 105.013761 159.053751 
L 108.763123 162.853301 
L 112.924289 166.760633 
L 116.964804 170.294735 
L 121.574588 174.063317 
L 126.95267 178.159473 
L 132.330751 181.980829 
L 138.47713 186.062059 
L 144.623509 189.88159 
L 151.538185 193.908883 
L 158.452862 197.685951 
L 166.135836 201.620853 
L 173.818809 205.303027 
L 181.501783 208.747285 
L 188.810747 211.811328 
L 196.892064 214.964398 
L 204.97338 217.877105 
L 213.054697 220.556773 
L 221.136014 223.012597 
L 229.217331 225.25582 
L 238.453121 227.575883 
L 247.688912 229.656466 
L 256.924703 231.519636 
L 267.314967 233.383059 
L 277.705232 235.028711 
L 289.872902 236.715613 
L 302.040572 238.180274 
L 315.94648 239.624984 
L 331.590628 241.007919 
L 348.263553 242.251668 
L 366.738581 243.407325 
L 387.852898 244.501801 
L 387.852898 244.501801 
" style="fill:none;stroke:#0000ff;stroke-linecap:square;stroke-width:1.5;"/>
   </g>
   <g id="line2d_18">
    <path clip-path="url(#p8307d1c71b)" d="M 63.198352 276.334125 
L 64.413282 222.012632 
L 65.6343 176.636799 
L 66.855318 139.621635 
L 67.954235 112.72013 
L 69.053151 91.183436 
L 70.029965 75.970669 
L 71.00678 63.941643 
L 71.865083 55.623888 
L 72.785336 48.690476 
L 73.705588 43.485495 
L 74.62584 39.714548 
L 75.362042 37.557671 
L 76.098244 36.041555 
L 76.834446 35.067425 
L 77.386597 34.640503 
L 77.938749 34.438259 
L 78.4909 34.432353 
L 79.046228 34.598943 
L 79.879221 35.124149 
L 80.712214 35.921699 
L 81.822871 37.314806 
L 83.211192 39.442694 
L 85.29521 43.14081 
L 89.046441 50.428881 
L 94.464886 60.892495 
L 98.216117 67.668466 
L 102.177573 74.344418 
L 105.930993 80.24972 
L 110.309982 86.693153 
L 114.688971 92.734881 
L 119.87538 99.47004 
L 125.347882 106.184497 
L 131.279214 113.10884 
L 137.951962 120.560666 
L 145.366127 128.512992 
L 153.521708 136.929337 
L 161.677289 145.018213 
L 169.091453 152.070037 
L 176.505618 158.801197 
L 183.178366 164.555454 
L 189.851114 169.998719 
L 195.782446 174.563643 
L 201.968558 179.044461 
L 207.353662 182.712099 
L 213.165811 186.431169 
L 218.97796 189.908934 
L 224.790109 193.155281 
L 230.602258 196.181819 
L 236.414407 199.001188 
L 243.679593 202.254039 
L 250.94478 205.22925 
L 258.209966 207.951591 
L 265.475152 210.444446 
L 272.740339 212.729511 
L 281.458562 215.225167 
L 290.176786 217.481033 
L 298.895009 219.524422 
L 307.613233 221.379344 
L 318.628635 223.485991 
L 329.644038 225.361724 
L 342.862521 227.350956 
L 356.081003 229.096423 
L 370.429682 230.757602 
L 387.096062 232.430739 
L 387.096062 232.430739 
" style="fill:none;stroke:#ff0000;stroke-linecap:square;stroke-width:1.5;"/>
   </g>
   <g id="line2d_19">
    <defs>
     <path d="M 0 3 
C 0.795609 3 1.55874 2.683901 2.12132 2.12132 
C 2.683901 1.55874 3 0.795609 3 0 
C 3 -0.795609 2.683901 -1.55874 2.12132 -2.12132 
C 1.55874 -2.683901 0.795609 -3 0 -3 
C -0.795609 -3 -1.55874 -2.683901 -2.12132 -2.12132 
C -2.683901 -1.55874 -3 -0.795609 -3 0 
C -3 0.795609 -2.683901 1.55874 -2.12132 2.12132 
C -1.55874 2.683901 -0.795609 3 0 3 
z
" id="mab0da4f409" style="stroke:#000000;"/>
    </defs>
    <g clip-path="url(#p8307d1c71b)">
     <use style="stroke:#000000;" x="64.49189" xlink:href="#mab0da4f409" y="185.093139"/>
     <use style="stroke:#000000;" x="66.108812" xlink:href="#mab0da4f409" y="150.815806"/>
     <use style="stroke:#000000;" x="67.725734" xlink:href="#mab0da4f409" y="122.328171"/>
     <use style="stroke:#000000;" x="69.342656" xlink:href="#mab0da4f409" y="103.638485"/>
     <use style="stroke:#000000;" x="70.959579" xlink:href="#mab0da4f409" y="100.575174"/>
     <use style="stroke:#000000;" x="72.576501" xlink:href="#mab0da4f409" y="99.746414"/>
     <use style="stroke:#000000;" x="74.193423" xlink:href="#mab0da4f409" y="101.086371"/>
     <use style="stroke:#000000;" x="75.810345" xlink:href="#mab0da4f409" y="104.130319"/>
     <use style="stroke:#000000;" x="77.427267" xlink:href="#mab0da4f409" y="107.42212"/>
     <use style="stroke:#000000;" x="79.044189" xlink:href="#mab0da4f409" y="111.3413"/>
     <use style="stroke:#000000;" x="80.661111" xlink:href="#mab0da4f409" y="114.849973"/>
     <use style="stroke:#000000;" x="82.278033" xlink:href="#mab0da4f409" y="118.53679"/>
     <use style="stroke:#000000;" x="83.894956" xlink:href="#mab0da4f409" y="121.480048"/>
     <use style="stroke:#000000;" x="85.511878" xlink:href="#mab0da4f409" y="124.299379"/>
     <use style="stroke:#000000;" x="87.1288" xlink:href="#mab0da4f409" y="127.467254"/>
     <use style="stroke:#000000;" x="88.745722" xlink:href="#mab0da4f409" y="130.25173"/>
     <use style="stroke:#000000;" x="90.362644" xlink:href="#mab0da4f409" y="132.823208"/>
     <use style="stroke:#000000;" x="91.979566" xlink:href="#mab0da4f409" y="135.181687"/>
     <use style="stroke:#000000;" x="93.596488" xlink:href="#mab0da4f409" y="137.590511"/>
     <use style="stroke:#000000;" x="95.21341" xlink:href="#mab0da4f409" y="139.503628"/>
     <use style="stroke:#000000;" x="96.830333" xlink:href="#mab0da4f409" y="141.773035"/>
     <use style="stroke:#000000;" x="98.447255" xlink:href="#mab0da4f409" y="143.527371"/>
     <use style="stroke:#000000;" x="100.064177" xlink:href="#mab0da4f409" y="145.320435"/>
     <use style="stroke:#000000;" x="101.681099" xlink:href="#mab0da4f409" y="146.954717"/>
     <use style="stroke:#000000;" x="103.298021" xlink:href="#mab0da4f409" y="148.747781"/>
     <use style="stroke:#000000;" x="104.914943" xlink:href="#mab0da4f409" y="150.296864"/>
     <use style="stroke:#000000;" x="106.531865" xlink:href="#mab0da4f409" y="151.72202"/>
     <use style="stroke:#000000;" x="108.148788" xlink:href="#mab0da4f409" y="153.135558"/>
     <use style="stroke:#000000;" x="109.76571" xlink:href="#mab0da4f409" y="154.533605"/>
     <use style="stroke:#000000;" x="111.382632" xlink:href="#mab0da4f409" y="156.125288"/>
     <use style="stroke:#000000;" x="112.999554" xlink:href="#mab0da4f409" y="157.500099"/>
     <use style="stroke:#000000;" x="114.616476" xlink:href="#mab0da4f409" y="158.750984"/>
     <use style="stroke:#000000;" x="116.233398" xlink:href="#mab0da4f409" y="160.272958"/>
     <use style="stroke:#000000;" x="117.85032" xlink:href="#mab0da4f409" y="161.814295"/>
     <use style="stroke:#000000;" x="119.467242" xlink:href="#mab0da4f409" y="163.332397"/>
     <use style="stroke:#000000;" x="121.084165" xlink:href="#mab0da4f409" y="164.598772"/>
     <use style="stroke:#000000;" x="122.701087" xlink:href="#mab0da4f409" y="166.027801"/>
     <use style="stroke:#000000;" x="124.318009" xlink:href="#mab0da4f409" y="167.449085"/>
     <use style="stroke:#000000;" x="125.934931" xlink:href="#mab0da4f409" y="168.920713"/>
     <use style="stroke:#000000;" x="127.551853" xlink:href="#mab0da4f409" y="170.167725"/>
     <use style="stroke:#000000;" x="129.168775" xlink:href="#mab0da4f409" y="171.294683"/>
     <use style="stroke:#000000;" x="130.785697" xlink:href="#mab0da4f409" y="172.708221"/>
     <use style="stroke:#000000;" x="132.40262" xlink:href="#mab0da4f409" y="173.753852"/>
     <use style="stroke:#000000;" x="134.019542" xlink:href="#mab0da4f409" y="174.892428"/>
     <use style="stroke:#000000;" x="135.636464" xlink:href="#mab0da4f409" y="176.174294"/>
     <use style="stroke:#000000;" x="137.253386" xlink:href="#mab0da4f409" y="177.27027"/>
     <use style="stroke:#000000;" x="138.870308" xlink:href="#mab0da4f409" y="178.288792"/>
     <use style="stroke:#000000;" x="140.48723" xlink:href="#mab0da4f409" y="179.485459"/>
     <use style="stroke:#000000;" x="142.104152" xlink:href="#mab0da4f409" y="180.627908"/>
     <use style="stroke:#000000;" x="143.721074" xlink:href="#mab0da4f409" y="181.952374"/>
     <use style="stroke:#000000;" x="145.337997" xlink:href="#mab0da4f409" y="183.180022"/>
     <use style="stroke:#000000;" x="146.954919" xlink:href="#mab0da4f409" y="184.411543"/>
     <use style="stroke:#000000;" x="148.571841" xlink:href="#mab0da4f409" y="185.805717"/>
     <use style="stroke:#000000;" x="150.188763" xlink:href="#mab0da4f409" y="186.890076"/>
     <use style="stroke:#000000;" x="151.805685" xlink:href="#mab0da4f409" y="187.966688"/>
     <use style="stroke:#000000;" x="153.422607" xlink:href="#mab0da4f409" y="189.376354"/>
     <use style="stroke:#000000;" x="155.039529" xlink:href="#mab0da4f409" y="190.631111"/>
     <use style="stroke:#000000;" x="156.656451" xlink:href="#mab0da4f409" y="191.796796"/>
     <use style="stroke:#000000;" x="158.273374" xlink:href="#mab0da4f409" y="192.966353"/>
     <use style="stroke:#000000;" x="159.890296" xlink:href="#mab0da4f409" y="194.042966"/>
     <use style="stroke:#000000;" x="161.507218" xlink:href="#mab0da4f409" y="194.956925"/>
     <use style="stroke:#000000;" x="163.12414" xlink:href="#mab0da4f409" y="196.126483"/>
     <use style="stroke:#000000;" x="164.741062" xlink:href="#mab0da4f409" y="197.187604"/>
     <use style="stroke:#000000;" x="166.357984" xlink:href="#mab0da4f409" y="198.240981"/>
     <use style="stroke:#000000;" x="167.974906" xlink:href="#mab0da4f409" y="199.147194"/>
     <use style="stroke:#000000;" x="169.591829" xlink:href="#mab0da4f409" y="200.014681"/>
     <use style="stroke:#000000;" x="171.208751" xlink:href="#mab0da4f409" y="201.269438"/>
     <use style="stroke:#000000;" x="172.825673" xlink:href="#mab0da4f409" y="202.078834"/>
     <use style="stroke:#000000;" x="174.442595" xlink:href="#mab0da4f409" y="203.093483"/>
     <use style="stroke:#000000;" x="176.059517" xlink:href="#mab0da4f409" y="204.208823"/>
     <use style="stroke:#000000;" x="177.676439" xlink:href="#mab0da4f409" y="205.126655"/>
     <use style="stroke:#000000;" x="179.293361" xlink:href="#mab0da4f409" y="206.145177"/>
     <use style="stroke:#000000;" x="180.910283" xlink:href="#mab0da4f409" y="206.915845"/>
     <use style="stroke:#000000;" x="182.527206" xlink:href="#mab0da4f409" y="207.791077"/>
     <use style="stroke:#000000;" x="184.144128" xlink:href="#mab0da4f409" y="208.577237"/>
     <use style="stroke:#000000;" x="185.76105" xlink:href="#mab0da4f409" y="209.498941"/>
     <use style="stroke:#000000;" x="187.377972" xlink:href="#mab0da4f409" y="210.242501"/>
     <use style="stroke:#000000;" x="188.994894" xlink:href="#mab0da4f409" y="210.986061"/>
     <use style="stroke:#000000;" x="190.611816" xlink:href="#mab0da4f409" y="211.923256"/>
     <use style="stroke:#000000;" x="192.228738" xlink:href="#mab0da4f409" y="212.693925"/>
     <use style="stroke:#000000;" x="193.845661" xlink:href="#mab0da4f409" y="213.375521"/>
     <use style="stroke:#000000;" x="195.462583" xlink:href="#mab0da4f409" y="214.266244"/>
     <use style="stroke:#000000;" x="197.079505" xlink:href="#mab0da4f409" y="214.971077"/>
     <use style="stroke:#000000;" x="198.696427" xlink:href="#mab0da4f409" y="215.683655"/>
     <use style="stroke:#000000;" x="200.313349" xlink:href="#mab0da4f409" y="216.272306"/>
     <use style="stroke:#000000;" x="201.930271" xlink:href="#mab0da4f409" y="216.779631"/>
     <use style="stroke:#000000;" x="203.547193" xlink:href="#mab0da4f409" y="217.484464"/>
     <use style="stroke:#000000;" x="205.164115" xlink:href="#mab0da4f409" y="218.10797"/>
     <use style="stroke:#000000;" x="206.781038" xlink:href="#mab0da4f409" y="218.599804"/>
     <use style="stroke:#000000;" x="208.39796" xlink:href="#mab0da4f409" y="219.227182"/>
     <use style="stroke:#000000;" x="210.014882" xlink:href="#mab0da4f409" y="219.769361"/>
     <use style="stroke:#000000;" x="211.631804" xlink:href="#mab0da4f409" y="220.280559"/>
     <use style="stroke:#000000;" x="213.248726" xlink:href="#mab0da4f409" y="220.795629"/>
     <use style="stroke:#000000;" x="214.865648" xlink:href="#mab0da4f409" y="221.492716"/>
     <use style="stroke:#000000;" x="216.48257" xlink:href="#mab0da4f409" y="222.112349"/>
     <use style="stroke:#000000;" x="218.099492" xlink:href="#mab0da4f409" y="222.755219"/>
     <use style="stroke:#000000;" x="219.716415" xlink:href="#mab0da4f409" y="223.177344"/>
     <use style="stroke:#000000;" x="221.333337" xlink:href="#mab0da4f409" y="223.700159"/>
     <use style="stroke:#000000;" x="222.950259" xlink:href="#mab0da4f409" y="224.358519"/>
     <use style="stroke:#000000;" x="224.567181" xlink:href="#mab0da4f409" y="224.815499"/>
     <use style="stroke:#000000;" x="226.184103" xlink:href="#mab0da4f409" y="225.195024"/>
     <use style="stroke:#000000;" x="227.801025" xlink:href="#mab0da4f409" y="225.713967"/>
     <use style="stroke:#000000;" x="229.417947" xlink:href="#mab0da4f409" y="226.132219"/>
     <use style="stroke:#000000;" x="231.03487" xlink:href="#mab0da4f409" y="226.589199"/>
     <use style="stroke:#000000;" x="232.651792" xlink:href="#mab0da4f409" y="227.073287"/>
     <use style="stroke:#000000;" x="234.268714" xlink:href="#mab0da4f409" y="227.332759"/>
     <use style="stroke:#000000;" x="235.885636" xlink:href="#mab0da4f409" y="227.720029"/>
     <use style="stroke:#000000;" x="237.502558" xlink:href="#mab0da4f409" y="228.169263"/>
     <use style="stroke:#000000;" x="239.11948" xlink:href="#mab0da4f409" y="228.703697"/>
     <use style="stroke:#000000;" x="240.736402" xlink:href="#mab0da4f409" y="229.226513"/>
     <use style="stroke:#000000;" x="242.353324" xlink:href="#mab0da4f409" y="229.563438"/>
     <use style="stroke:#000000;" x="243.970247" xlink:href="#mab0da4f409" y="229.865509"/>
     <use style="stroke:#000000;" x="245.587169" xlink:href="#mab0da4f409" y="230.15209"/>
     <use style="stroke:#000000;" x="247.204091" xlink:href="#mab0da4f409" y="230.612942"/>
     <use style="stroke:#000000;" x="248.821013" xlink:href="#mab0da4f409" y="231.050558"/>
     <use style="stroke:#000000;" x="250.437935" xlink:href="#mab0da4f409" y="231.341011"/>
     <use style="stroke:#000000;" x="252.054857" xlink:href="#mab0da4f409" y="231.588864"/>
     <use style="stroke:#000000;" x="253.671779" xlink:href="#mab0da4f409" y="231.898681"/>
     <use style="stroke:#000000;" x="255.288702" xlink:href="#mab0da4f409" y="232.154279"/>
     <use style="stroke:#000000;" x="256.905624" xlink:href="#mab0da4f409" y="232.274333"/>
     <use style="stroke:#000000;" x="258.522546" xlink:href="#mab0da4f409" y="232.553168"/>
     <use style="stroke:#000000;" x="260.139468" xlink:href="#mab0da4f409" y="232.95593"/>
     <use style="stroke:#000000;" x="261.75639" xlink:href="#mab0da4f409" y="233.153438"/>
     <use style="stroke:#000000;" x="263.373312" xlink:href="#mab0da4f409" y="233.498109"/>
     <use style="stroke:#000000;" x="264.990234" xlink:href="#mab0da4f409" y="233.726599"/>
     <use style="stroke:#000000;" x="266.607156" xlink:href="#mab0da4f409" y="234.036415"/>
     <use style="stroke:#000000;" x="268.224079" xlink:href="#mab0da4f409" y="234.264905"/>
     <use style="stroke:#000000;" x="269.841001" xlink:href="#mab0da4f409" y="234.632812"/>
     <use style="stroke:#000000;" x="271.457923" xlink:href="#mab0da4f409" y="234.907774"/>
     <use style="stroke:#000000;" x="273.074845" xlink:href="#mab0da4f409" y="235.113028"/>
     <use style="stroke:#000000;" x="274.691767" xlink:href="#mab0da4f409" y="235.186609"/>
     <use style="stroke:#000000;" x="276.308689" xlink:href="#mab0da4f409" y="235.438335"/>
     <use style="stroke:#000000;" x="277.925611" xlink:href="#mab0da4f409" y="235.752024"/>
     <use style="stroke:#000000;" x="279.542533" xlink:href="#mab0da4f409" y="235.965023"/>
     <use style="stroke:#000000;" x="281.159456" xlink:href="#mab0da4f409" y="236.243858"/>
     <use style="stroke:#000000;" x="282.776378" xlink:href="#mab0da4f409" y="236.437494"/>
     <use style="stroke:#000000;" x="284.3933" xlink:href="#mab0da4f409" y="236.588529"/>
     <use style="stroke:#000000;" x="286.010222" xlink:href="#mab0da4f409" y="236.758928"/>
     <use style="stroke:#000000;" x="287.627144" xlink:href="#mab0da4f409" y="237.049381"/>
     <use style="stroke:#000000;" x="289.244066" xlink:href="#mab0da4f409" y="237.192672"/>
     <use style="stroke:#000000;" x="290.860988" xlink:href="#mab0da4f409" y="237.324344"/>
     <use style="stroke:#000000;" x="292.477911" xlink:href="#mab0da4f409" y="237.541215"/>
     <use style="stroke:#000000;" x="294.094833" xlink:href="#mab0da4f409" y="237.675211"/>
     <use style="stroke:#000000;" x="295.711755" xlink:href="#mab0da4f409" y="237.758474"/>
     <use style="stroke:#000000;" x="297.328677" xlink:href="#mab0da4f409" y="237.962953"/>
     <use style="stroke:#000000;" x="298.945599" xlink:href="#mab0da4f409" y="238.122509"/>
     <use style="stroke:#000000;" x="300.562521" xlink:href="#mab0da4f409" y="238.297555"/>
     <use style="stroke:#000000;" x="302.179443" xlink:href="#mab0da4f409" y="238.403667"/>
     <use style="stroke:#000000;" x="303.796365" xlink:href="#mab0da4f409" y="238.616666"/>
     <use style="stroke:#000000;" x="305.413288" xlink:href="#mab0da4f409" y="238.766153"/>
     <use style="stroke:#000000;" x="307.03021" xlink:href="#mab0da4f409" y="238.945846"/>
     <use style="stroke:#000000;" x="308.647132" xlink:href="#mab0da4f409" y="239.097269"/>
     <use style="stroke:#000000;" x="310.264054" xlink:href="#mab0da4f409" y="239.307557"/>
     <use style="stroke:#000000;" x="311.880976" xlink:href="#mab0da4f409" y="239.492285"/>
     <use style="stroke:#000000;" x="313.497898" xlink:href="#mab0da4f409" y="239.627443"/>
     <use style="stroke:#000000;" x="315.11482" xlink:href="#mab0da4f409" y="239.787386"/>
     <use style="stroke:#000000;" x="316.731743" xlink:href="#mab0da4f409" y="239.969403"/>
     <use style="stroke:#000000;" x="318.348665" xlink:href="#mab0da4f409" y="239.896596"/>
     <use style="stroke:#000000;" x="319.965587" xlink:href="#mab0da4f409" y="240.116953"/>
     <use style="stroke:#000000;" x="321.582509" xlink:href="#mab0da4f409" y="240.19828"/>
     <use style="stroke:#000000;" x="323.199431" xlink:href="#mab0da4f409" y="240.351639"/>
     <use style="stroke:#000000;" x="324.816353" xlink:href="#mab0da4f409" y="240.446133"/>
     <use style="stroke:#000000;" x="326.433275" xlink:href="#mab0da4f409" y="240.449231"/>
     <use style="stroke:#000000;" x="328.050197" xlink:href="#mab0da4f409" y="240.577418"/>
     <use style="stroke:#000000;" x="329.66712" xlink:href="#mab0da4f409" y="240.724968"/>
     <use style="stroke:#000000;" x="331.284042" xlink:href="#mab0da4f409" y="240.915118"/>
     <use style="stroke:#000000;" x="332.900964" xlink:href="#mab0da4f409" y="240.959654"/>
     <use style="stroke:#000000;" x="334.517886" xlink:href="#mab0da4f409" y="241.221449"/>
     <use style="stroke:#000000;" x="336.134808" xlink:href="#mab0da4f409" y="241.348087"/>
     <use style="stroke:#000000;" x="337.75173" xlink:href="#mab0da4f409" y="241.465817"/>
     <use style="stroke:#000000;" x="339.368652" xlink:href="#mab0da4f409" y="241.541722"/>
     <use style="stroke:#000000;" x="340.985574" xlink:href="#mab0da4f409" y="241.533202"/>
     <use style="stroke:#000000;" x="342.602497" xlink:href="#mab0da4f409" y="241.643187"/>
     <use style="stroke:#000000;" x="344.219419" xlink:href="#mab0da4f409" y="241.647834"/>
     <use style="stroke:#000000;" x="345.836341" xlink:href="#mab0da4f409" y="241.693919"/>
     <use style="stroke:#000000;" x="347.453263" xlink:href="#mab0da4f409" y="241.763241"/>
     <use style="stroke:#000000;" x="349.070185" xlink:href="#mab0da4f409" y="241.80313"/>
     <use style="stroke:#000000;" x="350.687107" xlink:href="#mab0da4f409" y="241.830239"/>
     <use style="stroke:#000000;" x="352.304029" xlink:href="#mab0da4f409" y="242.044399"/>
     <use style="stroke:#000000;" x="353.920952" xlink:href="#mab0da4f409" y="242.184591"/>
     <use style="stroke:#000000;" x="355.537874" xlink:href="#mab0da4f409" y="242.285282"/>
     <use style="stroke:#000000;" x="357.154796" xlink:href="#mab0da4f409" y="242.410758"/>
     <use style="stroke:#000000;" x="358.771718" xlink:href="#mab0da4f409" y="242.475819"/>
     <use style="stroke:#000000;" x="360.38864" xlink:href="#mab0da4f409" y="242.614462"/>
     <use style="stroke:#000000;" x="362.005562" xlink:href="#mab0da4f409" y="242.656287"/>
     <use style="stroke:#000000;" x="363.622484" xlink:href="#mab0da4f409" y="242.812745"/>
     <use style="stroke:#000000;" x="365.239406" xlink:href="#mab0da4f409" y="242.830172"/>
     <use style="stroke:#000000;" x="366.856329" xlink:href="#mab0da4f409" y="242.863477"/>
     <use style="stroke:#000000;" x="368.473251" xlink:href="#mab0da4f409" y="242.913435"/>
     <use style="stroke:#000000;" x="370.090173" xlink:href="#mab0da4f409" y="242.930088"/>
     <use style="stroke:#000000;" x="371.707095" xlink:href="#mab0da4f409" y="242.965716"/>
     <use style="stroke:#000000;" x="373.324017" xlink:href="#mab0da4f409" y="242.9297"/>
     <use style="stroke:#000000;" x="374.940939" xlink:href="#mab0da4f409" y="242.987791"/>
     <use style="stroke:#000000;" x="376.557861" xlink:href="#mab0da4f409" y="243.038523"/>
     <use style="stroke:#000000;" x="378.174784" xlink:href="#mab0da4f409" y="243.118301"/>
     <use style="stroke:#000000;" x="379.791706" xlink:href="#mab0da4f409" y="243.231384"/>
     <use style="stroke:#000000;" x="381.408628" xlink:href="#mab0da4f409" y="243.248424"/>
     <use style="stroke:#000000;" x="383.02555" xlink:href="#mab0da4f409" y="243.272822"/>
     <use style="stroke:#000000;" x="384.642472" xlink:href="#mab0da4f409" y="243.447869"/>
     <use style="stroke:#000000;" x="386.259394" xlink:href="#mab0da4f409" y="243.58535"/>
    </g>
   </g>
   <g id="line2d_20">
    <path clip-path="url(#p8307d1c71b)" d="M 64.49189 208.038921 
L 66.108812 150.456678 
L 67.725734 116.280881 
L 69.342656 98.244183 
L 70.959579 90.408539 
L 72.576501 88.545473 
L 74.193423 89.964665 
L 75.810345 93.071125 
L 79.044189 101.1362 
L 82.278033 109.405596 
L 85.511878 116.990203 
L 88.745722 123.761853 
L 91.979566 129.804347 
L 95.21341 135.239869 
L 98.447255 140.175421 
L 101.681099 144.702927 
L 104.914943 148.888209 
L 108.148788 152.783602 
L 111.382632 156.428826 
L 116.233398 161.49943 
L 121.084165 166.165255 
L 125.934931 170.493348 
L 130.785697 174.533489 
L 135.636464 178.324098 
L 142.104152 183.045544 
L 148.571841 187.432838 
L 155.039529 191.521797 
L 161.507218 195.336096 
L 167.974906 198.891168 
L 174.442595 202.201494 
L 180.910283 205.281517 
L 187.377972 208.148238 
L 195.462583 211.460313 
L 203.547193 214.502782 
L 211.631804 217.302972 
L 219.716415 219.882635 
L 227.801025 222.257254 
L 237.502558 224.853701 
L 247.204091 227.192109 
L 256.905624 229.292035 
L 266.607156 231.170884 
L 276.308689 232.850101 
L 287.627144 234.583095 
L 298.945599 236.097783 
L 311.880976 237.597552 
L 326.433275 239.03405 
L 342.602497 240.367293 
L 360.38864 241.580686 
L 378.174784 242.576555 
L 386.259394 242.964762 
L 386.259394 242.964762 
" style="fill:none;stroke:#0000ff;stroke-dasharray:5.55,2.4;stroke-dashoffset:0;stroke-width:1.5;"/>
   </g>
   <g id="line2d_21">
    <path clip-path="url(#p8307d1c71b)" d="M 64.49189 227.545014 
L 66.108812 183.957165 
L 67.725734 155.765838 
L 69.342656 139.041648 
L 70.959579 130.355424 
L 72.576501 126.88175 
L 74.193423 126.589174 
L 75.810345 128.109208 
L 77.427267 130.578694 
L 80.661111 136.513885 
L 83.894956 142.409884 
L 87.1288 147.73293 
L 90.362644 152.42811 
L 93.596488 156.580986 
L 96.830333 160.295634 
L 100.064177 163.663616 
L 103.298021 166.755055 
L 108.148788 170.991464 
L 112.999554 174.853453 
L 117.85032 178.424412 
L 122.701087 181.757718 
L 129.168775 185.899092 
L 135.636464 189.743159 
L 142.104152 193.343058 
L 150.188763 197.557952 
L 158.273374 201.513344 
L 167.974906 205.986955 
L 177.676439 210.204116 
L 187.377972 214.165362 
L 195.462583 217.2521 
L 203.547193 220.122959 
L 211.631804 222.766541 
L 219.716415 225.179984 
L 227.801025 227.370081 
L 235.885636 229.349856 
L 245.587169 231.471069 
L 255.288702 233.345793 
L 266.607156 235.258266 
L 277.925611 236.921399 
L 289.244066 238.375765 
L 302.179443 239.82442 
L 316.731743 241.230033 
L 334.517886 242.689352 
L 353.920952 244.026651 
L 374.940939 245.245352 
L 386.259394 245.823304 
L 386.259394 245.823304 
" style="fill:none;stroke:#0000ff;stroke-dasharray:5.55,2.4;stroke-dashoffset:0;stroke-width:1.5;"/>
   </g>
   <g id="line2d_22"/>
   <g id="line2d_23"/>
   <g id="line2d_24"/>
   <g id="line2d_25"/>
   <g id="line2d_26"/>
   <g id="line2d_27"/>
   <g id="line2d_28"/>
   <g id="patch_3">
    <path d="M 46.965625 288.430125 
L 46.965625 22.318125 
" style="fill:none;stroke:#000000;stroke-linecap:square;stroke-linejoin:miter;stroke-width:0.8;"/>
   </g>
   <g id="patch_4">
    <path d="M 404.085625 288.430125 
L 404.085625 22.318125 
" style="fill:none;stroke:#000000;stroke-linecap:square;stroke-linejoin:miter;stroke-width:0.8;"/>
   </g>
   <g id="patch_5">
    <path d="M 46.965625 288.430125 
L 404.085625 288.430125 
" style="fill:none;stroke:#000000;stroke-linecap:square;stroke-linejoin:miter;stroke-width:0.8;"/>
   </g>
   <g id="patch_6">
    <path d="M 46.965625 22.318125 
L 404.085625 22.318125 
" style="fill:none;stroke:#000000;stroke-linecap:square;stroke-linejoin:miter;stroke-width:0.8;"/>
   </g>
   <g id="text_19">
    <!-- Experiment_53 -->
    <g transform="translate(180.222813 16.318125)scale(0.12 -0.12)">
     <defs>
      <path d="M 9.8125 72.90625 
L 55.90625 72.90625 
L 55.90625 64.59375 
L 19.671875 64.59375 
L 19.671875 43.015625 
L 54.390625 43.015625 
L 54.390625 34.71875 
L 19.671875 34.71875 
L 19.671875 8.296875 
L 56.78125 8.296875 
L 56.78125 0 
L 9.8125 0 
z
" id="DejaVuSans-69"/>
      <path d="M 54.890625 54.6875 
L 35.109375 28.078125 
L 55.90625 0 
L 45.3125 0 
L 29.390625 21.484375 
L 13.484375 0 
L 2.875 0 
L 24.125 28.609375 
L 4.6875 54.6875 
L 15.28125 54.6875 
L 29.78125 35.203125 
L 44.28125 54.6875 
z
" id="DejaVuSans-120"/>
      <path d="M 41.109375 46.296875 
Q 39.59375 47.171875 37.8125 47.578125 
Q 36.03125 48 33.890625 48 
Q 26.265625 48 22.1875 43.046875 
Q 18.109375 38.09375 18.109375 28.8125 
L 18.109375 0 
L 9.078125 0 
L 9.078125 54.6875 
L 18.109375 54.6875 
L 18.109375 46.1875 
Q 20.953125 51.171875 25.484375 53.578125 
Q 30.03125 56 36.53125 56 
Q 37.453125 56 38.578125 55.875 
Q 39.703125 55.765625 41.0625 55.515625 
z
" id="DejaVuSans-114"/>
      <path d="M 54.890625 33.015625 
L 54.890625 0 
L 45.90625 0 
L 45.90625 32.71875 
Q 45.90625 40.484375 42.875 44.328125 
Q 39.84375 48.1875 33.796875 48.1875 
Q 26.515625 48.1875 22.3125 43.546875 
Q 18.109375 38.921875 18.109375 30.90625 
L 18.109375 0 
L 9.078125 0 
L 9.078125 54.6875 
L 18.109375 54.6875 
L 18.109375 46.1875 
Q 21.34375 51.125 25.703125 53.5625 
Q 30.078125 56 35.796875 56 
Q 45.21875 56 50.046875 50.171875 
Q 54.890625 44.34375 54.890625 33.015625 
z
" id="DejaVuSans-110"/>
      <path d="M 18.3125 70.21875 
L 18.3125 54.6875 
L 36.8125 54.6875 
L 36.8125 47.703125 
L 18.3125 47.703125 
L 18.3125 18.015625 
Q 18.3125 11.328125 20.140625 9.421875 
Q 21.96875 7.515625 27.59375 7.515625 
L 36.8125 7.515625 
L 36.8125 0 
L 27.59375 0 
Q 17.1875 0 13.234375 3.875 
Q 9.28125 7.765625 9.28125 18.015625 
L 9.28125 47.703125 
L 2.6875 47.703125 
L 2.6875 54.6875 
L 9.28125 54.6875 
L 9.28125 70.21875 
z
" id="DejaVuSans-116"/>
      <path d="M 50.984375 -16.609375 
L 50.984375 -23.578125 
L -0.984375 -23.578125 
L -0.984375 -16.609375 
z
" id="DejaVuSans-95"/>
     </defs>
     <use xlink:href="#DejaVuSans-69"/>
     <use x="63.183594" xlink:href="#DejaVuSans-120"/>
     <use x="122.363281" xlink:href="#DejaVuSans-112"/>
     <use x="185.839844" xlink:href="#DejaVuSans-101"/>
     <use x="247.363281" xlink:href="#DejaVuSans-114"/>
     <use x="288.476562" xlink:href="#DejaVuSans-105"/>
     <use x="316.259766" xlink:href="#DejaVuSans-109"/>
     <use x="413.671875" xlink:href="#DejaVuSans-101"/>
     <use x="475.195312" xlink:href="#DejaVuSans-110"/>
     <use x="538.574219" xlink:href="#DejaVuSans-116"/>
     <use x="577.783203" xlink:href="#DejaVuSans-95"/>
     <use x="627.783203" xlink:href="#DejaVuSans-53"/>
     <use x="691.40625" xlink:href="#DejaVuSans-51"/>
    </g>
   </g>
   <g id="legend_1">
    <g id="patch_7">
     <path d="M 132.855938 103.730625 
L 397.085625 103.730625 
Q 399.085625 103.730625 399.085625 101.730625 
L 399.085625 29.318125 
Q 399.085625 27.318125 397.085625 27.318125 
L 132.855938 27.318125 
Q 130.855938 27.318125 130.855938 29.318125 
L 130.855938 101.730625 
Q 130.855938 103.730625 132.855938 103.730625 
z
" style="fill:#ffffff;opacity:0.8;stroke:#cccccc;stroke-linejoin:miter;"/>
    </g>
    <g id="line2d_29">
     <path d="M 134.855938 35.416562 
L 154.855938 35.416562 
" style="fill:none;stroke:#0000ff;stroke-linecap:square;stroke-width:1.5;"/>
    </g>
    <g id="line2d_30"/>
    <g id="text_20">
     <!-- MSI -->
     <g transform="translate(162.855938 38.916562)scale(0.1 -0.1)">
      <defs>
       <path d="M 9.8125 72.90625 
L 24.515625 72.90625 
L 43.109375 23.296875 
L 61.8125 72.90625 
L 76.515625 72.90625 
L 76.515625 0 
L 66.890625 0 
L 66.890625 64.015625 
L 48.09375 14.015625 
L 38.1875 14.015625 
L 19.390625 64.015625 
L 19.390625 0 
L 9.8125 0 
z
" id="DejaVuSans-77"/>
       <path d="M 53.515625 70.515625 
L 53.515625 60.890625 
Q 47.90625 63.578125 42.921875 64.890625 
Q 37.9375 66.21875 33.296875 66.21875 
Q 25.25 66.21875 20.875 63.09375 
Q 16.5 59.96875 16.5 54.203125 
Q 16.5 49.359375 19.40625 46.890625 
Q 22.3125 44.4375 30.421875 42.921875 
L 36.375 41.703125 
Q 47.40625 39.59375 52.65625 34.296875 
Q 57.90625 29 57.90625 20.125 
Q 57.90625 9.515625 50.796875 4.046875 
Q 43.703125 -1.421875 29.984375 -1.421875 
Q 24.8125 -1.421875 18.96875 -0.25 
Q 13.140625 0.921875 6.890625 3.21875 
L 6.890625 13.375 
Q 12.890625 10.015625 18.65625 8.296875 
Q 24.421875 6.59375 29.984375 6.59375 
Q 38.421875 6.59375 43.015625 9.90625 
Q 47.609375 13.234375 47.609375 19.390625 
Q 47.609375 24.75 44.3125 27.78125 
Q 41.015625 30.8125 33.5 32.328125 
L 27.484375 33.5 
Q 16.453125 35.6875 11.515625 40.375 
Q 6.59375 45.0625 6.59375 53.421875 
Q 6.59375 63.09375 13.40625 68.65625 
Q 20.21875 74.21875 32.171875 74.21875 
Q 37.3125 74.21875 42.625 73.28125 
Q 47.953125 72.359375 53.515625 70.515625 
z
" id="DejaVuSans-83"/>
       <path d="M 9.8125 72.90625 
L 19.671875 72.90625 
L 19.671875 0 
L 9.8125 0 
z
" id="DejaVuSans-73"/>
      </defs>
      <use xlink:href="#DejaVuSans-77"/>
      <use x="86.279297" xlink:href="#DejaVuSans-83"/>
      <use x="149.755859" xlink:href="#DejaVuSans-73"/>
     </g>
    </g>
    <g id="line2d_31">
     <path d="M 134.855938 50.09625 
L 154.855938 50.09625 
" style="fill:none;stroke:#ff0000;stroke-linecap:square;stroke-width:1.5;"/>
    </g>
    <g id="line2d_32"/>
    <g id="text_21">
     <!-- $\it{A priori}$ model -->
     <g transform="translate(162.855938 53.59625)scale(0.1 -0.1)">
      <defs>
       <path d="M 36.8125 72.90625 
L 48 72.90625 
L 61.53125 0 
L 51.21875 0 
L 48.1875 18.703125 
L 15.375 18.703125 
L 5.078125 0 
L -5.328125 0 
z
M 40.375 63.1875 
L 19.921875 26.90625 
L 46.6875 26.90625 
z
" id="DejaVuSans-Oblique-65"/>
       <path d="M 49.609375 33.6875 
Q 49.609375 40.875 46.484375 44.671875 
Q 43.359375 48.484375 37.5 48.484375 
Q 33.5 48.484375 29.859375 46.4375 
Q 26.21875 44.390625 23.390625 40.484375 
Q 20.609375 36.625 18.9375 31.15625 
Q 17.28125 25.6875 17.28125 20.3125 
Q 17.28125 13.484375 20.40625 9.796875 
Q 23.53125 6.109375 29.296875 6.109375 
Q 33.546875 6.109375 37.1875 8.109375 
Q 40.828125 10.109375 43.40625 13.921875 
Q 46.1875 17.921875 47.890625 23.34375 
Q 49.609375 28.765625 49.609375 33.6875 
z
M 21.78125 46.390625 
Q 25.390625 51.125 30.296875 53.5625 
Q 35.203125 56 41.21875 56 
Q 49.609375 56 54.25 50.5 
Q 58.890625 45.015625 58.890625 35.109375 
Q 58.890625 27 56 19.65625 
Q 53.125 12.3125 47.703125 6.5 
Q 44.09375 2.640625 39.546875 0.609375 
Q 35.015625 -1.421875 29.984375 -1.421875 
Q 24.171875 -1.421875 20.21875 1 
Q 16.265625 3.421875 14.3125 8.203125 
L 8.6875 -20.796875 
L -0.296875 -20.796875 
L 14.40625 54.6875 
L 23.390625 54.6875 
z
" id="DejaVuSans-Oblique-112"/>
       <path d="M 44.578125 46.390625 
Q 43.21875 47.125 41.453125 47.515625 
Q 39.703125 47.90625 37.703125 47.90625 
Q 30.515625 47.90625 25.140625 42.453125 
Q 19.78125 37.015625 18.015625 27.875 
L 12.5 0 
L 3.515625 0 
L 14.203125 54.6875 
L 23.1875 54.6875 
L 21.484375 46.1875 
Q 25.046875 50.921875 30 53.453125 
Q 34.96875 56 40.578125 56 
Q 42.046875 56 43.453125 55.828125 
Q 44.875 55.671875 46.296875 55.28125 
z
" id="DejaVuSans-Oblique-114"/>
       <path d="M 18.3125 75.984375 
L 27.296875 75.984375 
L 25.09375 64.59375 
L 16.109375 64.59375 
z
M 14.203125 54.6875 
L 23.1875 54.6875 
L 12.5 0 
L 3.515625 0 
z
" id="DejaVuSans-Oblique-105"/>
       <path d="M 25.390625 -1.421875 
Q 15.765625 -1.421875 10.171875 4.515625 
Q 4.59375 10.453125 4.59375 20.703125 
Q 4.59375 26.65625 6.515625 32.828125 
Q 8.453125 39.015625 11.53125 43.21875 
Q 16.359375 49.75 22.3125 52.875 
Q 28.265625 56 35.796875 56 
Q 45.125 56 50.859375 50.1875 
Q 56.59375 44.390625 56.59375 35.015625 
Q 56.59375 28.515625 54.6875 22.0625 
Q 52.78125 15.625 49.703125 11.375 
Q 44.921875 4.828125 38.96875 1.703125 
Q 33.015625 -1.421875 25.390625 -1.421875 
z
M 13.921875 21 
Q 13.921875 13.578125 17.015625 9.890625 
Q 20.125 6.203125 26.421875 6.203125 
Q 35.453125 6.203125 41.375 14.078125 
Q 47.3125 21.96875 47.3125 34.078125 
Q 47.3125 41.15625 44.140625 44.765625 
Q 40.96875 48.390625 34.8125 48.390625 
Q 29.734375 48.390625 25.78125 46.015625 
Q 21.828125 43.65625 18.703125 38.8125 
Q 16.40625 35.203125 15.15625 30.5625 
Q 13.921875 25.921875 13.921875 21 
z
" id="DejaVuSans-Oblique-111"/>
       <path d="M 30.609375 48.390625 
Q 23.390625 48.390625 19.1875 42.75 
Q 14.984375 37.109375 14.984375 27.296875 
Q 14.984375 17.484375 19.15625 11.84375 
Q 23.34375 6.203125 30.609375 6.203125 
Q 37.796875 6.203125 41.984375 11.859375 
Q 46.1875 17.53125 46.1875 27.296875 
Q 46.1875 37.015625 41.984375 42.703125 
Q 37.796875 48.390625 30.609375 48.390625 
z
M 30.609375 56 
Q 42.328125 56 49.015625 48.375 
Q 55.71875 40.765625 55.71875 27.296875 
Q 55.71875 13.875 49.015625 6.21875 
Q 42.328125 -1.421875 30.609375 -1.421875 
Q 18.84375 -1.421875 12.171875 6.21875 
Q 5.515625 13.875 5.515625 27.296875 
Q 5.515625 40.765625 12.171875 48.375 
Q 18.84375 56 30.609375 56 
z
" id="DejaVuSans-111"/>
       <path d="M 45.40625 46.390625 
L 45.40625 75.984375 
L 54.390625 75.984375 
L 54.390625 0 
L 45.40625 0 
L 45.40625 8.203125 
Q 42.578125 3.328125 38.25 0.953125 
Q 33.9375 -1.421875 27.875 -1.421875 
Q 17.96875 -1.421875 11.734375 6.484375 
Q 5.515625 14.40625 5.515625 27.296875 
Q 5.515625 40.1875 11.734375 48.09375 
Q 17.96875 56 27.875 56 
Q 33.9375 56 38.25 53.625 
Q 42.578125 51.265625 45.40625 46.390625 
z
M 14.796875 27.296875 
Q 14.796875 17.390625 18.875 11.75 
Q 22.953125 6.109375 30.078125 6.109375 
Q 37.203125 6.109375 41.296875 11.75 
Q 45.40625 17.390625 45.40625 27.296875 
Q 45.40625 37.203125 41.296875 42.84375 
Q 37.203125 48.484375 30.078125 48.484375 
Q 22.953125 48.484375 18.875 42.84375 
Q 14.796875 37.203125 14.796875 27.296875 
z
" id="DejaVuSans-100"/>
       <path d="M 9.421875 75.984375 
L 18.40625 75.984375 
L 18.40625 0 
L 9.421875 0 
z
" id="DejaVuSans-108"/>
      </defs>
      <use transform="translate(0 0.015625)" xlink:href="#DejaVuSans-Oblique-65"/>
      <use transform="translate(68.408203 0.015625)" xlink:href="#DejaVuSans-Oblique-112"/>
      <use transform="translate(131.884766 0.015625)" xlink:href="#DejaVuSans-Oblique-114"/>
      <use transform="translate(172.998047 0.015625)" xlink:href="#DejaVuSans-Oblique-105"/>
      <use transform="translate(200.78125 0.015625)" xlink:href="#DejaVuSans-Oblique-111"/>
      <use transform="translate(261.962891 0.015625)" xlink:href="#DejaVuSans-Oblique-114"/>
      <use transform="translate(303.076172 0.015625)" xlink:href="#DejaVuSans-Oblique-105"/>
      <use transform="translate(330.859375 0.015625)" xlink:href="#DejaVuSans-32"/>
      <use transform="translate(362.646484 0.015625)" xlink:href="#DejaVuSans-109"/>
      <use transform="translate(460.058594 0.015625)" xlink:href="#DejaVuSans-111"/>
      <use transform="translate(521.240234 0.015625)" xlink:href="#DejaVuSans-100"/>
      <use transform="translate(584.716797 0.015625)" xlink:href="#DejaVuSans-101"/>
      <use transform="translate(646.240234 0.015625)" xlink:href="#DejaVuSans-108"/>
     </g>
    </g>
    <g id="line2d_33"/>
    <g id="line2d_34">
     <g>
      <use style="stroke:#000000;" x="144.855938" xlink:href="#mab0da4f409" y="64.794688"/>
     </g>
    </g>
    <g id="text_22">
     <!-- Experimental Data -->
     <g transform="translate(162.855938 68.294688)scale(0.1 -0.1)">
      <defs>
       <path d="M 34.28125 27.484375 
Q 23.390625 27.484375 19.1875 25 
Q 14.984375 22.515625 14.984375 16.5 
Q 14.984375 11.71875 18.140625 8.90625 
Q 21.296875 6.109375 26.703125 6.109375 
Q 34.1875 6.109375 38.703125 11.40625 
Q 43.21875 16.703125 43.21875 25.484375 
L 43.21875 27.484375 
z
M 52.203125 31.203125 
L 52.203125 0 
L 43.21875 0 
L 43.21875 8.296875 
Q 40.140625 3.328125 35.546875 0.953125 
Q 30.953125 -1.421875 24.3125 -1.421875 
Q 15.921875 -1.421875 10.953125 3.296875 
Q 6 8.015625 6 15.921875 
Q 6 25.140625 12.171875 29.828125 
Q 18.359375 34.515625 30.609375 34.515625 
L 43.21875 34.515625 
L 43.21875 35.40625 
Q 43.21875 41.609375 39.140625 45 
Q 35.0625 48.390625 27.6875 48.390625 
Q 23 48.390625 18.546875 47.265625 
Q 14.109375 46.140625 10.015625 43.890625 
L 10.015625 52.203125 
Q 14.9375 54.109375 19.578125 55.046875 
Q 24.21875 56 28.609375 56 
Q 40.484375 56 46.34375 49.84375 
Q 52.203125 43.703125 52.203125 31.203125 
z
" id="DejaVuSans-97"/>
       <path d="M 19.671875 64.796875 
L 19.671875 8.109375 
L 31.59375 8.109375 
Q 46.6875 8.109375 53.6875 14.9375 
Q 60.6875 21.78125 60.6875 36.53125 
Q 60.6875 51.171875 53.6875 57.984375 
Q 46.6875 64.796875 31.59375 64.796875 
z
M 9.8125 72.90625 
L 30.078125 72.90625 
Q 51.265625 72.90625 61.171875 64.09375 
Q 71.09375 55.28125 71.09375 36.53125 
Q 71.09375 17.671875 61.125 8.828125 
Q 51.171875 0 30.078125 0 
L 9.8125 0 
z
" id="DejaVuSans-68"/>
      </defs>
      <use xlink:href="#DejaVuSans-69"/>
      <use x="63.183594" xlink:href="#DejaVuSans-120"/>
      <use x="122.363281" xlink:href="#DejaVuSans-112"/>
      <use x="185.839844" xlink:href="#DejaVuSans-101"/>
      <use x="247.363281" xlink:href="#DejaVuSans-114"/>
      <use x="288.476562" xlink:href="#DejaVuSans-105"/>
      <use x="316.259766" xlink:href="#DejaVuSans-109"/>
      <use x="413.671875" xlink:href="#DejaVuSans-101"/>
      <use x="475.195312" xlink:href="#DejaVuSans-110"/>
      <use x="538.574219" xlink:href="#DejaVuSans-116"/>
      <use x="577.783203" xlink:href="#DejaVuSans-97"/>
      <use x="639.0625" xlink:href="#DejaVuSans-108"/>
      <use x="666.845703" xlink:href="#DejaVuSans-32"/>
      <use x="698.632812" xlink:href="#DejaVuSans-68"/>
      <use x="775.634766" xlink:href="#DejaVuSans-97"/>
      <use x="836.914062" xlink:href="#DejaVuSans-116"/>
      <use x="876.123047" xlink:href="#DejaVuSans-97"/>
     </g>
    </g>
    <g id="line2d_35">
     <path d="M 134.855938 79.472813 
L 154.855938 79.472813 
" style="fill:none;stroke:#ffffff;stroke-linecap:square;stroke-width:1.5;"/>
    </g>
    <g id="line2d_36"/>
    <g id="text_23">
     <!-- T:1398 -->
     <g transform="translate(162.855938 82.972813)scale(0.1 -0.1)">
      <defs>
       <path d="M 11.71875 12.40625 
L 22.015625 12.40625 
L 22.015625 0 
L 11.71875 0 
z
M 11.71875 51.703125 
L 22.015625 51.703125 
L 22.015625 39.3125 
L 11.71875 39.3125 
z
" id="DejaVuSans-58"/>
       <path d="M 10.984375 1.515625 
L 10.984375 10.5 
Q 14.703125 8.734375 18.5 7.8125 
Q 22.3125 6.890625 25.984375 6.890625 
Q 35.75 6.890625 40.890625 13.453125 
Q 46.046875 20.015625 46.78125 33.40625 
Q 43.953125 29.203125 39.59375 26.953125 
Q 35.25 24.703125 29.984375 24.703125 
Q 19.046875 24.703125 12.671875 31.3125 
Q 6.296875 37.9375 6.296875 49.421875 
Q 6.296875 60.640625 12.9375 67.421875 
Q 19.578125 74.21875 30.609375 74.21875 
Q 43.265625 74.21875 49.921875 64.515625 
Q 56.59375 54.828125 56.59375 36.375 
Q 56.59375 19.140625 48.40625 8.859375 
Q 40.234375 -1.421875 26.421875 -1.421875 
Q 22.703125 -1.421875 18.890625 -0.6875 
Q 15.09375 0.046875 10.984375 1.515625 
z
M 30.609375 32.421875 
Q 37.25 32.421875 41.125 36.953125 
Q 45.015625 41.5 45.015625 49.421875 
Q 45.015625 57.28125 41.125 61.84375 
Q 37.25 66.40625 30.609375 66.40625 
Q 23.96875 66.40625 20.09375 61.84375 
Q 16.21875 57.28125 16.21875 49.421875 
Q 16.21875 41.5 20.09375 36.953125 
Q 23.96875 32.421875 30.609375 32.421875 
z
" id="DejaVuSans-57"/>
       <path d="M 31.78125 34.625 
Q 24.75 34.625 20.71875 30.859375 
Q 16.703125 27.09375 16.703125 20.515625 
Q 16.703125 13.921875 20.71875 10.15625 
Q 24.75 6.390625 31.78125 6.390625 
Q 38.8125 6.390625 42.859375 10.171875 
Q 46.921875 13.96875 46.921875 20.515625 
Q 46.921875 27.09375 42.890625 30.859375 
Q 38.875 34.625 31.78125 34.625 
z
M 21.921875 38.8125 
Q 15.578125 40.375 12.03125 44.71875 
Q 8.5 49.078125 8.5 55.328125 
Q 8.5 64.0625 14.71875 69.140625 
Q 20.953125 74.21875 31.78125 74.21875 
Q 42.671875 74.21875 48.875 69.140625 
Q 55.078125 64.0625 55.078125 55.328125 
Q 55.078125 49.078125 51.53125 44.71875 
Q 48 40.375 41.703125 38.8125 
Q 48.828125 37.15625 52.796875 32.3125 
Q 56.78125 27.484375 56.78125 20.515625 
Q 56.78125 9.90625 50.3125 4.234375 
Q 43.84375 -1.421875 31.78125 -1.421875 
Q 19.734375 -1.421875 13.25 4.234375 
Q 6.78125 9.90625 6.78125 20.515625 
Q 6.78125 27.484375 10.78125 32.3125 
Q 14.796875 37.15625 21.921875 38.8125 
z
M 18.3125 54.390625 
Q 18.3125 48.734375 21.84375 45.5625 
Q 25.390625 42.390625 31.78125 42.390625 
Q 38.140625 42.390625 41.71875 45.5625 
Q 45.3125 48.734375 45.3125 54.390625 
Q 45.3125 60.0625 41.71875 63.234375 
Q 38.140625 66.40625 31.78125 66.40625 
Q 25.390625 66.40625 21.84375 63.234375 
Q 18.3125 60.0625 18.3125 54.390625 
z
" id="DejaVuSans-56"/>
      </defs>
      <use xlink:href="#DejaVuSans-84"/>
      <use x="50.083984" xlink:href="#DejaVuSans-58"/>
      <use x="83.775391" xlink:href="#DejaVuSans-49"/>
      <use x="147.398438" xlink:href="#DejaVuSans-51"/>
      <use x="211.021484" xlink:href="#DejaVuSans-57"/>
      <use x="274.644531" xlink:href="#DejaVuSans-56"/>
     </g>
    </g>
    <g id="line2d_37">
     <path d="M 134.855938 94.150937 
L 154.855938 94.150937 
" style="fill:none;stroke:#ffffff;stroke-linecap:square;stroke-width:1.5;"/>
    </g>
    <g id="line2d_38"/>
    <g id="text_24">
     <!-- P:1.909 -->
     <g transform="translate(162.855938 97.650937)scale(0.1 -0.1)">
      <defs>
       <path d="M 19.671875 64.796875 
L 19.671875 37.40625 
L 32.078125 37.40625 
Q 38.96875 37.40625 42.71875 40.96875 
Q 46.484375 44.53125 46.484375 51.125 
Q 46.484375 57.671875 42.71875 61.234375 
Q 38.96875 64.796875 32.078125 64.796875 
z
M 9.8125 72.90625 
L 32.078125 72.90625 
Q 44.34375 72.90625 50.609375 67.359375 
Q 56.890625 61.8125 56.890625 51.125 
Q 56.890625 40.328125 50.609375 34.8125 
Q 44.34375 29.296875 32.078125 29.296875 
L 19.671875 29.296875 
L 19.671875 0 
L 9.8125 0 
z
" id="DejaVuSans-80"/>
      </defs>
      <use xlink:href="#DejaVuSans-80"/>
      <use x="60.302734" xlink:href="#DejaVuSans-58"/>
      <use x="93.994141" xlink:href="#DejaVuSans-49"/>
      <use x="157.617188" xlink:href="#DejaVuSans-46"/>
      <use x="189.404297" xlink:href="#DejaVuSans-57"/>
      <use x="253.027344" xlink:href="#DejaVuSans-48"/>
      <use x="316.650391" xlink:href="#DejaVuSans-57"/>
     </g>
    </g>
    <g id="line2d_39">
     <path d="M 276.596563 35.416562 
L 296.596563 35.416562 
" style="fill:none;stroke:#ffffff;stroke-linecap:square;stroke-width:1.5;"/>
    </g>
    <g id="line2d_40"/>
    <g id="text_25">
     <!-- H2O: 0.001234 -->
     <g transform="translate(304.596563 38.916562)scale(0.1 -0.1)">
      <use xlink:href="#DejaVuSans-72"/>
      <use x="75.195312" xlink:href="#DejaVuSans-50"/>
      <use x="138.818359" xlink:href="#DejaVuSans-79"/>
      <use x="215.779297" xlink:href="#DejaVuSans-58"/>
      <use x="249.470703" xlink:href="#DejaVuSans-32"/>
      <use x="281.257812" xlink:href="#DejaVuSans-48"/>
      <use x="344.880859" xlink:href="#DejaVuSans-46"/>
      <use x="376.667969" xlink:href="#DejaVuSans-48"/>
      <use x="440.291016" xlink:href="#DejaVuSans-48"/>
      <use x="503.914062" xlink:href="#DejaVuSans-49"/>
      <use x="567.537109" xlink:href="#DejaVuSans-50"/>
      <use x="631.160156" xlink:href="#DejaVuSans-51"/>
      <use x="694.783203" xlink:href="#DejaVuSans-52"/>
     </g>
    </g>
    <g id="line2d_41">
     <path d="M 276.596563 50.094688 
L 296.596563 50.094688 
" style="fill:none;stroke:#ffffff;stroke-linecap:square;stroke-width:1.5;"/>
    </g>
    <g id="line2d_42"/>
    <g id="text_26">
     <!-- H2O2: 0.00254 -->
     <g transform="translate(304.596563 53.594688)scale(0.1 -0.1)">
      <use xlink:href="#DejaVuSans-72"/>
      <use x="75.195312" xlink:href="#DejaVuSans-50"/>
      <use x="138.818359" xlink:href="#DejaVuSans-79"/>
      <use x="217.529297" xlink:href="#DejaVuSans-50"/>
      <use x="281.152344" xlink:href="#DejaVuSans-58"/>
      <use x="314.84375" xlink:href="#DejaVuSans-32"/>
      <use x="346.630859" xlink:href="#DejaVuSans-48"/>
      <use x="410.253906" xlink:href="#DejaVuSans-46"/>
      <use x="442.041016" xlink:href="#DejaVuSans-48"/>
      <use x="505.664062" xlink:href="#DejaVuSans-48"/>
      <use x="569.287109" xlink:href="#DejaVuSans-50"/>
      <use x="632.910156" xlink:href="#DejaVuSans-53"/>
      <use x="696.533203" xlink:href="#DejaVuSans-52"/>
     </g>
    </g>
    <g id="line2d_43">
     <path d="M 276.596563 64.772812 
L 296.596563 64.772812 
" style="fill:none;stroke:#ffffff;stroke-linecap:square;stroke-width:1.5;"/>
    </g>
    <g id="line2d_44"/>
    <g id="text_27">
     <!-- O2: 0.00062 -->
     <g transform="translate(304.596563 68.272812)scale(0.1 -0.1)">
      <use xlink:href="#DejaVuSans-79"/>
      <use x="78.710938" xlink:href="#DejaVuSans-50"/>
      <use x="142.333984" xlink:href="#DejaVuSans-58"/>
      <use x="176.025391" xlink:href="#DejaVuSans-32"/>
      <use x="207.8125" xlink:href="#DejaVuSans-48"/>
      <use x="271.435547" xlink:href="#DejaVuSans-46"/>
      <use x="303.222656" xlink:href="#DejaVuSans-48"/>
      <use x="366.845703" xlink:href="#DejaVuSans-48"/>
      <use x="430.46875" xlink:href="#DejaVuSans-48"/>
      <use x="494.091797" xlink:href="#DejaVuSans-54"/>
      <use x="557.714844" xlink:href="#DejaVuSans-50"/>
     </g>
    </g>
    <g id="line2d_45">
     <path d="M 276.596563 79.450938 
L 296.596563 79.450938 
" style="fill:none;stroke:#ffffff;stroke-linecap:square;stroke-width:1.5;"/>
    </g>
    <g id="line2d_46"/>
    <g id="text_28">
     <!-- H: 4.485e-08 -->
     <g transform="translate(304.596563 82.950938)scale(0.1 -0.1)">
      <defs>
       <path d="M 4.890625 31.390625 
L 31.203125 31.390625 
L 31.203125 23.390625 
L 4.890625 23.390625 
z
" id="DejaVuSans-45"/>
      </defs>
      <use xlink:href="#DejaVuSans-72"/>
      <use x="75.195312" xlink:href="#DejaVuSans-58"/>
      <use x="108.886719" xlink:href="#DejaVuSans-32"/>
      <use x="140.673828" xlink:href="#DejaVuSans-52"/>
      <use x="204.296875" xlink:href="#DejaVuSans-46"/>
      <use x="236.083984" xlink:href="#DejaVuSans-52"/>
      <use x="299.707031" xlink:href="#DejaVuSans-56"/>
      <use x="363.330078" xlink:href="#DejaVuSans-53"/>
      <use x="426.953125" xlink:href="#DejaVuSans-101"/>
      <use x="488.476562" xlink:href="#DejaVuSans-45"/>
      <use x="524.560547" xlink:href="#DejaVuSans-48"/>
      <use x="588.183594" xlink:href="#DejaVuSans-56"/>
     </g>
    </g>
    <g id="line2d_47">
     <path d="M 276.596563 94.129063 
L 296.596563 94.129063 
" style="fill:none;stroke:#ffffff;stroke-linecap:square;stroke-width:1.5;"/>
    </g>
    <g id="line2d_48"/>
    <g id="text_29">
     <!-- Ar: 0.9956059552 -->
     <g transform="translate(304.596563 97.629063)scale(0.1 -0.1)">
      <defs>
       <path d="M 34.1875 63.1875 
L 20.796875 26.90625 
L 47.609375 26.90625 
z
M 28.609375 72.90625 
L 39.796875 72.90625 
L 67.578125 0 
L 57.328125 0 
L 50.6875 18.703125 
L 17.828125 18.703125 
L 11.1875 0 
L 0.78125 0 
z
" id="DejaVuSans-65"/>
      </defs>
      <use xlink:href="#DejaVuSans-65"/>
      <use x="68.408203" xlink:href="#DejaVuSans-114"/>
      <use x="107.771484" xlink:href="#DejaVuSans-58"/>
      <use x="141.462891" xlink:href="#DejaVuSans-32"/>
      <use x="173.25" xlink:href="#DejaVuSans-48"/>
      <use x="236.873047" xlink:href="#DejaVuSans-46"/>
      <use x="268.660156" xlink:href="#DejaVuSans-57"/>
      <use x="332.283203" xlink:href="#DejaVuSans-57"/>
      <use x="395.90625" xlink:href="#DejaVuSans-53"/>
      <use x="459.529297" xlink:href="#DejaVuSans-54"/>
      <use x="523.152344" xlink:href="#DejaVuSans-48"/>
      <use x="586.775391" xlink:href="#DejaVuSans-53"/>
      <use x="650.398438" xlink:href="#DejaVuSans-57"/>
      <use x="714.021484" xlink:href="#DejaVuSans-53"/>
      <use x="777.644531" xlink:href="#DejaVuSans-53"/>
      <use x="841.267578" xlink:href="#DejaVuSans-50"/>
     </g>
    </g>
   </g>
  </g>
 </g>
 <defs>
  <clipPath id="p8307d1c71b">
   <rect height="266.112" width="357.12" x="46.965625" y="22.318125"/>
  </clipPath>
 </defs>
</svg>
