<?xml version="1.0" encoding="utf-8" standalone="no"?>
<!DOCTYPE svg PUBLIC "-//W3C//DTD SVG 1.1//EN"
  "http://www.w3.org/Graphics/SVG/1.1/DTD/svg11.dtd">
<!-- Created with matplotlib (https://matplotlib.org/) -->
<svg height="325.986375pt" version="1.1" viewBox="0 0 411.285625 325.986375" width="411.285625pt" xmlns="http://www.w3.org/2000/svg" xmlns:xlink="http://www.w3.org/1999/xlink">
 <metadata>
  <rdf:RDF xmlns:cc="http://creativecommons.org/ns#" xmlns:dc="http://purl.org/dc/elements/1.1/" xmlns:rdf="http://www.w3.org/1999/02/22-rdf-syntax-ns#">
   <cc:Work>
    <dc:type rdf:resource="http://purl.org/dc/dcmitype/StillImage"/>
    <dc:date>2022-12-10T02:50:41.259981</dc:date>
    <dc:format>image/svg+xml</dc:format>
    <dc:creator>
     <cc:Agent>
      <dc:title>Matplotlib v3.3.1, https://matplotlib.org/</dc:title>
     </cc:Agent>
    </dc:creator>
   </cc:Work>
  </rdf:RDF>
 </metadata>
 <defs>
  <style type="text/css">*{stroke-linecap:butt;stroke-linejoin:round;}</style>
 </defs>
 <g id="figure_1">
  <g id="patch_1">
   <path d="M 0 325.986375 
L 411.285625 325.986375 
L 411.285625 0 
L 0 0 
z
" style="fill:none;"/>
  </g>
  <g id="axes_1">
   <g id="patch_2">
    <path d="M 46.965625 288.430125 
L 404.085625 288.430125 
L 404.085625 22.318125 
L 46.965625 22.318125 
z
" style="fill:none;"/>
   </g>
   <g id="matplotlib.axis_1">
    <g id="xtick_1">
     <g id="line2d_1">
      <defs>
       <path d="M 0 0 
L 0 3.5 
" id="m1f197be15d" style="stroke:#000000;stroke-width:0.8;"/>
      </defs>
      <g>
       <use style="stroke:#000000;stroke-width:0.8;" x="63.198352" xlink:href="#m1f197be15d" y="288.430125"/>
      </g>
     </g>
     <g id="text_1">
      <!-- 0.000 -->
      <g transform="translate(48.88429 303.028562)scale(0.1 -0.1)">
       <defs>
        <path d="M 31.78125 66.40625 
Q 24.171875 66.40625 20.328125 58.90625 
Q 16.5 51.421875 16.5 36.375 
Q 16.5 21.390625 20.328125 13.890625 
Q 24.171875 6.390625 31.78125 6.390625 
Q 39.453125 6.390625 43.28125 13.890625 
Q 47.125 21.390625 47.125 36.375 
Q 47.125 51.421875 43.28125 58.90625 
Q 39.453125 66.40625 31.78125 66.40625 
z
M 31.78125 74.21875 
Q 44.046875 74.21875 50.515625 64.515625 
Q 56.984375 54.828125 56.984375 36.375 
Q 56.984375 17.96875 50.515625 8.265625 
Q 44.046875 -1.421875 31.78125 -1.421875 
Q 19.53125 -1.421875 13.0625 8.265625 
Q 6.59375 17.96875 6.59375 36.375 
Q 6.59375 54.828125 13.0625 64.515625 
Q 19.53125 74.21875 31.78125 74.21875 
z
" id="DejaVuSans-48"/>
        <path d="M 10.6875 12.40625 
L 21 12.40625 
L 21 0 
L 10.6875 0 
z
" id="DejaVuSans-46"/>
       </defs>
       <use xlink:href="#DejaVuSans-48"/>
       <use x="63.623047" xlink:href="#DejaVuSans-46"/>
       <use x="95.410156" xlink:href="#DejaVuSans-48"/>
       <use x="159.033203" xlink:href="#DejaVuSans-48"/>
       <use x="222.65625" xlink:href="#DejaVuSans-48"/>
      </g>
     </g>
    </g>
    <g id="xtick_2">
     <g id="line2d_2">
      <g>
       <use style="stroke:#000000;stroke-width:0.8;" x="103.489663" xlink:href="#m1f197be15d" y="288.430125"/>
      </g>
     </g>
     <g id="text_2">
      <!-- 0.025 -->
      <g transform="translate(89.175601 303.028562)scale(0.1 -0.1)">
       <defs>
        <path d="M 19.1875 8.296875 
L 53.609375 8.296875 
L 53.609375 0 
L 7.328125 0 
L 7.328125 8.296875 
Q 12.9375 14.109375 22.625 23.890625 
Q 32.328125 33.6875 34.8125 36.53125 
Q 39.546875 41.84375 41.421875 45.53125 
Q 43.3125 49.21875 43.3125 52.78125 
Q 43.3125 58.59375 39.234375 62.25 
Q 35.15625 65.921875 28.609375 65.921875 
Q 23.96875 65.921875 18.8125 64.3125 
Q 13.671875 62.703125 7.8125 59.421875 
L 7.8125 69.390625 
Q 13.765625 71.78125 18.9375 73 
Q 24.125 74.21875 28.421875 74.21875 
Q 39.75 74.21875 46.484375 68.546875 
Q 53.21875 62.890625 53.21875 53.421875 
Q 53.21875 48.921875 51.53125 44.890625 
Q 49.859375 40.875 45.40625 35.40625 
Q 44.1875 33.984375 37.640625 27.21875 
Q 31.109375 20.453125 19.1875 8.296875 
z
" id="DejaVuSans-50"/>
        <path d="M 10.796875 72.90625 
L 49.515625 72.90625 
L 49.515625 64.59375 
L 19.828125 64.59375 
L 19.828125 46.734375 
Q 21.96875 47.46875 24.109375 47.828125 
Q 26.265625 48.1875 28.421875 48.1875 
Q 40.625 48.1875 47.75 41.5 
Q 54.890625 34.8125 54.890625 23.390625 
Q 54.890625 11.625 47.5625 5.09375 
Q 40.234375 -1.421875 26.90625 -1.421875 
Q 22.3125 -1.421875 17.546875 -0.640625 
Q 12.796875 0.140625 7.71875 1.703125 
L 7.71875 11.625 
Q 12.109375 9.234375 16.796875 8.0625 
Q 21.484375 6.890625 26.703125 6.890625 
Q 35.15625 6.890625 40.078125 11.328125 
Q 45.015625 15.765625 45.015625 23.390625 
Q 45.015625 31 40.078125 35.4375 
Q 35.15625 39.890625 26.703125 39.890625 
Q 22.75 39.890625 18.8125 39.015625 
Q 14.890625 38.140625 10.796875 36.28125 
z
" id="DejaVuSans-53"/>
       </defs>
       <use xlink:href="#DejaVuSans-48"/>
       <use x="63.623047" xlink:href="#DejaVuSans-46"/>
       <use x="95.410156" xlink:href="#DejaVuSans-48"/>
       <use x="159.033203" xlink:href="#DejaVuSans-50"/>
       <use x="222.65625" xlink:href="#DejaVuSans-53"/>
      </g>
     </g>
    </g>
    <g id="xtick_3">
     <g id="line2d_3">
      <g>
       <use style="stroke:#000000;stroke-width:0.8;" x="143.780974" xlink:href="#m1f197be15d" y="288.430125"/>
      </g>
     </g>
     <g id="text_3">
      <!-- 0.050 -->
      <g transform="translate(129.466912 303.028562)scale(0.1 -0.1)">
       <use xlink:href="#DejaVuSans-48"/>
       <use x="63.623047" xlink:href="#DejaVuSans-46"/>
       <use x="95.410156" xlink:href="#DejaVuSans-48"/>
       <use x="159.033203" xlink:href="#DejaVuSans-53"/>
       <use x="222.65625" xlink:href="#DejaVuSans-48"/>
      </g>
     </g>
    </g>
    <g id="xtick_4">
     <g id="line2d_4">
      <g>
       <use style="stroke:#000000;stroke-width:0.8;" x="184.072285" xlink:href="#m1f197be15d" y="288.430125"/>
      </g>
     </g>
     <g id="text_4">
      <!-- 0.075 -->
      <g transform="translate(169.758223 303.028562)scale(0.1 -0.1)">
       <defs>
        <path d="M 8.203125 72.90625 
L 55.078125 72.90625 
L 55.078125 68.703125 
L 28.609375 0 
L 18.3125 0 
L 43.21875 64.59375 
L 8.203125 64.59375 
z
" id="DejaVuSans-55"/>
       </defs>
       <use xlink:href="#DejaVuSans-48"/>
       <use x="63.623047" xlink:href="#DejaVuSans-46"/>
       <use x="95.410156" xlink:href="#DejaVuSans-48"/>
       <use x="159.033203" xlink:href="#DejaVuSans-55"/>
       <use x="222.65625" xlink:href="#DejaVuSans-53"/>
      </g>
     </g>
    </g>
    <g id="xtick_5">
     <g id="line2d_5">
      <g>
       <use style="stroke:#000000;stroke-width:0.8;" x="224.363596" xlink:href="#m1f197be15d" y="288.430125"/>
      </g>
     </g>
     <g id="text_5">
      <!-- 0.100 -->
      <g transform="translate(210.049534 303.028562)scale(0.1 -0.1)">
       <defs>
        <path d="M 12.40625 8.296875 
L 28.515625 8.296875 
L 28.515625 63.921875 
L 10.984375 60.40625 
L 10.984375 69.390625 
L 28.421875 72.90625 
L 38.28125 72.90625 
L 38.28125 8.296875 
L 54.390625 8.296875 
L 54.390625 0 
L 12.40625 0 
z
" id="DejaVuSans-49"/>
       </defs>
       <use xlink:href="#DejaVuSans-48"/>
       <use x="63.623047" xlink:href="#DejaVuSans-46"/>
       <use x="95.410156" xlink:href="#DejaVuSans-49"/>
       <use x="159.033203" xlink:href="#DejaVuSans-48"/>
       <use x="222.65625" xlink:href="#DejaVuSans-48"/>
      </g>
     </g>
    </g>
    <g id="xtick_6">
     <g id="line2d_6">
      <g>
       <use style="stroke:#000000;stroke-width:0.8;" x="264.654907" xlink:href="#m1f197be15d" y="288.430125"/>
      </g>
     </g>
     <g id="text_6">
      <!-- 0.125 -->
      <g transform="translate(250.340845 303.028562)scale(0.1 -0.1)">
       <use xlink:href="#DejaVuSans-48"/>
       <use x="63.623047" xlink:href="#DejaVuSans-46"/>
       <use x="95.410156" xlink:href="#DejaVuSans-49"/>
       <use x="159.033203" xlink:href="#DejaVuSans-50"/>
       <use x="222.65625" xlink:href="#DejaVuSans-53"/>
      </g>
     </g>
    </g>
    <g id="xtick_7">
     <g id="line2d_7">
      <g>
       <use style="stroke:#000000;stroke-width:0.8;" x="304.946218" xlink:href="#m1f197be15d" y="288.430125"/>
      </g>
     </g>
     <g id="text_7">
      <!-- 0.150 -->
      <g transform="translate(290.632155 303.028562)scale(0.1 -0.1)">
       <use xlink:href="#DejaVuSans-48"/>
       <use x="63.623047" xlink:href="#DejaVuSans-46"/>
       <use x="95.410156" xlink:href="#DejaVuSans-49"/>
       <use x="159.033203" xlink:href="#DejaVuSans-53"/>
       <use x="222.65625" xlink:href="#DejaVuSans-48"/>
      </g>
     </g>
    </g>
    <g id="xtick_8">
     <g id="line2d_8">
      <g>
       <use style="stroke:#000000;stroke-width:0.8;" x="345.237529" xlink:href="#m1f197be15d" y="288.430125"/>
      </g>
     </g>
     <g id="text_8">
      <!-- 0.175 -->
      <g transform="translate(330.923466 303.028562)scale(0.1 -0.1)">
       <use xlink:href="#DejaVuSans-48"/>
       <use x="63.623047" xlink:href="#DejaVuSans-46"/>
       <use x="95.410156" xlink:href="#DejaVuSans-49"/>
       <use x="159.033203" xlink:href="#DejaVuSans-55"/>
       <use x="222.65625" xlink:href="#DejaVuSans-53"/>
      </g>
     </g>
    </g>
    <g id="xtick_9">
     <g id="line2d_9">
      <g>
       <use style="stroke:#000000;stroke-width:0.8;" x="385.52884" xlink:href="#m1f197be15d" y="288.430125"/>
      </g>
     </g>
     <g id="text_9">
      <!-- 0.200 -->
      <g transform="translate(371.214777 303.028562)scale(0.1 -0.1)">
       <use xlink:href="#DejaVuSans-48"/>
       <use x="63.623047" xlink:href="#DejaVuSans-46"/>
       <use x="95.410156" xlink:href="#DejaVuSans-50"/>
       <use x="159.033203" xlink:href="#DejaVuSans-48"/>
       <use x="222.65625" xlink:href="#DejaVuSans-48"/>
      </g>
     </g>
    </g>
    <g id="text_10">
     <!-- Time (ms) -->
     <g transform="translate(200.326406 316.706687)scale(0.1 -0.1)">
      <defs>
       <path d="M -0.296875 72.90625 
L 61.375 72.90625 
L 61.375 64.59375 
L 35.5 64.59375 
L 35.5 0 
L 25.59375 0 
L 25.59375 64.59375 
L -0.296875 64.59375 
z
" id="DejaVuSans-84"/>
       <path d="M 9.421875 54.6875 
L 18.40625 54.6875 
L 18.40625 0 
L 9.421875 0 
z
M 9.421875 75.984375 
L 18.40625 75.984375 
L 18.40625 64.59375 
L 9.421875 64.59375 
z
" id="DejaVuSans-105"/>
       <path d="M 52 44.1875 
Q 55.375 50.25 60.0625 53.125 
Q 64.75 56 71.09375 56 
Q 79.640625 56 84.28125 50.015625 
Q 88.921875 44.046875 88.921875 33.015625 
L 88.921875 0 
L 79.890625 0 
L 79.890625 32.71875 
Q 79.890625 40.578125 77.09375 44.375 
Q 74.3125 48.1875 68.609375 48.1875 
Q 61.625 48.1875 57.5625 43.546875 
Q 53.515625 38.921875 53.515625 30.90625 
L 53.515625 0 
L 44.484375 0 
L 44.484375 32.71875 
Q 44.484375 40.625 41.703125 44.40625 
Q 38.921875 48.1875 33.109375 48.1875 
Q 26.21875 48.1875 22.15625 43.53125 
Q 18.109375 38.875 18.109375 30.90625 
L 18.109375 0 
L 9.078125 0 
L 9.078125 54.6875 
L 18.109375 54.6875 
L 18.109375 46.1875 
Q 21.1875 51.21875 25.484375 53.609375 
Q 29.78125 56 35.6875 56 
Q 41.65625 56 45.828125 52.96875 
Q 50 49.953125 52 44.1875 
z
" id="DejaVuSans-109"/>
       <path d="M 56.203125 29.59375 
L 56.203125 25.203125 
L 14.890625 25.203125 
Q 15.484375 15.921875 20.484375 11.0625 
Q 25.484375 6.203125 34.421875 6.203125 
Q 39.59375 6.203125 44.453125 7.46875 
Q 49.3125 8.734375 54.109375 11.28125 
L 54.109375 2.78125 
Q 49.265625 0.734375 44.1875 -0.34375 
Q 39.109375 -1.421875 33.890625 -1.421875 
Q 20.796875 -1.421875 13.15625 6.1875 
Q 5.515625 13.8125 5.515625 26.8125 
Q 5.515625 40.234375 12.765625 48.109375 
Q 20.015625 56 32.328125 56 
Q 43.359375 56 49.78125 48.890625 
Q 56.203125 41.796875 56.203125 29.59375 
z
M 47.21875 32.234375 
Q 47.125 39.59375 43.09375 43.984375 
Q 39.0625 48.390625 32.421875 48.390625 
Q 24.90625 48.390625 20.390625 44.140625 
Q 15.875 39.890625 15.1875 32.171875 
z
" id="DejaVuSans-101"/>
       <path id="DejaVuSans-32"/>
       <path d="M 31 75.875 
Q 24.46875 64.65625 21.28125 53.65625 
Q 18.109375 42.671875 18.109375 31.390625 
Q 18.109375 20.125 21.3125 9.0625 
Q 24.515625 -2 31 -13.1875 
L 23.1875 -13.1875 
Q 15.875 -1.703125 12.234375 9.375 
Q 8.59375 20.453125 8.59375 31.390625 
Q 8.59375 42.28125 12.203125 53.3125 
Q 15.828125 64.359375 23.1875 75.875 
z
" id="DejaVuSans-40"/>
       <path d="M 44.28125 53.078125 
L 44.28125 44.578125 
Q 40.484375 46.53125 36.375 47.5 
Q 32.28125 48.484375 27.875 48.484375 
Q 21.1875 48.484375 17.84375 46.4375 
Q 14.5 44.390625 14.5 40.28125 
Q 14.5 37.15625 16.890625 35.375 
Q 19.28125 33.59375 26.515625 31.984375 
L 29.59375 31.296875 
Q 39.15625 29.25 43.1875 25.515625 
Q 47.21875 21.78125 47.21875 15.09375 
Q 47.21875 7.46875 41.1875 3.015625 
Q 35.15625 -1.421875 24.609375 -1.421875 
Q 20.21875 -1.421875 15.453125 -0.5625 
Q 10.6875 0.296875 5.421875 2 
L 5.421875 11.28125 
Q 10.40625 8.6875 15.234375 7.390625 
Q 20.0625 6.109375 24.8125 6.109375 
Q 31.15625 6.109375 34.5625 8.28125 
Q 37.984375 10.453125 37.984375 14.40625 
Q 37.984375 18.0625 35.515625 20.015625 
Q 33.0625 21.96875 24.703125 23.78125 
L 21.578125 24.515625 
Q 13.234375 26.265625 9.515625 29.90625 
Q 5.8125 33.546875 5.8125 39.890625 
Q 5.8125 47.609375 11.28125 51.796875 
Q 16.75 56 26.8125 56 
Q 31.78125 56 36.171875 55.265625 
Q 40.578125 54.546875 44.28125 53.078125 
z
" id="DejaVuSans-115"/>
       <path d="M 8.015625 75.875 
L 15.828125 75.875 
Q 23.140625 64.359375 26.78125 53.3125 
Q 30.421875 42.28125 30.421875 31.390625 
Q 30.421875 20.453125 26.78125 9.375 
Q 23.140625 -1.703125 15.828125 -13.1875 
L 8.015625 -13.1875 
Q 14.5 -2 17.703125 9.0625 
Q 20.90625 20.125 20.90625 31.390625 
Q 20.90625 42.671875 17.703125 53.65625 
Q 14.5 64.65625 8.015625 75.875 
z
" id="DejaVuSans-41"/>
      </defs>
      <use xlink:href="#DejaVuSans-84"/>
      <use x="57.958984" xlink:href="#DejaVuSans-105"/>
      <use x="85.742188" xlink:href="#DejaVuSans-109"/>
      <use x="183.154297" xlink:href="#DejaVuSans-101"/>
      <use x="244.677734" xlink:href="#DejaVuSans-32"/>
      <use x="276.464844" xlink:href="#DejaVuSans-40"/>
      <use x="315.478516" xlink:href="#DejaVuSans-109"/>
      <use x="412.890625" xlink:href="#DejaVuSans-115"/>
      <use x="464.990234" xlink:href="#DejaVuSans-41"/>
     </g>
    </g>
   </g>
   <g id="matplotlib.axis_2">
    <g id="ytick_1">
     <g id="line2d_10">
      <defs>
       <path d="M 0 0 
L -3.5 0 
" id="m63f1c00c0e" style="stroke:#000000;stroke-width:0.8;"/>
      </defs>
      <g>
       <use style="stroke:#000000;stroke-width:0.8;" x="46.965625" xlink:href="#m63f1c00c0e" y="276.334125"/>
      </g>
     </g>
     <g id="text_11">
      <!-- 0 -->
      <g transform="translate(33.603125 280.133344)scale(0.1 -0.1)">
       <use xlink:href="#DejaVuSans-48"/>
      </g>
     </g>
    </g>
    <g id="ytick_2">
     <g id="line2d_11">
      <g>
       <use style="stroke:#000000;stroke-width:0.8;" x="46.965625" xlink:href="#m63f1c00c0e" y="243.13204"/>
      </g>
     </g>
     <g id="text_12">
      <!-- 100 -->
      <g transform="translate(20.878125 246.931259)scale(0.1 -0.1)">
       <use xlink:href="#DejaVuSans-49"/>
       <use x="63.623047" xlink:href="#DejaVuSans-48"/>
       <use x="127.246094" xlink:href="#DejaVuSans-48"/>
      </g>
     </g>
    </g>
    <g id="ytick_3">
     <g id="line2d_12">
      <g>
       <use style="stroke:#000000;stroke-width:0.8;" x="46.965625" xlink:href="#m63f1c00c0e" y="209.929956"/>
      </g>
     </g>
     <g id="text_13">
      <!-- 200 -->
      <g transform="translate(20.878125 213.729174)scale(0.1 -0.1)">
       <use xlink:href="#DejaVuSans-50"/>
       <use x="63.623047" xlink:href="#DejaVuSans-48"/>
       <use x="127.246094" xlink:href="#DejaVuSans-48"/>
      </g>
     </g>
    </g>
    <g id="ytick_4">
     <g id="line2d_13">
      <g>
       <use style="stroke:#000000;stroke-width:0.8;" x="46.965625" xlink:href="#m63f1c00c0e" y="176.727871"/>
      </g>
     </g>
     <g id="text_14">
      <!-- 300 -->
      <g transform="translate(20.878125 180.52709)scale(0.1 -0.1)">
       <defs>
        <path d="M 40.578125 39.3125 
Q 47.65625 37.796875 51.625 33 
Q 55.609375 28.21875 55.609375 21.1875 
Q 55.609375 10.40625 48.1875 4.484375 
Q 40.765625 -1.421875 27.09375 -1.421875 
Q 22.515625 -1.421875 17.65625 -0.515625 
Q 12.796875 0.390625 7.625 2.203125 
L 7.625 11.71875 
Q 11.71875 9.328125 16.59375 8.109375 
Q 21.484375 6.890625 26.8125 6.890625 
Q 36.078125 6.890625 40.9375 10.546875 
Q 45.796875 14.203125 45.796875 21.1875 
Q 45.796875 27.640625 41.28125 31.265625 
Q 36.765625 34.90625 28.71875 34.90625 
L 20.21875 34.90625 
L 20.21875 43.015625 
L 29.109375 43.015625 
Q 36.375 43.015625 40.234375 45.921875 
Q 44.09375 48.828125 44.09375 54.296875 
Q 44.09375 59.90625 40.109375 62.90625 
Q 36.140625 65.921875 28.71875 65.921875 
Q 24.65625 65.921875 20.015625 65.03125 
Q 15.375 64.15625 9.8125 62.3125 
L 9.8125 71.09375 
Q 15.4375 72.65625 20.34375 73.4375 
Q 25.25 74.21875 29.59375 74.21875 
Q 40.828125 74.21875 47.359375 69.109375 
Q 53.90625 64.015625 53.90625 55.328125 
Q 53.90625 49.265625 50.4375 45.09375 
Q 46.96875 40.921875 40.578125 39.3125 
z
" id="DejaVuSans-51"/>
       </defs>
       <use xlink:href="#DejaVuSans-51"/>
       <use x="63.623047" xlink:href="#DejaVuSans-48"/>
       <use x="127.246094" xlink:href="#DejaVuSans-48"/>
      </g>
     </g>
    </g>
    <g id="ytick_5">
     <g id="line2d_14">
      <g>
       <use style="stroke:#000000;stroke-width:0.8;" x="46.965625" xlink:href="#m63f1c00c0e" y="143.525786"/>
      </g>
     </g>
     <g id="text_15">
      <!-- 400 -->
      <g transform="translate(20.878125 147.325005)scale(0.1 -0.1)">
       <defs>
        <path d="M 37.796875 64.3125 
L 12.890625 25.390625 
L 37.796875 25.390625 
z
M 35.203125 72.90625 
L 47.609375 72.90625 
L 47.609375 25.390625 
L 58.015625 25.390625 
L 58.015625 17.1875 
L 47.609375 17.1875 
L 47.609375 0 
L 37.796875 0 
L 37.796875 17.1875 
L 4.890625 17.1875 
L 4.890625 26.703125 
z
" id="DejaVuSans-52"/>
       </defs>
       <use xlink:href="#DejaVuSans-52"/>
       <use x="63.623047" xlink:href="#DejaVuSans-48"/>
       <use x="127.246094" xlink:href="#DejaVuSans-48"/>
      </g>
     </g>
    </g>
    <g id="ytick_6">
     <g id="line2d_15">
      <g>
       <use style="stroke:#000000;stroke-width:0.8;" x="46.965625" xlink:href="#m63f1c00c0e" y="110.323702"/>
      </g>
     </g>
     <g id="text_16">
      <!-- 500 -->
      <g transform="translate(20.878125 114.12292)scale(0.1 -0.1)">
       <use xlink:href="#DejaVuSans-53"/>
       <use x="63.623047" xlink:href="#DejaVuSans-48"/>
       <use x="127.246094" xlink:href="#DejaVuSans-48"/>
      </g>
     </g>
    </g>
    <g id="ytick_7">
     <g id="line2d_16">
      <g>
       <use style="stroke:#000000;stroke-width:0.8;" x="46.965625" xlink:href="#m63f1c00c0e" y="77.121617"/>
      </g>
     </g>
     <g id="text_17">
      <!-- 600 -->
      <g transform="translate(20.878125 80.920836)scale(0.1 -0.1)">
       <defs>
        <path d="M 33.015625 40.375 
Q 26.375 40.375 22.484375 35.828125 
Q 18.609375 31.296875 18.609375 23.390625 
Q 18.609375 15.53125 22.484375 10.953125 
Q 26.375 6.390625 33.015625 6.390625 
Q 39.65625 6.390625 43.53125 10.953125 
Q 47.40625 15.53125 47.40625 23.390625 
Q 47.40625 31.296875 43.53125 35.828125 
Q 39.65625 40.375 33.015625 40.375 
z
M 52.59375 71.296875 
L 52.59375 62.3125 
Q 48.875 64.0625 45.09375 64.984375 
Q 41.3125 65.921875 37.59375 65.921875 
Q 27.828125 65.921875 22.671875 59.328125 
Q 17.53125 52.734375 16.796875 39.40625 
Q 19.671875 43.65625 24.015625 45.921875 
Q 28.375 48.1875 33.59375 48.1875 
Q 44.578125 48.1875 50.953125 41.515625 
Q 57.328125 34.859375 57.328125 23.390625 
Q 57.328125 12.15625 50.6875 5.359375 
Q 44.046875 -1.421875 33.015625 -1.421875 
Q 20.359375 -1.421875 13.671875 8.265625 
Q 6.984375 17.96875 6.984375 36.375 
Q 6.984375 53.65625 15.1875 63.9375 
Q 23.390625 74.21875 37.203125 74.21875 
Q 40.921875 74.21875 44.703125 73.484375 
Q 48.484375 72.75 52.59375 71.296875 
z
" id="DejaVuSans-54"/>
       </defs>
       <use xlink:href="#DejaVuSans-54"/>
       <use x="63.623047" xlink:href="#DejaVuSans-48"/>
       <use x="127.246094" xlink:href="#DejaVuSans-48"/>
      </g>
     </g>
    </g>
    <g id="ytick_8">
     <g id="line2d_17">
      <g>
       <use style="stroke:#000000;stroke-width:0.8;" x="46.965625" xlink:href="#m63f1c00c0e" y="43.919532"/>
      </g>
     </g>
     <g id="text_18">
      <!-- 700 -->
      <g transform="translate(20.878125 47.718751)scale(0.1 -0.1)">
       <use xlink:href="#DejaVuSans-55"/>
       <use x="63.623047" xlink:href="#DejaVuSans-48"/>
       <use x="127.246094" xlink:href="#DejaVuSans-48"/>
      </g>
     </g>
    </g>
    <g id="text_19">
     <!-- OH ppm -->
     <g transform="translate(14.798438 175.878031)rotate(-90)scale(0.1 -0.1)">
      <defs>
       <path d="M 39.40625 66.21875 
Q 28.65625 66.21875 22.328125 58.203125 
Q 16.015625 50.203125 16.015625 36.375 
Q 16.015625 22.609375 22.328125 14.59375 
Q 28.65625 6.59375 39.40625 6.59375 
Q 50.140625 6.59375 56.421875 14.59375 
Q 62.703125 22.609375 62.703125 36.375 
Q 62.703125 50.203125 56.421875 58.203125 
Q 50.140625 66.21875 39.40625 66.21875 
z
M 39.40625 74.21875 
Q 54.734375 74.21875 63.90625 63.9375 
Q 73.09375 53.65625 73.09375 36.375 
Q 73.09375 19.140625 63.90625 8.859375 
Q 54.734375 -1.421875 39.40625 -1.421875 
Q 24.03125 -1.421875 14.8125 8.828125 
Q 5.609375 19.09375 5.609375 36.375 
Q 5.609375 53.65625 14.8125 63.9375 
Q 24.03125 74.21875 39.40625 74.21875 
z
" id="DejaVuSans-79"/>
       <path d="M 9.8125 72.90625 
L 19.671875 72.90625 
L 19.671875 43.015625 
L 55.515625 43.015625 
L 55.515625 72.90625 
L 65.375 72.90625 
L 65.375 0 
L 55.515625 0 
L 55.515625 34.71875 
L 19.671875 34.71875 
L 19.671875 0 
L 9.8125 0 
z
" id="DejaVuSans-72"/>
       <path d="M 18.109375 8.203125 
L 18.109375 -20.796875 
L 9.078125 -20.796875 
L 9.078125 54.6875 
L 18.109375 54.6875 
L 18.109375 46.390625 
Q 20.953125 51.265625 25.265625 53.625 
Q 29.59375 56 35.59375 56 
Q 45.5625 56 51.78125 48.09375 
Q 58.015625 40.1875 58.015625 27.296875 
Q 58.015625 14.40625 51.78125 6.484375 
Q 45.5625 -1.421875 35.59375 -1.421875 
Q 29.59375 -1.421875 25.265625 0.953125 
Q 20.953125 3.328125 18.109375 8.203125 
z
M 48.6875 27.296875 
Q 48.6875 37.203125 44.609375 42.84375 
Q 40.53125 48.484375 33.40625 48.484375 
Q 26.265625 48.484375 22.1875 42.84375 
Q 18.109375 37.203125 18.109375 27.296875 
Q 18.109375 17.390625 22.1875 11.75 
Q 26.265625 6.109375 33.40625 6.109375 
Q 40.53125 6.109375 44.609375 11.75 
Q 48.6875 17.390625 48.6875 27.296875 
z
" id="DejaVuSans-112"/>
      </defs>
      <use xlink:href="#DejaVuSans-79"/>
      <use x="78.710938" xlink:href="#DejaVuSans-72"/>
      <use x="153.90625" xlink:href="#DejaVuSans-32"/>
      <use x="185.693359" xlink:href="#DejaVuSans-112"/>
      <use x="249.169922" xlink:href="#DejaVuSans-112"/>
      <use x="312.646484" xlink:href="#DejaVuSans-109"/>
     </g>
    </g>
   </g>
   <g id="line2d_18">
    <path clip-path="url(#p98425fe652)" d="M 63.198352 276.334125 
L 64.208957 235.744058 
L 65.177261 204.773914 
L 66.145566 180.598055 
L 67.033178 163.599527 
L 67.8426 151.764862 
L 68.694244 142.474535 
L 69.424225 136.649173 
L 70.154205 132.437856 
L 70.762522 129.943376 
L 71.496718 127.931423 
L 72.047365 127.009341 
L 72.598012 126.497621 
L 73.148659 126.325248 
L 73.699307 126.431492 
L 74.249954 126.76478 
L 74.98415 127.488108 
L 75.901895 128.725369 
L 77.186738 130.863139 
L 79.389326 135.053315 
L 84.083738 144.077175 
L 86.976085 149.105465 
L 89.58771 153.235876 
L 92.634606 157.613747 
L 95.815143 161.756741 
L 98.94622 165.487173 
L 102.300343 169.172445 
L 105.992 172.926937 
L 110.298933 176.984577 
L 115.070241 181.152395 
L 119.943219 185.1197 
L 125.582362 189.409592 
L 131.090323 193.336594 
L 137.366845 197.539773 
L 144.221177 201.839859 
L 151.075508 205.867796 
L 157.92984 209.643633 
L 164.784171 213.179331 
L 171.638502 216.481762 
L 178.492834 219.555216 
L 185.347165 222.403387 
L 192.201496 225.0308 
L 199.055828 227.443659 
L 206.889349 229.949105 
L 214.722871 232.200371 
L 222.556392 234.215295 
L 230.389914 236.013325 
L 239.202626 237.801857 
L 248.015337 239.369544 
L 256.836948 240.744526 
L 267.134019 242.136597 
L 278.902099 243.489441 
L 292.141189 244.761065 
L 306.85129 245.924264 
L 323.12633 246.970981 
L 340.903691 247.892756 
L 363.125391 248.802642 
L 387.852898 249.58641 
L 387.852898 249.58641 
" style="fill:none;stroke:#0000ff;stroke-linecap:square;stroke-width:1.5;"/>
   </g>
   <g id="line2d_19">
    <path clip-path="url(#p98425fe652)" d="M 63.198352 276.334125 
L 64.346041 220.042924 
L 65.554552 171.178465 
L 66.642213 135.540966 
L 67.729874 107.009058 
L 68.696683 86.929228 
L 69.663493 71.166164 
L 70.630302 59.088897 
L 71.479802 51.040455 
L 72.390614 44.626294 
L 73.119263 40.871993 
L 73.847912 38.137624 
L 74.576562 36.259034 
L 75.123049 35.325279 
L 75.669536 34.739869 
L 76.216022 34.456182 
L 76.762509 34.433013 
L 77.308996 34.634079 
L 77.855483 35.027524 
L 78.684313 35.930027 
L 79.78942 37.583406 
L 81.170803 40.165415 
L 83.104739 44.371503 
L 86.420058 52.268021 
L 92.29971 66.254396 
L 96.37974 75.313361 
L 100.45977 83.76954 
L 104.631746 91.856342 
L 108.94623 99.71359 
L 113.277434 107.170383 
L 118.096217 115.046404 
L 123.657471 123.678554 
L 129.493972 132.288942 
L 135.330472 140.485432 
L 141.166973 148.282687 
L 147.003474 155.673868 
L 152.110412 161.794462 
L 157.217351 167.578302 
L 162.324289 173.015885 
L 167.431227 178.102939 
L 172.538165 182.841239 
L 177.645103 187.238368 
L 182.752042 191.306816 
L 187.85898 195.062772 
L 192.965918 198.524866 
L 198.072856 201.713059 
L 203.179795 204.647724 
L 208.286733 207.348963 
L 213.781161 210.016633 
L 219.275589 212.459232 
L 225.868903 215.122813 
L 232.462217 217.525657 
L 239.055531 219.697281 
L 246.74773 221.973276 
L 255.003672 224.146442 
L 263.316812 226.090307 
L 271.629952 227.821979 
L 281.60572 229.659082 
L 291.581488 231.271337 
L 301.557256 232.692153 
L 314.21081 234.261765 
L 326.864363 235.613379 
L 342.048627 236.998579 
L 358.572528 238.266886 
L 377.924269 239.499367 
L 385.664965 239.929045 
L 385.664965 239.929045 
" style="fill:none;stroke:#ff0000;stroke-linecap:square;stroke-width:1.5;"/>
   </g>
   <g id="line2d_20">
    <defs>
     <path d="M 0 3 
C 0.795609 3 1.55874 2.683901 2.12132 2.12132 
C 2.683901 1.55874 3 0.795609 3 0 
C 3 -0.795609 2.683901 -1.55874 2.12132 -2.12132 
C 1.55874 -2.683901 0.795609 -3 0 -3 
C -0.795609 -3 -1.55874 -2.683901 -2.12132 -2.12132 
C -2.683901 -1.55874 -3 -0.795609 -3 0 
C -3 0.795609 -2.683901 1.55874 -2.12132 2.12132 
C -1.55874 2.683901 -0.795609 3 0 3 
z
" id="m2dcdd3f175" style="stroke:#000000;"/>
    </defs>
    <g clip-path="url(#p98425fe652)">
     <use style="stroke:#000000;" x="64.487674" xlink:href="#m2dcdd3f175" y="198.110013"/>
     <use style="stroke:#000000;" x="66.099327" xlink:href="#m2dcdd3f175" y="168.722848"/>
     <use style="stroke:#000000;" x="67.710979" xlink:href="#m2dcdd3f175" y="144.299395"/>
     <use style="stroke:#000000;" x="69.322632" xlink:href="#m2dcdd3f175" y="128.276069"/>
     <use style="stroke:#000000;" x="70.934284" xlink:href="#m2dcdd3f175" y="125.649784"/>
     <use style="stroke:#000000;" x="72.545936" xlink:href="#m2dcdd3f175" y="124.939259"/>
     <use style="stroke:#000000;" x="74.157589" xlink:href="#m2dcdd3f175" y="126.088051"/>
     <use style="stroke:#000000;" x="75.769241" xlink:href="#m2dcdd3f175" y="128.697735"/>
     <use style="stroke:#000000;" x="77.380894" xlink:href="#m2dcdd3f175" y="131.519912"/>
     <use style="stroke:#000000;" x="78.992546" xlink:href="#m2dcdd3f175" y="134.879963"/>
     <use style="stroke:#000000;" x="80.604199" xlink:href="#m2dcdd3f175" y="137.888072"/>
     <use style="stroke:#000000;" x="82.215851" xlink:href="#m2dcdd3f175" y="141.048911"/>
     <use style="stroke:#000000;" x="83.827503" xlink:href="#m2dcdd3f175" y="143.572269"/>
     <use style="stroke:#000000;" x="85.439156" xlink:href="#m2dcdd3f175" y="145.989381"/>
     <use style="stroke:#000000;" x="87.050808" xlink:href="#m2dcdd3f175" y="148.705311"/>
     <use style="stroke:#000000;" x="88.662461" xlink:href="#m2dcdd3f175" y="151.092541"/>
     <use style="stroke:#000000;" x="90.274113" xlink:href="#m2dcdd3f175" y="153.29716"/>
     <use style="stroke:#000000;" x="91.885766" xlink:href="#m2dcdd3f175" y="155.319167"/>
     <use style="stroke:#000000;" x="93.497418" xlink:href="#m2dcdd3f175" y="157.384336"/>
     <use style="stroke:#000000;" x="95.109071" xlink:href="#m2dcdd3f175" y="159.024519"/>
     <use style="stroke:#000000;" x="96.720723" xlink:href="#m2dcdd3f175" y="160.970162"/>
     <use style="stroke:#000000;" x="98.332375" xlink:href="#m2dcdd3f175" y="162.474216"/>
     <use style="stroke:#000000;" x="99.944028" xlink:href="#m2dcdd3f175" y="164.011472"/>
     <use style="stroke:#000000;" x="101.55568" xlink:href="#m2dcdd3f175" y="165.4126"/>
     <use style="stroke:#000000;" x="103.167333" xlink:href="#m2dcdd3f175" y="166.949857"/>
     <use style="stroke:#000000;" x="104.778985" xlink:href="#m2dcdd3f175" y="168.27794"/>
     <use style="stroke:#000000;" x="106.390638" xlink:href="#m2dcdd3f175" y="169.499777"/>
     <use style="stroke:#000000;" x="108.00229" xlink:href="#m2dcdd3f175" y="170.711653"/>
     <use style="stroke:#000000;" x="109.613942" xlink:href="#m2dcdd3f175" y="171.910248"/>
     <use style="stroke:#000000;" x="111.225595" xlink:href="#m2dcdd3f175" y="173.274854"/>
     <use style="stroke:#000000;" x="112.837247" xlink:href="#m2dcdd3f175" y="174.453528"/>
     <use style="stroke:#000000;" x="114.4489" xlink:href="#m2dcdd3f175" y="175.525955"/>
     <use style="stroke:#000000;" x="116.060552" xlink:href="#m2dcdd3f175" y="176.830797"/>
     <use style="stroke:#000000;" x="117.672205" xlink:href="#m2dcdd3f175" y="178.15224"/>
     <use style="stroke:#000000;" x="119.283857" xlink:href="#m2dcdd3f175" y="179.453762"/>
     <use style="stroke:#000000;" x="120.89551" xlink:href="#m2dcdd3f175" y="180.53947"/>
     <use style="stroke:#000000;" x="122.507162" xlink:href="#m2dcdd3f175" y="181.764627"/>
     <use style="stroke:#000000;" x="124.118814" xlink:href="#m2dcdd3f175" y="182.983144"/>
     <use style="stroke:#000000;" x="125.730467" xlink:href="#m2dcdd3f175" y="184.244823"/>
     <use style="stroke:#000000;" x="127.342119" xlink:href="#m2dcdd3f175" y="185.31393"/>
     <use style="stroke:#000000;" x="128.953772" xlink:href="#m2dcdd3f175" y="186.280111"/>
     <use style="stroke:#000000;" x="130.565424" xlink:href="#m2dcdd3f175" y="187.491987"/>
     <use style="stroke:#000000;" x="132.177077" xlink:href="#m2dcdd3f175" y="188.388443"/>
     <use style="stroke:#000000;" x="133.788729" xlink:href="#m2dcdd3f175" y="189.364584"/>
     <use style="stroke:#000000;" x="135.400381" xlink:href="#m2dcdd3f175" y="190.463573"/>
     <use style="stroke:#000000;" x="137.012034" xlink:href="#m2dcdd3f175" y="191.403192"/>
     <use style="stroke:#000000;" x="138.623686" xlink:href="#m2dcdd3f175" y="192.276407"/>
     <use style="stroke:#000000;" x="140.235339" xlink:href="#m2dcdd3f175" y="193.302352"/>
     <use style="stroke:#000000;" x="141.846991" xlink:href="#m2dcdd3f175" y="194.281813"/>
     <use style="stroke:#000000;" x="143.458644" xlink:href="#m2dcdd3f175" y="195.417324"/>
     <use style="stroke:#000000;" x="145.070296" xlink:href="#m2dcdd3f175" y="196.46983"/>
     <use style="stroke:#000000;" x="146.681949" xlink:href="#m2dcdd3f175" y="197.525657"/>
     <use style="stroke:#000000;" x="148.293601" xlink:href="#m2dcdd3f175" y="198.720932"/>
     <use style="stroke:#000000;" x="149.905253" xlink:href="#m2dcdd3f175" y="199.65059"/>
     <use style="stroke:#000000;" x="151.516906" xlink:href="#m2dcdd3f175" y="200.573608"/>
     <use style="stroke:#000000;" x="153.128558" xlink:href="#m2dcdd3f175" y="201.782164"/>
     <use style="stroke:#000000;" x="154.740211" xlink:href="#m2dcdd3f175" y="202.857912"/>
     <use style="stroke:#000000;" x="156.351863" xlink:href="#m2dcdd3f175" y="203.857294"/>
     <use style="stroke:#000000;" x="157.963516" xlink:href="#m2dcdd3f175" y="204.859997"/>
     <use style="stroke:#000000;" x="159.575168" xlink:href="#m2dcdd3f175" y="205.783015"/>
     <use style="stroke:#000000;" x="161.186821" xlink:href="#m2dcdd3f175" y="206.566584"/>
     <use style="stroke:#000000;" x="162.798473" xlink:href="#m2dcdd3f175" y="207.569287"/>
     <use style="stroke:#000000;" x="164.410125" xlink:href="#m2dcdd3f175" y="208.479025"/>
     <use style="stroke:#000000;" x="166.021778" xlink:href="#m2dcdd3f175" y="209.382121"/>
     <use style="stroke:#000000;" x="167.63343" xlink:href="#m2dcdd3f175" y="210.15905"/>
     <use style="stroke:#000000;" x="169.245083" xlink:href="#m2dcdd3f175" y="210.902777"/>
     <use style="stroke:#000000;" x="170.856735" xlink:href="#m2dcdd3f175" y="211.978524"/>
     <use style="stroke:#000000;" x="172.468388" xlink:href="#m2dcdd3f175" y="212.672448"/>
     <use style="stroke:#000000;" x="174.08004" xlink:href="#m2dcdd3f175" y="213.542342"/>
     <use style="stroke:#000000;" x="175.691692" xlink:href="#m2dcdd3f175" y="214.498562"/>
     <use style="stroke:#000000;" x="177.303345" xlink:href="#m2dcdd3f175" y="215.285452"/>
     <use style="stroke:#000000;" x="178.914997" xlink:href="#m2dcdd3f175" y="216.158667"/>
     <use style="stroke:#000000;" x="180.52665" xlink:href="#m2dcdd3f175" y="216.819388"/>
     <use style="stroke:#000000;" x="182.138302" xlink:href="#m2dcdd3f175" y="217.569755"/>
     <use style="stroke:#000000;" x="183.749955" xlink:href="#m2dcdd3f175" y="218.243758"/>
     <use style="stroke:#000000;" x="185.361607" xlink:href="#m2dcdd3f175" y="219.033967"/>
     <use style="stroke:#000000;" x="186.97326" xlink:href="#m2dcdd3f175" y="219.671447"/>
     <use style="stroke:#000000;" x="188.584912" xlink:href="#m2dcdd3f175" y="220.308927"/>
     <use style="stroke:#000000;" x="190.196564" xlink:href="#m2dcdd3f175" y="221.112418"/>
     <use style="stroke:#000000;" x="191.808217" xlink:href="#m2dcdd3f175" y="221.773139"/>
     <use style="stroke:#000000;" x="193.419869" xlink:href="#m2dcdd3f175" y="222.357496"/>
     <use style="stroke:#000000;" x="195.031522" xlink:href="#m2dcdd3f175" y="223.121144"/>
     <use style="stroke:#000000;" x="196.643174" xlink:href="#m2dcdd3f175" y="223.725422"/>
     <use style="stroke:#000000;" x="198.254827" xlink:href="#m2dcdd3f175" y="224.33634"/>
     <use style="stroke:#000000;" x="199.866479" xlink:href="#m2dcdd3f175" y="224.841012"/>
     <use style="stroke:#000000;" x="201.478131" xlink:href="#m2dcdd3f175" y="225.275959"/>
     <use style="stroke:#000000;" x="203.089784" xlink:href="#m2dcdd3f175" y="225.880237"/>
     <use style="stroke:#000000;" x="204.701436" xlink:href="#m2dcdd3f175" y="226.414791"/>
     <use style="stroke:#000000;" x="206.313089" xlink:href="#m2dcdd3f175" y="226.836457"/>
     <use style="stroke:#000000;" x="207.924741" xlink:href="#m2dcdd3f175" y="227.374331"/>
     <use style="stroke:#000000;" x="209.536394" xlink:href="#m2dcdd3f175" y="227.83916"/>
     <use style="stroke:#000000;" x="211.148046" xlink:href="#m2dcdd3f175" y="228.277428"/>
     <use style="stroke:#000000;" x="212.759699" xlink:href="#m2dcdd3f175" y="228.719015"/>
     <use style="stroke:#000000;" x="214.371351" xlink:href="#m2dcdd3f175" y="229.316653"/>
     <use style="stroke:#000000;" x="215.983003" xlink:href="#m2dcdd3f175" y="229.847886"/>
     <use style="stroke:#000000;" x="217.594656" xlink:href="#m2dcdd3f175" y="230.399041"/>
     <use style="stroke:#000000;" x="219.206308" xlink:href="#m2dcdd3f175" y="230.760944"/>
     <use style="stroke:#000000;" x="220.817961" xlink:href="#m2dcdd3f175" y="231.209172"/>
     <use style="stroke:#000000;" x="222.429613" xlink:href="#m2dcdd3f175" y="231.773607"/>
     <use style="stroke:#000000;" x="224.041266" xlink:href="#m2dcdd3f175" y="232.165392"/>
     <use style="stroke:#000000;" x="225.652918" xlink:href="#m2dcdd3f175" y="232.490772"/>
     <use style="stroke:#000000;" x="227.26457" xlink:href="#m2dcdd3f175" y="232.93568"/>
     <use style="stroke:#000000;" x="228.876223" xlink:href="#m2dcdd3f175" y="233.294263"/>
     <use style="stroke:#000000;" x="230.487875" xlink:href="#m2dcdd3f175" y="233.686047"/>
     <use style="stroke:#000000;" x="232.099528" xlink:href="#m2dcdd3f175" y="234.101073"/>
     <use style="stroke:#000000;" x="233.71118" xlink:href="#m2dcdd3f175" y="234.323527"/>
     <use style="stroke:#000000;" x="235.322833" xlink:href="#m2dcdd3f175" y="234.655548"/>
     <use style="stroke:#000000;" x="236.934485" xlink:href="#m2dcdd3f175" y="235.040692"/>
     <use style="stroke:#000000;" x="238.546138" xlink:href="#m2dcdd3f175" y="235.498881"/>
     <use style="stroke:#000000;" x="240.15779" xlink:href="#m2dcdd3f175" y="235.947109"/>
     <use style="stroke:#000000;" x="241.769442" xlink:href="#m2dcdd3f175" y="236.235967"/>
     <use style="stroke:#000000;" x="243.381095" xlink:href="#m2dcdd3f175" y="236.494944"/>
     <use style="stroke:#000000;" x="244.992747" xlink:href="#m2dcdd3f175" y="236.740639"/>
     <use style="stroke:#000000;" x="246.6044" xlink:href="#m2dcdd3f175" y="237.135744"/>
     <use style="stroke:#000000;" x="248.216052" xlink:href="#m2dcdd3f175" y="237.510927"/>
     <use style="stroke:#000000;" x="249.827705" xlink:href="#m2dcdd3f175" y="237.759943"/>
     <use style="stroke:#000000;" x="251.439357" xlink:href="#m2dcdd3f175" y="237.972436"/>
     <use style="stroke:#000000;" x="253.051009" xlink:href="#m2dcdd3f175" y="238.238053"/>
     <use style="stroke:#000000;" x="254.662662" xlink:href="#m2dcdd3f175" y="238.457187"/>
     <use style="stroke:#000000;" x="256.274314" xlink:href="#m2dcdd3f175" y="238.560113"/>
     <use style="stroke:#000000;" x="257.885967" xlink:href="#m2dcdd3f175" y="238.799168"/>
     <use style="stroke:#000000;" x="259.497619" xlink:href="#m2dcdd3f175" y="239.14447"/>
     <use style="stroke:#000000;" x="261.109272" xlink:href="#m2dcdd3f175" y="239.313801"/>
     <use style="stroke:#000000;" x="262.720924" xlink:href="#m2dcdd3f175" y="239.609299"/>
     <use style="stroke:#000000;" x="264.332577" xlink:href="#m2dcdd3f175" y="239.805191"/>
     <use style="stroke:#000000;" x="265.944229" xlink:href="#m2dcdd3f175" y="240.070808"/>
     <use style="stroke:#000000;" x="267.555881" xlink:href="#m2dcdd3f175" y="240.2667"/>
     <use style="stroke:#000000;" x="269.167534" xlink:href="#m2dcdd3f175" y="240.58212"/>
     <use style="stroke:#000000;" x="270.779186" xlink:href="#m2dcdd3f175" y="240.817855"/>
     <use style="stroke:#000000;" x="272.390839" xlink:href="#m2dcdd3f175" y="240.993826"/>
     <use style="stroke:#000000;" x="274.002491" xlink:href="#m2dcdd3f175" y="241.05691"/>
     <use style="stroke:#000000;" x="275.614144" xlink:href="#m2dcdd3f175" y="241.272724"/>
     <use style="stroke:#000000;" x="277.225796" xlink:href="#m2dcdd3f175" y="241.54166"/>
     <use style="stroke:#000000;" x="278.837448" xlink:href="#m2dcdd3f175" y="241.724272"/>
     <use style="stroke:#000000;" x="280.449101" xlink:href="#m2dcdd3f175" y="241.963327"/>
     <use style="stroke:#000000;" x="282.060753" xlink:href="#m2dcdd3f175" y="242.129337"/>
     <use style="stroke:#000000;" x="283.672406" xlink:href="#m2dcdd3f175" y="242.258826"/>
     <use style="stroke:#000000;" x="285.284058" xlink:href="#m2dcdd3f175" y="242.404915"/>
     <use style="stroke:#000000;" x="286.895711" xlink:href="#m2dcdd3f175" y="242.65393"/>
     <use style="stroke:#000000;" x="288.507363" xlink:href="#m2dcdd3f175" y="242.776778"/>
     <use style="stroke:#000000;" x="290.119016" xlink:href="#m2dcdd3f175" y="242.889665"/>
     <use style="stroke:#000000;" x="291.730668" xlink:href="#m2dcdd3f175" y="243.075597"/>
     <use style="stroke:#000000;" x="293.34232" xlink:href="#m2dcdd3f175" y="243.190476"/>
     <use style="stroke:#000000;" x="294.953973" xlink:href="#m2dcdd3f175" y="243.26186"/>
     <use style="stroke:#000000;" x="296.565625" xlink:href="#m2dcdd3f175" y="243.437167"/>
     <use style="stroke:#000000;" x="298.177278" xlink:href="#m2dcdd3f175" y="243.57396"/>
     <use style="stroke:#000000;" x="299.78893" xlink:href="#m2dcdd3f175" y="243.724034"/>
     <use style="stroke:#000000;" x="301.400583" xlink:href="#m2dcdd3f175" y="243.815007"/>
     <use style="stroke:#000000;" x="303.012235" xlink:href="#m2dcdd3f175" y="243.997619"/>
     <use style="stroke:#000000;" x="304.623887" xlink:href="#m2dcdd3f175" y="244.125779"/>
     <use style="stroke:#000000;" x="306.23554" xlink:href="#m2dcdd3f175" y="244.279836"/>
     <use style="stroke:#000000;" x="307.847192" xlink:href="#m2dcdd3f175" y="244.409657"/>
     <use style="stroke:#000000;" x="309.458845" xlink:href="#m2dcdd3f175" y="244.589944"/>
     <use style="stroke:#000000;" x="311.070497" xlink:href="#m2dcdd3f175" y="244.748318"/>
     <use style="stroke:#000000;" x="312.68215" xlink:href="#m2dcdd3f175" y="244.864193"/>
     <use style="stroke:#000000;" x="314.293802" xlink:href="#m2dcdd3f175" y="245.001318"/>
     <use style="stroke:#000000;" x="315.905455" xlink:href="#m2dcdd3f175" y="245.157368"/>
     <use style="stroke:#000000;" x="317.517107" xlink:href="#m2dcdd3f175" y="245.094948"/>
     <use style="stroke:#000000;" x="319.128759" xlink:href="#m2dcdd3f175" y="245.283867"/>
     <use style="stroke:#000000;" x="320.740412" xlink:href="#m2dcdd3f175" y="245.353592"/>
     <use style="stroke:#000000;" x="322.352064" xlink:href="#m2dcdd3f175" y="245.485072"/>
     <use style="stroke:#000000;" x="323.963717" xlink:href="#m2dcdd3f175" y="245.566085"/>
     <use style="stroke:#000000;" x="325.575369" xlink:href="#m2dcdd3f175" y="245.568741"/>
     <use style="stroke:#000000;" x="327.187022" xlink:href="#m2dcdd3f175" y="245.67864"/>
     <use style="stroke:#000000;" x="328.798674" xlink:href="#m2dcdd3f175" y="245.80514"/>
     <use style="stroke:#000000;" x="330.410326" xlink:href="#m2dcdd3f175" y="245.968162"/>
     <use style="stroke:#000000;" x="332.021979" xlink:href="#m2dcdd3f175" y="246.006345"/>
     <use style="stroke:#000000;" x="333.633631" xlink:href="#m2dcdd3f175" y="246.230791"/>
     <use style="stroke:#000000;" x="335.245284" xlink:href="#m2dcdd3f175" y="246.339362"/>
     <use style="stroke:#000000;" x="336.856936" xlink:href="#m2dcdd3f175" y="246.440296"/>
     <use style="stroke:#000000;" x="338.468589" xlink:href="#m2dcdd3f175" y="246.505372"/>
     <use style="stroke:#000000;" x="340.080241" xlink:href="#m2dcdd3f175" y="246.498068"/>
     <use style="stroke:#000000;" x="341.691894" xlink:href="#m2dcdd3f175" y="246.592362"/>
     <use style="stroke:#000000;" x="343.303546" xlink:href="#m2dcdd3f175" y="246.596346"/>
     <use style="stroke:#000000;" x="344.915198" xlink:href="#m2dcdd3f175" y="246.635856"/>
     <use style="stroke:#000000;" x="346.526851" xlink:href="#m2dcdd3f175" y="246.695288"/>
     <use style="stroke:#000000;" x="348.138503" xlink:href="#m2dcdd3f175" y="246.729486"/>
     <use style="stroke:#000000;" x="349.750156" xlink:href="#m2dcdd3f175" y="246.752728"/>
     <use style="stroke:#000000;" x="351.361808" xlink:href="#m2dcdd3f175" y="246.936335"/>
     <use style="stroke:#000000;" x="352.973461" xlink:href="#m2dcdd3f175" y="247.056527"/>
     <use style="stroke:#000000;" x="354.585113" xlink:href="#m2dcdd3f175" y="247.142852"/>
     <use style="stroke:#000000;" x="356.196766" xlink:href="#m2dcdd3f175" y="247.250427"/>
     <use style="stroke:#000000;" x="357.808418" xlink:href="#m2dcdd3f175" y="247.306206"/>
     <use style="stroke:#000000;" x="359.42007" xlink:href="#m2dcdd3f175" y="247.42507"/>
     <use style="stroke:#000000;" x="361.031723" xlink:href="#m2dcdd3f175" y="247.460928"/>
     <use style="stroke:#000000;" x="362.643375" xlink:href="#m2dcdd3f175" y="247.595065"/>
     <use style="stroke:#000000;" x="364.255028" xlink:href="#m2dcdd3f175" y="247.610005"/>
     <use style="stroke:#000000;" x="365.86668" xlink:href="#m2dcdd3f175" y="247.638559"/>
     <use style="stroke:#000000;" x="367.478333" xlink:href="#m2dcdd3f175" y="247.68139"/>
     <use style="stroke:#000000;" x="369.089985" xlink:href="#m2dcdd3f175" y="247.695667"/>
     <use style="stroke:#000000;" x="370.701637" xlink:href="#m2dcdd3f175" y="247.726213"/>
     <use style="stroke:#000000;" x="372.31329" xlink:href="#m2dcdd3f175" y="247.695335"/>
     <use style="stroke:#000000;" x="373.924942" xlink:href="#m2dcdd3f175" y="247.745138"/>
     <use style="stroke:#000000;" x="375.536595" xlink:href="#m2dcdd3f175" y="247.788633"/>
     <use style="stroke:#000000;" x="377.148247" xlink:href="#m2dcdd3f175" y="247.857029"/>
     <use style="stroke:#000000;" x="378.7599" xlink:href="#m2dcdd3f175" y="247.953979"/>
     <use style="stroke:#000000;" x="380.371552" xlink:href="#m2dcdd3f175" y="247.968588"/>
     <use style="stroke:#000000;" x="381.983205" xlink:href="#m2dcdd3f175" y="247.989505"/>
     <use style="stroke:#000000;" x="383.594857" xlink:href="#m2dcdd3f175" y="248.139579"/>
     <use style="stroke:#000000;" x="385.206509" xlink:href="#m2dcdd3f175" y="248.257446"/>
    </g>
   </g>
   <g id="line2d_21">
    <path clip-path="url(#p98425fe652)" d="M 64.487674 216.88447 
L 66.099327 165.693546 
L 67.710979 134.583034 
L 69.322632 117.707135 
L 70.934284 110.047746 
L 72.545936 107.912758 
L 74.157589 108.875774 
L 75.769241 111.473185 
L 77.380894 114.85855 
L 83.827503 129.520933 
L 87.050808 136.076329 
L 90.274113 141.966395 
L 93.497418 147.282113 
L 96.720723 152.120471 
L 99.944028 156.567067 
L 103.167333 160.6894 
L 106.390638 164.540341 
L 111.225595 169.890302 
L 116.060552 174.81498 
L 120.89551 179.383186 
L 125.730467 183.645149 
L 130.565424 187.637411 
L 135.400381 191.387376 
L 140.235339 194.912098 
L 146.681949 199.28639 
L 153.128558 203.313703 
L 159.575168 207.017566 
L 166.021778 210.428449 
L 172.468388 213.577504 
L 178.914997 216.49555 
L 185.361607 219.209209 
L 193.419869 222.341952 
L 201.478131 225.211369 
L 209.536394 227.834247 
L 217.594656 230.222324 
L 225.652918 232.385459 
L 233.71118 234.335464 
L 241.769442 236.084504 
L 251.439357 237.936251 
L 261.109272 239.542682 
L 270.779186 240.927096 
L 282.060753 242.296074 
L 293.34232 243.434417 
L 306.23554 244.499987 
L 320.740412 245.45818 
L 336.856936 246.294207 
L 356.196766 247.067253 
L 380.371552 247.791476 
L 385.206509 247.907018 
L 385.206509 247.907018 
" style="fill:none;stroke:#0000ff;stroke-dasharray:5.55,2.4;stroke-dashoffset:0;stroke-width:1.5;"/>
   </g>
   <g id="line2d_22">
    <path clip-path="url(#p98425fe652)" d="M 64.487674 233.861398 
L 66.099327 195.248675 
L 67.710979 169.854116 
L 69.322632 154.576322 
L 70.934284 146.472852 
L 72.545936 143.097101 
L 74.157589 142.622749 
L 75.769241 143.820841 
L 77.380894 145.912449 
L 80.604199 151.093759 
L 83.827503 156.343875 
L 87.050808 161.146753 
L 90.274113 165.428862 
L 93.497418 169.248053 
L 96.720723 172.685648 
L 99.944028 175.817873 
L 103.167333 178.706672 
L 108.00229 182.687665 
L 112.837247 186.343761 
L 117.672205 189.752399 
L 124.118814 194.000314 
L 130.565424 197.985166 
L 138.623686 202.682787 
L 146.681949 207.133563 
L 156.351863 212.205455 
L 164.410125 216.210048 
L 172.468388 219.981587 
L 180.52665 223.477918 
L 186.97326 226.054375 
L 193.419869 228.425793 
L 199.866479 230.591127 
L 206.313089 232.555627 
L 212.759699 234.330943 
L 220.817961 236.302646 
L 228.876223 238.028748 
L 236.934485 239.539711 
L 246.6044 241.109988 
L 256.274314 242.459278 
L 267.555881 243.808383 
L 280.449101 245.116778 
L 294.953973 246.361712 
L 311.070497 247.529474 
L 330.410326 248.698023 
L 351.361808 249.734093 
L 375.536595 250.693837 
L 385.206509 251.025358 
L 385.206509 251.025358 
" style="fill:none;stroke:#0000ff;stroke-dasharray:5.55,2.4;stroke-dashoffset:0;stroke-width:1.5;"/>
   </g>
   <g id="line2d_23"/>
   <g id="line2d_24"/>
   <g id="line2d_25"/>
   <g id="line2d_26"/>
   <g id="line2d_27"/>
   <g id="line2d_28"/>
   <g id="line2d_29"/>
   <g id="patch_3">
    <path d="M 46.965625 288.430125 
L 46.965625 22.318125 
" style="fill:none;stroke:#000000;stroke-linecap:square;stroke-linejoin:miter;stroke-width:0.8;"/>
   </g>
   <g id="patch_4">
    <path d="M 404.085625 288.430125 
L 404.085625 22.318125 
" style="fill:none;stroke:#000000;stroke-linecap:square;stroke-linejoin:miter;stroke-width:0.8;"/>
   </g>
   <g id="patch_5">
    <path d="M 46.965625 288.430125 
L 404.085625 288.430125 
" style="fill:none;stroke:#000000;stroke-linecap:square;stroke-linejoin:miter;stroke-width:0.8;"/>
   </g>
   <g id="patch_6">
    <path d="M 46.965625 22.318125 
L 404.085625 22.318125 
" style="fill:none;stroke:#000000;stroke-linecap:square;stroke-linejoin:miter;stroke-width:0.8;"/>
   </g>
   <g id="text_20">
    <!-- Experiment_33 -->
    <g transform="translate(180.222813 16.318125)scale(0.12 -0.12)">
     <defs>
      <path d="M 9.8125 72.90625 
L 55.90625 72.90625 
L 55.90625 64.59375 
L 19.671875 64.59375 
L 19.671875 43.015625 
L 54.390625 43.015625 
L 54.390625 34.71875 
L 19.671875 34.71875 
L 19.671875 8.296875 
L 56.78125 8.296875 
L 56.78125 0 
L 9.8125 0 
z
" id="DejaVuSans-69"/>
      <path d="M 54.890625 54.6875 
L 35.109375 28.078125 
L 55.90625 0 
L 45.3125 0 
L 29.390625 21.484375 
L 13.484375 0 
L 2.875 0 
L 24.125 28.609375 
L 4.6875 54.6875 
L 15.28125 54.6875 
L 29.78125 35.203125 
L 44.28125 54.6875 
z
" id="DejaVuSans-120"/>
      <path d="M 41.109375 46.296875 
Q 39.59375 47.171875 37.8125 47.578125 
Q 36.03125 48 33.890625 48 
Q 26.265625 48 22.1875 43.046875 
Q 18.109375 38.09375 18.109375 28.8125 
L 18.109375 0 
L 9.078125 0 
L 9.078125 54.6875 
L 18.109375 54.6875 
L 18.109375 46.1875 
Q 20.953125 51.171875 25.484375 53.578125 
Q 30.03125 56 36.53125 56 
Q 37.453125 56 38.578125 55.875 
Q 39.703125 55.765625 41.0625 55.515625 
z
" id="DejaVuSans-114"/>
      <path d="M 54.890625 33.015625 
L 54.890625 0 
L 45.90625 0 
L 45.90625 32.71875 
Q 45.90625 40.484375 42.875 44.328125 
Q 39.84375 48.1875 33.796875 48.1875 
Q 26.515625 48.1875 22.3125 43.546875 
Q 18.109375 38.921875 18.109375 30.90625 
L 18.109375 0 
L 9.078125 0 
L 9.078125 54.6875 
L 18.109375 54.6875 
L 18.109375 46.1875 
Q 21.34375 51.125 25.703125 53.5625 
Q 30.078125 56 35.796875 56 
Q 45.21875 56 50.046875 50.171875 
Q 54.890625 44.34375 54.890625 33.015625 
z
" id="DejaVuSans-110"/>
      <path d="M 18.3125 70.21875 
L 18.3125 54.6875 
L 36.8125 54.6875 
L 36.8125 47.703125 
L 18.3125 47.703125 
L 18.3125 18.015625 
Q 18.3125 11.328125 20.140625 9.421875 
Q 21.96875 7.515625 27.59375 7.515625 
L 36.8125 7.515625 
L 36.8125 0 
L 27.59375 0 
Q 17.1875 0 13.234375 3.875 
Q 9.28125 7.765625 9.28125 18.015625 
L 9.28125 47.703125 
L 2.6875 47.703125 
L 2.6875 54.6875 
L 9.28125 54.6875 
L 9.28125 70.21875 
z
" id="DejaVuSans-116"/>
      <path d="M 50.984375 -16.609375 
L 50.984375 -23.578125 
L -0.984375 -23.578125 
L -0.984375 -16.609375 
z
" id="DejaVuSans-95"/>
     </defs>
     <use xlink:href="#DejaVuSans-69"/>
     <use x="63.183594" xlink:href="#DejaVuSans-120"/>
     <use x="122.363281" xlink:href="#DejaVuSans-112"/>
     <use x="185.839844" xlink:href="#DejaVuSans-101"/>
     <use x="247.363281" xlink:href="#DejaVuSans-114"/>
     <use x="288.476562" xlink:href="#DejaVuSans-105"/>
     <use x="316.259766" xlink:href="#DejaVuSans-109"/>
     <use x="413.671875" xlink:href="#DejaVuSans-101"/>
     <use x="475.195312" xlink:href="#DejaVuSans-110"/>
     <use x="538.574219" xlink:href="#DejaVuSans-116"/>
     <use x="577.783203" xlink:href="#DejaVuSans-95"/>
     <use x="627.783203" xlink:href="#DejaVuSans-51"/>
     <use x="691.40625" xlink:href="#DejaVuSans-51"/>
    </g>
   </g>
   <g id="legend_1">
    <g id="patch_7">
     <path d="M 132.855938 103.730625 
L 397.085625 103.730625 
Q 399.085625 103.730625 399.085625 101.730625 
L 399.085625 29.318125 
Q 399.085625 27.318125 397.085625 27.318125 
L 132.855938 27.318125 
Q 130.855938 27.318125 130.855938 29.318125 
L 130.855938 101.730625 
Q 130.855938 103.730625 132.855938 103.730625 
z
" style="fill:#ffffff;opacity:0.8;stroke:#cccccc;stroke-linejoin:miter;"/>
    </g>
    <g id="line2d_30">
     <path d="M 134.855938 35.416562 
L 154.855938 35.416562 
" style="fill:none;stroke:#0000ff;stroke-linecap:square;stroke-width:1.5;"/>
    </g>
    <g id="line2d_31"/>
    <g id="text_21">
     <!-- MSI -->
     <g transform="translate(162.855938 38.916562)scale(0.1 -0.1)">
      <defs>
       <path d="M 9.8125 72.90625 
L 24.515625 72.90625 
L 43.109375 23.296875 
L 61.8125 72.90625 
L 76.515625 72.90625 
L 76.515625 0 
L 66.890625 0 
L 66.890625 64.015625 
L 48.09375 14.015625 
L 38.1875 14.015625 
L 19.390625 64.015625 
L 19.390625 0 
L 9.8125 0 
z
" id="DejaVuSans-77"/>
       <path d="M 53.515625 70.515625 
L 53.515625 60.890625 
Q 47.90625 63.578125 42.921875 64.890625 
Q 37.9375 66.21875 33.296875 66.21875 
Q 25.25 66.21875 20.875 63.09375 
Q 16.5 59.96875 16.5 54.203125 
Q 16.5 49.359375 19.40625 46.890625 
Q 22.3125 44.4375 30.421875 42.921875 
L 36.375 41.703125 
Q 47.40625 39.59375 52.65625 34.296875 
Q 57.90625 29 57.90625 20.125 
Q 57.90625 9.515625 50.796875 4.046875 
Q 43.703125 -1.421875 29.984375 -1.421875 
Q 24.8125 -1.421875 18.96875 -0.25 
Q 13.140625 0.921875 6.890625 3.21875 
L 6.890625 13.375 
Q 12.890625 10.015625 18.65625 8.296875 
Q 24.421875 6.59375 29.984375 6.59375 
Q 38.421875 6.59375 43.015625 9.90625 
Q 47.609375 13.234375 47.609375 19.390625 
Q 47.609375 24.75 44.3125 27.78125 
Q 41.015625 30.8125 33.5 32.328125 
L 27.484375 33.5 
Q 16.453125 35.6875 11.515625 40.375 
Q 6.59375 45.0625 6.59375 53.421875 
Q 6.59375 63.09375 13.40625 68.65625 
Q 20.21875 74.21875 32.171875 74.21875 
Q 37.3125 74.21875 42.625 73.28125 
Q 47.953125 72.359375 53.515625 70.515625 
z
" id="DejaVuSans-83"/>
       <path d="M 9.8125 72.90625 
L 19.671875 72.90625 
L 19.671875 0 
L 9.8125 0 
z
" id="DejaVuSans-73"/>
      </defs>
      <use xlink:href="#DejaVuSans-77"/>
      <use x="86.279297" xlink:href="#DejaVuSans-83"/>
      <use x="149.755859" xlink:href="#DejaVuSans-73"/>
     </g>
    </g>
    <g id="line2d_32">
     <path d="M 134.855938 50.09625 
L 154.855938 50.09625 
" style="fill:none;stroke:#ff0000;stroke-linecap:square;stroke-width:1.5;"/>
    </g>
    <g id="line2d_33"/>
    <g id="text_22">
     <!-- $\it{A priori}$ model -->
     <g transform="translate(162.855938 53.59625)scale(0.1 -0.1)">
      <defs>
       <path d="M 36.8125 72.90625 
L 48 72.90625 
L 61.53125 0 
L 51.21875 0 
L 48.1875 18.703125 
L 15.375 18.703125 
L 5.078125 0 
L -5.328125 0 
z
M 40.375 63.1875 
L 19.921875 26.90625 
L 46.6875 26.90625 
z
" id="DejaVuSans-Oblique-65"/>
       <path d="M 49.609375 33.6875 
Q 49.609375 40.875 46.484375 44.671875 
Q 43.359375 48.484375 37.5 48.484375 
Q 33.5 48.484375 29.859375 46.4375 
Q 26.21875 44.390625 23.390625 40.484375 
Q 20.609375 36.625 18.9375 31.15625 
Q 17.28125 25.6875 17.28125 20.3125 
Q 17.28125 13.484375 20.40625 9.796875 
Q 23.53125 6.109375 29.296875 6.109375 
Q 33.546875 6.109375 37.1875 8.109375 
Q 40.828125 10.109375 43.40625 13.921875 
Q 46.1875 17.921875 47.890625 23.34375 
Q 49.609375 28.765625 49.609375 33.6875 
z
M 21.78125 46.390625 
Q 25.390625 51.125 30.296875 53.5625 
Q 35.203125 56 41.21875 56 
Q 49.609375 56 54.25 50.5 
Q 58.890625 45.015625 58.890625 35.109375 
Q 58.890625 27 56 19.65625 
Q 53.125 12.3125 47.703125 6.5 
Q 44.09375 2.640625 39.546875 0.609375 
Q 35.015625 -1.421875 29.984375 -1.421875 
Q 24.171875 -1.421875 20.21875 1 
Q 16.265625 3.421875 14.3125 8.203125 
L 8.6875 -20.796875 
L -0.296875 -20.796875 
L 14.40625 54.6875 
L 23.390625 54.6875 
z
" id="DejaVuSans-Oblique-112"/>
       <path d="M 44.578125 46.390625 
Q 43.21875 47.125 41.453125 47.515625 
Q 39.703125 47.90625 37.703125 47.90625 
Q 30.515625 47.90625 25.140625 42.453125 
Q 19.78125 37.015625 18.015625 27.875 
L 12.5 0 
L 3.515625 0 
L 14.203125 54.6875 
L 23.1875 54.6875 
L 21.484375 46.1875 
Q 25.046875 50.921875 30 53.453125 
Q 34.96875 56 40.578125 56 
Q 42.046875 56 43.453125 55.828125 
Q 44.875 55.671875 46.296875 55.28125 
z
" id="DejaVuSans-Oblique-114"/>
       <path d="M 18.3125 75.984375 
L 27.296875 75.984375 
L 25.09375 64.59375 
L 16.109375 64.59375 
z
M 14.203125 54.6875 
L 23.1875 54.6875 
L 12.5 0 
L 3.515625 0 
z
" id="DejaVuSans-Oblique-105"/>
       <path d="M 25.390625 -1.421875 
Q 15.765625 -1.421875 10.171875 4.515625 
Q 4.59375 10.453125 4.59375 20.703125 
Q 4.59375 26.65625 6.515625 32.828125 
Q 8.453125 39.015625 11.53125 43.21875 
Q 16.359375 49.75 22.3125 52.875 
Q 28.265625 56 35.796875 56 
Q 45.125 56 50.859375 50.1875 
Q 56.59375 44.390625 56.59375 35.015625 
Q 56.59375 28.515625 54.6875 22.0625 
Q 52.78125 15.625 49.703125 11.375 
Q 44.921875 4.828125 38.96875 1.703125 
Q 33.015625 -1.421875 25.390625 -1.421875 
z
M 13.921875 21 
Q 13.921875 13.578125 17.015625 9.890625 
Q 20.125 6.203125 26.421875 6.203125 
Q 35.453125 6.203125 41.375 14.078125 
Q 47.3125 21.96875 47.3125 34.078125 
Q 47.3125 41.15625 44.140625 44.765625 
Q 40.96875 48.390625 34.8125 48.390625 
Q 29.734375 48.390625 25.78125 46.015625 
Q 21.828125 43.65625 18.703125 38.8125 
Q 16.40625 35.203125 15.15625 30.5625 
Q 13.921875 25.921875 13.921875 21 
z
" id="DejaVuSans-Oblique-111"/>
       <path d="M 30.609375 48.390625 
Q 23.390625 48.390625 19.1875 42.75 
Q 14.984375 37.109375 14.984375 27.296875 
Q 14.984375 17.484375 19.15625 11.84375 
Q 23.34375 6.203125 30.609375 6.203125 
Q 37.796875 6.203125 41.984375 11.859375 
Q 46.1875 17.53125 46.1875 27.296875 
Q 46.1875 37.015625 41.984375 42.703125 
Q 37.796875 48.390625 30.609375 48.390625 
z
M 30.609375 56 
Q 42.328125 56 49.015625 48.375 
Q 55.71875 40.765625 55.71875 27.296875 
Q 55.71875 13.875 49.015625 6.21875 
Q 42.328125 -1.421875 30.609375 -1.421875 
Q 18.84375 -1.421875 12.171875 6.21875 
Q 5.515625 13.875 5.515625 27.296875 
Q 5.515625 40.765625 12.171875 48.375 
Q 18.84375 56 30.609375 56 
z
" id="DejaVuSans-111"/>
       <path d="M 45.40625 46.390625 
L 45.40625 75.984375 
L 54.390625 75.984375 
L 54.390625 0 
L 45.40625 0 
L 45.40625 8.203125 
Q 42.578125 3.328125 38.25 0.953125 
Q 33.9375 -1.421875 27.875 -1.421875 
Q 17.96875 -1.421875 11.734375 6.484375 
Q 5.515625 14.40625 5.515625 27.296875 
Q 5.515625 40.1875 11.734375 48.09375 
Q 17.96875 56 27.875 56 
Q 33.9375 56 38.25 53.625 
Q 42.578125 51.265625 45.40625 46.390625 
z
M 14.796875 27.296875 
Q 14.796875 17.390625 18.875 11.75 
Q 22.953125 6.109375 30.078125 6.109375 
Q 37.203125 6.109375 41.296875 11.75 
Q 45.40625 17.390625 45.40625 27.296875 
Q 45.40625 37.203125 41.296875 42.84375 
Q 37.203125 48.484375 30.078125 48.484375 
Q 22.953125 48.484375 18.875 42.84375 
Q 14.796875 37.203125 14.796875 27.296875 
z
" id="DejaVuSans-100"/>
       <path d="M 9.421875 75.984375 
L 18.40625 75.984375 
L 18.40625 0 
L 9.421875 0 
z
" id="DejaVuSans-108"/>
      </defs>
      <use transform="translate(0 0.015625)" xlink:href="#DejaVuSans-Oblique-65"/>
      <use transform="translate(68.408203 0.015625)" xlink:href="#DejaVuSans-Oblique-112"/>
      <use transform="translate(131.884766 0.015625)" xlink:href="#DejaVuSans-Oblique-114"/>
      <use transform="translate(172.998047 0.015625)" xlink:href="#DejaVuSans-Oblique-105"/>
      <use transform="translate(200.78125 0.015625)" xlink:href="#DejaVuSans-Oblique-111"/>
      <use transform="translate(261.962891 0.015625)" xlink:href="#DejaVuSans-Oblique-114"/>
      <use transform="translate(303.076172 0.015625)" xlink:href="#DejaVuSans-Oblique-105"/>
      <use transform="translate(330.859375 0.015625)" xlink:href="#DejaVuSans-32"/>
      <use transform="translate(362.646484 0.015625)" xlink:href="#DejaVuSans-109"/>
      <use transform="translate(460.058594 0.015625)" xlink:href="#DejaVuSans-111"/>
      <use transform="translate(521.240234 0.015625)" xlink:href="#DejaVuSans-100"/>
      <use transform="translate(584.716797 0.015625)" xlink:href="#DejaVuSans-101"/>
      <use transform="translate(646.240234 0.015625)" xlink:href="#DejaVuSans-108"/>
     </g>
    </g>
    <g id="line2d_34"/>
    <g id="line2d_35">
     <g>
      <use style="stroke:#000000;" x="144.855938" xlink:href="#m2dcdd3f175" y="64.794688"/>
     </g>
    </g>
    <g id="text_23">
     <!-- Experimental Data -->
     <g transform="translate(162.855938 68.294688)scale(0.1 -0.1)">
      <defs>
       <path d="M 34.28125 27.484375 
Q 23.390625 27.484375 19.1875 25 
Q 14.984375 22.515625 14.984375 16.5 
Q 14.984375 11.71875 18.140625 8.90625 
Q 21.296875 6.109375 26.703125 6.109375 
Q 34.1875 6.109375 38.703125 11.40625 
Q 43.21875 16.703125 43.21875 25.484375 
L 43.21875 27.484375 
z
M 52.203125 31.203125 
L 52.203125 0 
L 43.21875 0 
L 43.21875 8.296875 
Q 40.140625 3.328125 35.546875 0.953125 
Q 30.953125 -1.421875 24.3125 -1.421875 
Q 15.921875 -1.421875 10.953125 3.296875 
Q 6 8.015625 6 15.921875 
Q 6 25.140625 12.171875 29.828125 
Q 18.359375 34.515625 30.609375 34.515625 
L 43.21875 34.515625 
L 43.21875 35.40625 
Q 43.21875 41.609375 39.140625 45 
Q 35.0625 48.390625 27.6875 48.390625 
Q 23 48.390625 18.546875 47.265625 
Q 14.109375 46.140625 10.015625 43.890625 
L 10.015625 52.203125 
Q 14.9375 54.109375 19.578125 55.046875 
Q 24.21875 56 28.609375 56 
Q 40.484375 56 46.34375 49.84375 
Q 52.203125 43.703125 52.203125 31.203125 
z
" id="DejaVuSans-97"/>
       <path d="M 19.671875 64.796875 
L 19.671875 8.109375 
L 31.59375 8.109375 
Q 46.6875 8.109375 53.6875 14.9375 
Q 60.6875 21.78125 60.6875 36.53125 
Q 60.6875 51.171875 53.6875 57.984375 
Q 46.6875 64.796875 31.59375 64.796875 
z
M 9.8125 72.90625 
L 30.078125 72.90625 
Q 51.265625 72.90625 61.171875 64.09375 
Q 71.09375 55.28125 71.09375 36.53125 
Q 71.09375 17.671875 61.125 8.828125 
Q 51.171875 0 30.078125 0 
L 9.8125 0 
z
" id="DejaVuSans-68"/>
      </defs>
      <use xlink:href="#DejaVuSans-69"/>
      <use x="63.183594" xlink:href="#DejaVuSans-120"/>
      <use x="122.363281" xlink:href="#DejaVuSans-112"/>
      <use x="185.839844" xlink:href="#DejaVuSans-101"/>
      <use x="247.363281" xlink:href="#DejaVuSans-114"/>
      <use x="288.476562" xlink:href="#DejaVuSans-105"/>
      <use x="316.259766" xlink:href="#DejaVuSans-109"/>
      <use x="413.671875" xlink:href="#DejaVuSans-101"/>
      <use x="475.195312" xlink:href="#DejaVuSans-110"/>
      <use x="538.574219" xlink:href="#DejaVuSans-116"/>
      <use x="577.783203" xlink:href="#DejaVuSans-97"/>
      <use x="639.0625" xlink:href="#DejaVuSans-108"/>
      <use x="666.845703" xlink:href="#DejaVuSans-32"/>
      <use x="698.632812" xlink:href="#DejaVuSans-68"/>
      <use x="775.634766" xlink:href="#DejaVuSans-97"/>
      <use x="836.914062" xlink:href="#DejaVuSans-116"/>
      <use x="876.123047" xlink:href="#DejaVuSans-97"/>
     </g>
    </g>
    <g id="line2d_36">
     <path d="M 134.855938 79.472813 
L 154.855938 79.472813 
" style="fill:none;stroke:#ffffff;stroke-linecap:square;stroke-width:1.5;"/>
    </g>
    <g id="line2d_37"/>
    <g id="text_24">
     <!-- T:1398 -->
     <g transform="translate(162.855938 82.972813)scale(0.1 -0.1)">
      <defs>
       <path d="M 11.71875 12.40625 
L 22.015625 12.40625 
L 22.015625 0 
L 11.71875 0 
z
M 11.71875 51.703125 
L 22.015625 51.703125 
L 22.015625 39.3125 
L 11.71875 39.3125 
z
" id="DejaVuSans-58"/>
       <path d="M 10.984375 1.515625 
L 10.984375 10.5 
Q 14.703125 8.734375 18.5 7.8125 
Q 22.3125 6.890625 25.984375 6.890625 
Q 35.75 6.890625 40.890625 13.453125 
Q 46.046875 20.015625 46.78125 33.40625 
Q 43.953125 29.203125 39.59375 26.953125 
Q 35.25 24.703125 29.984375 24.703125 
Q 19.046875 24.703125 12.671875 31.3125 
Q 6.296875 37.9375 6.296875 49.421875 
Q 6.296875 60.640625 12.9375 67.421875 
Q 19.578125 74.21875 30.609375 74.21875 
Q 43.265625 74.21875 49.921875 64.515625 
Q 56.59375 54.828125 56.59375 36.375 
Q 56.59375 19.140625 48.40625 8.859375 
Q 40.234375 -1.421875 26.421875 -1.421875 
Q 22.703125 -1.421875 18.890625 -0.6875 
Q 15.09375 0.046875 10.984375 1.515625 
z
M 30.609375 32.421875 
Q 37.25 32.421875 41.125 36.953125 
Q 45.015625 41.5 45.015625 49.421875 
Q 45.015625 57.28125 41.125 61.84375 
Q 37.25 66.40625 30.609375 66.40625 
Q 23.96875 66.40625 20.09375 61.84375 
Q 16.21875 57.28125 16.21875 49.421875 
Q 16.21875 41.5 20.09375 36.953125 
Q 23.96875 32.421875 30.609375 32.421875 
z
" id="DejaVuSans-57"/>
       <path d="M 31.78125 34.625 
Q 24.75 34.625 20.71875 30.859375 
Q 16.703125 27.09375 16.703125 20.515625 
Q 16.703125 13.921875 20.71875 10.15625 
Q 24.75 6.390625 31.78125 6.390625 
Q 38.8125 6.390625 42.859375 10.171875 
Q 46.921875 13.96875 46.921875 20.515625 
Q 46.921875 27.09375 42.890625 30.859375 
Q 38.875 34.625 31.78125 34.625 
z
M 21.921875 38.8125 
Q 15.578125 40.375 12.03125 44.71875 
Q 8.5 49.078125 8.5 55.328125 
Q 8.5 64.0625 14.71875 69.140625 
Q 20.953125 74.21875 31.78125 74.21875 
Q 42.671875 74.21875 48.875 69.140625 
Q 55.078125 64.0625 55.078125 55.328125 
Q 55.078125 49.078125 51.53125 44.71875 
Q 48 40.375 41.703125 38.8125 
Q 48.828125 37.15625 52.796875 32.3125 
Q 56.78125 27.484375 56.78125 20.515625 
Q 56.78125 9.90625 50.3125 4.234375 
Q 43.84375 -1.421875 31.78125 -1.421875 
Q 19.734375 -1.421875 13.25 4.234375 
Q 6.78125 9.90625 6.78125 20.515625 
Q 6.78125 27.484375 10.78125 32.3125 
Q 14.796875 37.15625 21.921875 38.8125 
z
M 18.3125 54.390625 
Q 18.3125 48.734375 21.84375 45.5625 
Q 25.390625 42.390625 31.78125 42.390625 
Q 38.140625 42.390625 41.71875 45.5625 
Q 45.3125 48.734375 45.3125 54.390625 
Q 45.3125 60.0625 41.71875 63.234375 
Q 38.140625 66.40625 31.78125 66.40625 
Q 25.390625 66.40625 21.84375 63.234375 
Q 18.3125 60.0625 18.3125 54.390625 
z
" id="DejaVuSans-56"/>
      </defs>
      <use xlink:href="#DejaVuSans-84"/>
      <use x="50.083984" xlink:href="#DejaVuSans-58"/>
      <use x="83.775391" xlink:href="#DejaVuSans-49"/>
      <use x="147.398438" xlink:href="#DejaVuSans-51"/>
      <use x="211.021484" xlink:href="#DejaVuSans-57"/>
      <use x="274.644531" xlink:href="#DejaVuSans-56"/>
     </g>
    </g>
    <g id="line2d_38">
     <path d="M 134.855938 94.150937 
L 154.855938 94.150937 
" style="fill:none;stroke:#ffffff;stroke-linecap:square;stroke-width:1.5;"/>
    </g>
    <g id="line2d_39"/>
    <g id="text_25">
     <!-- P:1.909 -->
     <g transform="translate(162.855938 97.650937)scale(0.1 -0.1)">
      <defs>
       <path d="M 19.671875 64.796875 
L 19.671875 37.40625 
L 32.078125 37.40625 
Q 38.96875 37.40625 42.71875 40.96875 
Q 46.484375 44.53125 46.484375 51.125 
Q 46.484375 57.671875 42.71875 61.234375 
Q 38.96875 64.796875 32.078125 64.796875 
z
M 9.8125 72.90625 
L 32.078125 72.90625 
Q 44.34375 72.90625 50.609375 67.359375 
Q 56.890625 61.8125 56.890625 51.125 
Q 56.890625 40.328125 50.609375 34.8125 
Q 44.34375 29.296875 32.078125 29.296875 
L 19.671875 29.296875 
L 19.671875 0 
L 9.8125 0 
z
" id="DejaVuSans-80"/>
      </defs>
      <use xlink:href="#DejaVuSans-80"/>
      <use x="60.302734" xlink:href="#DejaVuSans-58"/>
      <use x="93.994141" xlink:href="#DejaVuSans-49"/>
      <use x="157.617188" xlink:href="#DejaVuSans-46"/>
      <use x="189.404297" xlink:href="#DejaVuSans-57"/>
      <use x="253.027344" xlink:href="#DejaVuSans-48"/>
      <use x="316.650391" xlink:href="#DejaVuSans-57"/>
     </g>
    </g>
    <g id="line2d_40">
     <path d="M 276.596563 35.416562 
L 296.596563 35.416562 
" style="fill:none;stroke:#ffffff;stroke-linecap:square;stroke-width:1.5;"/>
    </g>
    <g id="line2d_41"/>
    <g id="text_26">
     <!-- H2O: 0.001234 -->
     <g transform="translate(304.596563 38.916562)scale(0.1 -0.1)">
      <use xlink:href="#DejaVuSans-72"/>
      <use x="75.195312" xlink:href="#DejaVuSans-50"/>
      <use x="138.818359" xlink:href="#DejaVuSans-79"/>
      <use x="215.779297" xlink:href="#DejaVuSans-58"/>
      <use x="249.470703" xlink:href="#DejaVuSans-32"/>
      <use x="281.257812" xlink:href="#DejaVuSans-48"/>
      <use x="344.880859" xlink:href="#DejaVuSans-46"/>
      <use x="376.667969" xlink:href="#DejaVuSans-48"/>
      <use x="440.291016" xlink:href="#DejaVuSans-48"/>
      <use x="503.914062" xlink:href="#DejaVuSans-49"/>
      <use x="567.537109" xlink:href="#DejaVuSans-50"/>
      <use x="631.160156" xlink:href="#DejaVuSans-51"/>
      <use x="694.783203" xlink:href="#DejaVuSans-52"/>
     </g>
    </g>
    <g id="line2d_42">
     <path d="M 276.596563 50.094688 
L 296.596563 50.094688 
" style="fill:none;stroke:#ffffff;stroke-linecap:square;stroke-width:1.5;"/>
    </g>
    <g id="line2d_43"/>
    <g id="text_27">
     <!-- H2O2: 0.00254 -->
     <g transform="translate(304.596563 53.594688)scale(0.1 -0.1)">
      <use xlink:href="#DejaVuSans-72"/>
      <use x="75.195312" xlink:href="#DejaVuSans-50"/>
      <use x="138.818359" xlink:href="#DejaVuSans-79"/>
      <use x="217.529297" xlink:href="#DejaVuSans-50"/>
      <use x="281.152344" xlink:href="#DejaVuSans-58"/>
      <use x="314.84375" xlink:href="#DejaVuSans-32"/>
      <use x="346.630859" xlink:href="#DejaVuSans-48"/>
      <use x="410.253906" xlink:href="#DejaVuSans-46"/>
      <use x="442.041016" xlink:href="#DejaVuSans-48"/>
      <use x="505.664062" xlink:href="#DejaVuSans-48"/>
      <use x="569.287109" xlink:href="#DejaVuSans-50"/>
      <use x="632.910156" xlink:href="#DejaVuSans-53"/>
      <use x="696.533203" xlink:href="#DejaVuSans-52"/>
     </g>
    </g>
    <g id="line2d_44">
     <path d="M 276.596563 64.772812 
L 296.596563 64.772812 
" style="fill:none;stroke:#ffffff;stroke-linecap:square;stroke-width:1.5;"/>
    </g>
    <g id="line2d_45"/>
    <g id="text_28">
     <!-- O2: 0.00062 -->
     <g transform="translate(304.596563 68.272812)scale(0.1 -0.1)">
      <use xlink:href="#DejaVuSans-79"/>
      <use x="78.710938" xlink:href="#DejaVuSans-50"/>
      <use x="142.333984" xlink:href="#DejaVuSans-58"/>
      <use x="176.025391" xlink:href="#DejaVuSans-32"/>
      <use x="207.8125" xlink:href="#DejaVuSans-48"/>
      <use x="271.435547" xlink:href="#DejaVuSans-46"/>
      <use x="303.222656" xlink:href="#DejaVuSans-48"/>
      <use x="366.845703" xlink:href="#DejaVuSans-48"/>
      <use x="430.46875" xlink:href="#DejaVuSans-48"/>
      <use x="494.091797" xlink:href="#DejaVuSans-54"/>
      <use x="557.714844" xlink:href="#DejaVuSans-50"/>
     </g>
    </g>
    <g id="line2d_46">
     <path d="M 276.596563 79.450938 
L 296.596563 79.450938 
" style="fill:none;stroke:#ffffff;stroke-linecap:square;stroke-width:1.5;"/>
    </g>
    <g id="line2d_47"/>
    <g id="text_29">
     <!-- H: 4.485e-08 -->
     <g transform="translate(304.596563 82.950938)scale(0.1 -0.1)">
      <defs>
       <path d="M 4.890625 31.390625 
L 31.203125 31.390625 
L 31.203125 23.390625 
L 4.890625 23.390625 
z
" id="DejaVuSans-45"/>
      </defs>
      <use xlink:href="#DejaVuSans-72"/>
      <use x="75.195312" xlink:href="#DejaVuSans-58"/>
      <use x="108.886719" xlink:href="#DejaVuSans-32"/>
      <use x="140.673828" xlink:href="#DejaVuSans-52"/>
      <use x="204.296875" xlink:href="#DejaVuSans-46"/>
      <use x="236.083984" xlink:href="#DejaVuSans-52"/>
      <use x="299.707031" xlink:href="#DejaVuSans-56"/>
      <use x="363.330078" xlink:href="#DejaVuSans-53"/>
      <use x="426.953125" xlink:href="#DejaVuSans-101"/>
      <use x="488.476562" xlink:href="#DejaVuSans-45"/>
      <use x="524.560547" xlink:href="#DejaVuSans-48"/>
      <use x="588.183594" xlink:href="#DejaVuSans-56"/>
     </g>
    </g>
    <g id="line2d_48">
     <path d="M 276.596563 94.129063 
L 296.596563 94.129063 
" style="fill:none;stroke:#ffffff;stroke-linecap:square;stroke-width:1.5;"/>
    </g>
    <g id="line2d_49"/>
    <g id="text_30">
     <!-- Ar: 0.9956059552 -->
     <g transform="translate(304.596563 97.629063)scale(0.1 -0.1)">
      <defs>
       <path d="M 34.1875 63.1875 
L 20.796875 26.90625 
L 47.609375 26.90625 
z
M 28.609375 72.90625 
L 39.796875 72.90625 
L 67.578125 0 
L 57.328125 0 
L 50.6875 18.703125 
L 17.828125 18.703125 
L 11.1875 0 
L 0.78125 0 
z
" id="DejaVuSans-65"/>
      </defs>
      <use xlink:href="#DejaVuSans-65"/>
      <use x="68.408203" xlink:href="#DejaVuSans-114"/>
      <use x="107.771484" xlink:href="#DejaVuSans-58"/>
      <use x="141.462891" xlink:href="#DejaVuSans-32"/>
      <use x="173.25" xlink:href="#DejaVuSans-48"/>
      <use x="236.873047" xlink:href="#DejaVuSans-46"/>
      <use x="268.660156" xlink:href="#DejaVuSans-57"/>
      <use x="332.283203" xlink:href="#DejaVuSans-57"/>
      <use x="395.90625" xlink:href="#DejaVuSans-53"/>
      <use x="459.529297" xlink:href="#DejaVuSans-54"/>
      <use x="523.152344" xlink:href="#DejaVuSans-48"/>
      <use x="586.775391" xlink:href="#DejaVuSans-53"/>
      <use x="650.398438" xlink:href="#DejaVuSans-57"/>
      <use x="714.021484" xlink:href="#DejaVuSans-53"/>
      <use x="777.644531" xlink:href="#DejaVuSans-53"/>
      <use x="841.267578" xlink:href="#DejaVuSans-50"/>
     </g>
    </g>
   </g>
  </g>
 </g>
 <defs>
  <clipPath id="p98425fe652">
   <rect height="266.112" width="357.12" x="46.965625" y="22.318125"/>
  </clipPath>
 </defs>
</svg>
